# 
# Wavefront OBJ file
# Created with Kaydara FBX
# 
mtllib retainer_proto_00.mtl

g Retainer_proto_00
v 1.500000 11.000000 8.250000
v 1.500000 12.161808 8.536360
v -0.000000 11.464723 9.864544
v 1.500000 13.057460 9.329838
v -0.000000 11.822984 10.181935
v 1.500000 13.481772 10.448658
v -0.000000 11.992709 10.629463
v 1.500000 13.337541 11.636512
v -0.000000 11.935016 11.104605
v 1.500000 12.657807 12.621277
v -0.000000 11.663123 11.498511
v 1.500000 11.598289 13.177355
v -0.000000 11.239316 11.720942
v 1.500000 11.000000 13.250000
v -0.000000 10.760684 11.720942
v 1.500000 10.401711 13.177355
v 1.500000 9.342193 12.621277
v -0.000000 10.336877 11.498511
v 1.500000 8.662459 11.636512
v -0.000000 10.064984 11.104605
v 1.500000 8.518228 10.448658
v -0.000000 10.007291 10.629463
v 1.500000 8.942540 9.329838
v -0.000000 10.177016 10.181935
v 1.500000 9.838192 8.536360
v -0.000000 10.535277 9.864544
v -0.000000 11.000000 9.750000
v 1.500000 0.000000 21.500000
v 1.500000 21.295972 2.957110
v 1.500000 22.000000 21.500000
v 1.500000 14.596793 0.336295
v 1.500000 21.812242 3.501848
v 1.500000 22.000000 4.228499
v 1.500000 0.000000 4.228499
v 1.500000 0.187758 3.501848
v 1.500000 0.704028 2.957110
v 1.500000 7.403207 0.336295
v 0.000000 21.295972 2.957110
v -0.000000 14.596793 0.336295
v -0.000000 7.403207 0.336295
v 0.000000 0.704028 2.957110
v -0.000000 22.000000 4.228499
v 0.000000 21.812242 3.501848
v 0.000000 0.187758 3.501848
v -0.000000 0.000000 4.228499
v -0.000000 0.000000 20.000000
v -0.000000 22.000000 20.000000
v -31.000000 22.000000 21.500000
v -31.000000 0.000000 21.500000
v -30.000000 0.000000 20.000000
v -30.000000 22.000000 20.000000
v -31.000000 22.000000 4.228499
v -30.000000 22.000000 4.228499
v -31.000000 0.000000 4.228499
v -30.000000 0.000000 4.228499
v -30.000000 21.295972 2.957110
v -30.000000 21.812242 3.501848
v -30.000000 0.187758 3.501848
v -30.000000 0.704028 2.957110
v -30.000000 14.596793 0.336295
v -30.000000 7.403207 0.336295
v -31.000000 21.295972 2.957110
v -31.000000 14.596793 0.336295
v -31.000000 7.403207 0.336295
v -31.000000 0.704028 2.957110
v -31.000000 0.187758 3.501848
v -32.060660 0.439340 4.228499
v -32.385819 0.925975 4.228499
v -32.385819 1.195395 3.741959
v -31.574025 0.114181 4.228499
v -32.060660 0.937163 3.329491
v -31.574025 0.764618 3.053889
v -32.500000 1.500000 4.228499
v -32.385819 0.997827 3.950422
v -32.060660 0.572105 3.714679
v -31.574025 0.287647 3.557161
v -31.000000 21.812242 3.501848
v -32.060660 21.062837 3.329491
v -32.385819 20.804605 3.741959
v -32.385819 21.074025 4.228499
v -31.574025 21.235382 3.053889
v -32.060660 21.560660 4.228499
v -31.574025 21.885819 4.228499
v -32.500000 20.500000 4.228499
v -32.385819 21.002173 3.950422
v -32.060660 21.427895 3.714679
v -31.574025 21.712353 3.557161
v -32.385819 21.074025 20.574025
v -32.500000 20.500000 20.000000
v -32.500000 1.500000 20.000000
v -32.060660 0.439340 21.060660
v -32.060660 21.560660 21.060660
v -31.574025 0.114181 21.385819
v -31.574025 21.885819 21.385819
v -31.292635 0.028822 21.471178
v -31.292635 21.971178 21.471178
v -32.385819 0.925975 20.574025
v -32.500000 14.318728 1.810296
v -32.500000 7.681272 1.810296
v -32.385819 7.574861 1.246220
v -32.385819 14.425139 1.246220
v -32.060660 7.484651 0.768020
v -32.060660 14.515349 0.768020
v -31.574025 7.424374 0.448496
v -31.574025 14.575626 0.448496
usemtl Retainer_proto_00Material0
f 1 2 3
f 2 4 5
f 4 6 7
f 6 8 9
f 8 10 11
f 10 12 13
f 14 15 13
f 13 12 14
f 16 17 18
f 17 19 20
f 19 21 22
f 21 23 24
f 23 25 26
f 25 1 27
f 27 26 25
f 26 24 23
f 24 22 21
f 22 20 19
f 20 18 17
f 18 15 16
f 14 16 15
f 13 11 10
f 11 9 8
f 9 7 6
f 7 5 4
f 5 3 2
f 3 27 1
f 28 16 14
f 29 4 2
f 14 30 28
f 31 2 1
f 2 31 29
f 14 12 30
f 29 32 4
f 4 32 33
f 30 8 6
f 28 17 16
f 28 34 21
f 23 21 34
f 33 6 4
f 30 10 8
f 28 19 17
f 34 35 23
f 36 37 25
f 6 33 30
f 21 19 28
f 23 35 36
f 12 10 30
f 37 1 25
f 25 23 36
f 1 37 31
f 38 29 31
f 39 31 37
f 40 37 36
f 36 41 40
f 37 40 39
f 31 39 38
f 42 33 32
f 43 32 29
f 29 38 43
f 32 43 42
f 41 36 35
f 44 35 34
f 34 45 44
f 35 44 41
f 38 39 3
f 5 43 38
f 39 40 27
f 5 7 42
f 27 3 39
f 41 24 26
f 24 44 45
f 46 20 22
f 47 42 7
f 3 5 38
f 26 40 41
f 22 45 46
f 47 9 11
f 42 43 5
f 45 22 24
f 46 47 13
f 7 9 47
f 46 18 20
f 13 15 46
f 40 26 27
f 15 18 46
f 41 44 24
f 11 13 47
f 28 30 48
f 48 49 28
f 47 46 50
f 50 51 47
f 52 48 51
f 48 30 47
f 47 51 48
f 33 42 47
f 47 30 33
f 51 53 52
f 34 28 46
f 49 50 46
f 46 28 49
f 54 55 50
f 50 49 54
f 46 45 34
f 55 56 57
f 55 58 59
f 55 60 56
f 59 61 55
f 50 55 53
f 61 60 55
f 57 53 55
f 53 51 50
f 62 56 60
f 63 60 61
f 64 61 59
f 59 65 64
f 61 64 63
f 60 63 62
f 65 59 58
f 66 58 55
f 55 54 66
f 58 66 65
f 67 68 74
f 75 74 69
f 70 67 75
f 76 75 71
f 54 70 76
f 66 76 72
f 72 65 66
f 76 66 54
f 71 72 76
f 75 76 70
f 69 71 75
f 74 75 67
f 69 74 73
f 74 68 73
f 52 53 57
f 77 57 56
f 56 62 77
f 57 77 52
f 78 79 85
f 86 85 80
f 81 78 86
f 87 86 82
f 62 81 87
f 77 87 83
f 83 52 77
f 87 77 62
f 82 83 87
f 86 87 81
f 80 82 86
f 85 86 78
f 80 85 84
f 85 79 84
f 88 89 90
f 91 92 88
f 93 94 92
f 95 96 94
f 94 93 95
f 49 48 96
f 95 49 96
f 92 91 93
f 88 97 91
f 90 97 88
f 90 98 99
f 90 89 84
f 84 98 90
f 99 73 90
f 54 95 93
f 54 49 95
f 70 93 91
f 67 91 97
f 68 97 90
f 90 73 68
f 97 68 67
f 91 67 70
f 93 70 54
f 80 84 89
f 82 80 88
f 83 82 92
f 52 83 94
f 94 96 52
f 96 48 52
f 92 94 83
f 88 92 82
f 89 88 80
f 69 73 99
f 100 99 98
f 101 98 84
f 71 69 100
f 102 100 101
f 103 101 79
f 72 71 102
f 104 102 103
f 105 103 78
f 65 72 104
f 64 104 105
f 63 105 81
f 81 62 63
f 105 63 64
f 104 64 65
f 78 81 105
f 103 105 104
f 102 104 72
f 79 78 103
f 101 103 102
f 100 102 71
f 84 79 101
f 98 101 100
f 99 100 69
