ISO-10303-21;
HEADER;
/* Generated by software containing ST-Developer
 * from STEP Tools, Inc. (www.steptools.com) 
 */
/* OPTION: strings as raw bytes, not using required /X/ escapes */

FILE_DESCRIPTION(
/* description */ ('Unknown'),
/* implementation_level */ '2;1');

FILE_NAME(
/* name */ 'Card_TestClip_07',
/* time_stamp */ '2023-05-22T18:16:49+01:00',
/* author */ ('Unknown'),
/* organization */ ('Unknown'),
/* preprocessor_version */ 'ST-DEVELOPER v18.102',
/* originating_system */ 'Solid Edge',
/* authorisation */ 'Unknown');

FILE_SCHEMA (('AUTOMOTIVE_DESIGN {1 0 10303 214 3 1 1}'));
ENDSEC;

DATA;
#10=PROPERTY_DEFINITION_REPRESENTATION(#14,#12);
#11=PROPERTY_DEFINITION_REPRESENTATION(#15,#13);
#12=REPRESENTATION('',(#16),#1059);
#13=REPRESENTATION('',(#17),#1059);
#14=PROPERTY_DEFINITION('pmi validation property','',#1064);
#15=PROPERTY_DEFINITION('pmi validation property','',#1064);
#16=VALUE_REPRESENTATION_ITEM('number of annotations',COUNT_MEASURE(0.));
#17=VALUE_REPRESENTATION_ITEM('number of views',COUNT_MEASURE(0.));
#18=SHAPE_REPRESENTATION_RELATIONSHIP('','',#653,#19);
#19=ADVANCED_BREP_SHAPE_REPRESENTATION('',(#651),#1059);
#20=CYLINDRICAL_SURFACE('',#660,0.5);
#21=CYLINDRICAL_SURFACE('',#663,0.5);
#22=CYLINDRICAL_SURFACE('',#685,0.5);
#23=CYLINDRICAL_SURFACE('',#687,0.5);
#24=CYLINDRICAL_SURFACE('',#699,1.);
#25=CYLINDRICAL_SURFACE('',#700,1.);
#26=CYLINDRICAL_SURFACE('',#701,1.);
#27=CYLINDRICAL_SURFACE('',#702,1.);
#28=CIRCLE('',#656,0.5);
#29=CIRCLE('',#657,0.5);
#30=CIRCLE('',#661,0.5);
#31=CIRCLE('',#664,0.5);
#32=CIRCLE('',#667,1.);
#33=CIRCLE('',#668,1.);
#34=CIRCLE('',#669,1.);
#35=CIRCLE('',#670,1.);
#36=CIRCLE('',#672,1.);
#37=CIRCLE('',#673,1.);
#38=CIRCLE('',#674,1.);
#39=CIRCLE('',#675,1.);
#40=CIRCLE('',#678,0.5);
#41=CIRCLE('',#679,0.5);
#42=CIRCLE('',#681,0.5);
#43=CIRCLE('',#682,0.5);
#44=ORIENTED_EDGE('',*,*,#224,.F.);
#45=ORIENTED_EDGE('',*,*,#225,.T.);
#46=ORIENTED_EDGE('',*,*,#226,.F.);
#47=ORIENTED_EDGE('',*,*,#227,.F.);
#48=ORIENTED_EDGE('',*,*,#228,.F.);
#49=ORIENTED_EDGE('',*,*,#229,.F.);
#50=ORIENTED_EDGE('',*,*,#230,.F.);
#51=ORIENTED_EDGE('',*,*,#231,.F.);
#52=ORIENTED_EDGE('',*,*,#232,.F.);
#53=ORIENTED_EDGE('',*,*,#233,.F.);
#54=ORIENTED_EDGE('',*,*,#234,.F.);
#55=ORIENTED_EDGE('',*,*,#235,.F.);
#56=ORIENTED_EDGE('',*,*,#236,.T.);
#57=ORIENTED_EDGE('',*,*,#237,.F.);
#58=ORIENTED_EDGE('',*,*,#238,.T.);
#59=ORIENTED_EDGE('',*,*,#239,.F.);
#60=ORIENTED_EDGE('',*,*,#240,.F.);
#61=ORIENTED_EDGE('',*,*,#231,.T.);
#62=ORIENTED_EDGE('',*,*,#241,.T.);
#63=ORIENTED_EDGE('',*,*,#242,.F.);
#64=ORIENTED_EDGE('',*,*,#241,.F.);
#65=ORIENTED_EDGE('',*,*,#230,.T.);
#66=ORIENTED_EDGE('',*,*,#243,.T.);
#67=ORIENTED_EDGE('',*,*,#244,.F.);
#68=ORIENTED_EDGE('',*,*,#243,.F.);
#69=ORIENTED_EDGE('',*,*,#229,.T.);
#70=ORIENTED_EDGE('',*,*,#245,.T.);
#71=ORIENTED_EDGE('',*,*,#246,.F.);
#72=ORIENTED_EDGE('',*,*,#245,.F.);
#73=ORIENTED_EDGE('',*,*,#228,.T.);
#74=ORIENTED_EDGE('',*,*,#247,.T.);
#75=ORIENTED_EDGE('',*,*,#248,.F.);
#76=ORIENTED_EDGE('',*,*,#247,.F.);
#77=ORIENTED_EDGE('',*,*,#227,.T.);
#78=ORIENTED_EDGE('',*,*,#249,.F.);
#79=ORIENTED_EDGE('',*,*,#250,.F.);
#80=ORIENTED_EDGE('',*,*,#249,.T.);
#81=ORIENTED_EDGE('',*,*,#226,.T.);
#82=ORIENTED_EDGE('',*,*,#251,.T.);
#83=ORIENTED_EDGE('',*,*,#252,.F.);
#84=ORIENTED_EDGE('',*,*,#253,.F.);
#85=ORIENTED_EDGE('',*,*,#254,.F.);
#86=ORIENTED_EDGE('',*,*,#255,.T.);
#87=ORIENTED_EDGE('',*,*,#237,.T.);
#88=ORIENTED_EDGE('',*,*,#256,.T.);
#89=ORIENTED_EDGE('',*,*,#257,.T.);
#90=ORIENTED_EDGE('',*,*,#258,.T.);
#91=ORIENTED_EDGE('',*,*,#259,.T.);
#92=ORIENTED_EDGE('',*,*,#260,.T.);
#93=ORIENTED_EDGE('',*,*,#261,.T.);
#94=ORIENTED_EDGE('',*,*,#262,.T.);
#95=ORIENTED_EDGE('',*,*,#263,.F.);
#96=ORIENTED_EDGE('',*,*,#264,.F.);
#97=ORIENTED_EDGE('',*,*,#265,.T.);
#98=ORIENTED_EDGE('',*,*,#266,.T.);
#99=ORIENTED_EDGE('',*,*,#267,.F.);
#100=ORIENTED_EDGE('',*,*,#268,.F.);
#101=ORIENTED_EDGE('',*,*,#269,.F.);
#102=ORIENTED_EDGE('',*,*,#270,.T.);
#103=ORIENTED_EDGE('',*,*,#235,.T.);
#104=ORIENTED_EDGE('',*,*,#271,.T.);
#105=ORIENTED_EDGE('',*,*,#272,.T.);
#106=ORIENTED_EDGE('',*,*,#273,.T.);
#107=ORIENTED_EDGE('',*,*,#274,.T.);
#108=ORIENTED_EDGE('',*,*,#275,.T.);
#109=ORIENTED_EDGE('',*,*,#224,.T.);
#110=ORIENTED_EDGE('',*,*,#276,.T.);
#111=ORIENTED_EDGE('',*,*,#277,.F.);
#112=ORIENTED_EDGE('',*,*,#278,.F.);
#113=ORIENTED_EDGE('',*,*,#232,.T.);
#114=ORIENTED_EDGE('',*,*,#240,.T.);
#115=ORIENTED_EDGE('',*,*,#261,.F.);
#116=ORIENTED_EDGE('',*,*,#279,.T.);
#117=ORIENTED_EDGE('',*,*,#265,.F.);
#118=ORIENTED_EDGE('',*,*,#280,.T.);
#119=ORIENTED_EDGE('',*,*,#281,.T.);
#120=ORIENTED_EDGE('',*,*,#282,.T.);
#121=ORIENTED_EDGE('',*,*,#283,.T.);
#122=ORIENTED_EDGE('',*,*,#284,.T.);
#123=ORIENTED_EDGE('',*,*,#285,.T.);
#124=ORIENTED_EDGE('',*,*,#286,.T.);
#125=ORIENTED_EDGE('',*,*,#287,.T.);
#126=ORIENTED_EDGE('',*,*,#250,.T.);
#127=ORIENTED_EDGE('',*,*,#288,.F.);
#128=ORIENTED_EDGE('',*,*,#289,.F.);
#129=ORIENTED_EDGE('',*,*,#290,.F.);
#130=ORIENTED_EDGE('',*,*,#291,.F.);
#131=ORIENTED_EDGE('',*,*,#292,.F.);
#132=ORIENTED_EDGE('',*,*,#293,.F.);
#133=ORIENTED_EDGE('',*,*,#294,.F.);
#134=ORIENTED_EDGE('',*,*,#295,.F.);
#135=ORIENTED_EDGE('',*,*,#263,.T.);
#136=ORIENTED_EDGE('',*,*,#296,.T.);
#137=ORIENTED_EDGE('',*,*,#297,.T.);
#138=ORIENTED_EDGE('',*,*,#277,.T.);
#139=ORIENTED_EDGE('',*,*,#239,.T.);
#140=ORIENTED_EDGE('',*,*,#242,.T.);
#141=ORIENTED_EDGE('',*,*,#244,.T.);
#142=ORIENTED_EDGE('',*,*,#246,.T.);
#143=ORIENTED_EDGE('',*,*,#248,.T.);
#144=ORIENTED_EDGE('',*,*,#293,.T.);
#145=ORIENTED_EDGE('',*,*,#298,.F.);
#146=ORIENTED_EDGE('',*,*,#282,.F.);
#147=ORIENTED_EDGE('',*,*,#299,.T.);
#148=ORIENTED_EDGE('',*,*,#288,.T.);
#149=ORIENTED_EDGE('',*,*,#262,.F.);
#150=ORIENTED_EDGE('',*,*,#287,.F.);
#151=ORIENTED_EDGE('',*,*,#300,.T.);
#152=ORIENTED_EDGE('',*,*,#289,.T.);
#153=ORIENTED_EDGE('',*,*,#300,.F.);
#154=ORIENTED_EDGE('',*,*,#286,.F.);
#155=ORIENTED_EDGE('',*,*,#301,.T.);
#156=ORIENTED_EDGE('',*,*,#290,.T.);
#157=ORIENTED_EDGE('',*,*,#301,.F.);
#158=ORIENTED_EDGE('',*,*,#285,.F.);
#159=ORIENTED_EDGE('',*,*,#302,.T.);
#160=ORIENTED_EDGE('',*,*,#291,.T.);
#161=ORIENTED_EDGE('',*,*,#302,.F.);
#162=ORIENTED_EDGE('',*,*,#284,.F.);
#163=ORIENTED_EDGE('',*,*,#303,.T.);
#164=ORIENTED_EDGE('',*,*,#292,.T.);
#165=ORIENTED_EDGE('',*,*,#303,.F.);
#166=ORIENTED_EDGE('',*,*,#283,.F.);
#167=ORIENTED_EDGE('',*,*,#298,.T.);
#168=ORIENTED_EDGE('',*,*,#297,.F.);
#169=ORIENTED_EDGE('',*,*,#304,.F.);
#170=ORIENTED_EDGE('',*,*,#233,.T.);
#171=ORIENTED_EDGE('',*,*,#278,.T.);
#172=ORIENTED_EDGE('',*,*,#296,.F.);
#173=ORIENTED_EDGE('',*,*,#276,.F.);
#174=ORIENTED_EDGE('',*,*,#234,.T.);
#175=ORIENTED_EDGE('',*,*,#304,.T.);
#176=ORIENTED_EDGE('',*,*,#295,.T.);
#177=ORIENTED_EDGE('',*,*,#305,.F.);
#178=ORIENTED_EDGE('',*,*,#280,.F.);
#179=ORIENTED_EDGE('',*,*,#264,.T.);
#180=ORIENTED_EDGE('',*,*,#294,.T.);
#181=ORIENTED_EDGE('',*,*,#299,.F.);
#182=ORIENTED_EDGE('',*,*,#281,.F.);
#183=ORIENTED_EDGE('',*,*,#305,.T.);
#184=ORIENTED_EDGE('',*,*,#257,.F.);
#185=ORIENTED_EDGE('',*,*,#306,.T.);
#186=ORIENTED_EDGE('',*,*,#269,.T.);
#187=ORIENTED_EDGE('',*,*,#307,.F.);
#188=ORIENTED_EDGE('',*,*,#268,.T.);
#189=ORIENTED_EDGE('',*,*,#308,.F.);
#190=ORIENTED_EDGE('',*,*,#258,.F.);
#191=ORIENTED_EDGE('',*,*,#307,.T.);
#192=ORIENTED_EDGE('',*,*,#267,.T.);
#193=ORIENTED_EDGE('',*,*,#309,.T.);
#194=ORIENTED_EDGE('',*,*,#259,.F.);
#195=ORIENTED_EDGE('',*,*,#308,.T.);
#196=ORIENTED_EDGE('',*,*,#272,.F.);
#197=ORIENTED_EDGE('',*,*,#310,.T.);
#198=ORIENTED_EDGE('',*,*,#254,.T.);
#199=ORIENTED_EDGE('',*,*,#311,.T.);
#200=ORIENTED_EDGE('',*,*,#273,.F.);
#201=ORIENTED_EDGE('',*,*,#311,.F.);
#202=ORIENTED_EDGE('',*,*,#253,.T.);
#203=ORIENTED_EDGE('',*,*,#312,.T.);
#204=ORIENTED_EDGE('',*,*,#252,.T.);
#205=ORIENTED_EDGE('',*,*,#313,.T.);
#206=ORIENTED_EDGE('',*,*,#274,.F.);
#207=ORIENTED_EDGE('',*,*,#312,.F.);
#208=ORIENTED_EDGE('',*,*,#251,.F.);
#209=ORIENTED_EDGE('',*,*,#225,.F.);
#210=ORIENTED_EDGE('',*,*,#275,.F.);
#211=ORIENTED_EDGE('',*,*,#313,.F.);
#212=ORIENTED_EDGE('',*,*,#260,.F.);
#213=ORIENTED_EDGE('',*,*,#309,.F.);
#214=ORIENTED_EDGE('',*,*,#266,.F.);
#215=ORIENTED_EDGE('',*,*,#279,.F.);
#216=ORIENTED_EDGE('',*,*,#255,.F.);
#217=ORIENTED_EDGE('',*,*,#310,.F.);
#218=ORIENTED_EDGE('',*,*,#271,.F.);
#219=ORIENTED_EDGE('',*,*,#238,.F.);
#220=ORIENTED_EDGE('',*,*,#256,.F.);
#221=ORIENTED_EDGE('',*,*,#236,.F.);
#222=ORIENTED_EDGE('',*,*,#270,.F.);
#223=ORIENTED_EDGE('',*,*,#306,.F.);
#224=EDGE_CURVE('',#314,#315,#374,.T.);
#225=EDGE_CURVE('',#314,#316,#375,.F.);
#226=EDGE_CURVE('',#317,#316,#376,.T.);
#227=EDGE_CURVE('',#318,#317,#377,.T.);
#228=EDGE_CURVE('',#319,#318,#28,.T.);
#229=EDGE_CURVE('',#320,#319,#378,.T.);
#230=EDGE_CURVE('',#321,#320,#29,.T.);
#231=EDGE_CURVE('',#322,#321,#379,.T.);
#232=EDGE_CURVE('',#323,#322,#380,.T.);
#233=EDGE_CURVE('',#324,#323,#381,.T.);
#234=EDGE_CURVE('',#315,#324,#382,.T.);
#235=EDGE_CURVE('',#325,#326,#383,.T.);
#236=EDGE_CURVE('',#325,#327,#384,.F.);
#237=EDGE_CURVE('',#328,#327,#385,.T.);
#238=EDGE_CURVE('',#328,#326,#386,.T.);
#239=EDGE_CURVE('',#329,#330,#387,.T.);
#240=EDGE_CURVE('',#322,#329,#388,.T.);
#241=EDGE_CURVE('',#321,#330,#389,.T.);
#242=EDGE_CURVE('',#330,#331,#30,.T.);
#243=EDGE_CURVE('',#320,#331,#390,.T.);
#244=EDGE_CURVE('',#331,#332,#391,.T.);
#245=EDGE_CURVE('',#319,#332,#392,.F.);
#246=EDGE_CURVE('',#332,#333,#31,.T.);
#247=EDGE_CURVE('',#318,#333,#393,.T.);
#248=EDGE_CURVE('',#333,#334,#394,.T.);
#249=EDGE_CURVE('',#334,#317,#395,.T.);
#250=EDGE_CURVE('',#334,#335,#396,.T.);
#251=EDGE_CURVE('',#316,#336,#32,.F.);
#252=EDGE_CURVE('',#337,#336,#397,.T.);
#253=EDGE_CURVE('',#338,#337,#398,.T.);
#254=EDGE_CURVE('',#339,#338,#399,.T.);
#255=EDGE_CURVE('',#339,#328,#33,.F.);
#256=EDGE_CURVE('',#327,#340,#34,.F.);
#257=EDGE_CURVE('',#340,#341,#400,.T.);
#258=EDGE_CURVE('',#341,#342,#401,.T.);
#259=EDGE_CURVE('',#342,#343,#402,.T.);
#260=EDGE_CURVE('',#343,#344,#35,.F.);
#261=EDGE_CURVE('',#344,#345,#403,.T.);
#262=EDGE_CURVE('',#345,#335,#404,.T.);
#263=EDGE_CURVE('',#346,#347,#405,.T.);
#264=EDGE_CURVE('',#348,#346,#406,.T.);
#265=EDGE_CURVE('',#348,#349,#407,.T.);
#266=EDGE_CURVE('',#349,#350,#36,.F.);
#267=EDGE_CURVE('',#351,#350,#408,.T.);
#268=EDGE_CURVE('',#352,#351,#409,.T.);
#269=EDGE_CURVE('',#353,#352,#410,.T.);
#270=EDGE_CURVE('',#353,#325,#37,.F.);
#271=EDGE_CURVE('',#326,#354,#38,.F.);
#272=EDGE_CURVE('',#354,#355,#411,.T.);
#273=EDGE_CURVE('',#355,#356,#412,.T.);
#274=EDGE_CURVE('',#356,#357,#413,.T.);
#275=EDGE_CURVE('',#357,#314,#39,.F.);
#276=EDGE_CURVE('',#315,#347,#414,.T.);
#277=EDGE_CURVE('',#358,#329,#415,.T.);
#278=EDGE_CURVE('',#323,#358,#416,.T.);
#279=EDGE_CURVE('',#344,#349,#417,.T.);
#280=EDGE_CURVE('',#348,#359,#418,.T.);
#281=EDGE_CURVE('',#359,#360,#419,.T.);
#282=EDGE_CURVE('',#360,#361,#420,.T.);
#283=EDGE_CURVE('',#361,#362,#421,.T.);
#284=EDGE_CURVE('',#362,#363,#40,.T.);
#285=EDGE_CURVE('',#363,#364,#422,.T.);
#286=EDGE_CURVE('',#364,#365,#41,.T.);
#287=EDGE_CURVE('',#365,#345,#423,.T.);
#288=EDGE_CURVE('',#366,#335,#424,.T.);
#289=EDGE_CURVE('',#367,#366,#42,.F.);
#290=EDGE_CURVE('',#368,#367,#425,.T.);
#291=EDGE_CURVE('',#369,#368,#43,.T.);
#292=EDGE_CURVE('',#370,#369,#426,.T.);
#293=EDGE_CURVE('',#371,#370,#427,.T.);
#294=EDGE_CURVE('',#372,#371,#428,.T.);
#295=EDGE_CURVE('',#346,#372,#429,.T.);
#296=EDGE_CURVE('',#347,#373,#430,.T.);
#297=EDGE_CURVE('',#373,#358,#431,.T.);
#298=EDGE_CURVE('',#361,#370,#432,.T.);
#299=EDGE_CURVE('',#360,#371,#433,.T.);
#300=EDGE_CURVE('',#365,#366,#434,.T.);
#301=EDGE_CURVE('',#364,#367,#435,.F.);
#302=EDGE_CURVE('',#363,#368,#436,.T.);
#303=EDGE_CURVE('',#362,#369,#437,.T.);
#304=EDGE_CURVE('',#324,#373,#438,.T.);
#305=EDGE_CURVE('',#359,#372,#439,.T.);
#306=EDGE_CURVE('',#340,#353,#440,.T.);
#307=EDGE_CURVE('',#341,#352,#441,.T.);
#308=EDGE_CURVE('',#342,#351,#442,.T.);
#309=EDGE_CURVE('',#350,#343,#443,.F.);
#310=EDGE_CURVE('',#354,#339,#444,.F.);
#311=EDGE_CURVE('',#338,#355,#445,.T.);
#312=EDGE_CURVE('',#337,#356,#446,.T.);
#313=EDGE_CURVE('',#336,#357,#447,.T.);
#314=VERTEX_POINT('',#878);
#315=VERTEX_POINT('',#879);
#316=VERTEX_POINT('',#881);
#317=VERTEX_POINT('',#883);
#318=VERTEX_POINT('',#885);
#319=VERTEX_POINT('',#887);
#320=VERTEX_POINT('',#889);
#321=VERTEX_POINT('',#891);
#322=VERTEX_POINT('',#893);
#323=VERTEX_POINT('',#895);
#324=VERTEX_POINT('',#897);
#325=VERTEX_POINT('',#901);
#326=VERTEX_POINT('',#902);
#327=VERTEX_POINT('',#904);
#328=VERTEX_POINT('',#906);
#329=VERTEX_POINT('',#910);
#330=VERTEX_POINT('',#911);
#331=VERTEX_POINT('',#916);
#332=VERTEX_POINT('',#920);
#333=VERTEX_POINT('',#924);
#334=VERTEX_POINT('',#928);
#335=VERTEX_POINT('',#932);
#336=VERTEX_POINT('',#934);
#337=VERTEX_POINT('',#936);
#338=VERTEX_POINT('',#938);
#339=VERTEX_POINT('',#940);
#340=VERTEX_POINT('',#943);
#341=VERTEX_POINT('',#945);
#342=VERTEX_POINT('',#947);
#343=VERTEX_POINT('',#949);
#344=VERTEX_POINT('',#951);
#345=VERTEX_POINT('',#953);
#346=VERTEX_POINT('',#957);
#347=VERTEX_POINT('',#958);
#348=VERTEX_POINT('',#960);
#349=VERTEX_POINT('',#962);
#350=VERTEX_POINT('',#964);
#351=VERTEX_POINT('',#966);
#352=VERTEX_POINT('',#968);
#353=VERTEX_POINT('',#970);
#354=VERTEX_POINT('',#973);
#355=VERTEX_POINT('',#975);
#356=VERTEX_POINT('',#977);
#357=VERTEX_POINT('',#979);
#358=VERTEX_POINT('',#984);
#359=VERTEX_POINT('',#989);
#360=VERTEX_POINT('',#991);
#361=VERTEX_POINT('',#993);
#362=VERTEX_POINT('',#995);
#363=VERTEX_POINT('',#997);
#364=VERTEX_POINT('',#999);
#365=VERTEX_POINT('',#1001);
#366=VERTEX_POINT('',#1005);
#367=VERTEX_POINT('',#1007);
#368=VERTEX_POINT('',#1009);
#369=VERTEX_POINT('',#1011);
#370=VERTEX_POINT('',#1013);
#371=VERTEX_POINT('',#1015);
#372=VERTEX_POINT('',#1017);
#373=VERTEX_POINT('',#1020);
#374=LINE('',#877,#448);
#375=LINE('',#880,#449);
#376=LINE('',#882,#450);
#377=LINE('',#884,#451);
#378=LINE('',#888,#452);
#379=LINE('',#892,#453);
#380=LINE('',#894,#454);
#381=LINE('',#896,#455);
#382=LINE('',#898,#456);
#383=LINE('',#900,#457);
#384=LINE('',#903,#458);
#385=LINE('',#905,#459);
#386=LINE('',#907,#460);
#387=LINE('',#909,#461);
#388=LINE('',#912,#462);
#389=LINE('',#913,#463);
#390=LINE('',#917,#464);
#391=LINE('',#919,#465);
#392=LINE('',#921,#466);
#393=LINE('',#925,#467);
#394=LINE('',#927,#468);
#395=LINE('',#929,#469);
#396=LINE('',#931,#470);
#397=LINE('',#935,#471);
#398=LINE('',#937,#472);
#399=LINE('',#939,#473);
#400=LINE('',#944,#474);
#401=LINE('',#946,#475);
#402=LINE('',#948,#476);
#403=LINE('',#952,#477);
#404=LINE('',#954,#478);
#405=LINE('',#956,#479);
#406=LINE('',#959,#480);
#407=LINE('',#961,#481);
#408=LINE('',#965,#482);
#409=LINE('',#967,#483);
#410=LINE('',#969,#484);
#411=LINE('',#974,#485);
#412=LINE('',#976,#486);
#413=LINE('',#978,#487);
#414=LINE('',#981,#488);
#415=LINE('',#983,#489);
#416=LINE('',#985,#490);
#417=LINE('',#987,#491);
#418=LINE('',#988,#492);
#419=LINE('',#990,#493);
#420=LINE('',#992,#494);
#421=LINE('',#994,#495);
#422=LINE('',#998,#496);
#423=LINE('',#1002,#497);
#424=LINE('',#1004,#498);
#425=LINE('',#1008,#499);
#426=LINE('',#1012,#500);
#427=LINE('',#1014,#501);
#428=LINE('',#1016,#502);
#429=LINE('',#1018,#503);
#430=LINE('',#1019,#504);
#431=LINE('',#1021,#505);
#432=LINE('',#1023,#506);
#433=LINE('',#1024,#507);
#434=LINE('',#1026,#508);
#435=LINE('',#1028,#509);
#436=LINE('',#1030,#510);
#437=LINE('',#1032,#511);
#438=LINE('',#1035,#512);
#439=LINE('',#1038,#513);
#440=LINE('',#1041,#514);
#441=LINE('',#1042,#515);
#442=LINE('',#1044,#516);
#443=LINE('',#1046,#517);
#444=LINE('',#1048,#518);
#445=LINE('',#1049,#519);
#446=LINE('',#1051,#520);
#447=LINE('',#1053,#521);
#448=VECTOR('',#707,1000.);
#449=VECTOR('',#708,1000.);
#450=VECTOR('',#709,1000.);
#451=VECTOR('',#710,1000.);
#452=VECTOR('',#713,1000.);
#453=VECTOR('',#716,1000.);
#454=VECTOR('',#717,1000.);
#455=VECTOR('',#718,1000.);
#456=VECTOR('',#719,1000.);
#457=VECTOR('',#722,1000.);
#458=VECTOR('',#723,1000.);
#459=VECTOR('',#724,1000.);
#460=VECTOR('',#725,1000.);
#461=VECTOR('',#728,1000.);
#462=VECTOR('',#729,1000.);
#463=VECTOR('',#730,1000.);
#464=VECTOR('',#735,1000.);
#465=VECTOR('',#738,1000.);
#466=VECTOR('',#739,1000.);
#467=VECTOR('',#744,1000.);
#468=VECTOR('',#747,1000.);
#469=VECTOR('',#748,1000.);
#470=VECTOR('',#751,1000.);
#471=VECTOR('',#754,1000.);
#472=VECTOR('',#755,1000.);
#473=VECTOR('',#756,1000.);
#474=VECTOR('',#761,1000.);
#475=VECTOR('',#762,1000.);
#476=VECTOR('',#763,1000.);
#477=VECTOR('',#766,1000.);
#478=VECTOR('',#767,1000.);
#479=VECTOR('',#770,1000.);
#480=VECTOR('',#771,1000.);
#481=VECTOR('',#772,1000.);
#482=VECTOR('',#775,1000.);
#483=VECTOR('',#776,1000.);
#484=VECTOR('',#777,1000.);
#485=VECTOR('',#782,1000.);
#486=VECTOR('',#783,1000.);
#487=VECTOR('',#784,1000.);
#488=VECTOR('',#787,1000.);
#489=VECTOR('',#790,1000.);
#490=VECTOR('',#791,1000.);
#491=VECTOR('',#794,1000.);
#492=VECTOR('',#795,1000.);
#493=VECTOR('',#796,1000.);
#494=VECTOR('',#797,1000.);
#495=VECTOR('',#798,1000.);
#496=VECTOR('',#801,1000.);
#497=VECTOR('',#804,1000.);
#498=VECTOR('',#807,1000.);
#499=VECTOR('',#810,1000.);
#500=VECTOR('',#813,1000.);
#501=VECTOR('',#814,1000.);
#502=VECTOR('',#815,1000.);
#503=VECTOR('',#816,1000.);
#504=VECTOR('',#817,1000.);
#505=VECTOR('',#818,1000.);
#506=VECTOR('',#821,1000.);
#507=VECTOR('',#822,1000.);
#508=VECTOR('',#825,1000.);
#509=VECTOR('',#828,1000.);
#510=VECTOR('',#831,1000.);
#511=VECTOR('',#834,1000.);
#512=VECTOR('',#839,1000.);
#513=VECTOR('',#844,1000.);
#514=VECTOR('',#849,1000.);
#515=VECTOR('',#850,1000.);
#516=VECTOR('',#853,1000.);
#517=VECTOR('',#856,1000.);
#518=VECTOR('',#859,1000.);
#519=VECTOR('',#860,1000.);
#520=VECTOR('',#863,1000.);
#521=VECTOR('',#866,1000.);
#522=EDGE_LOOP('',(#44,#45,#46,#47,#48,#49,#50,#51,#52,#53,#54));
#523=EDGE_LOOP('',(#55,#56,#57,#58));
#524=EDGE_LOOP('',(#59,#60,#61,#62));
#525=EDGE_LOOP('',(#63,#64,#65,#66));
#526=EDGE_LOOP('',(#67,#68,#69,#70));
#527=EDGE_LOOP('',(#71,#72,#73,#74));
#528=EDGE_LOOP('',(#75,#76,#77,#78));
#529=EDGE_LOOP('',(#79,#80,#81,#82,#83,#84,#85,#86,#87,#88,#89,#90,#91,
#92,#93,#94));
#530=EDGE_LOOP('',(#95,#96,#97,#98,#99,#100,#101,#102,#103,#104,#105,#106,
#107,#108,#109,#110));
#531=EDGE_LOOP('',(#111,#112,#113,#114));
#532=EDGE_LOOP('',(#115,#116,#117,#118,#119,#120,#121,#122,#123,#124,#125));
#533=EDGE_LOOP('',(#126,#127,#128,#129,#130,#131,#132,#133,#134,#135,#136,
#137,#138,#139,#140,#141,#142,#143));
#534=EDGE_LOOP('',(#144,#145,#146,#147));
#535=EDGE_LOOP('',(#148,#149,#150,#151));
#536=EDGE_LOOP('',(#152,#153,#154,#155));
#537=EDGE_LOOP('',(#156,#157,#158,#159));
#538=EDGE_LOOP('',(#160,#161,#162,#163));
#539=EDGE_LOOP('',(#164,#165,#166,#167));
#540=EDGE_LOOP('',(#168,#169,#170,#171));
#541=EDGE_LOOP('',(#172,#173,#174,#175));
#542=EDGE_LOOP('',(#176,#177,#178,#179));
#543=EDGE_LOOP('',(#180,#181,#182,#183));
#544=EDGE_LOOP('',(#184,#185,#186,#187));
#545=EDGE_LOOP('',(#188,#189,#190,#191));
#546=EDGE_LOOP('',(#192,#193,#194,#195));
#547=EDGE_LOOP('',(#196,#197,#198,#199));
#548=EDGE_LOOP('',(#200,#201,#202,#203));
#549=EDGE_LOOP('',(#204,#205,#206,#207));
#550=EDGE_LOOP('',(#208,#209,#210,#211));
#551=EDGE_LOOP('',(#212,#213,#214,#215));
#552=EDGE_LOOP('',(#216,#217,#218,#219));
#553=EDGE_LOOP('',(#220,#221,#222,#223));
#554=FACE_BOUND('',#522,.T.);
#555=FACE_BOUND('',#523,.T.);
#556=FACE_BOUND('',#524,.T.);
#557=FACE_BOUND('',#525,.T.);
#558=FACE_BOUND('',#526,.T.);
#559=FACE_BOUND('',#527,.T.);
#560=FACE_BOUND('',#528,.T.);
#561=FACE_BOUND('',#529,.T.);
#562=FACE_BOUND('',#530,.T.);
#563=FACE_BOUND('',#531,.T.);
#564=FACE_BOUND('',#532,.T.);
#565=FACE_BOUND('',#533,.T.);
#566=FACE_BOUND('',#534,.T.);
#567=FACE_BOUND('',#535,.T.);
#568=FACE_BOUND('',#536,.T.);
#569=FACE_BOUND('',#537,.T.);
#570=FACE_BOUND('',#538,.T.);
#571=FACE_BOUND('',#539,.T.);
#572=FACE_BOUND('',#540,.T.);
#573=FACE_BOUND('',#541,.T.);
#574=FACE_BOUND('',#542,.T.);
#575=FACE_BOUND('',#543,.T.);
#576=FACE_BOUND('',#544,.T.);
#577=FACE_BOUND('',#545,.T.);
#578=FACE_BOUND('',#546,.T.);
#579=FACE_BOUND('',#547,.T.);
#580=FACE_BOUND('',#548,.T.);
#581=FACE_BOUND('',#549,.T.);
#582=FACE_BOUND('',#550,.T.);
#583=FACE_BOUND('',#551,.T.);
#584=FACE_BOUND('',#552,.T.);
#585=FACE_BOUND('',#553,.T.);
#586=PLANE('',#655);
#587=PLANE('',#658);
#588=PLANE('',#659);
#589=PLANE('',#662);
#590=PLANE('',#665);
#591=PLANE('',#666);
#592=PLANE('',#671);
#593=PLANE('',#676);
#594=PLANE('',#677);
#595=PLANE('',#680);
#596=PLANE('',#683);
#597=PLANE('',#684);
#598=PLANE('',#686);
#599=PLANE('',#688);
#600=PLANE('',#689);
#601=PLANE('',#690);
#602=PLANE('',#691);
#603=PLANE('',#692);
#604=PLANE('',#693);
#605=PLANE('',#694);
#606=PLANE('',#695);
#607=PLANE('',#696);
#608=PLANE('',#697);
#609=PLANE('',#698);
#610=ADVANCED_FACE('',(#554),#586,.F.);
#611=ADVANCED_FACE('',(#555),#587,.F.);
#612=ADVANCED_FACE('',(#556),#588,.T.);
#613=ADVANCED_FACE('',(#557),#20,.T.);
#614=ADVANCED_FACE('',(#558),#589,.T.);
#615=ADVANCED_FACE('',(#559),#21,.T.);
#616=ADVANCED_FACE('',(#560),#590,.T.);
#617=ADVANCED_FACE('',(#561),#591,.T.);
#618=ADVANCED_FACE('',(#562),#592,.T.);
#619=ADVANCED_FACE('',(#563),#593,.T.);
#620=ADVANCED_FACE('',(#564),#594,.F.);
#621=ADVANCED_FACE('',(#565),#595,.T.);
#622=ADVANCED_FACE('',(#566),#596,.T.);
#623=ADVANCED_FACE('',(#567),#597,.T.);
#624=ADVANCED_FACE('',(#568),#22,.T.);
#625=ADVANCED_FACE('',(#569),#598,.T.);
#626=ADVANCED_FACE('',(#570),#23,.T.);
#627=ADVANCED_FACE('',(#571),#599,.T.);
#628=ADVANCED_FACE('',(#572),#600,.T.);
#629=ADVANCED_FACE('',(#573),#601,.T.);
#630=ADVANCED_FACE('',(#574),#602,.F.);
#631=ADVANCED_FACE('',(#575),#603,.F.);
#632=ADVANCED_FACE('',(#576),#604,.F.);
#633=ADVANCED_FACE('',(#577),#605,.F.);
#634=ADVANCED_FACE('',(#578),#606,.F.);
#635=ADVANCED_FACE('',(#579),#607,.T.);
#636=ADVANCED_FACE('',(#580),#608,.T.);
#637=ADVANCED_FACE('',(#581),#609,.T.);
#638=ADVANCED_FACE('',(#582),#24,.F.);
#639=ADVANCED_FACE('',(#583),#25,.F.);
#640=ADVANCED_FACE('',(#584),#26,.F.);
#641=ADVANCED_FACE('',(#585),#27,.F.);
#642=CLOSED_SHELL('',(#610,#611,#612,#613,#614,#615,#616,#617,#618,#619,
#620,#621,#622,#623,#624,#625,#626,#627,#628,#629,#630,#631,#632,#633,#634,
#635,#636,#637,#638,#639,#640,#641));
#643=STYLED_ITEM('',(#644),#651);
#644=PRESENTATION_STYLE_ASSIGNMENT((#645));
#645=SURFACE_STYLE_USAGE(.BOTH.,#646);
#646=SURFACE_SIDE_STYLE('',(#647));
#647=SURFACE_STYLE_FILL_AREA(#648);
#648=FILL_AREA_STYLE('',(#649));
#649=FILL_AREA_STYLE_COLOUR('',#650);
#650=COLOUR_RGB('',0.506983280181885,0.531564235687256,0.550000011920929);
#651=MANIFOLD_SOLID_BREP('',#642);
#652=SHAPE_DEFINITION_REPRESENTATION(#1064,#653);
#653=SHAPE_REPRESENTATION('Card_TestClip_07',(#654),#1059);
#654=AXIS2_PLACEMENT_3D('',#875,#703,#704);
#655=AXIS2_PLACEMENT_3D('',#876,#705,#706);
#656=AXIS2_PLACEMENT_3D('',#886,#711,#712);
#657=AXIS2_PLACEMENT_3D('',#890,#714,#715);
#658=AXIS2_PLACEMENT_3D('',#899,#720,#721);
#659=AXIS2_PLACEMENT_3D('',#908,#726,#727);
#660=AXIS2_PLACEMENT_3D('',#914,#731,#732);
#661=AXIS2_PLACEMENT_3D('',#915,#733,#734);
#662=AXIS2_PLACEMENT_3D('',#918,#736,#737);
#663=AXIS2_PLACEMENT_3D('',#922,#740,#741);
#664=AXIS2_PLACEMENT_3D('',#923,#742,#743);
#665=AXIS2_PLACEMENT_3D('',#926,#745,#746);
#666=AXIS2_PLACEMENT_3D('',#930,#749,#750);
#667=AXIS2_PLACEMENT_3D('',#933,#752,#753);
#668=AXIS2_PLACEMENT_3D('',#941,#757,#758);
#669=AXIS2_PLACEMENT_3D('',#942,#759,#760);
#670=AXIS2_PLACEMENT_3D('',#950,#764,#765);
#671=AXIS2_PLACEMENT_3D('',#955,#768,#769);
#672=AXIS2_PLACEMENT_3D('',#963,#773,#774);
#673=AXIS2_PLACEMENT_3D('',#971,#778,#779);
#674=AXIS2_PLACEMENT_3D('',#972,#780,#781);
#675=AXIS2_PLACEMENT_3D('',#980,#785,#786);
#676=AXIS2_PLACEMENT_3D('',#982,#788,#789);
#677=AXIS2_PLACEMENT_3D('',#986,#792,#793);
#678=AXIS2_PLACEMENT_3D('',#996,#799,#800);
#679=AXIS2_PLACEMENT_3D('',#1000,#802,#803);
#680=AXIS2_PLACEMENT_3D('',#1003,#805,#806);
#681=AXIS2_PLACEMENT_3D('',#1006,#808,#809);
#682=AXIS2_PLACEMENT_3D('',#1010,#811,#812);
#683=AXIS2_PLACEMENT_3D('',#1022,#819,#820);
#684=AXIS2_PLACEMENT_3D('',#1025,#823,#824);
#685=AXIS2_PLACEMENT_3D('',#1027,#826,#827);
#686=AXIS2_PLACEMENT_3D('',#1029,#829,#830);
#687=AXIS2_PLACEMENT_3D('',#1031,#832,#833);
#688=AXIS2_PLACEMENT_3D('',#1033,#835,#836);
#689=AXIS2_PLACEMENT_3D('',#1034,#837,#838);
#690=AXIS2_PLACEMENT_3D('',#1036,#840,#841);
#691=AXIS2_PLACEMENT_3D('',#1037,#842,#843);
#692=AXIS2_PLACEMENT_3D('',#1039,#845,#846);
#693=AXIS2_PLACEMENT_3D('',#1040,#847,#848);
#694=AXIS2_PLACEMENT_3D('',#1043,#851,#852);
#695=AXIS2_PLACEMENT_3D('',#1045,#854,#855);
#696=AXIS2_PLACEMENT_3D('',#1047,#857,#858);
#697=AXIS2_PLACEMENT_3D('',#1050,#861,#862);
#698=AXIS2_PLACEMENT_3D('',#1052,#864,#865);
#699=AXIS2_PLACEMENT_3D('',#1054,#867,#868);
#700=AXIS2_PLACEMENT_3D('',#1055,#869,#870);
#701=AXIS2_PLACEMENT_3D('',#1056,#871,#872);
#702=AXIS2_PLACEMENT_3D('',#1057,#873,#874);
#703=DIRECTION('',(0.,0.,1.));
#704=DIRECTION('',(1.,0.,0.));
#705=DIRECTION('',(0.,0.,-1.));
#706=DIRECTION('',(-1.,0.,0.));
#707=DIRECTION('',(-1.,0.,0.));
#708=DIRECTION('',(0.,-1.,0.));
#709=DIRECTION('',(1.,0.,0.));
#710=DIRECTION('',(-0.0871557427476607,-0.996194698091745,0.));
#711=DIRECTION('',(0.,0.,-1.));
#712=DIRECTION('',(-1.,0.,0.));
#713=DIRECTION('',(-0.0871557427476374,-0.996194698091747,0.));
#714=DIRECTION('',(0.,0.,-1.));
#715=DIRECTION('',(-1.,0.,0.));
#716=DIRECTION('',(1.,0.,0.));
#717=DIRECTION('',(0.,1.,0.));
#718=DIRECTION('',(1.,0.,0.));
#719=DIRECTION('',(0.,1.,0.));
#720=DIRECTION('',(0.,0.,-1.));
#721=DIRECTION('',(-1.,0.,0.));
#722=DIRECTION('',(-1.,0.,0.));
#723=DIRECTION('',(0.,-1.,0.));
#724=DIRECTION('',(1.,0.,0.));
#725=DIRECTION('',(0.,-1.,0.));
#726=DIRECTION('',(0.,1.,0.));
#727=DIRECTION('',(0.,0.,1.));
#728=DIRECTION('',(1.,0.,0.));
#729=DIRECTION('',(0.,0.,-1.));
#730=DIRECTION('',(0.,0.,-1.));
#731=DIRECTION('',(0.,0.,-1.));
#732=DIRECTION('',(-1.,0.,0.));
#733=DIRECTION('',(0.,0.,-1.));
#734=DIRECTION('',(-1.,0.,0.));
#735=DIRECTION('',(0.,0.,-1.));
#736=DIRECTION('',(0.996194698091747,-0.0871557427476374,0.));
#737=DIRECTION('',(0.0871557427476374,0.996194698091747,0.));
#738=DIRECTION('',(-0.0871557427476374,-0.996194698091747,0.));
#739=DIRECTION('',(0.,0.,1.));
#740=DIRECTION('',(0.,0.,-1.));
#741=DIRECTION('',(-1.,0.,0.));
#742=DIRECTION('',(0.,0.,-1.));
#743=DIRECTION('',(-1.,0.,0.));
#744=DIRECTION('',(0.,0.,-1.));
#745=DIRECTION('',(0.996194698091745,-0.0871557427476607,0.));
#746=DIRECTION('',(0.0871557427476607,0.996194698091745,0.));
#747=DIRECTION('',(-0.0871557427476607,-0.996194698091745,0.));
#748=DIRECTION('',(0.,0.,1.));
#749=DIRECTION('',(0.,1.,0.));
#750=DIRECTION('',(0.,0.,1.));
#751=DIRECTION('',(1.,0.,0.));
#752=DIRECTION('',(0.,1.,0.));
#753=DIRECTION('',(0.,0.,1.));
#754=DIRECTION('',(1.15648231731787E-16,0.,-1.));
#755=DIRECTION('',(-1.,0.,0.));
#756=DIRECTION('',(-2.31296463463574E-16,0.,1.));
#757=DIRECTION('',(0.,1.,0.));
#758=DIRECTION('',(0.,0.,1.));
#759=DIRECTION('',(0.,1.,0.));
#760=DIRECTION('',(0.,0.,1.));
#761=DIRECTION('',(1.15648231731787E-16,0.,1.));
#762=DIRECTION('',(1.,0.,-1.38777878078145E-15));
#763=DIRECTION('',(0.,0.,-1.));
#764=DIRECTION('',(0.,1.,0.));
#765=DIRECTION('',(0.,0.,1.));
#766=DIRECTION('',(1.,0.,0.));
#767=DIRECTION('',(0.,0.,-1.));
#768=DIRECTION('',(0.,-1.,0.));
#769=DIRECTION('',(0.,0.,-1.));
#770=DIRECTION('',(-1.,0.,0.));
#771=DIRECTION('',(0.,0.,-1.));
#772=DIRECTION('',(-1.,0.,0.));
#773=DIRECTION('',(0.,-1.,0.));
#774=DIRECTION('',(0.,0.,-1.));
#775=DIRECTION('',(0.,0.,-1.));
#776=DIRECTION('',(1.,0.,-1.38777878078145E-15));
#777=DIRECTION('',(1.15648231731787E-16,0.,1.));
#778=DIRECTION('',(0.,-1.,0.));
#779=DIRECTION('',(0.,0.,-1.));
#780=DIRECTION('',(0.,-1.,0.));
#781=DIRECTION('',(0.,0.,-1.));
#782=DIRECTION('',(-2.31296463463574E-16,0.,1.));
#783=DIRECTION('',(-1.,0.,0.));
#784=DIRECTION('',(1.15648231731787E-16,0.,-1.));
#785=DIRECTION('',(0.,-1.,0.));
#786=DIRECTION('',(0.,0.,-1.));
#787=DIRECTION('',(0.,0.,-1.));
#788=DIRECTION('',(-1.,0.,0.));
#789=DIRECTION('',(0.,0.,1.));
#790=DIRECTION('',(0.,1.,0.));
#791=DIRECTION('',(0.,0.,-1.));
#792=DIRECTION('',(0.,0.,-1.));
#793=DIRECTION('',(-1.,0.,0.));
#794=DIRECTION('',(0.,-1.,0.));
#795=DIRECTION('',(0.,1.,0.));
#796=DIRECTION('',(-1.,0.,0.));
#797=DIRECTION('',(0.,1.,0.));
#798=DIRECTION('',(-1.,0.,0.));
#799=DIRECTION('',(0.,0.,1.));
#800=DIRECTION('',(1.,0.,0.));
#801=DIRECTION('',(0.0871557427476374,-0.996194698091747,0.));
#802=DIRECTION('',(0.,0.,1.));
#803=DIRECTION('',(1.,0.,0.));
#804=DIRECTION('',(0.0871557427476607,-0.996194698091745,0.));
#805=DIRECTION('',(0.,0.,-1.));
#806=DIRECTION('',(-1.,0.,0.));
#807=DIRECTION('',(0.0871557427476607,-0.996194698091745,0.));
#808=DIRECTION('',(0.,0.,-1.));
#809=DIRECTION('',(-1.,0.,0.));
#810=DIRECTION('',(0.0871557427476374,-0.996194698091747,0.));
#811=DIRECTION('',(0.,0.,1.));
#812=DIRECTION('',(1.,0.,0.));
#813=DIRECTION('',(-1.,0.,0.));
#814=DIRECTION('',(0.,1.,0.));
#815=DIRECTION('',(-1.,0.,0.));
#816=DIRECTION('',(0.,1.,0.));
#817=DIRECTION('',(0.,1.,0.));
#818=DIRECTION('',(1.,0.,0.));
#819=DIRECTION('',(1.,0.,0.));
#820=DIRECTION('',(0.,0.,1.));
#821=DIRECTION('',(0.,0.,-1.));
#822=DIRECTION('',(0.,0.,-1.));
#823=DIRECTION('',(-0.996194698091745,-0.0871557427476607,0.));
#824=DIRECTION('',(-0.0871557427476607,0.996194698091745,0.));
#825=DIRECTION('',(0.,0.,-1.));
#826=DIRECTION('',(0.,0.,1.));
#827=DIRECTION('',(1.,0.,0.));
#828=DIRECTION('',(0.,0.,1.));
#829=DIRECTION('',(-0.996194698091747,-0.0871557427476374,0.));
#830=DIRECTION('',(-0.0871557427476374,0.996194698091747,0.));
#831=DIRECTION('',(0.,0.,-1.));
#832=DIRECTION('',(0.,0.,-1.));
#833=DIRECTION('',(1.,0.,0.));
#834=DIRECTION('',(0.,0.,-1.));
#835=DIRECTION('',(0.,1.,0.));
#836=DIRECTION('',(0.,0.,1.));
#837=DIRECTION('',(0.,1.,0.));
#838=DIRECTION('',(0.,0.,1.));
#839=DIRECTION('',(0.,0.,-1.));
#840=DIRECTION('',(-1.,0.,0.));
#841=DIRECTION('',(0.,0.,1.));
#842=DIRECTION('',(-1.,0.,0.));
#843=DIRECTION('',(0.,0.,1.));
#844=DIRECTION('',(0.,0.,-1.));
#845=DIRECTION('',(0.,-1.,0.));
#846=DIRECTION('',(0.,0.,-1.));
#847=DIRECTION('',(1.,0.,-1.15648231731787E-16));
#848=DIRECTION('',(-1.15648231731787E-16,0.,-1.));
#849=DIRECTION('',(0.,-1.,0.));
#850=DIRECTION('',(0.,-1.,0.));
#851=DIRECTION('',(-1.38777878078145E-15,0.,-1.));
#852=DIRECTION('',(-1.,0.,1.38777878078145E-15));
#853=DIRECTION('',(0.,-1.,0.));
#854=DIRECTION('',(-1.,0.,0.));
#855=DIRECTION('',(0.,0.,1.));
#856=DIRECTION('',(0.,-1.,0.));
#857=DIRECTION('',(1.,0.,2.31296463463574E-16));
#858=DIRECTION('',(2.31296463463574E-16,0.,-1.));
#859=DIRECTION('',(0.,-1.,0.));
#860=DIRECTION('',(0.,-1.,0.));
#861=DIRECTION('',(0.,0.,1.));
#862=DIRECTION('',(1.,0.,0.));
#863=DIRECTION('',(0.,-1.,0.));
#864=DIRECTION('',(-1.,0.,-1.15648231731787E-16));
#865=DIRECTION('',(-1.15648231731787E-16,0.,1.));
#866=DIRECTION('',(0.,-1.,0.));
#867=DIRECTION('',(0.,-1.,0.));
#868=DIRECTION('',(0.,0.,-1.));
#869=DIRECTION('',(0.,1.,0.));
#870=DIRECTION('',(0.,0.,1.));
#871=DIRECTION('',(0.,-1.,0.));
#872=DIRECTION('',(0.,0.,-1.));
#873=DIRECTION('',(0.,1.,0.));
#874=DIRECTION('',(0.,0.,1.));
#875=CARTESIAN_POINT('',(0.,0.,0.));
#876=CARTESIAN_POINT('',(-27.5495417916804,2.81624780561101,19.8326031734429));
#877=CARTESIAN_POINT('',(-27.5,-1.,19.8326031734429));
#878=CARTESIAN_POINT('',(-16.,-1.,19.8326031734429));
#879=CARTESIAN_POINT('',(-30.,-1.,19.8326031734429));
#880=CARTESIAN_POINT('',(-16.,2.81624780561101,19.8326031734429));
#881=CARTESIAN_POINT('',(-16.,0.,19.8326031734429));
#882=CARTESIAN_POINT('',(-27.75,0.,19.8326031734429));
#883=CARTESIAN_POINT('',(-27.2959315483511,0.,19.8326031734429));
#884=CARTESIAN_POINT('',(-27.193348767214,1.17252655375963,19.8326031734429));
#885=CARTESIAN_POINT('',(-27.193348767214,1.17252655375963,19.8326031734429));
#886=CARTESIAN_POINT('',(-27.1497708958402,1.67062390280551,19.8326031734429));
#887=CARTESIAN_POINT('',(-26.6516735467943,1.62704603143169,19.8326031734429));
#888=CARTESIAN_POINT('',(-26.5950223140084,2.27457258519132,19.8326031734429));
#889=CARTESIAN_POINT('',(-26.5514444426345,2.7726699342372,19.8326031734429));
#890=CARTESIAN_POINT('',(-27.0495417916804,2.81624780561101,19.8326031734429));
#891=CARTESIAN_POINT('',(-27.0059639203066,3.31434515465689,19.8326031734429));
#892=CARTESIAN_POINT('',(-27.5059639203066,3.31434515465689,19.8326031734429));
#893=CARTESIAN_POINT('',(-28.5,3.31434515465689,19.8326031734429));
#894=CARTESIAN_POINT('',(-28.5,0.,19.8326031734429));
#895=CARTESIAN_POINT('',(-28.5,0.,19.8326031734429));
#896=CARTESIAN_POINT('',(-28.5,0.,19.8326031734429));
#897=CARTESIAN_POINT('',(-30.,0.,19.8326031734429));
#898=CARTESIAN_POINT('',(-30.,0.,19.8326031734429));
#899=CARTESIAN_POINT('',(-27.5495417916804,2.81624780561101,19.8326031734429));
#900=CARTESIAN_POINT('',(-27.5,-1.,19.8326031734429));
#901=CARTESIAN_POINT('',(9.,-1.,19.8326031734429));
#902=CARTESIAN_POINT('',(-9.,-1.,19.8326031734429));
#903=CARTESIAN_POINT('',(9.,0.,19.8326031734429));
#904=CARTESIAN_POINT('',(9.,0.,19.8326031734429));
#905=CARTESIAN_POINT('',(-27.75,0.,19.8326031734429));
#906=CARTESIAN_POINT('',(-9.,0.,19.8326031734429));
#907=CARTESIAN_POINT('',(-9.,2.81624780561101,19.8326031734429));
#908=CARTESIAN_POINT('',(-27.5059639203066,3.31434515465689,19.8326031734429));
#909=CARTESIAN_POINT('',(-27.5059639203066,3.31434515465689,12.8326031734429));
#910=CARTESIAN_POINT('',(-28.5,3.31434515465689,12.8326031734429));
#911=CARTESIAN_POINT('',(-27.0059639203066,3.31434515465689,12.8326031734429));
#912=CARTESIAN_POINT('',(-28.5,3.31434515465689,19.8326031734429));
#913=CARTESIAN_POINT('',(-27.0059639203066,3.31434515465689,19.8326031734429));
#914=CARTESIAN_POINT('',(-27.0495417916804,2.81624780561101,19.8326031734429));
#915=CARTESIAN_POINT('',(-27.0495417916804,2.81624780561101,12.8326031734429));
#916=CARTESIAN_POINT('',(-26.5514444426345,2.7726699342372,12.8326031734429));
#917=CARTESIAN_POINT('',(-26.5514444426345,2.7726699342372,17.3326031734429));
#918=CARTESIAN_POINT('',(-26.5950223140084,2.27457258519132,19.8326031734429));
#919=CARTESIAN_POINT('',(-26.5950223140084,2.27457258519132,12.8326031734429));
#920=CARTESIAN_POINT('',(-26.6516735467943,1.62704603143169,12.8326031734429));
#921=CARTESIAN_POINT('',(-26.6516735467943,1.62704603143169,17.3326031734429));
#922=CARTESIAN_POINT('',(-27.1497708958402,1.67062390280551,14.8326031734429));
#923=CARTESIAN_POINT('',(-27.1497708958402,1.67062390280551,12.8326031734429));
#924=CARTESIAN_POINT('',(-27.193348767214,1.17252655375963,12.8326031734429));
#925=CARTESIAN_POINT('',(-27.193348767214,1.17252655375963,14.8326031734429));
#926=CARTESIAN_POINT('',(-27.193348767214,1.17252655375963,19.8326031734429));
#927=CARTESIAN_POINT('',(-27.193348767214,1.17252655375963,12.8326031734429));
#928=CARTESIAN_POINT('',(-27.2959315483511,0.,12.8326031734429));
#929=CARTESIAN_POINT('',(-27.2959315483511,0.,19.8326031734429));
#930=CARTESIAN_POINT('',(-27.75,0.,19.8326031734429));
#931=CARTESIAN_POINT('',(-27.75,0.,12.8326031734429));
#932=CARTESIAN_POINT('',(27.2959315483511,0.,12.8326031734429));
#933=CARTESIAN_POINT('',(-16.,0.,20.8326031734429));
#934=CARTESIAN_POINT('',(-15.,0.,20.8326031734429));
#935=CARTESIAN_POINT('',(-15.,0.,34.8326031734429));
#936=CARTESIAN_POINT('',(-15.,0.,34.8326031734429));
#937=CARTESIAN_POINT('',(-10.,0.,34.8326031734429));
#938=CARTESIAN_POINT('',(-10.,0.,34.8326031734429));
#939=CARTESIAN_POINT('',(-10.,0.,19.8326031734429));
#940=CARTESIAN_POINT('',(-10.,0.,20.8326031734429));
#941=CARTESIAN_POINT('',(-9.,0.,20.8326031734429));
#942=CARTESIAN_POINT('',(9.,0.,20.8326031734429));
#943=CARTESIAN_POINT('',(10.,0.,20.8326031734429));
#944=CARTESIAN_POINT('',(10.,0.,19.8326031734429));
#945=CARTESIAN_POINT('',(10.,0.,34.8326031734429));
#946=CARTESIAN_POINT('',(15.,0.,34.8326031734429));
#947=CARTESIAN_POINT('',(15.,0.,34.8326031734429));
#948=CARTESIAN_POINT('',(15.,0.,34.8326031734429));
#949=CARTESIAN_POINT('',(15.,0.,20.8326031734429));
#950=CARTESIAN_POINT('',(16.,0.,20.8326031734429));
#951=CARTESIAN_POINT('',(16.,0.,19.8326031734429));
#952=CARTESIAN_POINT('',(-27.75,0.,19.8326031734429));
#953=CARTESIAN_POINT('',(27.2959315483511,8.67361737988404E-16,19.8326031734429));
#954=CARTESIAN_POINT('',(27.2959315483511,0.,19.8326031734429));
#955=CARTESIAN_POINT('',(-27.5,-1.,19.8326031734429));
#956=CARTESIAN_POINT('',(-27.5,-1.,12.8326031734429));
#957=CARTESIAN_POINT('',(30.,-1.,12.8326031734429));
#958=CARTESIAN_POINT('',(-30.,-1.,12.8326031734429));
#959=CARTESIAN_POINT('',(30.,-1.,19.8326031734429));
#960=CARTESIAN_POINT('',(30.,-1.,19.8326031734429));
#961=CARTESIAN_POINT('',(-27.5,-1.,19.8326031734429));
#962=CARTESIAN_POINT('',(16.,-1.,19.8326031734429));
#963=CARTESIAN_POINT('',(16.,-1.,20.8326031734429));
#964=CARTESIAN_POINT('',(15.,-1.,20.8326031734429));
#965=CARTESIAN_POINT('',(15.,-1.,34.8326031734429));
#966=CARTESIAN_POINT('',(15.,-1.,34.8326031734429));
#967=CARTESIAN_POINT('',(15.,-1.,34.8326031734429));
#968=CARTESIAN_POINT('',(10.,-1.,34.8326031734429));
#969=CARTESIAN_POINT('',(10.,-1.,19.8326031734429));
#970=CARTESIAN_POINT('',(10.,-1.,20.8326031734429));
#971=CARTESIAN_POINT('',(9.,-1.,20.8326031734429));
#972=CARTESIAN_POINT('',(-9.,-1.,20.8326031734429));
#973=CARTESIAN_POINT('',(-10.,-1.,20.8326031734429));
#974=CARTESIAN_POINT('',(-10.,-1.,19.8326031734429));
#975=CARTESIAN_POINT('',(-10.,-1.,34.8326031734429));
#976=CARTESIAN_POINT('',(-10.,-1.,34.8326031734429));
#977=CARTESIAN_POINT('',(-15.,-1.,34.8326031734429));
#978=CARTESIAN_POINT('',(-15.,-1.,34.8326031734429));
#979=CARTESIAN_POINT('',(-15.,-1.,20.8326031734429));
#980=CARTESIAN_POINT('',(-16.,-1.,20.8326031734429));
#981=CARTESIAN_POINT('',(-30.,-1.,19.8326031734429));
#982=CARTESIAN_POINT('',(-28.5,0.,19.8326031734429));
#983=CARTESIAN_POINT('',(-28.5,0.,12.8326031734429));
#984=CARTESIAN_POINT('',(-28.5,-1.22464679914735E-16,12.8326031734429));
#985=CARTESIAN_POINT('',(-28.5,-1.22464679914735E-16,19.8326031734429));
#986=CARTESIAN_POINT('',(-27.5495417916804,2.81624780561101,19.8326031734429));
#987=CARTESIAN_POINT('',(16.,-1.,19.8326031734429));
#988=CARTESIAN_POINT('',(30.,-1.,19.8326031734429));
#989=CARTESIAN_POINT('',(30.,0.,19.8326031734429));
#990=CARTESIAN_POINT('',(30.,0.,19.8326031734429));
#991=CARTESIAN_POINT('',(28.5,-1.22464679914735E-16,19.8326031734429));
#992=CARTESIAN_POINT('',(28.5,0.,19.8326031734429));
#993=CARTESIAN_POINT('',(28.5,3.31434515465689,19.8326031734429));
#994=CARTESIAN_POINT('',(27.5059639203066,3.31434515465689,19.8326031734429));
#995=CARTESIAN_POINT('',(27.0059639203066,3.31434515465689,19.8326031734429));
#996=CARTESIAN_POINT('',(27.0495417916804,2.81624780561101,19.8326031734429));
#997=CARTESIAN_POINT('',(26.5514444426345,2.7726699342372,19.8326031734429));
#998=CARTESIAN_POINT('',(26.5950223140084,2.27457258519132,19.8326031734429));
#999=CARTESIAN_POINT('',(26.6516735467943,1.62704603143169,19.8326031734429));
#1000=CARTESIAN_POINT('',(27.1497708958402,1.67062390280551,19.8326031734429));
#1001=CARTESIAN_POINT('',(27.193348767214,1.17252655375963,19.8326031734429));
#1002=CARTESIAN_POINT('',(27.193348767214,1.17252655375963,19.8326031734429));
#1003=CARTESIAN_POINT('',(-27.5495417916804,2.81624780561101,12.8326031734429));
#1004=CARTESIAN_POINT('',(27.193348767214,1.17252655375963,12.8326031734429));
#1005=CARTESIAN_POINT('',(27.193348767214,1.17252655375963,12.8326031734429));
#1006=CARTESIAN_POINT('',(27.1497708958402,1.67062390280551,12.8326031734429));
#1007=CARTESIAN_POINT('',(26.6516735467943,1.62704603143169,12.8326031734429));
#1008=CARTESIAN_POINT('',(26.5950223140084,2.27457258519132,12.8326031734429));
#1009=CARTESIAN_POINT('',(26.5514444426345,2.7726699342372,12.8326031734429));
#1010=CARTESIAN_POINT('',(27.0495417916804,2.81624780561101,12.8326031734429));
#1011=CARTESIAN_POINT('',(27.0059639203066,3.31434515465689,12.8326031734429));
#1012=CARTESIAN_POINT('',(27.5059639203066,3.31434515465689,12.8326031734429));
#1013=CARTESIAN_POINT('',(28.5,3.31434515465689,12.8326031734429));
#1014=CARTESIAN_POINT('',(28.5,0.,12.8326031734429));
#1015=CARTESIAN_POINT('',(28.5,-1.22464679914735E-16,12.8326031734429));
#1016=CARTESIAN_POINT('',(30.,0.,12.8326031734429));
#1017=CARTESIAN_POINT('',(30.,0.,12.8326031734429));
#1018=CARTESIAN_POINT('',(30.,-1.,12.8326031734429));
#1019=CARTESIAN_POINT('',(-30.,0.,12.8326031734429));
#1020=CARTESIAN_POINT('',(-30.,0.,12.8326031734429));
#1021=CARTESIAN_POINT('',(-28.5,0.,12.8326031734429));
#1022=CARTESIAN_POINT('',(28.5,0.,19.8326031734429));
#1023=CARTESIAN_POINT('',(28.5,3.31434515465689,19.8326031734429));
#1024=CARTESIAN_POINT('',(28.5,-1.22464679914735E-16,19.8326031734429));
#1025=CARTESIAN_POINT('',(27.193348767214,1.17252655375963,19.8326031734429));
#1026=CARTESIAN_POINT('',(27.193348767214,1.17252655375963,19.8326031734429));
#1027=CARTESIAN_POINT('',(27.1497708958402,1.67062390280551,19.8326031734429));
#1028=CARTESIAN_POINT('',(26.6516735467943,1.62704603143169,19.8326031734429));
#1029=CARTESIAN_POINT('',(26.5950223140084,2.27457258519132,19.8326031734429));
#1030=CARTESIAN_POINT('',(26.5514444426345,2.7726699342372,17.3326031734429));
#1031=CARTESIAN_POINT('',(27.0495417916804,2.81624780561101,19.8326031734429));
#1032=CARTESIAN_POINT('',(27.0059639203066,3.31434515465689,19.8326031734429));
#1033=CARTESIAN_POINT('',(27.5059639203066,3.31434515465689,19.8326031734429));
#1034=CARTESIAN_POINT('',(-28.5,0.,19.8326031734429));
#1035=CARTESIAN_POINT('',(-30.,0.,19.8326031734429));
#1036=CARTESIAN_POINT('',(-30.,0.,19.8326031734429));
#1037=CARTESIAN_POINT('',(30.,-1.,19.8326031734429));
#1038=CARTESIAN_POINT('',(30.,0.,19.8326031734429));
#1039=CARTESIAN_POINT('',(30.,0.,19.8326031734429));
#1040=CARTESIAN_POINT('',(10.,1.,19.8326031734429));
#1041=CARTESIAN_POINT('',(10.,-1.,20.8326031734429));
#1042=CARTESIAN_POINT('',(10.,1.,34.8326031734429));
#1043=CARTESIAN_POINT('',(15.,1.,34.8326031734429));
#1044=CARTESIAN_POINT('',(15.,1.,34.8326031734429));
#1045=CARTESIAN_POINT('',(15.,1.,34.8326031734429));
#1046=CARTESIAN_POINT('',(15.,4.33680868994202E-16,20.8326031734429));
#1047=CARTESIAN_POINT('',(-10.,1.,19.8326031734429));
#1048=CARTESIAN_POINT('',(-10.,1.,20.8326031734429));
#1049=CARTESIAN_POINT('',(-10.,1.,34.8326031734429));
#1050=CARTESIAN_POINT('',(-10.,1.,34.8326031734429));
#1051=CARTESIAN_POINT('',(-15.,1.,34.8326031734429));
#1052=CARTESIAN_POINT('',(-15.,1.,34.8326031734429));
#1053=CARTESIAN_POINT('',(-15.,1.,20.8326031734429));
#1054=CARTESIAN_POINT('',(-16.,1.,20.8326031734429));
#1055=CARTESIAN_POINT('',(16.,2.81624780561101,20.8326031734429));
#1056=CARTESIAN_POINT('',(-9.,2.81624780561101,20.8326031734429));
#1057=CARTESIAN_POINT('',(9.,1.,20.8326031734429));
#1058=MECHANICAL_DESIGN_GEOMETRIC_PRESENTATION_REPRESENTATION('',(#643),
#1059);
#1059=(
GEOMETRIC_REPRESENTATION_CONTEXT(3)
GLOBAL_UNCERTAINTY_ASSIGNED_CONTEXT((#1060))
GLOBAL_UNIT_ASSIGNED_CONTEXT((#1063,#1062,#1061))
REPRESENTATION_CONTEXT('Card_TestClip_07','TOP_LEVEL_ASSEMBLY_PART')
);
#1060=UNCERTAINTY_MEASURE_WITH_UNIT(LENGTH_MEASURE(0.005),#1063,
'DISTANCE_ACCURACY_VALUE','Maximum Tolerance applied to model');
#1061=(
NAMED_UNIT(*)
SI_UNIT($,.STERADIAN.)
SOLID_ANGLE_UNIT()
);
#1062=(
NAMED_UNIT(*)
PLANE_ANGLE_UNIT()
SI_UNIT($,.RADIAN.)
);
#1063=(
LENGTH_UNIT()
NAMED_UNIT(*)
SI_UNIT(.MILLI.,.METRE.)
);
#1064=PRODUCT_DEFINITION_SHAPE('','',#1065);
#1065=PRODUCT_DEFINITION('','',#1067,#1066);
#1066=PRODUCT_DEFINITION_CONTEXT('',#1073,'design');
#1067=PRODUCT_DEFINITION_FORMATION_WITH_SPECIFIED_SOURCE('','',#1069,
 .NOT_KNOWN.);
#1068=PRODUCT_RELATED_PRODUCT_CATEGORY('','',(#1069));
#1069=PRODUCT('Card_TestClip_07','Card_TestClip_07','Card_TestClip_07',
(#1071));
#1070=PRODUCT_CATEGORY('','');
#1071=PRODUCT_CONTEXT('',#1073,'mechanical');
#1072=APPLICATION_PROTOCOL_DEFINITION('international standard',
'automotive_design',2010,#1073);
#1073=APPLICATION_CONTEXT(
'core data for automotive mechanical design processes');
ENDSEC;
END-ISO-10303-21;
