ISO-10303-21;
HEADER;
/* Generated by software containing ST-Developer
 * from STEP Tools, Inc. (www.steptools.com) 
 */
/* OPTION: strings as raw bytes, not using required /X/ escapes */

FILE_DESCRIPTION(
/* description */ ('Unknown'),
/* implementation_level */ '2;1');

FILE_NAME(
/* name */ 'Card_TestClip_01',
/* time_stamp */ '2023-05-22T10:39:56+01:00',
/* author */ ('Unknown'),
/* organization */ ('Unknown'),
/* preprocessor_version */ 'ST-DEVELOPER v18.102',
/* originating_system */ 'Solid Edge',
/* authorisation */ 'Unknown');

FILE_SCHEMA (('AUTOMOTIVE_DESIGN {1 0 10303 214 3 1 1}'));
ENDSEC;

DATA;
#10=PROPERTY_DEFINITION_REPRESENTATION(#14,#12);
#11=PROPERTY_DEFINITION_REPRESENTATION(#15,#13);
#12=REPRESENTATION('',(#16),#729);
#13=REPRESENTATION('',(#17),#729);
#14=PROPERTY_DEFINITION('pmi validation property','',#734);
#15=PROPERTY_DEFINITION('pmi validation property','',#734);
#16=VALUE_REPRESENTATION_ITEM('number of annotations',COUNT_MEASURE(0.));
#17=VALUE_REPRESENTATION_ITEM('number of views',COUNT_MEASURE(0.));
#18=SHAPE_REPRESENTATION_RELATIONSHIP('','',#443,#19);
#19=ADVANCED_BREP_SHAPE_REPRESENTATION('',(#441),#729);
#20=CYLINDRICAL_SURFACE('',#475,0.15);
#21=CYLINDRICAL_SURFACE('',#476,0.15);
#22=CYLINDRICAL_SURFACE('',#477,0.15);
#23=CYLINDRICAL_SURFACE('',#478,0.15);
#24=CYLINDRICAL_SURFACE('',#479,0.15);
#25=CYLINDRICAL_SURFACE('',#480,0.15);
#26=CYLINDRICAL_SURFACE('',#481,1.);
#27=CYLINDRICAL_SURFACE('',#482,1.);
#28=CIRCLE('',#451,1.);
#29=CIRCLE('',#452,1.);
#30=CIRCLE('',#453,0.15);
#31=CIRCLE('',#454,0.15);
#32=CIRCLE('',#455,0.15);
#33=CIRCLE('',#456,0.15);
#34=CIRCLE('',#457,0.15);
#35=CIRCLE('',#458,0.15);
#36=CIRCLE('',#461,1.);
#37=CIRCLE('',#462,0.15);
#38=CIRCLE('',#463,0.15);
#39=CIRCLE('',#464,0.15);
#40=CIRCLE('',#465,0.15);
#41=CIRCLE('',#466,0.15);
#42=CIRCLE('',#467,0.15);
#43=CIRCLE('',#468,1.);
#44=ORIENTED_EDGE('',*,*,#164,.T.);
#45=ORIENTED_EDGE('',*,*,#165,.T.);
#46=ORIENTED_EDGE('',*,*,#166,.F.);
#47=ORIENTED_EDGE('',*,*,#167,.F.);
#48=ORIENTED_EDGE('',*,*,#168,.F.);
#49=ORIENTED_EDGE('',*,*,#169,.F.);
#50=ORIENTED_EDGE('',*,*,#170,.T.);
#51=ORIENTED_EDGE('',*,*,#171,.T.);
#52=ORIENTED_EDGE('',*,*,#172,.F.);
#53=ORIENTED_EDGE('',*,*,#173,.T.);
#54=ORIENTED_EDGE('',*,*,#174,.T.);
#55=ORIENTED_EDGE('',*,*,#175,.T.);
#56=ORIENTED_EDGE('',*,*,#176,.F.);
#57=ORIENTED_EDGE('',*,*,#177,.F.);
#58=ORIENTED_EDGE('',*,*,#178,.T.);
#59=ORIENTED_EDGE('',*,*,#179,.T.);
#60=ORIENTED_EDGE('',*,*,#180,.F.);
#61=ORIENTED_EDGE('',*,*,#181,.F.);
#62=ORIENTED_EDGE('',*,*,#182,.T.);
#63=ORIENTED_EDGE('',*,*,#183,.T.);
#64=ORIENTED_EDGE('',*,*,#184,.F.);
#65=ORIENTED_EDGE('',*,*,#185,.T.);
#66=ORIENTED_EDGE('',*,*,#186,.T.);
#67=ORIENTED_EDGE('',*,*,#187,.T.);
#68=ORIENTED_EDGE('',*,*,#188,.T.);
#69=ORIENTED_EDGE('',*,*,#189,.F.);
#70=ORIENTED_EDGE('',*,*,#190,.T.);
#71=ORIENTED_EDGE('',*,*,#177,.T.);
#72=ORIENTED_EDGE('',*,*,#191,.F.);
#73=ORIENTED_EDGE('',*,*,#181,.T.);
#74=ORIENTED_EDGE('',*,*,#192,.F.);
#75=ORIENTED_EDGE('',*,*,#172,.T.);
#76=ORIENTED_EDGE('',*,*,#193,.F.);
#77=ORIENTED_EDGE('',*,*,#194,.F.);
#78=ORIENTED_EDGE('',*,*,#195,.T.);
#79=ORIENTED_EDGE('',*,*,#170,.F.);
#80=ORIENTED_EDGE('',*,*,#196,.T.);
#81=ORIENTED_EDGE('',*,*,#164,.F.);
#82=ORIENTED_EDGE('',*,*,#197,.F.);
#83=ORIENTED_EDGE('',*,*,#198,.F.);
#84=ORIENTED_EDGE('',*,*,#188,.F.);
#85=ORIENTED_EDGE('',*,*,#199,.T.);
#86=ORIENTED_EDGE('',*,*,#200,.T.);
#87=ORIENTED_EDGE('',*,*,#201,.F.);
#88=ORIENTED_EDGE('',*,*,#202,.T.);
#89=ORIENTED_EDGE('',*,*,#203,.T.);
#90=ORIENTED_EDGE('',*,*,#204,.T.);
#91=ORIENTED_EDGE('',*,*,#205,.F.);
#92=ORIENTED_EDGE('',*,*,#206,.T.);
#93=ORIENTED_EDGE('',*,*,#166,.T.);
#94=ORIENTED_EDGE('',*,*,#207,.F.);
#95=ORIENTED_EDGE('',*,*,#168,.T.);
#96=ORIENTED_EDGE('',*,*,#208,.F.);
#97=ORIENTED_EDGE('',*,*,#209,.T.);
#98=ORIENTED_EDGE('',*,*,#210,.F.);
#99=ORIENTED_EDGE('',*,*,#174,.F.);
#100=ORIENTED_EDGE('',*,*,#211,.T.);
#101=ORIENTED_EDGE('',*,*,#183,.F.);
#102=ORIENTED_EDGE('',*,*,#212,.T.);
#103=ORIENTED_EDGE('',*,*,#179,.F.);
#104=ORIENTED_EDGE('',*,*,#213,.F.);
#105=ORIENTED_EDGE('',*,*,#214,.F.);
#106=ORIENTED_EDGE('',*,*,#200,.F.);
#107=ORIENTED_EDGE('',*,*,#215,.T.);
#108=ORIENTED_EDGE('',*,*,#204,.F.);
#109=ORIENTED_EDGE('',*,*,#216,.T.);
#110=ORIENTED_EDGE('',*,*,#184,.T.);
#111=ORIENTED_EDGE('',*,*,#217,.F.);
#112=ORIENTED_EDGE('',*,*,#186,.F.);
#113=ORIENTED_EDGE('',*,*,#218,.T.);
#114=ORIENTED_EDGE('',*,*,#202,.F.);
#115=ORIENTED_EDGE('',*,*,#219,.T.);
#116=ORIENTED_EDGE('',*,*,#175,.F.);
#117=ORIENTED_EDGE('',*,*,#210,.T.);
#118=ORIENTED_EDGE('',*,*,#220,.F.);
#119=ORIENTED_EDGE('',*,*,#193,.T.);
#120=ORIENTED_EDGE('',*,*,#198,.T.);
#121=ORIENTED_EDGE('',*,*,#221,.T.);
#122=ORIENTED_EDGE('',*,*,#205,.T.);
#123=ORIENTED_EDGE('',*,*,#217,.T.);
#124=ORIENTED_EDGE('',*,*,#209,.F.);
#125=ORIENTED_EDGE('',*,*,#222,.F.);
#126=ORIENTED_EDGE('',*,*,#194,.T.);
#127=ORIENTED_EDGE('',*,*,#220,.T.);
#128=ORIENTED_EDGE('',*,*,#223,.T.);
#129=ORIENTED_EDGE('',*,*,#189,.T.);
#130=ORIENTED_EDGE('',*,*,#201,.T.);
#131=ORIENTED_EDGE('',*,*,#214,.T.);
#132=ORIENTED_EDGE('',*,*,#213,.T.);
#133=ORIENTED_EDGE('',*,*,#178,.F.);
#134=ORIENTED_EDGE('',*,*,#190,.F.);
#135=ORIENTED_EDGE('',*,*,#223,.F.);
#136=ORIENTED_EDGE('',*,*,#212,.F.);
#137=ORIENTED_EDGE('',*,*,#182,.F.);
#138=ORIENTED_EDGE('',*,*,#191,.T.);
#139=ORIENTED_EDGE('',*,*,#176,.T.);
#140=ORIENTED_EDGE('',*,*,#211,.F.);
#141=ORIENTED_EDGE('',*,*,#173,.F.);
#142=ORIENTED_EDGE('',*,*,#192,.T.);
#143=ORIENTED_EDGE('',*,*,#180,.T.);
#144=ORIENTED_EDGE('',*,*,#208,.T.);
#145=ORIENTED_EDGE('',*,*,#171,.F.);
#146=ORIENTED_EDGE('',*,*,#195,.F.);
#147=ORIENTED_EDGE('',*,*,#222,.T.);
#148=ORIENTED_EDGE('',*,*,#206,.F.);
#149=ORIENTED_EDGE('',*,*,#221,.F.);
#150=ORIENTED_EDGE('',*,*,#197,.T.);
#151=ORIENTED_EDGE('',*,*,#167,.T.);
#152=ORIENTED_EDGE('',*,*,#207,.T.);
#153=ORIENTED_EDGE('',*,*,#165,.F.);
#154=ORIENTED_EDGE('',*,*,#196,.F.);
#155=ORIENTED_EDGE('',*,*,#169,.T.);
#156=ORIENTED_EDGE('',*,*,#187,.F.);
#157=ORIENTED_EDGE('',*,*,#219,.F.);
#158=ORIENTED_EDGE('',*,*,#215,.F.);
#159=ORIENTED_EDGE('',*,*,#199,.F.);
#160=ORIENTED_EDGE('',*,*,#203,.F.);
#161=ORIENTED_EDGE('',*,*,#218,.F.);
#162=ORIENTED_EDGE('',*,*,#185,.F.);
#163=ORIENTED_EDGE('',*,*,#216,.F.);
#164=EDGE_CURVE('',#224,#225,#264,.T.);
#165=EDGE_CURVE('',#225,#226,#265,.T.);
#166=EDGE_CURVE('',#227,#226,#266,.T.);
#167=EDGE_CURVE('',#224,#227,#267,.T.);
#168=EDGE_CURVE('',#228,#229,#268,.T.);
#169=EDGE_CURVE('',#230,#228,#269,.T.);
#170=EDGE_CURVE('',#230,#231,#270,.T.);
#171=EDGE_CURVE('',#231,#229,#271,.T.);
#172=EDGE_CURVE('',#232,#233,#272,.T.);
#173=EDGE_CURVE('',#232,#234,#273,.T.);
#174=EDGE_CURVE('',#234,#235,#274,.T.);
#175=EDGE_CURVE('',#235,#233,#275,.T.);
#176=EDGE_CURVE('',#236,#237,#276,.T.);
#177=EDGE_CURVE('',#238,#236,#277,.T.);
#178=EDGE_CURVE('',#238,#239,#278,.T.);
#179=EDGE_CURVE('',#239,#237,#279,.T.);
#180=EDGE_CURVE('',#240,#241,#280,.T.);
#181=EDGE_CURVE('',#242,#240,#281,.T.);
#182=EDGE_CURVE('',#242,#243,#282,.T.);
#183=EDGE_CURVE('',#243,#241,#283,.T.);
#184=EDGE_CURVE('',#244,#245,#284,.T.);
#185=EDGE_CURVE('',#244,#246,#28,.T.);
#186=EDGE_CURVE('',#246,#247,#285,.T.);
#187=EDGE_CURVE('',#247,#248,#29,.T.);
#188=EDGE_CURVE('',#248,#249,#286,.T.);
#189=EDGE_CURVE('',#250,#249,#287,.T.);
#190=EDGE_CURVE('',#250,#238,#30,.T.);
#191=EDGE_CURVE('',#242,#236,#31,.T.);
#192=EDGE_CURVE('',#232,#240,#32,.T.);
#193=EDGE_CURVE('',#251,#233,#288,.T.);
#194=EDGE_CURVE('',#252,#251,#289,.T.);
#195=EDGE_CURVE('',#252,#231,#33,.T.);
#196=EDGE_CURVE('',#230,#225,#34,.T.);
#197=EDGE_CURVE('',#253,#224,#35,.T.);
#198=EDGE_CURVE('',#245,#253,#290,.T.);
#199=EDGE_CURVE('',#248,#254,#291,.T.);
#200=EDGE_CURVE('',#254,#255,#292,.T.);
#201=EDGE_CURVE('',#249,#255,#293,.T.);
#202=EDGE_CURVE('',#256,#257,#294,.T.);
#203=EDGE_CURVE('',#257,#258,#36,.T.);
#204=EDGE_CURVE('',#258,#259,#295,.T.);
#205=EDGE_CURVE('',#260,#259,#296,.T.);
#206=EDGE_CURVE('',#260,#227,#37,.T.);
#207=EDGE_CURVE('',#228,#226,#38,.T.);
#208=EDGE_CURVE('',#261,#229,#39,.T.);
#209=EDGE_CURVE('',#261,#262,#297,.T.);
#210=EDGE_CURVE('',#235,#262,#298,.T.);
#211=EDGE_CURVE('',#234,#241,#40,.T.);
#212=EDGE_CURVE('',#243,#237,#41,.T.);
#213=EDGE_CURVE('',#263,#239,#42,.T.);
#214=EDGE_CURVE('',#255,#263,#299,.T.);
#215=EDGE_CURVE('',#254,#256,#43,.T.);
#216=EDGE_CURVE('',#258,#244,#300,.T.);
#217=EDGE_CURVE('',#259,#245,#301,.T.);
#218=EDGE_CURVE('',#246,#257,#302,.F.);
#219=EDGE_CURVE('',#256,#247,#303,.F.);
#220=EDGE_CURVE('',#251,#262,#304,.T.);
#221=EDGE_CURVE('',#253,#260,#305,.T.);
#222=EDGE_CURVE('',#252,#261,#306,.T.);
#223=EDGE_CURVE('',#263,#250,#307,.T.);
#224=VERTEX_POINT('',#608);
#225=VERTEX_POINT('',#609);
#226=VERTEX_POINT('',#611);
#227=VERTEX_POINT('',#613);
#228=VERTEX_POINT('',#617);
#229=VERTEX_POINT('',#618);
#230=VERTEX_POINT('',#620);
#231=VERTEX_POINT('',#622);
#232=VERTEX_POINT('',#626);
#233=VERTEX_POINT('',#627);
#234=VERTEX_POINT('',#629);
#235=VERTEX_POINT('',#631);
#236=VERTEX_POINT('',#635);
#237=VERTEX_POINT('',#636);
#238=VERTEX_POINT('',#638);
#239=VERTEX_POINT('',#640);
#240=VERTEX_POINT('',#644);
#241=VERTEX_POINT('',#645);
#242=VERTEX_POINT('',#647);
#243=VERTEX_POINT('',#649);
#244=VERTEX_POINT('',#653);
#245=VERTEX_POINT('',#654);
#246=VERTEX_POINT('',#656);
#247=VERTEX_POINT('',#658);
#248=VERTEX_POINT('',#660);
#249=VERTEX_POINT('',#662);
#250=VERTEX_POINT('',#664);
#251=VERTEX_POINT('',#669);
#252=VERTEX_POINT('',#671);
#253=VERTEX_POINT('',#675);
#254=VERTEX_POINT('',#679);
#255=VERTEX_POINT('',#681);
#256=VERTEX_POINT('',#685);
#257=VERTEX_POINT('',#686);
#258=VERTEX_POINT('',#688);
#259=VERTEX_POINT('',#690);
#260=VERTEX_POINT('',#692);
#261=VERTEX_POINT('',#696);
#262=VERTEX_POINT('',#698);
#263=VERTEX_POINT('',#703);
#264=LINE('',#607,#308);
#265=LINE('',#610,#309);
#266=LINE('',#612,#310);
#267=LINE('',#614,#311);
#268=LINE('',#616,#312);
#269=LINE('',#619,#313);
#270=LINE('',#621,#314);
#271=LINE('',#623,#315);
#272=LINE('',#625,#316);
#273=LINE('',#628,#317);
#274=LINE('',#630,#318);
#275=LINE('',#632,#319);
#276=LINE('',#634,#320);
#277=LINE('',#637,#321);
#278=LINE('',#639,#322);
#279=LINE('',#641,#323);
#280=LINE('',#643,#324);
#281=LINE('',#646,#325);
#282=LINE('',#648,#326);
#283=LINE('',#650,#327);
#284=LINE('',#652,#328);
#285=LINE('',#657,#329);
#286=LINE('',#661,#330);
#287=LINE('',#663,#331);
#288=LINE('',#668,#332);
#289=LINE('',#670,#333);
#290=LINE('',#676,#334);
#291=LINE('',#678,#335);
#292=LINE('',#680,#336);
#293=LINE('',#682,#337);
#294=LINE('',#684,#338);
#295=LINE('',#689,#339);
#296=LINE('',#691,#340);
#297=LINE('',#697,#341);
#298=LINE('',#699,#342);
#299=LINE('',#704,#343);
#300=LINE('',#707,#344);
#301=LINE('',#708,#345);
#302=LINE('',#710,#346);
#303=LINE('',#711,#347);
#304=LINE('',#713,#348);
#305=LINE('',#715,#349);
#306=LINE('',#717,#350);
#307=LINE('',#719,#351);
#308=VECTOR('',#487,1000.);
#309=VECTOR('',#488,1000.);
#310=VECTOR('',#489,1000.);
#311=VECTOR('',#490,1000.);
#312=VECTOR('',#493,1000.);
#313=VECTOR('',#494,1000.);
#314=VECTOR('',#495,1000.);
#315=VECTOR('',#496,1000.);
#316=VECTOR('',#499,1000.);
#317=VECTOR('',#500,1000.);
#318=VECTOR('',#501,1000.);
#319=VECTOR('',#502,1000.);
#320=VECTOR('',#505,1000.);
#321=VECTOR('',#506,1000.);
#322=VECTOR('',#507,1000.);
#323=VECTOR('',#508,1000.);
#324=VECTOR('',#511,1000.);
#325=VECTOR('',#512,1000.);
#326=VECTOR('',#513,1000.);
#327=VECTOR('',#514,1000.);
#328=VECTOR('',#517,1000.);
#329=VECTOR('',#520,1000.);
#330=VECTOR('',#523,1000.);
#331=VECTOR('',#524,1000.);
#332=VECTOR('',#531,1000.);
#333=VECTOR('',#532,1000.);
#334=VECTOR('',#539,1000.);
#335=VECTOR('',#542,1000.);
#336=VECTOR('',#543,1000.);
#337=VECTOR('',#544,1000.);
#338=VECTOR('',#547,1000.);
#339=VECTOR('',#550,1000.);
#340=VECTOR('',#551,1000.);
#341=VECTOR('',#558,1000.);
#342=VECTOR('',#559,1000.);
#343=VECTOR('',#566,1000.);
#344=VECTOR('',#571,1000.);
#345=VECTOR('',#572,1000.);
#346=VECTOR('',#575,1000.);
#347=VECTOR('',#576,1000.);
#348=VECTOR('',#579,1000.);
#349=VECTOR('',#582,1000.);
#350=VECTOR('',#585,1000.);
#351=VECTOR('',#588,1000.);
#352=EDGE_LOOP('',(#44,#45,#46,#47));
#353=EDGE_LOOP('',(#48,#49,#50,#51));
#354=EDGE_LOOP('',(#52,#53,#54,#55));
#355=EDGE_LOOP('',(#56,#57,#58,#59));
#356=EDGE_LOOP('',(#60,#61,#62,#63));
#357=EDGE_LOOP('',(#64,#65,#66,#67,#68,#69,#70,#71,#72,#73,#74,#75,#76,
#77,#78,#79,#80,#81,#82,#83));
#358=EDGE_LOOP('',(#84,#85,#86,#87));
#359=EDGE_LOOP('',(#88,#89,#90,#91,#92,#93,#94,#95,#96,#97,#98,#99,#100,
#101,#102,#103,#104,#105,#106,#107));
#360=EDGE_LOOP('',(#108,#109,#110,#111));
#361=EDGE_LOOP('',(#112,#113,#114,#115));
#362=EDGE_LOOP('',(#116,#117,#118,#119));
#363=EDGE_LOOP('',(#120,#121,#122,#123));
#364=EDGE_LOOP('',(#124,#125,#126,#127));
#365=EDGE_LOOP('',(#128,#129,#130,#131));
#366=EDGE_LOOP('',(#132,#133,#134,#135));
#367=EDGE_LOOP('',(#136,#137,#138,#139));
#368=EDGE_LOOP('',(#140,#141,#142,#143));
#369=EDGE_LOOP('',(#144,#145,#146,#147));
#370=EDGE_LOOP('',(#148,#149,#150,#151));
#371=EDGE_LOOP('',(#152,#153,#154,#155));
#372=EDGE_LOOP('',(#156,#157,#158,#159));
#373=EDGE_LOOP('',(#160,#161,#162,#163));
#374=FACE_BOUND('',#352,.T.);
#375=FACE_BOUND('',#353,.T.);
#376=FACE_BOUND('',#354,.T.);
#377=FACE_BOUND('',#355,.T.);
#378=FACE_BOUND('',#356,.T.);
#379=FACE_BOUND('',#357,.T.);
#380=FACE_BOUND('',#358,.T.);
#381=FACE_BOUND('',#359,.T.);
#382=FACE_BOUND('',#360,.T.);
#383=FACE_BOUND('',#361,.T.);
#384=FACE_BOUND('',#362,.T.);
#385=FACE_BOUND('',#363,.T.);
#386=FACE_BOUND('',#364,.T.);
#387=FACE_BOUND('',#365,.T.);
#388=FACE_BOUND('',#366,.T.);
#389=FACE_BOUND('',#367,.T.);
#390=FACE_BOUND('',#368,.T.);
#391=FACE_BOUND('',#369,.T.);
#392=FACE_BOUND('',#370,.T.);
#393=FACE_BOUND('',#371,.T.);
#394=FACE_BOUND('',#372,.T.);
#395=FACE_BOUND('',#373,.T.);
#396=PLANE('',#445);
#397=PLANE('',#446);
#398=PLANE('',#447);
#399=PLANE('',#448);
#400=PLANE('',#449);
#401=PLANE('',#450);
#402=PLANE('',#459);
#403=PLANE('',#460);
#404=PLANE('',#469);
#405=PLANE('',#470);
#406=PLANE('',#471);
#407=PLANE('',#472);
#408=PLANE('',#473);
#409=PLANE('',#474);
#410=ADVANCED_FACE('',(#374),#396,.F.);
#411=ADVANCED_FACE('',(#375),#397,.F.);
#412=ADVANCED_FACE('',(#376),#398,.F.);
#413=ADVANCED_FACE('',(#377),#399,.F.);
#414=ADVANCED_FACE('',(#378),#400,.F.);
#415=ADVANCED_FACE('',(#379),#401,.T.);
#416=ADVANCED_FACE('',(#380),#402,.T.);
#417=ADVANCED_FACE('',(#381),#403,.T.);
#418=ADVANCED_FACE('',(#382),#404,.T.);
#419=ADVANCED_FACE('',(#383),#405,.F.);
#420=ADVANCED_FACE('',(#384),#406,.T.);
#421=ADVANCED_FACE('',(#385),#407,.T.);
#422=ADVANCED_FACE('',(#386),#408,.F.);
#423=ADVANCED_FACE('',(#387),#409,.T.);
#424=ADVANCED_FACE('',(#388),#20,.T.);
#425=ADVANCED_FACE('',(#389),#21,.T.);
#426=ADVANCED_FACE('',(#390),#22,.T.);
#427=ADVANCED_FACE('',(#391),#23,.T.);
#428=ADVANCED_FACE('',(#392),#24,.T.);
#429=ADVANCED_FACE('',(#393),#25,.T.);
#430=ADVANCED_FACE('',(#394),#26,.T.);
#431=ADVANCED_FACE('',(#395),#27,.T.);
#432=CLOSED_SHELL('',(#410,#411,#412,#413,#414,#415,#416,#417,#418,#419,
#420,#421,#422,#423,#424,#425,#426,#427,#428,#429,#430,#431));
#433=STYLED_ITEM('',(#434),#441);
#434=PRESENTATION_STYLE_ASSIGNMENT((#435));
#435=SURFACE_STYLE_USAGE(.BOTH.,#436);
#436=SURFACE_SIDE_STYLE('',(#437));
#437=SURFACE_STYLE_FILL_AREA(#438);
#438=FILL_AREA_STYLE('',(#439));
#439=FILL_AREA_STYLE_COLOUR('',#440);
#440=COLOUR_RGB('',0.506983280181885,0.531564235687256,0.550000011920929);
#441=MANIFOLD_SOLID_BREP('',#432);
#442=SHAPE_DEFINITION_REPRESENTATION(#734,#443);
#443=SHAPE_REPRESENTATION('Card_TestClip_01',(#444),#729);
#444=AXIS2_PLACEMENT_3D('',#605,#483,#484);
#445=AXIS2_PLACEMENT_3D('',#606,#485,#486);
#446=AXIS2_PLACEMENT_3D('',#615,#491,#492);
#447=AXIS2_PLACEMENT_3D('',#624,#497,#498);
#448=AXIS2_PLACEMENT_3D('',#633,#503,#504);
#449=AXIS2_PLACEMENT_3D('',#642,#509,#510);
#450=AXIS2_PLACEMENT_3D('',#651,#515,#516);
#451=AXIS2_PLACEMENT_3D('',#655,#518,#519);
#452=AXIS2_PLACEMENT_3D('',#659,#521,#522);
#453=AXIS2_PLACEMENT_3D('',#665,#525,#526);
#454=AXIS2_PLACEMENT_3D('',#666,#527,#528);
#455=AXIS2_PLACEMENT_3D('',#667,#529,#530);
#456=AXIS2_PLACEMENT_3D('',#672,#533,#534);
#457=AXIS2_PLACEMENT_3D('',#673,#535,#536);
#458=AXIS2_PLACEMENT_3D('',#674,#537,#538);
#459=AXIS2_PLACEMENT_3D('',#677,#540,#541);
#460=AXIS2_PLACEMENT_3D('',#683,#545,#546);
#461=AXIS2_PLACEMENT_3D('',#687,#548,#549);
#462=AXIS2_PLACEMENT_3D('',#693,#552,#553);
#463=AXIS2_PLACEMENT_3D('',#694,#554,#555);
#464=AXIS2_PLACEMENT_3D('',#695,#556,#557);
#465=AXIS2_PLACEMENT_3D('',#700,#560,#561);
#466=AXIS2_PLACEMENT_3D('',#701,#562,#563);
#467=AXIS2_PLACEMENT_3D('',#702,#564,#565);
#468=AXIS2_PLACEMENT_3D('',#705,#567,#568);
#469=AXIS2_PLACEMENT_3D('',#706,#569,#570);
#470=AXIS2_PLACEMENT_3D('',#709,#573,#574);
#471=AXIS2_PLACEMENT_3D('',#712,#577,#578);
#472=AXIS2_PLACEMENT_3D('',#714,#580,#581);
#473=AXIS2_PLACEMENT_3D('',#716,#583,#584);
#474=AXIS2_PLACEMENT_3D('',#718,#586,#587);
#475=AXIS2_PLACEMENT_3D('',#720,#589,#590);
#476=AXIS2_PLACEMENT_3D('',#721,#591,#592);
#477=AXIS2_PLACEMENT_3D('',#722,#593,#594);
#478=AXIS2_PLACEMENT_3D('',#723,#595,#596);
#479=AXIS2_PLACEMENT_3D('',#724,#597,#598);
#480=AXIS2_PLACEMENT_3D('',#725,#599,#600);
#481=AXIS2_PLACEMENT_3D('',#726,#601,#602);
#482=AXIS2_PLACEMENT_3D('',#727,#603,#604);
#483=DIRECTION('',(0.,0.,1.));
#484=DIRECTION('',(1.,0.,0.));
#485=DIRECTION('',(1.,0.,0.));
#486=DIRECTION('',(0.,0.,-1.));
#487=DIRECTION('',(0.,-1.,0.));
#488=DIRECTION('',(0.,0.,1.));
#489=DIRECTION('',(0.,-1.,0.));
#490=DIRECTION('',(0.,0.,1.));
#491=DIRECTION('',(1.,0.,0.));
#492=DIRECTION('',(0.,0.,-1.));
#493=DIRECTION('',(0.,-1.,0.));
#494=DIRECTION('',(0.,0.,1.));
#495=DIRECTION('',(0.,-1.,0.));
#496=DIRECTION('',(0.,0.,1.));
#497=DIRECTION('',(-1.,0.,0.));
#498=DIRECTION('',(0.,0.,1.));
#499=DIRECTION('',(0.,-1.,0.));
#500=DIRECTION('',(0.,0.,1.));
#501=DIRECTION('',(0.,-1.,0.));
#502=DIRECTION('',(0.,0.,-1.));
#503=DIRECTION('',(-1.,0.,0.));
#504=DIRECTION('',(0.,0.,1.));
#505=DIRECTION('',(0.,0.,1.));
#506=DIRECTION('',(0.,-1.,0.));
#507=DIRECTION('',(0.,0.,1.));
#508=DIRECTION('',(0.,-1.,0.));
#509=DIRECTION('',(-1.,0.,0.));
#510=DIRECTION('',(0.,0.,1.));
#511=DIRECTION('',(0.,0.,1.));
#512=DIRECTION('',(0.,-1.,0.));
#513=DIRECTION('',(0.,0.,1.));
#514=DIRECTION('',(0.,-1.,0.));
#515=DIRECTION('',(0.,0.,-1.));
#516=DIRECTION('',(-1.,0.,0.));
#517=DIRECTION('',(0.,1.,0.));
#518=DIRECTION('',(0.,0.,-1.));
#519=DIRECTION('',(-1.,0.,0.));
#520=DIRECTION('',(-1.,0.,0.));
#521=DIRECTION('',(0.,0.,-1.));
#522=DIRECTION('',(-1.,0.,0.));
#523=DIRECTION('',(0.,1.,0.));
#524=DIRECTION('',(-1.,0.,0.));
#525=DIRECTION('',(0.,0.,-1.));
#526=DIRECTION('',(-1.,0.,0.));
#527=DIRECTION('',(0.,0.,1.));
#528=DIRECTION('',(-1.,0.,0.));
#529=DIRECTION('',(0.,0.,1.));
#530=DIRECTION('',(-1.,0.,0.));
#531=DIRECTION('',(-1.,0.,0.));
#532=DIRECTION('',(0.,-1.,0.));
#533=DIRECTION('',(0.,0.,-1.));
#534=DIRECTION('',(1.,0.,0.));
#535=DIRECTION('',(0.,0.,-1.));
#536=DIRECTION('',(1.,0.,0.));
#537=DIRECTION('',(0.,0.,1.));
#538=DIRECTION('',(1.,0.,0.));
#539=DIRECTION('',(-1.,0.,0.));
#540=DIRECTION('',(-1.,0.,0.));
#541=DIRECTION('',(0.,0.,1.));
#542=DIRECTION('',(0.,0.,1.));
#543=DIRECTION('',(0.,1.,0.));
#544=DIRECTION('',(0.,0.,1.));
#545=DIRECTION('',(0.,0.,1.));
#546=DIRECTION('',(1.,0.,0.));
#547=DIRECTION('',(1.,0.,0.));
#548=DIRECTION('',(0.,0.,1.));
#549=DIRECTION('',(1.,0.,0.));
#550=DIRECTION('',(0.,1.,0.));
#551=DIRECTION('',(1.,0.,0.));
#552=DIRECTION('',(0.,0.,1.));
#553=DIRECTION('',(1.,0.,0.));
#554=DIRECTION('',(0.,0.,-1.));
#555=DIRECTION('',(1.,0.,0.));
#556=DIRECTION('',(0.,0.,-1.));
#557=DIRECTION('',(1.,0.,0.));
#558=DIRECTION('',(0.,-1.,0.));
#559=DIRECTION('',(1.,0.,0.));
#560=DIRECTION('',(0.,0.,1.));
#561=DIRECTION('',(-1.,0.,0.));
#562=DIRECTION('',(0.,0.,1.));
#563=DIRECTION('',(-1.,0.,0.));
#564=DIRECTION('',(0.,0.,-1.));
#565=DIRECTION('',(-1.,0.,0.));
#566=DIRECTION('',(1.,0.,0.));
#567=DIRECTION('',(0.,0.,1.));
#568=DIRECTION('',(1.,0.,0.));
#569=DIRECTION('',(1.,0.,0.));
#570=DIRECTION('',(0.,0.,-1.));
#571=DIRECTION('',(0.,0.,-1.));
#572=DIRECTION('',(0.,0.,-1.));
#573=DIRECTION('',(0.,1.,0.));
#574=DIRECTION('',(0.,0.,1.));
#575=DIRECTION('',(0.,0.,-1.));
#576=DIRECTION('',(0.,0.,1.));
#577=DIRECTION('',(0.,1.,0.));
#578=DIRECTION('',(0.,0.,1.));
#579=DIRECTION('',(0.,0.,1.));
#580=DIRECTION('',(0.,1.,0.));
#581=DIRECTION('',(0.,0.,1.));
#582=DIRECTION('',(0.,0.,1.));
#583=DIRECTION('',(1.,0.,0.));
#584=DIRECTION('',(0.,0.,-1.));
#585=DIRECTION('',(0.,0.,1.));
#586=DIRECTION('',(0.,1.,0.));
#587=DIRECTION('',(0.,0.,1.));
#588=DIRECTION('',(0.,0.,-1.));
#589=DIRECTION('',(0.,0.,1.));
#590=DIRECTION('',(1.,0.,0.));
#591=DIRECTION('',(0.,0.,1.));
#592=DIRECTION('',(1.,0.,0.));
#593=DIRECTION('',(0.,0.,1.));
#594=DIRECTION('',(1.,0.,0.));
#595=DIRECTION('',(0.,0.,1.));
#596=DIRECTION('',(-1.,0.,0.));
#597=DIRECTION('',(0.,0.,1.));
#598=DIRECTION('',(-1.,0.,0.));
#599=DIRECTION('',(0.,0.,1.));
#600=DIRECTION('',(-1.,0.,0.));
#601=DIRECTION('',(0.,0.,-1.));
#602=DIRECTION('',(-1.,0.,0.));
#603=DIRECTION('',(0.,0.,1.));
#604=DIRECTION('',(1.,0.,0.));
#605=CARTESIAN_POINT('',(0.,0.,0.));
#606=CARTESIAN_POINT('',(27.,3.,-2.5));
#607=CARTESIAN_POINT('',(27.,3.,-2.5));
#608=CARTESIAN_POINT('',(27.,2.675,-2.5));
#609=CARTESIAN_POINT('',(27.,1.825,-2.5));
#610=CARTESIAN_POINT('',(27.,1.825,1.47837288412378));
#611=CARTESIAN_POINT('',(27.,1.825,2.5));
#612=CARTESIAN_POINT('',(27.,3.,2.5));
#613=CARTESIAN_POINT('',(27.,2.675,2.5));
#614=CARTESIAN_POINT('',(27.,2.675,1.47837288412378));
#615=CARTESIAN_POINT('',(27.,3.,-2.5));
#616=CARTESIAN_POINT('',(27.,3.,2.5));
#617=CARTESIAN_POINT('',(27.,1.525,2.5));
#618=CARTESIAN_POINT('',(27.,0.675,2.5));
#619=CARTESIAN_POINT('',(27.,1.525,1.47837288412378));
#620=CARTESIAN_POINT('',(27.,1.525,-2.5));
#621=CARTESIAN_POINT('',(27.,3.,-2.5));
#622=CARTESIAN_POINT('',(27.,0.675,-2.5));
#623=CARTESIAN_POINT('',(27.,0.675,-1.40434404801921));
#624=CARTESIAN_POINT('',(-27.,3.,2.5));
#625=CARTESIAN_POINT('',(-27.,3.,-2.5));
#626=CARTESIAN_POINT('',(-27.,0.375000000000001,-2.5));
#627=CARTESIAN_POINT('',(-27.,0.,-2.5));
#628=CARTESIAN_POINT('',(-27.,0.375,-1.40434404801921));
#629=CARTESIAN_POINT('',(-27.,0.375,2.5));
#630=CARTESIAN_POINT('',(-27.,3.,2.5));
#631=CARTESIAN_POINT('',(-27.,0.,2.5));
#632=CARTESIAN_POINT('',(-27.,0.,2.5));
#633=CARTESIAN_POINT('',(-27.,3.,2.5));
#634=CARTESIAN_POINT('',(-27.,1.825,1.47837288412378));
#635=CARTESIAN_POINT('',(-27.,1.825,-2.5));
#636=CARTESIAN_POINT('',(-27.,1.825,2.5));
#637=CARTESIAN_POINT('',(-27.,3.,-2.5));
#638=CARTESIAN_POINT('',(-27.,2.675,-2.5));
#639=CARTESIAN_POINT('',(-27.,2.675,1.47837288412378));
#640=CARTESIAN_POINT('',(-27.,2.675,2.5));
#641=CARTESIAN_POINT('',(-27.,3.,2.5));
#642=CARTESIAN_POINT('',(-27.,3.,2.5));
#643=CARTESIAN_POINT('',(-27.,0.675,-1.40434404801921));
#644=CARTESIAN_POINT('',(-27.,0.675,-2.5));
#645=CARTESIAN_POINT('',(-27.,0.675,2.5));
#646=CARTESIAN_POINT('',(-27.,3.,-2.5));
#647=CARTESIAN_POINT('',(-27.,1.525,-2.5));
#648=CARTESIAN_POINT('',(-27.,1.525,1.47837288412378));
#649=CARTESIAN_POINT('',(-27.,1.525,2.5));
#650=CARTESIAN_POINT('',(-27.,3.,2.5));
#651=CARTESIAN_POINT('',(27.75,-1.,-2.5));
#652=CARTESIAN_POINT('',(27.75,-1.,-2.5));
#653=CARTESIAN_POINT('',(27.75,0.,-2.5));
#654=CARTESIAN_POINT('',(27.75,2.975,-2.5));
#655=CARTESIAN_POINT('',(26.75,0.,-2.5));
#656=CARTESIAN_POINT('',(26.75,-1.,-2.5));
#657=CARTESIAN_POINT('',(27.75,-1.,-2.5));
#658=CARTESIAN_POINT('',(-26.75,-1.,-2.5));
#659=CARTESIAN_POINT('',(-26.75,0.,-2.5));
#660=CARTESIAN_POINT('',(-27.75,0.,-2.5));
#661=CARTESIAN_POINT('',(-27.75,-1.,-2.5));
#662=CARTESIAN_POINT('',(-27.75,2.975,-2.5));
#663=CARTESIAN_POINT('',(-27.,2.975,-2.5));
#664=CARTESIAN_POINT('',(-27.,2.975,-2.5));
#665=CARTESIAN_POINT('',(-27.,2.825,-2.5));
#666=CARTESIAN_POINT('',(-27.,1.675,-2.5));
#667=CARTESIAN_POINT('',(-27.,0.525,-2.5));
#668=CARTESIAN_POINT('',(27.75,0.,-2.5));
#669=CARTESIAN_POINT('',(27.,0.,-2.5));
#670=CARTESIAN_POINT('',(27.,3.,-2.5));
#671=CARTESIAN_POINT('',(27.,0.375,-2.5));
#672=CARTESIAN_POINT('',(27.,0.525,-2.5));
#673=CARTESIAN_POINT('',(27.,1.675,-2.5));
#674=CARTESIAN_POINT('',(27.,2.825,-2.5));
#675=CARTESIAN_POINT('',(27.,2.975,-2.5));
#676=CARTESIAN_POINT('',(27.75,2.975,-2.5));
#677=CARTESIAN_POINT('',(-27.75,-1.,-2.5));
#678=CARTESIAN_POINT('',(-27.75,0.,2.5));
#679=CARTESIAN_POINT('',(-27.75,0.,2.5));
#680=CARTESIAN_POINT('',(-27.75,-1.,2.5));
#681=CARTESIAN_POINT('',(-27.75,2.975,2.5));
#682=CARTESIAN_POINT('',(-27.75,2.975,-2.5));
#683=CARTESIAN_POINT('',(-27.75,-1.,2.5));
#684=CARTESIAN_POINT('',(-27.75,-1.,2.5));
#685=CARTESIAN_POINT('',(-26.75,-1.,2.5));
#686=CARTESIAN_POINT('',(26.75,-1.,2.5));
#687=CARTESIAN_POINT('',(26.75,0.,2.5));
#688=CARTESIAN_POINT('',(27.75,0.,2.5));
#689=CARTESIAN_POINT('',(27.75,-1.,2.5));
#690=CARTESIAN_POINT('',(27.75,2.975,2.5));
#691=CARTESIAN_POINT('',(27.,2.975,2.5));
#692=CARTESIAN_POINT('',(27.,2.975,2.5));
#693=CARTESIAN_POINT('',(27.,2.825,2.5));
#694=CARTESIAN_POINT('',(27.,1.675,2.5));
#695=CARTESIAN_POINT('',(27.,0.525,2.5));
#696=CARTESIAN_POINT('',(27.,0.375,2.5));
#697=CARTESIAN_POINT('',(27.,3.,2.5));
#698=CARTESIAN_POINT('',(27.,0.,2.5));
#699=CARTESIAN_POINT('',(-27.75,0.,2.5));
#700=CARTESIAN_POINT('',(-27.,0.525,2.5));
#701=CARTESIAN_POINT('',(-27.,1.675,2.5));
#702=CARTESIAN_POINT('',(-27.,2.825,2.5));
#703=CARTESIAN_POINT('',(-27.,2.975,2.5));
#704=CARTESIAN_POINT('',(-27.75,2.975,2.5));
#705=CARTESIAN_POINT('',(-26.75,0.,2.5));
#706=CARTESIAN_POINT('',(27.75,-1.,2.5));
#707=CARTESIAN_POINT('',(27.75,0.,-2.5));
#708=CARTESIAN_POINT('',(27.75,2.975,2.5));
#709=CARTESIAN_POINT('',(0.,-1.,0.));
#710=CARTESIAN_POINT('',(26.75,-1.,2.5));
#711=CARTESIAN_POINT('',(-26.75,-1.,-2.5));
#712=CARTESIAN_POINT('',(0.,0.,0.));
#713=CARTESIAN_POINT('',(27.,0.,-2.5));
#714=CARTESIAN_POINT('',(0.,2.975,0.));
#715=CARTESIAN_POINT('',(27.,2.975,-2.5));
#716=CARTESIAN_POINT('',(27.,3.,-2.5));
#717=CARTESIAN_POINT('',(27.,0.375,-1.40434404801921));
#718=CARTESIAN_POINT('',(0.,2.975,0.));
#719=CARTESIAN_POINT('',(-27.,2.975,2.5));
#720=CARTESIAN_POINT('',(-27.,2.825,1.47837288412378));
#721=CARTESIAN_POINT('',(-27.,1.675,1.47837288412378));
#722=CARTESIAN_POINT('',(-27.,0.525,-1.40434404801921));
#723=CARTESIAN_POINT('',(27.,0.525,-1.40434404801921));
#724=CARTESIAN_POINT('',(27.,2.825,1.47837288412378));
#725=CARTESIAN_POINT('',(27.,1.675,1.47837288412378));
#726=CARTESIAN_POINT('',(-26.75,0.,-2.5));
#727=CARTESIAN_POINT('',(26.75,0.,2.5));
#728=MECHANICAL_DESIGN_GEOMETRIC_PRESENTATION_REPRESENTATION('',(#433),
#729);
#729=(
GEOMETRIC_REPRESENTATION_CONTEXT(3)
GLOBAL_UNCERTAINTY_ASSIGNED_CONTEXT((#730))
GLOBAL_UNIT_ASSIGNED_CONTEXT((#733,#732,#731))
REPRESENTATION_CONTEXT('Card_TestClip_01','TOP_LEVEL_ASSEMBLY_PART')
);
#730=UNCERTAINTY_MEASURE_WITH_UNIT(LENGTH_MEASURE(0.005),#733,
'DISTANCE_ACCURACY_VALUE','Maximum Tolerance applied to model');
#731=(
NAMED_UNIT(*)
SI_UNIT($,.STERADIAN.)
SOLID_ANGLE_UNIT()
);
#732=(
NAMED_UNIT(*)
PLANE_ANGLE_UNIT()
SI_UNIT($,.RADIAN.)
);
#733=(
LENGTH_UNIT()
NAMED_UNIT(*)
SI_UNIT(.MILLI.,.METRE.)
);
#734=PRODUCT_DEFINITION_SHAPE('','',#735);
#735=PRODUCT_DEFINITION('','',#737,#736);
#736=PRODUCT_DEFINITION_CONTEXT('',#743,'design');
#737=PRODUCT_DEFINITION_FORMATION_WITH_SPECIFIED_SOURCE('','',#739,
 .NOT_KNOWN.);
#738=PRODUCT_RELATED_PRODUCT_CATEGORY('','',(#739));
#739=PRODUCT('Card_TestClip_01','Card_TestClip_01','Card_TestClip_01',(#741));
#740=PRODUCT_CATEGORY('','');
#741=PRODUCT_CONTEXT('',#743,'mechanical');
#742=APPLICATION_PROTOCOL_DEFINITION('international standard',
'automotive_design',2010,#743);
#743=APPLICATION_CONTEXT(
'core data for automotive mechanical design processes');
ENDSEC;
END-ISO-10303-21;
