ISO-10303-21;
HEADER;
/* Generated by software containing ST-Developer
 * from STEP Tools, Inc. (www.steptools.com) 
 */
/* OPTION: strings as raw bytes, not using required /X/ escapes */

FILE_DESCRIPTION(
/* description */ ('Unknown'),
/* implementation_level */ '2;1');

FILE_NAME(
/* name */ 'Card_TestClip_06',
/* time_stamp */ '2023-05-22T14:11:09+01:00',
/* author */ ('Unknown'),
/* organization */ ('Unknown'),
/* preprocessor_version */ 'ST-DEVELOPER v18.102',
/* originating_system */ 'Solid Edge',
/* authorisation */ 'Unknown');

FILE_SCHEMA (('AUTOMOTIVE_DESIGN {1 0 10303 214 3 1 1}'));
ENDSEC;

DATA;
#10=PROPERTY_DEFINITION_REPRESENTATION(#14,#12);
#11=PROPERTY_DEFINITION_REPRESENTATION(#15,#13);
#12=REPRESENTATION('',(#16),#729);
#13=REPRESENTATION('',(#17),#729);
#14=PROPERTY_DEFINITION('pmi validation property','',#734);
#15=PROPERTY_DEFINITION('pmi validation property','',#734);
#16=VALUE_REPRESENTATION_ITEM('number of annotations',COUNT_MEASURE(0.));
#17=VALUE_REPRESENTATION_ITEM('number of views',COUNT_MEASURE(0.));
#18=SHAPE_REPRESENTATION_RELATIONSHIP('','',#443,#19);
#19=ADVANCED_BREP_SHAPE_REPRESENTATION('',(#441),#729);
#20=CIRCLE('',#447,0.5);
#21=CIRCLE('',#448,0.5);
#22=CIRCLE('',#451,0.5);
#23=CIRCLE('',#452,0.5);
#24=CIRCLE('',#455,0.5);
#25=CIRCLE('',#456,0.5);
#26=CIRCLE('',#461,1.);
#27=CIRCLE('',#462,1.);
#28=CIRCLE('',#465,1.);
#29=CIRCLE('',#466,0.5);
#30=CIRCLE('',#467,0.5);
#31=CIRCLE('',#468,0.5);
#32=CIRCLE('',#470,0.5);
#33=CIRCLE('',#471,0.5);
#34=CIRCLE('',#472,0.5);
#35=CIRCLE('',#473,1.);
#36=CYLINDRICAL_SURFACE('',#446,0.5);
#37=CYLINDRICAL_SURFACE('',#450,0.5);
#38=CYLINDRICAL_SURFACE('',#454,0.5);
#39=CYLINDRICAL_SURFACE('',#460,1.);
#40=CYLINDRICAL_SURFACE('',#475,1.);
#41=CYLINDRICAL_SURFACE('',#477,0.5);
#42=CYLINDRICAL_SURFACE('',#479,0.5);
#43=CYLINDRICAL_SURFACE('',#481,0.5);
#44=ORIENTED_EDGE('',*,*,#164,.F.);
#45=ORIENTED_EDGE('',*,*,#165,.F.);
#46=ORIENTED_EDGE('',*,*,#166,.T.);
#47=ORIENTED_EDGE('',*,*,#167,.T.);
#48=ORIENTED_EDGE('',*,*,#168,.F.);
#49=ORIENTED_EDGE('',*,*,#167,.F.);
#50=ORIENTED_EDGE('',*,*,#169,.T.);
#51=ORIENTED_EDGE('',*,*,#170,.T.);
#52=ORIENTED_EDGE('',*,*,#171,.F.);
#53=ORIENTED_EDGE('',*,*,#170,.F.);
#54=ORIENTED_EDGE('',*,*,#172,.T.);
#55=ORIENTED_EDGE('',*,*,#173,.T.);
#56=ORIENTED_EDGE('',*,*,#174,.F.);
#57=ORIENTED_EDGE('',*,*,#173,.F.);
#58=ORIENTED_EDGE('',*,*,#175,.T.);
#59=ORIENTED_EDGE('',*,*,#176,.T.);
#60=ORIENTED_EDGE('',*,*,#177,.F.);
#61=ORIENTED_EDGE('',*,*,#176,.F.);
#62=ORIENTED_EDGE('',*,*,#178,.T.);
#63=ORIENTED_EDGE('',*,*,#179,.T.);
#64=ORIENTED_EDGE('',*,*,#180,.F.);
#65=ORIENTED_EDGE('',*,*,#179,.F.);
#66=ORIENTED_EDGE('',*,*,#181,.T.);
#67=ORIENTED_EDGE('',*,*,#182,.T.);
#68=ORIENTED_EDGE('',*,*,#183,.F.);
#69=ORIENTED_EDGE('',*,*,#182,.F.);
#70=ORIENTED_EDGE('',*,*,#184,.T.);
#71=ORIENTED_EDGE('',*,*,#185,.T.);
#72=ORIENTED_EDGE('',*,*,#186,.F.);
#73=ORIENTED_EDGE('',*,*,#185,.F.);
#74=ORIENTED_EDGE('',*,*,#187,.T.);
#75=ORIENTED_EDGE('',*,*,#188,.T.);
#76=ORIENTED_EDGE('',*,*,#189,.F.);
#77=ORIENTED_EDGE('',*,*,#190,.F.);
#78=ORIENTED_EDGE('',*,*,#191,.T.);
#79=ORIENTED_EDGE('',*,*,#192,.T.);
#80=ORIENTED_EDGE('',*,*,#193,.F.);
#81=ORIENTED_EDGE('',*,*,#192,.F.);
#82=ORIENTED_EDGE('',*,*,#194,.T.);
#83=ORIENTED_EDGE('',*,*,#195,.T.);
#84=ORIENTED_EDGE('',*,*,#196,.F.);
#85=ORIENTED_EDGE('',*,*,#195,.F.);
#86=ORIENTED_EDGE('',*,*,#197,.T.);
#87=ORIENTED_EDGE('',*,*,#165,.T.);
#88=ORIENTED_EDGE('',*,*,#166,.F.);
#89=ORIENTED_EDGE('',*,*,#197,.F.);
#90=ORIENTED_EDGE('',*,*,#194,.F.);
#91=ORIENTED_EDGE('',*,*,#191,.F.);
#92=ORIENTED_EDGE('',*,*,#198,.T.);
#93=ORIENTED_EDGE('',*,*,#199,.T.);
#94=ORIENTED_EDGE('',*,*,#200,.T.);
#95=ORIENTED_EDGE('',*,*,#201,.T.);
#96=ORIENTED_EDGE('',*,*,#202,.T.);
#97=ORIENTED_EDGE('',*,*,#203,.T.);
#98=ORIENTED_EDGE('',*,*,#204,.T.);
#99=ORIENTED_EDGE('',*,*,#205,.T.);
#100=ORIENTED_EDGE('',*,*,#206,.T.);
#101=ORIENTED_EDGE('',*,*,#187,.F.);
#102=ORIENTED_EDGE('',*,*,#184,.F.);
#103=ORIENTED_EDGE('',*,*,#181,.F.);
#104=ORIENTED_EDGE('',*,*,#178,.F.);
#105=ORIENTED_EDGE('',*,*,#175,.F.);
#106=ORIENTED_EDGE('',*,*,#172,.F.);
#107=ORIENTED_EDGE('',*,*,#169,.F.);
#108=ORIENTED_EDGE('',*,*,#164,.T.);
#109=ORIENTED_EDGE('',*,*,#168,.T.);
#110=ORIENTED_EDGE('',*,*,#171,.T.);
#111=ORIENTED_EDGE('',*,*,#174,.T.);
#112=ORIENTED_EDGE('',*,*,#177,.T.);
#113=ORIENTED_EDGE('',*,*,#180,.T.);
#114=ORIENTED_EDGE('',*,*,#183,.T.);
#115=ORIENTED_EDGE('',*,*,#186,.T.);
#116=ORIENTED_EDGE('',*,*,#207,.F.);
#117=ORIENTED_EDGE('',*,*,#208,.F.);
#118=ORIENTED_EDGE('',*,*,#209,.F.);
#119=ORIENTED_EDGE('',*,*,#210,.F.);
#120=ORIENTED_EDGE('',*,*,#211,.F.);
#121=ORIENTED_EDGE('',*,*,#212,.F.);
#122=ORIENTED_EDGE('',*,*,#213,.F.);
#123=ORIENTED_EDGE('',*,*,#214,.F.);
#124=ORIENTED_EDGE('',*,*,#215,.F.);
#125=ORIENTED_EDGE('',*,*,#189,.T.);
#126=ORIENTED_EDGE('',*,*,#193,.T.);
#127=ORIENTED_EDGE('',*,*,#196,.T.);
#128=ORIENTED_EDGE('',*,*,#214,.T.);
#129=ORIENTED_EDGE('',*,*,#216,.F.);
#130=ORIENTED_EDGE('',*,*,#199,.F.);
#131=ORIENTED_EDGE('',*,*,#217,.T.);
#132=ORIENTED_EDGE('',*,*,#215,.T.);
#133=ORIENTED_EDGE('',*,*,#217,.F.);
#134=ORIENTED_EDGE('',*,*,#198,.F.);
#135=ORIENTED_EDGE('',*,*,#190,.T.);
#136=ORIENTED_EDGE('',*,*,#207,.T.);
#137=ORIENTED_EDGE('',*,*,#188,.F.);
#138=ORIENTED_EDGE('',*,*,#206,.F.);
#139=ORIENTED_EDGE('',*,*,#218,.T.);
#140=ORIENTED_EDGE('',*,*,#208,.T.);
#141=ORIENTED_EDGE('',*,*,#218,.F.);
#142=ORIENTED_EDGE('',*,*,#205,.F.);
#143=ORIENTED_EDGE('',*,*,#219,.T.);
#144=ORIENTED_EDGE('',*,*,#209,.T.);
#145=ORIENTED_EDGE('',*,*,#219,.F.);
#146=ORIENTED_EDGE('',*,*,#204,.F.);
#147=ORIENTED_EDGE('',*,*,#220,.T.);
#148=ORIENTED_EDGE('',*,*,#210,.T.);
#149=ORIENTED_EDGE('',*,*,#220,.F.);
#150=ORIENTED_EDGE('',*,*,#203,.F.);
#151=ORIENTED_EDGE('',*,*,#221,.T.);
#152=ORIENTED_EDGE('',*,*,#211,.T.);
#153=ORIENTED_EDGE('',*,*,#221,.F.);
#154=ORIENTED_EDGE('',*,*,#202,.F.);
#155=ORIENTED_EDGE('',*,*,#222,.T.);
#156=ORIENTED_EDGE('',*,*,#212,.T.);
#157=ORIENTED_EDGE('',*,*,#222,.F.);
#158=ORIENTED_EDGE('',*,*,#201,.F.);
#159=ORIENTED_EDGE('',*,*,#223,.T.);
#160=ORIENTED_EDGE('',*,*,#213,.T.);
#161=ORIENTED_EDGE('',*,*,#223,.F.);
#162=ORIENTED_EDGE('',*,*,#200,.F.);
#163=ORIENTED_EDGE('',*,*,#216,.T.);
#164=EDGE_CURVE('',#224,#225,#264,.T.);
#165=EDGE_CURVE('',#226,#224,#265,.T.);
#166=EDGE_CURVE('',#226,#227,#266,.T.);
#167=EDGE_CURVE('',#227,#225,#267,.T.);
#168=EDGE_CURVE('',#225,#228,#20,.T.);
#169=EDGE_CURVE('',#227,#229,#21,.T.);
#170=EDGE_CURVE('',#229,#228,#268,.T.);
#171=EDGE_CURVE('',#228,#230,#269,.T.);
#172=EDGE_CURVE('',#229,#231,#270,.T.);
#173=EDGE_CURVE('',#231,#230,#271,.T.);
#174=EDGE_CURVE('',#230,#232,#22,.T.);
#175=EDGE_CURVE('',#231,#233,#23,.T.);
#176=EDGE_CURVE('',#233,#232,#272,.T.);
#177=EDGE_CURVE('',#232,#234,#273,.T.);
#178=EDGE_CURVE('',#233,#235,#274,.T.);
#179=EDGE_CURVE('',#235,#234,#275,.T.);
#180=EDGE_CURVE('',#234,#236,#24,.T.);
#181=EDGE_CURVE('',#235,#237,#25,.T.);
#182=EDGE_CURVE('',#237,#236,#276,.T.);
#183=EDGE_CURVE('',#236,#238,#277,.T.);
#184=EDGE_CURVE('',#237,#239,#278,.T.);
#185=EDGE_CURVE('',#239,#238,#279,.T.);
#186=EDGE_CURVE('',#238,#240,#280,.T.);
#187=EDGE_CURVE('',#239,#241,#281,.T.);
#188=EDGE_CURVE('',#241,#240,#282,.T.);
#189=EDGE_CURVE('',#242,#243,#283,.T.);
#190=EDGE_CURVE('',#244,#242,#284,.T.);
#191=EDGE_CURVE('',#244,#245,#285,.T.);
#192=EDGE_CURVE('',#245,#243,#286,.T.);
#193=EDGE_CURVE('',#243,#246,#26,.T.);
#194=EDGE_CURVE('',#245,#247,#27,.T.);
#195=EDGE_CURVE('',#247,#246,#287,.T.);
#196=EDGE_CURVE('',#246,#224,#288,.T.);
#197=EDGE_CURVE('',#247,#226,#289,.T.);
#198=EDGE_CURVE('',#244,#248,#28,.T.);
#199=EDGE_CURVE('',#248,#249,#290,.T.);
#200=EDGE_CURVE('',#249,#250,#291,.T.);
#201=EDGE_CURVE('',#250,#251,#29,.T.);
#202=EDGE_CURVE('',#251,#252,#292,.T.);
#203=EDGE_CURVE('',#252,#253,#30,.T.);
#204=EDGE_CURVE('',#253,#254,#293,.T.);
#205=EDGE_CURVE('',#254,#255,#31,.T.);
#206=EDGE_CURVE('',#255,#241,#294,.T.);
#207=EDGE_CURVE('',#256,#240,#295,.T.);
#208=EDGE_CURVE('',#257,#256,#32,.T.);
#209=EDGE_CURVE('',#258,#257,#296,.T.);
#210=EDGE_CURVE('',#259,#258,#33,.T.);
#211=EDGE_CURVE('',#260,#259,#297,.T.);
#212=EDGE_CURVE('',#261,#260,#34,.T.);
#213=EDGE_CURVE('',#262,#261,#298,.T.);
#214=EDGE_CURVE('',#263,#262,#299,.T.);
#215=EDGE_CURVE('',#242,#263,#35,.T.);
#216=EDGE_CURVE('',#249,#262,#300,.T.);
#217=EDGE_CURVE('',#248,#263,#301,.T.);
#218=EDGE_CURVE('',#255,#256,#302,.T.);
#219=EDGE_CURVE('',#254,#257,#303,.T.);
#220=EDGE_CURVE('',#253,#258,#304,.T.);
#221=EDGE_CURVE('',#252,#259,#305,.T.);
#222=EDGE_CURVE('',#251,#260,#306,.T.);
#223=EDGE_CURVE('',#250,#261,#307,.T.);
#224=VERTEX_POINT('',#608);
#225=VERTEX_POINT('',#609);
#226=VERTEX_POINT('',#611);
#227=VERTEX_POINT('',#613);
#228=VERTEX_POINT('',#617);
#229=VERTEX_POINT('',#619);
#230=VERTEX_POINT('',#623);
#231=VERTEX_POINT('',#625);
#232=VERTEX_POINT('',#629);
#233=VERTEX_POINT('',#631);
#234=VERTEX_POINT('',#635);
#235=VERTEX_POINT('',#637);
#236=VERTEX_POINT('',#641);
#237=VERTEX_POINT('',#643);
#238=VERTEX_POINT('',#647);
#239=VERTEX_POINT('',#649);
#240=VERTEX_POINT('',#653);
#241=VERTEX_POINT('',#655);
#242=VERTEX_POINT('',#659);
#243=VERTEX_POINT('',#660);
#244=VERTEX_POINT('',#662);
#245=VERTEX_POINT('',#664);
#246=VERTEX_POINT('',#668);
#247=VERTEX_POINT('',#670);
#248=VERTEX_POINT('',#677);
#249=VERTEX_POINT('',#679);
#250=VERTEX_POINT('',#681);
#251=VERTEX_POINT('',#683);
#252=VERTEX_POINT('',#685);
#253=VERTEX_POINT('',#687);
#254=VERTEX_POINT('',#689);
#255=VERTEX_POINT('',#691);
#256=VERTEX_POINT('',#695);
#257=VERTEX_POINT('',#697);
#258=VERTEX_POINT('',#699);
#259=VERTEX_POINT('',#701);
#260=VERTEX_POINT('',#703);
#261=VERTEX_POINT('',#705);
#262=VERTEX_POINT('',#707);
#263=VERTEX_POINT('',#709);
#264=LINE('',#607,#308);
#265=LINE('',#610,#309);
#266=LINE('',#612,#310);
#267=LINE('',#614,#311);
#268=LINE('',#620,#312);
#269=LINE('',#622,#313);
#270=LINE('',#624,#314);
#271=LINE('',#626,#315);
#272=LINE('',#632,#316);
#273=LINE('',#634,#317);
#274=LINE('',#636,#318);
#275=LINE('',#638,#319);
#276=LINE('',#644,#320);
#277=LINE('',#646,#321);
#278=LINE('',#648,#322);
#279=LINE('',#650,#323);
#280=LINE('',#652,#324);
#281=LINE('',#654,#325);
#282=LINE('',#656,#326);
#283=LINE('',#658,#327);
#284=LINE('',#661,#328);
#285=LINE('',#663,#329);
#286=LINE('',#665,#330);
#287=LINE('',#671,#331);
#288=LINE('',#673,#332);
#289=LINE('',#674,#333);
#290=LINE('',#678,#334);
#291=LINE('',#680,#335);
#292=LINE('',#684,#336);
#293=LINE('',#688,#337);
#294=LINE('',#692,#338);
#295=LINE('',#694,#339);
#296=LINE('',#698,#340);
#297=LINE('',#702,#341);
#298=LINE('',#706,#342);
#299=LINE('',#708,#343);
#300=LINE('',#712,#344);
#301=LINE('',#713,#345);
#302=LINE('',#716,#346);
#303=LINE('',#718,#347);
#304=LINE('',#720,#348);
#305=LINE('',#722,#349);
#306=LINE('',#724,#350);
#307=LINE('',#726,#351);
#308=VECTOR('',#487,1000.);
#309=VECTOR('',#488,1000.);
#310=VECTOR('',#489,1000.);
#311=VECTOR('',#490,1000.);
#312=VECTOR('',#497,1000.);
#313=VECTOR('',#500,1000.);
#314=VECTOR('',#501,1000.);
#315=VECTOR('',#502,1000.);
#316=VECTOR('',#509,1000.);
#317=VECTOR('',#512,1000.);
#318=VECTOR('',#513,1000.);
#319=VECTOR('',#514,1000.);
#320=VECTOR('',#521,1000.);
#321=VECTOR('',#524,1000.);
#322=VECTOR('',#525,1000.);
#323=VECTOR('',#526,1000.);
#324=VECTOR('',#529,1000.);
#325=VECTOR('',#530,1000.);
#326=VECTOR('',#531,1000.);
#327=VECTOR('',#534,1000.);
#328=VECTOR('',#535,1000.);
#329=VECTOR('',#536,1000.);
#330=VECTOR('',#537,1000.);
#331=VECTOR('',#544,1000.);
#332=VECTOR('',#547,1000.);
#333=VECTOR('',#548,1000.);
#334=VECTOR('',#553,1000.);
#335=VECTOR('',#554,1000.);
#336=VECTOR('',#557,1000.);
#337=VECTOR('',#560,1000.);
#338=VECTOR('',#563,1000.);
#339=VECTOR('',#566,1000.);
#340=VECTOR('',#569,1000.);
#341=VECTOR('',#572,1000.);
#342=VECTOR('',#575,1000.);
#343=VECTOR('',#576,1000.);
#344=VECTOR('',#581,1000.);
#345=VECTOR('',#582,1000.);
#346=VECTOR('',#587,1000.);
#347=VECTOR('',#590,1000.);
#348=VECTOR('',#593,1000.);
#349=VECTOR('',#596,1000.);
#350=VECTOR('',#599,1000.);
#351=VECTOR('',#602,1000.);
#352=EDGE_LOOP('',(#44,#45,#46,#47));
#353=EDGE_LOOP('',(#48,#49,#50,#51));
#354=EDGE_LOOP('',(#52,#53,#54,#55));
#355=EDGE_LOOP('',(#56,#57,#58,#59));
#356=EDGE_LOOP('',(#60,#61,#62,#63));
#357=EDGE_LOOP('',(#64,#65,#66,#67));
#358=EDGE_LOOP('',(#68,#69,#70,#71));
#359=EDGE_LOOP('',(#72,#73,#74,#75));
#360=EDGE_LOOP('',(#76,#77,#78,#79));
#361=EDGE_LOOP('',(#80,#81,#82,#83));
#362=EDGE_LOOP('',(#84,#85,#86,#87));
#363=EDGE_LOOP('',(#88,#89,#90,#91,#92,#93,#94,#95,#96,#97,#98,#99,#100,
#101,#102,#103,#104,#105,#106,#107));
#364=EDGE_LOOP('',(#108,#109,#110,#111,#112,#113,#114,#115,#116,#117,#118,
#119,#120,#121,#122,#123,#124,#125,#126,#127));
#365=EDGE_LOOP('',(#128,#129,#130,#131));
#366=EDGE_LOOP('',(#132,#133,#134,#135));
#367=EDGE_LOOP('',(#136,#137,#138,#139));
#368=EDGE_LOOP('',(#140,#141,#142,#143));
#369=EDGE_LOOP('',(#144,#145,#146,#147));
#370=EDGE_LOOP('',(#148,#149,#150,#151));
#371=EDGE_LOOP('',(#152,#153,#154,#155));
#372=EDGE_LOOP('',(#156,#157,#158,#159));
#373=EDGE_LOOP('',(#160,#161,#162,#163));
#374=FACE_BOUND('',#352,.T.);
#375=FACE_BOUND('',#353,.T.);
#376=FACE_BOUND('',#354,.T.);
#377=FACE_BOUND('',#355,.T.);
#378=FACE_BOUND('',#356,.T.);
#379=FACE_BOUND('',#357,.T.);
#380=FACE_BOUND('',#358,.T.);
#381=FACE_BOUND('',#359,.T.);
#382=FACE_BOUND('',#360,.T.);
#383=FACE_BOUND('',#361,.T.);
#384=FACE_BOUND('',#362,.T.);
#385=FACE_BOUND('',#363,.T.);
#386=FACE_BOUND('',#364,.T.);
#387=FACE_BOUND('',#365,.T.);
#388=FACE_BOUND('',#366,.T.);
#389=FACE_BOUND('',#367,.T.);
#390=FACE_BOUND('',#368,.T.);
#391=FACE_BOUND('',#369,.T.);
#392=FACE_BOUND('',#370,.T.);
#393=FACE_BOUND('',#371,.T.);
#394=FACE_BOUND('',#372,.T.);
#395=FACE_BOUND('',#373,.T.);
#396=PLANE('',#445);
#397=PLANE('',#449);
#398=PLANE('',#453);
#399=PLANE('',#457);
#400=PLANE('',#458);
#401=PLANE('',#459);
#402=PLANE('',#463);
#403=PLANE('',#464);
#404=PLANE('',#469);
#405=PLANE('',#474);
#406=PLANE('',#476);
#407=PLANE('',#478);
#408=PLANE('',#480);
#409=PLANE('',#482);
#410=ADVANCED_FACE('',(#374),#396,.T.);
#411=ADVANCED_FACE('',(#375),#36,.T.);
#412=ADVANCED_FACE('',(#376),#397,.T.);
#413=ADVANCED_FACE('',(#377),#37,.T.);
#414=ADVANCED_FACE('',(#378),#398,.T.);
#415=ADVANCED_FACE('',(#379),#38,.T.);
#416=ADVANCED_FACE('',(#380),#399,.T.);
#417=ADVANCED_FACE('',(#381),#400,.T.);
#418=ADVANCED_FACE('',(#382),#401,.T.);
#419=ADVANCED_FACE('',(#383),#39,.T.);
#420=ADVANCED_FACE('',(#384),#402,.T.);
#421=ADVANCED_FACE('',(#385),#403,.F.);
#422=ADVANCED_FACE('',(#386),#404,.T.);
#423=ADVANCED_FACE('',(#387),#405,.T.);
#424=ADVANCED_FACE('',(#388),#40,.T.);
#425=ADVANCED_FACE('',(#389),#406,.T.);
#426=ADVANCED_FACE('',(#390),#41,.T.);
#427=ADVANCED_FACE('',(#391),#407,.T.);
#428=ADVANCED_FACE('',(#392),#42,.T.);
#429=ADVANCED_FACE('',(#393),#408,.T.);
#430=ADVANCED_FACE('',(#394),#43,.T.);
#431=ADVANCED_FACE('',(#395),#409,.T.);
#432=CLOSED_SHELL('',(#410,#411,#412,#413,#414,#415,#416,#417,#418,#419,
#420,#421,#422,#423,#424,#425,#426,#427,#428,#429,#430,#431));
#433=STYLED_ITEM('',(#434),#441);
#434=PRESENTATION_STYLE_ASSIGNMENT((#435));
#435=SURFACE_STYLE_USAGE(.BOTH.,#436);
#436=SURFACE_SIDE_STYLE('',(#437));
#437=SURFACE_STYLE_FILL_AREA(#438);
#438=FILL_AREA_STYLE('',(#439));
#439=FILL_AREA_STYLE_COLOUR('',#440);
#440=COLOUR_RGB('',0.506983280181885,0.531564235687256,0.550000011920929);
#441=MANIFOLD_SOLID_BREP('',#432);
#442=SHAPE_DEFINITION_REPRESENTATION(#734,#443);
#443=SHAPE_REPRESENTATION('Card_TestClip_06',(#444),#729);
#444=AXIS2_PLACEMENT_3D('',#605,#483,#484);
#445=AXIS2_PLACEMENT_3D('',#606,#485,#486);
#446=AXIS2_PLACEMENT_3D('',#615,#491,#492);
#447=AXIS2_PLACEMENT_3D('',#616,#493,#494);
#448=AXIS2_PLACEMENT_3D('',#618,#495,#496);
#449=AXIS2_PLACEMENT_3D('',#621,#498,#499);
#450=AXIS2_PLACEMENT_3D('',#627,#503,#504);
#451=AXIS2_PLACEMENT_3D('',#628,#505,#506);
#452=AXIS2_PLACEMENT_3D('',#630,#507,#508);
#453=AXIS2_PLACEMENT_3D('',#633,#510,#511);
#454=AXIS2_PLACEMENT_3D('',#639,#515,#516);
#455=AXIS2_PLACEMENT_3D('',#640,#517,#518);
#456=AXIS2_PLACEMENT_3D('',#642,#519,#520);
#457=AXIS2_PLACEMENT_3D('',#645,#522,#523);
#458=AXIS2_PLACEMENT_3D('',#651,#527,#528);
#459=AXIS2_PLACEMENT_3D('',#657,#532,#533);
#460=AXIS2_PLACEMENT_3D('',#666,#538,#539);
#461=AXIS2_PLACEMENT_3D('',#667,#540,#541);
#462=AXIS2_PLACEMENT_3D('',#669,#542,#543);
#463=AXIS2_PLACEMENT_3D('',#672,#545,#546);
#464=AXIS2_PLACEMENT_3D('',#675,#549,#550);
#465=AXIS2_PLACEMENT_3D('',#676,#551,#552);
#466=AXIS2_PLACEMENT_3D('',#682,#555,#556);
#467=AXIS2_PLACEMENT_3D('',#686,#558,#559);
#468=AXIS2_PLACEMENT_3D('',#690,#561,#562);
#469=AXIS2_PLACEMENT_3D('',#693,#564,#565);
#470=AXIS2_PLACEMENT_3D('',#696,#567,#568);
#471=AXIS2_PLACEMENT_3D('',#700,#570,#571);
#472=AXIS2_PLACEMENT_3D('',#704,#573,#574);
#473=AXIS2_PLACEMENT_3D('',#710,#577,#578);
#474=AXIS2_PLACEMENT_3D('',#711,#579,#580);
#475=AXIS2_PLACEMENT_3D('',#714,#583,#584);
#476=AXIS2_PLACEMENT_3D('',#715,#585,#586);
#477=AXIS2_PLACEMENT_3D('',#717,#588,#589);
#478=AXIS2_PLACEMENT_3D('',#719,#591,#592);
#479=AXIS2_PLACEMENT_3D('',#721,#594,#595);
#480=AXIS2_PLACEMENT_3D('',#723,#597,#598);
#481=AXIS2_PLACEMENT_3D('',#725,#600,#601);
#482=AXIS2_PLACEMENT_3D('',#727,#603,#604);
#483=DIRECTION('',(0.,0.,1.));
#484=DIRECTION('',(1.,0.,0.));
#485=DIRECTION('',(0.,1.,0.));
#486=DIRECTION('',(0.,0.,1.));
#487=DIRECTION('',(1.,0.,0.));
#488=DIRECTION('',(0.,0.,-1.));
#489=DIRECTION('',(1.,0.,0.));
#490=DIRECTION('',(0.,0.,-1.));
#491=DIRECTION('',(0.,0.,-1.));
#492=DIRECTION('',(-1.,0.,0.));
#493=DIRECTION('',(0.,0.,-1.));
#494=DIRECTION('',(-1.,0.,0.));
#495=DIRECTION('',(0.,0.,-1.));
#496=DIRECTION('',(-1.,0.,0.));
#497=DIRECTION('',(0.,0.,-1.));
#498=DIRECTION('',(0.996194698091747,-0.0871557427476374,0.));
#499=DIRECTION('',(0.0871557427476374,0.996194698091747,0.));
#500=DIRECTION('',(-0.0871557427476374,-0.996194698091747,0.));
#501=DIRECTION('',(-0.0871557427476374,-0.996194698091747,0.));
#502=DIRECTION('',(0.,0.,-1.));
#503=DIRECTION('',(0.,0.,-1.));
#504=DIRECTION('',(-1.,0.,0.));
#505=DIRECTION('',(0.,0.,-1.));
#506=DIRECTION('',(-1.,0.,0.));
#507=DIRECTION('',(0.,0.,-1.));
#508=DIRECTION('',(-1.,0.,0.));
#509=DIRECTION('',(0.,0.,-1.));
#510=DIRECTION('',(0.996194698091745,-0.0871557427476607,0.));
#511=DIRECTION('',(0.0871557427476607,0.996194698091745,0.));
#512=DIRECTION('',(-0.0871557427476607,-0.996194698091745,0.));
#513=DIRECTION('',(-0.0871557427476607,-0.996194698091745,0.));
#514=DIRECTION('',(0.,0.,-1.));
#515=DIRECTION('',(0.,0.,-1.));
#516=DIRECTION('',(-1.,0.,0.));
#517=DIRECTION('',(0.,0.,-1.));
#518=DIRECTION('',(-1.,0.,0.));
#519=DIRECTION('',(0.,0.,-1.));
#520=DIRECTION('',(-1.,0.,0.));
#521=DIRECTION('',(0.,0.,-1.));
#522=DIRECTION('',(1.,0.,0.));
#523=DIRECTION('',(0.,0.,-1.));
#524=DIRECTION('',(0.,-1.,0.));
#525=DIRECTION('',(0.,-1.,0.));
#526=DIRECTION('',(0.,0.,-1.));
#527=DIRECTION('',(0.,1.,0.));
#528=DIRECTION('',(0.,0.,1.));
#529=DIRECTION('',(1.,0.,0.));
#530=DIRECTION('',(1.,0.,0.));
#531=DIRECTION('',(0.,0.,-1.));
#532=DIRECTION('',(0.,-1.,0.));
#533=DIRECTION('',(0.,0.,-1.));
#534=DIRECTION('',(-1.,0.,0.));
#535=DIRECTION('',(0.,0.,-1.));
#536=DIRECTION('',(-1.,0.,0.));
#537=DIRECTION('',(0.,0.,-1.));
#538=DIRECTION('',(0.,0.,-1.));
#539=DIRECTION('',(-1.,0.,0.));
#540=DIRECTION('',(0.,0.,-1.));
#541=DIRECTION('',(1.,0.,0.));
#542=DIRECTION('',(0.,0.,-1.));
#543=DIRECTION('',(1.,0.,0.));
#544=DIRECTION('',(0.,0.,-1.));
#545=DIRECTION('',(-1.,0.,0.));
#546=DIRECTION('',(0.,0.,1.));
#547=DIRECTION('',(0.,1.,0.));
#548=DIRECTION('',(0.,1.,0.));
#549=DIRECTION('',(0.,0.,-1.));
#550=DIRECTION('',(-1.,0.,0.));
#551=DIRECTION('',(0.,0.,1.));
#552=DIRECTION('',(-1.,0.,0.));
#553=DIRECTION('',(0.,1.,0.));
#554=DIRECTION('',(-1.,0.,0.));
#555=DIRECTION('',(0.,0.,1.));
#556=DIRECTION('',(1.,0.,0.));
#557=DIRECTION('',(0.0871557427476374,-0.996194698091747,0.));
#558=DIRECTION('',(0.,0.,1.));
#559=DIRECTION('',(1.,0.,0.));
#560=DIRECTION('',(0.0871557427476607,-0.996194698091745,0.));
#561=DIRECTION('',(0.,0.,1.));
#562=DIRECTION('',(1.,0.,0.));
#563=DIRECTION('',(0.,-1.,0.));
#564=DIRECTION('',(0.,0.,-1.));
#565=DIRECTION('',(-1.,0.,0.));
#566=DIRECTION('',(0.,-1.,0.));
#567=DIRECTION('',(0.,0.,1.));
#568=DIRECTION('',(1.,0.,0.));
#569=DIRECTION('',(0.0871557427476607,-0.996194698091745,0.));
#570=DIRECTION('',(0.,0.,1.));
#571=DIRECTION('',(1.,0.,0.));
#572=DIRECTION('',(0.0871557427476374,-0.996194698091747,0.));
#573=DIRECTION('',(0.,0.,1.));
#574=DIRECTION('',(1.,0.,0.));
#575=DIRECTION('',(-1.,0.,0.));
#576=DIRECTION('',(0.,1.,0.));
#577=DIRECTION('',(0.,0.,1.));
#578=DIRECTION('',(-1.,0.,0.));
#579=DIRECTION('',(1.,0.,0.));
#580=DIRECTION('',(0.,0.,1.));
#581=DIRECTION('',(0.,0.,-1.));
#582=DIRECTION('',(0.,0.,-1.));
#583=DIRECTION('',(0.,0.,-1.));
#584=DIRECTION('',(1.,0.,0.));
#585=DIRECTION('',(-1.,0.,0.));
#586=DIRECTION('',(0.,0.,-1.));
#587=DIRECTION('',(0.,0.,-1.));
#588=DIRECTION('',(0.,0.,-1.));
#589=DIRECTION('',(1.,0.,0.));
#590=DIRECTION('',(0.,0.,-1.));
#591=DIRECTION('',(-0.996194698091745,-0.0871557427476607,0.));
#592=DIRECTION('',(-0.0871557427476607,0.996194698091745,0.));
#593=DIRECTION('',(0.,0.,-1.));
#594=DIRECTION('',(0.,0.,-1.));
#595=DIRECTION('',(1.,0.,0.));
#596=DIRECTION('',(0.,0.,-1.));
#597=DIRECTION('',(-0.996194698091747,-0.0871557427476374,0.));
#598=DIRECTION('',(-0.0871557427476374,0.996194698091747,0.));
#599=DIRECTION('',(0.,0.,-1.));
#600=DIRECTION('',(0.,0.,-1.));
#601=DIRECTION('',(1.,0.,0.));
#602=DIRECTION('',(0.,0.,-1.));
#603=DIRECTION('',(0.,1.,0.));
#604=DIRECTION('',(0.,0.,1.));
#605=CARTESIAN_POINT('',(0.,0.,0.));
#606=CARTESIAN_POINT('',(-27.5059639203066,3.31434515465689,19.8326031734429));
#607=CARTESIAN_POINT('',(-27.5059639203066,3.31434515465689,14.8326031734429));
#608=CARTESIAN_POINT('',(-28.5,3.31434515465689,14.8326031734429));
#609=CARTESIAN_POINT('',(-27.0059639203066,3.31434515465689,14.8326031734429));
#610=CARTESIAN_POINT('',(-28.5,3.31434515465689,19.8326031734429));
#611=CARTESIAN_POINT('',(-28.5,3.31434515465689,19.8326031734429));
#612=CARTESIAN_POINT('',(-27.5059639203066,3.31434515465689,19.8326031734429));
#613=CARTESIAN_POINT('',(-27.0059639203066,3.31434515465689,19.8326031734429));
#614=CARTESIAN_POINT('',(-27.0059639203066,3.31434515465689,19.8326031734429));
#615=CARTESIAN_POINT('',(-27.0495417916804,2.81624780561101,19.8326031734429));
#616=CARTESIAN_POINT('',(-27.0495417916804,2.81624780561101,14.8326031734429));
#617=CARTESIAN_POINT('',(-27.0931196630542,2.31815045656514,14.8326031734429));
#618=CARTESIAN_POINT('',(-27.0495417916804,2.81624780561101,19.8326031734429));
#619=CARTESIAN_POINT('',(-27.0931196630542,2.31815045656514,19.8326031734429));
#620=CARTESIAN_POINT('',(-27.0931196630542,2.31815045656514,19.8326031734429));
#621=CARTESIAN_POINT('',(-27.0931196630542,2.31815045656514,19.8326031734429));
#622=CARTESIAN_POINT('',(-27.0931196630542,2.31815045656514,14.8326031734429));
#623=CARTESIAN_POINT('',(-27.1061930244664,2.16872125185138,14.8326031734429));
#624=CARTESIAN_POINT('',(-27.0931196630542,2.31815045656514,19.8326031734429));
#625=CARTESIAN_POINT('',(-27.1061930244664,2.16872125185138,19.8326031734429));
#626=CARTESIAN_POINT('',(-27.1061930244664,2.16872125185138,19.8326031734429));
#627=CARTESIAN_POINT('',(-27.1497708958402,1.67062390280551,19.8326031734429));
#628=CARTESIAN_POINT('',(-27.1497708958402,1.67062390280551,14.8326031734429));
#629=CARTESIAN_POINT('',(-27.193348767214,1.17252655375963,14.8326031734429));
#630=CARTESIAN_POINT('',(-27.1497708958402,1.67062390280551,19.8326031734429));
#631=CARTESIAN_POINT('',(-27.193348767214,1.17252655375963,19.8326031734429));
#632=CARTESIAN_POINT('',(-27.193348767214,1.17252655375963,19.8326031734429));
#633=CARTESIAN_POINT('',(-27.193348767214,1.17252655375963,19.8326031734429));
#634=CARTESIAN_POINT('',(-27.193348767214,1.17252655375963,14.8326031734429));
#635=CARTESIAN_POINT('',(-27.2141117383883,0.935204707277492,14.8326031734429));
#636=CARTESIAN_POINT('',(-27.193348767214,1.17252655375963,19.8326031734429));
#637=CARTESIAN_POINT('',(-27.2141117383883,0.935204707277492,19.8326031734429));
#638=CARTESIAN_POINT('',(-27.2141117383883,0.935204707277492,19.8326031734429));
#639=CARTESIAN_POINT('',(-27.5,0.525,19.8326031734429));
#640=CARTESIAN_POINT('',(-27.5,0.525,14.8326031734429));
#641=CARTESIAN_POINT('',(-27.75,0.0919872981077812,14.8326031734429));
#642=CARTESIAN_POINT('',(-27.5,0.525,19.8326031734429));
#643=CARTESIAN_POINT('',(-27.75,0.0919872981077812,19.8326031734429));
#644=CARTESIAN_POINT('',(-27.75,0.0919872981077812,19.8326031734429));
#645=CARTESIAN_POINT('',(-27.75,0.0249999999999998,19.8326031734429));
#646=CARTESIAN_POINT('',(-27.75,0.0249999999999998,14.8326031734429));
#647=CARTESIAN_POINT('',(-27.75,0.,14.8326031734429));
#648=CARTESIAN_POINT('',(-27.75,0.0249999999999998,19.8326031734429));
#649=CARTESIAN_POINT('',(-27.75,0.,19.8326031734429));
#650=CARTESIAN_POINT('',(-27.75,0.,19.8326031734429));
#651=CARTESIAN_POINT('',(-27.75,0.,19.8326031734429));
#652=CARTESIAN_POINT('',(-27.75,0.,14.8326031734429));
#653=CARTESIAN_POINT('',(27.75,0.,14.8326031734429));
#654=CARTESIAN_POINT('',(-27.75,0.,19.8326031734429));
#655=CARTESIAN_POINT('',(27.75,0.,19.8326031734429));
#656=CARTESIAN_POINT('',(27.75,0.,19.8326031734429));
#657=CARTESIAN_POINT('',(-27.5,-1.,19.8326031734429));
#658=CARTESIAN_POINT('',(-27.5,-1.,14.8326031734429));
#659=CARTESIAN_POINT('',(27.5,-1.,14.8326031734429));
#660=CARTESIAN_POINT('',(-27.5,-1.,14.8326031734429));
#661=CARTESIAN_POINT('',(27.5,-1.,19.8326031734429));
#662=CARTESIAN_POINT('',(27.5,-1.,19.8326031734429));
#663=CARTESIAN_POINT('',(-27.5,-1.,19.8326031734429));
#664=CARTESIAN_POINT('',(-27.5,-1.,19.8326031734429));
#665=CARTESIAN_POINT('',(-27.5,-1.,19.8326031734429));
#666=CARTESIAN_POINT('',(-27.5,0.,19.8326031734429));
#667=CARTESIAN_POINT('',(-27.5,0.,14.8326031734429));
#668=CARTESIAN_POINT('',(-28.5,-1.22464679914735E-16,14.8326031734429));
#669=CARTESIAN_POINT('',(-27.5,0.,19.8326031734429));
#670=CARTESIAN_POINT('',(-28.5,-1.22464679914735E-16,19.8326031734429));
#671=CARTESIAN_POINT('',(-28.5,-1.22464679914735E-16,19.8326031734429));
#672=CARTESIAN_POINT('',(-28.5,0.,19.8326031734429));
#673=CARTESIAN_POINT('',(-28.5,0.,14.8326031734429));
#674=CARTESIAN_POINT('',(-28.5,0.,19.8326031734429));
#675=CARTESIAN_POINT('',(-27.5495417916804,2.81624780561101,19.8326031734429));
#676=CARTESIAN_POINT('',(27.5,0.,19.8326031734429));
#677=CARTESIAN_POINT('',(28.5,-1.22464679914735E-16,19.8326031734429));
#678=CARTESIAN_POINT('',(28.5,0.,19.8326031734429));
#679=CARTESIAN_POINT('',(28.5,3.31434515465689,19.8326031734429));
#680=CARTESIAN_POINT('',(27.5059639203066,3.31434515465689,19.8326031734429));
#681=CARTESIAN_POINT('',(27.0059639203066,3.31434515465689,19.8326031734429));
#682=CARTESIAN_POINT('',(27.0495417916804,2.81624780561101,19.8326031734429));
#683=CARTESIAN_POINT('',(27.0931196630542,2.31815045656514,19.8326031734429));
#684=CARTESIAN_POINT('',(27.0931196630542,2.31815045656514,19.8326031734429));
#685=CARTESIAN_POINT('',(27.1061930244664,2.16872125185138,19.8326031734429));
#686=CARTESIAN_POINT('',(27.1497708958402,1.67062390280551,19.8326031734429));
#687=CARTESIAN_POINT('',(27.193348767214,1.17252655375963,19.8326031734429));
#688=CARTESIAN_POINT('',(27.193348767214,1.17252655375963,19.8326031734429));
#689=CARTESIAN_POINT('',(27.2141117383883,0.935204707277492,19.8326031734429));
#690=CARTESIAN_POINT('',(27.5,0.525,19.8326031734429));
#691=CARTESIAN_POINT('',(27.75,0.0919872981077812,19.8326031734429));
#692=CARTESIAN_POINT('',(27.75,0.0249999999999998,19.8326031734429));
#693=CARTESIAN_POINT('',(-27.5495417916804,2.81624780561101,14.8326031734429));
#694=CARTESIAN_POINT('',(27.75,0.0249999999999998,14.8326031734429));
#695=CARTESIAN_POINT('',(27.75,0.0919872981077812,14.8326031734429));
#696=CARTESIAN_POINT('',(27.5,0.525,14.8326031734429));
#697=CARTESIAN_POINT('',(27.2141117383883,0.935204707277492,14.8326031734429));
#698=CARTESIAN_POINT('',(27.193348767214,1.17252655375963,14.8326031734429));
#699=CARTESIAN_POINT('',(27.193348767214,1.17252655375963,14.8326031734429));
#700=CARTESIAN_POINT('',(27.1497708958402,1.67062390280551,14.8326031734429));
#701=CARTESIAN_POINT('',(27.1061930244664,2.16872125185138,14.8326031734429));
#702=CARTESIAN_POINT('',(27.0931196630542,2.31815045656514,14.8326031734429));
#703=CARTESIAN_POINT('',(27.0931196630542,2.31815045656514,14.8326031734429));
#704=CARTESIAN_POINT('',(27.0495417916804,2.81624780561101,14.8326031734429));
#705=CARTESIAN_POINT('',(27.0059639203066,3.31434515465689,14.8326031734429));
#706=CARTESIAN_POINT('',(27.5059639203066,3.31434515465689,14.8326031734429));
#707=CARTESIAN_POINT('',(28.5,3.31434515465689,14.8326031734429));
#708=CARTESIAN_POINT('',(28.5,0.,14.8326031734429));
#709=CARTESIAN_POINT('',(28.5,-1.22464679914735E-16,14.8326031734429));
#710=CARTESIAN_POINT('',(27.5,0.,14.8326031734429));
#711=CARTESIAN_POINT('',(28.5,0.,19.8326031734429));
#712=CARTESIAN_POINT('',(28.5,3.31434515465689,19.8326031734429));
#713=CARTESIAN_POINT('',(28.5,-1.22464679914735E-16,19.8326031734429));
#714=CARTESIAN_POINT('',(27.5,0.,19.8326031734429));
#715=CARTESIAN_POINT('',(27.75,0.0249999999999998,19.8326031734429));
#716=CARTESIAN_POINT('',(27.75,0.0919872981077812,19.8326031734429));
#717=CARTESIAN_POINT('',(27.5,0.525,19.8326031734429));
#718=CARTESIAN_POINT('',(27.2141117383883,0.935204707277492,19.8326031734429));
#719=CARTESIAN_POINT('',(27.193348767214,1.17252655375963,19.8326031734429));
#720=CARTESIAN_POINT('',(27.193348767214,1.17252655375963,19.8326031734429));
#721=CARTESIAN_POINT('',(27.1497708958402,1.67062390280551,19.8326031734429));
#722=CARTESIAN_POINT('',(27.1061930244664,2.16872125185138,19.8326031734429));
#723=CARTESIAN_POINT('',(27.0931196630542,2.31815045656514,19.8326031734429));
#724=CARTESIAN_POINT('',(27.0931196630542,2.31815045656514,19.8326031734429));
#725=CARTESIAN_POINT('',(27.0495417916804,2.81624780561101,19.8326031734429));
#726=CARTESIAN_POINT('',(27.0059639203066,3.31434515465689,19.8326031734429));
#727=CARTESIAN_POINT('',(27.5059639203066,3.31434515465689,19.8326031734429));
#728=MECHANICAL_DESIGN_GEOMETRIC_PRESENTATION_REPRESENTATION('',(#433),
#729);
#729=(
GEOMETRIC_REPRESENTATION_CONTEXT(3)
GLOBAL_UNCERTAINTY_ASSIGNED_CONTEXT((#730))
GLOBAL_UNIT_ASSIGNED_CONTEXT((#733,#732,#731))
REPRESENTATION_CONTEXT('Card_TestClip_06','TOP_LEVEL_ASSEMBLY_PART')
);
#730=UNCERTAINTY_MEASURE_WITH_UNIT(LENGTH_MEASURE(0.005),#733,
'DISTANCE_ACCURACY_VALUE','Maximum Tolerance applied to model');
#731=(
NAMED_UNIT(*)
SI_UNIT($,.STERADIAN.)
SOLID_ANGLE_UNIT()
);
#732=(
NAMED_UNIT(*)
PLANE_ANGLE_UNIT()
SI_UNIT($,.RADIAN.)
);
#733=(
LENGTH_UNIT()
NAMED_UNIT(*)
SI_UNIT(.MILLI.,.METRE.)
);
#734=PRODUCT_DEFINITION_SHAPE('','',#735);
#735=PRODUCT_DEFINITION('','',#737,#736);
#736=PRODUCT_DEFINITION_CONTEXT('',#743,'design');
#737=PRODUCT_DEFINITION_FORMATION_WITH_SPECIFIED_SOURCE('','',#739,
 .NOT_KNOWN.);
#738=PRODUCT_RELATED_PRODUCT_CATEGORY('','',(#739));
#739=PRODUCT('Card_TestClip_06','Card_TestClip_06','Card_TestClip_06',(#741));
#740=PRODUCT_CATEGORY('','');
#741=PRODUCT_CONTEXT('',#743,'mechanical');
#742=APPLICATION_PROTOCOL_DEFINITION('international standard',
'automotive_design',2010,#743);
#743=APPLICATION_CONTEXT(
'core data for automotive mechanical design processes');
ENDSEC;
END-ISO-10303-21;
