ISO-10303-21;
HEADER;
/* Generated by software containing ST-Developer
 * from STEP Tools, Inc. (www.steptools.com) 
 */
/* OPTION: strings as raw bytes, not using required /X/ escapes */

FILE_DESCRIPTION(
/* description */ ('Unknown'),
/* implementation_level */ '2;1');

FILE_NAME(
/* name */ 'ChapStickClip_00',
/* time_stamp */ '2023-06-22T09:21:05+01:00',
/* author */ ('Unknown'),
/* organization */ ('Unknown'),
/* preprocessor_version */ 'ST-DEVELOPER v18.102',
/* originating_system */ 'Solid Edge',
/* authorisation */ 'Unknown');

FILE_SCHEMA (('AUTOMOTIVE_DESIGN {1 0 10303 214 3 1 1}'));
ENDSEC;

DATA;
#10=PROPERTY_DEFINITION_REPRESENTATION(#14,#12);
#11=PROPERTY_DEFINITION_REPRESENTATION(#15,#13);
#12=REPRESENTATION('',(#16),#327);
#13=REPRESENTATION('',(#17),#327);
#14=PROPERTY_DEFINITION('pmi validation property','',#332);
#15=PROPERTY_DEFINITION('pmi validation property','',#332);
#16=VALUE_REPRESENTATION_ITEM('number of annotations',COUNT_MEASURE(0.));
#17=VALUE_REPRESENTATION_ITEM('number of views',COUNT_MEASURE(0.));
#18=SHAPE_REPRESENTATION_RELATIONSHIP('','',#197,#19);
#19=ADVANCED_BREP_SHAPE_REPRESENTATION('',(#195),#327);
#20=CIRCLE('',#203,10.15);
#21=CIRCLE('',#204,10.15);
#22=CIRCLE('',#206,1.00000000051082);
#23=CIRCLE('',#207,1.00000000051082);
#24=CIRCLE('',#209,9.4);
#25=CIRCLE('',#210,9.4);
#26=CIRCLE('',#212,1.00000000051384);
#27=CIRCLE('',#213,1.00000000051384);
#28=CIRCLE('',#215,10.9);
#29=CIRCLE('',#216,10.9);
#30=CYLINDRICAL_SURFACE('',#202,10.15);
#31=CYLINDRICAL_SURFACE('',#205,1.00000000051082);
#32=CYLINDRICAL_SURFACE('',#208,9.4);
#33=CYLINDRICAL_SURFACE('',#211,1.00000000051384);
#34=CYLINDRICAL_SURFACE('',#214,10.9);
#35=ORIENTED_EDGE('',*,*,#83,.F.);
#36=ORIENTED_EDGE('',*,*,#84,.F.);
#37=ORIENTED_EDGE('',*,*,#85,.T.);
#38=ORIENTED_EDGE('',*,*,#86,.T.);
#39=ORIENTED_EDGE('',*,*,#87,.F.);
#40=ORIENTED_EDGE('',*,*,#86,.F.);
#41=ORIENTED_EDGE('',*,*,#88,.T.);
#42=ORIENTED_EDGE('',*,*,#89,.T.);
#43=ORIENTED_EDGE('',*,*,#90,.F.);
#44=ORIENTED_EDGE('',*,*,#89,.F.);
#45=ORIENTED_EDGE('',*,*,#91,.T.);
#46=ORIENTED_EDGE('',*,*,#92,.T.);
#47=ORIENTED_EDGE('',*,*,#93,.F.);
#48=ORIENTED_EDGE('',*,*,#92,.F.);
#49=ORIENTED_EDGE('',*,*,#94,.T.);
#50=ORIENTED_EDGE('',*,*,#95,.T.);
#51=ORIENTED_EDGE('',*,*,#96,.F.);
#52=ORIENTED_EDGE('',*,*,#95,.F.);
#53=ORIENTED_EDGE('',*,*,#97,.T.);
#54=ORIENTED_EDGE('',*,*,#98,.T.);
#55=ORIENTED_EDGE('',*,*,#99,.F.);
#56=ORIENTED_EDGE('',*,*,#98,.F.);
#57=ORIENTED_EDGE('',*,*,#100,.T.);
#58=ORIENTED_EDGE('',*,*,#101,.T.);
#59=ORIENTED_EDGE('',*,*,#102,.F.);
#60=ORIENTED_EDGE('',*,*,#101,.F.);
#61=ORIENTED_EDGE('',*,*,#103,.T.);
#62=ORIENTED_EDGE('',*,*,#104,.T.);
#63=ORIENTED_EDGE('',*,*,#105,.F.);
#64=ORIENTED_EDGE('',*,*,#104,.F.);
#65=ORIENTED_EDGE('',*,*,#106,.T.);
#66=ORIENTED_EDGE('',*,*,#84,.T.);
#67=ORIENTED_EDGE('',*,*,#85,.F.);
#68=ORIENTED_EDGE('',*,*,#106,.F.);
#69=ORIENTED_EDGE('',*,*,#103,.F.);
#70=ORIENTED_EDGE('',*,*,#100,.F.);
#71=ORIENTED_EDGE('',*,*,#97,.F.);
#72=ORIENTED_EDGE('',*,*,#94,.F.);
#73=ORIENTED_EDGE('',*,*,#91,.F.);
#74=ORIENTED_EDGE('',*,*,#88,.F.);
#75=ORIENTED_EDGE('',*,*,#83,.T.);
#76=ORIENTED_EDGE('',*,*,#87,.T.);
#77=ORIENTED_EDGE('',*,*,#90,.T.);
#78=ORIENTED_EDGE('',*,*,#93,.T.);
#79=ORIENTED_EDGE('',*,*,#96,.T.);
#80=ORIENTED_EDGE('',*,*,#99,.T.);
#81=ORIENTED_EDGE('',*,*,#102,.T.);
#82=ORIENTED_EDGE('',*,*,#105,.T.);
#83=EDGE_CURVE('',#107,#108,#123,.T.);
#84=EDGE_CURVE('',#109,#107,#124,.T.);
#85=EDGE_CURVE('',#109,#110,#125,.T.);
#86=EDGE_CURVE('',#110,#108,#126,.T.);
#87=EDGE_CURVE('',#108,#111,#127,.T.);
#88=EDGE_CURVE('',#110,#112,#128,.T.);
#89=EDGE_CURVE('',#112,#111,#129,.T.);
#90=EDGE_CURVE('',#111,#113,#130,.T.);
#91=EDGE_CURVE('',#112,#114,#131,.T.);
#92=EDGE_CURVE('',#114,#113,#132,.T.);
#93=EDGE_CURVE('',#113,#115,#20,.T.);
#94=EDGE_CURVE('',#114,#116,#21,.T.);
#95=EDGE_CURVE('',#116,#115,#133,.T.);
#96=EDGE_CURVE('',#115,#117,#22,.T.);
#97=EDGE_CURVE('',#116,#118,#23,.T.);
#98=EDGE_CURVE('',#118,#117,#134,.T.);
#99=EDGE_CURVE('',#117,#119,#24,.T.);
#100=EDGE_CURVE('',#118,#120,#25,.T.);
#101=EDGE_CURVE('',#120,#119,#135,.T.);
#102=EDGE_CURVE('',#119,#121,#26,.T.);
#103=EDGE_CURVE('',#120,#122,#27,.T.);
#104=EDGE_CURVE('',#122,#121,#136,.T.);
#105=EDGE_CURVE('',#121,#107,#28,.T.);
#106=EDGE_CURVE('',#122,#109,#29,.T.);
#107=VERTEX_POINT('',#278);
#108=VERTEX_POINT('',#279);
#109=VERTEX_POINT('',#281);
#110=VERTEX_POINT('',#283);
#111=VERTEX_POINT('',#287);
#112=VERTEX_POINT('',#289);
#113=VERTEX_POINT('',#293);
#114=VERTEX_POINT('',#295);
#115=VERTEX_POINT('',#299);
#116=VERTEX_POINT('',#301);
#117=VERTEX_POINT('',#305);
#118=VERTEX_POINT('',#307);
#119=VERTEX_POINT('',#311);
#120=VERTEX_POINT('',#313);
#121=VERTEX_POINT('',#317);
#122=VERTEX_POINT('',#319);
#123=LINE('',#277,#137);
#124=LINE('',#280,#138);
#125=LINE('',#282,#139);
#126=LINE('',#284,#140);
#127=LINE('',#286,#141);
#128=LINE('',#288,#142);
#129=LINE('',#290,#143);
#130=LINE('',#292,#144);
#131=LINE('',#294,#145);
#132=LINE('',#296,#146);
#133=LINE('',#302,#147);
#134=LINE('',#308,#148);
#135=LINE('',#314,#149);
#136=LINE('',#320,#150);
#137=VECTOR('',#223,1000.);
#138=VECTOR('',#224,1000.);
#139=VECTOR('',#225,1000.);
#140=VECTOR('',#226,1000.);
#141=VECTOR('',#229,1000.);
#142=VECTOR('',#230,1000.);
#143=VECTOR('',#231,1000.);
#144=VECTOR('',#234,1000.);
#145=VECTOR('',#235,1000.);
#146=VECTOR('',#236,1000.);
#147=VECTOR('',#243,1000.);
#148=VECTOR('',#250,1000.);
#149=VECTOR('',#257,1000.);
#150=VECTOR('',#264,1000.);
#151=EDGE_LOOP('',(#35,#36,#37,#38));
#152=EDGE_LOOP('',(#39,#40,#41,#42));
#153=EDGE_LOOP('',(#43,#44,#45,#46));
#154=EDGE_LOOP('',(#47,#48,#49,#50));
#155=EDGE_LOOP('',(#51,#52,#53,#54));
#156=EDGE_LOOP('',(#55,#56,#57,#58));
#157=EDGE_LOOP('',(#59,#60,#61,#62));
#158=EDGE_LOOP('',(#63,#64,#65,#66));
#159=EDGE_LOOP('',(#67,#68,#69,#70,#71,#72,#73,#74));
#160=EDGE_LOOP('',(#75,#76,#77,#78,#79,#80,#81,#82));
#161=FACE_BOUND('',#151,.T.);
#162=FACE_BOUND('',#152,.T.);
#163=FACE_BOUND('',#153,.T.);
#164=FACE_BOUND('',#154,.T.);
#165=FACE_BOUND('',#155,.T.);
#166=FACE_BOUND('',#156,.T.);
#167=FACE_BOUND('',#157,.T.);
#168=FACE_BOUND('',#158,.T.);
#169=FACE_BOUND('',#159,.T.);
#170=FACE_BOUND('',#160,.T.);
#171=PLANE('',#199);
#172=PLANE('',#200);
#173=PLANE('',#201);
#174=PLANE('',#217);
#175=PLANE('',#218);
#176=ADVANCED_FACE('',(#161),#171,.T.);
#177=ADVANCED_FACE('',(#162),#172,.T.);
#178=ADVANCED_FACE('',(#163),#173,.T.);
#179=ADVANCED_FACE('',(#164),#30,.T.);
#180=ADVANCED_FACE('',(#165),#31,.T.);
#181=ADVANCED_FACE('',(#166),#32,.F.);
#182=ADVANCED_FACE('',(#167),#33,.T.);
#183=ADVANCED_FACE('',(#168),#34,.T.);
#184=ADVANCED_FACE('',(#169),#174,.F.);
#185=ADVANCED_FACE('',(#170),#175,.T.);
#186=CLOSED_SHELL('',(#176,#177,#178,#179,#180,#181,#182,#183,#184,#185));
#187=STYLED_ITEM('',(#188),#195);
#188=PRESENTATION_STYLE_ASSIGNMENT((#189));
#189=SURFACE_STYLE_USAGE(.BOTH.,#190);
#190=SURFACE_SIDE_STYLE('',(#191));
#191=SURFACE_STYLE_FILL_AREA(#192);
#192=FILL_AREA_STYLE('',(#193));
#193=FILL_AREA_STYLE_COLOUR('',#194);
#194=COLOUR_RGB('',0.506983280181885,0.531564235687256,0.550000011920929);
#195=MANIFOLD_SOLID_BREP('',#186);
#196=SHAPE_DEFINITION_REPRESENTATION(#332,#197);
#197=SHAPE_REPRESENTATION('ChapStickClip_00',(#198),#327);
#198=AXIS2_PLACEMENT_3D('',#275,#219,#220);
#199=AXIS2_PLACEMENT_3D('',#276,#221,#222);
#200=AXIS2_PLACEMENT_3D('',#285,#227,#228);
#201=AXIS2_PLACEMENT_3D('',#291,#232,#233);
#202=AXIS2_PLACEMENT_3D('',#297,#237,#238);
#203=AXIS2_PLACEMENT_3D('',#298,#239,#240);
#204=AXIS2_PLACEMENT_3D('',#300,#241,#242);
#205=AXIS2_PLACEMENT_3D('',#303,#244,#245);
#206=AXIS2_PLACEMENT_3D('',#304,#246,#247);
#207=AXIS2_PLACEMENT_3D('',#306,#248,#249);
#208=AXIS2_PLACEMENT_3D('',#309,#251,#252);
#209=AXIS2_PLACEMENT_3D('',#310,#253,#254);
#210=AXIS2_PLACEMENT_3D('',#312,#255,#256);
#211=AXIS2_PLACEMENT_3D('',#315,#258,#259);
#212=AXIS2_PLACEMENT_3D('',#316,#260,#261);
#213=AXIS2_PLACEMENT_3D('',#318,#262,#263);
#214=AXIS2_PLACEMENT_3D('',#321,#265,#266);
#215=AXIS2_PLACEMENT_3D('',#322,#267,#268);
#216=AXIS2_PLACEMENT_3D('',#323,#269,#270);
#217=AXIS2_PLACEMENT_3D('',#324,#271,#272);
#218=AXIS2_PLACEMENT_3D('',#325,#273,#274);
#219=DIRECTION('',(0.,0.,1.));
#220=DIRECTION('',(1.,0.,0.));
#221=DIRECTION('',(-1.,0.,-1.44551685320382E-15));
#222=DIRECTION('',(-1.44551685320382E-15,0.,1.));
#223=DIRECTION('',(1.44551685320382E-15,0.,-1.));
#224=DIRECTION('',(0.,-1.,0.));
#225=DIRECTION('',(1.44551685320382E-15,0.,-1.));
#226=DIRECTION('',(0.,-1.,0.));
#227=DIRECTION('',(1.3344026737956E-16,0.,-1.));
#228=DIRECTION('',(-1.,0.,-1.3344026737956E-16));
#229=DIRECTION('',(1.,0.,1.3344026737956E-16));
#230=DIRECTION('',(1.,0.,1.3344026737956E-16));
#231=DIRECTION('',(0.,-1.,0.));
#232=DIRECTION('',(1.,0.,-1.81801536717036E-15));
#233=DIRECTION('',(-1.81801536717036E-15,0.,-1.));
#234=DIRECTION('',(1.81801536717036E-15,0.,1.));
#235=DIRECTION('',(-7.22758426601909E-16,0.,1.));
#236=DIRECTION('',(0.,-1.,0.));
#237=DIRECTION('',(0.,-1.,0.));
#238=DIRECTION('',(0.,0.,-1.));
#239=DIRECTION('',(0.,-1.,0.));
#240=DIRECTION('',(-1.,0.,0.));
#241=DIRECTION('',(0.,-1.,0.));
#242=DIRECTION('',(-1.,0.,0.));
#243=DIRECTION('',(0.,-1.,0.));
#244=DIRECTION('',(0.,-1.,0.));
#245=DIRECTION('',(0.,0.,-1.));
#246=DIRECTION('',(0.,-1.,0.));
#247=DIRECTION('',(0.,0.,-1.));
#248=DIRECTION('',(0.,-1.,0.));
#249=DIRECTION('',(1.,0.,0.));
#250=DIRECTION('',(0.,-1.,0.));
#251=DIRECTION('',(0.,-1.,0.));
#252=DIRECTION('',(0.,0.,-1.));
#253=DIRECTION('',(0.,1.,0.));
#254=DIRECTION('',(0.,0.,1.));
#255=DIRECTION('',(0.,1.,0.));
#256=DIRECTION('',(0.,0.,1.));
#257=DIRECTION('',(0.,-1.,0.));
#258=DIRECTION('',(0.,-1.,0.));
#259=DIRECTION('',(0.,0.,-1.));
#260=DIRECTION('',(0.,-1.,0.));
#261=DIRECTION('',(0.,0.,-1.));
#262=DIRECTION('',(0.,-1.,0.));
#263=DIRECTION('',(0.,0.,-1.));
#264=DIRECTION('',(0.,-1.,0.));
#265=DIRECTION('',(0.,-1.,0.));
#266=DIRECTION('',(0.,0.,-1.));
#267=DIRECTION('',(0.,-1.,0.));
#268=DIRECTION('',(1.,0.,0.));
#269=DIRECTION('',(0.,-1.,0.));
#270=DIRECTION('',(1.,0.,0.));
#271=DIRECTION('',(0.,-1.,0.));
#272=DIRECTION('',(0.,0.,-1.));
#273=DIRECTION('',(0.,-1.,0.));
#274=DIRECTION('',(0.,0.,-1.));
#275=CARTESIAN_POINT('',(0.,0.,0.));
#276=CARTESIAN_POINT('',(-6.50000000015933,10.,-8.74985714157258));
#277=CARTESIAN_POINT('',(-6.50000000015933,-25.,-8.74985714157258));
#278=CARTESIAN_POINT('',(-6.50000000015933,-25.,-8.74985714157258));
#279=CARTESIAN_POINT('',(-6.50000000015932,-25.,-11.15));
#280=CARTESIAN_POINT('',(-6.50000000015933,10.,-8.74985714157258));
#281=CARTESIAN_POINT('',(-6.50000000015933,10.,-8.74985714157258));
#282=CARTESIAN_POINT('',(-6.50000000015933,10.,-8.74985714157258));
#283=CARTESIAN_POINT('',(-6.50000000015932,10.,-11.15));
#284=CARTESIAN_POINT('',(-6.50000000015932,10.,-11.15));
#285=CARTESIAN_POINT('',(-6.50000000015932,10.,-11.15));
#286=CARTESIAN_POINT('',(-6.50000000015932,-25.,-11.15));
#287=CARTESIAN_POINT('',(6.50000000015933,-25.,-11.15));
#288=CARTESIAN_POINT('',(-6.50000000015932,10.,-11.15));
#289=CARTESIAN_POINT('',(6.50000000015933,10.,-11.15));
#290=CARTESIAN_POINT('',(6.50000000015933,10.,-11.15));
#291=CARTESIAN_POINT('',(6.50000000015933,10.,-8.74985714157258));
#292=CARTESIAN_POINT('',(6.50000000015933,-25.,-8.74985714157258));
#293=CARTESIAN_POINT('',(6.50000000015933,-25.,-7.79567187597892));
#294=CARTESIAN_POINT('',(6.50000000015933,10.,-11.15));
#295=CARTESIAN_POINT('',(6.50000000015933,10.,-7.79567187597892));
#296=CARTESIAN_POINT('',(6.50000000015933,10.,-7.79567187597892));
#297=CARTESIAN_POINT('',(0.,10.,0.));
#298=CARTESIAN_POINT('',(0.,-25.,0.));
#299=CARTESIAN_POINT('',(9.67692081930664,-25.,3.06263015345794));
#300=CARTESIAN_POINT('',(0.,10.,0.));
#301=CARTESIAN_POINT('',(9.67692081930664,10.,3.06263015345794));
#302=CARTESIAN_POINT('',(9.67692081930664,10.,3.06263015345794));
#303=CARTESIAN_POINT('',(9.32858510128592,10.,3.999999999662));
#304=CARTESIAN_POINT('',(9.32858510128592,-25.,3.999999999662));
#305=CARTESIAN_POINT('',(8.87017923641301,-25.,3.11125703115437));
#306=CARTESIAN_POINT('',(9.32858510128592,10.,3.999999999662));
#307=CARTESIAN_POINT('',(8.87017923641301,10.,3.11125703115437));
#308=CARTESIAN_POINT('',(8.87017923641301,10.,3.11125703115437));
#309=CARTESIAN_POINT('',(0.,10.,0.));
#310=CARTESIAN_POINT('',(0.,-25.,0.));
#311=CARTESIAN_POINT('',(-8.87017923622432,-25.,3.11125703169232));
#312=CARTESIAN_POINT('',(0.,10.,0.));
#313=CARTESIAN_POINT('',(-8.87017923622432,10.,3.11125703169232));
#314=CARTESIAN_POINT('',(-8.87017923622432,10.,3.11125703169232));
#315=CARTESIAN_POINT('',(-9.32858510178267,10.,3.99999999984982));
#316=CARTESIAN_POINT('',(-9.32858510178267,-25.,3.99999999984982));
#317=CARTESIAN_POINT('',(-10.2680722885516,-25.,3.6574159562565));
#318=CARTESIAN_POINT('',(-9.32858510178267,10.,3.99999999984982));
#319=CARTESIAN_POINT('',(-10.2680722885516,10.,3.6574159562565));
#320=CARTESIAN_POINT('',(-10.2680722885516,10.,3.6574159562565));
#321=CARTESIAN_POINT('',(0.,10.,0.));
#322=CARTESIAN_POINT('',(0.,-25.,0.));
#323=CARTESIAN_POINT('',(0.,10.,0.));
#324=CARTESIAN_POINT('',(0.,10.,0.));
#325=CARTESIAN_POINT('',(0.,-25.,0.));
#326=MECHANICAL_DESIGN_GEOMETRIC_PRESENTATION_REPRESENTATION('',(#187),
#327);
#327=(
GEOMETRIC_REPRESENTATION_CONTEXT(3)
GLOBAL_UNCERTAINTY_ASSIGNED_CONTEXT((#328))
GLOBAL_UNIT_ASSIGNED_CONTEXT((#331,#330,#329))
REPRESENTATION_CONTEXT('ChapStickClip_00','TOP_LEVEL_ASSEMBLY_PART')
);
#328=UNCERTAINTY_MEASURE_WITH_UNIT(LENGTH_MEASURE(0.005),#331,
'DISTANCE_ACCURACY_VALUE','Maximum Tolerance applied to model');
#329=(
NAMED_UNIT(*)
SI_UNIT($,.STERADIAN.)
SOLID_ANGLE_UNIT()
);
#330=(
NAMED_UNIT(*)
PLANE_ANGLE_UNIT()
SI_UNIT($,.RADIAN.)
);
#331=(
LENGTH_UNIT()
NAMED_UNIT(*)
SI_UNIT(.MILLI.,.METRE.)
);
#332=PRODUCT_DEFINITION_SHAPE('','',#333);
#333=PRODUCT_DEFINITION('','',#335,#334);
#334=PRODUCT_DEFINITION_CONTEXT('',#341,'design');
#335=PRODUCT_DEFINITION_FORMATION_WITH_SPECIFIED_SOURCE('','',#337,
 .NOT_KNOWN.);
#336=PRODUCT_RELATED_PRODUCT_CATEGORY('','',(#337));
#337=PRODUCT('ChapStickClip_00','ChapStickClip_00','ChapStickClip_00',(#339));
#338=PRODUCT_CATEGORY('','');
#339=PRODUCT_CONTEXT('',#341,'mechanical');
#340=APPLICATION_PROTOCOL_DEFINITION('international standard',
'automotive_design',2010,#341);
#341=APPLICATION_CONTEXT(
'core data for automotive mechanical design processes');
ENDSEC;
END-ISO-10303-21;
