ISO-10303-21;
HEADER;
/* Generated by software containing ST-Developer
 * from STEP Tools, Inc. (www.steptools.com) 
 */
/* OPTION: strings as raw bytes, not using required /X/ escapes */

FILE_DESCRIPTION(
/* description */ ('Unknown'),
/* implementation_level */ '2;1');

FILE_NAME(
/* name */ 'FlareHolderSlot01',
/* time_stamp */ '2023-05-25T09:17:28+01:00',
/* author */ ('Unknown'),
/* organization */ ('Unknown'),
/* preprocessor_version */ 'ST-DEVELOPER v18.102',
/* originating_system */ 'Solid Edge',
/* authorisation */ 'Unknown');

FILE_SCHEMA (('AUTOMOTIVE_DESIGN {1 0 10303 214 3 1 1}'));
ENDSEC;

DATA;
#10=PROPERTY_DEFINITION_REPRESENTATION(#14,#12);
#11=PROPERTY_DEFINITION_REPRESENTATION(#15,#13);
#12=REPRESENTATION('',(#16),#466);
#13=REPRESENTATION('',(#17),#466);
#14=PROPERTY_DEFINITION('pmi validation property','',#471);
#15=PROPERTY_DEFINITION('pmi validation property','',#471);
#16=VALUE_REPRESENTATION_ITEM('number of annotations',COUNT_MEASURE(0.));
#17=VALUE_REPRESENTATION_ITEM('number of views',COUNT_MEASURE(0.));
#18=SHAPE_REPRESENTATION_RELATIONSHIP('','',#262,#19);
#19=ADVANCED_BREP_SHAPE_REPRESENTATION('',(#260),#466);
#20=B_SPLINE_SURFACE_WITH_KNOTS('',3,1,((#383,#384),(#385,#386),(#387,#388),
(#389,#390)),.SURF_OF_LINEAR_EXTRUSION.,.F.,.F.,.F.,(4,4),(2,2),(0.,0.387624446041224),
(0.,1.),.PIECEWISE_BEZIER_KNOTS.);
#21=B_SPLINE_SURFACE_WITH_KNOTS('',3,1,((#403,#404),(#405,#406),(#407,#408),
(#409,#410)),.SURF_OF_LINEAR_EXTRUSION.,.F.,.F.,.F.,(4,4),(2,2),(0.70263414398677,
1.),(0.,1.),.PIECEWISE_BEZIER_KNOTS.);
#22=B_SPLINE_SURFACE_WITH_KNOTS('',3,1,((#421,#422),(#423,#424),(#425,#426),
(#427,#428),(#429,#430)),.SURF_OF_LINEAR_EXTRUSION.,.F.,.F.,.F.,(4,1,4),
(2,2),(0.,0.549262490655786,1.),(0.,1.),.UNSPECIFIED.);
#23=B_SPLINE_SURFACE_WITH_KNOTS('',3,1,((#442,#443),(#444,#445),(#446,#447),
(#448,#449),(#450,#451)),.SURF_OF_LINEAR_EXTRUSION.,.F.,.F.,.F.,(4,1,4),
(2,2),(0.,0.450737509344214,1.),(0.,1.),.UNSPECIFIED.);
#24=B_SPLINE_CURVE_WITH_KNOTS('',3,(#352,#353,#354,#355),.UNSPECIFIED.,
 .F.,.F.,(4,4),(0.,1.),.UNSPECIFIED.);
#25=B_SPLINE_CURVE_WITH_KNOTS('',3,(#357,#358,#359,#360,#361),
 .UNSPECIFIED.,.F.,.F.,(4,1,4),(0.,0.549262490655786,1.),.UNSPECIFIED.);
#26=B_SPLINE_CURVE_WITH_KNOTS('',3,(#365,#366,#367,#368,#369),
 .UNSPECIFIED.,.F.,.F.,(4,1,4),(0.,0.450737509344214,1.),.UNSPECIFIED.);
#27=B_SPLINE_CURVE_WITH_KNOTS('',3,(#373,#374,#375,#376,#377,#378,#379,
#380,#381,#382),.UNSPECIFIED.,.F.,.F.,(4,2,2,2,4),(0.,0.277480589172204,
0.577952727256331,0.878424865340457,1.),.UNSPECIFIED.);
#28=B_SPLINE_CURVE_WITH_KNOTS('',3,(#393,#394,#395,#396,#397,#398,#399,
#400,#401,#402),.UNSPECIFIED.,.F.,.F.,(4,2,2,2,4),(0.,0.277480589172204,
0.577952727256331,0.878424865340457,1.),.UNSPECIFIED.);
#29=B_SPLINE_CURVE_WITH_KNOTS('',3,(#411,#412,#413,#414),.UNSPECIFIED.,
 .F.,.F.,(4,4),(0.,1.),.UNSPECIFIED.);
#30=B_SPLINE_CURVE_WITH_KNOTS('',3,(#433,#434,#435,#436,#437),
 .UNSPECIFIED.,.F.,.F.,(4,1,4),(0.,0.549262490655786,1.),.UNSPECIFIED.);
#31=B_SPLINE_CURVE_WITH_KNOTS('',3,(#452,#453,#454,#455,#456,#457,#458,
#459,#460,#461,#462),.UNSPECIFIED.,.F.,.F.,(4,3,1,3,4),(-0.15,0.,0.450737509344214,
1.,1.15),.UNSPECIFIED.);
#32=ORIENTED_EDGE('',*,*,#98,.F.);
#33=ORIENTED_EDGE('',*,*,#99,.T.);
#34=ORIENTED_EDGE('',*,*,#100,.F.);
#35=ORIENTED_EDGE('',*,*,#101,.T.);
#36=ORIENTED_EDGE('',*,*,#102,.T.);
#37=ORIENTED_EDGE('',*,*,#103,.T.);
#38=ORIENTED_EDGE('',*,*,#104,.F.);
#39=ORIENTED_EDGE('',*,*,#105,.T.);
#40=ORIENTED_EDGE('',*,*,#106,.F.);
#41=ORIENTED_EDGE('',*,*,#107,.F.);
#42=ORIENTED_EDGE('',*,*,#108,.T.);
#43=ORIENTED_EDGE('',*,*,#109,.T.);
#44=ORIENTED_EDGE('',*,*,#110,.T.);
#45=ORIENTED_EDGE('',*,*,#102,.F.);
#46=ORIENTED_EDGE('',*,*,#111,.F.);
#47=ORIENTED_EDGE('',*,*,#106,.T.);
#48=ORIENTED_EDGE('',*,*,#112,.T.);
#49=ORIENTED_EDGE('',*,*,#108,.F.);
#50=ORIENTED_EDGE('',*,*,#113,.T.);
#51=ORIENTED_EDGE('',*,*,#100,.T.);
#52=ORIENTED_EDGE('',*,*,#99,.F.);
#53=ORIENTED_EDGE('',*,*,#114,.T.);
#54=ORIENTED_EDGE('',*,*,#115,.T.);
#55=ORIENTED_EDGE('',*,*,#116,.T.);
#56=ORIENTED_EDGE('',*,*,#117,.T.);
#57=ORIENTED_EDGE('',*,*,#118,.T.);
#58=ORIENTED_EDGE('',*,*,#119,.T.);
#59=ORIENTED_EDGE('',*,*,#103,.F.);
#60=ORIENTED_EDGE('',*,*,#110,.F.);
#61=ORIENTED_EDGE('',*,*,#109,.F.);
#62=ORIENTED_EDGE('',*,*,#112,.F.);
#63=ORIENTED_EDGE('',*,*,#104,.T.);
#64=ORIENTED_EDGE('',*,*,#119,.F.);
#65=ORIENTED_EDGE('',*,*,#120,.F.);
#66=ORIENTED_EDGE('',*,*,#121,.F.);
#67=ORIENTED_EDGE('',*,*,#98,.T.);
#68=ORIENTED_EDGE('',*,*,#122,.F.);
#69=ORIENTED_EDGE('',*,*,#123,.T.);
#70=ORIENTED_EDGE('',*,*,#114,.F.);
#71=ORIENTED_EDGE('',*,*,#120,.T.);
#72=ORIENTED_EDGE('',*,*,#118,.F.);
#73=ORIENTED_EDGE('',*,*,#124,.F.);
#74=ORIENTED_EDGE('',*,*,#125,.F.);
#75=ORIENTED_EDGE('',*,*,#126,.T.);
#76=ORIENTED_EDGE('',*,*,#115,.F.);
#77=ORIENTED_EDGE('',*,*,#123,.F.);
#78=ORIENTED_EDGE('',*,*,#127,.F.);
#79=ORIENTED_EDGE('',*,*,#128,.T.);
#80=ORIENTED_EDGE('',*,*,#116,.F.);
#81=ORIENTED_EDGE('',*,*,#126,.F.);
#82=ORIENTED_EDGE('',*,*,#129,.F.);
#83=ORIENTED_EDGE('',*,*,#124,.T.);
#84=ORIENTED_EDGE('',*,*,#117,.F.);
#85=ORIENTED_EDGE('',*,*,#128,.F.);
#86=ORIENTED_EDGE('',*,*,#130,.F.);
#87=ORIENTED_EDGE('',*,*,#101,.F.);
#88=ORIENTED_EDGE('',*,*,#113,.F.);
#89=ORIENTED_EDGE('',*,*,#107,.T.);
#90=ORIENTED_EDGE('',*,*,#111,.T.);
#91=ORIENTED_EDGE('',*,*,#105,.F.);
#92=ORIENTED_EDGE('',*,*,#121,.T.);
#93=ORIENTED_EDGE('',*,*,#125,.T.);
#94=ORIENTED_EDGE('',*,*,#130,.T.);
#95=ORIENTED_EDGE('',*,*,#129,.T.);
#96=ORIENTED_EDGE('',*,*,#127,.T.);
#97=ORIENTED_EDGE('',*,*,#122,.T.);
#98=EDGE_CURVE('',#131,#132,#153,.F.);
#99=EDGE_CURVE('',#131,#133,#154,.T.);
#100=EDGE_CURVE('',#134,#133,#155,.T.);
#101=EDGE_CURVE('',#134,#135,#156,.T.);
#102=EDGE_CURVE('',#135,#136,#157,.T.);
#103=EDGE_CURVE('',#136,#137,#158,.T.);
#104=EDGE_CURVE('',#138,#137,#159,.T.);
#105=EDGE_CURVE('',#138,#132,#160,.T.);
#106=EDGE_CURVE('',#139,#140,#161,.T.);
#107=EDGE_CURVE('',#141,#139,#162,.T.);
#108=EDGE_CURVE('',#141,#142,#163,.T.);
#109=EDGE_CURVE('',#142,#140,#164,.T.);
#110=EDGE_CURVE('',#140,#136,#165,.T.);
#111=EDGE_CURVE('',#139,#135,#166,.T.);
#112=EDGE_CURVE('',#133,#142,#167,.T.);
#113=EDGE_CURVE('',#141,#134,#168,.T.);
#114=EDGE_CURVE('',#131,#143,#24,.T.);
#115=EDGE_CURVE('',#143,#144,#25,.T.);
#116=EDGE_CURVE('',#144,#145,#169,.T.);
#117=EDGE_CURVE('',#145,#146,#26,.T.);
#118=EDGE_CURVE('',#146,#147,#170,.T.);
#119=EDGE_CURVE('',#147,#137,#27,.T.);
#120=EDGE_CURVE('',#148,#147,#171,.T.);
#121=EDGE_CURVE('',#138,#148,#28,.F.);
#122=EDGE_CURVE('',#149,#132,#29,.F.);
#123=EDGE_CURVE('',#149,#143,#172,.T.);
#124=EDGE_CURVE('',#150,#146,#173,.T.);
#125=EDGE_CURVE('',#148,#150,#174,.T.);
#126=EDGE_CURVE('',#151,#144,#175,.T.);
#127=EDGE_CURVE('',#151,#149,#30,.F.);
#128=EDGE_CURVE('',#152,#145,#176,.T.);
#129=EDGE_CURVE('',#152,#151,#177,.T.);
#130=EDGE_CURVE('',#150,#152,#31,.F.);
#131=VERTEX_POINT('',#321);
#132=VERTEX_POINT('',#322);
#133=VERTEX_POINT('',#324);
#134=VERTEX_POINT('',#326);
#135=VERTEX_POINT('',#328);
#136=VERTEX_POINT('',#330);
#137=VERTEX_POINT('',#332);
#138=VERTEX_POINT('',#334);
#139=VERTEX_POINT('',#338);
#140=VERTEX_POINT('',#339);
#141=VERTEX_POINT('',#341);
#142=VERTEX_POINT('',#343);
#143=VERTEX_POINT('',#356);
#144=VERTEX_POINT('',#362);
#145=VERTEX_POINT('',#364);
#146=VERTEX_POINT('',#370);
#147=VERTEX_POINT('',#372);
#148=VERTEX_POINT('',#392);
#149=VERTEX_POINT('',#415);
#150=VERTEX_POINT('',#419);
#151=VERTEX_POINT('',#432);
#152=VERTEX_POINT('',#440);
#153=LINE('',#320,#178);
#154=LINE('',#323,#179);
#155=LINE('',#325,#180);
#156=LINE('',#327,#181);
#157=LINE('',#329,#182);
#158=LINE('',#331,#183);
#159=LINE('',#333,#184);
#160=LINE('',#335,#185);
#161=LINE('',#337,#186);
#162=LINE('',#340,#187);
#163=LINE('',#342,#188);
#164=LINE('',#344,#189);
#165=LINE('',#346,#190);
#166=LINE('',#347,#191);
#167=LINE('',#349,#192);
#168=LINE('',#350,#193);
#169=LINE('',#363,#194);
#170=LINE('',#371,#195);
#171=LINE('',#391,#196);
#172=LINE('',#416,#197);
#173=LINE('',#418,#198);
#174=LINE('',#420,#199);
#175=LINE('',#431,#200);
#176=LINE('',#439,#201);
#177=LINE('',#441,#202);
#178=VECTOR('',#277,1000.);
#179=VECTOR('',#278,1000.);
#180=VECTOR('',#279,1000.);
#181=VECTOR('',#280,1000.);
#182=VECTOR('',#281,1000.);
#183=VECTOR('',#282,1000.);
#184=VECTOR('',#283,1000.);
#185=VECTOR('',#284,1000.);
#186=VECTOR('',#287,1000.);
#187=VECTOR('',#288,1000.);
#188=VECTOR('',#289,1000.);
#189=VECTOR('',#290,1000.);
#190=VECTOR('',#293,1000.);
#191=VECTOR('',#294,1000.);
#192=VECTOR('',#297,1000.);
#193=VECTOR('',#298,1000.);
#194=VECTOR('',#301,1000.);
#195=VECTOR('',#302,1000.);
#196=VECTOR('',#303,1000.);
#197=VECTOR('',#304,1000.);
#198=VECTOR('',#307,1000.);
#199=VECTOR('',#308,1000.);
#200=VECTOR('',#309,1000.);
#201=VECTOR('',#312,1000.);
#202=VECTOR('',#313,1000.);
#203=EDGE_LOOP('',(#32,#33,#34,#35,#36,#37,#38,#39));
#204=EDGE_LOOP('',(#40,#41,#42,#43));
#205=EDGE_LOOP('',(#44,#45,#46,#47));
#206=EDGE_LOOP('',(#48,#49,#50,#51));
#207=EDGE_LOOP('',(#52,#53,#54,#55,#56,#57,#58,#59,#60,#61,#62));
#208=EDGE_LOOP('',(#63,#64,#65,#66));
#209=EDGE_LOOP('',(#67,#68,#69,#70));
#210=EDGE_LOOP('',(#71,#72,#73,#74));
#211=EDGE_LOOP('',(#75,#76,#77,#78));
#212=EDGE_LOOP('',(#79,#80,#81,#82));
#213=EDGE_LOOP('',(#83,#84,#85,#86));
#214=EDGE_LOOP('',(#87,#88,#89,#90));
#215=EDGE_LOOP('',(#91,#92,#93,#94,#95,#96,#97));
#216=FACE_BOUND('',#203,.T.);
#217=FACE_BOUND('',#204,.T.);
#218=FACE_BOUND('',#205,.T.);
#219=FACE_BOUND('',#206,.T.);
#220=FACE_BOUND('',#207,.T.);
#221=FACE_BOUND('',#208,.T.);
#222=FACE_BOUND('',#209,.T.);
#223=FACE_BOUND('',#210,.T.);
#224=FACE_BOUND('',#211,.T.);
#225=FACE_BOUND('',#212,.T.);
#226=FACE_BOUND('',#213,.T.);
#227=FACE_BOUND('',#214,.T.);
#228=FACE_BOUND('',#215,.T.);
#229=PLANE('',#264);
#230=PLANE('',#265);
#231=PLANE('',#266);
#232=PLANE('',#267);
#233=PLANE('',#268);
#234=PLANE('',#269);
#235=PLANE('',#270);
#236=PLANE('',#271);
#237=PLANE('',#272);
#238=ADVANCED_FACE('',(#216),#229,.F.);
#239=ADVANCED_FACE('',(#217),#230,.F.);
#240=ADVANCED_FACE('',(#218),#231,.F.);
#241=ADVANCED_FACE('',(#219),#232,.F.);
#242=ADVANCED_FACE('',(#220),#233,.F.);
#243=ADVANCED_FACE('',(#221),#20,.T.);
#244=ADVANCED_FACE('',(#222),#21,.T.);
#245=ADVANCED_FACE('',(#223),#234,.T.);
#246=ADVANCED_FACE('',(#224),#22,.T.);
#247=ADVANCED_FACE('',(#225),#235,.T.);
#248=ADVANCED_FACE('',(#226),#23,.T.);
#249=ADVANCED_FACE('',(#227),#236,.T.);
#250=ADVANCED_FACE('',(#228),#237,.T.);
#251=CLOSED_SHELL('',(#238,#239,#240,#241,#242,#243,#244,#245,#246,#247,
#248,#249,#250));
#252=STYLED_ITEM('',(#253),#260);
#253=PRESENTATION_STYLE_ASSIGNMENT((#254));
#254=SURFACE_STYLE_USAGE(.BOTH.,#255);
#255=SURFACE_SIDE_STYLE('',(#256));
#256=SURFACE_STYLE_FILL_AREA(#257);
#257=FILL_AREA_STYLE('',(#258));
#258=FILL_AREA_STYLE_COLOUR('',#259);
#259=COLOUR_RGB('',0.506983280181885,0.531564235687256,0.550000011920929);
#260=MANIFOLD_SOLID_BREP('',#251);
#261=SHAPE_DEFINITION_REPRESENTATION(#471,#262);
#262=SHAPE_REPRESENTATION('FlareHolderSlot01',(#263),#466);
#263=AXIS2_PLACEMENT_3D('',#318,#273,#274);
#264=AXIS2_PLACEMENT_3D('',#319,#275,#276);
#265=AXIS2_PLACEMENT_3D('',#336,#285,#286);
#266=AXIS2_PLACEMENT_3D('',#345,#291,#292);
#267=AXIS2_PLACEMENT_3D('',#348,#295,#296);
#268=AXIS2_PLACEMENT_3D('',#351,#299,#300);
#269=AXIS2_PLACEMENT_3D('',#417,#305,#306);
#270=AXIS2_PLACEMENT_3D('',#438,#310,#311);
#271=AXIS2_PLACEMENT_3D('',#463,#314,#315);
#272=AXIS2_PLACEMENT_3D('',#464,#316,#317);
#273=DIRECTION('',(0.,0.,1.));
#274=DIRECTION('',(1.,0.,0.));
#275=DIRECTION('',(0.,1.,-1.06957138467757E-16));
#276=DIRECTION('',(0.,1.06957138467757E-16,1.));
#277=DIRECTION('',(1.,0.,0.));
#278=DIRECTION('',(0.,1.06957138467757E-16,1.));
#279=DIRECTION('',(1.,0.,0.));
#280=DIRECTION('',(2.80257614183949E-13,-1.06957138467757E-16,-1.));
#281=DIRECTION('',(1.,0.,0.));
#282=DIRECTION('',(0.,1.06957138467757E-16,1.));
#283=DIRECTION('',(1.,0.,0.));
#284=DIRECTION('',(-2.80257614183949E-13,1.06957138467757E-16,1.));
#285=DIRECTION('',(0.,-1.,0.));
#286=DIRECTION('',(0.,0.,-1.));
#287=DIRECTION('',(1.,0.,0.));
#288=DIRECTION('',(2.80257614183949E-13,-1.06957138467757E-16,-1.));
#289=DIRECTION('',(1.,0.,0.));
#290=DIRECTION('',(0.,0.,-1.));
#291=DIRECTION('',(0.,0.,1.));
#292=DIRECTION('',(1.,0.,0.));
#293=DIRECTION('',(0.,-1.,0.));
#294=DIRECTION('',(-2.99927121911166E-29,-1.,1.06957138467757E-16));
#295=DIRECTION('',(0.,0.,-1.));
#296=DIRECTION('',(-1.,0.,0.));
#297=DIRECTION('',(0.,1.,0.));
#298=DIRECTION('',(-2.99927121911166E-29,-1.,1.06957138467757E-16));
#299=DIRECTION('',(-1.,0.,0.));
#300=DIRECTION('',(0.,0.,1.));
#301=DIRECTION('',(0.,0.707106781186548,-0.707106781186548));
#302=DIRECTION('',(0.,4.66387619637173E-17,1.));
#303=DIRECTION('',(1.,0.,0.));
#304=DIRECTION('',(1.,0.,0.));
#305=DIRECTION('',(0.,1.,-4.66387619637173E-17));
#306=DIRECTION('',(0.,4.66387619637173E-17,1.));
#307=DIRECTION('',(1.,0.,0.));
#308=DIRECTION('',(0.,-4.66387619637173E-17,-1.));
#309=DIRECTION('',(1.,0.,0.));
#310=DIRECTION('',(0.,-0.707106781186547,-0.707106781186547));
#311=DIRECTION('',(0.,0.707106781186548,-0.707106781186548));
#312=DIRECTION('',(1.,0.,0.));
#313=DIRECTION('',(0.,-0.707106781186548,0.707106781186548));
#314=DIRECTION('',(-1.,1.71597442007176E-32,-2.80257614183949E-13));
#315=DIRECTION('',(-2.80257614183949E-13,0.,1.));
#316=DIRECTION('',(1.,-1.71597442007176E-32,2.80257614183949E-13));
#317=DIRECTION('',(2.80257614183949E-13,0.,-1.));
#318=CARTESIAN_POINT('',(0.,0.,0.));
#319=CARTESIAN_POINT('',(7.53138181675877,-4.,-7.53955447776536));
#320=CARTESIAN_POINT('',(19.5313818167604,-4.,4.61108801788765));
#321=CARTESIAN_POINT('',(19.5313818167604,-4.,4.61108801788765));
#322=CARTESIAN_POINT('',(7.53138181675877,-4.,4.61108801788765));
#323=CARTESIAN_POINT('',(19.5313818167604,-4.,-7.53955447776536));
#324=CARTESIAN_POINT('',(19.5313818167604,-4.,8.67931132986608));
#325=CARTESIAN_POINT('',(7.53138181675877,-4.,8.67931132986608));
#326=CARTESIAN_POINT('',(6.53138181675877,-4.,8.6793113298658));
#327=CARTESIAN_POINT('',(6.53138181675877,-4.,8.6793113298658));
#328=CARTESIAN_POINT('',(6.53138181676332,-4.,-7.53955447776564));
#329=CARTESIAN_POINT('',(7.53138181675877,-4.,-7.53955447776536));
#330=CARTESIAN_POINT('',(19.5313818167604,-4.,-7.53955447776536));
#331=CARTESIAN_POINT('',(19.5313818167604,-4.,-7.53955447776536));
#332=CARTESIAN_POINT('',(19.5313818167604,-4.,2.55215156325268));
#333=CARTESIAN_POINT('',(7.53138181675877,-4.,2.55215156325268));
#334=CARTESIAN_POINT('',(7.53138181675877,-4.,2.55215156325268));
#335=CARTESIAN_POINT('',(7.53138181676332,-4.,-7.53955447776535));
#336=CARTESIAN_POINT('',(7.53138181675877,16.1591451422264,8.67931132986608));
#337=CARTESIAN_POINT('',(7.53138181675877,16.1591451422264,-7.53955447776536));
#338=CARTESIAN_POINT('',(6.53138181676332,16.1591451422264,-7.53955447776564));
#339=CARTESIAN_POINT('',(19.5313818167604,16.1591451422264,-7.53955447776536));
#340=CARTESIAN_POINT('',(6.53138181675877,16.1591451422264,8.6793113298658));
#341=CARTESIAN_POINT('',(6.53138181675877,16.1591451422264,8.6793113298658));
#342=CARTESIAN_POINT('',(7.53138181675877,16.1591451422264,8.67931132986608));
#343=CARTESIAN_POINT('',(19.5313818167604,16.1591451422264,8.67931132986608));
#344=CARTESIAN_POINT('',(19.5313818167604,16.1591451422264,8.67931132986608));
#345=CARTESIAN_POINT('',(7.53138181675877,16.1591451422264,-7.53955447776536));
#346=CARTESIAN_POINT('',(19.5313818167604,16.1591451422264,-7.53955447776536));
#347=CARTESIAN_POINT('',(6.53138181676332,12.0335879814788,-7.53955447776564));
#348=CARTESIAN_POINT('',(7.53138181675877,-2.17220684764446,8.67931132986608));
#349=CARTESIAN_POINT('',(19.5313818167604,-2.17220684764446,8.67931132986608));
#350=CARTESIAN_POINT('',(6.53138181675877,12.0335879814788,8.6793113298658));
#351=CARTESIAN_POINT('',(19.5313818167604,0.,0.));
#352=CARTESIAN_POINT('',(19.5313818167604,-8.73528732305594,2.318848618188));
#353=CARTESIAN_POINT('',(19.5313818167604,-8.06089415814171,3.59462214760199));
#354=CARTESIAN_POINT('',(19.5313818167604,-5.14913171712307,4.60237126479073));
#355=CARTESIAN_POINT('',(19.5313818167604,0.,5.34209596975419));
#356=CARTESIAN_POINT('',(19.5313818167604,0.,5.34209596975419));
#357=CARTESIAN_POINT('',(19.5313818167604,0.,5.34209596975419));
#358=CARTESIAN_POINT('',(19.5313818167604,2.78382735550993,4.14098237836759));
#359=CARTESIAN_POINT('',(19.5313818167604,7.85212785457769,1.95420718104336));
#360=CARTESIAN_POINT('',(19.5313818167604,10.0980474713935,5.60945806276376));
#361=CARTESIAN_POINT('',(19.5313818167604,11.1103676856643,7.25701674121866));
#362=CARTESIAN_POINT('',(19.5313818167604,11.1103676856643,7.25701674121866));
#363=CARTESIAN_POINT('',(19.5313818167604,14.7570167412187,3.61036768566423));
#364=CARTESIAN_POINT('',(19.5313818167604,14.7570167412187,3.61036768566423));
#365=CARTESIAN_POINT('',(19.5313818167604,14.7570167412187,3.61036768566423));
#366=CARTESIAN_POINT('',(19.5313818167604,12.2551999229709,0.819075256881661));
#367=CARTESIAN_POINT('',(19.5313818167604,6.70470375528395,-5.37364749398004));
#368=CARTESIAN_POINT('',(19.5313818167604,2.37702926776317,-5.35328198173395));
#369=CARTESIAN_POINT('',(19.5313818167604,0.,-5.34209596975419));
#370=CARTESIAN_POINT('',(19.5313818167604,0.,-5.34209596975419));
#371=CARTESIAN_POINT('',(19.5313818167604,0.,-5.34209596975419));
#372=CARTESIAN_POINT('',(19.5313818167604,4.04034715840301E-16,3.32097094773005));
#373=CARTESIAN_POINT('',(19.5313818167604,4.04034715840301E-16,3.32097094773005));
#374=CARTESIAN_POINT('',(19.5313818167604,-1.13381810136271,3.15281062445244));
#375=CARTESIAN_POINT('',(19.5313818167604,-2.14155991312028,2.97281537323998));
#376=CARTESIAN_POINT('',(19.5313818167604,-3.96793092088863,2.57682386839052));
#377=CARTESIAN_POINT('',(19.5313818167604,-4.76397194471691,2.35908039037669));
#378=CARTESIAN_POINT('',(19.5313818167604,-6.01917120407722,1.92584932610661));
#379=CARTESIAN_POINT('',(19.5313818167604,-6.47573792486318,1.70627597114572));
#380=CARTESIAN_POINT('',(19.5313818167604,-6.84095212241863,1.47160517114187));
#381=CARTESIAN_POINT('',(19.5313818167604,-6.91292162451638,1.41500671837825));
#382=CARTESIAN_POINT('',(19.5313818167604,-6.95410524461238,1.37869303876179));
#383=CARTESIAN_POINT('',(7.53138181675877,4.04034715840301E-16,3.32097094773005));
#384=CARTESIAN_POINT('',(19.5313818167604,4.04034715840301E-16,3.32097094773005));
#385=CARTESIAN_POINT('',(7.53138181675877,-1.58387876702786,3.08606063435983));
#386=CARTESIAN_POINT('',(19.5313818167604,-1.58387876702786,3.08606063435983));
#387=CARTESIAN_POINT('',(7.53138181675877,-2.922826239624,2.82671155891864));
#388=CARTESIAN_POINT('',(19.5313818167604,-2.922826239624,2.82671155891864));
#389=CARTESIAN_POINT('',(7.53138181675877,-4.00000000001161,2.55215156325357));
#390=CARTESIAN_POINT('',(19.5313818167604,-4.00000000001161,2.55215156325357));
#391=CARTESIAN_POINT('',(-2.14105714714272,4.04034715840301E-16,3.32097094773005));
#392=CARTESIAN_POINT('',(7.53138181675877,4.04034715840301E-16,3.32097094773005));
#393=CARTESIAN_POINT('',(7.53138181675877,4.04034715840301E-16,3.32097094773005));
#394=CARTESIAN_POINT('',(7.53138181675877,-1.13381810136271,3.15281062445244));
#395=CARTESIAN_POINT('',(7.53138181675877,-2.14155991312028,2.97281537323998));
#396=CARTESIAN_POINT('',(7.53138181675877,-3.96793092088863,2.57682386839052));
#397=CARTESIAN_POINT('',(7.53138181675877,-4.76397194471691,2.35908039037669));
#398=CARTESIAN_POINT('',(7.53138181675877,-6.01917120407722,1.92584932610661));
#399=CARTESIAN_POINT('',(7.53138181675877,-6.47573792486318,1.70627597114572));
#400=CARTESIAN_POINT('',(7.53138181675877,-6.84095212241863,1.47160517114187));
#401=CARTESIAN_POINT('',(7.53138181675877,-6.91292162451638,1.41500671837825));
#402=CARTESIAN_POINT('',(7.53138181675877,-6.95410524461238,1.37869303876179));
#403=CARTESIAN_POINT('',(7.53138181675877,-3.99999999949783,4.61108801571071));
#404=CARTESIAN_POINT('',(19.5313818167604,-3.99999999949783,4.61108801571071));
#405=CARTESIAN_POINT('',(7.53138181675877,-2.86450929395312,4.8784577816341));
#406=CARTESIAN_POINT('',(19.5313818167604,-2.86450929395312,4.8784577816341));
#407=CARTESIAN_POINT('',(7.53138181675877,-1.53117596078718,5.12212709964859));
#408=CARTESIAN_POINT('',(19.5313818167604,-1.53117596078718,5.12212709964859));
#409=CARTESIAN_POINT('',(7.53138181675877,0.,5.34209596975419));
#410=CARTESIAN_POINT('',(19.5313818167604,0.,5.34209596975419));
#411=CARTESIAN_POINT('',(7.53138181675877,-8.73528732305594,2.318848618188));
#412=CARTESIAN_POINT('',(7.53138181675877,-8.06089415814171,3.59462214760199));
#413=CARTESIAN_POINT('',(7.53138181675877,-5.14913171712307,4.60237126479073));
#414=CARTESIAN_POINT('',(7.53138181675877,0.,5.34209596975419));
#415=CARTESIAN_POINT('',(7.53138181675877,0.,5.34209596975419));
#416=CARTESIAN_POINT('',(-2.14105714714272,0.,5.34209596975419));
#417=CARTESIAN_POINT('',(-2.14105714714272,0.,-5.34209596975419));
#418=CARTESIAN_POINT('',(-2.14105714714272,0.,-5.34209596975419));
#419=CARTESIAN_POINT('',(7.53138181675877,0.,-5.34209596975419));
#420=CARTESIAN_POINT('',(7.53138181675877,2.49148742320699E-16,-1.16199888866546E-32));
#421=CARTESIAN_POINT('',(7.53138181675877,0.,5.34209596975419));
#422=CARTESIAN_POINT('',(19.5313818167604,0.,5.34209596975419));
#423=CARTESIAN_POINT('',(7.53138181675877,2.78382735550993,4.14098237836759));
#424=CARTESIAN_POINT('',(19.5313818167604,2.78382735550993,4.14098237836759));
#425=CARTESIAN_POINT('',(7.53138181675877,7.85212785457769,1.95420718104336));
#426=CARTESIAN_POINT('',(19.5313818167604,7.85212785457769,1.95420718104336));
#427=CARTESIAN_POINT('',(7.53138181675877,10.0980474713935,5.60945806276376));
#428=CARTESIAN_POINT('',(19.5313818167604,10.0980474713935,5.60945806276376));
#429=CARTESIAN_POINT('',(7.53138181675877,11.1103676856643,7.25701674121866));
#430=CARTESIAN_POINT('',(19.5313818167604,11.1103676856643,7.25701674121866));
#431=CARTESIAN_POINT('',(-2.14105714714272,11.1103676856643,7.25701674121866));
#432=CARTESIAN_POINT('',(7.53138181675877,11.1103676856643,7.25701674121866));
#433=CARTESIAN_POINT('',(7.53138181675877,0.,5.34209596975419));
#434=CARTESIAN_POINT('',(7.53138181675877,2.78382735550993,4.14098237836759));
#435=CARTESIAN_POINT('',(7.53138181675877,7.85212785457769,1.95420718104336));
#436=CARTESIAN_POINT('',(7.53138181675877,10.0980474713935,5.60945806276376));
#437=CARTESIAN_POINT('',(7.53138181675877,11.1103676856643,7.25701674121866));
#438=CARTESIAN_POINT('',(-2.14105714714272,14.7570167412187,3.61036768566423));
#439=CARTESIAN_POINT('',(-2.14105714714272,14.7570167412187,3.61036768566423));
#440=CARTESIAN_POINT('',(7.53138181675877,14.7570167412187,3.61036768566423));
#441=CARTESIAN_POINT('',(7.53138181675877,9.18369221344149,9.18369221344149));
#442=CARTESIAN_POINT('',(7.53138181675877,14.7570167412187,3.61036768566423));
#443=CARTESIAN_POINT('',(19.5313818167604,14.7570167412187,3.61036768566423));
#444=CARTESIAN_POINT('',(7.53138181675877,12.2551999229709,0.819075256881661));
#445=CARTESIAN_POINT('',(19.5313818167604,12.2551999229709,0.819075256881661));
#446=CARTESIAN_POINT('',(7.53138181675877,6.70470375528395,-5.37364749398004));
#447=CARTESIAN_POINT('',(19.5313818167604,6.70470375528395,-5.37364749398004));
#448=CARTESIAN_POINT('',(7.53138181675877,2.37702926776317,-5.35328198173395));
#449=CARTESIAN_POINT('',(19.5313818167604,2.37702926776317,-5.35328198173395));
#450=CARTESIAN_POINT('',(7.53138181675877,0.,-5.34209596975419));
#451=CARTESIAN_POINT('',(19.5313818167604,0.,-5.34209596975419));
#452=CARTESIAN_POINT('',(7.53138181675877,17.2547400166779,6.39709292355191));
#453=CARTESIAN_POINT('',(7.53138181675877,16.4221655915249,5.46818451092268));
#454=CARTESIAN_POINT('',(7.53138181675877,15.5895911663718,4.53927609829345));
#455=CARTESIAN_POINT('',(7.53138181675877,14.7570167412187,3.61036768566423));
#456=CARTESIAN_POINT('',(7.53138181675877,12.2551999229709,0.819075256881661));
#457=CARTESIAN_POINT('',(7.53138181675877,6.70470375528395,-5.37364749398004));
#458=CARTESIAN_POINT('',(7.53138181675877,2.37702926776317,-5.35328198173395));
#459=CARTESIAN_POINT('',(7.53138181675877,0.,-5.34209596975419));
#460=CARTESIAN_POINT('',(7.53138181675877,-0.649151173128117,-5.33904114291728));
#461=CARTESIAN_POINT('',(7.53138181675877,-1.29830234625623,-5.33598631608036));
#462=CARTESIAN_POINT('',(7.53138181675877,-1.94745351938435,-5.33293148924345));
#463=CARTESIAN_POINT('',(6.53138181675877,12.0335879814788,8.6793113298658));
#464=CARTESIAN_POINT('',(7.53138181676332,12.0335879814788,-7.53955447776536));
#465=MECHANICAL_DESIGN_GEOMETRIC_PRESENTATION_REPRESENTATION('',(#252),
#466);
#466=(
GEOMETRIC_REPRESENTATION_CONTEXT(3)
GLOBAL_UNCERTAINTY_ASSIGNED_CONTEXT((#467))
GLOBAL_UNIT_ASSIGNED_CONTEXT((#470,#469,#468))
REPRESENTATION_CONTEXT('FlareHolderSlot01','TOP_LEVEL_ASSEMBLY_PART')
);
#467=UNCERTAINTY_MEASURE_WITH_UNIT(LENGTH_MEASURE(0.005),#470,
'DISTANCE_ACCURACY_VALUE','Maximum Tolerance applied to model');
#468=(
NAMED_UNIT(*)
SI_UNIT($,.STERADIAN.)
SOLID_ANGLE_UNIT()
);
#469=(
NAMED_UNIT(*)
PLANE_ANGLE_UNIT()
SI_UNIT($,.RADIAN.)
);
#470=(
LENGTH_UNIT()
NAMED_UNIT(*)
SI_UNIT(.MILLI.,.METRE.)
);
#471=PRODUCT_DEFINITION_SHAPE('','',#472);
#472=PRODUCT_DEFINITION('','',#474,#473);
#473=PRODUCT_DEFINITION_CONTEXT('',#480,'design');
#474=PRODUCT_DEFINITION_FORMATION_WITH_SPECIFIED_SOURCE('','',#476,
 .NOT_KNOWN.);
#475=PRODUCT_RELATED_PRODUCT_CATEGORY('','',(#476));
#476=PRODUCT('FlareHolderSlot01','FlareHolderSlot01',
'FlareHolderSlot01',(#478));
#477=PRODUCT_CATEGORY('','');
#478=PRODUCT_CONTEXT('',#480,'mechanical');
#479=APPLICATION_PROTOCOL_DEFINITION('international standard',
'automotive_design',2010,#480);
#480=APPLICATION_CONTEXT(
'core data for automotive mechanical design processes');
ENDSEC;
END-ISO-10303-21;
