ISO-10303-21;
HEADER;
/* Generated by software containing ST-Developer
 * from STEP Tools, Inc. (www.steptools.com) 
 */
/* OPTION: strings as raw bytes, not using required /X/ escapes */

FILE_DESCRIPTION(
/* description */ ('Unknown'),
/* implementation_level */ '2;1');

FILE_NAME(
/* name */ 'FlareHolder03',
/* time_stamp */ '2023-05-24T18:03:22+01:00',
/* author */ ('Unknown'),
/* organization */ ('Unknown'),
/* preprocessor_version */ 'ST-DEVELOPER v18.102',
/* originating_system */ 'Solid Edge',
/* authorisation */ 'Unknown');

FILE_SCHEMA (('AUTOMOTIVE_DESIGN {1 0 10303 214 3 1 1}'));
ENDSEC;

DATA;
#10=PROPERTY_DEFINITION_REPRESENTATION(#14,#12);
#11=PROPERTY_DEFINITION_REPRESENTATION(#15,#13);
#12=REPRESENTATION('',(#16),#742);
#13=REPRESENTATION('',(#17),#742);
#14=PROPERTY_DEFINITION('pmi validation property','',#747);
#15=PROPERTY_DEFINITION('pmi validation property','',#747);
#16=VALUE_REPRESENTATION_ITEM('number of annotations',COUNT_MEASURE(0.));
#17=VALUE_REPRESENTATION_ITEM('number of views',COUNT_MEASURE(0.));
#18=CYLINDRICAL_SURFACE('',#236,2.55308312793304);
#19=CYLINDRICAL_SURFACE('',#237,2.5709564370474);
#20=LINE('',#707,#33);
#21=LINE('',#710,#34);
#22=LINE('',#712,#35);
#23=LINE('',#714,#36);
#24=LINE('',#716,#37);
#25=LINE('',#718,#38);
#26=LINE('',#720,#39);
#27=LINE('',#726,#40);
#28=LINE('',#728,#41);
#29=LINE('',#730,#42);
#30=LINE('',#731,#43);
#31=LINE('',#733,#44);
#32=LINE('',#734,#45);
#33=VECTOR('',#250,1000.);
#34=VECTOR('',#251,1000.);
#35=VECTOR('',#252,1000.);
#36=VECTOR('',#253,1000.);
#37=VECTOR('',#256,1000.);
#38=VECTOR('',#257,1000.);
#39=VECTOR('',#258,1000.);
#40=VECTOR('',#265,1000.);
#41=VECTOR('',#266,1000.);
#42=VECTOR('',#267,1000.);
#43=VECTOR('',#268,1000.);
#44=VECTOR('',#271,1000.);
#45=VECTOR('',#272,1000.);
#46=B_SPLINE_CURVE_WITH_KNOTS('',3,(#632,#633,#634,#635,#636,#637,#638,
#639,#640,#641,#642,#643,#644,#645,#646,#647,#648,#649,#650,#651,#652,#653,
#654,#655,#656,#657,#658,#659,#660,#661,#662,#663,#664,#665,#666),
 .UNSPECIFIED.,.T.,.F.,(1,1,1,1,1,1,1,1,1,1,1,1,1,1,1,1,1,1,1,1,1,1,1,1,
1,1,1,1,1,1,1,1,1,1,1,1,1,1,1),(-0.0953947368421053,-0.0641447368421053,
-0.0328947368421053,0.,0.0296875,0.060859375,0.09210546875,0.1233552734375,
0.154605263671875,0.185855263183594,0.21710526315918,0.248355263157959,
0.279605263157898,0.310855263157895,0.342105263157895,0.373355263157895,
0.404605263157895,0.435855263157895,0.467105263157895,0.498355263157895,
0.529605263157895,0.560855263157895,0.592105263157895,0.623355263157895,
0.654605263157895,0.685855263157895,0.717105263157895,0.748355263157895,
0.779605263157895,0.810855263157895,0.842105263157895,0.873355263157895,
0.904605263157895,0.935855263157895,0.967105263157895,1.,1.0296875,1.060859375,
1.09210546875),.UNSPECIFIED.);
#47=B_SPLINE_CURVE_WITH_KNOTS('',3,(#668,#669,#670,#671),.UNSPECIFIED.,
 .F.,.F.,(4,4),(0.,1.),.UNSPECIFIED.);
#48=B_SPLINE_CURVE_WITH_KNOTS('',3,(#674,#675,#676,#677,#678,#679,#680,
#681,#682,#683,#684,#685,#686,#687,#688),.UNSPECIFIED.,.F.,.F.,(4,1,1,1,
1,1,1,1,1,1,1,1,4),(0.,0.00132531252433113,0.00198796878649669,0.00265062504866226,
0.00331328131082782,0.00397593757299339,0.00530125009732452,0.00662656262165564,
0.00728921888382121,0.00795187514598677,0.00861453140815234,0.0092771876703179,
0.010602500194649),.UNSPECIFIED.);
#49=B_SPLINE_CURVE_WITH_KNOTS('',3,(#690,#691,#692,#693),.UNSPECIFIED.,
 .F.,.F.,(4,4),(0.,1.),.UNSPECIFIED.);
#50=B_SPLINE_CURVE_WITH_KNOTS('',3,(#695,#696,#697,#698,#699,#700,#701,
#702,#703,#704,#705),.UNSPECIFIED.,.F.,.F.,(4,1,1,1,1,1,1,1,4),(0.,0.00107373804066865,
0.00214747608133731,0.00322121412200596,0.00429495216267461,0.00536869020334326,
0.00644242824401192,0.00751616628468057,0.00858990432534922),
 .UNSPECIFIED.);
#51=SHAPE_REPRESENTATION_RELATIONSHIP('','',#220,#52);
#52=ADVANCED_BREP_SHAPE_REPRESENTATION('',(#217,#218),#742);
#53=PLANE('',#224);
#54=PLANE('',#225);
#55=PLANE('',#226);
#56=PLANE('',#227);
#57=PLANE('',#228);
#58=PLANE('',#231);
#59=PLANE('',#232);
#60=PLANE('',#235);
#61=ELLIPSE('',#223,5.5,5.34209596975419);
#62=ELLIPSE('',#229,3.31513369907338,2.5709564370474);
#63=ELLIPSE('',#230,3.29208686385473,2.55308312793304);
#64=ELLIPSE('',#233,3.63588146154284,2.5709564370474);
#65=ELLIPSE('',#234,3.61060478538883,2.55308312793304);
#66=ORIENTED_EDGE('',*,*,#114,.F.);
#67=ORIENTED_EDGE('',*,*,#115,.T.);
#68=ORIENTED_EDGE('',*,*,#114,.T.);
#69=ORIENTED_EDGE('',*,*,#115,.F.);
#70=ORIENTED_EDGE('',*,*,#116,.T.);
#71=ORIENTED_EDGE('',*,*,#117,.F.);
#72=ORIENTED_EDGE('',*,*,#118,.T.);
#73=ORIENTED_EDGE('',*,*,#119,.F.);
#74=ORIENTED_EDGE('',*,*,#120,.F.);
#75=ORIENTED_EDGE('',*,*,#121,.F.);
#76=ORIENTED_EDGE('',*,*,#122,.F.);
#77=ORIENTED_EDGE('',*,*,#123,.T.);
#78=ORIENTED_EDGE('',*,*,#124,.T.);
#79=ORIENTED_EDGE('',*,*,#125,.F.);
#80=ORIENTED_EDGE('',*,*,#124,.F.);
#81=ORIENTED_EDGE('',*,*,#126,.T.);
#82=ORIENTED_EDGE('',*,*,#127,.T.);
#83=ORIENTED_EDGE('',*,*,#128,.F.);
#84=ORIENTED_EDGE('',*,*,#118,.F.);
#85=ORIENTED_EDGE('',*,*,#129,.F.);
#86=ORIENTED_EDGE('',*,*,#130,.T.);
#87=ORIENTED_EDGE('',*,*,#131,.T.);
#88=ORIENTED_EDGE('',*,*,#132,.F.);
#89=ORIENTED_EDGE('',*,*,#127,.F.);
#90=ORIENTED_EDGE('',*,*,#133,.T.);
#91=ORIENTED_EDGE('',*,*,#134,.F.);
#92=ORIENTED_EDGE('',*,*,#131,.F.);
#93=ORIENTED_EDGE('',*,*,#135,.T.);
#94=ORIENTED_EDGE('',*,*,#122,.T.);
#95=ORIENTED_EDGE('',*,*,#120,.T.);
#96=ORIENTED_EDGE('',*,*,#136,.T.);
#97=ORIENTED_EDGE('',*,*,#133,.F.);
#98=ORIENTED_EDGE('',*,*,#126,.F.);
#99=ORIENTED_EDGE('',*,*,#123,.F.);
#100=ORIENTED_EDGE('',*,*,#135,.F.);
#101=ORIENTED_EDGE('',*,*,#130,.F.);
#102=ORIENTED_EDGE('',*,*,#137,.T.);
#103=ORIENTED_EDGE('',*,*,#116,.F.);
#104=ORIENTED_EDGE('',*,*,#121,.T.);
#105=ORIENTED_EDGE('',*,*,#125,.T.);
#106=ORIENTED_EDGE('',*,*,#132,.T.);
#107=ORIENTED_EDGE('',*,*,#134,.T.);
#108=ORIENTED_EDGE('',*,*,#129,.T.);
#109=ORIENTED_EDGE('',*,*,#117,.T.);
#110=ORIENTED_EDGE('',*,*,#137,.F.);
#111=ORIENTED_EDGE('',*,*,#128,.T.);
#112=ORIENTED_EDGE('',*,*,#136,.F.);
#113=ORIENTED_EDGE('',*,*,#119,.T.);
#114=EDGE_CURVE('',#138,#138,#155,.T.);
#115=EDGE_CURVE('',#139,#139,#61,.T.);
#116=EDGE_CURVE('',#140,#140,#46,.T.);
#117=EDGE_CURVE('',#141,#142,#47,.F.);
#118=EDGE_CURVE('',#141,#143,#48,.T.);
#119=EDGE_CURVE('',#144,#143,#49,.F.);
#120=EDGE_CURVE('',#142,#144,#50,.T.);
#121=EDGE_CURVE('',#145,#146,#20,.T.);
#122=EDGE_CURVE('',#147,#145,#21,.T.);
#123=EDGE_CURVE('',#147,#148,#22,.T.);
#124=EDGE_CURVE('',#148,#146,#23,.T.);
#125=EDGE_CURVE('',#146,#149,#24,.T.);
#126=EDGE_CURVE('',#148,#150,#25,.T.);
#127=EDGE_CURVE('',#150,#149,#26,.T.);
#128=EDGE_CURVE('',#143,#151,#62,.T.);
#129=EDGE_CURVE('',#152,#141,#63,.T.);
#130=EDGE_CURVE('',#152,#153,#27,.T.);
#131=EDGE_CURVE('',#153,#154,#28,.T.);
#132=EDGE_CURVE('',#149,#154,#29,.T.);
#133=EDGE_CURVE('',#150,#151,#30,.T.);
#134=EDGE_CURVE('',#154,#145,#31,.T.);
#135=EDGE_CURVE('',#153,#147,#32,.T.);
#136=EDGE_CURVE('',#144,#151,#64,.T.);
#137=EDGE_CURVE('',#152,#142,#65,.T.);
#138=VERTEX_POINT('',#457);
#139=VERTEX_POINT('',#459);
#140=VERTEX_POINT('',#667);
#141=VERTEX_POINT('',#672);
#142=VERTEX_POINT('',#673);
#143=VERTEX_POINT('',#689);
#144=VERTEX_POINT('',#694);
#145=VERTEX_POINT('',#708);
#146=VERTEX_POINT('',#709);
#147=VERTEX_POINT('',#711);
#148=VERTEX_POINT('',#713);
#149=VERTEX_POINT('',#717);
#150=VERTEX_POINT('',#719);
#151=VERTEX_POINT('',#723);
#152=VERTEX_POINT('',#725);
#153=VERTEX_POINT('',#727);
#154=VERTEX_POINT('',#729);
#155=CIRCLE('',#222,2.57857027579);
#156=EDGE_LOOP('',(#66));
#157=EDGE_LOOP('',(#67));
#158=EDGE_LOOP('',(#68));
#159=EDGE_LOOP('',(#69));
#160=EDGE_LOOP('',(#70));
#161=EDGE_LOOP('',(#71,#72,#73,#74));
#162=EDGE_LOOP('',(#75,#76,#77,#78));
#163=EDGE_LOOP('',(#79,#80,#81,#82));
#164=EDGE_LOOP('',(#83,#84,#85,#86,#87,#88,#89,#90));
#165=EDGE_LOOP('',(#91,#92,#93,#94));
#166=EDGE_LOOP('',(#95,#96,#97,#98,#99,#100,#101,#102));
#167=EDGE_LOOP('',(#103));
#168=EDGE_LOOP('',(#104,#105,#106,#107));
#169=EDGE_LOOP('',(#108,#109,#110));
#170=EDGE_LOOP('',(#111,#112,#113));
#171=FACE_BOUND('',#156,.T.);
#172=FACE_BOUND('',#157,.T.);
#173=FACE_BOUND('',#158,.T.);
#174=FACE_BOUND('',#159,.T.);
#175=FACE_BOUND('',#160,.T.);
#176=FACE_BOUND('',#161,.T.);
#177=FACE_BOUND('',#162,.T.);
#178=FACE_BOUND('',#163,.T.);
#179=FACE_BOUND('',#164,.T.);
#180=FACE_BOUND('',#165,.T.);
#181=FACE_BOUND('',#166,.T.);
#182=FACE_BOUND('',#167,.T.);
#183=FACE_BOUND('',#168,.T.);
#184=FACE_BOUND('',#169,.T.);
#185=FACE_BOUND('',#170,.T.);
#186=B_SPLINE_SURFACE_WITH_KNOTS('',3,3,((#286,#287,#288,#289,#290),(#291,
#292,#293,#294,#295),(#296,#297,#298,#299,#300),(#301,#302,#303,#304,#305),
(#306,#307,#308,#309,#310),(#311,#312,#313,#314,#315),(#316,#317,#318,#319,
#320),(#321,#322,#323,#324,#325),(#326,#327,#328,#329,#330),(#331,#332,
#333,#334,#335),(#336,#337,#338,#339,#340),(#341,#342,#343,#344,#345),(#346,
#347,#348,#349,#350),(#351,#352,#353,#354,#355),(#356,#357,#358,#359,#360),
(#361,#362,#363,#364,#365),(#366,#367,#368,#369,#370),(#371,#372,#373,#374,
#375),(#376,#377,#378,#379,#380),(#381,#382,#383,#384,#385),(#386,#387,
#388,#389,#390),(#391,#392,#393,#394,#395),(#396,#397,#398,#399,#400),(#401,
#402,#403,#404,#405),(#406,#407,#408,#409,#410),(#411,#412,#413,#414,#415),
(#416,#417,#418,#419,#420),(#421,#422,#423,#424,#425),(#426,#427,#428,#429,
#430),(#431,#432,#433,#434,#435),(#436,#437,#438,#439,#440),(#441,#442,
#443,#444,#445),(#446,#447,#448,#449,#450),(#451,#452,#453,#454,#455)),
 .UNSPECIFIED.,.T.,.F.,.F.,(2,2,2,2,2,2,2,2,2,2,2,2,2,2,2,2,2,2,2),(4,1,
4),(-0.0625,0.,0.0625,0.125,0.1875,0.25,0.3125,0.375,0.4375,0.5,0.5625,
0.625,0.6875,0.75,0.8125,0.875,0.9375,1.,1.0625),(0.,0.549262490655786,
1.),.UNSPECIFIED.);
#187=B_SPLINE_SURFACE_WITH_KNOTS('',3,3,((#462,#463,#464,#465,#466),(#467,
#468,#469,#470,#471),(#472,#473,#474,#475,#476),(#477,#478,#479,#480,#481),
(#482,#483,#484,#485,#486),(#487,#488,#489,#490,#491),(#492,#493,#494,#495,
#496),(#497,#498,#499,#500,#501),(#502,#503,#504,#505,#506),(#507,#508,
#509,#510,#511),(#512,#513,#514,#515,#516),(#517,#518,#519,#520,#521),(#522,
#523,#524,#525,#526),(#527,#528,#529,#530,#531),(#532,#533,#534,#535,#536),
(#537,#538,#539,#540,#541),(#542,#543,#544,#545,#546),(#547,#548,#549,#550,
#551),(#552,#553,#554,#555,#556),(#557,#558,#559,#560,#561),(#562,#563,
#564,#565,#566),(#567,#568,#569,#570,#571),(#572,#573,#574,#575,#576),(#577,
#578,#579,#580,#581),(#582,#583,#584,#585,#586),(#587,#588,#589,#590,#591),
(#592,#593,#594,#595,#596),(#597,#598,#599,#600,#601),(#602,#603,#604,#605,
#606),(#607,#608,#609,#610,#611),(#612,#613,#614,#615,#616),(#617,#618,
#619,#620,#621),(#622,#623,#624,#625,#626),(#627,#628,#629,#630,#631)),
 .UNSPECIFIED.,.T.,.F.,.F.,(2,2,2,2,2,2,2,2,2,2,2,2,2,2,2,2,2,2,2),(4,1,
4),(-0.0625,0.,0.0625,0.125,0.1875,0.25,0.3125,0.375,0.4375,0.5,0.5625,
0.625,0.6875,0.75,0.8125,0.875,0.9375,1.,1.0625),(0.,0.549262490655786,
1.),.UNSPECIFIED.);
#188=ADVANCED_FACE('',(#171,#172),#186,.T.);
#189=ADVANCED_FACE('',(#173),#53,.T.);
#190=ADVANCED_FACE('',(#174),#54,.F.);
#191=ADVANCED_FACE('',(#175,#176),#187,.T.);
#192=ADVANCED_FACE('',(#177),#55,.T.);
#193=ADVANCED_FACE('',(#178),#56,.T.);
#194=ADVANCED_FACE('',(#179),#57,.T.);
#195=ADVANCED_FACE('',(#180),#58,.T.);
#196=ADVANCED_FACE('',(#181),#59,.F.);
#197=ADVANCED_FACE('',(#182,#183),#60,.T.);
#198=ADVANCED_FACE('',(#184),#18,.F.);
#199=ADVANCED_FACE('',(#185),#19,.F.);
#200=CLOSED_SHELL('',(#188,#189,#190));
#201=CLOSED_SHELL('',(#191,#192,#193,#194,#195,#196,#197,#198,#199));
#202=STYLED_ITEM('',(#204),#217);
#203=STYLED_ITEM('',(#205),#218);
#204=PRESENTATION_STYLE_ASSIGNMENT((#206));
#205=PRESENTATION_STYLE_ASSIGNMENT((#207));
#206=SURFACE_STYLE_USAGE(.BOTH.,#208);
#207=SURFACE_STYLE_USAGE(.BOTH.,#209);
#208=SURFACE_SIDE_STYLE('',(#210));
#209=SURFACE_SIDE_STYLE('',(#211));
#210=SURFACE_STYLE_FILL_AREA(#212);
#211=SURFACE_STYLE_FILL_AREA(#213);
#212=FILL_AREA_STYLE('',(#214));
#213=FILL_AREA_STYLE('',(#215));
#214=FILL_AREA_STYLE_COLOUR('',#216);
#215=FILL_AREA_STYLE_COLOUR('',#216);
#216=COLOUR_RGB('',0.506983280181885,0.531564235687256,0.550000011920929);
#217=MANIFOLD_SOLID_BREP('',#200);
#218=MANIFOLD_SOLID_BREP('',#201);
#219=SHAPE_DEFINITION_REPRESENTATION(#747,#220);
#220=SHAPE_REPRESENTATION('FlareHolder03',(#221),#742);
#221=AXIS2_PLACEMENT_3D('',#285,#238,#239);
#222=AXIS2_PLACEMENT_3D('',#456,#240,#241);
#223=AXIS2_PLACEMENT_3D('',#458,#242,#243);
#224=AXIS2_PLACEMENT_3D('',#460,#244,#245);
#225=AXIS2_PLACEMENT_3D('',#461,#246,#247);
#226=AXIS2_PLACEMENT_3D('',#706,#248,#249);
#227=AXIS2_PLACEMENT_3D('',#715,#254,#255);
#228=AXIS2_PLACEMENT_3D('',#721,#259,#260);
#229=AXIS2_PLACEMENT_3D('',#722,#261,#262);
#230=AXIS2_PLACEMENT_3D('',#724,#263,#264);
#231=AXIS2_PLACEMENT_3D('',#732,#269,#270);
#232=AXIS2_PLACEMENT_3D('',#735,#273,#274);
#233=AXIS2_PLACEMENT_3D('',#736,#275,#276);
#234=AXIS2_PLACEMENT_3D('',#737,#277,#278);
#235=AXIS2_PLACEMENT_3D('',#738,#279,#280);
#236=AXIS2_PLACEMENT_3D('',#739,#281,#282);
#237=AXIS2_PLACEMENT_3D('',#740,#283,#284);
#238=DIRECTION('',(0.,0.,1.));
#239=DIRECTION('',(1.,0.,0.));
#240=DIRECTION('',(0.,0.707106781186548,0.707106781186547));
#241=DIRECTION('',(1.,0.,0.));
#242=DIRECTION('',(0.,1.,0.));
#243=DIRECTION('',(-1.,0.,-1.22464679914735E-16));
#244=DIRECTION('',(0.,0.707106781186548,0.707106781186547));
#245=DIRECTION('',(0.,-0.707106781186547,0.707106781186548));
#246=DIRECTION('',(0.,1.,0.));
#247=DIRECTION('',(0.,0.,1.));
#248=DIRECTION('',(0.,0.,-1.));
#249=DIRECTION('',(-1.,0.,0.));
#250=DIRECTION('',(1.,0.,0.));
#251=DIRECTION('',(0.,-1.,0.));
#252=DIRECTION('',(1.,0.,0.));
#253=DIRECTION('',(0.,-1.,0.));
#254=DIRECTION('',(1.,0.,0.));
#255=DIRECTION('',(0.,0.,-1.));
#256=DIRECTION('',(0.,0.,1.));
#257=DIRECTION('',(0.,0.,1.));
#258=DIRECTION('',(0.,-0.994788032482717,0.101964554768626));
#259=DIRECTION('',(1.74925804721994E-16,0.101964554768626,0.994788032482717));
#260=DIRECTION('',(1.,-1.78362317960217E-17,-1.74014097109849E-16));
#261=DIRECTION('',(1.74925804721994E-16,0.101964554768626,0.994788032482717));
#262=DIRECTION('',(2.14880470434164E-16,-0.994788032482717,0.101964554768626));
#263=DIRECTION('',(1.74925804721994E-16,0.101964554768626,0.994788032482717));
#264=DIRECTION('',(2.14880470434164E-16,-0.994788032482717,0.101964554768626));
#265=DIRECTION('',(-1.,0.,1.75842289020534E-16));
#266=DIRECTION('',(0.,-0.994788032482717,0.101964554768626));
#267=DIRECTION('',(-1.,1.78362317960217E-17,1.74014097109849E-16));
#268=DIRECTION('',(-1.,0.,1.75842289020534E-16));
#269=DIRECTION('',(-1.,0.,0.));
#270=DIRECTION('',(0.,0.,1.));
#271=DIRECTION('',(0.,0.,-1.));
#272=DIRECTION('',(0.,0.,-1.));
#273=DIRECTION('',(0.,-1.,0.));
#274=DIRECTION('',(0.,0.,-1.));
#275=DIRECTION('',(0.,-1.,0.));
#276=DIRECTION('',(0.,0.,-1.));
#277=DIRECTION('',(0.,-1.,0.));
#278=DIRECTION('',(0.,0.,-1.));
#279=DIRECTION('',(0.,-1.,0.));
#280=DIRECTION('',(0.,0.,-1.));
#281=DIRECTION('',(0.,-0.707106781186548,-0.707106781186547));
#282=DIRECTION('',(0.,0.707106781186547,-0.707106781186548));
#283=DIRECTION('',(0.,-0.707106781186548,-0.707106781186547));
#284=DIRECTION('',(0.,0.707106781186547,-0.707106781186548));
#285=CARTESIAN_POINT('',(0.,0.,0.));
#286=CARTESIAN_POINT('',(-5.5,0.,-0.699278727222976));
#287=CARTESIAN_POINT('',(-5.82589701043072,2.55380343905406,-1.22754795095265));
#288=CARTESIAN_POINT('',(-6.41923264862734,7.20331707324555,-2.1893271234189));
#289=CARTESIAN_POINT('',(-3.77184651012909,11.3178089949853,2.90073683834684));
#290=CARTESIAN_POINT('',(-2.57857027579,13.1723648360071,5.19501959087586));
#291=CARTESIAN_POINT('',(-5.5,0.,0.699278727222974));
#292=CARTESIAN_POINT('',(-5.82589701043072,2.60705318421904,0.015248347586283));
#293=CARTESIAN_POINT('',(-6.41923264862734,7.3535145366161,-1.23011318951777));
#294=CARTESIAN_POINT('',(-3.77184651012909,11.0354383993791,3.52779648129859));
#295=CARTESIAN_POINT('',(-2.57857027579,12.6950195908759,5.6723648360071));
#296=CARTESIAN_POINT('',(-5.35684972167573,0.,1.3982823181274));
#297=CARTESIAN_POINT('',(-5.67426450524314,2.63366758105111,0.636402003218964));
#298=CARTESIAN_POINT('',(-6.25215720494021,7.42858372015732,-0.750694927428516));
#299=CARTESIAN_POINT('',(-3.67367544145248,10.8943086519618,3.84120294217807));
#300=CARTESIAN_POINT('',(-2.51145699348854,12.4564408757954,5.91094355108754));
#301=CARTESIAN_POINT('',(-4.80582513594842,0.,2.69038092533109));
#302=CARTESIAN_POINT('',(-5.09058950766812,2.68286393072048,1.78459606651987));
#303=CARTESIAN_POINT('',(-5.60903811204982,7.56734808240048,0.135503193402372));
#304=CARTESIAN_POINT('',(-3.29578813951231,10.6334322380982,4.42053051196503));
#305=CARTESIAN_POINT('',(-2.25311960840019,12.0154313738771,6.35195305300588));
#306=CARTESIAN_POINT('',(-4.39816763318999,0.,3.28296755600365));
#307=CARTESIAN_POINT('',(-4.65877666646813,2.70542652689497,2.31118470885438));
#308=CARTESIAN_POINT('',(-5.13324750274713,7.63098866325139,0.541934371025901));
#309=CARTESIAN_POINT('',(-3.01622058876553,10.5137882153808,4.68622368021225));
#310=CARTESIAN_POINT('',(-2.06199715034279,11.8131741054462,6.55421032143676));
#311=CARTESIAN_POINT('',(-3.38000695986203,0.,4.27189701592138));
#312=CARTESIAN_POINT('',(-3.58028589867186,2.74307978279758,3.18997439918481));
#313=CARTESIAN_POINT('',(-3.94491836896981,7.73719430811772,1.22020104829601));
#314=CARTESIAN_POINT('',(-2.31797590104866,10.31412205242,5.12962180595185));
#315=CARTESIAN_POINT('',(-1.58465190521156,11.4756400456468,6.89174438123621));
#316=CARTESIAN_POINT('',(-2.76990439203995,0.,4.66785074365335));
#317=CARTESIAN_POINT('',(-2.93403231213899,2.75815562757738,3.54182968096365));
#318=CARTESIAN_POINT('',(-3.23284740126529,7.77971758474708,1.49176967896844));
#319=CARTESIAN_POINT('',(-1.89957349354675,10.2341784722855,5.30715230521574));
#320=CARTESIAN_POINT('',(-1.29861693310807,11.3404960595173,7.02688836736564));
#321=CARTESIAN_POINT('',(-1.43961336397604,0.,5.20305551068051));
#322=CARTESIAN_POINT('',(-1.5249162169753,2.77853342282968,4.01742723421916));
#323=CARTESIAN_POINT('',(-1.68022056498823,7.83719566556225,1.85884495956615));
#324=CARTESIAN_POINT('',(-0.987272844154224,10.1261199235599,5.54711764167815));
#325=CARTESIAN_POINT('',(-0.674935314359757,11.1578239426874,7.20956048419561));
#326=CARTESIAN_POINT('',(-0.719948316447662,0.,5.34209596975419));
#327=CARTESIAN_POINT('',(-0.762608135355828,2.78382735550993,4.14098237836759));
#328=CARTESIAN_POINT('',(-0.840275588775472,7.85212785457769,1.95420718104336));
#329=CARTESIAN_POINT('',(-0.493733553612077,10.0980474713935,5.60945806276376));
#330=CARTESIAN_POINT('',(-0.337534059799453,11.1103676856643,7.25701674121866));
#331=CARTESIAN_POINT('',(0.71994831644766,0.,5.34209596975419));
#332=CARTESIAN_POINT('',(0.762608135355829,2.78382735550993,4.14098237836759));
#333=CARTESIAN_POINT('',(0.840275588775477,7.85212785457769,1.95420718104336));
#334=CARTESIAN_POINT('',(0.493733553612078,10.0980474713935,5.60945806276376));
#335=CARTESIAN_POINT('',(0.337534059799452,11.1103676856643,7.25701674121866));
#336=CARTESIAN_POINT('',(1.43961336397604,0.,5.20305551068051));
#337=CARTESIAN_POINT('',(1.5249162169753,2.77853342282968,4.01742723421916));
#338=CARTESIAN_POINT('',(1.68022056498823,7.83719566556225,1.85884495956614));
#339=CARTESIAN_POINT('',(0.987272844154227,10.1261199235599,5.54711764167815));
#340=CARTESIAN_POINT('',(0.674935314359759,11.1578239426874,7.20956048419561));
#341=CARTESIAN_POINT('',(2.76990439203994,0.,4.66785074365335));
#342=CARTESIAN_POINT('',(2.93403231213899,2.75815562757738,3.54182968096365));
#343=CARTESIAN_POINT('',(3.23284740126529,7.77971758474708,1.49176967896844));
#344=CARTESIAN_POINT('',(1.89957349354675,10.2341784722855,5.30715230521574));
#345=CARTESIAN_POINT('',(1.29861693310807,11.3404960595173,7.02688836736564));
#346=CARTESIAN_POINT('',(3.38000695986203,0.,4.27189701592138));
#347=CARTESIAN_POINT('',(3.58028589867186,2.74307978279758,3.1899743991848));
#348=CARTESIAN_POINT('',(3.94491836896982,7.73719430811772,1.22020104829601));
#349=CARTESIAN_POINT('',(2.31797590104866,10.31412205242,5.12962180595185));
#350=CARTESIAN_POINT('',(1.58465190521155,11.4756400456468,6.89174438123621));
#351=CARTESIAN_POINT('',(4.39816763318999,0.,3.28296755600365));
#352=CARTESIAN_POINT('',(4.65877666646813,2.70542652689497,2.31118470885438));
#353=CARTESIAN_POINT('',(5.13324750274714,7.63098866325139,0.541934371025895));
#354=CARTESIAN_POINT('',(3.01622058876553,10.5137882153808,4.68622368021225));
#355=CARTESIAN_POINT('',(2.06199715034279,11.8131741054462,6.55421032143676));
#356=CARTESIAN_POINT('',(4.80582513594842,0.,2.69038092533109));
#357=CARTESIAN_POINT('',(5.09058950766812,2.68286393072048,1.78459606651987));
#358=CARTESIAN_POINT('',(5.60903811204982,7.56734808240048,0.135503193402368));
#359=CARTESIAN_POINT('',(3.29578813951231,10.6334322380982,4.42053051196503));
#360=CARTESIAN_POINT('',(2.25311960840019,12.0154313738771,6.35195305300588));
#361=CARTESIAN_POINT('',(5.35684972167573,0.,1.39828231812739));
#362=CARTESIAN_POINT('',(5.67426450524314,2.63366758105111,0.636402003218962));
#363=CARTESIAN_POINT('',(6.25215720494021,7.42858372015732,-0.75069492742852));
#364=CARTESIAN_POINT('',(3.67367544145248,10.8943086519618,3.84120294217807));
#365=CARTESIAN_POINT('',(2.51145699348854,12.4564408757954,5.91094355108754));
#366=CARTESIAN_POINT('',(5.5,0.,0.699278727222976));
#367=CARTESIAN_POINT('',(5.82589701043072,2.60705318421904,0.015248347586283));
#368=CARTESIAN_POINT('',(6.41923264862734,7.3535145366161,-1.23011318951777));
#369=CARTESIAN_POINT('',(3.77184651012909,11.0354383993791,3.52779648129859));
#370=CARTESIAN_POINT('',(2.57857027579,12.6950195908759,5.6723648360071));
#371=CARTESIAN_POINT('',(5.5,0.,-0.699278727222974));
#372=CARTESIAN_POINT('',(5.82589701043072,2.55380343905406,-1.22754795095265));
#373=CARTESIAN_POINT('',(6.41923264862734,7.20331707324555,-2.1893271234189));
#374=CARTESIAN_POINT('',(3.77184651012909,11.3178089949853,2.90073683834684));
#375=CARTESIAN_POINT('',(2.57857027579,13.1723648360071,5.19501959087587));
#376=CARTESIAN_POINT('',(5.35684972167573,0.,-1.3982823181274));
#377=CARTESIAN_POINT('',(5.67426450524314,2.52718904222199,-1.84870160658533));
#378=CARTESIAN_POINT('',(6.25215720494021,7.12824788970433,-2.66874538550815));
#379=CARTESIAN_POINT('',(3.67367544145248,11.4589387424026,2.58733037746736));
#380=CARTESIAN_POINT('',(2.51145699348854,13.4109435510875,4.95644087579542));
#381=CARTESIAN_POINT('',(4.80582513594842,0.,-2.6903809253311));
#382=CARTESIAN_POINT('',(5.09058950766812,2.47799269255262,-2.99689566988624));
#383=CARTESIAN_POINT('',(5.60903811204982,6.98948352746117,-3.55494350633904));
#384=CARTESIAN_POINT('',(3.29578813951231,11.7198151562662,2.0080028076804));
#385=CARTESIAN_POINT('',(2.25311960840019,13.8519530530059,4.51543137387709));
#386=CARTESIAN_POINT('',(4.39816763318999,0.,-3.28296755600365));
#387=CARTESIAN_POINT('',(4.65877666646813,2.45543009637813,-3.52348431222075));
#388=CARTESIAN_POINT('',(5.13324750274713,6.92584294661026,-3.96137468396258));
#389=CARTESIAN_POINT('',(3.01622058876553,11.8394591789835,1.74230963943317));
#390=CARTESIAN_POINT('',(2.06199715034279,14.0542103214368,4.31317410544621));
#391=CARTESIAN_POINT('',(3.38000695986203,0.,-4.27189701592137));
#392=CARTESIAN_POINT('',(3.58028589867186,2.41777684047552,-4.40227400255117));
#393=CARTESIAN_POINT('',(3.94491836896981,6.81963730174392,-4.63964136123269));
#394=CARTESIAN_POINT('',(2.31797590104867,12.0391253419444,1.29891151369358));
#395=CARTESIAN_POINT('',(1.58465190521156,14.3917443812362,3.97564004564676));
#396=CARTESIAN_POINT('',(2.76990439203995,0.,-4.66785074365335));
#397=CARTESIAN_POINT('',(2.93403231213899,2.40270099569572,-4.75412928433002));
#398=CARTESIAN_POINT('',(3.23284740126528,6.77711402511457,-4.91120999190512));
#399=CARTESIAN_POINT('',(1.89957349354675,12.1190689220788,1.12138101442968));
#400=CARTESIAN_POINT('',(1.29861693310807,14.5268883673656,3.84049605951733));
#401=CARTESIAN_POINT('',(1.43961336397604,0.,-5.20305551068051));
#402=CARTESIAN_POINT('',(1.5249162169753,2.38232320044342,-5.22972683758553));
#403=CARTESIAN_POINT('',(1.68022056498822,6.7196359442994,-5.27828527250282));
#404=CARTESIAN_POINT('',(0.987272844154223,12.2271274708044,0.881415677967278));
#405=CARTESIAN_POINT('',(0.674935314359759,14.7095604841956,3.65782394268736));
#406=CARTESIAN_POINT('',(0.719948316447662,0.,-5.34209596975419));
#407=CARTESIAN_POINT('',(0.762608135355829,2.37702926776317,-5.35328198173395));
#408=CARTESIAN_POINT('',(0.840275588775474,6.70470375528395,-5.37364749398004));
#409=CARTESIAN_POINT('',(0.493733553612076,12.2551999229709,0.819075256881661));
#410=CARTESIAN_POINT('',(0.337534059799451,14.7570167412187,3.61036768566431));
#411=CARTESIAN_POINT('',(-0.719948316447659,0.,-5.34209596975419));
#412=CARTESIAN_POINT('',(-0.762608135355827,2.37702926776317,-5.35328198173395));
#413=CARTESIAN_POINT('',(-0.840275588775476,6.70470375528395,-5.37364749398004));
#414=CARTESIAN_POINT('',(-0.493733553612079,12.2551999229709,0.819075256881661));
#415=CARTESIAN_POINT('',(-0.337534059799455,14.7570167412187,3.61036768566431));
#416=CARTESIAN_POINT('',(-1.43961336397604,0.,-5.20305551068051));
#417=CARTESIAN_POINT('',(-1.5249162169753,2.38232320044342,-5.22972683758553));
#418=CARTESIAN_POINT('',(-1.68022056498823,6.7196359442994,-5.27828527250282));
#419=CARTESIAN_POINT('',(-0.987272844154223,12.2271274708044,0.881415677967278));
#420=CARTESIAN_POINT('',(-0.674935314359755,14.7095604841956,3.65782394268736));
#421=CARTESIAN_POINT('',(-2.76990439203995,0.,-4.66785074365335));
#422=CARTESIAN_POINT('',(-2.93403231213899,2.40270099569572,-4.75412928433002));
#423=CARTESIAN_POINT('',(-3.23284740126529,6.77711402511457,-4.91120999190511));
#424=CARTESIAN_POINT('',(-1.89957349354675,12.1190689220788,1.12138101442968));
#425=CARTESIAN_POINT('',(-1.29861693310807,14.5268883673656,3.84049605951733));
#426=CARTESIAN_POINT('',(-3.38000695986203,0.,-4.27189701592138));
#427=CARTESIAN_POINT('',(-3.58028589867186,2.41777684047552,-4.40227400255117));
#428=CARTESIAN_POINT('',(-3.94491836896982,6.81963730174392,-4.63964136123269));
#429=CARTESIAN_POINT('',(-2.31797590104867,12.0391253419444,1.29891151369358));
#430=CARTESIAN_POINT('',(-1.58465190521156,14.3917443812362,3.97564004564676));
#431=CARTESIAN_POINT('',(-4.39816763318999,0.,-3.28296755600365));
#432=CARTESIAN_POINT('',(-4.65877666646813,2.45543009637813,-3.52348431222075));
#433=CARTESIAN_POINT('',(-5.13324750274713,6.92584294661026,-3.96137468396257));
#434=CARTESIAN_POINT('',(-3.01622058876553,11.8394591789835,1.74230963943318));
#435=CARTESIAN_POINT('',(-2.06199715034279,14.0542103214368,4.31317410544621));
#436=CARTESIAN_POINT('',(-4.80582513594842,0.,-2.6903809253311));
#437=CARTESIAN_POINT('',(-5.09058950766812,2.47799269255262,-2.99689566988624));
#438=CARTESIAN_POINT('',(-5.60903811204982,6.98948352746117,-3.55494350633904));
#439=CARTESIAN_POINT('',(-3.29578813951231,11.7198151562662,2.0080028076804));
#440=CARTESIAN_POINT('',(-2.25311960840019,13.8519530530059,4.51543137387709));
#441=CARTESIAN_POINT('',(-5.35684972167573,0.,-1.3982823181274));
#442=CARTESIAN_POINT('',(-5.67426450524314,2.52718904222199,-1.84870160658533));
#443=CARTESIAN_POINT('',(-6.25215720494021,7.12824788970433,-2.66874538550815));
#444=CARTESIAN_POINT('',(-3.67367544145248,11.4589387424026,2.58733037746736));
#445=CARTESIAN_POINT('',(-2.51145699348854,13.4109435510875,4.95644087579543));
#446=CARTESIAN_POINT('',(-5.5,0.,-0.699278727222976));
#447=CARTESIAN_POINT('',(-5.82589701043072,2.55380343905406,-1.22754795095265));
#448=CARTESIAN_POINT('',(-6.41923264862734,7.20331707324555,-2.1893271234189));
#449=CARTESIAN_POINT('',(-3.77184651012909,11.3178089949853,2.90073683834684));
#450=CARTESIAN_POINT('',(-2.57857027579,13.1723648360071,5.19501959087586));
#451=CARTESIAN_POINT('',(-5.5,0.,0.699278727222974));
#452=CARTESIAN_POINT('',(-5.82589701043072,2.60705318421904,0.015248347586283));
#453=CARTESIAN_POINT('',(-6.41923264862734,7.3535145366161,-1.23011318951777));
#454=CARTESIAN_POINT('',(-3.77184651012909,11.0354383993791,3.52779648129859));
#455=CARTESIAN_POINT('',(-2.57857027579,12.6950195908759,5.6723648360071));
#456=CARTESIAN_POINT('',(0.,12.9336922134415,5.43369221344148));
#457=CARTESIAN_POINT('',(-2.57857027579,12.9336922134415,5.43369221344148));
#458=CARTESIAN_POINT('',(0.,0.,0.));
#459=CARTESIAN_POINT('',(-5.5,0.,-6.50521303491303E-16));
#460=CARTESIAN_POINT('',(0.,12.9336922134415,5.43369221344148));
#461=CARTESIAN_POINT('',(0.,0.,0.));
#462=CARTESIAN_POINT('',(28.8882151126491,0.,-0.699278727222976));
#463=CARTESIAN_POINT('',(29.2141121230799,2.55380343905406,-1.22754795095265));
#464=CARTESIAN_POINT('',(29.8074477612765,7.20331707324555,-2.1893271234189));
#465=CARTESIAN_POINT('',(27.1600616227782,11.3178089949853,2.90073683834684));
#466=CARTESIAN_POINT('',(25.9667853884391,13.1723648360071,5.19501959087586));
#467=CARTESIAN_POINT('',(28.8882151126491,0.,0.699278727222974));
#468=CARTESIAN_POINT('',(29.2141121230799,2.60705318421904,0.015248347586283));
#469=CARTESIAN_POINT('',(29.8074477612765,7.3535145366161,-1.23011318951777));
#470=CARTESIAN_POINT('',(27.1600616227782,11.0354383993791,3.52779648129859));
#471=CARTESIAN_POINT('',(25.9667853884391,12.6950195908759,5.6723648360071));
#472=CARTESIAN_POINT('',(28.7450648343249,0.,1.3982823181274));
#473=CARTESIAN_POINT('',(29.0624796178923,2.63366758105111,0.636402003218964));
#474=CARTESIAN_POINT('',(29.6403723175894,7.42858372015732,-0.750694927428516));
#475=CARTESIAN_POINT('',(27.0618905541016,10.8943086519618,3.84120294217807));
#476=CARTESIAN_POINT('',(25.8996721061377,12.4564408757954,5.91094355108754));
#477=CARTESIAN_POINT('',(28.1940402485976,0.,2.69038092533109));
#478=CARTESIAN_POINT('',(28.4788046203173,2.68286393072048,1.78459606651987));
#479=CARTESIAN_POINT('',(28.997253224699,7.56734808240048,0.135503193402372));
#480=CARTESIAN_POINT('',(26.6840032521615,10.6334322380982,4.42053051196503));
#481=CARTESIAN_POINT('',(25.6413347210493,12.0154313738771,6.35195305300588));
#482=CARTESIAN_POINT('',(27.7863827458391,0.,3.28296755600365));
#483=CARTESIAN_POINT('',(28.0469917791173,2.70542652689497,2.31118470885438));
#484=CARTESIAN_POINT('',(28.5214626153963,7.63098866325139,0.541934371025901));
#485=CARTESIAN_POINT('',(26.4044357014147,10.5137882153808,4.68622368021225));
#486=CARTESIAN_POINT('',(25.4502122629919,11.8131741054462,6.55421032143676));
#487=CARTESIAN_POINT('',(26.7682220725112,0.,4.27189701592138));
#488=CARTESIAN_POINT('',(26.968501011321,2.74307978279758,3.18997439918481));
#489=CARTESIAN_POINT('',(27.333133481619,7.73719430811772,1.22020104829601));
#490=CARTESIAN_POINT('',(25.7061910136978,10.31412205242,5.12962180595185));
#491=CARTESIAN_POINT('',(24.9728670178607,11.4756400456468,6.89174438123621));
#492=CARTESIAN_POINT('',(26.1581195046891,0.,4.66785074365335));
#493=CARTESIAN_POINT('',(26.3222474247881,2.75815562757738,3.54182968096365));
#494=CARTESIAN_POINT('',(26.6210625139144,7.77971758474708,1.49176967896844));
#495=CARTESIAN_POINT('',(25.2877886061959,10.2341784722855,5.30715230521574));
#496=CARTESIAN_POINT('',(24.6868320457572,11.3404960595173,7.02688836736564));
#497=CARTESIAN_POINT('',(24.8278284766252,0.,5.20305551068051));
#498=CARTESIAN_POINT('',(24.9131313296244,2.77853342282968,4.01742723421916));
#499=CARTESIAN_POINT('',(25.0684356776374,7.83719566556225,1.85884495956615));
#500=CARTESIAN_POINT('',(24.3754879568034,10.1261199235599,5.54711764167815));
#501=CARTESIAN_POINT('',(24.0631504270089,11.1578239426874,7.20956048419561));
#502=CARTESIAN_POINT('',(24.1081634290968,0.,5.34209596975419));
#503=CARTESIAN_POINT('',(24.150823248005,2.78382735550993,4.14098237836759));
#504=CARTESIAN_POINT('',(24.2284907014246,7.85212785457769,1.95420718104336));
#505=CARTESIAN_POINT('',(23.8819486662612,10.0980474713935,5.60945806276376));
#506=CARTESIAN_POINT('',(23.7257491724486,11.1103676856643,7.25701674121866));
#507=CARTESIAN_POINT('',(22.6682667962015,0.,5.34209596975419));
#508=CARTESIAN_POINT('',(22.6256069772933,2.78382735550993,4.14098237836759));
#509=CARTESIAN_POINT('',(22.5479395238737,7.85212785457769,1.95420718104336));
#510=CARTESIAN_POINT('',(22.8944815590371,10.0980474713935,5.60945806276376));
#511=CARTESIAN_POINT('',(23.0506810528497,11.1103676856643,7.25701674121866));
#512=CARTESIAN_POINT('',(21.9486017486731,0.,5.20305551068051));
#513=CARTESIAN_POINT('',(21.8632988956739,2.77853342282968,4.01742723421916));
#514=CARTESIAN_POINT('',(21.7079945476609,7.83719566556225,1.85884495956614));
#515=CARTESIAN_POINT('',(22.4009422684949,10.1261199235599,5.54711764167815));
#516=CARTESIAN_POINT('',(22.7132797982894,11.1578239426874,7.20956048419561));
#517=CARTESIAN_POINT('',(20.6183107206092,0.,4.66785074365335));
#518=CARTESIAN_POINT('',(20.4541828005102,2.75815562757738,3.54182968096365));
#519=CARTESIAN_POINT('',(20.1553677113839,7.77971758474708,1.49176967896844));
#520=CARTESIAN_POINT('',(21.4886416191024,10.2341784722855,5.30715230521574));
#521=CARTESIAN_POINT('',(22.0895981795411,11.3404960595173,7.02688836736564));
#522=CARTESIAN_POINT('',(20.0082081527871,0.,4.27189701592138));
#523=CARTESIAN_POINT('',(19.8079292139773,2.74307978279758,3.1899743991848));
#524=CARTESIAN_POINT('',(19.4432967436793,7.73719430811772,1.22020104829601));
#525=CARTESIAN_POINT('',(21.0702392116005,10.31412205242,5.12962180595185));
#526=CARTESIAN_POINT('',(21.8035632074376,11.4756400456468,6.89174438123621));
#527=CARTESIAN_POINT('',(18.9900474794592,0.,3.28296755600365));
#528=CARTESIAN_POINT('',(18.729438446181,2.70542652689497,2.31118470885438));
#529=CARTESIAN_POINT('',(18.254967609902,7.63098866325139,0.541934371025895));
#530=CARTESIAN_POINT('',(20.3719945238836,10.5137882153808,4.68622368021225));
#531=CARTESIAN_POINT('',(21.3262179623064,11.8131741054462,6.55421032143676));
#532=CARTESIAN_POINT('',(18.5823899767007,0.,2.69038092533109));
#533=CARTESIAN_POINT('',(18.297625604981,2.68286393072048,1.78459606651987));
#534=CARTESIAN_POINT('',(17.7791770005993,7.56734808240048,0.135503193402368));
#535=CARTESIAN_POINT('',(20.0924269731368,10.6334322380982,4.42053051196503));
#536=CARTESIAN_POINT('',(21.135095504249,12.0154313738771,6.35195305300588));
#537=CARTESIAN_POINT('',(18.0313653909734,0.,1.39828231812739));
#538=CARTESIAN_POINT('',(17.713950607406,2.63366758105111,0.636402003218962));
#539=CARTESIAN_POINT('',(17.1360579077089,7.42858372015732,-0.75069492742852));
#540=CARTESIAN_POINT('',(19.7145396711967,10.8943086519618,3.84120294217807));
#541=CARTESIAN_POINT('',(20.8767581191606,12.4564408757954,5.91094355108754));
#542=CARTESIAN_POINT('',(17.8882151126491,0.,0.699278727222976));
#543=CARTESIAN_POINT('',(17.5623181022184,2.60705318421904,0.015248347586283));
#544=CARTESIAN_POINT('',(16.9689824640218,7.3535145366161,-1.23011318951777));
#545=CARTESIAN_POINT('',(19.6163686025201,11.0354383993791,3.52779648129859));
#546=CARTESIAN_POINT('',(20.8096448368591,12.6950195908759,5.6723648360071));
#547=CARTESIAN_POINT('',(17.8882151126491,0.,-0.699278727222974));
#548=CARTESIAN_POINT('',(17.5623181022184,2.55380343905406,-1.22754795095265));
#549=CARTESIAN_POINT('',(16.9689824640218,7.20331707324555,-2.1893271234189));
#550=CARTESIAN_POINT('',(19.6163686025201,11.3178089949853,2.90073683834684));
#551=CARTESIAN_POINT('',(20.8096448368591,13.1723648360071,5.19501959087587));
#552=CARTESIAN_POINT('',(18.0313653909734,0.,-1.3982823181274));
#553=CARTESIAN_POINT('',(17.713950607406,2.52718904222199,-1.84870160658533));
#554=CARTESIAN_POINT('',(17.1360579077089,7.12824788970433,-2.66874538550815));
#555=CARTESIAN_POINT('',(19.7145396711967,11.4589387424026,2.58733037746736));
#556=CARTESIAN_POINT('',(20.8767581191606,13.4109435510875,4.95644087579542));
#557=CARTESIAN_POINT('',(18.5823899767007,0.,-2.6903809253311));
#558=CARTESIAN_POINT('',(18.297625604981,2.47799269255262,-2.99689566988624));
#559=CARTESIAN_POINT('',(17.7791770005993,6.98948352746117,-3.55494350633904));
#560=CARTESIAN_POINT('',(20.0924269731368,11.7198151562662,2.0080028076804));
#561=CARTESIAN_POINT('',(21.135095504249,13.8519530530059,4.51543137387709));
#562=CARTESIAN_POINT('',(18.9900474794592,0.,-3.28296755600365));
#563=CARTESIAN_POINT('',(18.729438446181,2.45543009637813,-3.52348431222075));
#564=CARTESIAN_POINT('',(18.254967609902,6.92584294661026,-3.96137468396258));
#565=CARTESIAN_POINT('',(20.3719945238836,11.8394591789835,1.74230963943317));
#566=CARTESIAN_POINT('',(21.3262179623064,14.0542103214368,4.31317410544621));
#567=CARTESIAN_POINT('',(20.0082081527871,0.,-4.27189701592137));
#568=CARTESIAN_POINT('',(19.8079292139773,2.41777684047552,-4.40227400255117));
#569=CARTESIAN_POINT('',(19.4432967436793,6.81963730174392,-4.63964136123269));
#570=CARTESIAN_POINT('',(21.0702392116005,12.0391253419444,1.29891151369358));
#571=CARTESIAN_POINT('',(21.8035632074376,14.3917443812362,3.97564004564676));
#572=CARTESIAN_POINT('',(20.6183107206092,0.,-4.66785074365335));
#573=CARTESIAN_POINT('',(20.4541828005102,2.40270099569572,-4.75412928433002));
#574=CARTESIAN_POINT('',(20.1553677113839,6.77711402511457,-4.91120999190512));
#575=CARTESIAN_POINT('',(21.4886416191024,12.1190689220788,1.12138101442968));
#576=CARTESIAN_POINT('',(22.0895981795411,14.5268883673656,3.84049605951733));
#577=CARTESIAN_POINT('',(21.9486017486731,0.,-5.20305551068051));
#578=CARTESIAN_POINT('',(21.8632988956739,2.38232320044342,-5.22972683758553));
#579=CARTESIAN_POINT('',(21.7079945476609,6.7196359442994,-5.27828527250282));
#580=CARTESIAN_POINT('',(22.4009422684949,12.2271274708044,0.881415677967278));
#581=CARTESIAN_POINT('',(22.7132797982894,14.7095604841956,3.65782394268736));
#582=CARTESIAN_POINT('',(22.6682667962015,0.,-5.34209596975419));
#583=CARTESIAN_POINT('',(22.6256069772933,2.37702926776317,-5.35328198173395));
#584=CARTESIAN_POINT('',(22.5479395238737,6.70470375528395,-5.37364749398004));
#585=CARTESIAN_POINT('',(22.8944815590371,12.2551999229709,0.819075256881661));
#586=CARTESIAN_POINT('',(23.0506810528497,14.7570167412187,3.61036768566431));
#587=CARTESIAN_POINT('',(24.1081634290968,0.,-5.34209596975419));
#588=CARTESIAN_POINT('',(24.150823248005,2.37702926776317,-5.35328198173395));
#589=CARTESIAN_POINT('',(24.2284907014246,6.70470375528395,-5.37364749398004));
#590=CARTESIAN_POINT('',(23.8819486662612,12.2551999229709,0.819075256881661));
#591=CARTESIAN_POINT('',(23.7257491724486,14.7570167412187,3.61036768566431));
#592=CARTESIAN_POINT('',(24.8278284766252,0.,-5.20305551068051));
#593=CARTESIAN_POINT('',(24.9131313296244,2.38232320044342,-5.22972683758553));
#594=CARTESIAN_POINT('',(25.0684356776374,6.7196359442994,-5.27828527250282));
#595=CARTESIAN_POINT('',(24.3754879568034,12.2271274708044,0.881415677967278));
#596=CARTESIAN_POINT('',(24.0631504270089,14.7095604841956,3.65782394268736));
#597=CARTESIAN_POINT('',(26.1581195046891,0.,-4.66785074365335));
#598=CARTESIAN_POINT('',(26.3222474247881,2.40270099569572,-4.75412928433002));
#599=CARTESIAN_POINT('',(26.6210625139144,6.77711402511457,-4.91120999190511));
#600=CARTESIAN_POINT('',(25.2877886061959,12.1190689220788,1.12138101442968));
#601=CARTESIAN_POINT('',(24.6868320457572,14.5268883673656,3.84049605951733));
#602=CARTESIAN_POINT('',(26.7682220725112,0.,-4.27189701592138));
#603=CARTESIAN_POINT('',(26.968501011321,2.41777684047552,-4.40227400255117));
#604=CARTESIAN_POINT('',(27.333133481619,6.81963730174392,-4.63964136123269));
#605=CARTESIAN_POINT('',(25.7061910136978,12.0391253419444,1.29891151369358));
#606=CARTESIAN_POINT('',(24.9728670178607,14.3917443812362,3.97564004564676));
#607=CARTESIAN_POINT('',(27.7863827458391,0.,-3.28296755600365));
#608=CARTESIAN_POINT('',(28.0469917791173,2.45543009637813,-3.52348431222075));
#609=CARTESIAN_POINT('',(28.5214626153963,6.92584294661026,-3.96137468396257));
#610=CARTESIAN_POINT('',(26.4044357014147,11.8394591789835,1.74230963943318));
#611=CARTESIAN_POINT('',(25.4502122629919,14.0542103214368,4.31317410544621));
#612=CARTESIAN_POINT('',(28.1940402485976,0.,-2.6903809253311));
#613=CARTESIAN_POINT('',(28.4788046203173,2.47799269255262,-2.99689566988624));
#614=CARTESIAN_POINT('',(28.997253224699,6.98948352746117,-3.55494350633904));
#615=CARTESIAN_POINT('',(26.6840032521615,11.7198151562662,2.0080028076804));
#616=CARTESIAN_POINT('',(25.6413347210493,13.8519530530059,4.51543137387709));
#617=CARTESIAN_POINT('',(28.7450648343249,0.,-1.3982823181274));
#618=CARTESIAN_POINT('',(29.0624796178923,2.52718904222199,-1.84870160658533));
#619=CARTESIAN_POINT('',(29.6403723175894,7.12824788970433,-2.66874538550815));
#620=CARTESIAN_POINT('',(27.0618905541016,11.4589387424026,2.58733037746736));
#621=CARTESIAN_POINT('',(25.8996721061377,13.4109435510875,4.95644087579543));
#622=CARTESIAN_POINT('',(28.8882151126491,0.,-0.699278727222976));
#623=CARTESIAN_POINT('',(29.2141121230799,2.55380343905406,-1.22754795095265));
#624=CARTESIAN_POINT('',(29.8074477612765,7.20331707324555,-2.1893271234189));
#625=CARTESIAN_POINT('',(27.1600616227782,11.3178089949853,2.90073683834684));
#626=CARTESIAN_POINT('',(25.9667853884391,13.1723648360071,5.19501959087586));
#627=CARTESIAN_POINT('',(28.8882151126491,0.,0.699278727222974));
#628=CARTESIAN_POINT('',(29.2141121230799,2.60705318421904,0.015248347586283));
#629=CARTESIAN_POINT('',(29.8074477612765,7.3535145366161,-1.23011318951777));
#630=CARTESIAN_POINT('',(27.1600616227782,11.0354383993791,3.52779648129859));
#631=CARTESIAN_POINT('',(25.9667853884391,12.6950195908759,5.6723648360071));
#632=CARTESIAN_POINT('',(28.8115534391522,0.,-1.08592622077543));
#633=CARTESIAN_POINT('',(28.9236675485013,0.,-0.0357786933032178));
#634=CARTESIAN_POINT('',(28.8226731901606,0.,1.01286591889748));
#635=CARTESIAN_POINT('',(28.5235296752116,0.,2.00681100181103));
#636=CARTESIAN_POINT('',(28.0223674563636,0.,2.94059234449735));
#637=CARTESIAN_POINT('',(27.3427214703787,0.,3.76218794940692));
#638=CARTESIAN_POINT('',(26.5110774998156,0.,4.43923258034364));
#639=CARTESIAN_POINT('',(25.5594222364386,0.,4.9456834017141));
#640=CARTESIAN_POINT('',(24.524328532885,0.,5.26207391647379));
#641=CARTESIAN_POINT('',(23.4455746410786,0.,5.3762460234102));
#642=CARTESIAN_POINT('',(22.3646164494652,0.,5.28381197322607));
#643=CARTESIAN_POINT('',(21.322994581767,0.,4.9883240021568));
#644=CARTESIAN_POINT('',(20.3607379805211,0.,4.50113753447602));
#645=CARTESIAN_POINT('',(19.5148256277307,0.,3.84097487633404));
#646=CARTESIAN_POINT('',(18.8177654605968,0.,3.03320570754416));
#647=CARTESIAN_POINT('',(18.2963451104615,0.,2.10887214450658));
#648=CARTESIAN_POINT('',(17.9706024689545,0.,1.10349580761186));
#649=CARTESIAN_POINT('',(17.8530556431128,0.,0.0557127456801395));
#650=CARTESIAN_POINT('',(17.9482218915328,0.,-0.994211325824556));
#651=CARTESIAN_POINT('',(18.2524440286556,0.,-2.00592841363313));
#652=CARTESIAN_POINT('',(18.7540309683657,0.,-2.94055879746038));
#653=CARTESIAN_POINT('',(19.4337070058521,0.,-3.76218515572995));
#654=CARTESIAN_POINT('',(20.2653525722005,0.,-4.4392328485262));
#655=CARTESIAN_POINT('',(21.2170079945353,0.,-4.94568331174069));
#656=CARTESIAN_POINT('',(22.2521016892445,0.,-5.26207394170484));
#657=CARTESIAN_POINT('',(23.3308555839876,0.,-5.37624601046505));
#658=CARTESIAN_POINT('',(24.411813779553,0.,-5.28381199974637));
#659=CARTESIAN_POINT('',(25.4534356288642,0.,-4.98832390902286));
#660=CARTESIAN_POINT('',(26.4156922997235,0.,-4.50113788049211));
#661=CARTESIAN_POINT('',(27.2616043924499,0.,-3.84097358540338));
#662=CARTESIAN_POINT('',(27.9586655302296,0.,-3.0332105252483));
#663=CARTESIAN_POINT('',(28.480082257845,0.,-2.1088541646171));
#664=CARTESIAN_POINT('',(28.8115534391522,0.,-1.08592622077543));
#665=CARTESIAN_POINT('',(28.9236675485013,0.,-0.0357786933032178));
#666=CARTESIAN_POINT('',(28.8226731901606,0.,1.01286591889748));
#667=CARTESIAN_POINT('',(28.8882151126491,0.,-6.50521303491303E-16));
#668=CARTESIAN_POINT('',(20.8949322575584,13.3986176329478,4.96876679393515));
#669=CARTESIAN_POINT('',(20.8774425749983,13.351838284109,5.01554614277401));
#670=CARTESIAN_POINT('',(20.8626140483002,13.3045614987811,5.0628229281019));
#671=CARTESIAN_POINT('',(20.8504945666867,13.2569399589223,5.11044446796071));
#672=CARTESIAN_POINT('',(20.8504945666867,13.2569399589223,5.11044446796071));
#673=CARTESIAN_POINT('',(20.8949322575584,13.3986176329478,4.96876679393515));
#674=CARTESIAN_POINT('',(20.8506281167931,13.2568867503366,5.11044992177556));
#675=CARTESIAN_POINT('',(20.6846174673492,12.8445428486108,5.15271466660376));
#676=CARTESIAN_POINT('',(20.4911979678906,12.210225810563,5.21773138600009));
#677=CARTESIAN_POINT('',(20.5435139885747,11.3007796334733,5.31094850512995));
#678=CARTESIAN_POINT('',(20.8732021088489,10.6997509419634,5.37255320978252));
#679=CARTESIAN_POINT('',(21.4315425740364,10.305381484921,5.41297559604837));
#680=CARTESIAN_POINT('',(22.2753925177521,10.0006220152381,5.44421306837719));
#681=CARTESIAN_POINT('',(23.3898874508162,9.88396714122748,5.45617005006747));
#682=CARTESIAN_POINT('',(24.4971272743743,9.99950399434687,5.44432766414906));
#683=CARTESIAN_POINT('',(25.3456364808031,10.3058718300208,5.41292533627623));
#684=CARTESIAN_POINT('',(25.9005078810169,10.6972140567811,5.3728132374063));
#685=CARTESIAN_POINT('',(26.2322580079299,11.2984595081365,5.31118631513492));
#686=CARTESIAN_POINT('',(26.2860559897366,12.2038782761665,5.21838200050032));
#687=CARTESIAN_POINT('',(26.0920794754161,12.8438792360453,5.15278268607883));
#688=CARTESIAN_POINT('',(25.9258043057908,13.2568812926233,5.11045048118449));
#689=CARTESIAN_POINT('',(25.9259515548071,13.2569399589223,5.1104444679607));
#690=CARTESIAN_POINT('',(25.9259515548071,13.2569399589223,5.1104444679607));
#691=CARTESIAN_POINT('',(25.9138050461394,13.3045591634975,5.06282526338552));
#692=CARTESIAN_POINT('',(25.898968416829,13.351835242375,5.01554918450796));
#693=CARTESIAN_POINT('',(25.881488921127,13.3986176225601,4.96876680432287));
#694=CARTESIAN_POINT('',(25.881488921127,13.3986176225601,4.96876680432287));
#695=CARTESIAN_POINT('',(20.8950151491585,13.398617617893,4.96876680402275));
#696=CARTESIAN_POINT('',(20.8590836002506,13.398617617893,4.60732898182473));
#697=CARTESIAN_POINT('',(20.8845470356207,13.3986176106205,3.88359372556415));
#698=CARTESIAN_POINT('',(21.3866526650659,13.3986176135438,2.87879155765896));
#699=CARTESIAN_POINT('',(22.2988728464889,13.3986176127596,2.24088564229571));
#700=CARTESIAN_POINT('',(23.3879125926356,13.3986176129706,2.03088319364026));
#701=CARTESIAN_POINT('',(24.4732071375149,13.3986176129134,2.23949899334438));
#702=CARTESIAN_POINT('',(25.3850130995318,13.3986176129292,2.87474198549404));
#703=CARTESIAN_POINT('',(25.8898189299804,13.3986176129249,3.87190786812847));
#704=CARTESIAN_POINT('',(25.9174448035291,13.3986176129259,4.60634145228119));
#705=CARTESIAN_POINT('',(25.8814150809172,13.3986176129259,4.96876680311661));
#706=CARTESIAN_POINT('',(12.639313662155,13.3986176129259,-6.6479653103104));
#707=CARTESIAN_POINT('',(12.639313662155,0.,-6.6479653103104));
#708=CARTESIAN_POINT('',(12.639313662155,0.,-6.6479653103104));
#709=CARTESIAN_POINT('',(32.4731338207504,0.,-6.6479653103104));
#710=CARTESIAN_POINT('',(12.639313662155,13.3986176129259,-6.6479653103104));
#711=CARTESIAN_POINT('',(12.639313662155,13.3986176129259,-6.6479653103104));
#712=CARTESIAN_POINT('',(12.639313662155,13.3986176129259,-6.6479653103104));
#713=CARTESIAN_POINT('',(32.4731338207504,13.3986176129259,-6.6479653103104));
#714=CARTESIAN_POINT('',(32.4731338207504,13.3986176129259,-6.6479653103104));
#715=CARTESIAN_POINT('',(32.4731338207504,13.3986176129259,-6.6479653103104));
#716=CARTESIAN_POINT('',(32.4731338207504,0.,-6.6479653103104));
#717=CARTESIAN_POINT('',(32.4731338207504,-1.0842021724855E-16,6.4692645747249));
#718=CARTESIAN_POINT('',(32.4731338207504,13.3986176129259,-6.6479653103104));
#719=CARTESIAN_POINT('',(32.4731338207504,13.3986176129259,5.0959226819727));
#720=CARTESIAN_POINT('',(32.4731338207504,13.3287844531508,5.10308049530785));
#721=CARTESIAN_POINT('',(32.4731338207504,13.3287844531508,5.10308049530785));
#722=CARTESIAN_POINT('',(23.3958206525316,12.671564915407,5.17044469286865));
#723=CARTESIAN_POINT('',(25.9035199954773,13.3986176129259,5.0959226819727));
#724=CARTESIAN_POINT('',(23.3632158103801,12.6769148348049,5.16989633268373));
#725=CARTESIAN_POINT('',(20.8728979655183,13.3986176129259,5.0959226819727));
#726=CARTESIAN_POINT('',(8.96078709069738E-16,13.3986176129259,5.09592268197271));
#727=CARTESIAN_POINT('',(12.639313662155,13.3986176129259,5.0959226819727));
#728=CARTESIAN_POINT('',(12.639313662155,13.3287844531508,5.10308049530785));
#729=CARTESIAN_POINT('',(12.639313662155,2.16840434497101E-16,6.4692645747249));
#730=CARTESIAN_POINT('',(32.4731338207504,-1.0842021724855E-16,6.4692645747249));
#731=CARTESIAN_POINT('',(8.96078709069738E-16,13.3986176129259,5.09592268197271));
#732=CARTESIAN_POINT('',(12.639313662155,13.3986176129259,9.92175528085864));
#733=CARTESIAN_POINT('',(12.639313662155,0.,9.92175528085864));
#734=CARTESIAN_POINT('',(12.639313662155,13.3986176129259,9.92175528085864));
#735=CARTESIAN_POINT('',(0.,13.3986176129259,0.));
#736=CARTESIAN_POINT('',(23.3958206525316,13.3986176129259,5.89749739038753));
#737=CARTESIAN_POINT('',(23.3632158103801,13.3986176129259,5.8915991108047));
#738=CARTESIAN_POINT('',(0.,0.,0.));
#739=CARTESIAN_POINT('',(23.3632158103801,13.2758827210208,5.76886421889966));
#740=CARTESIAN_POINT('',(23.3958206525316,13.2729335812294,5.77181335869107));
#741=MECHANICAL_DESIGN_GEOMETRIC_PRESENTATION_REPRESENTATION('',(#202,#203),
#742);
#742=(
GEOMETRIC_REPRESENTATION_CONTEXT(3)
GLOBAL_UNCERTAINTY_ASSIGNED_CONTEXT((#743))
GLOBAL_UNIT_ASSIGNED_CONTEXT((#746,#745,#744))
REPRESENTATION_CONTEXT('FlareHolder03','TOP_LEVEL_ASSEMBLY_PART')
);
#743=UNCERTAINTY_MEASURE_WITH_UNIT(LENGTH_MEASURE(0.005),#746,
'DISTANCE_ACCURACY_VALUE','Maximum Tolerance applied to model');
#744=(
NAMED_UNIT(*)
SI_UNIT($,.STERADIAN.)
SOLID_ANGLE_UNIT()
);
#745=(
NAMED_UNIT(*)
PLANE_ANGLE_UNIT()
SI_UNIT($,.RADIAN.)
);
#746=(
LENGTH_UNIT()
NAMED_UNIT(*)
SI_UNIT(.MILLI.,.METRE.)
);
#747=PRODUCT_DEFINITION_SHAPE('','',#748);
#748=PRODUCT_DEFINITION('','',#750,#749);
#749=PRODUCT_DEFINITION_CONTEXT('',#756,'design');
#750=PRODUCT_DEFINITION_FORMATION_WITH_SPECIFIED_SOURCE('','',#752,
 .NOT_KNOWN.);
#751=PRODUCT_RELATED_PRODUCT_CATEGORY('','',(#752));
#752=PRODUCT('FlareHolder03','FlareHolder03','FlareHolder03',(#754));
#753=PRODUCT_CATEGORY('','');
#754=PRODUCT_CONTEXT('',#756,'mechanical');
#755=APPLICATION_PROTOCOL_DEFINITION('international standard',
'automotive_design',2010,#756);
#756=APPLICATION_CONTEXT(
'core data for automotive mechanical design processes');
ENDSEC;
END-ISO-10303-21;
