ISO-10303-21;
HEADER;
/* Generated by software containing ST-Developer
 * from STEP Tools, Inc. (www.steptools.com) 
 */
/* OPTION: strings as raw bytes, not using required /X/ escapes */

FILE_DESCRIPTION(
/* description */ ('Unknown'),
/* implementation_level */ '2;1');

FILE_NAME(
/* name */ 'FlareHolder01',
/* time_stamp */ '2023-05-23T16:51:06+01:00',
/* author */ ('Unknown'),
/* organization */ ('Unknown'),
/* preprocessor_version */ 'ST-DEVELOPER v18.102',
/* originating_system */ 'Solid Edge',
/* authorisation */ 'Unknown');

FILE_SCHEMA (('AUTOMOTIVE_DESIGN {1 0 10303 214 3 1 1}'));
ENDSEC;

DATA;
#10=PROPERTY_DEFINITION_REPRESENTATION(#14,#12);
#11=PROPERTY_DEFINITION_REPRESENTATION(#15,#13);
#12=REPRESENTATION('',(#16),#644);
#13=REPRESENTATION('',(#17),#644);
#14=PROPERTY_DEFINITION('pmi validation property','',#649);
#15=PROPERTY_DEFINITION('pmi validation property','',#649);
#16=VALUE_REPRESENTATION_ITEM('number of annotations',COUNT_MEASURE(0.));
#17=VALUE_REPRESENTATION_ITEM('number of views',COUNT_MEASURE(0.));
#18=SHAPE_REPRESENTATION_RELATIONSHIP('','',#242,#19);
#19=ADVANCED_BREP_SHAPE_REPRESENTATION('',(#240),#644);
#20=PLANE('',#245);
#21=PLANE('',#246);
#22=PLANE('',#247);
#23=PLANE('',#248);
#24=PLANE('',#249);
#25=PLANE('',#250);
#26=PLANE('',#251);
#27=PLANE('',#252);
#28=PLANE('',#253);
#29=PLANE('',#254);
#30=ELLIPSE('',#244,3.22597191644982,2.60286416990747);
#31=LINE('',#326,#54);
#32=LINE('',#330,#55);
#33=LINE('',#338,#56);
#34=LINE('',#340,#57);
#35=LINE('',#343,#58);
#36=LINE('',#345,#59);
#37=LINE('',#347,#60);
#38=LINE('',#349,#61);
#39=LINE('',#351,#62);
#40=LINE('',#353,#63);
#41=LINE('',#355,#64);
#42=LINE('',#357,#65);
#43=LINE('',#359,#66);
#44=LINE('',#362,#67);
#45=LINE('',#363,#68);
#46=LINE('',#365,#69);
#47=LINE('',#367,#70);
#48=LINE('',#383,#71);
#49=LINE('',#385,#72);
#50=LINE('',#387,#73);
#51=LINE('',#389,#74);
#52=LINE('',#391,#75);
#53=LINE('',#392,#76);
#54=VECTOR('',#257,1000.);
#55=VECTOR('',#260,1000.);
#56=VECTOR('',#261,1000.);
#57=VECTOR('',#264,1000.);
#58=VECTOR('',#265,1000.);
#59=VECTOR('',#266,1000.);
#60=VECTOR('',#267,1000.);
#61=VECTOR('',#270,1000.);
#62=VECTOR('',#271,1000.);
#63=VECTOR('',#272,1000.);
#64=VECTOR('',#273,1000.);
#65=VECTOR('',#274,1000.);
#66=VECTOR('',#277,1000.);
#67=VECTOR('',#278,1000.);
#68=VECTOR('',#279,1000.);
#69=VECTOR('',#282,1000.);
#70=VECTOR('',#283,1000.);
#71=VECTOR('',#286,1000.);
#72=VECTOR('',#287,1000.);
#73=VECTOR('',#290,1000.);
#74=VECTOR('',#291,1000.);
#75=VECTOR('',#294,1000.);
#76=VECTOR('',#295,1000.);
#77=ORIENTED_EDGE('',*,*,#137,.T.);
#78=ORIENTED_EDGE('',*,*,#138,.T.);
#79=ORIENTED_EDGE('',*,*,#139,.F.);
#80=ORIENTED_EDGE('',*,*,#140,.T.);
#81=ORIENTED_EDGE('',*,*,#141,.T.);
#82=ORIENTED_EDGE('',*,*,#142,.F.);
#83=ORIENTED_EDGE('',*,*,#143,.F.);
#84=ORIENTED_EDGE('',*,*,#144,.F.);
#85=ORIENTED_EDGE('',*,*,#145,.T.);
#86=ORIENTED_EDGE('',*,*,#146,.F.);
#87=ORIENTED_EDGE('',*,*,#145,.F.);
#88=ORIENTED_EDGE('',*,*,#147,.F.);
#89=ORIENTED_EDGE('',*,*,#148,.F.);
#90=ORIENTED_EDGE('',*,*,#149,.T.);
#91=ORIENTED_EDGE('',*,*,#150,.T.);
#92=ORIENTED_EDGE('',*,*,#151,.F.);
#93=ORIENTED_EDGE('',*,*,#152,.F.);
#94=ORIENTED_EDGE('',*,*,#153,.F.);
#95=ORIENTED_EDGE('',*,*,#150,.F.);
#96=ORIENTED_EDGE('',*,*,#154,.T.);
#97=ORIENTED_EDGE('',*,*,#155,.F.);
#98=ORIENTED_EDGE('',*,*,#146,.T.);
#99=ORIENTED_EDGE('',*,*,#151,.T.);
#100=ORIENTED_EDGE('',*,*,#153,.T.);
#101=ORIENTED_EDGE('',*,*,#156,.F.);
#102=ORIENTED_EDGE('',*,*,#157,.F.);
#103=ORIENTED_EDGE('',*,*,#158,.F.);
#104=ORIENTED_EDGE('',*,*,#159,.T.);
#105=ORIENTED_EDGE('',*,*,#154,.F.);
#106=ORIENTED_EDGE('',*,*,#149,.F.);
#107=ORIENTED_EDGE('',*,*,#144,.T.);
#108=ORIENTED_EDGE('',*,*,#160,.T.);
#109=ORIENTED_EDGE('',*,*,#161,.F.);
#110=ORIENTED_EDGE('',*,*,#147,.T.);
#111=ORIENTED_EDGE('',*,*,#162,.F.);
#112=ORIENTED_EDGE('',*,*,#158,.T.);
#113=ORIENTED_EDGE('',*,*,#148,.T.);
#114=ORIENTED_EDGE('',*,*,#161,.T.);
#115=ORIENTED_EDGE('',*,*,#163,.F.);
#116=ORIENTED_EDGE('',*,*,#139,.T.);
#117=ORIENTED_EDGE('',*,*,#142,.T.);
#118=ORIENTED_EDGE('',*,*,#164,.F.);
#119=ORIENTED_EDGE('',*,*,#165,.F.);
#120=ORIENTED_EDGE('',*,*,#157,.T.);
#121=ORIENTED_EDGE('',*,*,#166,.F.);
#122=ORIENTED_EDGE('',*,*,#137,.F.);
#123=ORIENTED_EDGE('',*,*,#164,.T.);
#124=ORIENTED_EDGE('',*,*,#141,.F.);
#125=ORIENTED_EDGE('',*,*,#162,.T.);
#126=ORIENTED_EDGE('',*,*,#138,.F.);
#127=ORIENTED_EDGE('',*,*,#166,.T.);
#128=ORIENTED_EDGE('',*,*,#156,.T.);
#129=ORIENTED_EDGE('',*,*,#152,.T.);
#130=ORIENTED_EDGE('',*,*,#159,.F.);
#131=ORIENTED_EDGE('',*,*,#143,.T.);
#132=ORIENTED_EDGE('',*,*,#155,.T.);
#133=ORIENTED_EDGE('',*,*,#165,.T.);
#134=ORIENTED_EDGE('',*,*,#140,.F.);
#135=ORIENTED_EDGE('',*,*,#163,.T.);
#136=ORIENTED_EDGE('',*,*,#160,.F.);
#137=EDGE_CURVE('',#167,#168,#187,.T.);
#138=EDGE_CURVE('',#168,#169,#31,.F.);
#139=EDGE_CURVE('',#170,#169,#30,.T.);
#140=EDGE_CURVE('',#170,#171,#32,.T.);
#141=EDGE_CURVE('',#171,#172,#188,.T.);
#142=EDGE_CURVE('',#167,#172,#33,.T.);
#143=EDGE_CURVE('',#173,#174,#34,.T.);
#144=EDGE_CURVE('',#175,#173,#35,.T.);
#145=EDGE_CURVE('',#175,#176,#36,.T.);
#146=EDGE_CURVE('',#174,#176,#37,.T.);
#147=EDGE_CURVE('',#177,#175,#38,.T.);
#148=EDGE_CURVE('',#178,#177,#39,.T.);
#149=EDGE_CURVE('',#178,#179,#40,.T.);
#150=EDGE_CURVE('',#179,#180,#41,.T.);
#151=EDGE_CURVE('',#176,#180,#42,.T.);
#152=EDGE_CURVE('',#181,#182,#43,.T.);
#153=EDGE_CURVE('',#180,#181,#44,.T.);
#154=EDGE_CURVE('',#179,#182,#45,.T.);
#155=EDGE_CURVE('',#174,#183,#46,.T.);
#156=EDGE_CURVE('',#184,#181,#47,.T.);
#157=EDGE_CURVE('',#183,#184,#189,.T.);
#158=EDGE_CURVE('',#185,#178,#48,.T.);
#159=EDGE_CURVE('',#185,#182,#49,.T.);
#160=EDGE_CURVE('',#173,#186,#50,.T.);
#161=EDGE_CURVE('',#177,#186,#51,.T.);
#162=EDGE_CURVE('',#185,#169,#52,.T.);
#163=EDGE_CURVE('',#170,#186,#53,.T.);
#164=EDGE_CURVE('',#167,#172,#190,.T.);
#165=EDGE_CURVE('',#183,#171,#191,.T.);
#166=EDGE_CURVE('',#168,#184,#192,.T.);
#167=VERTEX_POINT('',#324);
#168=VERTEX_POINT('',#325);
#169=VERTEX_POINT('',#327);
#170=VERTEX_POINT('',#329);
#171=VERTEX_POINT('',#331);
#172=VERTEX_POINT('',#337);
#173=VERTEX_POINT('',#341);
#174=VERTEX_POINT('',#342);
#175=VERTEX_POINT('',#344);
#176=VERTEX_POINT('',#346);
#177=VERTEX_POINT('',#350);
#178=VERTEX_POINT('',#352);
#179=VERTEX_POINT('',#354);
#180=VERTEX_POINT('',#356);
#181=VERTEX_POINT('',#360);
#182=VERTEX_POINT('',#361);
#183=VERTEX_POINT('',#366);
#184=VERTEX_POINT('',#368);
#185=VERTEX_POINT('',#384);
#186=VERTEX_POINT('',#388);
#187=B_SPLINE_CURVE_WITH_KNOTS('',3,(#317,#318,#319,#320,#321,#322,#323),
 .UNSPECIFIED.,.F.,.F.,(4,1,1,1,4),(-0.00184451789305054,-0.00039790752313623,
0.00104870284677808,0.00249531321669238,0.00394192358660669),
 .UNSPECIFIED.);
#188=B_SPLINE_CURVE_WITH_KNOTS('',3,(#332,#333,#334,#335,#336),
 .UNSPECIFIED.,.F.,.F.,(4,1,4),(-0.00281624469453314,-0.000865491121343766,
0.00108526245184561),.UNSPECIFIED.);
#189=B_SPLINE_CURVE_WITH_KNOTS('',3,(#369,#370,#371,#372,#373,#374,#375,
#376,#377,#378,#379,#380,#381),.UNSPECIFIED.,.F.,.F.,(4,1,1,1,1,1,1,1,1,
1,4),(0.00714410990752085,0.00893099271072384,0.0107178755139268,0.0125047583171298,
0.0133981997187313,0.0142916411203328,0.0151850825219343,0.0160785239235358,
0.0178654067267388,0.0196522895299418,0.0214391723331447),.UNSPECIFIED.);
#190=B_SPLINE_CURVE_WITH_KNOTS('',3,(#394,#395,#396,#397,#398,#399,#400),
 .UNSPECIFIED.,.F.,.F.,(4,1,1,1,4),(0.,0.00161475737027151,0.00322951474054301,
0.00484427211081452,0.00645902948108603),.UNSPECIFIED.);
#191=B_SPLINE_CURVE_WITH_KNOTS('',3,(#633,#634,#635,#636),.UNSPECIFIED.,
 .F.,.F.,(4,4),(7.53078969425238E-20,0.0112284396590647),.UNSPECIFIED.);
#192=B_SPLINE_CURVE_WITH_KNOTS('',3,(#637,#638,#639,#640),.UNSPECIFIED.,
 .F.,.F.,(4,4),(0.00383318192613018,0.012872649279455),.UNSPECIFIED.);
#193=EDGE_LOOP('',(#77,#78,#79,#80,#81,#82));
#194=EDGE_LOOP('',(#83,#84,#85,#86));
#195=EDGE_LOOP('',(#87,#88,#89,#90,#91,#92));
#196=EDGE_LOOP('',(#93,#94,#95,#96));
#197=EDGE_LOOP('',(#97,#98,#99,#100,#101,#102));
#198=EDGE_LOOP('',(#103,#104,#105,#106));
#199=EDGE_LOOP('',(#107,#108,#109,#110));
#200=EDGE_LOOP('',(#111,#112,#113,#114,#115,#116));
#201=EDGE_LOOP('',(#117,#118));
#202=EDGE_LOOP('',(#119,#120,#121,#122,#123,#124));
#203=EDGE_LOOP('',(#125,#126,#127,#128,#129,#130));
#204=EDGE_LOOP('',(#131,#132,#133,#134,#135,#136));
#205=FACE_BOUND('',#193,.T.);
#206=FACE_BOUND('',#194,.T.);
#207=FACE_BOUND('',#195,.T.);
#208=FACE_BOUND('',#196,.T.);
#209=FACE_BOUND('',#197,.T.);
#210=FACE_BOUND('',#198,.T.);
#211=FACE_BOUND('',#199,.T.);
#212=FACE_BOUND('',#200,.T.);
#213=FACE_BOUND('',#201,.T.);
#214=FACE_BOUND('',#202,.T.);
#215=FACE_BOUND('',#203,.T.);
#216=FACE_BOUND('',#204,.T.);
#217=B_SPLINE_SURFACE_WITH_KNOTS('',3,1,((#303,#304),(#305,#306),(#307,
#308),(#309,#310),(#311,#312),(#313,#314),(#315,#316)),
 .SURF_OF_LINEAR_EXTRUSION.,.F.,.F.,.F.,(4,1,1,1,4),(2,2),(4.75928927213962,
5.5212372896596,6.28318530717959,7.04513332469957,7.80708134221955),(0.,
1.),.UNSPECIFIED.);
#218=B_SPLINE_SURFACE_WITH_KNOTS('',1,3,((#401,#402,#403,#404,#405,#406,
#407,#408,#409,#410,#411,#412,#413,#414,#415,#416,#417,#418,#419,#420,#421,
#422,#423,#424,#425,#426,#427,#428,#429,#430,#431,#432,#433,#434,#435,#436,
#437,#438,#439,#440,#441,#442,#443,#444,#445,#446,#447,#448,#449,#450,#451,
#452,#453,#454,#455,#456,#457,#458),(#459,#460,#461,#462,#463,#464,#465,
#466,#467,#468,#469,#470,#471,#472,#473,#474,#475,#476,#477,#478,#479,#480,
#481,#482,#483,#484,#485,#486,#487,#488,#489,#490,#491,#492,#493,#494,#495,
#496,#497,#498,#499,#500,#501,#502,#503,#504,#505,#506,#507,#508,#509,#510,
#511,#512,#513,#514,#515,#516),(#517,#518,#519,#520,#521,#522,#523,#524,
#525,#526,#527,#528,#529,#530,#531,#532,#533,#534,#535,#536,#537,#538,#539,
#540,#541,#542,#543,#544,#545,#546,#547,#548,#549,#550,#551,#552,#553,#554,
#555,#556,#557,#558,#559,#560,#561,#562,#563,#564,#565,#566,#567,#568,#569,
#570,#571,#572,#573,#574),(#575,#576,#577,#578,#579,#580,#581,#582,#583,
#584,#585,#586,#587,#588,#589,#590,#591,#592,#593,#594,#595,#596,#597,#598,
#599,#600,#601,#602,#603,#604,#605,#606,#607,#608,#609,#610,#611,#612,#613,
#614,#615,#616,#617,#618,#619,#620,#621,#622,#623,#624,#625,#626,#627,#628,
#629,#630,#631,#632)),.RULED_SURF.,.F.,.T.,.F.,(2,1,1,2),(2,2,2,2,2,2,2,
2,2,2,2,2,2,2,2,2,2,2,2,2,2,2,2,2,2,2,2,2,2,2,2),(-0.0686387468823015,-0.0559203406202033,
0.,1.),(-0.196349540849362,0.,0.196349540849362,0.392699081698724,0.589048622548086,
0.785398163397448,0.98174770424681,1.17809724509617,1.5707963267949,1.96349540849362,
2.15984494934298,2.35619449019234,2.55254403104171,2.74889357189107,2.94524311274043,
3.14159265358979,3.33794219443916,3.53429173528852,3.73064127613788,3.92699081698724,
4.1233403578366,4.31968989868597,4.71238898038469,5.10508806208341,5.30143760293278,
5.49778714378214,5.6941366846315,5.89048622548086,6.08683576633022,6.28318530717959,
6.47953484802895),.UNSPECIFIED.);
#219=ADVANCED_FACE('',(#205),#217,.F.);
#220=ADVANCED_FACE('',(#206),#20,.T.);
#221=ADVANCED_FACE('',(#207),#21,.T.);
#222=ADVANCED_FACE('',(#208),#22,.T.);
#223=ADVANCED_FACE('',(#209),#23,.T.);
#224=ADVANCED_FACE('',(#210),#24,.F.);
#225=ADVANCED_FACE('',(#211),#25,.F.);
#226=ADVANCED_FACE('',(#212),#26,.T.);
#227=ADVANCED_FACE('',(#213),#27,.T.);
#228=ADVANCED_FACE('',(#214),#218,.T.);
#229=ADVANCED_FACE('',(#215),#28,.F.);
#230=ADVANCED_FACE('',(#216),#29,.F.);
#231=CLOSED_SHELL('',(#219,#220,#221,#222,#223,#224,#225,#226,#227,#228,
#229,#230));
#232=STYLED_ITEM('',(#233),#240);
#233=PRESENTATION_STYLE_ASSIGNMENT((#234));
#234=SURFACE_STYLE_USAGE(.BOTH.,#235);
#235=SURFACE_SIDE_STYLE('',(#236));
#236=SURFACE_STYLE_FILL_AREA(#237);
#237=FILL_AREA_STYLE('',(#238));
#238=FILL_AREA_STYLE_COLOUR('',#239);
#239=COLOUR_RGB('',0.506983280181885,0.531564235687256,0.550000011920929);
#240=MANIFOLD_SOLID_BREP('',#231);
#241=SHAPE_DEFINITION_REPRESENTATION(#649,#242);
#242=SHAPE_REPRESENTATION('FlareHolder01',(#243),#644);
#243=AXIS2_PLACEMENT_3D('',#302,#255,#256);
#244=AXIS2_PLACEMENT_3D('',#328,#258,#259);
#245=AXIS2_PLACEMENT_3D('',#339,#262,#263);
#246=AXIS2_PLACEMENT_3D('',#348,#268,#269);
#247=AXIS2_PLACEMENT_3D('',#358,#275,#276);
#248=AXIS2_PLACEMENT_3D('',#364,#280,#281);
#249=AXIS2_PLACEMENT_3D('',#382,#284,#285);
#250=AXIS2_PLACEMENT_3D('',#386,#288,#289);
#251=AXIS2_PLACEMENT_3D('',#390,#292,#293);
#252=AXIS2_PLACEMENT_3D('',#393,#296,#297);
#253=AXIS2_PLACEMENT_3D('',#641,#298,#299);
#254=AXIS2_PLACEMENT_3D('',#642,#300,#301);
#255=DIRECTION('',(0.,0.,1.));
#256=DIRECTION('',(1.,0.,0.));
#257=DIRECTION('',(0.,-0.707106781186547,-0.707106781186548));
#258=DIRECTION('',(0.,-0.707106781186547,-0.707106781186548));
#259=DIRECTION('',(-1.,0.,0.));
#260=DIRECTION('',(0.,-0.707106781186547,-0.707106781186548));
#261=DIRECTION('',(0.,-0.707106781186547,-0.707106781186548));
#262=DIRECTION('',(0.,0.,-1.));
#263=DIRECTION('',(-1.,0.,0.));
#264=DIRECTION('',(0.,-1.,0.));
#265=DIRECTION('',(-1.,0.,0.));
#266=DIRECTION('',(0.,-1.,0.));
#267=DIRECTION('',(1.,0.,0.));
#268=DIRECTION('',(1.,0.,0.));
#269=DIRECTION('',(0.,0.,-1.));
#270=DIRECTION('',(0.,-0.707106781186547,-0.707106781186548));
#271=DIRECTION('',(0.,0.707106781186548,-0.707106781186547));
#272=DIRECTION('',(0.,-0.707106781186547,-0.707106781186548));
#273=DIRECTION('',(0.,-1.,0.));
#274=DIRECTION('',(0.,0.,1.));
#275=DIRECTION('',(0.,0.,1.));
#276=DIRECTION('',(1.,0.,0.));
#277=DIRECTION('',(0.,1.,0.));
#278=DIRECTION('',(-1.,0.,0.));
#279=DIRECTION('',(-1.,0.,0.));
#280=DIRECTION('',(0.,-1.,0.));
#281=DIRECTION('',(0.,0.,-1.));
#282=DIRECTION('',(0.,0.,1.));
#283=DIRECTION('',(0.,0.,1.));
#284=DIRECTION('',(3.94255335449274E-17,0.707106781186548,-0.707106781186547));
#285=DIRECTION('',(0.,0.707106781186547,0.707106781186548));
#286=DIRECTION('',(1.,-2.78780621215159E-17,2.78780621215159E-17));
#287=DIRECTION('',(0.,-0.707106781186547,-0.707106781186548));
#288=DIRECTION('',(0.,-0.707106781186548,0.707106781186547));
#289=DIRECTION('',(0.,-0.707106781186547,-0.707106781186548));
#290=DIRECTION('',(0.,0.707106781186547,0.707106781186548));
#291=DIRECTION('',(-1.,0.,0.));
#292=DIRECTION('',(-3.08148791101958E-33,0.707106781186547,0.707106781186548));
#293=DIRECTION('',(0.,-0.707106781186548,0.707106781186547));
#294=DIRECTION('',(0.,0.707106781186548,-0.707106781186547));
#295=DIRECTION('',(0.,0.707106781186548,-0.707106781186547));
#296=DIRECTION('',(-4.8281179137565E-14,-0.707106781186558,0.707106781186537));
#297=DIRECTION('',(0.,-0.707106781186537,-0.707106781186558));
#298=DIRECTION('',(1.,0.,0.));
#299=DIRECTION('',(0.,0.,1.));
#300=DIRECTION('',(1.,0.,0.));
#301=DIRECTION('',(0.,0.,1.));
#302=CARTESIAN_POINT('',(0.,0.,0.));
#303=CARTESIAN_POINT('',(-2.41234983378025E-15,16.6823632934306,3.00540518025885));
#304=CARTESIAN_POINT('',(-2.41234983378025E-15,10.2771752805007,-3.39978283267104));
#305=CARTESIAN_POINT('',(0.818440007433054,16.6604475143668,3.02732095932262));
#306=CARTESIAN_POINT('',(0.818440007433054,10.2552595014369,-3.37786705360727));
#307=CARTESIAN_POINT('',(2.41886234614316,16.2434570458414,3.44431142784801));
#308=CARTESIAN_POINT('',(2.41886234614316,9.83826903291151,-2.96087658508187));
#309=CARTESIAN_POINT('',(3.40266135708772,14.8438842368447,4.84388423684472));
#310=CARTESIAN_POINT('',(3.40266135708772,8.4386962239148,-1.56130377608517));
#311=CARTESIAN_POINT('',(2.41886234614316,13.444311427848,6.24345704584141));
#312=CARTESIAN_POINT('',(2.41886234614316,7.03912341491811,-0.161730967088471));
#313=CARTESIAN_POINT('',(0.818440007433044,13.0273209593226,6.66044751436681));
#314=CARTESIAN_POINT('',(0.818440007433044,6.62213294639271,0.255259501436924));
#315=CARTESIAN_POINT('',(-1.30917412327625E-14,13.0054051802588,6.68236329343058));
#316=CARTESIAN_POINT('',(-1.30917412327625E-14,6.60021716732894,0.277175280500694));
#317=CARTESIAN_POINT('',(2.92386083488491,12.8236649625876,1.7111364146822));
#318=CARTESIAN_POINT('',(3.04846539758559,12.3581619808246,1.6940632550854));
#319=CARTESIAN_POINT('',(3.17607075323802,11.3743343384261,1.72105447683994));
#320=CARTESIAN_POINT('',(2.650033867718,10.009983406783,2.13739154691868));
#321=CARTESIAN_POINT('',(1.44498493570063,9.22012004313239,2.5743585739666));
#322=CARTESIAN_POINT('',(0.484193751175879,9.02891429578207,2.67994141052154));
#323=CARTESIAN_POINT('',(-5.64404348240126E-16,9.00506945095565,2.68202756412739));
#324=CARTESIAN_POINT('',(2.9238608348929,12.8236649625578,1.7111364146811));
#325=CARTESIAN_POINT('',(1.46804830027608E-15,9.00506945095562,2.68202756412738));
#326=CARTESIAN_POINT('',(0.,13.0054051802588,6.68236329343058));
#327=CARTESIAN_POINT('',(-1.89735380184963E-16,13.0054051802588,6.68236329343058));
#328=CARTESIAN_POINT('',(-0.15124356301029,14.8438842368447,4.84388423684471));
#329=CARTESIAN_POINT('',(-2.41234983378025E-15,16.6823632934306,3.00540518025885));
#330=CARTESIAN_POINT('',(0.,16.6823632934306,3.00540518025885));
#331=CARTESIAN_POINT('',(-1.76145304375801E-15,11.1857120562033,-2.49124605696656));
#332=CARTESIAN_POINT('',(-1.23767231807731E-15,11.1857120562034,-2.49124605696656));
#333=CARTESIAN_POINT('',(0.648163204144974,11.1476715609177,-2.49457416905897));
#334=CARTESIAN_POINT('',(1.95126344910416,10.774406318055,-2.3444036363263));
#335=CARTESIAN_POINT('',(2.74299405940787,9.6607417019484,-2.10269443879554));
#336=CARTESIAN_POINT('',(2.92386083489028,9.03316241443036,-2.079366133452));
#337=CARTESIAN_POINT('',(2.92386083489613,9.0331624144313,-2.07936613344545));
#338=CARTESIAN_POINT('',(2.9238608348929,15.400148510783,4.28761996290637));
#339=CARTESIAN_POINT('',(-7.,10.,-5.5));
#340=CARTESIAN_POINT('',(0.,10.,-5.5));
#341=CARTESIAN_POINT('',(0.,9.99999999999997,-5.5));
#342=CARTESIAN_POINT('',(0.,0.,-5.5));
#343=CARTESIAN_POINT('',(-7.,9.99999999999997,-5.5));
#344=CARTESIAN_POINT('',(7.,9.99999999999997,-5.5));
#345=CARTESIAN_POINT('',(7.,10.,-5.5));
#346=CARTESIAN_POINT('',(7.,0.,-5.5));
#347=CARTESIAN_POINT('',(-7.,0.,-5.5));
#348=CARTESIAN_POINT('',(7.,10.,-5.5));
#349=CARTESIAN_POINT('',(7.,17.5938842368447,2.09388423684472));
#350=CARTESIAN_POINT('',(7.,17.5938842368447,2.09388423684472));
#351=CARTESIAN_POINT('',(7.,12.0938842368447,7.5938842368447));
#352=CARTESIAN_POINT('',(7.,12.0938842368447,7.5938842368447));
#353=CARTESIAN_POINT('',(7.,12.0938842368447,7.5938842368447));
#354=CARTESIAN_POINT('',(7.,10.,5.5));
#355=CARTESIAN_POINT('',(7.,10.,5.5));
#356=CARTESIAN_POINT('',(7.,0.,5.5));
#357=CARTESIAN_POINT('',(7.,0.,-5.5));
#358=CARTESIAN_POINT('',(7.,10.,5.5));
#359=CARTESIAN_POINT('',(0.,10.,5.5));
#360=CARTESIAN_POINT('',(0.,0.,5.5));
#361=CARTESIAN_POINT('',(0.,10.,5.5));
#362=CARTESIAN_POINT('',(7.,0.,5.5));
#363=CARTESIAN_POINT('',(7.,10.,5.5));
#364=CARTESIAN_POINT('',(0.,0.,0.));
#365=CARTESIAN_POINT('',(0.,0.,0.));
#366=CARTESIAN_POINT('',(-9.71688373730011E-9,0.,-3.46986905534961));
#367=CARTESIAN_POINT('',(0.,0.,0.));
#368=CARTESIAN_POINT('',(-9.71688562957712E-9,0.,3.46986905534961));
#369=CARTESIAN_POINT('',(-9.71688373730011E-9,0.,-3.46986905534961));
#370=CARTESIAN_POINT('',(0.596231665618391,0.,-3.46986905602257));
#371=CARTESIAN_POINT('',(1.77228891275145,0.,-3.35109135210267));
#372=CARTESIAN_POINT('',(3.4790277716455,0.,-2.78694399120931));
#373=CARTESIAN_POINT('',(4.71916787641406,0.,-1.9124512772863));
#374=CARTESIAN_POINT('',(5.37427713126074,0.,-0.89193069479252));
#375=CARTESIAN_POINT('',(5.56333971932205,0.,-0.000798387581150571));
#376=CARTESIAN_POINT('',(5.37236375930372,0.,0.897589780184021));
#377=CARTESIAN_POINT('',(4.7172783533274,0.,1.91340788172067));
#378=CARTESIAN_POINT('',(3.47156841594193,0.,2.79032582303607));
#379=CARTESIAN_POINT('',(1.77692227933209,0.,3.35023406116777));
#380=CARTESIAN_POINT('',(0.589200540987314,0.,3.46986905601464));
#381=CARTESIAN_POINT('',(-9.71688405648926E-9,0.,3.46986905534961));
#382=CARTESIAN_POINT('',(-5.5,12.0938842368447,7.5938842368447));
#383=CARTESIAN_POINT('',(-5.5,12.0938842368447,7.5938842368447));
#384=CARTESIAN_POINT('',(0.,12.0938842368447,7.5938842368447));
#385=CARTESIAN_POINT('',(0.,12.0938842368447,7.5938842368447));
#386=CARTESIAN_POINT('',(5.5,17.5938842368447,2.09388423684472));
#387=CARTESIAN_POINT('',(0.,17.5938842368447,2.09388423684472));
#388=CARTESIAN_POINT('',(0.,17.5938842368447,2.09388423684472));
#389=CARTESIAN_POINT('',(5.5,17.5938842368447,2.09388423684472));
#390=CARTESIAN_POINT('',(-2.55282517378576E-32,9.8438842368447,9.8438842368447));
#391=CARTESIAN_POINT('',(0.,9.8438842368447,9.8438842368447));
#392=CARTESIAN_POINT('',(0.,9.8438842368447,9.8438842368447));
#393=CARTESIAN_POINT('',(4.77962107500162,9.50575786794882,-1.60677067992788));
#394=CARTESIAN_POINT('',(2.9238608348929,12.8236649625578,1.7111364146811));
#395=CARTESIAN_POINT('',(3.3812295953196,12.6141832283803,1.50165468050362));
#396=CARTESIAN_POINT('',(4.19701763515508,12.0890235025508,0.976494954674059));
#397=CARTESIAN_POINT('',(4.71608636028413,10.942604464651,-0.169924083225622));
#398=CARTESIAN_POINT('',(4.12565552507607,9.81455163614477,-1.29797691173199));
#399=CARTESIAN_POINT('',(3.36490810602061,9.25944941603082,-1.85307913184599));
#400=CARTESIAN_POINT('',(2.92386083489936,9.03316241442894,-2.07936613344791));
#401=CARTESIAN_POINT('',(4.37807469090475,12.8236649625876,-0.110710640769155));
#402=CARTESIAN_POINT('',(4.37807469093323,12.8236649625876,0.110710640769154));
#403=CARTESIAN_POINT('',(4.36145106532496,12.8236649625874,0.221800331012209));
#404=CARTESIAN_POINT('',(4.28718378740357,12.8236649625878,0.457351938791369));
#405=CARTESIAN_POINT('',(4.22894664784527,12.8236649625876,0.581944530426919));
#406=CARTESIAN_POINT('',(4.05802769970781,12.8236649625876,0.84226976641563));
#407=CARTESIAN_POINT('',(3.94514949294114,12.8236649625876,0.9776427707866));
#408=CARTESIAN_POINT('',(3.66055800971979,12.8236649625876,1.24635021507214));
#409=CARTESIAN_POINT('',(3.48894663412533,12.8236649625876,1.37947170136843));
#410=CARTESIAN_POINT('',(3.09196863186911,12.8236649625876,1.62991927770317));
#411=CARTESIAN_POINT('',(2.86671152952657,12.8236649625876,1.74719657834075));
#412=CARTESIAN_POINT('',(2.37295606601349,12.8236649625876,1.95533626416373));
#413=CARTESIAN_POINT('',(2.10452005374767,12.8236649625876,2.04620321259378));
#414=CARTESIAN_POINT('',(1.25426392942683,12.8236649625876,2.2683931967652));
#415=CARTESIAN_POINT('',(0.627296701614382,12.8236649625876,2.3479437462686));
#416=CARTESIAN_POINT('',(-0.627296701614381,12.8236649625876,2.3479437462686));
#417=CARTESIAN_POINT('',(-1.25426392942698,12.8236649625876,2.2683931967652));
#418=CARTESIAN_POINT('',(-2.1045200537476,12.8236649625876,2.04620321259378));
#419=CARTESIAN_POINT('',(-2.37295606601356,12.8236649625876,1.95533626416376));
#420=CARTESIAN_POINT('',(-2.8667115295265,12.8236649625876,1.74719657834072));
#421=CARTESIAN_POINT('',(-3.09196863186903,12.8236649625876,1.62991927770306));
#422=CARTESIAN_POINT('',(-3.48894663412541,12.8236649625876,1.37947170136853));
#423=CARTESIAN_POINT('',(-3.66055800971983,12.8236649625876,1.24635021507218));
#424=CARTESIAN_POINT('',(-3.9451494929411,12.8236649625876,0.977642770786564));
#425=CARTESIAN_POINT('',(-4.05802769970773,12.8236649625876,0.842269766415631));
#426=CARTESIAN_POINT('',(-4.22894664784534,12.8236649625876,0.581944530426926));
#427=CARTESIAN_POINT('',(-4.28718378740365,12.8236649625876,0.45735193879137));
#428=CARTESIAN_POINT('',(-4.36145106532489,12.8236649625876,0.221800331012214));
#429=CARTESIAN_POINT('',(-4.37807469091899,12.8236649625876,0.110710658103166));
#430=CARTESIAN_POINT('',(-4.37807469091899,12.8236649625876,-0.110710658103165));
#431=CARTESIAN_POINT('',(-4.36145106532489,12.8236649625874,-0.221800331012211));
#432=CARTESIAN_POINT('',(-4.28718378740365,12.8236649625878,-0.457351938791365));
#433=CARTESIAN_POINT('',(-4.22894664784546,12.8236649625876,-0.581944530426948));
#434=CARTESIAN_POINT('',(-4.05802769970762,12.8236649625876,-0.842269766415595));
#435=CARTESIAN_POINT('',(-3.94514949294092,12.8236649625876,-0.977642770786558));
#436=CARTESIAN_POINT('',(-3.66055800972001,12.8236649625876,-1.24635021507218));
#437=CARTESIAN_POINT('',(-3.48894663412533,12.8236649625876,-1.37947170136854));
#438=CARTESIAN_POINT('',(-3.0919686318691,12.8236649625876,-1.62991927770307));
#439=CARTESIAN_POINT('',(-2.86671152952663,12.8236649625876,-1.74719657834073));
#440=CARTESIAN_POINT('',(-2.37295606601344,12.8236649625876,-1.95533626416375));
#441=CARTESIAN_POINT('',(-2.10452005374768,12.8236649625876,-2.04620321259378));
#442=CARTESIAN_POINT('',(-1.25426392942684,12.8236649625876,-2.26839319676519));
#443=CARTESIAN_POINT('',(-0.627296701614374,12.8236649625876,-2.3479437462686));
#444=CARTESIAN_POINT('',(0.627296701614389,12.8236649625876,-2.3479437462686));
#445=CARTESIAN_POINT('',(1.25426392942683,12.8236649625876,-2.26839319676519));
#446=CARTESIAN_POINT('',(2.10452005374766,12.8236649625876,-2.04620321259379));
#447=CARTESIAN_POINT('',(2.37295606601358,12.8236649625876,-1.95533626416375));
#448=CARTESIAN_POINT('',(2.86671152952648,12.8236649625876,-1.74719657834073));
#449=CARTESIAN_POINT('',(3.09196863186916,12.8236649625876,-1.62991927770317));
#450=CARTESIAN_POINT('',(3.48894663412526,12.8236649625876,-1.37947170136844));
#451=CARTESIAN_POINT('',(3.66055800971989,12.8236649625876,-1.24635021507218));
#452=CARTESIAN_POINT('',(3.94514949294103,12.8236649625876,-0.977642770786562));
#453=CARTESIAN_POINT('',(4.05802769970773,12.8236649625876,-0.842269766415658));
#454=CARTESIAN_POINT('',(4.22894664784534,12.8236649625876,-0.581944530426898));
#455=CARTESIAN_POINT('',(4.28718378740371,12.8236649625876,-0.457351938791382));
#456=CARTESIAN_POINT('',(4.36145106532482,12.8236649625876,-0.221800331012203));
#457=CARTESIAN_POINT('',(4.37807469090475,12.8236649625876,-0.110710640769155));
#458=CARTESIAN_POINT('',(4.37807469093323,12.8236649625876,0.110710640769154));
#459=CARTESIAN_POINT('',(4.39142728729755,12.6710440874424,-0.112095877591276));
#460=CARTESIAN_POINT('',(4.39142728732565,12.6710440874424,0.112095877591274));
#461=CARTESIAN_POINT('',(4.37457955811566,12.6710440874422,0.224566226449858));
#462=CARTESIAN_POINT('',(4.29952454751285,12.6710440874427,0.462616266165883));
#463=CARTESIAN_POINT('',(4.24073088353643,12.6710440874424,0.588324944898281));
#464=CARTESIAN_POINT('',(4.06856711752697,12.6710440874424,0.850546152947439));
#465=CARTESIAN_POINT('',(3.95500303571212,12.6710440874424,0.986703199214842));
#466=CARTESIAN_POINT('',(3.6690382337994,12.6710440874424,1.25670731261307));
#467=CARTESIAN_POINT('',(3.49673831936605,12.6710440874424,1.39034384958165));
#468=CARTESIAN_POINT('',(3.09842613099216,12.6710440874424,1.64163314433681));
#469=CARTESIAN_POINT('',(2.87252222754114,12.6710440874424,1.75923759896443));
#470=CARTESIAN_POINT('',(2.3775187763292,12.6710440874424,1.96790336661576));
#471=CARTESIAN_POINT('',(2.10848101144848,12.6710440874424,2.05896911437519));
#472=CARTESIAN_POINT('',(1.25646986615432,12.6710440874424,2.28161772281531));
#473=CARTESIAN_POINT('',(0.628399394953246,12.6710440874424,2.36129634266121));
#474=CARTESIAN_POINT('',(-0.628399394953245,12.6710440874424,2.36129634266121));
#475=CARTESIAN_POINT('',(-1.25646986615447,12.6710440874424,2.28161772281531));
#476=CARTESIAN_POINT('',(-2.10848101144841,12.6710440874424,2.05896911437519));
#477=CARTESIAN_POINT('',(-2.37751877632927,12.6710440874424,1.96790336661579));
#478=CARTESIAN_POINT('',(-2.87252222754106,12.6710440874424,1.75923759896439));
#479=CARTESIAN_POINT('',(-3.09842613099209,12.6710440874424,1.64163314433671));
#480=CARTESIAN_POINT('',(-3.49673831936613,12.6710440874424,1.39034384958175));
#481=CARTESIAN_POINT('',(-3.66903823379944,12.6710440874424,1.25670731261311));
#482=CARTESIAN_POINT('',(-3.95500303571208,12.6710440874424,0.986703199214806));
#483=CARTESIAN_POINT('',(-4.0685671175269,12.6710440874424,0.85054615294744));
#484=CARTESIAN_POINT('',(-4.2407308835365,12.6710440874424,0.588324944898288));
#485=CARTESIAN_POINT('',(-4.29952454751292,12.6710440874424,0.462616266165883));
#486=CARTESIAN_POINT('',(-4.37457955811558,12.6710440874424,0.224566226449862));
#487=CARTESIAN_POINT('',(-4.3914272873116,12.6710440874424,0.112095894606741));
#488=CARTESIAN_POINT('',(-4.3914272873116,12.6710440874424,-0.112095894606739));
#489=CARTESIAN_POINT('',(-4.37457955811558,12.6710440874422,-0.224566226449859));
#490=CARTESIAN_POINT('',(-4.29952454751292,12.6710440874427,-0.462616266165879));
#491=CARTESIAN_POINT('',(-4.24073088353662,12.6710440874424,-0.58832494489831));
#492=CARTESIAN_POINT('',(-4.06856711752678,12.6710440874424,-0.850546152947405));
#493=CARTESIAN_POINT('',(-3.9550030357119,12.6710440874424,-0.986703199214799));
#494=CARTESIAN_POINT('',(-3.66903823379963,12.6710440874424,-1.25670731261311));
#495=CARTESIAN_POINT('',(-3.49673831936606,12.6710440874424,-1.39034384958175));
#496=CARTESIAN_POINT('',(-3.09842613099215,12.6710440874424,-1.64163314433671));
#497=CARTESIAN_POINT('',(-2.8725222275412,12.6710440874424,-1.7592375989644));
#498=CARTESIAN_POINT('',(-2.37751877632914,12.6710440874424,-1.96790336661578));
#499=CARTESIAN_POINT('',(-2.10848101144849,12.6710440874424,-2.05896911437519));
#500=CARTESIAN_POINT('',(-1.25646986615432,12.6710440874424,-2.28161772281531));
#501=CARTESIAN_POINT('',(-0.628399394953239,12.6710440874424,-2.36129634266121));
#502=CARTESIAN_POINT('',(0.628399394953253,12.6710440874424,-2.36129634266121));
#503=CARTESIAN_POINT('',(1.25646986615431,12.6710440874424,-2.28161772281531));
#504=CARTESIAN_POINT('',(2.10848101144847,12.6710440874424,-2.05896911437519));
#505=CARTESIAN_POINT('',(2.37751877632928,12.6710440874424,-1.96790336661578));
#506=CARTESIAN_POINT('',(2.87252222754105,12.6710440874424,-1.7592375989644));
#507=CARTESIAN_POINT('',(3.09842613099221,12.6710440874424,-1.64163314433681));
#508=CARTESIAN_POINT('',(3.49673831936599,12.6710440874424,-1.39034384958166));
#509=CARTESIAN_POINT('',(3.66903823379951,12.6710440874424,-1.25670731261311));
#510=CARTESIAN_POINT('',(3.95500303571202,12.6710440874424,-0.986703199214804));
#511=CARTESIAN_POINT('',(4.0685671175269,12.6710440874424,-0.850546152947467));
#512=CARTESIAN_POINT('',(4.2407308835365,12.6710440874424,-0.58832494489826));
#513=CARTESIAN_POINT('',(4.29952454751299,12.6710440874424,-0.462616266165896));
#514=CARTESIAN_POINT('',(4.37457955811552,12.6710440874424,-0.224566226449851));
#515=CARTESIAN_POINT('',(4.39142728729755,12.6710440874424,-0.112095877591276));
#516=CARTESIAN_POINT('',(4.39142728732565,12.6710440874424,0.112095877591274));
#517=CARTESIAN_POINT('',(4.45013603767571,12.,-0.118186492510809));
#518=CARTESIAN_POINT('',(4.45013603770211,12.,0.118186492510808));
#519=CARTESIAN_POINT('',(4.43230296886039,11.9999999999998,0.236727326811472));
#520=CARTESIAN_POINT('',(4.35378445198527,12.0000000000002,0.485762482276022));
#521=CARTESIAN_POINT('',(4.29254385917335,12.,0.616378377316139));
#522=CARTESIAN_POINT('',(4.114906872858,12.,0.886935803067554));
#523=CARTESIAN_POINT('',(3.99832713282884,12.,1.02654012794876));
#524=CARTESIAN_POINT('',(3.70632411768258,12.,1.30224544139982));
#525=CARTESIAN_POINT('',(3.53099683286905,12.,1.43814655526879));
#526=CARTESIAN_POINT('',(3.12681848952155,12.,1.6931367210141));
#527=CARTESIAN_POINT('',(2.89807072831391,12.,1.81217960764183));
#528=CARTESIAN_POINT('',(2.39758011968838,12.,2.02315845402563));
#529=CARTESIAN_POINT('',(2.12589656645174,12.,2.11509828348875));
#530=CARTESIAN_POINT('',(1.26616893777112,12.,2.33976337298748));
#531=CARTESIAN_POINT('',(0.633247721531136,12.,2.42000509303852));
#532=CARTESIAN_POINT('',(-0.633247721531135,12.,2.42000509303852));
#533=CARTESIAN_POINT('',(-1.26616893777127,12.,2.33976337298748));
#534=CARTESIAN_POINT('',(-2.12589656645167,12.,2.11509828348875));
#535=CARTESIAN_POINT('',(-2.39758011968845,12.,2.02315845402567));
#536=CARTESIAN_POINT('',(-2.89807072831384,12.,1.8121796076418));
#537=CARTESIAN_POINT('',(-3.12681848952148,12.,1.693136721014));
#538=CARTESIAN_POINT('',(-3.53099683286913,12.,1.43814655526889));
#539=CARTESIAN_POINT('',(-3.70632411768262,12.,1.30224544139986));
#540=CARTESIAN_POINT('',(-3.9983271328288,12.,1.02654012794873));
#541=CARTESIAN_POINT('',(-4.11490687285793,12.,0.886935803067554));
#542=CARTESIAN_POINT('',(-4.29254385917342,12.,0.616378377316146));
#543=CARTESIAN_POINT('',(-4.35378445198535,12.,0.485762482276022));
#544=CARTESIAN_POINT('',(-4.43230296886032,12.,0.236727326811477));
#545=CARTESIAN_POINT('',(-4.45013603768891,12.,0.118186508125691));
#546=CARTESIAN_POINT('',(-4.45013603768891,12.,-0.118186508125689));
#547=CARTESIAN_POINT('',(-4.43230296886032,11.9999999999998,-0.236727326811472));
#548=CARTESIAN_POINT('',(-4.35378445198535,12.0000000000002,-0.485762482276018));
#549=CARTESIAN_POINT('',(-4.29254385917353,12.,-0.616378377316166));
#550=CARTESIAN_POINT('',(-4.11490687285782,12.,-0.88693580306752));
#551=CARTESIAN_POINT('',(-3.99832713282862,12.,-1.02654012794872));
#552=CARTESIAN_POINT('',(-3.7063241176828,12.,-1.30224544139986));
#553=CARTESIAN_POINT('',(-3.53099683286906,12.,-1.43814655526889));
#554=CARTESIAN_POINT('',(-3.12681848952154,12.,-1.693136721014));
#555=CARTESIAN_POINT('',(-2.89807072831398,12.,-1.81217960764181));
#556=CARTESIAN_POINT('',(-2.39758011968833,12.,-2.02315845402565));
#557=CARTESIAN_POINT('',(-2.12589656645175,12.,-2.11509828348875));
#558=CARTESIAN_POINT('',(-1.26616893777112,12.,-2.33976337298747));
#559=CARTESIAN_POINT('',(-0.633247721531128,12.,-2.42000509303852));
#560=CARTESIAN_POINT('',(0.633247721531143,12.,-2.42000509303852));
#561=CARTESIAN_POINT('',(1.26616893777111,12.,-2.33976337298748));
#562=CARTESIAN_POINT('',(2.12589656645174,12.,-2.11509828348875));
#563=CARTESIAN_POINT('',(2.39758011968846,12.,-2.02315845402565));
#564=CARTESIAN_POINT('',(2.89807072831383,12.,-1.81217960764181));
#565=CARTESIAN_POINT('',(3.1268184895216,12.,-1.6931367210141));
#566=CARTESIAN_POINT('',(3.53099683286899,12.,-1.4381465552688));
#567=CARTESIAN_POINT('',(3.70632411768268,12.,-1.30224544139986));
#568=CARTESIAN_POINT('',(3.99832713282874,12.,-1.02654012794873));
#569=CARTESIAN_POINT('',(4.11490687285793,12.,-0.886935803067581));
#570=CARTESIAN_POINT('',(4.29254385917342,12.,-0.616378377316118));
#571=CARTESIAN_POINT('',(4.35378445198541,12.,-0.485762482276035));
#572=CARTESIAN_POINT('',(4.43230296886026,12.,-0.236727326811466));
#573=CARTESIAN_POINT('',(4.45013603767571,12.,-0.118186492510809));
#574=CARTESIAN_POINT('',(4.45013603770211,12.,0.118186492510808));
#575=CARTESIAN_POINT('',(5.50000000000197,0.,-0.227102404895882));
#576=CARTESIAN_POINT('',(5.49999999999803,0.,0.227102404895881));
#577=CARTESIAN_POINT('',(5.46454651574396,0.,0.454199184578025));
#578=CARTESIAN_POINT('',(5.32409156869158,0.,0.899676558145882));
#579=CARTESIAN_POINT('',(5.21909357368276,0.,1.11804614447781));
#580=CARTESIAN_POINT('',(4.9435812839414,0.,1.53767665543939));
#581=CARTESIAN_POINT('',(4.77307379274221,0.,1.73892721808619));
#582=CARTESIAN_POINT('',(4.37309194258579,0.,2.11658470116999));
#583=CARTESIAN_POINT('',(4.1436274628517,0.,2.29298229405306));
#584=CARTESIAN_POINT('',(3.63454713020033,0.,2.61415358368107));
#585=CARTESIAN_POINT('',(3.35494385335973,0.,2.75891934653173));
#586=CARTESIAN_POINT('',(2.75632870985589,0.,3.01126200985254));
#587=CARTESIAN_POINT('',(2.43733163301447,0.,3.11883267585909));
#588=CARTESIAN_POINT('',(1.43961336799503,0.,3.37955765047714));
#589=CARTESIAN_POINT('',(0.719948312481004,0.,3.46986905534961));
#590=CARTESIAN_POINT('',(-0.719948312481003,0.,3.46986905534961));
#591=CARTESIAN_POINT('',(-1.43961336799518,0.,3.37955765047714));
#592=CARTESIAN_POINT('',(-2.4373316330144,0.,3.11883267585909));
#593=CARTESIAN_POINT('',(-2.75632870985596,0.,3.01126200985254));
#594=CARTESIAN_POINT('',(-3.35494385335966,0.,2.75891934653174));
#595=CARTESIAN_POINT('',(-3.63454713020026,0.,2.61415358368104));
#596=CARTESIAN_POINT('',(-4.14362746285176,0.,2.29298229405309));
#597=CARTESIAN_POINT('',(-4.37309194258583,0.,2.11658470117005));
#598=CARTESIAN_POINT('',(-4.77307379274216,0.,1.73892721808614));
#599=CARTESIAN_POINT('',(-4.94358128394134,0.,1.53767665543938));
#600=CARTESIAN_POINT('',(-5.2190935736828,0.,1.11804614447783));
#601=CARTESIAN_POINT('',(-5.32409156869163,0.,0.899676558145875));
#602=CARTESIAN_POINT('',(-5.4645465157439,0.,0.454199184578039));
#603=CARTESIAN_POINT('',(-5.5,0.,0.227102395464713));
#604=CARTESIAN_POINT('',(-5.5,0.,-0.227102395464711));
#605=CARTESIAN_POINT('',(-5.46454651574391,0.,-0.45419918457802));
#606=CARTESIAN_POINT('',(-5.32409156869163,0.,-0.899676558145881));
#607=CARTESIAN_POINT('',(-5.21909357368281,0.,-1.11804614447782));
#608=CARTESIAN_POINT('',(-4.94358128394135,0.,-1.53767665543937));
#609=CARTESIAN_POINT('',(-4.77307379274204,0.,-1.73892721808616));
#610=CARTESIAN_POINT('',(-4.37309194258596,0.,-2.11658470117001));
#611=CARTESIAN_POINT('',(-4.14362746285176,0.,-2.2929822940531));
#612=CARTESIAN_POINT('',(-3.63454713020026,0.,-2.61415358368104));
#613=CARTESIAN_POINT('',(-3.35494385335976,0.,-2.75891934653174));
#614=CARTESIAN_POINT('',(-2.75632870985587,0.,-3.01126200985254));
#615=CARTESIAN_POINT('',(-2.43733163301448,0.,-3.11883267585909));
#616=CARTESIAN_POINT('',(-1.43961336799504,0.,-3.37955765047714));
#617=CARTESIAN_POINT('',(-0.719948312480996,0.,-3.46986905534961));
#618=CARTESIAN_POINT('',(0.719948312481013,0.,-3.46986905534961));
#619=CARTESIAN_POINT('',(1.43961336799502,0.,-3.3795576504773));
#620=CARTESIAN_POINT('',(2.43733163301447,0.,-3.11883267585902));
#621=CARTESIAN_POINT('',(2.75632870985594,0.,-3.01126200985254));
#622=CARTESIAN_POINT('',(3.35494385335968,0.,-2.75891934653174));
#623=CARTESIAN_POINT('',(3.63454713020031,0.,-2.61415358368112));
#624=CARTESIAN_POINT('',(4.14362746285168,0.,-2.29298229405304));
#625=CARTESIAN_POINT('',(4.37309194258583,0.,-2.11658470117002));
#626=CARTESIAN_POINT('',(4.77307379274216,0.,-1.73892721808617));
#627=CARTESIAN_POINT('',(4.94358128394134,0.,-1.53767665543941));
#628=CARTESIAN_POINT('',(5.21909357368281,0.,-1.1180461444778));
#629=CARTESIAN_POINT('',(5.32409156869164,0.,-0.899676558145892));
#630=CARTESIAN_POINT('',(5.46454651574389,0.,-0.454199184578027));
#631=CARTESIAN_POINT('',(5.50000000000197,0.,-0.227102404895882));
#632=CARTESIAN_POINT('',(5.49999999999803,0.,0.227102404895881));
#633=CARTESIAN_POINT('',(-9.71688552419266E-9,0.,-3.46986905534961));
#634=CARTESIAN_POINT('',(-9.71688552419266E-9,3.72857068540111,-3.14366138922193));
#635=CARTESIAN_POINT('',(-1.76145304375801E-15,7.45714137080223,-2.81745372309425));
#636=CARTESIAN_POINT('',(-1.76145304375801E-15,11.1857120562033,-2.49124605696656));
#637=CARTESIAN_POINT('',(-7.85620150157879E-16,9.00506945095562,2.68202756412738));
#638=CARTESIAN_POINT('',(-7.85620150157879E-16,6.00337963397041,2.94464139453479));
#639=CARTESIAN_POINT('',(-4.8890289516038E-16,3.00168981698521,3.2072552249422));
#640=CARTESIAN_POINT('',(-4.8890289516038E-16,0.,3.46986905534961));
#641=CARTESIAN_POINT('',(0.,0.703045241904767,0.703045241904767));
#642=CARTESIAN_POINT('',(0.,0.703045241904767,0.703045241904767));
#643=MECHANICAL_DESIGN_GEOMETRIC_PRESENTATION_REPRESENTATION('',(#232),
#644);
#644=(
GEOMETRIC_REPRESENTATION_CONTEXT(3)
GLOBAL_UNCERTAINTY_ASSIGNED_CONTEXT((#645))
GLOBAL_UNIT_ASSIGNED_CONTEXT((#648,#647,#646))
REPRESENTATION_CONTEXT('FlareHolder01','TOP_LEVEL_ASSEMBLY_PART')
);
#645=UNCERTAINTY_MEASURE_WITH_UNIT(LENGTH_MEASURE(0.005),#648,
'DISTANCE_ACCURACY_VALUE','Maximum Tolerance applied to model');
#646=(
NAMED_UNIT(*)
SI_UNIT($,.STERADIAN.)
SOLID_ANGLE_UNIT()
);
#647=(
NAMED_UNIT(*)
PLANE_ANGLE_UNIT()
SI_UNIT($,.RADIAN.)
);
#648=(
LENGTH_UNIT()
NAMED_UNIT(*)
SI_UNIT(.MILLI.,.METRE.)
);
#649=PRODUCT_DEFINITION_SHAPE('','',#650);
#650=PRODUCT_DEFINITION('','',#652,#651);
#651=PRODUCT_DEFINITION_CONTEXT('',#658,'design');
#652=PRODUCT_DEFINITION_FORMATION_WITH_SPECIFIED_SOURCE('','',#654,
 .NOT_KNOWN.);
#653=PRODUCT_RELATED_PRODUCT_CATEGORY('','',(#654));
#654=PRODUCT('FlareHolder01','FlareHolder01','FlareHolder01',(#656));
#655=PRODUCT_CATEGORY('','');
#656=PRODUCT_CONTEXT('',#658,'mechanical');
#657=APPLICATION_PROTOCOL_DEFINITION('international standard',
'automotive_design',2010,#658);
#658=APPLICATION_CONTEXT(
'core data for automotive mechanical design processes');
ENDSEC;
END-ISO-10303-21;
