ISO-10303-21;
HEADER;
/* Generated by software containing ST-Developer
 * from STEP Tools, Inc. (www.steptools.com) 
 */
/* OPTION: strings as raw bytes, not using required /X/ escapes */

FILE_DESCRIPTION(
/* description */ ('Unknown'),
/* implementation_level */ '2;1');

FILE_NAME(
/* name */ 'IsolatePlugGrip02',
/* time_stamp */ '2023-05-23T16:04:46+01:00',
/* author */ ('Unknown'),
/* organization */ ('Unknown'),
/* preprocessor_version */ 'ST-DEVELOPER v18.102',
/* originating_system */ 'Solid Edge',
/* authorisation */ 'Unknown');

FILE_SCHEMA (('AUTOMOTIVE_DESIGN {1 0 10303 214 3 1 1}'));
ENDSEC;

DATA;
#10=PROPERTY_DEFINITION_REPRESENTATION(#14,#12);
#11=PROPERTY_DEFINITION_REPRESENTATION(#15,#13);
#12=REPRESENTATION('',(#16),#1225);
#13=REPRESENTATION('',(#17),#1225);
#14=PROPERTY_DEFINITION('pmi validation property','',#1230);
#15=PROPERTY_DEFINITION('pmi validation property','',#1230);
#16=VALUE_REPRESENTATION_ITEM('number of annotations',COUNT_MEASURE(0.));
#17=VALUE_REPRESENTATION_ITEM('number of views',COUNT_MEASURE(0.));
#18=SHAPE_REPRESENTATION_RELATIONSHIP('','',#855,#19);
#19=ADVANCED_BREP_SHAPE_REPRESENTATION('',(#853),#1225);
#20=CYLINDRICAL_SURFACE('',#865,4.2);
#21=CYLINDRICAL_SURFACE('',#880,4.2);
#22=CIRCLE('',#858,4.2);
#23=CIRCLE('',#859,4.2);
#24=CIRCLE('',#861,4.2);
#25=CIRCLE('',#862,4.2);
#26=ORIENTED_EDGE('',*,*,#200,.F.);
#27=ORIENTED_EDGE('',*,*,#201,.T.);
#28=ORIENTED_EDGE('',*,*,#202,.F.);
#29=ORIENTED_EDGE('',*,*,#203,.T.);
#30=ORIENTED_EDGE('',*,*,#204,.T.);
#31=ORIENTED_EDGE('',*,*,#205,.T.);
#32=ORIENTED_EDGE('',*,*,#206,.T.);
#33=ORIENTED_EDGE('',*,*,#207,.F.);
#34=ORIENTED_EDGE('',*,*,#208,.F.);
#35=ORIENTED_EDGE('',*,*,#209,.F.);
#36=ORIENTED_EDGE('',*,*,#210,.F.);
#37=ORIENTED_EDGE('',*,*,#211,.F.);
#38=ORIENTED_EDGE('',*,*,#212,.T.);
#39=ORIENTED_EDGE('',*,*,#213,.F.);
#40=ORIENTED_EDGE('',*,*,#214,.T.);
#41=ORIENTED_EDGE('',*,*,#215,.T.);
#42=ORIENTED_EDGE('',*,*,#216,.F.);
#43=ORIENTED_EDGE('',*,*,#217,.T.);
#44=ORIENTED_EDGE('',*,*,#218,.F.);
#45=ORIENTED_EDGE('',*,*,#219,.T.);
#46=ORIENTED_EDGE('',*,*,#220,.T.);
#47=ORIENTED_EDGE('',*,*,#221,.T.);
#48=ORIENTED_EDGE('',*,*,#222,.T.);
#49=ORIENTED_EDGE('',*,*,#223,.T.);
#50=ORIENTED_EDGE('',*,*,#224,.F.);
#51=ORIENTED_EDGE('',*,*,#225,.F.);
#52=ORIENTED_EDGE('',*,*,#226,.F.);
#53=ORIENTED_EDGE('',*,*,#227,.F.);
#54=ORIENTED_EDGE('',*,*,#228,.T.);
#55=ORIENTED_EDGE('',*,*,#229,.T.);
#56=ORIENTED_EDGE('',*,*,#230,.F.);
#57=ORIENTED_EDGE('',*,*,#231,.F.);
#58=ORIENTED_EDGE('',*,*,#232,.F.);
#59=ORIENTED_EDGE('',*,*,#233,.T.);
#60=ORIENTED_EDGE('',*,*,#234,.F.);
#61=ORIENTED_EDGE('',*,*,#235,.F.);
#62=ORIENTED_EDGE('',*,*,#236,.F.);
#63=ORIENTED_EDGE('',*,*,#237,.T.);
#64=ORIENTED_EDGE('',*,*,#238,.T.);
#65=ORIENTED_EDGE('',*,*,#239,.F.);
#66=ORIENTED_EDGE('',*,*,#240,.T.);
#67=ORIENTED_EDGE('',*,*,#241,.T.);
#68=ORIENTED_EDGE('',*,*,#242,.T.);
#69=ORIENTED_EDGE('',*,*,#243,.T.);
#70=ORIENTED_EDGE('',*,*,#244,.T.);
#71=ORIENTED_EDGE('',*,*,#245,.F.);
#72=ORIENTED_EDGE('',*,*,#246,.F.);
#73=ORIENTED_EDGE('',*,*,#247,.F.);
#74=ORIENTED_EDGE('',*,*,#248,.F.);
#75=ORIENTED_EDGE('',*,*,#249,.T.);
#76=ORIENTED_EDGE('',*,*,#250,.F.);
#77=ORIENTED_EDGE('',*,*,#251,.F.);
#78=ORIENTED_EDGE('',*,*,#252,.T.);
#79=ORIENTED_EDGE('',*,*,#253,.T.);
#80=ORIENTED_EDGE('',*,*,#254,.T.);
#81=ORIENTED_EDGE('',*,*,#255,.F.);
#82=ORIENTED_EDGE('',*,*,#256,.T.);
#83=ORIENTED_EDGE('',*,*,#257,.T.);
#84=ORIENTED_EDGE('',*,*,#258,.T.);
#85=ORIENTED_EDGE('',*,*,#205,.F.);
#86=ORIENTED_EDGE('',*,*,#259,.T.);
#87=ORIENTED_EDGE('',*,*,#254,.F.);
#88=ORIENTED_EDGE('',*,*,#260,.F.);
#89=ORIENTED_EDGE('',*,*,#250,.T.);
#90=ORIENTED_EDGE('',*,*,#261,.F.);
#91=ORIENTED_EDGE('',*,*,#209,.T.);
#92=ORIENTED_EDGE('',*,*,#207,.T.);
#93=ORIENTED_EDGE('',*,*,#262,.F.);
#94=ORIENTED_EDGE('',*,*,#252,.F.);
#95=ORIENTED_EDGE('',*,*,#263,.T.);
#96=ORIENTED_EDGE('',*,*,#264,.T.);
#97=ORIENTED_EDGE('',*,*,#215,.F.);
#98=ORIENTED_EDGE('',*,*,#265,.F.);
#99=ORIENTED_EDGE('',*,*,#244,.F.);
#100=ORIENTED_EDGE('',*,*,#266,.F.);
#101=ORIENTED_EDGE('',*,*,#246,.T.);
#102=ORIENTED_EDGE('',*,*,#267,.T.);
#103=ORIENTED_EDGE('',*,*,#213,.T.);
#104=ORIENTED_EDGE('',*,*,#265,.T.);
#105=ORIENTED_EDGE('',*,*,#214,.F.);
#106=ORIENTED_EDGE('',*,*,#267,.F.);
#107=ORIENTED_EDGE('',*,*,#245,.T.);
#108=ORIENTED_EDGE('',*,*,#208,.T.);
#109=ORIENTED_EDGE('',*,*,#263,.F.);
#110=ORIENTED_EDGE('',*,*,#251,.T.);
#111=ORIENTED_EDGE('',*,*,#260,.T.);
#112=ORIENTED_EDGE('',*,*,#261,.T.);
#113=ORIENTED_EDGE('',*,*,#249,.F.);
#114=ORIENTED_EDGE('',*,*,#268,.F.);
#115=ORIENTED_EDGE('',*,*,#210,.T.);
#116=ORIENTED_EDGE('',*,*,#266,.T.);
#117=ORIENTED_EDGE('',*,*,#212,.F.);
#118=ORIENTED_EDGE('',*,*,#269,.F.);
#119=ORIENTED_EDGE('',*,*,#247,.T.);
#120=ORIENTED_EDGE('',*,*,#211,.T.);
#121=ORIENTED_EDGE('',*,*,#268,.T.);
#122=ORIENTED_EDGE('',*,*,#248,.T.);
#123=ORIENTED_EDGE('',*,*,#269,.T.);
#124=ORIENTED_EDGE('',*,*,#270,.F.);
#125=ORIENTED_EDGE('',*,*,#229,.F.);
#126=ORIENTED_EDGE('',*,*,#271,.T.);
#127=ORIENTED_EDGE('',*,*,#201,.F.);
#128=ORIENTED_EDGE('',*,*,#262,.T.);
#129=ORIENTED_EDGE('',*,*,#206,.F.);
#130=ORIENTED_EDGE('',*,*,#258,.F.);
#131=ORIENTED_EDGE('',*,*,#253,.F.);
#132=ORIENTED_EDGE('',*,*,#203,.F.);
#133=ORIENTED_EDGE('',*,*,#272,.F.);
#134=ORIENTED_EDGE('',*,*,#256,.F.);
#135=ORIENTED_EDGE('',*,*,#273,.F.);
#136=ORIENTED_EDGE('',*,*,#271,.F.);
#137=ORIENTED_EDGE('',*,*,#257,.F.);
#138=ORIENTED_EDGE('',*,*,#272,.T.);
#139=ORIENTED_EDGE('',*,*,#202,.T.);
#140=ORIENTED_EDGE('',*,*,#259,.F.);
#141=ORIENTED_EDGE('',*,*,#204,.F.);
#142=ORIENTED_EDGE('',*,*,#273,.T.);
#143=ORIENTED_EDGE('',*,*,#255,.T.);
#144=ORIENTED_EDGE('',*,*,#274,.F.);
#145=ORIENTED_EDGE('',*,*,#234,.T.);
#146=ORIENTED_EDGE('',*,*,#275,.F.);
#147=ORIENTED_EDGE('',*,*,#225,.T.);
#148=ORIENTED_EDGE('',*,*,#276,.T.);
#149=ORIENTED_EDGE('',*,*,#221,.F.);
#150=ORIENTED_EDGE('',*,*,#277,.T.);
#151=ORIENTED_EDGE('',*,*,#238,.F.);
#152=ORIENTED_EDGE('',*,*,#223,.F.);
#153=ORIENTED_EDGE('',*,*,#278,.F.);
#154=ORIENTED_EDGE('',*,*,#236,.T.);
#155=ORIENTED_EDGE('',*,*,#279,.T.);
#156=ORIENTED_EDGE('',*,*,#280,.T.);
#157=ORIENTED_EDGE('',*,*,#217,.F.);
#158=ORIENTED_EDGE('',*,*,#281,.F.);
#159=ORIENTED_EDGE('',*,*,#242,.F.);
#160=ORIENTED_EDGE('',*,*,#264,.F.);
#161=ORIENTED_EDGE('',*,*,#243,.F.);
#162=ORIENTED_EDGE('',*,*,#281,.T.);
#163=ORIENTED_EDGE('',*,*,#216,.T.);
#164=ORIENTED_EDGE('',*,*,#222,.F.);
#165=ORIENTED_EDGE('',*,*,#276,.F.);
#166=ORIENTED_EDGE('',*,*,#237,.F.);
#167=ORIENTED_EDGE('',*,*,#278,.T.);
#168=ORIENTED_EDGE('',*,*,#277,.F.);
#169=ORIENTED_EDGE('',*,*,#220,.F.);
#170=ORIENTED_EDGE('',*,*,#282,.T.);
#171=ORIENTED_EDGE('',*,*,#239,.T.);
#172=ORIENTED_EDGE('',*,*,#280,.F.);
#173=ORIENTED_EDGE('',*,*,#241,.F.);
#174=ORIENTED_EDGE('',*,*,#283,.T.);
#175=ORIENTED_EDGE('',*,*,#218,.T.);
#176=ORIENTED_EDGE('',*,*,#219,.F.);
#177=ORIENTED_EDGE('',*,*,#283,.F.);
#178=ORIENTED_EDGE('',*,*,#240,.F.);
#179=ORIENTED_EDGE('',*,*,#282,.F.);
#180=ORIENTED_EDGE('',*,*,#230,.T.);
#181=ORIENTED_EDGE('',*,*,#270,.T.);
#182=ORIENTED_EDGE('',*,*,#200,.T.);
#183=ORIENTED_EDGE('',*,*,#284,.F.);
#184=ORIENTED_EDGE('',*,*,#279,.F.);
#185=ORIENTED_EDGE('',*,*,#235,.T.);
#186=ORIENTED_EDGE('',*,*,#274,.T.);
#187=ORIENTED_EDGE('',*,*,#224,.T.);
#188=ORIENTED_EDGE('',*,*,#227,.T.);
#189=ORIENTED_EDGE('',*,*,#285,.T.);
#190=ORIENTED_EDGE('',*,*,#232,.T.);
#191=ORIENTED_EDGE('',*,*,#286,.T.);
#192=ORIENTED_EDGE('',*,*,#284,.T.);
#193=ORIENTED_EDGE('',*,*,#228,.F.);
#194=ORIENTED_EDGE('',*,*,#286,.F.);
#195=ORIENTED_EDGE('',*,*,#231,.T.);
#196=ORIENTED_EDGE('',*,*,#275,.T.);
#197=ORIENTED_EDGE('',*,*,#233,.F.);
#198=ORIENTED_EDGE('',*,*,#285,.F.);
#199=ORIENTED_EDGE('',*,*,#226,.T.);
#200=EDGE_CURVE('',#287,#288,#345,.T.);
#201=EDGE_CURVE('',#287,#289,#346,.T.);
#202=EDGE_CURVE('',#290,#289,#347,.T.);
#203=EDGE_CURVE('',#290,#291,#348,.T.);
#204=EDGE_CURVE('',#291,#292,#349,.T.);
#205=EDGE_CURVE('',#292,#293,#350,.T.);
#206=EDGE_CURVE('',#293,#294,#351,.T.);
#207=EDGE_CURVE('',#295,#294,#22,.F.);
#208=EDGE_CURVE('',#296,#295,#352,.T.);
#209=EDGE_CURVE('',#297,#296,#353,.T.);
#210=EDGE_CURVE('',#298,#297,#354,.T.);
#211=EDGE_CURVE('',#299,#298,#355,.T.);
#212=EDGE_CURVE('',#299,#300,#356,.T.);
#213=EDGE_CURVE('',#301,#300,#357,.T.);
#214=EDGE_CURVE('',#301,#302,#358,.T.);
#215=EDGE_CURVE('',#302,#303,#359,.T.);
#216=EDGE_CURVE('',#304,#303,#360,.T.);
#217=EDGE_CURVE('',#304,#305,#361,.T.);
#218=EDGE_CURVE('',#306,#305,#362,.T.);
#219=EDGE_CURVE('',#306,#307,#363,.T.);
#220=EDGE_CURVE('',#307,#308,#364,.T.);
#221=EDGE_CURVE('',#308,#309,#365,.T.);
#222=EDGE_CURVE('',#309,#310,#366,.T.);
#223=EDGE_CURVE('',#310,#311,#23,.F.);
#224=EDGE_CURVE('',#312,#311,#367,.T.);
#225=EDGE_CURVE('',#313,#312,#368,.T.);
#226=EDGE_CURVE('',#314,#313,#369,.T.);
#227=EDGE_CURVE('',#315,#314,#370,.T.);
#228=EDGE_CURVE('',#315,#288,#371,.T.);
#229=EDGE_CURVE('',#316,#317,#372,.T.);
#230=EDGE_CURVE('',#318,#317,#373,.T.);
#231=EDGE_CURVE('',#319,#318,#374,.T.);
#232=EDGE_CURVE('',#320,#319,#375,.T.);
#233=EDGE_CURVE('',#320,#321,#376,.T.);
#234=EDGE_CURVE('',#322,#321,#377,.T.);
#235=EDGE_CURVE('',#323,#322,#378,.T.);
#236=EDGE_CURVE('',#324,#323,#24,.T.);
#237=EDGE_CURVE('',#324,#325,#379,.T.);
#238=EDGE_CURVE('',#325,#326,#380,.T.);
#239=EDGE_CURVE('',#327,#326,#381,.T.);
#240=EDGE_CURVE('',#327,#328,#382,.T.);
#241=EDGE_CURVE('',#328,#329,#383,.T.);
#242=EDGE_CURVE('',#329,#330,#384,.T.);
#243=EDGE_CURVE('',#330,#331,#385,.T.);
#244=EDGE_CURVE('',#331,#332,#386,.T.);
#245=EDGE_CURVE('',#333,#332,#387,.T.);
#246=EDGE_CURVE('',#334,#333,#388,.T.);
#247=EDGE_CURVE('',#335,#334,#389,.T.);
#248=EDGE_CURVE('',#336,#335,#390,.T.);
#249=EDGE_CURVE('',#336,#337,#391,.T.);
#250=EDGE_CURVE('',#338,#337,#392,.T.);
#251=EDGE_CURVE('',#339,#338,#393,.T.);
#252=EDGE_CURVE('',#339,#340,#25,.T.);
#253=EDGE_CURVE('',#340,#341,#394,.T.);
#254=EDGE_CURVE('',#341,#342,#395,.T.);
#255=EDGE_CURVE('',#343,#342,#396,.T.);
#256=EDGE_CURVE('',#343,#344,#397,.T.);
#257=EDGE_CURVE('',#344,#316,#398,.T.);
#258=EDGE_CURVE('',#341,#293,#399,.T.);
#259=EDGE_CURVE('',#292,#342,#400,.T.);
#260=EDGE_CURVE('',#338,#296,#401,.T.);
#261=EDGE_CURVE('',#297,#337,#402,.T.);
#262=EDGE_CURVE('',#340,#294,#403,.F.);
#263=EDGE_CURVE('',#339,#295,#404,.F.);
#264=EDGE_CURVE('',#331,#303,#405,.T.);
#265=EDGE_CURVE('',#332,#302,#406,.T.);
#266=EDGE_CURVE('',#334,#300,#407,.T.);
#267=EDGE_CURVE('',#333,#301,#408,.T.);
#268=EDGE_CURVE('',#298,#336,#409,.T.);
#269=EDGE_CURVE('',#335,#299,#410,.T.);
#270=EDGE_CURVE('',#317,#287,#411,.T.);
#271=EDGE_CURVE('',#316,#289,#412,.T.);
#272=EDGE_CURVE('',#344,#290,#413,.T.);
#273=EDGE_CURVE('',#291,#343,#414,.T.);
#274=EDGE_CURVE('',#322,#312,#415,.T.);
#275=EDGE_CURVE('',#313,#321,#416,.T.);
#276=EDGE_CURVE('',#325,#309,#417,.T.);
#277=EDGE_CURVE('',#308,#326,#418,.T.);
#278=EDGE_CURVE('',#324,#310,#419,.F.);
#279=EDGE_CURVE('',#323,#311,#420,.F.);
#280=EDGE_CURVE('',#329,#305,#421,.T.);
#281=EDGE_CURVE('',#330,#304,#422,.T.);
#282=EDGE_CURVE('',#307,#327,#423,.T.);
#283=EDGE_CURVE('',#328,#306,#424,.T.);
#284=EDGE_CURVE('',#318,#288,#425,.T.);
#285=EDGE_CURVE('',#314,#320,#426,.T.);
#286=EDGE_CURVE('',#319,#315,#427,.T.);
#287=VERTEX_POINT('',#1050);
#288=VERTEX_POINT('',#1051);
#289=VERTEX_POINT('',#1053);
#290=VERTEX_POINT('',#1055);
#291=VERTEX_POINT('',#1057);
#292=VERTEX_POINT('',#1059);
#293=VERTEX_POINT('',#1061);
#294=VERTEX_POINT('',#1063);
#295=VERTEX_POINT('',#1065);
#296=VERTEX_POINT('',#1067);
#297=VERTEX_POINT('',#1069);
#298=VERTEX_POINT('',#1071);
#299=VERTEX_POINT('',#1073);
#300=VERTEX_POINT('',#1075);
#301=VERTEX_POINT('',#1077);
#302=VERTEX_POINT('',#1079);
#303=VERTEX_POINT('',#1081);
#304=VERTEX_POINT('',#1083);
#305=VERTEX_POINT('',#1085);
#306=VERTEX_POINT('',#1087);
#307=VERTEX_POINT('',#1089);
#308=VERTEX_POINT('',#1091);
#309=VERTEX_POINT('',#1093);
#310=VERTEX_POINT('',#1095);
#311=VERTEX_POINT('',#1097);
#312=VERTEX_POINT('',#1099);
#313=VERTEX_POINT('',#1101);
#314=VERTEX_POINT('',#1103);
#315=VERTEX_POINT('',#1105);
#316=VERTEX_POINT('',#1109);
#317=VERTEX_POINT('',#1110);
#318=VERTEX_POINT('',#1112);
#319=VERTEX_POINT('',#1114);
#320=VERTEX_POINT('',#1116);
#321=VERTEX_POINT('',#1118);
#322=VERTEX_POINT('',#1120);
#323=VERTEX_POINT('',#1122);
#324=VERTEX_POINT('',#1124);
#325=VERTEX_POINT('',#1126);
#326=VERTEX_POINT('',#1128);
#327=VERTEX_POINT('',#1130);
#328=VERTEX_POINT('',#1132);
#329=VERTEX_POINT('',#1134);
#330=VERTEX_POINT('',#1136);
#331=VERTEX_POINT('',#1138);
#332=VERTEX_POINT('',#1140);
#333=VERTEX_POINT('',#1142);
#334=VERTEX_POINT('',#1144);
#335=VERTEX_POINT('',#1146);
#336=VERTEX_POINT('',#1148);
#337=VERTEX_POINT('',#1150);
#338=VERTEX_POINT('',#1152);
#339=VERTEX_POINT('',#1154);
#340=VERTEX_POINT('',#1156);
#341=VERTEX_POINT('',#1158);
#342=VERTEX_POINT('',#1160);
#343=VERTEX_POINT('',#1162);
#344=VERTEX_POINT('',#1164);
#345=LINE('',#1049,#428);
#346=LINE('',#1052,#429);
#347=LINE('',#1054,#430);
#348=LINE('',#1056,#431);
#349=LINE('',#1058,#432);
#350=LINE('',#1060,#433);
#351=LINE('',#1062,#434);
#352=LINE('',#1066,#435);
#353=LINE('',#1068,#436);
#354=LINE('',#1070,#437);
#355=LINE('',#1072,#438);
#356=LINE('',#1074,#439);
#357=LINE('',#1076,#440);
#358=LINE('',#1078,#441);
#359=LINE('',#1080,#442);
#360=LINE('',#1082,#443);
#361=LINE('',#1084,#444);
#362=LINE('',#1086,#445);
#363=LINE('',#1088,#446);
#364=LINE('',#1090,#447);
#365=LINE('',#1092,#448);
#366=LINE('',#1094,#449);
#367=LINE('',#1098,#450);
#368=LINE('',#1100,#451);
#369=LINE('',#1102,#452);
#370=LINE('',#1104,#453);
#371=LINE('',#1106,#454);
#372=LINE('',#1108,#455);
#373=LINE('',#1111,#456);
#374=LINE('',#1113,#457);
#375=LINE('',#1115,#458);
#376=LINE('',#1117,#459);
#377=LINE('',#1119,#460);
#378=LINE('',#1121,#461);
#379=LINE('',#1125,#462);
#380=LINE('',#1127,#463);
#381=LINE('',#1129,#464);
#382=LINE('',#1131,#465);
#383=LINE('',#1133,#466);
#384=LINE('',#1135,#467);
#385=LINE('',#1137,#468);
#386=LINE('',#1139,#469);
#387=LINE('',#1141,#470);
#388=LINE('',#1143,#471);
#389=LINE('',#1145,#472);
#390=LINE('',#1147,#473);
#391=LINE('',#1149,#474);
#392=LINE('',#1151,#475);
#393=LINE('',#1153,#476);
#394=LINE('',#1157,#477);
#395=LINE('',#1159,#478);
#396=LINE('',#1161,#479);
#397=LINE('',#1163,#480);
#398=LINE('',#1165,#481);
#399=LINE('',#1167,#482);
#400=LINE('',#1168,#483);
#401=LINE('',#1170,#484);
#402=LINE('',#1171,#485);
#403=LINE('',#1173,#486);
#404=LINE('',#1174,#487);
#405=LINE('',#1176,#488);
#406=LINE('',#1177,#489);
#407=LINE('',#1179,#490);
#408=LINE('',#1180,#491);
#409=LINE('',#1184,#492);
#410=LINE('',#1186,#493);
#411=LINE('',#1189,#494);
#412=LINE('',#1190,#495);
#413=LINE('',#1193,#496);
#414=LINE('',#1194,#497);
#415=LINE('',#1198,#498);
#416=LINE('',#1199,#499);
#417=LINE('',#1201,#500);
#418=LINE('',#1202,#501);
#419=LINE('',#1204,#502);
#420=LINE('',#1205,#503);
#421=LINE('',#1207,#504);
#422=LINE('',#1208,#505);
#423=LINE('',#1212,#506);
#424=LINE('',#1214,#507);
#425=LINE('',#1217,#508);
#426=LINE('',#1220,#509);
#427=LINE('',#1221,#510);
#428=VECTOR('',#896,1000.);
#429=VECTOR('',#897,1000.);
#430=VECTOR('',#898,1000.);
#431=VECTOR('',#899,1000.);
#432=VECTOR('',#900,1000.);
#433=VECTOR('',#901,1000.);
#434=VECTOR('',#902,1000.);
#435=VECTOR('',#905,1000.);
#436=VECTOR('',#906,1000.);
#437=VECTOR('',#907,1000.);
#438=VECTOR('',#908,1000.);
#439=VECTOR('',#909,1000.);
#440=VECTOR('',#910,1000.);
#441=VECTOR('',#911,1000.);
#442=VECTOR('',#912,1000.);
#443=VECTOR('',#913,1000.);
#444=VECTOR('',#914,1000.);
#445=VECTOR('',#915,1000.);
#446=VECTOR('',#916,1000.);
#447=VECTOR('',#917,1000.);
#448=VECTOR('',#918,1000.);
#449=VECTOR('',#919,1000.);
#450=VECTOR('',#922,1000.);
#451=VECTOR('',#923,1000.);
#452=VECTOR('',#924,1000.);
#453=VECTOR('',#925,1000.);
#454=VECTOR('',#926,1000.);
#455=VECTOR('',#929,1000.);
#456=VECTOR('',#930,1000.);
#457=VECTOR('',#931,1000.);
#458=VECTOR('',#932,1000.);
#459=VECTOR('',#933,1000.);
#460=VECTOR('',#934,1000.);
#461=VECTOR('',#935,1000.);
#462=VECTOR('',#938,1000.);
#463=VECTOR('',#939,1000.);
#464=VECTOR('',#940,1000.);
#465=VECTOR('',#941,1000.);
#466=VECTOR('',#942,1000.);
#467=VECTOR('',#943,1000.);
#468=VECTOR('',#944,1000.);
#469=VECTOR('',#945,1000.);
#470=VECTOR('',#946,1000.);
#471=VECTOR('',#947,1000.);
#472=VECTOR('',#948,1000.);
#473=VECTOR('',#949,1000.);
#474=VECTOR('',#950,1000.);
#475=VECTOR('',#951,1000.);
#476=VECTOR('',#952,1000.);
#477=VECTOR('',#955,1000.);
#478=VECTOR('',#956,1000.);
#479=VECTOR('',#957,1000.);
#480=VECTOR('',#958,1000.);
#481=VECTOR('',#959,1000.);
#482=VECTOR('',#962,1000.);
#483=VECTOR('',#963,1000.);
#484=VECTOR('',#966,1000.);
#485=VECTOR('',#967,1000.);
#486=VECTOR('',#970,1000.);
#487=VECTOR('',#971,1000.);
#488=VECTOR('',#974,1000.);
#489=VECTOR('',#975,1000.);
#490=VECTOR('',#978,1000.);
#491=VECTOR('',#979,1000.);
#492=VECTOR('',#986,1000.);
#493=VECTOR('',#989,1000.);
#494=VECTOR('',#994,1000.);
#495=VECTOR('',#995,1000.);
#496=VECTOR('',#1000,1000.);
#497=VECTOR('',#1001,1000.);
#498=VECTOR('',#1008,1000.);
#499=VECTOR('',#1009,1000.);
#500=VECTOR('',#1012,1000.);
#501=VECTOR('',#1013,1000.);
#502=VECTOR('',#1016,1000.);
#503=VECTOR('',#1017,1000.);
#504=VECTOR('',#1020,1000.);
#505=VECTOR('',#1021,1000.);
#506=VECTOR('',#1028,1000.);
#507=VECTOR('',#1031,1000.);
#508=VECTOR('',#1036,1000.);
#509=VECTOR('',#1041,1000.);
#510=VECTOR('',#1042,1000.);
#511=EDGE_LOOP('',(#26,#27,#28,#29,#30,#31,#32,#33,#34,#35,#36,#37,#38,
#39,#40,#41,#42,#43,#44,#45,#46,#47,#48,#49,#50,#51,#52,#53,#54));
#512=EDGE_LOOP('',(#55,#56,#57,#58,#59,#60,#61,#62,#63,#64,#65,#66,#67,
#68,#69,#70,#71,#72,#73,#74,#75,#76,#77,#78,#79,#80,#81,#82,#83));
#513=EDGE_LOOP('',(#84,#85,#86,#87));
#514=EDGE_LOOP('',(#88,#89,#90,#91));
#515=EDGE_LOOP('',(#92,#93,#94,#95));
#516=EDGE_LOOP('',(#96,#97,#98,#99));
#517=EDGE_LOOP('',(#100,#101,#102,#103));
#518=EDGE_LOOP('',(#104,#105,#106,#107));
#519=EDGE_LOOP('',(#108,#109,#110,#111));
#520=EDGE_LOOP('',(#112,#113,#114,#115));
#521=EDGE_LOOP('',(#116,#117,#118,#119));
#522=EDGE_LOOP('',(#120,#121,#122,#123));
#523=EDGE_LOOP('',(#124,#125,#126,#127));
#524=EDGE_LOOP('',(#128,#129,#130,#131));
#525=EDGE_LOOP('',(#132,#133,#134,#135));
#526=EDGE_LOOP('',(#136,#137,#138,#139));
#527=EDGE_LOOP('',(#140,#141,#142,#143));
#528=EDGE_LOOP('',(#144,#145,#146,#147));
#529=EDGE_LOOP('',(#148,#149,#150,#151));
#530=EDGE_LOOP('',(#152,#153,#154,#155));
#531=EDGE_LOOP('',(#156,#157,#158,#159));
#532=EDGE_LOOP('',(#160,#161,#162,#163));
#533=EDGE_LOOP('',(#164,#165,#166,#167));
#534=EDGE_LOOP('',(#168,#169,#170,#171));
#535=EDGE_LOOP('',(#172,#173,#174,#175));
#536=EDGE_LOOP('',(#176,#177,#178,#179));
#537=EDGE_LOOP('',(#180,#181,#182,#183));
#538=EDGE_LOOP('',(#184,#185,#186,#187));
#539=EDGE_LOOP('',(#188,#189,#190,#191));
#540=EDGE_LOOP('',(#192,#193,#194,#195));
#541=EDGE_LOOP('',(#196,#197,#198,#199));
#542=FACE_BOUND('',#511,.T.);
#543=FACE_BOUND('',#512,.T.);
#544=FACE_BOUND('',#513,.T.);
#545=FACE_BOUND('',#514,.T.);
#546=FACE_BOUND('',#515,.T.);
#547=FACE_BOUND('',#516,.T.);
#548=FACE_BOUND('',#517,.T.);
#549=FACE_BOUND('',#518,.T.);
#550=FACE_BOUND('',#519,.T.);
#551=FACE_BOUND('',#520,.T.);
#552=FACE_BOUND('',#521,.T.);
#553=FACE_BOUND('',#522,.T.);
#554=FACE_BOUND('',#523,.T.);
#555=FACE_BOUND('',#524,.T.);
#556=FACE_BOUND('',#525,.T.);
#557=FACE_BOUND('',#526,.T.);
#558=FACE_BOUND('',#527,.T.);
#559=FACE_BOUND('',#528,.T.);
#560=FACE_BOUND('',#529,.T.);
#561=FACE_BOUND('',#530,.T.);
#562=FACE_BOUND('',#531,.T.);
#563=FACE_BOUND('',#532,.T.);
#564=FACE_BOUND('',#533,.T.);
#565=FACE_BOUND('',#534,.T.);
#566=FACE_BOUND('',#535,.T.);
#567=FACE_BOUND('',#536,.T.);
#568=FACE_BOUND('',#537,.T.);
#569=FACE_BOUND('',#538,.T.);
#570=FACE_BOUND('',#539,.T.);
#571=FACE_BOUND('',#540,.T.);
#572=FACE_BOUND('',#541,.T.);
#573=PLANE('',#857);
#574=PLANE('',#860);
#575=PLANE('',#863);
#576=PLANE('',#864);
#577=PLANE('',#866);
#578=PLANE('',#867);
#579=PLANE('',#868);
#580=PLANE('',#869);
#581=PLANE('',#870);
#582=PLANE('',#871);
#583=PLANE('',#872);
#584=PLANE('',#873);
#585=PLANE('',#874);
#586=PLANE('',#875);
#587=PLANE('',#876);
#588=PLANE('',#877);
#589=PLANE('',#878);
#590=PLANE('',#879);
#591=PLANE('',#881);
#592=PLANE('',#882);
#593=PLANE('',#883);
#594=PLANE('',#884);
#595=PLANE('',#885);
#596=PLANE('',#886);
#597=PLANE('',#887);
#598=PLANE('',#888);
#599=PLANE('',#889);
#600=PLANE('',#890);
#601=PLANE('',#891);
#602=STYLED_ITEM('',(#633),#821);
#603=STYLED_ITEM('',(#634),#822);
#604=STYLED_ITEM('',(#635),#823);
#605=STYLED_ITEM('',(#636),#824);
#606=STYLED_ITEM('',(#637),#825);
#607=STYLED_ITEM('',(#638),#826);
#608=STYLED_ITEM('',(#639),#827);
#609=STYLED_ITEM('',(#640),#828);
#610=STYLED_ITEM('',(#641),#829);
#611=STYLED_ITEM('',(#642),#830);
#612=STYLED_ITEM('',(#643),#831);
#613=STYLED_ITEM('',(#644),#832);
#614=STYLED_ITEM('',(#645),#833);
#615=STYLED_ITEM('',(#646),#834);
#616=STYLED_ITEM('',(#647),#835);
#617=STYLED_ITEM('',(#648),#836);
#618=STYLED_ITEM('',(#649),#837);
#619=STYLED_ITEM('',(#650),#838);
#620=STYLED_ITEM('',(#651),#839);
#621=STYLED_ITEM('',(#652),#840);
#622=STYLED_ITEM('',(#653),#841);
#623=STYLED_ITEM('',(#654),#842);
#624=STYLED_ITEM('',(#655),#843);
#625=STYLED_ITEM('',(#656),#844);
#626=STYLED_ITEM('',(#657),#845);
#627=STYLED_ITEM('',(#658),#846);
#628=STYLED_ITEM('',(#659),#847);
#629=STYLED_ITEM('',(#660),#848);
#630=STYLED_ITEM('',(#661),#849);
#631=STYLED_ITEM('',(#662),#850);
#632=STYLED_ITEM('',(#663),#851);
#633=PRESENTATION_STYLE_ASSIGNMENT((#664));
#634=PRESENTATION_STYLE_ASSIGNMENT((#665));
#635=PRESENTATION_STYLE_ASSIGNMENT((#666));
#636=PRESENTATION_STYLE_ASSIGNMENT((#667));
#637=PRESENTATION_STYLE_ASSIGNMENT((#668));
#638=PRESENTATION_STYLE_ASSIGNMENT((#669));
#639=PRESENTATION_STYLE_ASSIGNMENT((#670));
#640=PRESENTATION_STYLE_ASSIGNMENT((#671));
#641=PRESENTATION_STYLE_ASSIGNMENT((#672));
#642=PRESENTATION_STYLE_ASSIGNMENT((#673));
#643=PRESENTATION_STYLE_ASSIGNMENT((#674));
#644=PRESENTATION_STYLE_ASSIGNMENT((#675));
#645=PRESENTATION_STYLE_ASSIGNMENT((#676));
#646=PRESENTATION_STYLE_ASSIGNMENT((#677));
#647=PRESENTATION_STYLE_ASSIGNMENT((#678));
#648=PRESENTATION_STYLE_ASSIGNMENT((#679));
#649=PRESENTATION_STYLE_ASSIGNMENT((#680));
#650=PRESENTATION_STYLE_ASSIGNMENT((#681));
#651=PRESENTATION_STYLE_ASSIGNMENT((#682));
#652=PRESENTATION_STYLE_ASSIGNMENT((#683));
#653=PRESENTATION_STYLE_ASSIGNMENT((#684));
#654=PRESENTATION_STYLE_ASSIGNMENT((#685));
#655=PRESENTATION_STYLE_ASSIGNMENT((#686));
#656=PRESENTATION_STYLE_ASSIGNMENT((#687));
#657=PRESENTATION_STYLE_ASSIGNMENT((#688));
#658=PRESENTATION_STYLE_ASSIGNMENT((#689));
#659=PRESENTATION_STYLE_ASSIGNMENT((#690));
#660=PRESENTATION_STYLE_ASSIGNMENT((#691));
#661=PRESENTATION_STYLE_ASSIGNMENT((#692));
#662=PRESENTATION_STYLE_ASSIGNMENT((#693));
#663=PRESENTATION_STYLE_ASSIGNMENT((#694));
#664=SURFACE_STYLE_USAGE(.BOTH.,#695);
#665=SURFACE_STYLE_USAGE(.BOTH.,#696);
#666=SURFACE_STYLE_USAGE(.BOTH.,#697);
#667=SURFACE_STYLE_USAGE(.BOTH.,#698);
#668=SURFACE_STYLE_USAGE(.BOTH.,#699);
#669=SURFACE_STYLE_USAGE(.BOTH.,#700);
#670=SURFACE_STYLE_USAGE(.BOTH.,#701);
#671=SURFACE_STYLE_USAGE(.BOTH.,#702);
#672=SURFACE_STYLE_USAGE(.BOTH.,#703);
#673=SURFACE_STYLE_USAGE(.BOTH.,#704);
#674=SURFACE_STYLE_USAGE(.BOTH.,#705);
#675=SURFACE_STYLE_USAGE(.BOTH.,#706);
#676=SURFACE_STYLE_USAGE(.BOTH.,#707);
#677=SURFACE_STYLE_USAGE(.BOTH.,#708);
#678=SURFACE_STYLE_USAGE(.BOTH.,#709);
#679=SURFACE_STYLE_USAGE(.BOTH.,#710);
#680=SURFACE_STYLE_USAGE(.BOTH.,#711);
#681=SURFACE_STYLE_USAGE(.BOTH.,#712);
#682=SURFACE_STYLE_USAGE(.BOTH.,#713);
#683=SURFACE_STYLE_USAGE(.BOTH.,#714);
#684=SURFACE_STYLE_USAGE(.BOTH.,#715);
#685=SURFACE_STYLE_USAGE(.BOTH.,#716);
#686=SURFACE_STYLE_USAGE(.BOTH.,#717);
#687=SURFACE_STYLE_USAGE(.BOTH.,#718);
#688=SURFACE_STYLE_USAGE(.BOTH.,#719);
#689=SURFACE_STYLE_USAGE(.BOTH.,#720);
#690=SURFACE_STYLE_USAGE(.BOTH.,#721);
#691=SURFACE_STYLE_USAGE(.BOTH.,#722);
#692=SURFACE_STYLE_USAGE(.BOTH.,#723);
#693=SURFACE_STYLE_USAGE(.BOTH.,#724);
#694=SURFACE_STYLE_USAGE(.BOTH.,#725);
#695=SURFACE_SIDE_STYLE('',(#726));
#696=SURFACE_SIDE_STYLE('',(#727));
#697=SURFACE_SIDE_STYLE('',(#728));
#698=SURFACE_SIDE_STYLE('',(#729));
#699=SURFACE_SIDE_STYLE('',(#730));
#700=SURFACE_SIDE_STYLE('',(#731));
#701=SURFACE_SIDE_STYLE('',(#732));
#702=SURFACE_SIDE_STYLE('',(#733));
#703=SURFACE_SIDE_STYLE('',(#734));
#704=SURFACE_SIDE_STYLE('',(#735));
#705=SURFACE_SIDE_STYLE('',(#736));
#706=SURFACE_SIDE_STYLE('',(#737));
#707=SURFACE_SIDE_STYLE('',(#738));
#708=SURFACE_SIDE_STYLE('',(#739));
#709=SURFACE_SIDE_STYLE('',(#740));
#710=SURFACE_SIDE_STYLE('',(#741));
#711=SURFACE_SIDE_STYLE('',(#742));
#712=SURFACE_SIDE_STYLE('',(#743));
#713=SURFACE_SIDE_STYLE('',(#744));
#714=SURFACE_SIDE_STYLE('',(#745));
#715=SURFACE_SIDE_STYLE('',(#746));
#716=SURFACE_SIDE_STYLE('',(#747));
#717=SURFACE_SIDE_STYLE('',(#748));
#718=SURFACE_SIDE_STYLE('',(#749));
#719=SURFACE_SIDE_STYLE('',(#750));
#720=SURFACE_SIDE_STYLE('',(#751));
#721=SURFACE_SIDE_STYLE('',(#752));
#722=SURFACE_SIDE_STYLE('',(#753));
#723=SURFACE_SIDE_STYLE('',(#754));
#724=SURFACE_SIDE_STYLE('',(#755));
#725=SURFACE_SIDE_STYLE('',(#756));
#726=SURFACE_STYLE_FILL_AREA(#757);
#727=SURFACE_STYLE_FILL_AREA(#758);
#728=SURFACE_STYLE_FILL_AREA(#759);
#729=SURFACE_STYLE_FILL_AREA(#760);
#730=SURFACE_STYLE_FILL_AREA(#761);
#731=SURFACE_STYLE_FILL_AREA(#762);
#732=SURFACE_STYLE_FILL_AREA(#763);
#733=SURFACE_STYLE_FILL_AREA(#764);
#734=SURFACE_STYLE_FILL_AREA(#765);
#735=SURFACE_STYLE_FILL_AREA(#766);
#736=SURFACE_STYLE_FILL_AREA(#767);
#737=SURFACE_STYLE_FILL_AREA(#768);
#738=SURFACE_STYLE_FILL_AREA(#769);
#739=SURFACE_STYLE_FILL_AREA(#770);
#740=SURFACE_STYLE_FILL_AREA(#771);
#741=SURFACE_STYLE_FILL_AREA(#772);
#742=SURFACE_STYLE_FILL_AREA(#773);
#743=SURFACE_STYLE_FILL_AREA(#774);
#744=SURFACE_STYLE_FILL_AREA(#775);
#745=SURFACE_STYLE_FILL_AREA(#776);
#746=SURFACE_STYLE_FILL_AREA(#777);
#747=SURFACE_STYLE_FILL_AREA(#778);
#748=SURFACE_STYLE_FILL_AREA(#779);
#749=SURFACE_STYLE_FILL_AREA(#780);
#750=SURFACE_STYLE_FILL_AREA(#781);
#751=SURFACE_STYLE_FILL_AREA(#782);
#752=SURFACE_STYLE_FILL_AREA(#783);
#753=SURFACE_STYLE_FILL_AREA(#784);
#754=SURFACE_STYLE_FILL_AREA(#785);
#755=SURFACE_STYLE_FILL_AREA(#786);
#756=SURFACE_STYLE_FILL_AREA(#787);
#757=FILL_AREA_STYLE('',(#788));
#758=FILL_AREA_STYLE('',(#789));
#759=FILL_AREA_STYLE('',(#790));
#760=FILL_AREA_STYLE('',(#791));
#761=FILL_AREA_STYLE('',(#792));
#762=FILL_AREA_STYLE('',(#793));
#763=FILL_AREA_STYLE('',(#794));
#764=FILL_AREA_STYLE('',(#795));
#765=FILL_AREA_STYLE('',(#796));
#766=FILL_AREA_STYLE('',(#797));
#767=FILL_AREA_STYLE('',(#798));
#768=FILL_AREA_STYLE('',(#799));
#769=FILL_AREA_STYLE('',(#800));
#770=FILL_AREA_STYLE('',(#801));
#771=FILL_AREA_STYLE('',(#802));
#772=FILL_AREA_STYLE('',(#803));
#773=FILL_AREA_STYLE('',(#804));
#774=FILL_AREA_STYLE('',(#805));
#775=FILL_AREA_STYLE('',(#806));
#776=FILL_AREA_STYLE('',(#807));
#777=FILL_AREA_STYLE('',(#808));
#778=FILL_AREA_STYLE('',(#809));
#779=FILL_AREA_STYLE('',(#810));
#780=FILL_AREA_STYLE('',(#811));
#781=FILL_AREA_STYLE('',(#812));
#782=FILL_AREA_STYLE('',(#813));
#783=FILL_AREA_STYLE('',(#814));
#784=FILL_AREA_STYLE('',(#815));
#785=FILL_AREA_STYLE('',(#816));
#786=FILL_AREA_STYLE('',(#817));
#787=FILL_AREA_STYLE('',(#818));
#788=FILL_AREA_STYLE_COLOUR('',#819);
#789=FILL_AREA_STYLE_COLOUR('',#819);
#790=FILL_AREA_STYLE_COLOUR('',#819);
#791=FILL_AREA_STYLE_COLOUR('',#819);
#792=FILL_AREA_STYLE_COLOUR('',#820);
#793=FILL_AREA_STYLE_COLOUR('',#819);
#794=FILL_AREA_STYLE_COLOUR('',#819);
#795=FILL_AREA_STYLE_COLOUR('',#819);
#796=FILL_AREA_STYLE_COLOUR('',#819);
#797=FILL_AREA_STYLE_COLOUR('',#819);
#798=FILL_AREA_STYLE_COLOUR('',#819);
#799=FILL_AREA_STYLE_COLOUR('',#819);
#800=FILL_AREA_STYLE_COLOUR('',#819);
#801=FILL_AREA_STYLE_COLOUR('',#819);
#802=FILL_AREA_STYLE_COLOUR('',#819);
#803=FILL_AREA_STYLE_COLOUR('',#819);
#804=FILL_AREA_STYLE_COLOUR('',#819);
#805=FILL_AREA_STYLE_COLOUR('',#819);
#806=FILL_AREA_STYLE_COLOUR('',#819);
#807=FILL_AREA_STYLE_COLOUR('',#820);
#808=FILL_AREA_STYLE_COLOUR('',#819);
#809=FILL_AREA_STYLE_COLOUR('',#819);
#810=FILL_AREA_STYLE_COLOUR('',#819);
#811=FILL_AREA_STYLE_COLOUR('',#819);
#812=FILL_AREA_STYLE_COLOUR('',#819);
#813=FILL_AREA_STYLE_COLOUR('',#819);
#814=FILL_AREA_STYLE_COLOUR('',#819);
#815=FILL_AREA_STYLE_COLOUR('',#819);
#816=FILL_AREA_STYLE_COLOUR('',#819);
#817=FILL_AREA_STYLE_COLOUR('',#819);
#818=FILL_AREA_STYLE_COLOUR('',#819);
#819=COLOUR_RGB('',0.506983280181885,0.531564235687256,0.550000011920929);
#820=COLOUR_RGB('',0.699999988079071,0.699999988079071,0.699999988079071);
#821=ADVANCED_FACE('',(#542),#573,.F.);
#822=ADVANCED_FACE('',(#543),#574,.F.);
#823=ADVANCED_FACE('',(#544),#575,.T.);
#824=ADVANCED_FACE('',(#545),#576,.T.);
#825=ADVANCED_FACE('',(#546),#20,.F.);
#826=ADVANCED_FACE('',(#547),#577,.F.);
#827=ADVANCED_FACE('',(#548),#578,.T.);
#828=ADVANCED_FACE('',(#549),#579,.F.);
#829=ADVANCED_FACE('',(#550),#580,.F.);
#830=ADVANCED_FACE('',(#551),#581,.F.);
#831=ADVANCED_FACE('',(#552),#582,.F.);
#832=ADVANCED_FACE('',(#553),#583,.F.);
#833=ADVANCED_FACE('',(#554),#584,.T.);
#834=ADVANCED_FACE('',(#555),#585,.T.);
#835=ADVANCED_FACE('',(#556),#586,.F.);
#836=ADVANCED_FACE('',(#557),#587,.F.);
#837=ADVANCED_FACE('',(#558),#588,.F.);
#838=ADVANCED_FACE('',(#559),#589,.T.);
#839=ADVANCED_FACE('',(#560),#590,.T.);
#840=ADVANCED_FACE('',(#561),#21,.F.);
#841=ADVANCED_FACE('',(#562),#591,.T.);
#842=ADVANCED_FACE('',(#563),#592,.F.);
#843=ADVANCED_FACE('',(#564),#593,.F.);
#844=ADVANCED_FACE('',(#565),#594,.F.);
#845=ADVANCED_FACE('',(#566),#595,.F.);
#846=ADVANCED_FACE('',(#567),#596,.F.);
#847=ADVANCED_FACE('',(#568),#597,.T.);
#848=ADVANCED_FACE('',(#569),#598,.T.);
#849=ADVANCED_FACE('',(#570),#599,.F.);
#850=ADVANCED_FACE('',(#571),#600,.F.);
#851=ADVANCED_FACE('',(#572),#601,.F.);
#852=CLOSED_SHELL('',(#821,#822,#823,#824,#825,#826,#827,#828,#829,#830,
#831,#832,#833,#834,#835,#836,#837,#838,#839,#840,#841,#842,#843,#844,#845,
#846,#847,#848,#849,#850,#851));
#853=MANIFOLD_SOLID_BREP('',#852);
#854=SHAPE_DEFINITION_REPRESENTATION(#1230,#855);
#855=SHAPE_REPRESENTATION('IsolatePlugGrip02',(#856),#1225);
#856=AXIS2_PLACEMENT_3D('',#1047,#892,#893);
#857=AXIS2_PLACEMENT_3D('',#1048,#894,#895);
#858=AXIS2_PLACEMENT_3D('',#1064,#903,#904);
#859=AXIS2_PLACEMENT_3D('',#1096,#920,#921);
#860=AXIS2_PLACEMENT_3D('',#1107,#927,#928);
#861=AXIS2_PLACEMENT_3D('',#1123,#936,#937);
#862=AXIS2_PLACEMENT_3D('',#1155,#953,#954);
#863=AXIS2_PLACEMENT_3D('',#1166,#960,#961);
#864=AXIS2_PLACEMENT_3D('',#1169,#964,#965);
#865=AXIS2_PLACEMENT_3D('',#1172,#968,#969);
#866=AXIS2_PLACEMENT_3D('',#1175,#972,#973);
#867=AXIS2_PLACEMENT_3D('',#1178,#976,#977);
#868=AXIS2_PLACEMENT_3D('',#1181,#980,#981);
#869=AXIS2_PLACEMENT_3D('',#1182,#982,#983);
#870=AXIS2_PLACEMENT_3D('',#1183,#984,#985);
#871=AXIS2_PLACEMENT_3D('',#1185,#987,#988);
#872=AXIS2_PLACEMENT_3D('',#1187,#990,#991);
#873=AXIS2_PLACEMENT_3D('',#1188,#992,#993);
#874=AXIS2_PLACEMENT_3D('',#1191,#996,#997);
#875=AXIS2_PLACEMENT_3D('',#1192,#998,#999);
#876=AXIS2_PLACEMENT_3D('',#1195,#1002,#1003);
#877=AXIS2_PLACEMENT_3D('',#1196,#1004,#1005);
#878=AXIS2_PLACEMENT_3D('',#1197,#1006,#1007);
#879=AXIS2_PLACEMENT_3D('',#1200,#1010,#1011);
#880=AXIS2_PLACEMENT_3D('',#1203,#1014,#1015);
#881=AXIS2_PLACEMENT_3D('',#1206,#1018,#1019);
#882=AXIS2_PLACEMENT_3D('',#1209,#1022,#1023);
#883=AXIS2_PLACEMENT_3D('',#1210,#1024,#1025);
#884=AXIS2_PLACEMENT_3D('',#1211,#1026,#1027);
#885=AXIS2_PLACEMENT_3D('',#1213,#1029,#1030);
#886=AXIS2_PLACEMENT_3D('',#1215,#1032,#1033);
#887=AXIS2_PLACEMENT_3D('',#1216,#1034,#1035);
#888=AXIS2_PLACEMENT_3D('',#1218,#1037,#1038);
#889=AXIS2_PLACEMENT_3D('',#1219,#1039,#1040);
#890=AXIS2_PLACEMENT_3D('',#1222,#1043,#1044);
#891=AXIS2_PLACEMENT_3D('',#1223,#1045,#1046);
#892=DIRECTION('',(0.,0.,1.));
#893=DIRECTION('',(1.,0.,0.));
#894=DIRECTION('',(-1.49429276163405E-16,-1.,0.));
#895=DIRECTION('',(1.,-1.49429276163405E-16,0.));
#896=DIRECTION('',(-0.819152044288992,5.88508015178756E-16,0.573576436351046));
#897=DIRECTION('',(0.819152044288992,-9.53813179283497E-17,0.573576436351046));
#898=DIRECTION('',(0.,0.,1.));
#899=DIRECTION('',(1.,-2.98858552326809E-16,0.));
#900=DIRECTION('',(0.,0.,1.));
#901=DIRECTION('',(1.,-1.49429276163404E-16,0.));
#902=DIRECTION('',(-0.0871557427476584,4.8964135179943E-18,-0.996194698091746));
#903=DIRECTION('',(-1.49429276163405E-16,-1.,0.));
#904=DIRECTION('',(1.,-1.49429276163405E-16,0.));
#905=DIRECTION('',(0.0871557427476583,-2.25673433732393E-17,-0.996194698091746));
#906=DIRECTION('',(-1.,1.49429276163405E-16,0.));
#907=DIRECTION('',(0.,0.,1.));
#908=DIRECTION('',(-1.,0.,0.));
#909=DIRECTION('',(0.,0.,1.));
#910=DIRECTION('',(-0.819152044288992,1.49429276163405E-16,0.573576436351046));
#911=DIRECTION('',(0.,0.,-1.));
#912=DIRECTION('',(-1.,1.49429276163405E-16,0.));
#913=DIRECTION('',(0.,0.,-1.));
#914=DIRECTION('',(0.819152044288992,-5.34460056943702E-16,0.573576436351046));
#915=DIRECTION('',(0.,0.,1.));
#916=DIRECTION('',(1.,-8.34874719382174E-16,0.));
#917=DIRECTION('',(0.,0.,1.));
#918=DIRECTION('',(1.,-6.85445443218769E-16,0.));
#919=DIRECTION('',(-0.0871557427476583,5.01967828957569E-17,-0.996194698091746));
#920=DIRECTION('',(6.85445443218769E-16,1.,0.));
#921=DIRECTION('',(-1.,6.85445443218769E-16,0.));
#922=DIRECTION('',(0.0871557427476584,-6.7867712751002E-17,-0.996194698091746));
#923=DIRECTION('',(-1.,6.8544544321877E-16,0.));
#924=DIRECTION('',(0.,0.,1.));
#925=DIRECTION('',(-1.,5.36016167055365E-16,0.));
#926=DIRECTION('',(0.,0.,1.));
#927=DIRECTION('',(-1.12071957122553E-16,1.,0.));
#928=DIRECTION('',(-1.,-1.12071957122553E-16,0.));
#929=DIRECTION('',(-0.819152044288992,-1.66906391942037E-17,-0.573576436351046));
#930=DIRECTION('',(0.819152044288992,-7.0057997230131E-16,-0.573576436351046));
#931=DIRECTION('',(0.,0.,1.));
#932=DIRECTION('',(1.,-1.40337790504377E-15,0.));
#933=DIRECTION('',(0.,0.,1.));
#934=DIRECTION('',(1.,-7.97517400341323E-16,0.));
#935=DIRECTION('',(-0.0871557427476584,6.78677127510019E-17,0.996194698091746));
#936=DIRECTION('',(-9.46946676504727E-16,-1.,0.));
#937=DIRECTION('',(1.,-9.46946676504727E-16,0.));
#938=DIRECTION('',(0.0871557427476583,-5.0196782895757E-17,0.996194698091746));
#939=DIRECTION('',(-1.,5.73373486096216E-16,0.));
#940=DIRECTION('',(0.,0.,1.));
#941=DIRECTION('',(-1.,-3.24870186062295E-17,0.));
#942=DIRECTION('',(0.,0.,1.));
#943=DIRECTION('',(-0.819152044288992,4.22388099821148E-16,-0.573576436351046));
#944=DIRECTION('',(0.,0.,-1.));
#945=DIRECTION('',(1.,1.12071957122553E-16,0.));
#946=DIRECTION('',(0.,0.,-1.));
#947=DIRECTION('',(0.819152044288992,-2.61501233285958E-16,-0.573576436351046));
#948=DIRECTION('',(0.,0.,1.));
#949=DIRECTION('',(1.,-8.67361737988404E-16,0.));
#950=DIRECTION('',(0.,0.,1.));
#951=DIRECTION('',(1.,-2.61501233285958E-16,0.));
#952=DIRECTION('',(-0.0871557427476583,2.25673433732392E-17,0.996194698091746));
#953=DIRECTION('',(-1.12071957122553E-16,1.,0.));
#954=DIRECTION('',(-1.,-1.12071957122553E-16,0.));
#955=DIRECTION('',(0.0871557427476584,-4.89641351799439E-18,0.996194698091746));
#956=DIRECTION('',(-1.,3.73573190408511E-17,0.));
#957=DIRECTION('',(0.,0.,1.));
#958=DIRECTION('',(-1.,-5.68503185661594E-16,0.));
#959=DIRECTION('',(0.,0.,1.));
#960=DIRECTION('',(0.,0.,1.));
#961=DIRECTION('',(-1.,2.98858552326809E-16,0.));
#962=DIRECTION('',(-1.87425455526069E-16,1.,0.));
#963=DIRECTION('',(-0.0178301911750904,-0.999841029505521,0.));
#964=DIRECTION('',(0.,0.,1.));
#965=DIRECTION('',(1.,0.,0.));
#966=DIRECTION('',(-2.12783765638395E-17,1.,0.));
#967=DIRECTION('',(0.0178301911750901,-0.999841029505521,0.));
#968=DIRECTION('',(0.,-1.,0.));
#969=DIRECTION('',(0.,0.,-1.));
#970=DIRECTION('',(0.,-1.,0.));
#971=DIRECTION('',(0.,-1.,0.));
#972=DIRECTION('',(0.,0.,1.));
#973=DIRECTION('',(1.,0.,0.));
#974=DIRECTION('',(9.79435009046908E-16,1.,0.));
#975=DIRECTION('',(-1.44560289664734E-16,1.,0.));
#976=DIRECTION('',(0.573576436351046,0.,0.819152044288992));
#977=DIRECTION('',(0.819152044288992,0.,-0.573576436351046));
#978=DIRECTION('',(-5.92084284009378E-17,1.,4.14581878918865E-17));
#979=DIRECTION('',(-1.44560289664734E-16,1.,1.01222204549026E-16));
#980=DIRECTION('',(-1.,-1.44560289664734E-16,0.));
#981=DIRECTION('',(1.44560289664734E-16,-1.,0.));
#982=DIRECTION('',(0.996194698091746,2.11974059168966E-17,0.0871557427476583));
#983=DIRECTION('',(0.0871557427476583,-2.25673433732392E-17,-0.996194698091746));
#984=DIRECTION('',(-0.999841029505521,-0.0178301911750901,0.));
#985=DIRECTION('',(0.0178301911750901,-0.999841029505521,0.));
#986=DIRECTION('',(0.0178301911750901,-0.999841029505521,0.));
#987=DIRECTION('',(1.,7.2280144832367E-17,0.));
#988=DIRECTION('',(-7.2280144832367E-17,1.,0.));
#989=DIRECTION('',(-7.2280144832367E-17,1.,0.));
#990=DIRECTION('',(0.,0.,-1.));
#991=DIRECTION('',(-1.,0.,0.));
#992=DIRECTION('',(-0.573576436351046,1.71418223416644E-16,0.819152044288992));
#993=DIRECTION('',(-0.819152044288992,2.44810594091754E-16,-0.573576436351046));
#994=DIRECTION('',(4.17437359691087E-16,1.,8.30297747883845E-17));
#995=DIRECTION('',(3.58066980727747E-16,1.,4.14581878918865E-17));
#996=DIRECTION('',(0.996194698091746,1.867122450825E-16,-0.0871557427476584));
#997=DIRECTION('',(0.0871557427476584,-4.89641351799436E-18,0.996194698091746));
#998=DIRECTION('',(0.,0.,-1.));
#999=DIRECTION('',(1.,-2.98858552326809E-16,0.));
#1000=DIRECTION('',(3.71138697159176E-16,1.,0.));
#1001=DIRECTION('',(-0.0178301911750904,-0.999841029505521,0.));
#1002=DIRECTION('',(-1.,3.71138697159176E-16,0.));
#1003=DIRECTION('',(3.71138697159176E-16,1.,0.));
#1004=DIRECTION('',(0.999841029505521,-0.0178301911750904,0.));
#1005=DIRECTION('',(-0.0178301911750904,-0.999841029505521,0.));
#1006=DIRECTION('',(0.,0.,1.));
#1007=DIRECTION('',(1.,-5.36016167055365E-16,0.));
#1008=DIRECTION('',(1.02230017490824E-15,1.,0.));
#1009=DIRECTION('',(0.0178301911750896,-0.999841029505521,0.));
#1010=DIRECTION('',(0.,0.,1.));
#1011=DIRECTION('',(-1.,8.34874719382174E-16,0.));
#1012=DIRECTION('',(8.56153095946014E-16,1.,0.));
#1013=DIRECTION('',(-0.0178301911750909,-0.999841029505521,0.));
#1014=DIRECTION('',(-8.34874719382174E-16,-1.,0.));
#1015=DIRECTION('',(0.,0.,-1.));
#1016=DIRECTION('',(-8.34874719382174E-16,-1.,0.));
#1017=DIRECTION('',(-8.34874719382174E-16,-1.,0.));
#1018=DIRECTION('',(-0.573576436351046,4.78864466342807E-16,0.819152044288992));
#1019=DIRECTION('',(-0.819152044288992,6.83889333107106E-16,-0.573576436351046));
#1020=DIRECTION('',(8.94083147783112E-16,1.,4.14581878918865E-17));
#1021=DIRECTION('',(9.79435009046908E-16,1.,1.01222204549026E-16));
#1022=DIRECTION('',(1.,-9.79435009046908E-16,0.));
#1023=DIRECTION('',(-9.79435009046908E-16,-1.,0.));
#1024=DIRECTION('',(-0.996194698091746,8.52895174936252E-16,0.0871557427476583));
#1025=DIRECTION('',(-0.0871557427476583,5.01967828957569E-17,-0.996194698091746));
#1026=DIRECTION('',(0.999841029505521,-0.0178301911750909,0.));
#1027=DIRECTION('',(-0.0178301911750909,-0.999841029505521,0.));
#1028=DIRECTION('',(-0.0178301911750909,-0.999841029505521,0.));
#1029=DIRECTION('',(-1.,9.07154864214541E-16,0.));
#1030=DIRECTION('',(9.07154864214541E-16,1.,0.));
#1031=DIRECTION('',(9.07154864214541E-16,1.,0.));
#1032=DIRECTION('',(0.,0.,-1.));
#1033=DIRECTION('',(1.,-8.34874719382174E-16,0.));
#1034=DIRECTION('',(0.573576436351046,-3.07446242926163E-16,0.819152044288992));
#1035=DIRECTION('',(0.819152044288992,-4.39078739015352E-16,-0.573576436351046));
#1036=DIRECTION('',(4.76807738654427E-16,1.,4.14581878918865E-17));
#1037=DIRECTION('',(-0.996194698091746,1.01841001410186E-15,-0.0871557427476584));
#1038=DIRECTION('',(-0.0871557427476584,6.78677127510019E-17,0.996194698091746));
#1039=DIRECTION('',(0.,0.,-1.));
#1040=DIRECTION('',(-1.,5.36016167055365E-16,0.));
#1041=DIRECTION('',(0.0178301911750896,-0.999841029505521,0.));
#1042=DIRECTION('',(4.63736022222998E-16,1.,0.));
#1043=DIRECTION('',(1.,-4.63736022222998E-16,0.));
#1044=DIRECTION('',(4.63736022222998E-16,1.,0.));
#1045=DIRECTION('',(-0.999841029505521,-0.0178301911750896,0.));
#1046=DIRECTION('',(0.0178301911750896,-0.999841029505521,0.));
#1047=CARTESIAN_POINT('',(0.,0.,0.));
#1048=CARTESIAN_POINT('',(8.67361737988403E-16,8.29703780720822,7.5));
#1049=CARTESIAN_POINT('',(-15.0118531335651,8.29703780720823,6.29363243536468));
#1050=CARTESIAN_POINT('',(-8.10399042294379,8.29703780720822,1.4566948924699));
#1051=CARTESIAN_POINT('',(-9.59398453268677,8.29703780720823,2.5));
#1052=CARTESIAN_POINT('',(-1.19612771232251,8.29703780720822,6.29363243536468));
#1053=CARTESIAN_POINT('',(-6.6139963132008,8.29703780720823,2.5));
#1054=CARTESIAN_POINT('',(-6.6139963132008,8.29703780720823,-4.5));
#1055=CARTESIAN_POINT('',(-6.61399631320081,8.29703780720822,-4.5));
#1056=CARTESIAN_POINT('',(-6.6139963132008,8.29703780720823,-4.5));
#1057=CARTESIAN_POINT('',(-5.4,8.29703780720823,-4.5));
#1058=CARTESIAN_POINT('',(-5.4,8.29703780720823,-4.5));
#1059=CARTESIAN_POINT('',(-5.4,8.29703780720823,2.5));
#1060=CARTESIAN_POINT('',(1.61227896967465E-15,8.29703780720822,2.5));
#1061=CARTESIAN_POINT('',(-3.98127834118519,8.29703780720822,2.5));
#1062=CARTESIAN_POINT('',(-4.20712561434204,8.29703780720823,-0.0814461446187755));
#1063=CARTESIAN_POINT('',(-4.18401773198533,8.29703780720822,0.182678159324435));
#1064=CARTESIAN_POINT('',(1.05032085459533E-15,8.29703780720822,-0.183375960215731));
#1065=CARTESIAN_POINT('',(4.18401797596556,8.29703780720822,0.182675370617687));
#1066=CARTESIAN_POINT('',(4.2,8.29703780720822,3.25260651745651E-16));
#1067=CARTESIAN_POINT('',(3.98127834118519,8.29703780720822,2.5));
#1068=CARTESIAN_POINT('',(8.67361737988403E-16,8.29703780720822,2.5));
#1069=CARTESIAN_POINT('',(5.4,8.29703780720822,2.5));
#1070=CARTESIAN_POINT('',(5.4,8.29703780720822,-4.5));
#1071=CARTESIAN_POINT('',(5.4,8.29703780720822,-4.5));
#1072=CARTESIAN_POINT('',(6.61399631320081,8.29703780720822,-4.5));
#1073=CARTESIAN_POINT('',(6.61399631320081,8.29703780720822,-4.5));
#1074=CARTESIAN_POINT('',(6.61399631320081,8.29703780720822,-4.5));
#1075=CARTESIAN_POINT('',(6.61399631320081,8.29703780720822,2.5));
#1076=CARTESIAN_POINT('',(1.19612771232251,8.29703780720822,6.29363243536468));
#1077=CARTESIAN_POINT('',(11.6089933680723,8.29703780720822,-0.997534591156316));
#1078=CARTESIAN_POINT('',(11.6089933680723,8.29703780720822,7.5));
#1079=CARTESIAN_POINT('',(11.6089933680723,8.29703780720822,-7.5));
#1080=CARTESIAN_POINT('',(8.67361737988403E-16,8.29703780720822,-7.5));
#1081=CARTESIAN_POINT('',(-27.8169742139599,8.29703780720824,-7.5));
#1082=CARTESIAN_POINT('',(-27.8169742139599,8.29703780720824,7.5));
#1083=CARTESIAN_POINT('',(-27.8169742139599,8.29703780720824,-0.997534591156316));
#1084=CARTESIAN_POINT('',(-17.4041085582101,8.29703780720823,6.29363243536468));
#1085=CARTESIAN_POINT('',(-22.8219771590884,8.29703780720824,2.5));
#1086=CARTESIAN_POINT('',(-22.8219771590884,8.29703780720824,-4.5));
#1087=CARTESIAN_POINT('',(-22.8219771590884,8.29703780720823,-4.5));
#1088=CARTESIAN_POINT('',(-22.8219771590884,8.29703780720824,-4.5));
#1089=CARTESIAN_POINT('',(-21.6079808458876,8.29703780720824,-4.5));
#1090=CARTESIAN_POINT('',(-21.6079808458876,8.29703780720824,-4.5));
#1091=CARTESIAN_POINT('',(-21.6079808458876,8.29703780720824,2.5));
#1092=CARTESIAN_POINT('',(-16.2079808458876,8.29703780720823,2.5));
#1093=CARTESIAN_POINT('',(-20.1892591870728,8.29703780720823,2.5));
#1094=CARTESIAN_POINT('',(-20.4079808458876,8.29703780720823,3.25260651745651E-16));
#1095=CARTESIAN_POINT('',(-20.3919988218531,8.29703780720823,0.182675370617687));
#1096=CARTESIAN_POINT('',(-16.2079808458876,8.29703780720823,-0.183375960215731));
#1097=CARTESIAN_POINT('',(-12.0239631139022,8.29703780720823,0.182678159324435));
#1098=CARTESIAN_POINT('',(-12.0008552315455,8.29703780720823,-0.0814461446187755));
#1099=CARTESIAN_POINT('',(-12.2267025047024,8.29703780720823,2.5));
#1100=CARTESIAN_POINT('',(-16.2079808458876,8.29703780720823,2.5));
#1101=CARTESIAN_POINT('',(-10.8079808458876,8.29703780720823,2.5));
#1102=CARTESIAN_POINT('',(-10.8079808458876,8.29703780720823,-4.5));
#1103=CARTESIAN_POINT('',(-10.8079808458876,8.29703780720823,-4.5));
#1104=CARTESIAN_POINT('',(-9.59398453268677,8.29703780720823,-4.5));
#1105=CARTESIAN_POINT('',(-9.59398453268677,8.29703780720823,-4.5));
#1106=CARTESIAN_POINT('',(-9.59398453268677,8.29703780720823,-4.5));
#1107=CARTESIAN_POINT('',(11.6089933680723,-0.0142617720174671,7.5));
#1108=CARTESIAN_POINT('',(8.31340293727126,-0.0142617720174679,12.9522774810465));
#1109=CARTESIAN_POINT('',(-6.61399631320081,-0.014261772017466,2.5));
#1110=CARTESIAN_POINT('',(-8.10399042294379,-0.014261772017468,1.4566948924699));
#1111=CARTESIAN_POINT('',(-24.5213837831588,-0.014261772017454,12.9522774810465));
#1112=CARTESIAN_POINT('',(-9.59398453268677,-0.0142617720174646,2.5));
#1113=CARTESIAN_POINT('',(-9.59398453268677,-0.0142617720174646,-4.5));
#1114=CARTESIAN_POINT('',(-9.59398453268677,-0.0142617720174646,-4.5));
#1115=CARTESIAN_POINT('',(-10.5939845326868,-0.0142617720174632,-4.5));
#1116=CARTESIAN_POINT('',(-10.6597652235658,-0.0142617720174631,-4.5));
#1117=CARTESIAN_POINT('',(-10.6597652235658,-0.0142617720174638,7.5));
#1118=CARTESIAN_POINT('',(-10.6597652235658,-0.0142617720174631,2.5));
#1119=CARTESIAN_POINT('',(-27.8169742139599,-0.0142617720174522,2.5));
#1120=CARTESIAN_POINT('',(-12.2267025047024,-0.0142617720174646,2.5));
#1121=CARTESIAN_POINT('',(-12.654523302153,-0.0142617720174621,7.39001409106931));
#1122=CARTESIAN_POINT('',(-12.0239631139022,-0.0142617720174654,0.182678159324435));
#1123=CARTESIAN_POINT('',(-16.2079808458876,-0.0142617720174619,-0.183375960215731));
#1124=CARTESIAN_POINT('',(-20.3919988218702,-0.0142617720174575,0.182675370422336));
#1125=CARTESIAN_POINT('',(-19.7543127752801,-0.0142617720174576,7.47146023568809));
#1126=CARTESIAN_POINT('',(-20.1892591870728,-0.0142617720174592,2.5));
#1127=CARTESIAN_POINT('',(-4.59898747781528,-0.0142617720174681,2.5));
#1128=CARTESIAN_POINT('',(-21.7561964682094,-0.0142617720174555,2.5));
#1129=CARTESIAN_POINT('',(-21.7561964682094,-0.0142617720174562,7.5));
#1130=CARTESIAN_POINT('',(-21.7561964682094,-0.0142617720174555,-4.5));
#1131=CARTESIAN_POINT('',(-21.8219771590884,-0.0142617720174555,-4.5));
#1132=CARTESIAN_POINT('',(-22.8219771590884,-0.0142617720174555,-4.5));
#1133=CARTESIAN_POINT('',(-22.8219771590884,-0.0142617720174555,-4.5));
#1134=CARTESIAN_POINT('',(-22.8219771590884,-0.0142617720174555,2.5));
#1135=CARTESIAN_POINT('',(-7.89457790861632,-0.0142617720174654,12.9522774810465));
#1136=CARTESIAN_POINT('',(-27.8169742139599,-0.0142617720174505,-0.99753459115632));
#1137=CARTESIAN_POINT('',(-27.8169742139599,-0.0142617720174505,7.5));
#1138=CARTESIAN_POINT('',(-27.8169742139599,-0.0142617720174505,-7.5));
#1139=CARTESIAN_POINT('',(11.6089933680723,-0.0142617720174671,-7.5));
#1140=CARTESIAN_POINT('',(11.6089933680723,-0.0142617720174671,-7.5));
#1141=CARTESIAN_POINT('',(11.6089933680723,-0.0142617720174671,7.5));
#1142=CARTESIAN_POINT('',(11.6089933680723,-0.0142617720174671,-0.99753459115632));
#1143=CARTESIAN_POINT('',(-8.31340293727126,-0.0142617720174654,12.9522774810465));
#1144=CARTESIAN_POINT('',(6.61399631320081,-0.014261772017468,2.5));
#1145=CARTESIAN_POINT('',(6.61399631320081,-0.014261772017468,-4.5));
#1146=CARTESIAN_POINT('',(6.61399631320081,-0.014261772017468,-4.5));
#1147=CARTESIAN_POINT('',(5.61399631320081,-0.0142617720174671,-4.5));
#1148=CARTESIAN_POINT('',(5.54821562232181,-0.0142617720174671,-4.5));
#1149=CARTESIAN_POINT('',(5.54821562232181,-0.0142617720174678,7.5));
#1150=CARTESIAN_POINT('',(5.54821562232181,-0.0142617720174671,2.5));
#1151=CARTESIAN_POINT('',(-11.6089933680723,-0.0142617720174654,2.5));
#1152=CARTESIAN_POINT('',(3.98127834118519,-0.0142617720174694,2.5));
#1153=CARTESIAN_POINT('',(3.54633192939256,-0.0142617720174675,7.47146023568809));
#1154=CARTESIAN_POINT('',(4.18401797598265,-0.0142617720174679,0.182675370422336));
#1155=CARTESIAN_POINT('',(1.05032085459533E-15,-0.0142617720174688,-0.183375960215731));
#1156=CARTESIAN_POINT('',(-4.18401773198533,-0.0142617720174688,0.182678159324435));
#1157=CARTESIAN_POINT('',(-3.5534575437346,-0.014261772017466,7.39001409106931));
#1158=CARTESIAN_POINT('',(-3.98127834118519,-0.0142617720174683,2.5));
#1159=CARTESIAN_POINT('',(11.6089933680723,-0.0142617720174688,2.5));
#1160=CARTESIAN_POINT('',(-5.54821562232181,-0.0142617720174654,2.5));
#1161=CARTESIAN_POINT('',(-5.54821562232181,-0.0142617720174661,7.5));
#1162=CARTESIAN_POINT('',(-5.54821562232181,-0.0142617720174654,-4.5));
#1163=CARTESIAN_POINT('',(-5.61399631320081,-0.0142617720174654,-4.5));
#1164=CARTESIAN_POINT('',(-6.61399631320081,-0.014261772017466,-4.5));
#1165=CARTESIAN_POINT('',(-6.61399631320081,-0.014261772017466,-4.5));
#1166=CARTESIAN_POINT('',(0.,0.,2.5));
#1167=CARTESIAN_POINT('',(-3.98127834118519,-7.46192906672705E-16,2.5));
#1168=CARTESIAN_POINT('',(-5.4,8.29703780720823,2.5));
#1169=CARTESIAN_POINT('',(0.,0.,2.5));
#1170=CARTESIAN_POINT('',(3.98127834118519,8.47151397491968E-17,2.5));
#1171=CARTESIAN_POINT('',(5.4,8.29703780720822,2.5));
#1172=CARTESIAN_POINT('',(1.05032085459533E-15,11.6,-0.183375960215731));
#1173=CARTESIAN_POINT('',(-4.18401773198533,11.6,0.182678159324435));
#1174=CARTESIAN_POINT('',(4.18401773198533,4.14138801759538,0.182678159324434));
#1175=CARTESIAN_POINT('',(0.,0.,-7.5));
#1176=CARTESIAN_POINT('',(-27.8169742139599,8.29703780720824,-7.5));
#1177=CARTESIAN_POINT('',(11.6089933680723,8.29703780720822,-7.5));
#1178=CARTESIAN_POINT('',(1.19612771232251,0.,6.29363243536468));
#1179=CARTESIAN_POINT('',(6.61399631320081,-3.70296219279178,2.5));
#1180=CARTESIAN_POINT('',(11.6089933680723,8.29703780720822,-0.997534591156316));
#1181=CARTESIAN_POINT('',(11.6089933680723,8.29703780720822,7.5));
#1182=CARTESIAN_POINT('',(4.2,4.06604818433673,4.33680868994202E-16));
#1183=CARTESIAN_POINT('',(5.4,8.29703780720822,-4.5));
#1184=CARTESIAN_POINT('',(5.4,8.29703780720822,-4.5));
#1185=CARTESIAN_POINT('',(6.61399631320081,-3.70296219279178,-4.5));
#1186=CARTESIAN_POINT('',(6.61399631320081,-3.70296219279178,-4.5));
#1187=CARTESIAN_POINT('',(0.,0.,-4.5));
#1188=CARTESIAN_POINT('',(-1.19612771232251,3.57472996502684E-16,6.29363243536468));
#1189=CARTESIAN_POINT('',(-8.10399042294379,3.64268280238498E-15,1.4566948924699));
#1190=CARTESIAN_POINT('',(-6.61399631320081,-3.70296219279177,2.5));
#1191=CARTESIAN_POINT('',(-3.98923625747289,0.0100000000000013,2.40904060061059));
#1192=CARTESIAN_POINT('',(0.,0.,-4.5));
#1193=CARTESIAN_POINT('',(-6.61399631320081,-3.70296219279177,-4.5));
#1194=CARTESIAN_POINT('',(-5.4,8.29703780720823,-4.5));
#1195=CARTESIAN_POINT('',(-6.61399631320081,-3.70296219279177,-4.5));
#1196=CARTESIAN_POINT('',(-5.4,8.29703780720823,-4.5));
#1197=CARTESIAN_POINT('',(-16.2079808458876,6.93889390390723E-15,2.5));
#1198=CARTESIAN_POINT('',(-12.2267025047024,2.86883235935521E-15,2.5));
#1199=CARTESIAN_POINT('',(-10.8079808458876,8.29703780720823,2.5));
#1200=CARTESIAN_POINT('',(-16.2079808458876,6.93889390390723E-15,2.5));
#1201=CARTESIAN_POINT('',(-20.1892591870728,1.03474776815357E-14,2.5));
#1202=CARTESIAN_POINT('',(-21.6079808458876,8.29703780720824,2.5));
#1203=CARTESIAN_POINT('',(-16.2079808458876,11.6,-0.183375960215731));
#1204=CARTESIAN_POINT('',(-20.3919985778729,4.14138801759539,0.182678159324434));
#1205=CARTESIAN_POINT('',(-12.0239631139022,11.6,0.182678159324435));
#1206=CARTESIAN_POINT('',(-17.4041085582101,7.93751069207773E-15,6.29363243536468));
#1207=CARTESIAN_POINT('',(-22.8219771590884,-3.70296219279176,2.5));
#1208=CARTESIAN_POINT('',(-27.8169742139599,8.29703780720824,-0.997534591156316));
#1209=CARTESIAN_POINT('',(-27.8169742139599,8.29703780720824,7.5));
#1210=CARTESIAN_POINT('',(-20.4079808458876,4.06604818433674,4.33680868994202E-16));
#1211=CARTESIAN_POINT('',(-21.6079808458876,8.29703780720824,-4.5));
#1212=CARTESIAN_POINT('',(-21.6079808458876,8.29703780720824,-4.5));
#1213=CARTESIAN_POINT('',(-22.8219771590884,-3.70296219279176,-4.5));
#1214=CARTESIAN_POINT('',(-22.8219771590884,-3.70296219279176,-4.5));
#1215=CARTESIAN_POINT('',(-16.2079808458876,6.93889390390723E-15,-4.5));
#1216=CARTESIAN_POINT('',(-15.0118531335651,6.29775011223941E-15,6.29363243536468));
#1217=CARTESIAN_POINT('',(-9.59398453268677,-3.70296219279177,2.5));
#1218=CARTESIAN_POINT('',(-12.2187445884147,0.0100000000000049,2.40904060061059));
#1219=CARTESIAN_POINT('',(-16.2079808458876,6.93889390390723E-15,-4.5));
#1220=CARTESIAN_POINT('',(-10.8079808458876,8.29703780720823,-4.5));
#1221=CARTESIAN_POINT('',(-9.59398453268677,-3.70296219279177,-4.5));
#1222=CARTESIAN_POINT('',(-9.59398453268677,-3.70296219279177,-4.5));
#1223=CARTESIAN_POINT('',(-10.8079808458876,8.29703780720823,-4.5));
#1224=MECHANICAL_DESIGN_GEOMETRIC_PRESENTATION_REPRESENTATION('',(#602,
#603,#604,#605,#606,#607,#608,#609,#610,#611,#612,#613,#614,#615,#616,#617,
#618,#619,#620,#621,#622,#623,#624,#625,#626,#627,#628,#629,#630,#631,#632),
#1225);
#1225=(
GEOMETRIC_REPRESENTATION_CONTEXT(3)
GLOBAL_UNCERTAINTY_ASSIGNED_CONTEXT((#1226))
GLOBAL_UNIT_ASSIGNED_CONTEXT((#1229,#1228,#1227))
REPRESENTATION_CONTEXT('IsolatePlugGrip02','TOP_LEVEL_ASSEMBLY_PART')
);
#1226=UNCERTAINTY_MEASURE_WITH_UNIT(LENGTH_MEASURE(0.005),#1229,
'DISTANCE_ACCURACY_VALUE','Maximum Tolerance applied to model');
#1227=(
NAMED_UNIT(*)
SI_UNIT($,.STERADIAN.)
SOLID_ANGLE_UNIT()
);
#1228=(
NAMED_UNIT(*)
PLANE_ANGLE_UNIT()
SI_UNIT($,.RADIAN.)
);
#1229=(
LENGTH_UNIT()
NAMED_UNIT(*)
SI_UNIT(.MILLI.,.METRE.)
);
#1230=PRODUCT_DEFINITION_SHAPE('','',#1231);
#1231=PRODUCT_DEFINITION('','',#1233,#1232);
#1232=PRODUCT_DEFINITION_CONTEXT('',#1239,'design');
#1233=PRODUCT_DEFINITION_FORMATION_WITH_SPECIFIED_SOURCE('','',#1235,
 .NOT_KNOWN.);
#1234=PRODUCT_RELATED_PRODUCT_CATEGORY('','',(#1235));
#1235=PRODUCT('IsolatePlugGrip02','IsolatePlugGrip02',
'IsolatePlugGrip02',(#1237));
#1236=PRODUCT_CATEGORY('','');
#1237=PRODUCT_CONTEXT('',#1239,'mechanical');
#1238=APPLICATION_PROTOCOL_DEFINITION('international standard',
'automotive_design',2010,#1239);
#1239=APPLICATION_CONTEXT(
'core data for automotive mechanical design processes');
ENDSEC;
END-ISO-10303-21;
