ISO-10303-21;
HEADER;
/* Generated by software containing ST-Developer
 * from STEP Tools, Inc. (www.steptools.com) 
 */
/* OPTION: strings as raw bytes, not using required /X/ escapes */

FILE_DESCRIPTION(
/* description */ ('Unknown'),
/* implementation_level */ '2;1');

FILE_NAME(
/* name */ 'IsolatePlugGrip01',
/* time_stamp */ '2023-05-22T18:56:58+01:00',
/* author */ ('Unknown'),
/* organization */ ('Unknown'),
/* preprocessor_version */ 'ST-DEVELOPER v18.102',
/* originating_system */ 'Solid Edge',
/* authorisation */ 'Unknown');

FILE_SCHEMA (('AUTOMOTIVE_DESIGN {1 0 10303 214 3 1 1}'));
ENDSEC;

DATA;
#10=PROPERTY_DEFINITION_REPRESENTATION(#14,#12);
#11=PROPERTY_DEFINITION_REPRESENTATION(#15,#13);
#12=REPRESENTATION('',(#16),#1027);
#13=REPRESENTATION('',(#17),#1027);
#14=PROPERTY_DEFINITION('pmi validation property','',#1032);
#15=PROPERTY_DEFINITION('pmi validation property','',#1032);
#16=VALUE_REPRESENTATION_ITEM('number of annotations',COUNT_MEASURE(0.));
#17=VALUE_REPRESENTATION_ITEM('number of views',COUNT_MEASURE(0.));
#18=SHAPE_REPRESENTATION_RELATIONSHIP('','',#713,#19);
#19=ADVANCED_BREP_SHAPE_REPRESENTATION('',(#711),#1027);
#20=CYLINDRICAL_SURFACE('',#722,4.4);
#21=CYLINDRICAL_SURFACE('',#724,4.4);
#22=CYLINDRICAL_SURFACE('',#726,2.8);
#23=CIRCLE('',#717,2.8);
#24=CIRCLE('',#718,4.4);
#25=CIRCLE('',#720,4.4);
#26=CIRCLE('',#721,2.8);
#27=CIRCLE('',#723,4.4);
#28=CIRCLE('',#725,4.4);
#29=ORIENTED_EDGE('',*,*,#173,.F.);
#30=ORIENTED_EDGE('',*,*,#174,.T.);
#31=ORIENTED_EDGE('',*,*,#175,.F.);
#32=ORIENTED_EDGE('',*,*,#176,.T.);
#33=ORIENTED_EDGE('',*,*,#177,.F.);
#34=ORIENTED_EDGE('',*,*,#178,.F.);
#35=ORIENTED_EDGE('',*,*,#179,.F.);
#36=ORIENTED_EDGE('',*,*,#180,.T.);
#37=ORIENTED_EDGE('',*,*,#181,.T.);
#38=ORIENTED_EDGE('',*,*,#182,.T.);
#39=ORIENTED_EDGE('',*,*,#183,.F.);
#40=ORIENTED_EDGE('',*,*,#184,.F.);
#41=ORIENTED_EDGE('',*,*,#185,.F.);
#42=ORIENTED_EDGE('',*,*,#186,.T.);
#43=ORIENTED_EDGE('',*,*,#178,.T.);
#44=ORIENTED_EDGE('',*,*,#187,.F.);
#45=ORIENTED_EDGE('',*,*,#188,.T.);
#46=ORIENTED_EDGE('',*,*,#189,.F.);
#47=ORIENTED_EDGE('',*,*,#190,.T.);
#48=ORIENTED_EDGE('',*,*,#191,.F.);
#49=ORIENTED_EDGE('',*,*,#192,.F.);
#50=ORIENTED_EDGE('',*,*,#193,.T.);
#51=ORIENTED_EDGE('',*,*,#176,.F.);
#52=ORIENTED_EDGE('',*,*,#194,.T.);
#53=ORIENTED_EDGE('',*,*,#195,.F.);
#54=ORIENTED_EDGE('',*,*,#196,.T.);
#55=ORIENTED_EDGE('',*,*,#185,.T.);
#56=ORIENTED_EDGE('',*,*,#197,.F.);
#57=ORIENTED_EDGE('',*,*,#198,.T.);
#58=ORIENTED_EDGE('',*,*,#199,.F.);
#59=ORIENTED_EDGE('',*,*,#188,.F.);
#60=ORIENTED_EDGE('',*,*,#200,.T.);
#61=ORIENTED_EDGE('',*,*,#192,.T.);
#62=ORIENTED_EDGE('',*,*,#201,.F.);
#63=ORIENTED_EDGE('',*,*,#181,.F.);
#64=ORIENTED_EDGE('',*,*,#202,.T.);
#65=ORIENTED_EDGE('',*,*,#203,.F.);
#66=ORIENTED_EDGE('',*,*,#204,.T.);
#67=ORIENTED_EDGE('',*,*,#205,.F.);
#68=ORIENTED_EDGE('',*,*,#206,.F.);
#69=ORIENTED_EDGE('',*,*,#207,.F.);
#70=ORIENTED_EDGE('',*,*,#195,.T.);
#71=ORIENTED_EDGE('',*,*,#208,.T.);
#72=ORIENTED_EDGE('',*,*,#209,.T.);
#73=ORIENTED_EDGE('',*,*,#210,.F.);
#74=ORIENTED_EDGE('',*,*,#211,.T.);
#75=ORIENTED_EDGE('',*,*,#212,.T.);
#76=ORIENTED_EDGE('',*,*,#213,.T.);
#77=ORIENTED_EDGE('',*,*,#214,.T.);
#78=ORIENTED_EDGE('',*,*,#203,.T.);
#79=ORIENTED_EDGE('',*,*,#215,.F.);
#80=ORIENTED_EDGE('',*,*,#216,.F.);
#81=ORIENTED_EDGE('',*,*,#217,.F.);
#82=ORIENTED_EDGE('',*,*,#218,.F.);
#83=ORIENTED_EDGE('',*,*,#219,.T.);
#84=ORIENTED_EDGE('',*,*,#180,.F.);
#85=ORIENTED_EDGE('',*,*,#220,.F.);
#86=ORIENTED_EDGE('',*,*,#216,.T.);
#87=ORIENTED_EDGE('',*,*,#221,.T.);
#88=ORIENTED_EDGE('',*,*,#222,.T.);
#89=ORIENTED_EDGE('',*,*,#223,.F.);
#90=ORIENTED_EDGE('',*,*,#224,.T.);
#91=ORIENTED_EDGE('',*,*,#222,.F.);
#92=ORIENTED_EDGE('',*,*,#225,.T.);
#93=ORIENTED_EDGE('',*,*,#205,.T.);
#94=ORIENTED_EDGE('',*,*,#226,.F.);
#95=ORIENTED_EDGE('',*,*,#227,.T.);
#96=ORIENTED_EDGE('',*,*,#228,.F.);
#97=ORIENTED_EDGE('',*,*,#229,.T.);
#98=ORIENTED_EDGE('',*,*,#230,.T.);
#99=ORIENTED_EDGE('',*,*,#231,.T.);
#100=ORIENTED_EDGE('',*,*,#232,.T.);
#101=ORIENTED_EDGE('',*,*,#198,.F.);
#102=ORIENTED_EDGE('',*,*,#233,.F.);
#103=ORIENTED_EDGE('',*,*,#174,.F.);
#104=ORIENTED_EDGE('',*,*,#234,.F.);
#105=ORIENTED_EDGE('',*,*,#206,.T.);
#106=ORIENTED_EDGE('',*,*,#225,.F.);
#107=ORIENTED_EDGE('',*,*,#221,.F.);
#108=ORIENTED_EDGE('',*,*,#215,.T.);
#109=ORIENTED_EDGE('',*,*,#187,.T.);
#110=ORIENTED_EDGE('',*,*,#177,.T.);
#111=ORIENTED_EDGE('',*,*,#193,.F.);
#112=ORIENTED_EDGE('',*,*,#202,.F.);
#113=ORIENTED_EDGE('',*,*,#233,.T.);
#114=ORIENTED_EDGE('',*,*,#200,.F.);
#115=ORIENTED_EDGE('',*,*,#194,.F.);
#116=ORIENTED_EDGE('',*,*,#175,.T.);
#117=ORIENTED_EDGE('',*,*,#196,.F.);
#118=ORIENTED_EDGE('',*,*,#207,.T.);
#119=ORIENTED_EDGE('',*,*,#179,.T.);
#120=ORIENTED_EDGE('',*,*,#186,.F.);
#121=ORIENTED_EDGE('',*,*,#173,.T.);
#122=ORIENTED_EDGE('',*,*,#219,.F.);
#123=ORIENTED_EDGE('',*,*,#235,.F.);
#124=ORIENTED_EDGE('',*,*,#234,.T.);
#125=ORIENTED_EDGE('',*,*,#220,.T.);
#126=ORIENTED_EDGE('',*,*,#224,.F.);
#127=ORIENTED_EDGE('',*,*,#236,.F.);
#128=ORIENTED_EDGE('',*,*,#217,.T.);
#129=ORIENTED_EDGE('',*,*,#223,.T.);
#130=ORIENTED_EDGE('',*,*,#235,.T.);
#131=ORIENTED_EDGE('',*,*,#218,.T.);
#132=ORIENTED_EDGE('',*,*,#236,.T.);
#133=ORIENTED_EDGE('',*,*,#237,.T.);
#134=ORIENTED_EDGE('',*,*,#209,.F.);
#135=ORIENTED_EDGE('',*,*,#238,.T.);
#136=ORIENTED_EDGE('',*,*,#183,.T.);
#137=ORIENTED_EDGE('',*,*,#239,.T.);
#138=ORIENTED_EDGE('',*,*,#190,.F.);
#139=ORIENTED_EDGE('',*,*,#240,.T.);
#140=ORIENTED_EDGE('',*,*,#231,.F.);
#141=ORIENTED_EDGE('',*,*,#241,.T.);
#142=ORIENTED_EDGE('',*,*,#227,.F.);
#143=ORIENTED_EDGE('',*,*,#242,.F.);
#144=ORIENTED_EDGE('',*,*,#213,.F.);
#145=ORIENTED_EDGE('',*,*,#204,.F.);
#146=ORIENTED_EDGE('',*,*,#214,.F.);
#147=ORIENTED_EDGE('',*,*,#242,.T.);
#148=ORIENTED_EDGE('',*,*,#226,.T.);
#149=ORIENTED_EDGE('',*,*,#182,.F.);
#150=ORIENTED_EDGE('',*,*,#201,.T.);
#151=ORIENTED_EDGE('',*,*,#191,.T.);
#152=ORIENTED_EDGE('',*,*,#239,.F.);
#153=ORIENTED_EDGE('',*,*,#197,.T.);
#154=ORIENTED_EDGE('',*,*,#184,.T.);
#155=ORIENTED_EDGE('',*,*,#238,.F.);
#156=ORIENTED_EDGE('',*,*,#208,.F.);
#157=ORIENTED_EDGE('',*,*,#232,.F.);
#158=ORIENTED_EDGE('',*,*,#240,.F.);
#159=ORIENTED_EDGE('',*,*,#189,.T.);
#160=ORIENTED_EDGE('',*,*,#199,.T.);
#161=ORIENTED_EDGE('',*,*,#229,.F.);
#162=ORIENTED_EDGE('',*,*,#243,.F.);
#163=ORIENTED_EDGE('',*,*,#211,.F.);
#164=ORIENTED_EDGE('',*,*,#244,.F.);
#165=ORIENTED_EDGE('',*,*,#241,.F.);
#166=ORIENTED_EDGE('',*,*,#212,.F.);
#167=ORIENTED_EDGE('',*,*,#243,.T.);
#168=ORIENTED_EDGE('',*,*,#228,.T.);
#169=ORIENTED_EDGE('',*,*,#237,.F.);
#170=ORIENTED_EDGE('',*,*,#230,.F.);
#171=ORIENTED_EDGE('',*,*,#244,.T.);
#172=ORIENTED_EDGE('',*,*,#210,.T.);
#173=EDGE_CURVE('',#245,#246,#293,.T.);
#174=EDGE_CURVE('',#245,#247,#294,.T.);
#175=EDGE_CURVE('',#248,#247,#295,.T.);
#176=EDGE_CURVE('',#248,#249,#296,.T.);
#177=EDGE_CURVE('',#250,#249,#297,.T.);
#178=EDGE_CURVE('',#251,#250,#298,.T.);
#179=EDGE_CURVE('',#252,#251,#299,.T.);
#180=EDGE_CURVE('',#252,#246,#300,.T.);
#181=EDGE_CURVE('',#253,#254,#23,.T.);
#182=EDGE_CURVE('',#254,#255,#301,.T.);
#183=EDGE_CURVE('',#256,#255,#302,.T.);
#184=EDGE_CURVE('',#257,#256,#303,.T.);
#185=EDGE_CURVE('',#258,#257,#24,.T.);
#186=EDGE_CURVE('',#258,#251,#304,.T.);
#187=EDGE_CURVE('',#253,#250,#305,.T.);
#188=EDGE_CURVE('',#259,#260,#25,.T.);
#189=EDGE_CURVE('',#261,#260,#306,.T.);
#190=EDGE_CURVE('',#261,#262,#307,.T.);
#191=EDGE_CURVE('',#263,#262,#308,.T.);
#192=EDGE_CURVE('',#264,#263,#26,.T.);
#193=EDGE_CURVE('',#264,#249,#309,.T.);
#194=EDGE_CURVE('',#248,#259,#310,.T.);
#195=EDGE_CURVE('',#265,#266,#27,.T.);
#196=EDGE_CURVE('',#265,#258,#311,.T.);
#197=EDGE_CURVE('',#266,#257,#312,.T.);
#198=EDGE_CURVE('',#267,#268,#28,.F.);
#199=EDGE_CURVE('',#260,#268,#313,.T.);
#200=EDGE_CURVE('',#259,#267,#314,.T.);
#201=EDGE_CURVE('',#254,#263,#315,.T.);
#202=EDGE_CURVE('',#253,#264,#316,.T.);
#203=EDGE_CURVE('',#269,#270,#317,.T.);
#204=EDGE_CURVE('',#269,#271,#318,.T.);
#205=EDGE_CURVE('',#272,#271,#319,.T.);
#206=EDGE_CURVE('',#270,#272,#320,.T.);
#207=EDGE_CURVE('',#265,#252,#321,.T.);
#208=EDGE_CURVE('',#266,#273,#322,.T.);
#209=EDGE_CURVE('',#273,#274,#323,.T.);
#210=EDGE_CURVE('',#275,#274,#324,.T.);
#211=EDGE_CURVE('',#275,#276,#325,.T.);
#212=EDGE_CURVE('',#276,#277,#326,.T.);
#213=EDGE_CURVE('',#277,#278,#327,.T.);
#214=EDGE_CURVE('',#278,#269,#328,.T.);
#215=EDGE_CURVE('',#279,#270,#329,.T.);
#216=EDGE_CURVE('',#280,#279,#330,.T.);
#217=EDGE_CURVE('',#281,#280,#331,.T.);
#218=EDGE_CURVE('',#282,#281,#332,.T.);
#219=EDGE_CURVE('',#282,#246,#333,.T.);
#220=EDGE_CURVE('',#280,#283,#334,.T.);
#221=EDGE_CURVE('',#279,#284,#335,.T.);
#222=EDGE_CURVE('',#284,#283,#336,.T.);
#223=EDGE_CURVE('',#285,#286,#337,.T.);
#224=EDGE_CURVE('',#285,#283,#338,.T.);
#225=EDGE_CURVE('',#284,#272,#339,.T.);
#226=EDGE_CURVE('',#287,#271,#340,.T.);
#227=EDGE_CURVE('',#287,#288,#341,.T.);
#228=EDGE_CURVE('',#289,#288,#342,.T.);
#229=EDGE_CURVE('',#289,#290,#343,.T.);
#230=EDGE_CURVE('',#290,#291,#344,.T.);
#231=EDGE_CURVE('',#291,#292,#345,.T.);
#232=EDGE_CURVE('',#292,#268,#346,.T.);
#233=EDGE_CURVE('',#247,#267,#347,.T.);
#234=EDGE_CURVE('',#286,#245,#348,.T.);
#235=EDGE_CURVE('',#286,#282,#349,.T.);
#236=EDGE_CURVE('',#281,#285,#350,.T.);
#237=EDGE_CURVE('',#291,#274,#351,.T.);
#238=EDGE_CURVE('',#273,#256,#352,.T.);
#239=EDGE_CURVE('',#255,#262,#353,.T.);
#240=EDGE_CURVE('',#261,#292,#354,.T.);
#241=EDGE_CURVE('',#277,#288,#355,.T.);
#242=EDGE_CURVE('',#278,#287,#356,.T.);
#243=EDGE_CURVE('',#276,#289,#357,.T.);
#244=EDGE_CURVE('',#290,#275,#358,.T.);
#245=VERTEX_POINT('',#882);
#246=VERTEX_POINT('',#883);
#247=VERTEX_POINT('',#885);
#248=VERTEX_POINT('',#887);
#249=VERTEX_POINT('',#889);
#250=VERTEX_POINT('',#891);
#251=VERTEX_POINT('',#893);
#252=VERTEX_POINT('',#895);
#253=VERTEX_POINT('',#899);
#254=VERTEX_POINT('',#900);
#255=VERTEX_POINT('',#902);
#256=VERTEX_POINT('',#904);
#257=VERTEX_POINT('',#906);
#258=VERTEX_POINT('',#908);
#259=VERTEX_POINT('',#913);
#260=VERTEX_POINT('',#914);
#261=VERTEX_POINT('',#916);
#262=VERTEX_POINT('',#918);
#263=VERTEX_POINT('',#920);
#264=VERTEX_POINT('',#922);
#265=VERTEX_POINT('',#927);
#266=VERTEX_POINT('',#928);
#267=VERTEX_POINT('',#933);
#268=VERTEX_POINT('',#934);
#269=VERTEX_POINT('',#942);
#270=VERTEX_POINT('',#943);
#271=VERTEX_POINT('',#945);
#272=VERTEX_POINT('',#947);
#273=VERTEX_POINT('',#952);
#274=VERTEX_POINT('',#954);
#275=VERTEX_POINT('',#956);
#276=VERTEX_POINT('',#958);
#277=VERTEX_POINT('',#960);
#278=VERTEX_POINT('',#962);
#279=VERTEX_POINT('',#965);
#280=VERTEX_POINT('',#967);
#281=VERTEX_POINT('',#969);
#282=VERTEX_POINT('',#971);
#283=VERTEX_POINT('',#975);
#284=VERTEX_POINT('',#977);
#285=VERTEX_POINT('',#981);
#286=VERTEX_POINT('',#982);
#287=VERTEX_POINT('',#986);
#288=VERTEX_POINT('',#988);
#289=VERTEX_POINT('',#990);
#290=VERTEX_POINT('',#992);
#291=VERTEX_POINT('',#994);
#292=VERTEX_POINT('',#996);
#293=LINE('',#881,#359);
#294=LINE('',#884,#360);
#295=LINE('',#886,#361);
#296=LINE('',#888,#362);
#297=LINE('',#890,#363);
#298=LINE('',#892,#364);
#299=LINE('',#894,#365);
#300=LINE('',#896,#366);
#301=LINE('',#901,#367);
#302=LINE('',#903,#368);
#303=LINE('',#905,#369);
#304=LINE('',#909,#370);
#305=LINE('',#910,#371);
#306=LINE('',#915,#372);
#307=LINE('',#917,#373);
#308=LINE('',#919,#374);
#309=LINE('',#923,#375);
#310=LINE('',#924,#376);
#311=LINE('',#929,#377);
#312=LINE('',#930,#378);
#313=LINE('',#935,#379);
#314=LINE('',#936,#380);
#315=LINE('',#938,#381);
#316=LINE('',#939,#382);
#317=LINE('',#941,#383);
#318=LINE('',#944,#384);
#319=LINE('',#946,#385);
#320=LINE('',#948,#386);
#321=LINE('',#950,#387);
#322=LINE('',#951,#388);
#323=LINE('',#953,#389);
#324=LINE('',#955,#390);
#325=LINE('',#957,#391);
#326=LINE('',#959,#392);
#327=LINE('',#961,#393);
#328=LINE('',#963,#394);
#329=LINE('',#964,#395);
#330=LINE('',#966,#396);
#331=LINE('',#968,#397);
#332=LINE('',#970,#398);
#333=LINE('',#972,#399);
#334=LINE('',#974,#400);
#335=LINE('',#976,#401);
#336=LINE('',#978,#402);
#337=LINE('',#980,#403);
#338=LINE('',#983,#404);
#339=LINE('',#984,#405);
#340=LINE('',#985,#406);
#341=LINE('',#987,#407);
#342=LINE('',#989,#408);
#343=LINE('',#991,#409);
#344=LINE('',#993,#410);
#345=LINE('',#995,#411);
#346=LINE('',#997,#412);
#347=LINE('',#998,#413);
#348=LINE('',#999,#414);
#349=LINE('',#1005,#415);
#350=LINE('',#1007,#416);
#351=LINE('',#1010,#417);
#352=LINE('',#1011,#418);
#353=LINE('',#1012,#419);
#354=LINE('',#1013,#420);
#355=LINE('',#1015,#421);
#356=LINE('',#1016,#422);
#357=LINE('',#1022,#423);
#358=LINE('',#1023,#424);
#359=VECTOR('',#751,1000.);
#360=VECTOR('',#752,1000.);
#361=VECTOR('',#753,1000.);
#362=VECTOR('',#754,1000.);
#363=VECTOR('',#755,1000.);
#364=VECTOR('',#756,1000.);
#365=VECTOR('',#757,1000.);
#366=VECTOR('',#758,1000.);
#367=VECTOR('',#763,1000.);
#368=VECTOR('',#764,1000.);
#369=VECTOR('',#765,1000.);
#370=VECTOR('',#768,1000.);
#371=VECTOR('',#769,1000.);
#372=VECTOR('',#774,1000.);
#373=VECTOR('',#775,1000.);
#374=VECTOR('',#776,1000.);
#375=VECTOR('',#779,1000.);
#376=VECTOR('',#780,1000.);
#377=VECTOR('',#785,1000.);
#378=VECTOR('',#786,1000.);
#379=VECTOR('',#791,1000.);
#380=VECTOR('',#792,1000.);
#381=VECTOR('',#795,1000.);
#382=VECTOR('',#796,1000.);
#383=VECTOR('',#799,1000.);
#384=VECTOR('',#800,1000.);
#385=VECTOR('',#801,1000.);
#386=VECTOR('',#802,1000.);
#387=VECTOR('',#805,1000.);
#388=VECTOR('',#806,1000.);
#389=VECTOR('',#807,1000.);
#390=VECTOR('',#808,1000.);
#391=VECTOR('',#809,1000.);
#392=VECTOR('',#810,1000.);
#393=VECTOR('',#811,1000.);
#394=VECTOR('',#812,1000.);
#395=VECTOR('',#813,1000.);
#396=VECTOR('',#814,1000.);
#397=VECTOR('',#815,1000.);
#398=VECTOR('',#816,1000.);
#399=VECTOR('',#817,1000.);
#400=VECTOR('',#820,1000.);
#401=VECTOR('',#821,1000.);
#402=VECTOR('',#822,1000.);
#403=VECTOR('',#825,1000.);
#404=VECTOR('',#826,1000.);
#405=VECTOR('',#827,1000.);
#406=VECTOR('',#828,1000.);
#407=VECTOR('',#829,1000.);
#408=VECTOR('',#830,1000.);
#409=VECTOR('',#831,1000.);
#410=VECTOR('',#832,1000.);
#411=VECTOR('',#833,1000.);
#412=VECTOR('',#834,1000.);
#413=VECTOR('',#835,1000.);
#414=VECTOR('',#836,1000.);
#415=VECTOR('',#847,1000.);
#416=VECTOR('',#850,1000.);
#417=VECTOR('',#855,1000.);
#418=VECTOR('',#856,1000.);
#419=VECTOR('',#857,1000.);
#420=VECTOR('',#858,1000.);
#421=VECTOR('',#861,1000.);
#422=VECTOR('',#862,1000.);
#423=VECTOR('',#873,1000.);
#424=VECTOR('',#874,1000.);
#425=EDGE_LOOP('',(#29,#30,#31,#32,#33,#34,#35,#36));
#426=EDGE_LOOP('',(#37,#38,#39,#40,#41,#42,#43,#44));
#427=EDGE_LOOP('',(#45,#46,#47,#48,#49,#50,#51,#52));
#428=EDGE_LOOP('',(#53,#54,#55,#56));
#429=EDGE_LOOP('',(#57,#58,#59,#60));
#430=EDGE_LOOP('',(#61,#62,#63,#64));
#431=EDGE_LOOP('',(#65,#66,#67,#68));
#432=EDGE_LOOP('',(#69,#70,#71,#72,#73,#74,#75,#76,#77,#78,#79,#80,#81,
#82,#83,#84));
#433=EDGE_LOOP('',(#85,#86,#87,#88));
#434=EDGE_LOOP('',(#89,#90,#91,#92,#93,#94,#95,#96,#97,#98,#99,#100,#101,
#102,#103,#104));
#435=EDGE_LOOP('',(#105,#106,#107,#108));
#436=EDGE_LOOP('',(#109,#110,#111,#112));
#437=EDGE_LOOP('',(#113,#114,#115,#116));
#438=EDGE_LOOP('',(#117,#118,#119,#120));
#439=EDGE_LOOP('',(#121,#122,#123,#124));
#440=EDGE_LOOP('',(#125,#126,#127,#128));
#441=EDGE_LOOP('',(#129,#130,#131,#132));
#442=EDGE_LOOP('',(#133,#134,#135,#136,#137,#138,#139,#140));
#443=EDGE_LOOP('',(#141,#142,#143,#144));
#444=EDGE_LOOP('',(#145,#146,#147,#148));
#445=EDGE_LOOP('',(#149,#150,#151,#152));
#446=EDGE_LOOP('',(#153,#154,#155,#156));
#447=EDGE_LOOP('',(#157,#158,#159,#160));
#448=EDGE_LOOP('',(#161,#162,#163,#164));
#449=EDGE_LOOP('',(#165,#166,#167,#168));
#450=EDGE_LOOP('',(#169,#170,#171,#172));
#451=FACE_BOUND('',#425,.T.);
#452=FACE_BOUND('',#426,.T.);
#453=FACE_BOUND('',#427,.T.);
#454=FACE_BOUND('',#428,.T.);
#455=FACE_BOUND('',#429,.T.);
#456=FACE_BOUND('',#430,.T.);
#457=FACE_BOUND('',#431,.T.);
#458=FACE_BOUND('',#432,.T.);
#459=FACE_BOUND('',#433,.T.);
#460=FACE_BOUND('',#434,.T.);
#461=FACE_BOUND('',#435,.T.);
#462=FACE_BOUND('',#436,.T.);
#463=FACE_BOUND('',#437,.T.);
#464=FACE_BOUND('',#438,.T.);
#465=FACE_BOUND('',#439,.T.);
#466=FACE_BOUND('',#440,.T.);
#467=FACE_BOUND('',#441,.T.);
#468=FACE_BOUND('',#442,.T.);
#469=FACE_BOUND('',#443,.T.);
#470=FACE_BOUND('',#444,.T.);
#471=FACE_BOUND('',#445,.T.);
#472=FACE_BOUND('',#446,.T.);
#473=FACE_BOUND('',#447,.T.);
#474=FACE_BOUND('',#448,.T.);
#475=FACE_BOUND('',#449,.T.);
#476=FACE_BOUND('',#450,.T.);
#477=PLANE('',#715);
#478=PLANE('',#716);
#479=PLANE('',#719);
#480=PLANE('',#727);
#481=PLANE('',#728);
#482=PLANE('',#729);
#483=PLANE('',#730);
#484=PLANE('',#731);
#485=PLANE('',#732);
#486=PLANE('',#733);
#487=PLANE('',#734);
#488=PLANE('',#735);
#489=PLANE('',#736);
#490=PLANE('',#737);
#491=PLANE('',#738);
#492=PLANE('',#739);
#493=PLANE('',#740);
#494=PLANE('',#741);
#495=PLANE('',#742);
#496=PLANE('',#743);
#497=PLANE('',#744);
#498=PLANE('',#745);
#499=PLANE('',#746);
#500=STYLED_ITEM('',(#526),#684);
#501=STYLED_ITEM('',(#527),#685);
#502=STYLED_ITEM('',(#528),#686);
#503=STYLED_ITEM('',(#529),#687);
#504=STYLED_ITEM('',(#530),#688);
#505=STYLED_ITEM('',(#531),#689);
#506=STYLED_ITEM('',(#532),#690);
#507=STYLED_ITEM('',(#533),#691);
#508=STYLED_ITEM('',(#534),#692);
#509=STYLED_ITEM('',(#535),#693);
#510=STYLED_ITEM('',(#536),#694);
#511=STYLED_ITEM('',(#537),#695);
#512=STYLED_ITEM('',(#538),#696);
#513=STYLED_ITEM('',(#539),#697);
#514=STYLED_ITEM('',(#540),#698);
#515=STYLED_ITEM('',(#541),#699);
#516=STYLED_ITEM('',(#542),#700);
#517=STYLED_ITEM('',(#543),#701);
#518=STYLED_ITEM('',(#544),#702);
#519=STYLED_ITEM('',(#545),#703);
#520=STYLED_ITEM('',(#546),#704);
#521=STYLED_ITEM('',(#547),#705);
#522=STYLED_ITEM('',(#548),#706);
#523=STYLED_ITEM('',(#549),#707);
#524=STYLED_ITEM('',(#550),#708);
#525=STYLED_ITEM('',(#551),#709);
#526=PRESENTATION_STYLE_ASSIGNMENT((#552));
#527=PRESENTATION_STYLE_ASSIGNMENT((#553));
#528=PRESENTATION_STYLE_ASSIGNMENT((#554));
#529=PRESENTATION_STYLE_ASSIGNMENT((#555));
#530=PRESENTATION_STYLE_ASSIGNMENT((#556));
#531=PRESENTATION_STYLE_ASSIGNMENT((#557));
#532=PRESENTATION_STYLE_ASSIGNMENT((#558));
#533=PRESENTATION_STYLE_ASSIGNMENT((#559));
#534=PRESENTATION_STYLE_ASSIGNMENT((#560));
#535=PRESENTATION_STYLE_ASSIGNMENT((#561));
#536=PRESENTATION_STYLE_ASSIGNMENT((#562));
#537=PRESENTATION_STYLE_ASSIGNMENT((#563));
#538=PRESENTATION_STYLE_ASSIGNMENT((#564));
#539=PRESENTATION_STYLE_ASSIGNMENT((#565));
#540=PRESENTATION_STYLE_ASSIGNMENT((#566));
#541=PRESENTATION_STYLE_ASSIGNMENT((#567));
#542=PRESENTATION_STYLE_ASSIGNMENT((#568));
#543=PRESENTATION_STYLE_ASSIGNMENT((#569));
#544=PRESENTATION_STYLE_ASSIGNMENT((#570));
#545=PRESENTATION_STYLE_ASSIGNMENT((#571));
#546=PRESENTATION_STYLE_ASSIGNMENT((#572));
#547=PRESENTATION_STYLE_ASSIGNMENT((#573));
#548=PRESENTATION_STYLE_ASSIGNMENT((#574));
#549=PRESENTATION_STYLE_ASSIGNMENT((#575));
#550=PRESENTATION_STYLE_ASSIGNMENT((#576));
#551=PRESENTATION_STYLE_ASSIGNMENT((#577));
#552=SURFACE_STYLE_USAGE(.BOTH.,#578);
#553=SURFACE_STYLE_USAGE(.BOTH.,#579);
#554=SURFACE_STYLE_USAGE(.BOTH.,#580);
#555=SURFACE_STYLE_USAGE(.BOTH.,#581);
#556=SURFACE_STYLE_USAGE(.BOTH.,#582);
#557=SURFACE_STYLE_USAGE(.BOTH.,#583);
#558=SURFACE_STYLE_USAGE(.BOTH.,#584);
#559=SURFACE_STYLE_USAGE(.BOTH.,#585);
#560=SURFACE_STYLE_USAGE(.BOTH.,#586);
#561=SURFACE_STYLE_USAGE(.BOTH.,#587);
#562=SURFACE_STYLE_USAGE(.BOTH.,#588);
#563=SURFACE_STYLE_USAGE(.BOTH.,#589);
#564=SURFACE_STYLE_USAGE(.BOTH.,#590);
#565=SURFACE_STYLE_USAGE(.BOTH.,#591);
#566=SURFACE_STYLE_USAGE(.BOTH.,#592);
#567=SURFACE_STYLE_USAGE(.BOTH.,#593);
#568=SURFACE_STYLE_USAGE(.BOTH.,#594);
#569=SURFACE_STYLE_USAGE(.BOTH.,#595);
#570=SURFACE_STYLE_USAGE(.BOTH.,#596);
#571=SURFACE_STYLE_USAGE(.BOTH.,#597);
#572=SURFACE_STYLE_USAGE(.BOTH.,#598);
#573=SURFACE_STYLE_USAGE(.BOTH.,#599);
#574=SURFACE_STYLE_USAGE(.BOTH.,#600);
#575=SURFACE_STYLE_USAGE(.BOTH.,#601);
#576=SURFACE_STYLE_USAGE(.BOTH.,#602);
#577=SURFACE_STYLE_USAGE(.BOTH.,#603);
#578=SURFACE_SIDE_STYLE('',(#604));
#579=SURFACE_SIDE_STYLE('',(#605));
#580=SURFACE_SIDE_STYLE('',(#606));
#581=SURFACE_SIDE_STYLE('',(#607));
#582=SURFACE_SIDE_STYLE('',(#608));
#583=SURFACE_SIDE_STYLE('',(#609));
#584=SURFACE_SIDE_STYLE('',(#610));
#585=SURFACE_SIDE_STYLE('',(#611));
#586=SURFACE_SIDE_STYLE('',(#612));
#587=SURFACE_SIDE_STYLE('',(#613));
#588=SURFACE_SIDE_STYLE('',(#614));
#589=SURFACE_SIDE_STYLE('',(#615));
#590=SURFACE_SIDE_STYLE('',(#616));
#591=SURFACE_SIDE_STYLE('',(#617));
#592=SURFACE_SIDE_STYLE('',(#618));
#593=SURFACE_SIDE_STYLE('',(#619));
#594=SURFACE_SIDE_STYLE('',(#620));
#595=SURFACE_SIDE_STYLE('',(#621));
#596=SURFACE_SIDE_STYLE('',(#622));
#597=SURFACE_SIDE_STYLE('',(#623));
#598=SURFACE_SIDE_STYLE('',(#624));
#599=SURFACE_SIDE_STYLE('',(#625));
#600=SURFACE_SIDE_STYLE('',(#626));
#601=SURFACE_SIDE_STYLE('',(#627));
#602=SURFACE_SIDE_STYLE('',(#628));
#603=SURFACE_SIDE_STYLE('',(#629));
#604=SURFACE_STYLE_FILL_AREA(#630);
#605=SURFACE_STYLE_FILL_AREA(#631);
#606=SURFACE_STYLE_FILL_AREA(#632);
#607=SURFACE_STYLE_FILL_AREA(#633);
#608=SURFACE_STYLE_FILL_AREA(#634);
#609=SURFACE_STYLE_FILL_AREA(#635);
#610=SURFACE_STYLE_FILL_AREA(#636);
#611=SURFACE_STYLE_FILL_AREA(#637);
#612=SURFACE_STYLE_FILL_AREA(#638);
#613=SURFACE_STYLE_FILL_AREA(#639);
#614=SURFACE_STYLE_FILL_AREA(#640);
#615=SURFACE_STYLE_FILL_AREA(#641);
#616=SURFACE_STYLE_FILL_AREA(#642);
#617=SURFACE_STYLE_FILL_AREA(#643);
#618=SURFACE_STYLE_FILL_AREA(#644);
#619=SURFACE_STYLE_FILL_AREA(#645);
#620=SURFACE_STYLE_FILL_AREA(#646);
#621=SURFACE_STYLE_FILL_AREA(#647);
#622=SURFACE_STYLE_FILL_AREA(#648);
#623=SURFACE_STYLE_FILL_AREA(#649);
#624=SURFACE_STYLE_FILL_AREA(#650);
#625=SURFACE_STYLE_FILL_AREA(#651);
#626=SURFACE_STYLE_FILL_AREA(#652);
#627=SURFACE_STYLE_FILL_AREA(#653);
#628=SURFACE_STYLE_FILL_AREA(#654);
#629=SURFACE_STYLE_FILL_AREA(#655);
#630=FILL_AREA_STYLE('',(#656));
#631=FILL_AREA_STYLE('',(#657));
#632=FILL_AREA_STYLE('',(#658));
#633=FILL_AREA_STYLE('',(#659));
#634=FILL_AREA_STYLE('',(#660));
#635=FILL_AREA_STYLE('',(#661));
#636=FILL_AREA_STYLE('',(#662));
#637=FILL_AREA_STYLE('',(#663));
#638=FILL_AREA_STYLE('',(#664));
#639=FILL_AREA_STYLE('',(#665));
#640=FILL_AREA_STYLE('',(#666));
#641=FILL_AREA_STYLE('',(#667));
#642=FILL_AREA_STYLE('',(#668));
#643=FILL_AREA_STYLE('',(#669));
#644=FILL_AREA_STYLE('',(#670));
#645=FILL_AREA_STYLE('',(#671));
#646=FILL_AREA_STYLE('',(#672));
#647=FILL_AREA_STYLE('',(#673));
#648=FILL_AREA_STYLE('',(#674));
#649=FILL_AREA_STYLE('',(#675));
#650=FILL_AREA_STYLE('',(#676));
#651=FILL_AREA_STYLE('',(#677));
#652=FILL_AREA_STYLE('',(#678));
#653=FILL_AREA_STYLE('',(#679));
#654=FILL_AREA_STYLE('',(#680));
#655=FILL_AREA_STYLE('',(#681));
#656=FILL_AREA_STYLE_COLOUR('',#682);
#657=FILL_AREA_STYLE_COLOUR('',#683);
#658=FILL_AREA_STYLE_COLOUR('',#683);
#659=FILL_AREA_STYLE_COLOUR('',#683);
#660=FILL_AREA_STYLE_COLOUR('',#683);
#661=FILL_AREA_STYLE_COLOUR('',#683);
#662=FILL_AREA_STYLE_COLOUR('',#682);
#663=FILL_AREA_STYLE_COLOUR('',#682);
#664=FILL_AREA_STYLE_COLOUR('',#682);
#665=FILL_AREA_STYLE_COLOUR('',#682);
#666=FILL_AREA_STYLE_COLOUR('',#682);
#667=FILL_AREA_STYLE_COLOUR('',#682);
#668=FILL_AREA_STYLE_COLOUR('',#682);
#669=FILL_AREA_STYLE_COLOUR('',#682);
#670=FILL_AREA_STYLE_COLOUR('',#682);
#671=FILL_AREA_STYLE_COLOUR('',#682);
#672=FILL_AREA_STYLE_COLOUR('',#682);
#673=FILL_AREA_STYLE_COLOUR('',#682);
#674=FILL_AREA_STYLE_COLOUR('',#682);
#675=FILL_AREA_STYLE_COLOUR('',#682);
#676=FILL_AREA_STYLE_COLOUR('',#682);
#677=FILL_AREA_STYLE_COLOUR('',#682);
#678=FILL_AREA_STYLE_COLOUR('',#682);
#679=FILL_AREA_STYLE_COLOUR('',#682);
#680=FILL_AREA_STYLE_COLOUR('',#682);
#681=FILL_AREA_STYLE_COLOUR('',#682);
#682=COLOUR_RGB('',0.506983280181885,0.531564235687256,0.550000011920929);
#683=COLOUR_RGB('',0.699999988079071,0.699999988079071,0.699999988079071);
#684=ADVANCED_FACE('',(#451),#477,.T.);
#685=ADVANCED_FACE('',(#452),#478,.F.);
#686=ADVANCED_FACE('',(#453),#479,.T.);
#687=ADVANCED_FACE('',(#454),#20,.F.);
#688=ADVANCED_FACE('',(#455),#21,.F.);
#689=ADVANCED_FACE('',(#456),#22,.F.);
#690=ADVANCED_FACE('',(#457),#480,.F.);
#691=ADVANCED_FACE('',(#458),#481,.F.);
#692=ADVANCED_FACE('',(#459),#482,.T.);
#693=ADVANCED_FACE('',(#460),#483,.F.);
#694=ADVANCED_FACE('',(#461),#484,.F.);
#695=ADVANCED_FACE('',(#462),#485,.T.);
#696=ADVANCED_FACE('',(#463),#486,.F.);
#697=ADVANCED_FACE('',(#464),#487,.T.);
#698=ADVANCED_FACE('',(#465),#488,.F.);
#699=ADVANCED_FACE('',(#466),#489,.F.);
#700=ADVANCED_FACE('',(#467),#490,.F.);
#701=ADVANCED_FACE('',(#468),#491,.T.);
#702=ADVANCED_FACE('',(#469),#492,.T.);
#703=ADVANCED_FACE('',(#470),#493,.F.);
#704=ADVANCED_FACE('',(#471),#494,.T.);
#705=ADVANCED_FACE('',(#472),#495,.T.);
#706=ADVANCED_FACE('',(#473),#496,.F.);
#707=ADVANCED_FACE('',(#474),#497,.F.);
#708=ADVANCED_FACE('',(#475),#498,.F.);
#709=ADVANCED_FACE('',(#476),#499,.F.);
#710=CLOSED_SHELL('',(#684,#685,#686,#687,#688,#689,#690,#691,#692,#693,
#694,#695,#696,#697,#698,#699,#700,#701,#702,#703,#704,#705,#706,#707,#708,
#709));
#711=MANIFOLD_SOLID_BREP('',#710);
#712=SHAPE_DEFINITION_REPRESENTATION(#1032,#713);
#713=SHAPE_REPRESENTATION('IsolatePlugGrip01',(#714),#1027);
#714=AXIS2_PLACEMENT_3D('',#879,#747,#748);
#715=AXIS2_PLACEMENT_3D('',#880,#749,#750);
#716=AXIS2_PLACEMENT_3D('',#897,#759,#760);
#717=AXIS2_PLACEMENT_3D('',#898,#761,#762);
#718=AXIS2_PLACEMENT_3D('',#907,#766,#767);
#719=AXIS2_PLACEMENT_3D('',#911,#770,#771);
#720=AXIS2_PLACEMENT_3D('',#912,#772,#773);
#721=AXIS2_PLACEMENT_3D('',#921,#777,#778);
#722=AXIS2_PLACEMENT_3D('',#925,#781,#782);
#723=AXIS2_PLACEMENT_3D('',#926,#783,#784);
#724=AXIS2_PLACEMENT_3D('',#931,#787,#788);
#725=AXIS2_PLACEMENT_3D('',#932,#789,#790);
#726=AXIS2_PLACEMENT_3D('',#937,#793,#794);
#727=AXIS2_PLACEMENT_3D('',#940,#797,#798);
#728=AXIS2_PLACEMENT_3D('',#949,#803,#804);
#729=AXIS2_PLACEMENT_3D('',#973,#818,#819);
#730=AXIS2_PLACEMENT_3D('',#979,#823,#824);
#731=AXIS2_PLACEMENT_3D('',#1000,#837,#838);
#732=AXIS2_PLACEMENT_3D('',#1001,#839,#840);
#733=AXIS2_PLACEMENT_3D('',#1002,#841,#842);
#734=AXIS2_PLACEMENT_3D('',#1003,#843,#844);
#735=AXIS2_PLACEMENT_3D('',#1004,#845,#846);
#736=AXIS2_PLACEMENT_3D('',#1006,#848,#849);
#737=AXIS2_PLACEMENT_3D('',#1008,#851,#852);
#738=AXIS2_PLACEMENT_3D('',#1009,#853,#854);
#739=AXIS2_PLACEMENT_3D('',#1014,#859,#860);
#740=AXIS2_PLACEMENT_3D('',#1017,#863,#864);
#741=AXIS2_PLACEMENT_3D('',#1018,#865,#866);
#742=AXIS2_PLACEMENT_3D('',#1019,#867,#868);
#743=AXIS2_PLACEMENT_3D('',#1020,#869,#870);
#744=AXIS2_PLACEMENT_3D('',#1021,#871,#872);
#745=AXIS2_PLACEMENT_3D('',#1024,#875,#876);
#746=AXIS2_PLACEMENT_3D('',#1025,#877,#878);
#747=DIRECTION('',(0.,0.,1.));
#748=DIRECTION('',(1.,0.,0.));
#749=DIRECTION('',(0.,0.,1.));
#750=DIRECTION('',(1.,0.,0.));
#751=DIRECTION('',(0.0178301911750901,-0.999841029505521,0.));
#752=DIRECTION('',(-1.,1.49429276163405E-16,0.));
#753=DIRECTION('',(1.49429276163405E-16,1.,0.));
#754=DIRECTION('',(-1.,0.,0.));
#755=DIRECTION('',(0.,1.,0.));
#756=DIRECTION('',(-1.,0.,0.));
#757=DIRECTION('',(0.,1.,0.));
#758=DIRECTION('',(1.,-2.61501233285958E-16,0.));
#759=DIRECTION('',(0.,1.,0.));
#760=DIRECTION('',(0.,0.,1.));
#761=DIRECTION('',(0.,1.,0.));
#762=DIRECTION('',(0.,0.,1.));
#763=DIRECTION('',(3.46944695195362E-16,-1.03687389343552E-31,1.));
#764=DIRECTION('',(1.,-2.98858552326809E-16,0.));
#765=DIRECTION('',(3.46944695195362E-16,-1.03687389343552E-31,1.));
#766=DIRECTION('',(0.,1.,0.));
#767=DIRECTION('',(0.,0.,1.));
#768=DIRECTION('',(-3.46944695195362E-16,0.,1.));
#769=DIRECTION('',(-3.46944695195362E-16,0.,1.));
#770=DIRECTION('',(0.,1.,0.));
#771=DIRECTION('',(0.,0.,1.));
#772=DIRECTION('',(0.,1.,0.));
#773=DIRECTION('',(0.,0.,1.));
#774=DIRECTION('',(-3.46944695195362E-16,5.18436946717759E-32,-1.));
#775=DIRECTION('',(1.,-2.98858552326809E-16,0.));
#776=DIRECTION('',(3.46944695195361E-16,-1.03687389343552E-31,1.));
#777=DIRECTION('',(0.,1.,0.));
#778=DIRECTION('',(0.,0.,1.));
#779=DIRECTION('',(-3.46944695195361E-16,0.,1.));
#780=DIRECTION('',(3.46944695195362E-16,-5.18436946717759E-32,-1.));
#781=DIRECTION('',(0.,-1.,0.));
#782=DIRECTION('',(0.,0.,-1.));
#783=DIRECTION('',(-1.12071957122553E-16,1.,0.));
#784=DIRECTION('',(-1.,-1.12071957122553E-16,0.));
#785=DIRECTION('',(0.,1.,0.));
#786=DIRECTION('',(2.98858552326809E-16,1.,0.));
#787=DIRECTION('',(0.,-1.,0.));
#788=DIRECTION('',(0.,0.,-1.));
#789=DIRECTION('',(-1.49429276163405E-16,-1.,0.));
#790=DIRECTION('',(1.,-1.49429276163405E-16,0.));
#791=DIRECTION('',(1.49429276163404E-16,1.,0.));
#792=DIRECTION('',(1.49429276163405E-16,1.,0.));
#793=DIRECTION('',(0.,1.,0.));
#794=DIRECTION('',(0.,0.,1.));
#795=DIRECTION('',(2.98858552326809E-16,1.,0.));
#796=DIRECTION('',(0.,1.,0.));
#797=DIRECTION('',(0.,0.,1.));
#798=DIRECTION('',(1.,0.,0.));
#799=DIRECTION('',(1.,1.12071957122553E-16,0.));
#800=DIRECTION('',(4.43418841991543E-16,1.,0.));
#801=DIRECTION('',(-1.,1.49429276163405E-16,0.));
#802=DIRECTION('',(-1.44560289664734E-16,1.,0.));
#803=DIRECTION('',(-1.12071957122553E-16,1.,0.));
#804=DIRECTION('',(-1.,-1.12071957122553E-16,0.));
#805=DIRECTION('',(-3.46944695195362E-16,-3.88827710038319E-32,1.));
#806=DIRECTION('',(3.46944695195362E-16,-1.42570160347384E-31,1.));
#807=DIRECTION('',(-1.,3.73573190408511E-17,0.));
#808=DIRECTION('',(0.,0.,1.));
#809=DIRECTION('',(-1.,-5.68503185661594E-16,0.));
#810=DIRECTION('',(0.,0.,1.));
#811=DIRECTION('',(-0.819152044288992,-1.66906391942037E-17,-0.573576436351046));
#812=DIRECTION('',(0.,0.,-1.));
#813=DIRECTION('',(0.,0.,-1.));
#814=DIRECTION('',(0.819152044288992,-2.61501233285958E-16,-0.573576436351046));
#815=DIRECTION('',(0.,0.,1.));
#816=DIRECTION('',(1.,-8.67361737988404E-16,0.));
#817=DIRECTION('',(0.,0.,1.));
#818=DIRECTION('',(0.573576436351046,0.,0.819152044288992));
#819=DIRECTION('',(0.819152044288992,0.,-0.573576436351046));
#820=DIRECTION('',(-5.92084284009378E-17,1.,4.14581878918865E-17));
#821=DIRECTION('',(-1.44560289664734E-16,1.,1.01222204549026E-16));
#822=DIRECTION('',(-0.819152044288992,1.49429276163405E-16,0.573576436351046));
#823=DIRECTION('',(-1.49429276163405E-16,-1.,0.));
#824=DIRECTION('',(1.,-1.49429276163405E-16,0.));
#825=DIRECTION('',(-1.,0.,0.));
#826=DIRECTION('',(0.,0.,1.));
#827=DIRECTION('',(0.,0.,-1.));
#828=DIRECTION('',(0.,0.,-1.));
#829=DIRECTION('',(0.819152044288992,-9.53813179283497E-17,0.573576436351046));
#830=DIRECTION('',(0.,0.,1.));
#831=DIRECTION('',(1.,-2.98858552326809E-16,0.));
#832=DIRECTION('',(0.,0.,1.));
#833=DIRECTION('',(1.,-1.49429276163404E-16,0.));
#834=DIRECTION('',(-3.46944695195362E-16,5.18436946717759E-32,-1.));
#835=DIRECTION('',(3.46944695195362E-16,-5.18436946717759E-32,-1.));
#836=DIRECTION('',(0.,0.,1.));
#837=DIRECTION('',(-1.,-1.44560289664734E-16,0.));
#838=DIRECTION('',(1.44560289664734E-16,-1.,0.));
#839=DIRECTION('',(-1.,0.,-3.46944695195362E-16));
#840=DIRECTION('',(-3.46944695195362E-16,0.,1.));
#841=DIRECTION('',(1.,-1.49429276163405E-16,3.46944695195362E-16));
#842=DIRECTION('',(3.46944695195362E-16,0.,-1.));
#843=DIRECTION('',(-1.,0.,-3.46944695195362E-16));
#844=DIRECTION('',(-3.46944695195362E-16,0.,1.));
#845=DIRECTION('',(-0.999841029505521,-0.0178301911750901,0.));
#846=DIRECTION('',(0.0178301911750901,-0.999841029505521,0.));
#847=DIRECTION('',(0.0178301911750901,-0.999841029505521,0.));
#848=DIRECTION('',(1.,7.2280144832367E-17,0.));
#849=DIRECTION('',(-7.2280144832367E-17,1.,0.));
#850=DIRECTION('',(-7.2280144832367E-17,1.,0.));
#851=DIRECTION('',(0.,0.,-1.));
#852=DIRECTION('',(-1.,0.,0.));
#853=DIRECTION('',(0.,0.,1.));
#854=DIRECTION('',(-1.,2.98858552326809E-16,0.));
#855=DIRECTION('',(-0.0178301911750904,-0.999841029505521,0.));
#856=DIRECTION('',(2.98858552326809E-16,1.,0.));
#857=DIRECTION('',(2.98858552326809E-16,1.,0.));
#858=DIRECTION('',(1.49429276163404E-16,1.,0.));
#859=DIRECTION('',(-0.573576436351046,1.71418223416644E-16,0.819152044288992));
#860=DIRECTION('',(-0.819152044288992,2.44810594091754E-16,-0.573576436351046));
#861=DIRECTION('',(3.58066980727747E-16,1.,4.14581878918865E-17));
#862=DIRECTION('',(4.43418841991543E-16,1.,1.01222204549026E-16));
#863=DIRECTION('',(1.,-4.43418841991543E-16,0.));
#864=DIRECTION('',(-4.43418841991543E-16,-1.,0.));
#865=DIRECTION('',(1.,-2.98858552326809E-16,-3.46944695195362E-16));
#866=DIRECTION('',(3.46944695195362E-16,-1.03687389343552E-31,1.));
#867=DIRECTION('',(1.,-2.98858552326809E-16,-3.46944695195362E-16));
#868=DIRECTION('',(3.46944695195362E-16,-1.03687389343552E-31,1.));
#869=DIRECTION('',(-1.,1.49429276163404E-16,3.46944695195362E-16));
#870=DIRECTION('',(-3.46944695195362E-16,1.03687389343552E-31,-1.));
#871=DIRECTION('',(0.,0.,-1.));
#872=DIRECTION('',(1.,-2.98858552326809E-16,0.));
#873=DIRECTION('',(3.71138697159176E-16,1.,0.));
#874=DIRECTION('',(-0.0178301911750904,-0.999841029505521,0.));
#875=DIRECTION('',(-1.,3.71138697159176E-16,0.));
#876=DIRECTION('',(3.71138697159176E-16,1.,0.));
#877=DIRECTION('',(0.999841029505521,-0.0178301911750904,0.));
#878=DIRECTION('',(-0.0178301911750904,-0.999841029505521,0.));
#879=CARTESIAN_POINT('',(0.,0.,0.));
#880=CARTESIAN_POINT('',(0.,0.,2.5));
#881=CARTESIAN_POINT('',(5.4,8.29703780720822,2.5));
#882=CARTESIAN_POINT('',(5.4,8.29703780720822,2.5));
#883=CARTESIAN_POINT('',(5.54821562232181,-0.0142617720174671,2.5));
#884=CARTESIAN_POINT('',(8.67361737988403E-16,8.29703780720822,2.5));
#885=CARTESIAN_POINT('',(4.4,8.29703780720822,2.5));
#886=CARTESIAN_POINT('',(4.4,4.06604818433673,2.5));
#887=CARTESIAN_POINT('',(4.4,3.03,2.5));
#888=CARTESIAN_POINT('',(0.,3.03,2.5));
#889=CARTESIAN_POINT('',(2.8,3.03,2.5));
#890=CARTESIAN_POINT('',(2.8,1.31565206304591,2.5));
#891=CARTESIAN_POINT('',(2.8,1.53,2.5));
#892=CARTESIAN_POINT('',(0.,1.53,2.5));
#893=CARTESIAN_POINT('',(4.4,1.53,2.5));
#894=CARTESIAN_POINT('',(4.4,0.00999999999999938,2.5));
#895=CARTESIAN_POINT('',(4.4,-0.0142617720174687,2.5));
#896=CARTESIAN_POINT('',(-11.6089933680723,-0.0142617720174654,2.5));
#897=CARTESIAN_POINT('',(0.,1.53,0.));
#898=CARTESIAN_POINT('',(0.,1.53,0.));
#899=CARTESIAN_POINT('',(2.8,1.53,3.59737104907306E-16));
#900=CARTESIAN_POINT('',(-2.8,1.53,3.59737104907306E-16));
#901=CARTESIAN_POINT('',(-2.8,1.53,9.71445146547012E-16));
#902=CARTESIAN_POINT('',(-2.8,1.53,2.5));
#903=CARTESIAN_POINT('',(4.57253585060018E-16,1.53,2.5));
#904=CARTESIAN_POINT('',(-4.4,1.53,2.5));
#905=CARTESIAN_POINT('',(-4.4,1.53,2.5));
#906=CARTESIAN_POINT('',(-4.4,1.53,-7.28670630177133E-16));
#907=CARTESIAN_POINT('',(0.,1.53,0.));
#908=CARTESIAN_POINT('',(4.4,1.53,-7.28670630177133E-16));
#909=CARTESIAN_POINT('',(4.4,1.53,2.5));
#910=CARTESIAN_POINT('',(2.8,1.53,9.71445146547012E-16));
#911=CARTESIAN_POINT('',(0.,3.03,0.));
#912=CARTESIAN_POINT('',(0.,3.03,0.));
#913=CARTESIAN_POINT('',(4.4,3.03,4.85722573273506E-16));
#914=CARTESIAN_POINT('',(-4.4,3.03,4.85722573273506E-16));
#915=CARTESIAN_POINT('',(-4.4,3.03,4.85722573273506E-16));
#916=CARTESIAN_POINT('',(-4.4,3.03,2.5));
#917=CARTESIAN_POINT('',(9.05541413550231E-16,3.03,2.5));
#918=CARTESIAN_POINT('',(-2.8,3.03,2.5));
#919=CARTESIAN_POINT('',(-2.8,3.03,1.92878978523479E-16));
#920=CARTESIAN_POINT('',(-2.8,3.03,3.59737104907306E-16));
#921=CARTESIAN_POINT('',(0.,3.03,0.));
#922=CARTESIAN_POINT('',(2.8,3.03,3.59737104907306E-16));
#923=CARTESIAN_POINT('',(2.8,3.03,1.92878978523479E-16));
#924=CARTESIAN_POINT('',(4.4,3.03,4.85722573273506E-16));
#925=CARTESIAN_POINT('',(0.,11.6,0.));
#926=CARTESIAN_POINT('',(0.,-0.0142617720174688,0.));
#927=CARTESIAN_POINT('',(4.4,-0.0142617720174679,-8.67361737988404E-16));
#928=CARTESIAN_POINT('',(-4.4,-0.0142617720174666,-8.67361737988404E-16));
#929=CARTESIAN_POINT('',(4.4,0.00999999999999938,-7.28670630177133E-16));
#930=CARTESIAN_POINT('',(-4.4,0.0100000000000007,-7.28670630177133E-16));
#931=CARTESIAN_POINT('',(0.,11.6,0.));
#932=CARTESIAN_POINT('',(0.,8.29703780720822,0.));
#933=CARTESIAN_POINT('',(4.4,8.29703780720822,5.20417042793045E-17));
#934=CARTESIAN_POINT('',(-4.4,8.29703780720823,5.20417042793045E-17));
#935=CARTESIAN_POINT('',(-4.4,4.06604818433673,4.85722573273506E-16));
#936=CARTESIAN_POINT('',(4.4,4.06604818433673,4.85722573273506E-16));
#937=CARTESIAN_POINT('',(0.,1.51,0.));
#938=CARTESIAN_POINT('',(-2.8,1.31565206304591,3.59737104907306E-16));
#939=CARTESIAN_POINT('',(2.8,1.31565206304591,3.59737104907306E-16));
#940=CARTESIAN_POINT('',(0.,0.,-7.5));
#941=CARTESIAN_POINT('',(11.6089933680723,-0.0142617720174671,-7.5));
#942=CARTESIAN_POINT('',(-11.6089933680723,-0.0142617720174636,-7.5));
#943=CARTESIAN_POINT('',(11.6089933680723,-0.0142617720174671,-7.5));
#944=CARTESIAN_POINT('',(-11.6089933680723,8.29703780720823,-7.5));
#945=CARTESIAN_POINT('',(-11.6089933680723,8.29703780720823,-7.5));
#946=CARTESIAN_POINT('',(8.67361737988403E-16,8.29703780720822,-7.5));
#947=CARTESIAN_POINT('',(11.6089933680723,8.29703780720822,-7.5));
#948=CARTESIAN_POINT('',(11.6089933680723,8.29703780720822,-7.5));
#949=CARTESIAN_POINT('',(11.6089933680723,-0.0142617720174671,7.5));
#950=CARTESIAN_POINT('',(4.4,-0.0142617720174679,7.5));
#951=CARTESIAN_POINT('',(-4.4,-0.0142617720174666,7.5));
#952=CARTESIAN_POINT('',(-4.4,-0.0142617720174673,2.5));
#953=CARTESIAN_POINT('',(11.6089933680723,-0.0142617720174688,2.5));
#954=CARTESIAN_POINT('',(-5.54821562232181,-0.0142617720174654,2.5));
#955=CARTESIAN_POINT('',(-5.54821562232181,-0.0142617720174661,7.5));
#956=CARTESIAN_POINT('',(-5.54821562232181,-0.0142617720174654,-4.5));
#957=CARTESIAN_POINT('',(-5.61399631320081,-0.0142617720174654,-4.5));
#958=CARTESIAN_POINT('',(-6.61399631320081,-0.014261772017466,-4.5));
#959=CARTESIAN_POINT('',(-6.61399631320081,-0.014261772017466,-4.5));
#960=CARTESIAN_POINT('',(-6.61399631320081,-0.014261772017466,2.5));
#961=CARTESIAN_POINT('',(8.31340293727126,-0.0142617720174679,12.9522774810465));
#962=CARTESIAN_POINT('',(-11.6089933680723,-0.0142617720174636,-0.99753459115632));
#963=CARTESIAN_POINT('',(-11.6089933680723,-0.0142617720174636,7.5));
#964=CARTESIAN_POINT('',(11.6089933680723,-0.0142617720174671,7.5));
#965=CARTESIAN_POINT('',(11.6089933680723,-0.0142617720174671,-0.99753459115632));
#966=CARTESIAN_POINT('',(-8.31340293727126,-0.0142617720174654,12.9522774810465));
#967=CARTESIAN_POINT('',(6.61399631320081,-0.014261772017468,2.5));
#968=CARTESIAN_POINT('',(6.61399631320081,-0.014261772017468,-4.5));
#969=CARTESIAN_POINT('',(6.61399631320081,-0.014261772017468,-4.5));
#970=CARTESIAN_POINT('',(5.61399631320081,-0.0142617720174671,-4.5));
#971=CARTESIAN_POINT('',(5.54821562232181,-0.0142617720174671,-4.5));
#972=CARTESIAN_POINT('',(5.54821562232181,-0.0142617720174678,7.5));
#973=CARTESIAN_POINT('',(1.19612771232251,0.,6.29363243536468));
#974=CARTESIAN_POINT('',(6.61399631320081,-3.70296219279178,2.5));
#975=CARTESIAN_POINT('',(6.61399631320081,8.29703780720822,2.5));
#976=CARTESIAN_POINT('',(11.6089933680723,8.29703780720822,-0.997534591156316));
#977=CARTESIAN_POINT('',(11.6089933680723,8.29703780720822,-0.997534591156316));
#978=CARTESIAN_POINT('',(1.19612771232251,8.29703780720822,6.29363243536468));
#979=CARTESIAN_POINT('',(8.67361737988403E-16,8.29703780720822,7.5));
#980=CARTESIAN_POINT('',(6.61399631320081,8.29703780720822,-4.5));
#981=CARTESIAN_POINT('',(6.61399631320081,8.29703780720822,-4.5));
#982=CARTESIAN_POINT('',(5.4,8.29703780720822,-4.5));
#983=CARTESIAN_POINT('',(6.61399631320081,8.29703780720822,-4.5));
#984=CARTESIAN_POINT('',(11.6089933680723,8.29703780720822,7.5));
#985=CARTESIAN_POINT('',(-11.6089933680723,8.29703780720823,7.5));
#986=CARTESIAN_POINT('',(-11.6089933680723,8.29703780720823,-0.997534591156316));
#987=CARTESIAN_POINT('',(-1.19612771232251,8.29703780720822,6.29363243536468));
#988=CARTESIAN_POINT('',(-6.6139963132008,8.29703780720823,2.5));
#989=CARTESIAN_POINT('',(-6.6139963132008,8.29703780720823,-4.5));
#990=CARTESIAN_POINT('',(-6.61399631320081,8.29703780720822,-4.5));
#991=CARTESIAN_POINT('',(-6.6139963132008,8.29703780720823,-4.5));
#992=CARTESIAN_POINT('',(-5.4,8.29703780720823,-4.5));
#993=CARTESIAN_POINT('',(-5.4,8.29703780720823,-4.5));
#994=CARTESIAN_POINT('',(-5.4,8.29703780720823,2.5));
#995=CARTESIAN_POINT('',(1.61227896967465E-15,8.29703780720822,2.5));
#996=CARTESIAN_POINT('',(-4.4,8.29703780720823,2.5));
#997=CARTESIAN_POINT('',(-4.4,8.29703780720823,4.85722573273506E-16));
#998=CARTESIAN_POINT('',(4.4,8.29703780720822,4.85722573273506E-16));
#999=CARTESIAN_POINT('',(5.4,8.29703780720822,-4.5));
#1000=CARTESIAN_POINT('',(11.6089933680723,8.29703780720822,7.5));
#1001=CARTESIAN_POINT('',(2.8,1.31565206304591,1.92878978523479E-16));
#1002=CARTESIAN_POINT('',(4.4,4.06604818433673,4.85722573273506E-16));
#1003=CARTESIAN_POINT('',(4.4,0.00999999999999938,2.5));
#1004=CARTESIAN_POINT('',(5.4,8.29703780720822,-4.5));
#1005=CARTESIAN_POINT('',(5.4,8.29703780720822,-4.5));
#1006=CARTESIAN_POINT('',(6.61399631320081,-3.70296219279178,-4.5));
#1007=CARTESIAN_POINT('',(6.61399631320081,-3.70296219279178,-4.5));
#1008=CARTESIAN_POINT('',(0.,0.,-4.5));
#1009=CARTESIAN_POINT('',(0.,0.,2.5));
#1010=CARTESIAN_POINT('',(-5.4,8.29703780720823,2.5));
#1011=CARTESIAN_POINT('',(-4.4,0.0100000000000007,2.5));
#1012=CARTESIAN_POINT('',(-2.8,1.31565206304591,2.5));
#1013=CARTESIAN_POINT('',(-4.4,4.06604818433673,2.5));
#1014=CARTESIAN_POINT('',(-1.19612771232251,3.57472996502684E-16,6.29363243536468));
#1015=CARTESIAN_POINT('',(-6.61399631320081,-3.70296219279177,2.5));
#1016=CARTESIAN_POINT('',(-11.6089933680723,8.29703780720823,-0.997534591156316));
#1017=CARTESIAN_POINT('',(-11.6089933680723,8.29703780720823,7.5));
#1018=CARTESIAN_POINT('',(-2.8,1.31565206304591,1.92878978523479E-16));
#1019=CARTESIAN_POINT('',(-4.4,0.0100000000000007,2.5));
#1020=CARTESIAN_POINT('',(-4.4,4.06604818433673,4.85722573273506E-16));
#1021=CARTESIAN_POINT('',(0.,0.,-4.5));
#1022=CARTESIAN_POINT('',(-6.61399631320081,-3.70296219279177,-4.5));
#1023=CARTESIAN_POINT('',(-5.4,8.29703780720823,-4.5));
#1024=CARTESIAN_POINT('',(-6.61399631320081,-3.70296219279177,-4.5));
#1025=CARTESIAN_POINT('',(-5.4,8.29703780720823,-4.5));
#1026=MECHANICAL_DESIGN_GEOMETRIC_PRESENTATION_REPRESENTATION('',(#500,
#501,#502,#503,#504,#505,#506,#507,#508,#509,#510,#511,#512,#513,#514,#515,
#516,#517,#518,#519,#520,#521,#522,#523,#524,#525),#1027);
#1027=(
GEOMETRIC_REPRESENTATION_CONTEXT(3)
GLOBAL_UNCERTAINTY_ASSIGNED_CONTEXT((#1028))
GLOBAL_UNIT_ASSIGNED_CONTEXT((#1031,#1030,#1029))
REPRESENTATION_CONTEXT('IsolatePlugGrip01','TOP_LEVEL_ASSEMBLY_PART')
);
#1028=UNCERTAINTY_MEASURE_WITH_UNIT(LENGTH_MEASURE(0.005),#1031,
'DISTANCE_ACCURACY_VALUE','Maximum Tolerance applied to model');
#1029=(
NAMED_UNIT(*)
SI_UNIT($,.STERADIAN.)
SOLID_ANGLE_UNIT()
);
#1030=(
NAMED_UNIT(*)
PLANE_ANGLE_UNIT()
SI_UNIT($,.RADIAN.)
);
#1031=(
LENGTH_UNIT()
NAMED_UNIT(*)
SI_UNIT(.MILLI.,.METRE.)
);
#1032=PRODUCT_DEFINITION_SHAPE('','',#1033);
#1033=PRODUCT_DEFINITION('','',#1035,#1034);
#1034=PRODUCT_DEFINITION_CONTEXT('',#1041,'design');
#1035=PRODUCT_DEFINITION_FORMATION_WITH_SPECIFIED_SOURCE('','',#1037,
 .NOT_KNOWN.);
#1036=PRODUCT_RELATED_PRODUCT_CATEGORY('','',(#1037));
#1037=PRODUCT('IsolatePlugGrip01','IsolatePlugGrip01',
'IsolatePlugGrip01',(#1039));
#1038=PRODUCT_CATEGORY('','');
#1039=PRODUCT_CONTEXT('',#1041,'mechanical');
#1040=APPLICATION_PROTOCOL_DEFINITION('international standard',
'automotive_design',2010,#1041);
#1041=APPLICATION_CONTEXT(
'core data for automotive mechanical design processes');
ENDSEC;
END-ISO-10303-21;
