ISO-10303-21;
HEADER;
/* Generated by software containing ST-Developer
 * from STEP Tools, Inc. (www.steptools.com) 
 */
/* OPTION: strings as raw bytes, not using required /X/ escapes */

FILE_DESCRIPTION(
/* description */ ('Unknown'),
/* implementation_level */ '2;1');

FILE_NAME(
/* name */ 'MicBoomClip1',
/* time_stamp */ '2023-04-29T16:50:49+01:00',
/* author */ ('Unknown'),
/* organization */ ('Unknown'),
/* preprocessor_version */ 'ST-DEVELOPER v18.102',
/* originating_system */ 'Solid Edge',
/* authorisation */ 'Unknown');

FILE_SCHEMA (('AUTOMOTIVE_DESIGN {1 0 10303 214 3 1 1}'));
ENDSEC;

DATA;
#10=PROPERTY_DEFINITION_REPRESENTATION(#14,#12);
#11=PROPERTY_DEFINITION_REPRESENTATION(#15,#13);
#12=REPRESENTATION('',(#16),#740);
#13=REPRESENTATION('',(#17),#740);
#14=PROPERTY_DEFINITION('pmi validation property','',#745);
#15=PROPERTY_DEFINITION('pmi validation property','',#745);
#16=VALUE_REPRESENTATION_ITEM('number of annotations',COUNT_MEASURE(0.));
#17=VALUE_REPRESENTATION_ITEM('number of views',COUNT_MEASURE(0.));
#18=SHAPE_REPRESENTATION_RELATIONSHIP('','',#451,#19);
#19=ADVANCED_BREP_SHAPE_REPRESENTATION('',(#449),#740);
#20=B_SPLINE_CURVE_WITH_KNOTS('',3,(#710,#711,#712,#713,#714,#715,#716),
 .UNSPECIFIED.,.F.,.F.,(4,1,1,1,4),(0.,9.28158596036531E-5,0.000185631719207306,
0.000278447578810959,0.000371263438414612),.UNSPECIFIED.);
#21=CIRCLE('',#457,11.25);
#22=CIRCLE('',#458,11.25);
#23=CIRCLE('',#460,6.25);
#24=CIRCLE('',#461,0.999999999999998);
#25=CIRCLE('',#462,0.999999999999998);
#26=CIRCLE('',#463,11.25);
#27=CIRCLE('',#466,11.25);
#28=CIRCLE('',#470,6.25);
#29=CIRCLE('',#473,11.25);
#30=CIRCLE('',#474,0.999999999999998);
#31=CIRCLE('',#475,0.999999999999998);
#32=CYLINDRICAL_SURFACE('',#456,11.25);
#33=CYLINDRICAL_SURFACE('',#465,11.25);
#34=CYLINDRICAL_SURFACE('',#469,6.25);
#35=CYLINDRICAL_SURFACE('',#480,11.25);
#36=CYLINDRICAL_SURFACE('',#486,0.999999999999998);
#37=CYLINDRICAL_SURFACE('',#487,0.999999999999998);
#38=CYLINDRICAL_SURFACE('',#488,0.999999999999998);
#39=CYLINDRICAL_SURFACE('',#489,0.999999999999998);
#40=ELLIPSE('',#454,1.02234059486503,0.999999999999998);
#41=ELLIPSE('',#455,1.02234059486503,0.999999999999998);
#42=ELLIPSE('',#478,1.02234059486503,0.999999999999998);
#43=ELLIPSE('',#479,1.02234059486503,0.999999999999998);
#44=ORIENTED_EDGE('',*,*,#164,.F.);
#45=ORIENTED_EDGE('',*,*,#165,.F.);
#46=ORIENTED_EDGE('',*,*,#166,.T.);
#47=ORIENTED_EDGE('',*,*,#167,.T.);
#48=ORIENTED_EDGE('',*,*,#168,.T.);
#49=ORIENTED_EDGE('',*,*,#169,.T.);
#50=ORIENTED_EDGE('',*,*,#170,.T.);
#51=ORIENTED_EDGE('',*,*,#171,.T.);
#52=ORIENTED_EDGE('',*,*,#172,.F.);
#53=ORIENTED_EDGE('',*,*,#173,.T.);
#54=ORIENTED_EDGE('',*,*,#174,.F.);
#55=ORIENTED_EDGE('',*,*,#172,.T.);
#56=ORIENTED_EDGE('',*,*,#175,.T.);
#57=ORIENTED_EDGE('',*,*,#176,.T.);
#58=ORIENTED_EDGE('',*,*,#177,.T.);
#59=ORIENTED_EDGE('',*,*,#178,.T.);
#60=ORIENTED_EDGE('',*,*,#179,.T.);
#61=ORIENTED_EDGE('',*,*,#180,.T.);
#62=ORIENTED_EDGE('',*,*,#181,.T.);
#63=ORIENTED_EDGE('',*,*,#182,.T.);
#64=ORIENTED_EDGE('',*,*,#183,.T.);
#65=ORIENTED_EDGE('',*,*,#178,.F.);
#66=ORIENTED_EDGE('',*,*,#184,.T.);
#67=ORIENTED_EDGE('',*,*,#166,.F.);
#68=ORIENTED_EDGE('',*,*,#180,.F.);
#69=ORIENTED_EDGE('',*,*,#185,.T.);
#70=ORIENTED_EDGE('',*,*,#186,.T.);
#71=ORIENTED_EDGE('',*,*,#187,.F.);
#72=ORIENTED_EDGE('',*,*,#187,.T.);
#73=ORIENTED_EDGE('',*,*,#188,.T.);
#74=ORIENTED_EDGE('',*,*,#173,.F.);
#75=ORIENTED_EDGE('',*,*,#181,.F.);
#76=ORIENTED_EDGE('',*,*,#189,.T.);
#77=ORIENTED_EDGE('',*,*,#190,.T.);
#78=ORIENTED_EDGE('',*,*,#191,.F.);
#79=ORIENTED_EDGE('',*,*,#192,.T.);
#80=ORIENTED_EDGE('',*,*,#193,.T.);
#81=ORIENTED_EDGE('',*,*,#194,.T.);
#82=ORIENTED_EDGE('',*,*,#184,.F.);
#83=ORIENTED_EDGE('',*,*,#177,.F.);
#84=ORIENTED_EDGE('',*,*,#174,.T.);
#85=ORIENTED_EDGE('',*,*,#195,.F.);
#86=ORIENTED_EDGE('',*,*,#176,.F.);
#87=ORIENTED_EDGE('',*,*,#196,.T.);
#88=ORIENTED_EDGE('',*,*,#197,.T.);
#89=ORIENTED_EDGE('',*,*,#198,.T.);
#90=ORIENTED_EDGE('',*,*,#189,.F.);
#91=ORIENTED_EDGE('',*,*,#192,.F.);
#92=ORIENTED_EDGE('',*,*,#199,.T.);
#93=ORIENTED_EDGE('',*,*,#195,.T.);
#94=ORIENTED_EDGE('',*,*,#170,.F.);
#95=ORIENTED_EDGE('',*,*,#188,.F.);
#96=ORIENTED_EDGE('',*,*,#186,.F.);
#97=ORIENTED_EDGE('',*,*,#200,.T.);
#98=ORIENTED_EDGE('',*,*,#182,.F.);
#99=ORIENTED_EDGE('',*,*,#165,.T.);
#100=ORIENTED_EDGE('',*,*,#201,.F.);
#101=ORIENTED_EDGE('',*,*,#202,.F.);
#102=ORIENTED_EDGE('',*,*,#203,.T.);
#103=ORIENTED_EDGE('',*,*,#204,.F.);
#104=ORIENTED_EDGE('',*,*,#205,.F.);
#105=ORIENTED_EDGE('',*,*,#206,.T.);
#106=ORIENTED_EDGE('',*,*,#197,.F.);
#107=ORIENTED_EDGE('',*,*,#207,.T.);
#108=ORIENTED_EDGE('',*,*,#168,.F.);
#109=ORIENTED_EDGE('',*,*,#208,.T.);
#110=ORIENTED_EDGE('',*,*,#209,.F.);
#111=ORIENTED_EDGE('',*,*,#210,.T.);
#112=ORIENTED_EDGE('',*,*,#206,.F.);
#113=ORIENTED_EDGE('',*,*,#211,.T.);
#114=ORIENTED_EDGE('',*,*,#212,.T.);
#115=ORIENTED_EDGE('',*,*,#209,.T.);
#116=ORIENTED_EDGE('',*,*,#213,.T.);
#117=ORIENTED_EDGE('',*,*,#198,.F.);
#118=ORIENTED_EDGE('',*,*,#191,.T.);
#119=ORIENTED_EDGE('',*,*,#214,.T.);
#120=ORIENTED_EDGE('',*,*,#193,.F.);
#121=ORIENTED_EDGE('',*,*,#199,.F.);
#122=ORIENTED_EDGE('',*,*,#215,.T.);
#123=ORIENTED_EDGE('',*,*,#216,.T.);
#124=ORIENTED_EDGE('',*,*,#217,.T.);
#125=ORIENTED_EDGE('',*,*,#218,.T.);
#126=ORIENTED_EDGE('',*,*,#219,.T.);
#127=ORIENTED_EDGE('',*,*,#202,.T.);
#128=ORIENTED_EDGE('',*,*,#220,.F.);
#129=ORIENTED_EDGE('',*,*,#215,.F.);
#130=ORIENTED_EDGE('',*,*,#221,.T.);
#131=ORIENTED_EDGE('',*,*,#211,.F.);
#132=ORIENTED_EDGE('',*,*,#205,.T.);
#133=ORIENTED_EDGE('',*,*,#222,.F.);
#134=ORIENTED_EDGE('',*,*,#216,.F.);
#135=ORIENTED_EDGE('',*,*,#220,.T.);
#136=ORIENTED_EDGE('',*,*,#201,.T.);
#137=ORIENTED_EDGE('',*,*,#164,.T.);
#138=ORIENTED_EDGE('',*,*,#223,.T.);
#139=ORIENTED_EDGE('',*,*,#203,.F.);
#140=ORIENTED_EDGE('',*,*,#219,.F.);
#141=ORIENTED_EDGE('',*,*,#218,.F.);
#142=ORIENTED_EDGE('',*,*,#222,.T.);
#143=ORIENTED_EDGE('',*,*,#204,.T.);
#144=ORIENTED_EDGE('',*,*,#223,.F.);
#145=ORIENTED_EDGE('',*,*,#217,.F.);
#146=ORIENTED_EDGE('',*,*,#169,.F.);
#147=ORIENTED_EDGE('',*,*,#210,.F.);
#148=ORIENTED_EDGE('',*,*,#212,.F.);
#149=ORIENTED_EDGE('',*,*,#221,.F.);
#150=ORIENTED_EDGE('',*,*,#179,.F.);
#151=ORIENTED_EDGE('',*,*,#183,.F.);
#152=ORIENTED_EDGE('',*,*,#200,.F.);
#153=ORIENTED_EDGE('',*,*,#185,.F.);
#154=ORIENTED_EDGE('',*,*,#175,.F.);
#155=ORIENTED_EDGE('',*,*,#171,.F.);
#156=ORIENTED_EDGE('',*,*,#207,.F.);
#157=ORIENTED_EDGE('',*,*,#196,.F.);
#158=ORIENTED_EDGE('',*,*,#213,.F.);
#159=ORIENTED_EDGE('',*,*,#208,.F.);
#160=ORIENTED_EDGE('',*,*,#167,.F.);
#161=ORIENTED_EDGE('',*,*,#194,.F.);
#162=ORIENTED_EDGE('',*,*,#214,.F.);
#163=ORIENTED_EDGE('',*,*,#190,.F.);
#164=EDGE_CURVE('',#224,#225,#264,.T.);
#165=EDGE_CURVE('',#226,#224,#265,.T.);
#166=EDGE_CURVE('',#226,#227,#266,.T.);
#167=EDGE_CURVE('',#227,#228,#40,.T.);
#168=EDGE_CURVE('',#228,#229,#267,.T.);
#169=EDGE_CURVE('',#229,#225,#41,.T.);
#170=EDGE_CURVE('',#230,#231,#21,.T.);
#171=EDGE_CURVE('',#231,#232,#268,.F.);
#172=EDGE_CURVE('',#233,#232,#22,.T.);
#173=EDGE_CURVE('',#233,#230,#269,.T.);
#174=EDGE_CURVE('',#234,#234,#23,.T.);
#175=EDGE_CURVE('',#232,#235,#24,.F.);
#176=EDGE_CURVE('',#235,#236,#270,.T.);
#177=EDGE_CURVE('',#236,#237,#271,.T.);
#178=EDGE_CURVE('',#237,#238,#272,.T.);
#179=EDGE_CURVE('',#238,#239,#25,.F.);
#180=EDGE_CURVE('',#239,#240,#26,.T.);
#181=EDGE_CURVE('',#240,#233,#273,.T.);
#182=EDGE_CURVE('',#226,#241,#274,.T.);
#183=EDGE_CURVE('',#241,#238,#275,.T.);
#184=EDGE_CURVE('',#237,#227,#276,.T.);
#185=EDGE_CURVE('',#239,#242,#277,.T.);
#186=EDGE_CURVE('',#242,#243,#27,.T.);
#187=EDGE_CURVE('',#240,#243,#278,.T.);
#188=EDGE_CURVE('',#243,#230,#279,.T.);
#189=EDGE_CURVE('',#236,#244,#280,.T.);
#190=EDGE_CURVE('',#244,#245,#281,.T.);
#191=EDGE_CURVE('',#246,#245,#282,.T.);
#192=EDGE_CURVE('',#246,#247,#283,.T.);
#193=EDGE_CURVE('',#247,#248,#284,.T.);
#194=EDGE_CURVE('',#248,#227,#285,.T.);
#195=EDGE_CURVE('',#249,#249,#28,.T.);
#196=EDGE_CURVE('',#235,#250,#286,.F.);
#197=EDGE_CURVE('',#250,#251,#287,.T.);
#198=EDGE_CURVE('',#251,#244,#288,.T.);
#199=EDGE_CURVE('',#246,#247,#29,.T.);
#200=EDGE_CURVE('',#242,#241,#30,.T.);
#201=EDGE_CURVE('',#252,#224,#289,.T.);
#202=EDGE_CURVE('',#253,#252,#290,.T.);
#203=EDGE_CURVE('',#253,#254,#291,.T.);
#204=EDGE_CURVE('',#255,#254,#292,.T.);
#205=EDGE_CURVE('',#256,#255,#293,.T.);
#206=EDGE_CURVE('',#256,#251,#294,.T.);
#207=EDGE_CURVE('',#250,#231,#31,.T.);
#208=EDGE_CURVE('',#228,#257,#295,.F.);
#209=EDGE_CURVE('',#258,#257,#296,.T.);
#210=EDGE_CURVE('',#258,#229,#297,.F.);
#211=EDGE_CURVE('',#256,#259,#298,.T.);
#212=EDGE_CURVE('',#259,#258,#42,.T.);
#213=EDGE_CURVE('',#257,#244,#43,.T.);
#214=EDGE_CURVE('',#245,#248,#20,.T.);
#215=EDGE_CURVE('',#260,#261,#299,.T.);
#216=EDGE_CURVE('',#261,#262,#300,.T.);
#217=EDGE_CURVE('',#262,#263,#301,.T.);
#218=EDGE_CURVE('',#263,#260,#302,.T.);
#219=EDGE_CURVE('',#260,#253,#303,.T.);
#220=EDGE_CURVE('',#261,#252,#304,.T.);
#221=EDGE_CURVE('',#225,#259,#305,.T.);
#222=EDGE_CURVE('',#262,#255,#306,.T.);
#223=EDGE_CURVE('',#263,#254,#307,.T.);
#224=VERTEX_POINT('',#613);
#225=VERTEX_POINT('',#614);
#226=VERTEX_POINT('',#616);
#227=VERTEX_POINT('',#618);
#228=VERTEX_POINT('',#620);
#229=VERTEX_POINT('',#622);
#230=VERTEX_POINT('',#626);
#231=VERTEX_POINT('',#627);
#232=VERTEX_POINT('',#629);
#233=VERTEX_POINT('',#631);
#234=VERTEX_POINT('',#635);
#235=VERTEX_POINT('',#637);
#236=VERTEX_POINT('',#639);
#237=VERTEX_POINT('',#641);
#238=VERTEX_POINT('',#643);
#239=VERTEX_POINT('',#645);
#240=VERTEX_POINT('',#647);
#241=VERTEX_POINT('',#651);
#242=VERTEX_POINT('',#656);
#243=VERTEX_POINT('',#658);
#244=VERTEX_POINT('',#664);
#245=VERTEX_POINT('',#666);
#246=VERTEX_POINT('',#668);
#247=VERTEX_POINT('',#670);
#248=VERTEX_POINT('',#672);
#249=VERTEX_POINT('',#676);
#250=VERTEX_POINT('',#679);
#251=VERTEX_POINT('',#681);
#252=VERTEX_POINT('',#687);
#253=VERTEX_POINT('',#689);
#254=VERTEX_POINT('',#691);
#255=VERTEX_POINT('',#693);
#256=VERTEX_POINT('',#695);
#257=VERTEX_POINT('',#700);
#258=VERTEX_POINT('',#702);
#259=VERTEX_POINT('',#706);
#260=VERTEX_POINT('',#719);
#261=VERTEX_POINT('',#720);
#262=VERTEX_POINT('',#722);
#263=VERTEX_POINT('',#724);
#264=LINE('',#612,#308);
#265=LINE('',#615,#309);
#266=LINE('',#617,#310);
#267=LINE('',#621,#311);
#268=LINE('',#628,#312);
#269=LINE('',#632,#313);
#270=LINE('',#638,#314);
#271=LINE('',#640,#315);
#272=LINE('',#642,#316);
#273=LINE('',#648,#317);
#274=LINE('',#650,#318);
#275=LINE('',#652,#319);
#276=LINE('',#653,#320);
#277=LINE('',#655,#321);
#278=LINE('',#659,#322);
#279=LINE('',#661,#323);
#280=LINE('',#663,#324);
#281=LINE('',#665,#325);
#282=LINE('',#667,#326);
#283=LINE('',#669,#327);
#284=LINE('',#671,#328);
#285=LINE('',#673,#329);
#286=LINE('',#678,#330);
#287=LINE('',#680,#331);
#288=LINE('',#682,#332);
#289=LINE('',#686,#333);
#290=LINE('',#688,#334);
#291=LINE('',#690,#335);
#292=LINE('',#692,#336);
#293=LINE('',#694,#337);
#294=LINE('',#696,#338);
#295=LINE('',#699,#339);
#296=LINE('',#701,#340);
#297=LINE('',#703,#341);
#298=LINE('',#705,#342);
#299=LINE('',#718,#343);
#300=LINE('',#721,#344);
#301=LINE('',#723,#345);
#302=LINE('',#725,#346);
#303=LINE('',#727,#347);
#304=LINE('',#728,#348);
#305=LINE('',#730,#349);
#306=LINE('',#731,#350);
#307=LINE('',#733,#351);
#308=VECTOR('',#494,1000.);
#309=VECTOR('',#495,1000.);
#310=VECTOR('',#496,1000.);
#311=VECTOR('',#499,1000.);
#312=VECTOR('',#506,1000.);
#313=VECTOR('',#509,1000.);
#314=VECTOR('',#516,1000.);
#315=VECTOR('',#517,1000.);
#316=VECTOR('',#518,1000.);
#317=VECTOR('',#523,1000.);
#318=VECTOR('',#526,1000.);
#319=VECTOR('',#527,1000.);
#320=VECTOR('',#528,1000.);
#321=VECTOR('',#531,1000.);
#322=VECTOR('',#534,1000.);
#323=VECTOR('',#537,1000.);
#324=VECTOR('',#540,1000.);
#325=VECTOR('',#541,1000.);
#326=VECTOR('',#542,1000.);
#327=VECTOR('',#543,1000.);
#328=VECTOR('',#544,1000.);
#329=VECTOR('',#545,1000.);
#330=VECTOR('',#552,1000.);
#331=VECTOR('',#553,1000.);
#332=VECTOR('',#554,1000.);
#333=VECTOR('',#561,1000.);
#334=VECTOR('',#562,1000.);
#335=VECTOR('',#563,1000.);
#336=VECTOR('',#564,1000.);
#337=VECTOR('',#565,1000.);
#338=VECTOR('',#566,1000.);
#339=VECTOR('',#571,1000.);
#340=VECTOR('',#572,1000.);
#341=VECTOR('',#573,1000.);
#342=VECTOR('',#576,1000.);
#343=VECTOR('',#585,1000.);
#344=VECTOR('',#586,1000.);
#345=VECTOR('',#587,1000.);
#346=VECTOR('',#588,1000.);
#347=VECTOR('',#591,1000.);
#348=VECTOR('',#592,1000.);
#349=VECTOR('',#595,1000.);
#350=VECTOR('',#596,1000.);
#351=VECTOR('',#599,1000.);
#352=EDGE_LOOP('',(#44,#45,#46,#47,#48,#49));
#353=EDGE_LOOP('',(#50,#51,#52,#53));
#354=EDGE_LOOP('',(#54));
#355=EDGE_LOOP('',(#55,#56,#57,#58,#59,#60,#61,#62));
#356=EDGE_LOOP('',(#63,#64,#65,#66,#67));
#357=EDGE_LOOP('',(#68,#69,#70,#71));
#358=EDGE_LOOP('',(#72,#73,#74,#75));
#359=EDGE_LOOP('',(#76,#77,#78,#79,#80,#81,#82,#83));
#360=EDGE_LOOP('',(#84));
#361=EDGE_LOOP('',(#85));
#362=EDGE_LOOP('',(#86,#87,#88,#89,#90));
#363=EDGE_LOOP('',(#91,#92));
#364=EDGE_LOOP('',(#93));
#365=EDGE_LOOP('',(#94,#95,#96,#97,#98,#99,#100,#101,#102,#103,#104,#105,
#106,#107));
#366=EDGE_LOOP('',(#108,#109,#110,#111));
#367=EDGE_LOOP('',(#112,#113,#114,#115,#116,#117));
#368=EDGE_LOOP('',(#118,#119,#120,#121));
#369=EDGE_LOOP('',(#122,#123,#124,#125));
#370=EDGE_LOOP('',(#126,#127,#128,#129));
#371=EDGE_LOOP('',(#130,#131,#132,#133,#134,#135,#136,#137));
#372=EDGE_LOOP('',(#138,#139,#140,#141));
#373=EDGE_LOOP('',(#142,#143,#144,#145));
#374=EDGE_LOOP('',(#146,#147,#148,#149));
#375=EDGE_LOOP('',(#150,#151,#152,#153));
#376=EDGE_LOOP('',(#154,#155,#156,#157));
#377=EDGE_LOOP('',(#158,#159,#160,#161,#162,#163));
#378=FACE_BOUND('',#352,.T.);
#379=FACE_BOUND('',#353,.T.);
#380=FACE_BOUND('',#354,.T.);
#381=FACE_BOUND('',#355,.T.);
#382=FACE_BOUND('',#356,.T.);
#383=FACE_BOUND('',#357,.T.);
#384=FACE_BOUND('',#358,.T.);
#385=FACE_BOUND('',#359,.T.);
#386=FACE_BOUND('',#360,.T.);
#387=FACE_BOUND('',#361,.T.);
#388=FACE_BOUND('',#362,.T.);
#389=FACE_BOUND('',#363,.T.);
#390=FACE_BOUND('',#364,.T.);
#391=FACE_BOUND('',#365,.T.);
#392=FACE_BOUND('',#366,.T.);
#393=FACE_BOUND('',#367,.T.);
#394=FACE_BOUND('',#368,.T.);
#395=FACE_BOUND('',#369,.T.);
#396=FACE_BOUND('',#370,.T.);
#397=FACE_BOUND('',#371,.T.);
#398=FACE_BOUND('',#372,.T.);
#399=FACE_BOUND('',#373,.T.);
#400=FACE_BOUND('',#374,.T.);
#401=FACE_BOUND('',#375,.T.);
#402=FACE_BOUND('',#376,.T.);
#403=FACE_BOUND('',#377,.T.);
#404=PLANE('',#453);
#405=PLANE('',#459);
#406=PLANE('',#464);
#407=PLANE('',#467);
#408=PLANE('',#468);
#409=PLANE('',#471);
#410=PLANE('',#472);
#411=PLANE('',#476);
#412=PLANE('',#477);
#413=PLANE('',#481);
#414=PLANE('',#482);
#415=PLANE('',#483);
#416=PLANE('',#484);
#417=PLANE('',#485);
#418=ADVANCED_FACE('',(#378),#404,.F.);
#419=ADVANCED_FACE('',(#379),#32,.T.);
#420=ADVANCED_FACE('',(#380,#381),#405,.T.);
#421=ADVANCED_FACE('',(#382),#406,.F.);
#422=ADVANCED_FACE('',(#383),#33,.T.);
#423=ADVANCED_FACE('',(#384),#407,.F.);
#424=ADVANCED_FACE('',(#385),#408,.F.);
#425=ADVANCED_FACE('',(#386,#387),#34,.F.);
#426=ADVANCED_FACE('',(#388),#409,.F.);
#427=ADVANCED_FACE('',(#389,#390,#391),#410,.F.);
#428=ADVANCED_FACE('',(#392),#411,.T.);
#429=ADVANCED_FACE('',(#393),#412,.F.);
#430=ADVANCED_FACE('',(#394),#35,.F.);
#431=ADVANCED_FACE('',(#395),#413,.T.);
#432=ADVANCED_FACE('',(#396),#414,.F.);
#433=ADVANCED_FACE('',(#397),#415,.F.);
#434=ADVANCED_FACE('',(#398),#416,.F.);
#435=ADVANCED_FACE('',(#399),#417,.F.);
#436=ADVANCED_FACE('',(#400),#36,.F.);
#437=ADVANCED_FACE('',(#401),#37,.F.);
#438=ADVANCED_FACE('',(#402),#38,.F.);
#439=ADVANCED_FACE('',(#403),#39,.F.);
#440=CLOSED_SHELL('',(#418,#419,#420,#421,#422,#423,#424,#425,#426,#427,
#428,#429,#430,#431,#432,#433,#434,#435,#436,#437,#438,#439));
#441=STYLED_ITEM('',(#442),#449);
#442=PRESENTATION_STYLE_ASSIGNMENT((#443));
#443=SURFACE_STYLE_USAGE(.BOTH.,#444);
#444=SURFACE_SIDE_STYLE('',(#445));
#445=SURFACE_STYLE_FILL_AREA(#446);
#446=FILL_AREA_STYLE('',(#447));
#447=FILL_AREA_STYLE_COLOUR('',#448);
#448=COLOUR_RGB('',0.506983280181885,0.531564235687256,0.550000011920929);
#449=MANIFOLD_SOLID_BREP('',#440);
#450=SHAPE_DEFINITION_REPRESENTATION(#745,#451);
#451=SHAPE_REPRESENTATION('MicBoomClip1',(#452),#740);
#452=AXIS2_PLACEMENT_3D('',#610,#490,#491);
#453=AXIS2_PLACEMENT_3D('',#611,#492,#493);
#454=AXIS2_PLACEMENT_3D('',#619,#497,#498);
#455=AXIS2_PLACEMENT_3D('',#623,#500,#501);
#456=AXIS2_PLACEMENT_3D('',#624,#502,#503);
#457=AXIS2_PLACEMENT_3D('',#625,#504,#505);
#458=AXIS2_PLACEMENT_3D('',#630,#507,#508);
#459=AXIS2_PLACEMENT_3D('',#633,#510,#511);
#460=AXIS2_PLACEMENT_3D('',#634,#512,#513);
#461=AXIS2_PLACEMENT_3D('',#636,#514,#515);
#462=AXIS2_PLACEMENT_3D('',#644,#519,#520);
#463=AXIS2_PLACEMENT_3D('',#646,#521,#522);
#464=AXIS2_PLACEMENT_3D('',#649,#524,#525);
#465=AXIS2_PLACEMENT_3D('',#654,#529,#530);
#466=AXIS2_PLACEMENT_3D('',#657,#532,#533);
#467=AXIS2_PLACEMENT_3D('',#660,#535,#536);
#468=AXIS2_PLACEMENT_3D('',#662,#538,#539);
#469=AXIS2_PLACEMENT_3D('',#674,#546,#547);
#470=AXIS2_PLACEMENT_3D('',#675,#548,#549);
#471=AXIS2_PLACEMENT_3D('',#677,#550,#551);
#472=AXIS2_PLACEMENT_3D('',#683,#555,#556);
#473=AXIS2_PLACEMENT_3D('',#684,#557,#558);
#474=AXIS2_PLACEMENT_3D('',#685,#559,#560);
#475=AXIS2_PLACEMENT_3D('',#697,#567,#568);
#476=AXIS2_PLACEMENT_3D('',#698,#569,#570);
#477=AXIS2_PLACEMENT_3D('',#704,#574,#575);
#478=AXIS2_PLACEMENT_3D('',#707,#577,#578);
#479=AXIS2_PLACEMENT_3D('',#708,#579,#580);
#480=AXIS2_PLACEMENT_3D('',#709,#581,#582);
#481=AXIS2_PLACEMENT_3D('',#717,#583,#584);
#482=AXIS2_PLACEMENT_3D('',#726,#589,#590);
#483=AXIS2_PLACEMENT_3D('',#729,#593,#594);
#484=AXIS2_PLACEMENT_3D('',#732,#597,#598);
#485=AXIS2_PLACEMENT_3D('',#734,#600,#601);
#486=AXIS2_PLACEMENT_3D('',#735,#602,#603);
#487=AXIS2_PLACEMENT_3D('',#736,#604,#605);
#488=AXIS2_PLACEMENT_3D('',#737,#606,#607);
#489=AXIS2_PLACEMENT_3D('',#738,#608,#609);
#490=DIRECTION('',(0.,0.,1.));
#491=DIRECTION('',(1.,0.,0.));
#492=DIRECTION('',(0.978147600733806,-0.20791169081776,0.));
#493=DIRECTION('',(0.20791169081776,0.978147600733806,0.));
#494=DIRECTION('',(0.,0.,-1.));
#495=DIRECTION('',(-0.20791169081776,-0.978147600733806,0.));
#496=DIRECTION('',(0.,0.,-1.));
#497=DIRECTION('',(0.978147600733806,-0.20791169081776,0.));
#498=DIRECTION('',(-0.20791169081776,-0.978147600733805,0.));
#499=DIRECTION('',(-0.20791169081776,-0.978147600733806,0.));
#500=DIRECTION('',(0.978147600733806,-0.20791169081776,0.));
#501=DIRECTION('',(0.20791169081776,0.978147600733806,0.));
#502=DIRECTION('',(0.,0.,1.));
#503=DIRECTION('',(1.,0.,0.));
#504=DIRECTION('',(0.,0.,-1.));
#505=DIRECTION('',(-1.,0.,0.));
#506=DIRECTION('',(0.,0.,1.));
#507=DIRECTION('',(0.,0.,-1.));
#508=DIRECTION('',(-1.,0.,0.));
#509=DIRECTION('',(0.,0.,1.));
#510=DIRECTION('',(0.,0.,-1.));
#511=DIRECTION('',(-1.,0.,0.));
#512=DIRECTION('',(0.,0.,-1.));
#513=DIRECTION('',(1.,0.,0.));
#514=DIRECTION('',(0.,0.,-1.));
#515=DIRECTION('',(-1.,0.,0.));
#516=DIRECTION('',(0.74992170842658,-0.661526591476533,0.));
#517=DIRECTION('',(-1.,4.24893977366435E-16,0.));
#518=DIRECTION('',(0.741085009469529,0.671411206891536,0.));
#519=DIRECTION('',(0.,0.,-1.));
#520=DIRECTION('',(-1.,0.,0.));
#521=DIRECTION('',(0.,0.,-1.));
#522=DIRECTION('',(1.,0.,0.));
#523=DIRECTION('',(1.,0.,0.));
#524=DIRECTION('',(0.671411206891536,-0.741085009469529,0.));
#525=DIRECTION('',(0.741085009469529,0.671411206891536,0.));
#526=DIRECTION('',(0.741085009469529,0.671411206891536,0.));
#527=DIRECTION('',(0.,0.,-1.));
#528=DIRECTION('',(0.,0.,1.));
#529=DIRECTION('',(0.,0.,1.));
#530=DIRECTION('',(1.,0.,0.));
#531=DIRECTION('',(0.,0.,1.));
#532=DIRECTION('',(0.,0.,-1.));
#533=DIRECTION('',(1.,0.,0.));
#534=DIRECTION('',(0.,0.,1.));
#535=DIRECTION('',(0.,-1.,0.));
#536=DIRECTION('',(0.,0.,-1.));
#537=DIRECTION('',(1.,0.,0.));
#538=DIRECTION('',(-1.03323926993021E-14,1.,0.));
#539=DIRECTION('',(-1.,-1.03323926993021E-14,0.));
#540=DIRECTION('',(0.,0.,1.));
#541=DIRECTION('',(-1.,-1.03323926993021E-14,0.));
#542=DIRECTION('',(0.,0.,-1.));
#543=DIRECTION('',(-1.,-5.51408435260301E-16,0.));
#544=DIRECTION('',(0.,0.,-1.));
#545=DIRECTION('',(-1.,-1.03323926993021E-14,0.));
#546=DIRECTION('',(0.,0.,1.));
#547=DIRECTION('',(1.,0.,0.));
#548=DIRECTION('',(0.,0.,-1.));
#549=DIRECTION('',(1.,0.,0.));
#550=DIRECTION('',(-0.661526591476533,-0.74992170842658,0.));
#551=DIRECTION('',(0.74992170842658,-0.661526591476533,0.));
#552=DIRECTION('',(0.,0.,-1.));
#553=DIRECTION('',(0.74992170842658,-0.661526591476533,0.));
#554=DIRECTION('',(0.,0.,-1.));
#555=DIRECTION('',(0.,0.,-1.));
#556=DIRECTION('',(-1.,0.,0.));
#557=DIRECTION('',(0.,0.,-1.));
#558=DIRECTION('',(1.,0.,0.));
#559=DIRECTION('',(0.,0.,-1.));
#560=DIRECTION('',(-1.,0.,0.));
#561=DIRECTION('',(1.,0.,0.));
#562=DIRECTION('',(0.,1.,0.));
#563=DIRECTION('',(1.,0.,0.));
#564=DIRECTION('',(6.93889390390724E-16,-1.,0.));
#565=DIRECTION('',(1.,-5.58864662928861E-16,0.));
#566=DIRECTION('',(-0.20791169081776,0.978147600733806,0.));
#567=DIRECTION('',(0.,0.,-1.));
#568=DIRECTION('',(-1.,0.,0.));
#569=DIRECTION('',(0.,0.,-1.));
#570=DIRECTION('',(-1.,0.,0.));
#571=DIRECTION('',(-1.,-1.03323926993021E-14,0.));
#572=DIRECTION('',(-0.20791169081776,0.978147600733806,0.));
#573=DIRECTION('',(1.,0.,0.));
#574=DIRECTION('',(-0.978147600733806,-0.20791169081776,0.));
#575=DIRECTION('',(0.20791169081776,-0.978147600733806,0.));
#576=DIRECTION('',(0.,0.,-1.));
#577=DIRECTION('',(-0.978147600733806,-0.20791169081776,0.));
#578=DIRECTION('',(0.20791169081776,-0.978147600733806,0.));
#579=DIRECTION('',(-0.978147600733806,-0.20791169081776,0.));
#580=DIRECTION('',(-0.20791169081776,0.978147600733806,0.));
#581=DIRECTION('',(0.,0.,-1.));
#582=DIRECTION('',(-1.,0.,0.));
#583=DIRECTION('',(0.,0.,-1.));
#584=DIRECTION('',(-1.,0.,0.));
#585=DIRECTION('',(0.,1.,0.));
#586=DIRECTION('',(1.,0.,0.));
#587=DIRECTION('',(6.93889390390724E-16,-1.,0.));
#588=DIRECTION('',(-1.,-2.77555756156289E-16,0.));
#589=DIRECTION('',(1.,0.,0.));
#590=DIRECTION('',(0.,0.,-1.));
#591=DIRECTION('',(0.,0.,1.));
#592=DIRECTION('',(0.,0.,1.));
#593=DIRECTION('',(0.,-1.,0.));
#594=DIRECTION('',(0.,0.,-1.));
#595=DIRECTION('',(1.,0.,0.));
#596=DIRECTION('',(0.,0.,1.));
#597=DIRECTION('',(-2.77555756156289E-16,1.,0.));
#598=DIRECTION('',(-1.,-2.77555756156289E-16,0.));
#599=DIRECTION('',(0.,0.,1.));
#600=DIRECTION('',(-1.,-6.93889390390724E-16,0.));
#601=DIRECTION('',(6.93889390390724E-16,-1.,0.));
#602=DIRECTION('',(1.,0.,0.));
#603=DIRECTION('',(0.,0.,-1.));
#604=DIRECTION('',(0.,0.,1.));
#605=DIRECTION('',(1.,0.,0.));
#606=DIRECTION('',(0.,0.,1.));
#607=DIRECTION('',(1.,0.,0.));
#608=DIRECTION('',(-1.,-1.03323926993021E-14,0.));
#609=DIRECTION('',(1.03323926993021E-14,-1.,0.));
#610=CARTESIAN_POINT('',(0.,0.,0.));
#611=CARTESIAN_POINT('',(-19.0692282319424,-42.5494703697555,5.));
#612=CARTESIAN_POINT('',(-19.2178640992148,-43.2487471462738,5.));
#613=CARTESIAN_POINT('',(-19.2178640992148,-43.2487471462738,5.));
#614=CARTESIAN_POINT('',(-19.2178640992148,-43.2487471462738,-1.));
#615=CARTESIAN_POINT('',(-19.0692282319424,-42.5494703697555,5.));
#616=CARTESIAN_POINT('',(-12.4160541257741,-11.2487471462737,5.));
#617=CARTESIAN_POINT('',(-12.4160541257741,-11.2487471462737,5.));
#618=CARTESIAN_POINT('',(-12.4160541257742,-11.2487471462738,-1.));
#619=CARTESIAN_POINT('',(-12.6286106874441,-12.2487471462739,-1.));
#620=CARTESIAN_POINT('',(-12.6286106874441,-12.2487471462739,0.));
#621=CARTESIAN_POINT('',(-19.0692282319424,-42.5494703697555,0.));
#622=CARTESIAN_POINT('',(-19.0053075375448,-42.2487471462737,0.));
#623=CARTESIAN_POINT('',(-19.0053075375448,-42.2487471462737,-1.));
#624=CARTESIAN_POINT('',(0.,0.,-35.));
#625=CARTESIAN_POINT('',(0.,0.,5.));
#626=CARTESIAN_POINT('',(0.167891748451995,11.2487471462737,5.));
#627=CARTESIAN_POINT('',(9.01598630135896,-6.72863217999822,5.));
#628=CARTESIAN_POINT('',(9.01598630135896,-6.72863217999822,-35.));
#629=CARTESIAN_POINT('',(9.01598630135896,-6.72863217999822,-30.));
#630=CARTESIAN_POINT('',(0.,0.,-30.));
#631=CARTESIAN_POINT('',(0.167891748451995,11.2487471462737,-30.));
#632=CARTESIAN_POINT('',(0.167891748451995,11.2487471462737,-35.));
#633=CARTESIAN_POINT('',(0.,0.,-30.));
#634=CARTESIAN_POINT('',(0.,0.,-30.));
#635=CARTESIAN_POINT('',(6.25,0.,-30.));
#636=CARTESIAN_POINT('',(9.8174073059242,-7.32673281822028,-30.));
#637=CARTESIAN_POINT('',(9.15588071444767,-8.07665452664686,-30.));
#638=CARTESIAN_POINT('',(12.7518376226777,-11.2487471462737,-30.));
#639=CARTESIAN_POINT('',(12.7518376226777,-11.2487471462737,-30.));
#640=CARTESIAN_POINT('',(-0.167891748451752,-11.2487471462737,-30.));
#641=CARTESIAN_POINT('',(-12.4160541257741,-11.2487471462737,-30.));
#642=CARTESIAN_POINT('',(-12.4160541257741,-11.2487471462737,-30.));
#643=CARTESIAN_POINT('',(-9.04799243670998,-8.19733693739857,-30.));
#644=CARTESIAN_POINT('',(-9.71940364360151,-7.45625192792904,-30.));
#645=CARTESIAN_POINT('',(-8.92598293800139,-6.84757830115932,-30.));
#646=CARTESIAN_POINT('',(0.,0.,-30.));
#647=CARTESIAN_POINT('',(-0.167891748451996,11.2487471462737,-30.));
#648=CARTESIAN_POINT('',(0.167891748451995,11.2487471462737,-30.));
#649=CARTESIAN_POINT('',(-12.4160541257741,-11.2487471462737,-35.));
#650=CARTESIAN_POINT('',(-12.4160541257741,-11.2487471462737,5.));
#651=CARTESIAN_POINT('',(-9.04799243670998,-8.19733693739857,5.));
#652=CARTESIAN_POINT('',(-9.04799243670998,-8.19733693739857,-35.));
#653=CARTESIAN_POINT('',(-12.4160541257741,-11.2487471462737,-35.));
#654=CARTESIAN_POINT('',(0.,0.,-35.));
#655=CARTESIAN_POINT('',(-8.92598293800139,-6.84757830115932,-35.));
#656=CARTESIAN_POINT('',(-8.92598293800139,-6.84757830115932,5.));
#657=CARTESIAN_POINT('',(0.,0.,5.));
#658=CARTESIAN_POINT('',(-0.167891748451996,11.2487471462737,5.));
#659=CARTESIAN_POINT('',(-0.167891748451996,11.2487471462737,-35.));
#660=CARTESIAN_POINT('',(0.167891748451995,11.2487471462737,-35.));
#661=CARTESIAN_POINT('',(-0.167891748451996,11.2487471462737,5.));
#662=CARTESIAN_POINT('',(0.167891748451832,-11.2487471462737,-35.));
#663=CARTESIAN_POINT('',(12.7518376226777,-11.2487471462737,-35.));
#664=CARTESIAN_POINT('',(12.7518376226777,-11.2487471462737,-1.));
#665=CARTESIAN_POINT('',(0.167891748451832,-11.2487471462737,-1.));
#666=CARTESIAN_POINT('',(0.167891748451832,-11.2487471462737,-1.));
#667=CARTESIAN_POINT('',(0.167891748451832,-11.2487471462737,5.));
#668=CARTESIAN_POINT('',(0.167891748451838,-11.2487471462737,5.));
#669=CARTESIAN_POINT('',(12.7518376226777,-11.2487471462737,5.));
#670=CARTESIAN_POINT('',(-0.167891748451995,-11.2487471462737,5.));
#671=CARTESIAN_POINT('',(-0.167891748451995,-11.2487471462737,5.));
#672=CARTESIAN_POINT('',(-0.167891748451995,-11.2487471462737,-0.999997205974543));
#673=CARTESIAN_POINT('',(-6.29197293711304,-11.2487471462738,-1.));
#674=CARTESIAN_POINT('',(0.,0.,-35.));
#675=CARTESIAN_POINT('',(0.,0.,5.));
#676=CARTESIAN_POINT('',(6.25,0.,5.));
#677=CARTESIAN_POINT('',(12.7518376226777,-11.2487471462737,-35.));
#678=CARTESIAN_POINT('',(9.15588071444767,-8.07665452664686,5.));
#679=CARTESIAN_POINT('',(9.15588071444767,-8.07665452664686,5.));
#680=CARTESIAN_POINT('',(8.43661921979903,-7.44217415411099,5.));
#681=CARTESIAN_POINT('',(12.7518376226778,-11.2487471462737,5.));
#682=CARTESIAN_POINT('',(12.7518376226778,-11.2487471462737,5.));
#683=CARTESIAN_POINT('',(0.,0.,5.));
#684=CARTESIAN_POINT('',(0.,0.,5.));
#685=CARTESIAN_POINT('',(-9.71940364360151,-7.45625192792904,5.));
#686=CARTESIAN_POINT('',(-24.8321082515482,-43.2487471462738,5.));
#687=CARTESIAN_POINT('',(-24.8321082515482,-43.2487471462738,5.));
#688=CARTESIAN_POINT('',(-24.8321082515482,-48.2487471462738,5.));
#689=CARTESIAN_POINT('',(-24.8321082515482,-48.2487471462738,5.));
#690=CARTESIAN_POINT('',(12.7518376226777,-48.2487471462738,5.));
#691=CARTESIAN_POINT('',(25.1678917484518,-48.2487471462737,5.));
#692=CARTESIAN_POINT('',(25.1678917484518,-43.2487471462738,5.));
#693=CARTESIAN_POINT('',(25.1678917484518,-43.2487471462738,5.));
#694=CARTESIAN_POINT('',(12.7518376226777,-43.2487471462738,5.));
#695=CARTESIAN_POINT('',(19.5536475961185,-43.2487471462738,5.));
#696=CARTESIAN_POINT('',(20.4445701829349,-47.4402083734246,5.));
#697=CARTESIAN_POINT('',(9.8174073059242,-7.32673281822028,5.));
#698=CARTESIAN_POINT('',(0.,0.,0.));
#699=CARTESIAN_POINT('',(1.26558865589756E-13,-12.2487471462737,0.));
#700=CARTESIAN_POINT('',(12.9643941843477,-12.2487471462736,0.));
#701=CARTESIAN_POINT('',(12.7518376226778,-11.2487471462737,0.));
#702=CARTESIAN_POINT('',(19.3410910344484,-42.2487471462737,0.));
#703=CARTESIAN_POINT('',(0.,-42.2487471462737,0.));
#704=CARTESIAN_POINT('',(12.7518376226778,-11.2487471462737,5.));
#705=CARTESIAN_POINT('',(19.5536475961185,-43.2487471462738,-35.));
#706=CARTESIAN_POINT('',(19.5536475961185,-43.2487471462738,-1.));
#707=CARTESIAN_POINT('',(19.3410910344484,-42.2487471462737,-1.));
#708=CARTESIAN_POINT('',(12.9643941843477,-12.2487471462736,-1.));
#709=CARTESIAN_POINT('',(0.,0.,5.));
#710=CARTESIAN_POINT('',(0.167891748451832,-11.2487471462737,-1.));
#711=CARTESIAN_POINT('',(0.167891748451832,-11.2487471462737,-0.968428244133718));
#712=CARTESIAN_POINT('',(0.0838724147103475,-11.2498905616635,-0.956670550254326));
#713=CARTESIAN_POINT('',(0.000337562733439387,-11.2500562065299,-0.946614268608047));
#714=CARTESIAN_POINT('',(-0.0847975027207909,-11.249884610878,-0.956624236079055));
#715=CARTESIAN_POINT('',(-0.167885920261078,-11.2487472332617,-0.968864352444641));
#716=CARTESIAN_POINT('',(-0.167891748193136,-11.2487471462776,-0.999997206036378));
#717=CARTESIAN_POINT('',(0.,0.,-30.));
#718=CARTESIAN_POINT('',(-24.8321082515482,-48.2487471462738,-30.));
#719=CARTESIAN_POINT('',(-24.8321082515482,-48.2487471462738,-30.));
#720=CARTESIAN_POINT('',(-24.8321082515482,-43.2487471462738,-30.));
#721=CARTESIAN_POINT('',(-12.4160541257741,-43.2487471462738,-30.));
#722=CARTESIAN_POINT('',(25.1678917484518,-43.2487471462738,-30.));
#723=CARTESIAN_POINT('',(25.1678917484518,-43.2487471462738,-30.));
#724=CARTESIAN_POINT('',(25.1678917484518,-48.2487471462737,-30.));
#725=CARTESIAN_POINT('',(0.167891748451836,-48.2487471462737,-30.));
#726=CARTESIAN_POINT('',(-24.8321082515482,-48.2487471462738,-35.));
#727=CARTESIAN_POINT('',(-24.8321082515482,-48.2487471462738,-35.));
#728=CARTESIAN_POINT('',(-24.8321082515482,-43.2487471462738,-35.));
#729=CARTESIAN_POINT('',(-12.4160541257741,-43.2487471462738,-35.));
#730=CARTESIAN_POINT('',(-12.4160541257741,-43.2487471462738,-1.));
#731=CARTESIAN_POINT('',(25.1678917484518,-43.2487471462738,-35.));
#732=CARTESIAN_POINT('',(0.167891748451836,-48.2487471462737,-35.));
#733=CARTESIAN_POINT('',(25.1678917484518,-48.2487471462737,-35.));
#734=CARTESIAN_POINT('',(25.1678917484518,-43.2487471462738,-35.));
#735=CARTESIAN_POINT('',(-12.4160541257741,-42.2487471462737,-1.));
#736=CARTESIAN_POINT('',(-9.71940364360151,-7.45625192792904,-35.));
#737=CARTESIAN_POINT('',(9.8174073059242,-7.32673281822028,-35.));
#738=CARTESIAN_POINT('',(0.167891748451842,-12.2487471462737,-1.));
#739=MECHANICAL_DESIGN_GEOMETRIC_PRESENTATION_REPRESENTATION('',(#441),
#740);
#740=(
GEOMETRIC_REPRESENTATION_CONTEXT(3)
GLOBAL_UNCERTAINTY_ASSIGNED_CONTEXT((#741))
GLOBAL_UNIT_ASSIGNED_CONTEXT((#744,#743,#742))
REPRESENTATION_CONTEXT('MicBoomClip1','TOP_LEVEL_ASSEMBLY_PART')
);
#741=UNCERTAINTY_MEASURE_WITH_UNIT(LENGTH_MEASURE(0.005),#744,
'DISTANCE_ACCURACY_VALUE','Maximum Tolerance applied to model');
#742=(
NAMED_UNIT(*)
SI_UNIT($,.STERADIAN.)
SOLID_ANGLE_UNIT()
);
#743=(
NAMED_UNIT(*)
PLANE_ANGLE_UNIT()
SI_UNIT($,.RADIAN.)
);
#744=(
LENGTH_UNIT()
NAMED_UNIT(*)
SI_UNIT(.MILLI.,.METRE.)
);
#745=PRODUCT_DEFINITION_SHAPE('','',#746);
#746=PRODUCT_DEFINITION('','',#748,#747);
#747=PRODUCT_DEFINITION_CONTEXT('',#754,'design');
#748=PRODUCT_DEFINITION_FORMATION_WITH_SPECIFIED_SOURCE('','',#750,
 .NOT_KNOWN.);
#749=PRODUCT_RELATED_PRODUCT_CATEGORY('','',(#750));
#750=PRODUCT('MicBoomClip1','MicBoomClip1','MicBoomClip1',(#752));
#751=PRODUCT_CATEGORY('','');
#752=PRODUCT_CONTEXT('',#754,'mechanical');
#753=APPLICATION_PROTOCOL_DEFINITION('international standard',
'automotive_design',2010,#754);
#754=APPLICATION_CONTEXT(
'core data for automotive mechanical design processes');
ENDSEC;
END-ISO-10303-21;
