ISO-10303-21;
HEADER;
/* Generated by software containing ST-Developer
 * from STEP Tools, Inc. (www.steptools.com) 
 */
/* OPTION: strings as raw bytes, not using required /X/ escapes */

FILE_DESCRIPTION(
/* description */ ('Unknown'),
/* implementation_level */ '2;1');

FILE_NAME(
/* name */ 'ScrollSawSandingEnds',
/* time_stamp */ '2023-05-06T15:40:58+01:00',
/* author */ ('Unknown'),
/* organization */ ('Unknown'),
/* preprocessor_version */ 'ST-DEVELOPER v18.102',
/* originating_system */ 'Solid Edge',
/* authorisation */ 'Unknown');

FILE_SCHEMA (('AUTOMOTIVE_DESIGN {1 0 10303 214 3 1 1}'));
ENDSEC;

DATA;
#10=PROPERTY_DEFINITION_REPRESENTATION(#14,#12);
#11=PROPERTY_DEFINITION_REPRESENTATION(#15,#13);
#12=REPRESENTATION('',(#16),#1063);
#13=REPRESENTATION('',(#17),#1063);
#14=PROPERTY_DEFINITION('pmi validation property','',#1068);
#15=PROPERTY_DEFINITION('pmi validation property','',#1068);
#16=VALUE_REPRESENTATION_ITEM('number of annotations',COUNT_MEASURE(0.));
#17=VALUE_REPRESENTATION_ITEM('number of views',COUNT_MEASURE(0.));
#18=SHAPE_REPRESENTATION_RELATIONSHIP('','',#633,#19);
#19=ADVANCED_BREP_SHAPE_REPRESENTATION('',(#631),#1063);
#20=TOROIDAL_SURFACE('',#684,4.25000000000337,1.);
#21=TOROIDAL_SURFACE('',#685,4.25000000000337,1.);
#22=B_SPLINE_CURVE_WITH_KNOTS('',3,(#972,#973,#974,#975,#976,#977,#978,
#979),.UNSPECIFIED.,.F.,.F.,(4,1,1,1,1,4),(0.,0.000302791878715702,0.000605583757431403,
0.00121116751486281,0.00181675127229421,0.00242233502972561),
 .UNSPECIFIED.);
#23=B_SPLINE_CURVE_WITH_KNOTS('',3,(#981,#982,#983,#984,#985,#986,#987,
#988),.UNSPECIFIED.,.F.,.F.,(4,1,1,1,1,4),(0.,0.000596442231443425,0.00119288446288685,
0.00178932669433027,0.00208754781005199,0.0023857689257737),
 .UNSPECIFIED.);
#24=CIRCLE('',#642,3.25000000000337);
#25=CIRCLE('',#643,3.25000000000337);
#26=CIRCLE('',#647,0.25);
#27=CIRCLE('',#649,0.25);
#28=CIRCLE('',#651,4.25000000000337);
#29=CIRCLE('',#652,0.25);
#30=CIRCLE('',#654,4.25000000000337);
#31=CIRCLE('',#655,0.25);
#32=CIRCLE('',#658,1.);
#33=CIRCLE('',#659,1.);
#34=CIRCLE('',#661,3.25000000000337);
#35=CIRCLE('',#662,3.25000000000337);
#36=CIRCLE('',#664,3.25000000000337);
#37=CIRCLE('',#665,3.25000000000337);
#38=CIRCLE('',#667,3.25000000000337);
#39=CIRCLE('',#668,3.25000000000337);
#40=CIRCLE('',#683,1.);
#41=CIRCLE('',#686,1.);
#42=CYLINDRICAL_SURFACE('',#641,3.25000000000337);
#43=CYLINDRICAL_SURFACE('',#660,3.25000000000337);
#44=CYLINDRICAL_SURFACE('',#663,3.25000000000337);
#45=CYLINDRICAL_SURFACE('',#666,3.25000000000337);
#46=CYLINDRICAL_SURFACE('',#671,0.25);
#47=CYLINDRICAL_SURFACE('',#672,0.25);
#48=CYLINDRICAL_SURFACE('',#682,1.);
#49=CYLINDRICAL_SURFACE('',#687,1.);
#50=PLANE('',#639);
#51=PLANE('',#640);
#52=PLANE('',#644);
#53=PLANE('',#645);
#54=PLANE('',#646);
#55=PLANE('',#648);
#56=PLANE('',#650);
#57=PLANE('',#653);
#58=PLANE('',#656);
#59=PLANE('',#657);
#60=PLANE('',#669);
#61=PLANE('',#670);
#62=PLANE('',#673);
#63=PLANE('',#674);
#64=PLANE('',#675);
#65=PLANE('',#676);
#66=PLANE('',#677);
#67=PLANE('',#678);
#68=PLANE('',#679);
#69=PLANE('',#680);
#70=PLANE('',#681);
#71=LINE('',#874,#135);
#72=LINE('',#878,#136);
#73=LINE('',#882,#137);
#74=LINE('',#886,#138);
#75=LINE('',#888,#139);
#76=LINE('',#890,#140);
#77=LINE('',#892,#141);
#78=LINE('',#894,#142);
#79=LINE('',#897,#143);
#80=LINE('',#899,#144);
#81=LINE('',#901,#145);
#82=LINE('',#903,#146);
#83=LINE('',#908,#147);
#84=LINE('',#912,#148);
#85=LINE('',#914,#149);
#86=LINE('',#916,#150);
#87=LINE('',#918,#151);
#88=LINE('',#921,#152);
#89=LINE('',#923,#153);
#90=LINE('',#925,#154);
#91=LINE('',#928,#155);
#92=LINE('',#930,#156);
#93=LINE('',#932,#157);
#94=LINE('',#935,#158);
#95=LINE('',#937,#159);
#96=LINE('',#939,#160);
#97=LINE('',#941,#161);
#98=LINE('',#946,#162);
#99=LINE('',#948,#163);
#100=LINE('',#950,#164);
#101=LINE('',#952,#165);
#102=LINE('',#957,#166);
#103=LINE('',#959,#167);
#104=LINE('',#961,#168);
#105=LINE('',#963,#169);
#106=LINE('',#965,#170);
#107=LINE('',#967,#171);
#108=LINE('',#970,#172);
#109=LINE('',#980,#173);
#110=LINE('',#990,#174);
#111=LINE('',#992,#175);
#112=LINE('',#993,#176);
#113=LINE('',#995,#177);
#114=LINE('',#997,#178);
#115=LINE('',#999,#179);
#116=LINE('',#1001,#180);
#117=LINE('',#1004,#181);
#118=LINE('',#1006,#182);
#119=LINE('',#1008,#183);
#120=LINE('',#1010,#184);
#121=LINE('',#1011,#185);
#122=LINE('',#1013,#186);
#123=LINE('',#1016,#187);
#124=LINE('',#1017,#188);
#125=LINE('',#1018,#189);
#126=LINE('',#1021,#190);
#127=LINE('',#1025,#191);
#128=LINE('',#1032,#192);
#129=LINE('',#1038,#193);
#130=LINE('',#1040,#194);
#131=LINE('',#1044,#195);
#132=LINE('',#1045,#196);
#133=LINE('',#1053,#197);
#134=LINE('',#1055,#198);
#135=VECTOR('',#692,1000.);
#136=VECTOR('',#695,1000.);
#137=VECTOR('',#698,1000.);
#138=VECTOR('',#701,1000.);
#139=VECTOR('',#704,1000.);
#140=VECTOR('',#705,1000.);
#141=VECTOR('',#706,1000.);
#142=VECTOR('',#709,1000.);
#143=VECTOR('',#710,1000.);
#144=VECTOR('',#711,1000.);
#145=VECTOR('',#712,1000.);
#146=VECTOR('',#715,1000.);
#147=VECTOR('',#718,1000.);
#148=VECTOR('',#723,1000.);
#149=VECTOR('',#724,1000.);
#150=VECTOR('',#725,1000.);
#151=VECTOR('',#728,1000.);
#152=VECTOR('',#729,1000.);
#153=VECTOR('',#730,1000.);
#154=VECTOR('',#731,1000.);
#155=VECTOR('',#736,1000.);
#156=VECTOR('',#737,1000.);
#157=VECTOR('',#738,1000.);
#158=VECTOR('',#743,1000.);
#159=VECTOR('',#744,1000.);
#160=VECTOR('',#745,1000.);
#161=VECTOR('',#748,1000.);
#162=VECTOR('',#751,1000.);
#163=VECTOR('',#752,1000.);
#164=VECTOR('',#755,1000.);
#165=VECTOR('',#756,1000.);
#166=VECTOR('',#761,1000.);
#167=VECTOR('',#762,1000.);
#168=VECTOR('',#763,1000.);
#169=VECTOR('',#766,1000.);
#170=VECTOR('',#767,1000.);
#171=VECTOR('',#770,1000.);
#172=VECTOR('',#771,1000.);
#173=VECTOR('',#772,1000.);
#174=VECTOR('',#773,1000.);
#175=VECTOR('',#774,1000.);
#176=VECTOR('',#775,1000.);
#177=VECTOR('',#776,1000.);
#178=VECTOR('',#777,1000.);
#179=VECTOR('',#778,1000.);
#180=VECTOR('',#781,1000.);
#181=VECTOR('',#782,1000.);
#182=VECTOR('',#783,1000.);
#183=VECTOR('',#784,1000.);
#184=VECTOR('',#785,1000.);
#185=VECTOR('',#786,1000.);
#186=VECTOR('',#787,1000.);
#187=VECTOR('',#790,1000.);
#188=VECTOR('',#791,1000.);
#189=VECTOR('',#792,1000.);
#190=VECTOR('',#795,1000.);
#191=VECTOR('',#800,1000.);
#192=VECTOR('',#811,1000.);
#193=VECTOR('',#818,1000.);
#194=VECTOR('',#821,1000.);
#195=VECTOR('',#828,1000.);
#196=VECTOR('',#829,1000.);
#197=VECTOR('',#844,1000.);
#198=VECTOR('',#847,1000.);
#199=ORIENTED_EDGE('',*,*,#375,.F.);
#200=ORIENTED_EDGE('',*,*,#376,.T.);
#201=ORIENTED_EDGE('',*,*,#377,.T.);
#202=ORIENTED_EDGE('',*,*,#378,.T.);
#203=ORIENTED_EDGE('',*,*,#379,.T.);
#204=ORIENTED_EDGE('',*,*,#380,.T.);
#205=ORIENTED_EDGE('',*,*,#381,.F.);
#206=ORIENTED_EDGE('',*,*,#382,.T.);
#207=ORIENTED_EDGE('',*,*,#383,.F.);
#208=ORIENTED_EDGE('',*,*,#382,.F.);
#209=ORIENTED_EDGE('',*,*,#384,.F.);
#210=ORIENTED_EDGE('',*,*,#385,.T.);
#211=ORIENTED_EDGE('',*,*,#386,.F.);
#212=ORIENTED_EDGE('',*,*,#387,.T.);
#213=ORIENTED_EDGE('',*,*,#388,.F.);
#214=ORIENTED_EDGE('',*,*,#389,.T.);
#215=ORIENTED_EDGE('',*,*,#390,.T.);
#216=ORIENTED_EDGE('',*,*,#391,.F.);
#217=ORIENTED_EDGE('',*,*,#392,.F.);
#218=ORIENTED_EDGE('',*,*,#393,.T.);
#219=ORIENTED_EDGE('',*,*,#378,.F.);
#220=ORIENTED_EDGE('',*,*,#394,.T.);
#221=ORIENTED_EDGE('',*,*,#395,.T.);
#222=ORIENTED_EDGE('',*,*,#396,.T.);
#223=ORIENTED_EDGE('',*,*,#397,.T.);
#224=ORIENTED_EDGE('',*,*,#398,.T.);
#225=ORIENTED_EDGE('',*,*,#399,.T.);
#226=ORIENTED_EDGE('',*,*,#400,.T.);
#227=ORIENTED_EDGE('',*,*,#386,.T.);
#228=ORIENTED_EDGE('',*,*,#401,.T.);
#229=ORIENTED_EDGE('',*,*,#384,.T.);
#230=ORIENTED_EDGE('',*,*,#381,.T.);
#231=ORIENTED_EDGE('',*,*,#402,.F.);
#232=ORIENTED_EDGE('',*,*,#403,.F.);
#233=ORIENTED_EDGE('',*,*,#404,.F.);
#234=ORIENTED_EDGE('',*,*,#396,.F.);
#235=ORIENTED_EDGE('',*,*,#405,.T.);
#236=ORIENTED_EDGE('',*,*,#399,.F.);
#237=ORIENTED_EDGE('',*,*,#406,.F.);
#238=ORIENTED_EDGE('',*,*,#407,.F.);
#239=ORIENTED_EDGE('',*,*,#408,.T.);
#240=ORIENTED_EDGE('',*,*,#379,.F.);
#241=ORIENTED_EDGE('',*,*,#409,.T.);
#242=ORIENTED_EDGE('',*,*,#410,.T.);
#243=ORIENTED_EDGE('',*,*,#411,.T.);
#244=ORIENTED_EDGE('',*,*,#412,.F.);
#245=ORIENTED_EDGE('',*,*,#375,.T.);
#246=ORIENTED_EDGE('',*,*,#383,.T.);
#247=ORIENTED_EDGE('',*,*,#413,.T.);
#248=ORIENTED_EDGE('',*,*,#388,.T.);
#249=ORIENTED_EDGE('',*,*,#414,.T.);
#250=ORIENTED_EDGE('',*,*,#415,.T.);
#251=ORIENTED_EDGE('',*,*,#416,.T.);
#252=ORIENTED_EDGE('',*,*,#417,.T.);
#253=ORIENTED_EDGE('',*,*,#418,.F.);
#254=ORIENTED_EDGE('',*,*,#419,.T.);
#255=ORIENTED_EDGE('',*,*,#397,.F.);
#256=ORIENTED_EDGE('',*,*,#420,.T.);
#257=ORIENTED_EDGE('',*,*,#394,.F.);
#258=ORIENTED_EDGE('',*,*,#377,.F.);
#259=ORIENTED_EDGE('',*,*,#421,.T.);
#260=ORIENTED_EDGE('',*,*,#422,.F.);
#261=ORIENTED_EDGE('',*,*,#423,.F.);
#262=ORIENTED_EDGE('',*,*,#424,.F.);
#263=ORIENTED_EDGE('',*,*,#425,.T.);
#264=ORIENTED_EDGE('',*,*,#422,.T.);
#265=ORIENTED_EDGE('',*,*,#426,.F.);
#266=ORIENTED_EDGE('',*,*,#411,.F.);
#267=ORIENTED_EDGE('',*,*,#427,.T.);
#268=ORIENTED_EDGE('',*,*,#428,.F.);
#269=ORIENTED_EDGE('',*,*,#429,.T.);
#270=ORIENTED_EDGE('',*,*,#392,.T.);
#271=ORIENTED_EDGE('',*,*,#430,.T.);
#272=ORIENTED_EDGE('',*,*,#431,.T.);
#273=ORIENTED_EDGE('',*,*,#432,.T.);
#274=ORIENTED_EDGE('',*,*,#433,.T.);
#275=ORIENTED_EDGE('',*,*,#434,.F.);
#276=ORIENTED_EDGE('',*,*,#435,.F.);
#277=ORIENTED_EDGE('',*,*,#436,.T.);
#278=ORIENTED_EDGE('',*,*,#437,.T.);
#279=ORIENTED_EDGE('',*,*,#438,.T.);
#280=ORIENTED_EDGE('',*,*,#390,.F.);
#281=ORIENTED_EDGE('',*,*,#439,.T.);
#282=ORIENTED_EDGE('',*,*,#440,.T.);
#283=ORIENTED_EDGE('',*,*,#441,.T.);
#284=ORIENTED_EDGE('',*,*,#415,.F.);
#285=ORIENTED_EDGE('',*,*,#442,.F.);
#286=ORIENTED_EDGE('',*,*,#403,.T.);
#287=ORIENTED_EDGE('',*,*,#443,.T.);
#288=ORIENTED_EDGE('',*,*,#407,.T.);
#289=ORIENTED_EDGE('',*,*,#444,.T.);
#290=ORIENTED_EDGE('',*,*,#418,.T.);
#291=ORIENTED_EDGE('',*,*,#445,.T.);
#292=ORIENTED_EDGE('',*,*,#446,.F.);
#293=ORIENTED_EDGE('',*,*,#428,.T.);
#294=ORIENTED_EDGE('',*,*,#447,.T.);
#295=ORIENTED_EDGE('',*,*,#448,.F.);
#296=ORIENTED_EDGE('',*,*,#449,.T.);
#297=ORIENTED_EDGE('',*,*,#450,.F.);
#298=ORIENTED_EDGE('',*,*,#433,.F.);
#299=ORIENTED_EDGE('',*,*,#451,.F.);
#300=ORIENTED_EDGE('',*,*,#435,.T.);
#301=ORIENTED_EDGE('',*,*,#452,.T.);
#302=ORIENTED_EDGE('',*,*,#453,.T.);
#303=ORIENTED_EDGE('',*,*,#424,.T.);
#304=ORIENTED_EDGE('',*,*,#454,.F.);
#305=ORIENTED_EDGE('',*,*,#429,.F.);
#306=ORIENTED_EDGE('',*,*,#449,.F.);
#307=ORIENTED_EDGE('',*,*,#455,.F.);
#308=ORIENTED_EDGE('',*,*,#439,.F.);
#309=ORIENTED_EDGE('',*,*,#393,.F.);
#310=ORIENTED_EDGE('',*,*,#423,.T.);
#311=ORIENTED_EDGE('',*,*,#450,.T.);
#312=ORIENTED_EDGE('',*,*,#434,.T.);
#313=ORIENTED_EDGE('',*,*,#456,.T.);
#314=ORIENTED_EDGE('',*,*,#454,.T.);
#315=ORIENTED_EDGE('',*,*,#420,.F.);
#316=ORIENTED_EDGE('',*,*,#400,.F.);
#317=ORIENTED_EDGE('',*,*,#405,.F.);
#318=ORIENTED_EDGE('',*,*,#395,.F.);
#319=ORIENTED_EDGE('',*,*,#401,.F.);
#320=ORIENTED_EDGE('',*,*,#389,.F.);
#321=ORIENTED_EDGE('',*,*,#413,.F.);
#322=ORIENTED_EDGE('',*,*,#385,.F.);
#323=ORIENTED_EDGE('',*,*,#457,.T.);
#324=ORIENTED_EDGE('',*,*,#437,.F.);
#325=ORIENTED_EDGE('',*,*,#458,.F.);
#326=ORIENTED_EDGE('',*,*,#431,.F.);
#327=ORIENTED_EDGE('',*,*,#430,.F.);
#328=ORIENTED_EDGE('',*,*,#391,.T.);
#329=ORIENTED_EDGE('',*,*,#438,.F.);
#330=ORIENTED_EDGE('',*,*,#457,.F.);
#331=ORIENTED_EDGE('',*,*,#458,.T.);
#332=ORIENTED_EDGE('',*,*,#436,.F.);
#333=ORIENTED_EDGE('',*,*,#451,.T.);
#334=ORIENTED_EDGE('',*,*,#432,.F.);
#335=ORIENTED_EDGE('',*,*,#376,.F.);
#336=ORIENTED_EDGE('',*,*,#412,.T.);
#337=ORIENTED_EDGE('',*,*,#426,.T.);
#338=ORIENTED_EDGE('',*,*,#421,.F.);
#339=ORIENTED_EDGE('',*,*,#380,.F.);
#340=ORIENTED_EDGE('',*,*,#408,.F.);
#341=ORIENTED_EDGE('',*,*,#443,.F.);
#342=ORIENTED_EDGE('',*,*,#402,.T.);
#343=ORIENTED_EDGE('',*,*,#419,.F.);
#344=ORIENTED_EDGE('',*,*,#444,.F.);
#345=ORIENTED_EDGE('',*,*,#406,.T.);
#346=ORIENTED_EDGE('',*,*,#398,.F.);
#347=ORIENTED_EDGE('',*,*,#414,.F.);
#348=ORIENTED_EDGE('',*,*,#387,.F.);
#349=ORIENTED_EDGE('',*,*,#404,.T.);
#350=ORIENTED_EDGE('',*,*,#442,.T.);
#351=ORIENTED_EDGE('',*,*,#448,.T.);
#352=ORIENTED_EDGE('',*,*,#459,.T.);
#353=ORIENTED_EDGE('',*,*,#440,.F.);
#354=ORIENTED_EDGE('',*,*,#455,.T.);
#355=ORIENTED_EDGE('',*,*,#446,.T.);
#356=ORIENTED_EDGE('',*,*,#460,.T.);
#357=ORIENTED_EDGE('',*,*,#452,.F.);
#358=ORIENTED_EDGE('',*,*,#456,.F.);
#359=ORIENTED_EDGE('',*,*,#441,.F.);
#360=ORIENTED_EDGE('',*,*,#459,.F.);
#361=ORIENTED_EDGE('',*,*,#461,.F.);
#362=ORIENTED_EDGE('',*,*,#409,.F.);
#363=ORIENTED_EDGE('',*,*,#461,.T.);
#364=ORIENTED_EDGE('',*,*,#447,.F.);
#365=ORIENTED_EDGE('',*,*,#427,.F.);
#366=ORIENTED_EDGE('',*,*,#410,.F.);
#367=ORIENTED_EDGE('',*,*,#425,.F.);
#368=ORIENTED_EDGE('',*,*,#453,.F.);
#369=ORIENTED_EDGE('',*,*,#462,.F.);
#370=ORIENTED_EDGE('',*,*,#416,.F.);
#371=ORIENTED_EDGE('',*,*,#445,.F.);
#372=ORIENTED_EDGE('',*,*,#417,.F.);
#373=ORIENTED_EDGE('',*,*,#462,.T.);
#374=ORIENTED_EDGE('',*,*,#460,.F.);
#375=EDGE_CURVE('',#463,#464,#521,.F.);
#376=EDGE_CURVE('',#463,#465,#71,.T.);
#377=EDGE_CURVE('',#465,#466,#522,.F.);
#378=EDGE_CURVE('',#466,#467,#72,.T.);
#379=EDGE_CURVE('',#467,#468,#523,.T.);
#380=EDGE_CURVE('',#468,#469,#73,.F.);
#381=EDGE_CURVE('',#470,#469,#524,.T.);
#382=EDGE_CURVE('',#470,#464,#74,.T.);
#383=EDGE_CURVE('',#464,#471,#75,.T.);
#384=EDGE_CURVE('',#472,#470,#76,.T.);
#385=EDGE_CURVE('',#472,#471,#77,.T.);
#386=EDGE_CURVE('',#473,#474,#78,.T.);
#387=EDGE_CURVE('',#473,#475,#79,.T.);
#388=EDGE_CURVE('',#476,#475,#80,.T.);
#389=EDGE_CURVE('',#476,#474,#81,.F.);
#390=EDGE_CURVE('',#477,#478,#82,.T.);
#391=EDGE_CURVE('',#479,#478,#24,.F.);
#392=EDGE_CURVE('',#480,#479,#83,.T.);
#393=EDGE_CURVE('',#480,#477,#25,.T.);
#394=EDGE_CURVE('',#466,#481,#84,.T.);
#395=EDGE_CURVE('',#481,#482,#85,.T.);
#396=EDGE_CURVE('',#482,#467,#86,.T.);
#397=EDGE_CURVE('',#483,#484,#87,.T.);
#398=EDGE_CURVE('',#484,#485,#88,.T.);
#399=EDGE_CURVE('',#485,#486,#89,.T.);
#400=EDGE_CURVE('',#486,#483,#90,.F.);
#401=EDGE_CURVE('',#474,#472,#26,.T.);
#402=EDGE_CURVE('',#487,#469,#91,.T.);
#403=EDGE_CURVE('',#488,#487,#92,.T.);
#404=EDGE_CURVE('',#473,#488,#93,.T.);
#405=EDGE_CURVE('',#482,#486,#27,.F.);
#406=EDGE_CURVE('',#489,#485,#94,.T.);
#407=EDGE_CURVE('',#490,#489,#95,.T.);
#408=EDGE_CURVE('',#490,#468,#96,.F.);
#409=EDGE_CURVE('',#491,#492,#97,.T.);
#410=EDGE_CURVE('',#492,#493,#28,.T.);
#411=EDGE_CURVE('',#493,#494,#98,.T.);
#412=EDGE_CURVE('',#463,#494,#99,.T.);
#413=EDGE_CURVE('',#471,#476,#29,.T.);
#414=EDGE_CURVE('',#475,#495,#100,.T.);
#415=EDGE_CURVE('',#495,#491,#101,.T.);
#416=EDGE_CURVE('',#496,#497,#30,.F.);
#417=EDGE_CURVE('',#497,#498,#102,.F.);
#418=EDGE_CURVE('',#499,#498,#103,.T.);
#419=EDGE_CURVE('',#499,#484,#104,.T.);
#420=EDGE_CURVE('',#483,#481,#31,.F.);
#421=EDGE_CURVE('',#465,#500,#105,.T.);
#422=EDGE_CURVE('',#496,#500,#106,.T.);
#423=EDGE_CURVE('',#501,#502,#107,.T.);
#424=EDGE_CURVE('',#503,#501,#108,.T.);
#425=EDGE_CURVE('',#503,#496,#22,.T.);
#426=EDGE_CURVE('',#494,#500,#109,.T.);
#427=EDGE_CURVE('',#493,#504,#23,.T.);
#428=EDGE_CURVE('',#505,#504,#110,.T.);
#429=EDGE_CURVE('',#505,#480,#111,.T.);
#430=EDGE_CURVE('',#479,#506,#112,.T.);
#431=EDGE_CURVE('',#506,#507,#113,.T.);
#432=EDGE_CURVE('',#507,#508,#114,.T.);
#433=EDGE_CURVE('',#508,#502,#115,.T.);
#434=EDGE_CURVE('',#509,#510,#116,.T.);
#435=EDGE_CURVE('',#511,#509,#117,.T.);
#436=EDGE_CURVE('',#511,#512,#118,.T.);
#437=EDGE_CURVE('',#512,#513,#119,.T.);
#438=EDGE_CURVE('',#513,#478,#120,.T.);
#439=EDGE_CURVE('',#477,#514,#121,.T.);
#440=EDGE_CURVE('',#514,#515,#122,.T.);
#441=EDGE_CURVE('',#515,#491,#32,.T.);
#442=EDGE_CURVE('',#488,#495,#123,.T.);
#443=EDGE_CURVE('',#487,#490,#124,.T.);
#444=EDGE_CURVE('',#489,#499,#125,.T.);
#445=EDGE_CURVE('',#498,#516,#33,.T.);
#446=EDGE_CURVE('',#510,#516,#126,.T.);
#447=EDGE_CURVE('',#504,#517,#34,.F.);
#448=EDGE_CURVE('',#518,#517,#127,.T.);
#449=EDGE_CURVE('',#518,#505,#35,.T.);
#450=EDGE_CURVE('',#502,#509,#36,.T.);
#451=EDGE_CURVE('',#511,#508,#37,.F.);
#452=EDGE_CURVE('',#519,#520,#128,.T.);
#453=EDGE_CURVE('',#520,#503,#38,.T.);
#454=EDGE_CURVE('',#519,#501,#39,.T.);
#455=EDGE_CURVE('',#514,#518,#129,.T.);
#456=EDGE_CURVE('',#510,#519,#130,.T.);
#457=EDGE_CURVE('',#506,#513,#131,.T.);
#458=EDGE_CURVE('',#507,#512,#132,.T.);
#459=EDGE_CURVE('',#517,#515,#133,.F.);
#460=EDGE_CURVE('',#516,#520,#134,.T.);
#461=EDGE_CURVE('',#492,#517,#40,.T.);
#462=EDGE_CURVE('',#497,#520,#41,.T.);
#463=VERTEX_POINT('',#872);
#464=VERTEX_POINT('',#873);
#465=VERTEX_POINT('',#875);
#466=VERTEX_POINT('',#877);
#467=VERTEX_POINT('',#879);
#468=VERTEX_POINT('',#881);
#469=VERTEX_POINT('',#883);
#470=VERTEX_POINT('',#885);
#471=VERTEX_POINT('',#889);
#472=VERTEX_POINT('',#891);
#473=VERTEX_POINT('',#895);
#474=VERTEX_POINT('',#896);
#475=VERTEX_POINT('',#898);
#476=VERTEX_POINT('',#900);
#477=VERTEX_POINT('',#904);
#478=VERTEX_POINT('',#905);
#479=VERTEX_POINT('',#907);
#480=VERTEX_POINT('',#909);
#481=VERTEX_POINT('',#913);
#482=VERTEX_POINT('',#915);
#483=VERTEX_POINT('',#919);
#484=VERTEX_POINT('',#920);
#485=VERTEX_POINT('',#922);
#486=VERTEX_POINT('',#924);
#487=VERTEX_POINT('',#929);
#488=VERTEX_POINT('',#931);
#489=VERTEX_POINT('',#936);
#490=VERTEX_POINT('',#938);
#491=VERTEX_POINT('',#942);
#492=VERTEX_POINT('',#943);
#493=VERTEX_POINT('',#945);
#494=VERTEX_POINT('',#947);
#495=VERTEX_POINT('',#951);
#496=VERTEX_POINT('',#955);
#497=VERTEX_POINT('',#956);
#498=VERTEX_POINT('',#958);
#499=VERTEX_POINT('',#960);
#500=VERTEX_POINT('',#964);
#501=VERTEX_POINT('',#968);
#502=VERTEX_POINT('',#969);
#503=VERTEX_POINT('',#971);
#504=VERTEX_POINT('',#989);
#505=VERTEX_POINT('',#991);
#506=VERTEX_POINT('',#994);
#507=VERTEX_POINT('',#996);
#508=VERTEX_POINT('',#998);
#509=VERTEX_POINT('',#1002);
#510=VERTEX_POINT('',#1003);
#511=VERTEX_POINT('',#1005);
#512=VERTEX_POINT('',#1007);
#513=VERTEX_POINT('',#1009);
#514=VERTEX_POINT('',#1012);
#515=VERTEX_POINT('',#1014);
#516=VERTEX_POINT('',#1020);
#517=VERTEX_POINT('',#1024);
#518=VERTEX_POINT('',#1026);
#519=VERTEX_POINT('',#1033);
#520=VERTEX_POINT('',#1034);
#521=ELLIPSE('',#635,2.59603175144827,1.00000000000001);
#522=ELLIPSE('',#636,2.59603175144827,1.00000000000001);
#523=ELLIPSE('',#637,2.59603175144827,1.00000000000001);
#524=ELLIPSE('',#638,2.59603175144827,1.00000000000001);
#525=EDGE_LOOP('',(#199,#200,#201,#202,#203,#204,#205,#206));
#526=EDGE_LOOP('',(#207,#208,#209,#210));
#527=EDGE_LOOP('',(#211,#212,#213,#214));
#528=EDGE_LOOP('',(#215,#216,#217,#218));
#529=EDGE_LOOP('',(#219,#220,#221,#222));
#530=EDGE_LOOP('',(#223,#224,#225,#226));
#531=EDGE_LOOP('',(#227,#228,#229,#230,#231,#232,#233));
#532=EDGE_LOOP('',(#234,#235,#236,#237,#238,#239,#240));
#533=EDGE_LOOP('',(#241,#242,#243,#244,#245,#246,#247,#248,#249,#250));
#534=EDGE_LOOP('',(#251,#252,#253,#254,#255,#256,#257,#258,#259,#260));
#535=EDGE_LOOP('',(#261,#262,#263,#264,#265,#266,#267,#268,#269,#270,#271,
#272,#273,#274));
#536=EDGE_LOOP('',(#275,#276,#277,#278,#279,#280,#281,#282,#283,#284,#285,
#286,#287,#288,#289,#290,#291,#292));
#537=EDGE_LOOP('',(#293,#294,#295,#296));
#538=EDGE_LOOP('',(#297,#298,#299,#300));
#539=EDGE_LOOP('',(#301,#302,#303,#304));
#540=EDGE_LOOP('',(#305,#306,#307,#308,#309));
#541=EDGE_LOOP('',(#310,#311,#312,#313,#314));
#542=EDGE_LOOP('',(#315,#316,#317,#318));
#543=EDGE_LOOP('',(#319,#320,#321,#322));
#544=EDGE_LOOP('',(#323,#324,#325,#326));
#545=EDGE_LOOP('',(#327,#328,#329,#330));
#546=EDGE_LOOP('',(#331,#332,#333,#334));
#547=EDGE_LOOP('',(#335,#336,#337,#338));
#548=EDGE_LOOP('',(#339,#340,#341,#342));
#549=EDGE_LOOP('',(#343,#344,#345,#346));
#550=EDGE_LOOP('',(#347,#348,#349,#350));
#551=EDGE_LOOP('',(#351,#352,#353,#354));
#552=EDGE_LOOP('',(#355,#356,#357,#358));
#553=EDGE_LOOP('',(#359,#360,#361,#362));
#554=EDGE_LOOP('',(#363,#364,#365,#366));
#555=EDGE_LOOP('',(#367,#368,#369,#370));
#556=EDGE_LOOP('',(#371,#372,#373,#374));
#557=FACE_BOUND('',#525,.T.);
#558=FACE_BOUND('',#526,.T.);
#559=FACE_BOUND('',#527,.T.);
#560=FACE_BOUND('',#528,.T.);
#561=FACE_BOUND('',#529,.T.);
#562=FACE_BOUND('',#530,.T.);
#563=FACE_BOUND('',#531,.T.);
#564=FACE_BOUND('',#532,.T.);
#565=FACE_BOUND('',#533,.T.);
#566=FACE_BOUND('',#534,.T.);
#567=FACE_BOUND('',#535,.T.);
#568=FACE_BOUND('',#536,.T.);
#569=FACE_BOUND('',#537,.T.);
#570=FACE_BOUND('',#538,.T.);
#571=FACE_BOUND('',#539,.T.);
#572=FACE_BOUND('',#540,.T.);
#573=FACE_BOUND('',#541,.T.);
#574=FACE_BOUND('',#542,.T.);
#575=FACE_BOUND('',#543,.T.);
#576=FACE_BOUND('',#544,.T.);
#577=FACE_BOUND('',#545,.T.);
#578=FACE_BOUND('',#546,.T.);
#579=FACE_BOUND('',#547,.T.);
#580=FACE_BOUND('',#548,.T.);
#581=FACE_BOUND('',#549,.T.);
#582=FACE_BOUND('',#550,.T.);
#583=FACE_BOUND('',#551,.T.);
#584=FACE_BOUND('',#552,.T.);
#585=FACE_BOUND('',#553,.T.);
#586=FACE_BOUND('',#554,.T.);
#587=FACE_BOUND('',#555,.T.);
#588=FACE_BOUND('',#556,.T.);
#589=B_SPLINE_SURFACE_WITH_KNOTS('',3,1,((#861,#862),(#863,#864),(#865,
#866),(#867,#868),(#869,#870)),.SURF_OF_LINEAR_EXTRUSION.,.F.,.F.,.F.,(4,
1,4),(2,2),(0.124078401631141,1.10751212077943,2.09094583992772),(0.,1.),
 .UNSPECIFIED.);
#590=ADVANCED_FACE('',(#557),#589,.F.);
#591=ADVANCED_FACE('',(#558),#50,.F.);
#592=ADVANCED_FACE('',(#559),#51,.F.);
#593=ADVANCED_FACE('',(#560),#42,.T.);
#594=ADVANCED_FACE('',(#561),#52,.F.);
#595=ADVANCED_FACE('',(#562),#53,.F.);
#596=ADVANCED_FACE('',(#563),#54,.T.);
#597=ADVANCED_FACE('',(#564),#55,.F.);
#598=ADVANCED_FACE('',(#565),#56,.F.);
#599=ADVANCED_FACE('',(#566),#57,.T.);
#600=ADVANCED_FACE('',(#567),#58,.F.);
#601=ADVANCED_FACE('',(#568),#59,.F.);
#602=ADVANCED_FACE('',(#569),#43,.T.);
#603=ADVANCED_FACE('',(#570),#44,.T.);
#604=ADVANCED_FACE('',(#571),#45,.T.);
#605=ADVANCED_FACE('',(#572),#60,.F.);
#606=ADVANCED_FACE('',(#573),#61,.T.);
#607=ADVANCED_FACE('',(#574),#46,.T.);
#608=ADVANCED_FACE('',(#575),#47,.T.);
#609=ADVANCED_FACE('',(#576),#62,.F.);
#610=ADVANCED_FACE('',(#577),#63,.F.);
#611=ADVANCED_FACE('',(#578),#64,.F.);
#612=ADVANCED_FACE('',(#579),#65,.T.);
#613=ADVANCED_FACE('',(#580),#66,.T.);
#614=ADVANCED_FACE('',(#581),#67,.T.);
#615=ADVANCED_FACE('',(#582),#68,.T.);
#616=ADVANCED_FACE('',(#583),#69,.T.);
#617=ADVANCED_FACE('',(#584),#70,.F.);
#618=ADVANCED_FACE('',(#585),#48,.F.);
#619=ADVANCED_FACE('',(#586),#20,.F.);
#620=ADVANCED_FACE('',(#587),#21,.F.);
#621=ADVANCED_FACE('',(#588),#49,.F.);
#622=CLOSED_SHELL('',(#590,#591,#592,#593,#594,#595,#596,#597,#598,#599,
#600,#601,#602,#603,#604,#605,#606,#607,#608,#609,#610,#611,#612,#613,#614,
#615,#616,#617,#618,#619,#620,#621));
#623=STYLED_ITEM('',(#624),#631);
#624=PRESENTATION_STYLE_ASSIGNMENT((#625));
#625=SURFACE_STYLE_USAGE(.BOTH.,#626);
#626=SURFACE_SIDE_STYLE('',(#627));
#627=SURFACE_STYLE_FILL_AREA(#628);
#628=FILL_AREA_STYLE('',(#629));
#629=FILL_AREA_STYLE_COLOUR('',#630);
#630=COLOUR_RGB('',0.506983280181885,0.531564235687256,0.550000011920929);
#631=MANIFOLD_SOLID_BREP('',#622);
#632=SHAPE_DEFINITION_REPRESENTATION(#1068,#633);
#633=SHAPE_REPRESENTATION('ScrollSawSandingEnds',(#634),#1063);
#634=AXIS2_PLACEMENT_3D('',#860,#688,#689);
#635=AXIS2_PLACEMENT_3D('',#871,#690,#691);
#636=AXIS2_PLACEMENT_3D('',#876,#693,#694);
#637=AXIS2_PLACEMENT_3D('',#880,#696,#697);
#638=AXIS2_PLACEMENT_3D('',#884,#699,#700);
#639=AXIS2_PLACEMENT_3D('',#887,#702,#703);
#640=AXIS2_PLACEMENT_3D('',#893,#707,#708);
#641=AXIS2_PLACEMENT_3D('',#902,#713,#714);
#642=AXIS2_PLACEMENT_3D('',#906,#716,#717);
#643=AXIS2_PLACEMENT_3D('',#910,#719,#720);
#644=AXIS2_PLACEMENT_3D('',#911,#721,#722);
#645=AXIS2_PLACEMENT_3D('',#917,#726,#727);
#646=AXIS2_PLACEMENT_3D('',#926,#732,#733);
#647=AXIS2_PLACEMENT_3D('',#927,#734,#735);
#648=AXIS2_PLACEMENT_3D('',#933,#739,#740);
#649=AXIS2_PLACEMENT_3D('',#934,#741,#742);
#650=AXIS2_PLACEMENT_3D('',#940,#746,#747);
#651=AXIS2_PLACEMENT_3D('',#944,#749,#750);
#652=AXIS2_PLACEMENT_3D('',#949,#753,#754);
#653=AXIS2_PLACEMENT_3D('',#953,#757,#758);
#654=AXIS2_PLACEMENT_3D('',#954,#759,#760);
#655=AXIS2_PLACEMENT_3D('',#962,#764,#765);
#656=AXIS2_PLACEMENT_3D('',#966,#768,#769);
#657=AXIS2_PLACEMENT_3D('',#1000,#779,#780);
#658=AXIS2_PLACEMENT_3D('',#1015,#788,#789);
#659=AXIS2_PLACEMENT_3D('',#1019,#793,#794);
#660=AXIS2_PLACEMENT_3D('',#1022,#796,#797);
#661=AXIS2_PLACEMENT_3D('',#1023,#798,#799);
#662=AXIS2_PLACEMENT_3D('',#1027,#801,#802);
#663=AXIS2_PLACEMENT_3D('',#1028,#803,#804);
#664=AXIS2_PLACEMENT_3D('',#1029,#805,#806);
#665=AXIS2_PLACEMENT_3D('',#1030,#807,#808);
#666=AXIS2_PLACEMENT_3D('',#1031,#809,#810);
#667=AXIS2_PLACEMENT_3D('',#1035,#812,#813);
#668=AXIS2_PLACEMENT_3D('',#1036,#814,#815);
#669=AXIS2_PLACEMENT_3D('',#1037,#816,#817);
#670=AXIS2_PLACEMENT_3D('',#1039,#819,#820);
#671=AXIS2_PLACEMENT_3D('',#1041,#822,#823);
#672=AXIS2_PLACEMENT_3D('',#1042,#824,#825);
#673=AXIS2_PLACEMENT_3D('',#1043,#826,#827);
#674=AXIS2_PLACEMENT_3D('',#1046,#830,#831);
#675=AXIS2_PLACEMENT_3D('',#1047,#832,#833);
#676=AXIS2_PLACEMENT_3D('',#1048,#834,#835);
#677=AXIS2_PLACEMENT_3D('',#1049,#836,#837);
#678=AXIS2_PLACEMENT_3D('',#1050,#838,#839);
#679=AXIS2_PLACEMENT_3D('',#1051,#840,#841);
#680=AXIS2_PLACEMENT_3D('',#1052,#842,#843);
#681=AXIS2_PLACEMENT_3D('',#1054,#845,#846);
#682=AXIS2_PLACEMENT_3D('',#1056,#848,#849);
#683=AXIS2_PLACEMENT_3D('',#1057,#850,#851);
#684=AXIS2_PLACEMENT_3D('',#1058,#852,#853);
#685=AXIS2_PLACEMENT_3D('',#1059,#854,#855);
#686=AXIS2_PLACEMENT_3D('',#1060,#856,#857);
#687=AXIS2_PLACEMENT_3D('',#1061,#858,#859);
#688=DIRECTION('',(0.,0.,1.));
#689=DIRECTION('',(1.,0.,0.));
#690=DIRECTION('',(0.,1.,0.));
#691=DIRECTION('',(-1.,0.,6.12323399571021E-17));
#692=DIRECTION('',(0.,-1.,0.));
#693=DIRECTION('',(0.,1.,0.));
#694=DIRECTION('',(-1.,0.,6.12323399571021E-17));
#695=DIRECTION('',(0.,-1.,0.));
#696=DIRECTION('',(0.,1.,0.));
#697=DIRECTION('',(-1.,0.,6.12323399571021E-17));
#698=DIRECTION('',(0.,-1.,0.));
#699=DIRECTION('',(0.,1.,0.));
#700=DIRECTION('',(-1.,0.,6.12323399571021E-17));
#701=DIRECTION('',(0.,-1.,0.));
#702=DIRECTION('',(0.758182476027172,0.,0.652042431936225));
#703=DIRECTION('',(0.652042431936225,0.,-0.758182476027172));
#704=DIRECTION('',(0.652042431936225,0.,-0.758182476027172));
#705=DIRECTION('',(-0.652042422506091,0.,0.758182484137156));
#706=DIRECTION('',(0.,-1.,0.));
#707=DIRECTION('',(-0.758182476027171,0.,0.652042431936226));
#708=DIRECTION('',(0.652042431936226,0.,0.758182476027171));
#709=DIRECTION('',(-0.652042431936226,0.,-0.758182476027171));
#710=DIRECTION('',(0.,-1.,0.));
#711=DIRECTION('',(0.652042431936226,0.,0.758182476027171));
#712=DIRECTION('',(0.,-1.,0.));
#713=DIRECTION('',(0.,-1.,0.));
#714=DIRECTION('',(0.,0.,-1.));
#715=DIRECTION('',(0.,-1.,0.));
#716=DIRECTION('',(0.,1.,0.));
#717=DIRECTION('',(0.,0.,1.));
#718=DIRECTION('',(0.,-1.,0.));
#719=DIRECTION('',(0.,-1.,0.));
#720=DIRECTION('',(1.,0.,0.));
#721=DIRECTION('',(0.758182476027172,0.,0.652042431936225));
#722=DIRECTION('',(0.652042431936225,0.,-0.758182476027172));
#723=DIRECTION('',(0.652042431936225,0.,-0.758182476027172));
#724=DIRECTION('',(0.,-1.,0.));
#725=DIRECTION('',(-0.652042431936225,0.,0.758182476027172));
#726=DIRECTION('',(-0.758182476027171,0.,0.652042431936226));
#727=DIRECTION('',(0.652042431936226,0.,0.758182476027171));
#728=DIRECTION('',(0.652042431936226,0.,0.758182476027171));
#729=DIRECTION('',(0.,-1.,0.));
#730=DIRECTION('',(-0.652042431936226,0.,-0.758182476027171));
#731=DIRECTION('',(0.,-1.,0.));
#732=DIRECTION('',(0.,1.,0.));
#733=DIRECTION('',(0.,0.,1.));
#734=DIRECTION('',(0.,1.,0.));
#735=DIRECTION('',(0.,0.,1.));
#736=DIRECTION('',(-1.,0.,3.43899976719019E-10));
#737=DIRECTION('',(4.3727482695599E-10,0.,1.));
#738=DIRECTION('',(1.,0.,-3.43896954163669E-10));
#739=DIRECTION('',(0.,1.,0.));
#740=DIRECTION('',(0.,0.,1.));
#741=DIRECTION('',(0.,1.,0.));
#742=DIRECTION('',(0.,0.,1.));
#743=DIRECTION('',(-1.,0.,3.43899976719019E-10));
#744=DIRECTION('',(-4.3727482695599E-10,0.,-1.));
#745=DIRECTION('',(1.,0.,-3.4389972918901E-10));
#746=DIRECTION('',(0.,-1.,0.));
#747=DIRECTION('',(0.,0.,-1.));
#748=DIRECTION('',(-1.,0.,4.37273808981108E-10));
#749=DIRECTION('',(0.,-1.,0.));
#750=DIRECTION('',(0.,0.,-1.));
#751=DIRECTION('',(-1.09563053601005E-16,0.,1.));
#752=DIRECTION('',(-1.,0.,3.4389972918901E-10));
#753=DIRECTION('',(0.,-1.,0.));
#754=DIRECTION('',(0.,0.,-1.));
#755=DIRECTION('',(1.,0.,-3.43896954163669E-10));
#756=DIRECTION('',(-1.09563052903371E-16,0.,-1.));
#757=DIRECTION('',(0.,-1.,0.));
#758=DIRECTION('',(0.,0.,-1.));
#759=DIRECTION('',(0.,-1.,0.));
#760=DIRECTION('',(0.,0.,-1.));
#761=DIRECTION('',(-1.,0.,4.3780757892579E-10));
#762=DIRECTION('',(-4.3727482695599E-10,0.,-1.));
#763=DIRECTION('',(-1.,0.,3.43899976719019E-10));
#764=DIRECTION('',(0.,-1.,0.));
#765=DIRECTION('',(0.,0.,-1.));
#766=DIRECTION('',(-1.,0.,3.4389972918901E-10));
#767=DIRECTION('',(-1.09563053601005E-16,0.,1.));
#768=DIRECTION('',(1.,0.,1.09563053601005E-16));
#769=DIRECTION('',(1.09563053601005E-16,0.,-1.));
#770=DIRECTION('',(0.,0.,-1.));
#771=DIRECTION('',(0.,-1.,0.));
#772=DIRECTION('',(0.,-1.,0.));
#773=DIRECTION('',(0.,-1.,0.));
#774=DIRECTION('',(0.,0.,-1.));
#775=DIRECTION('',(-1.09563053601005E-16,0.,1.));
#776=DIRECTION('',(0.,-1.,0.));
#777=DIRECTION('',(1.09563053601005E-16,0.,-1.));
#778=DIRECTION('',(0.,-1.,0.));
#779=DIRECTION('',(-1.,0.,4.3727482695599E-10));
#780=DIRECTION('',(4.3727482695599E-10,0.,1.));
#781=DIRECTION('',(2.71050511636907E-16,0.,1.));
#782=DIRECTION('',(0.,-1.,0.));
#783=DIRECTION('',(4.3727482695599E-10,0.,1.));
#784=DIRECTION('',(0.,1.,0.));
#785=DIRECTION('',(-4.3727482695599E-10,0.,-1.));
#786=DIRECTION('',(2.71050511636907E-16,0.,1.));
#787=DIRECTION('',(0.,-1.,0.));
#788=DIRECTION('',(-1.,0.,4.3727482695599E-10));
#789=DIRECTION('',(4.3727482695599E-10,0.,1.));
#790=DIRECTION('',(0.,-1.,0.));
#791=DIRECTION('',(0.,-1.,0.));
#792=DIRECTION('',(0.,1.,0.));
#793=DIRECTION('',(-1.,0.,4.3727482695599E-10));
#794=DIRECTION('',(4.3727482695599E-10,0.,1.));
#795=DIRECTION('',(0.,1.,0.));
#796=DIRECTION('',(0.,-1.,0.));
#797=DIRECTION('',(0.,0.,-1.));
#798=DIRECTION('',(0.,-1.,0.));
#799=DIRECTION('',(0.,0.,-1.));
#800=DIRECTION('',(0.,-1.,0.));
#801=DIRECTION('',(0.,-1.,0.));
#802=DIRECTION('',(1.,0.,0.));
#803=DIRECTION('',(0.,-1.,0.));
#804=DIRECTION('',(0.,0.,-1.));
#805=DIRECTION('',(0.,-1.,0.));
#806=DIRECTION('',(1.,0.,0.));
#807=DIRECTION('',(0.,-1.,0.));
#808=DIRECTION('',(0.,0.,-1.));
#809=DIRECTION('',(0.,-1.,0.));
#810=DIRECTION('',(0.,0.,-1.));
#811=DIRECTION('',(0.,1.,0.));
#812=DIRECTION('',(0.,-1.,0.));
#813=DIRECTION('',(0.,0.,-1.));
#814=DIRECTION('',(0.,-1.,0.));
#815=DIRECTION('',(1.,0.,0.));
#816=DIRECTION('',(0.,-1.,0.));
#817=DIRECTION('',(0.,0.,-1.));
#818=DIRECTION('',(-1.,0.,4.37273808981108E-10));
#819=DIRECTION('',(0.,-1.,0.));
#820=DIRECTION('',(0.,0.,-1.));
#821=DIRECTION('',(-1.,0.,4.3780757892579E-10));
#822=DIRECTION('',(0.,-1.,0.));
#823=DIRECTION('',(0.,0.,-1.));
#824=DIRECTION('',(0.,-1.,0.));
#825=DIRECTION('',(0.,0.,-1.));
#826=DIRECTION('',(-1.09563053601005E-16,0.,1.));
#827=DIRECTION('',(1.,0.,1.09563053601005E-16));
#828=DIRECTION('',(1.,0.,1.09563053601005E-16));
#829=DIRECTION('',(1.,0.,1.09563053601005E-16));
#830=DIRECTION('',(0.,1.,0.));
#831=DIRECTION('',(0.,0.,1.));
#832=DIRECTION('',(0.,-1.,0.));
#833=DIRECTION('',(0.,0.,-1.));
#834=DIRECTION('',(3.4389972918901E-10,0.,1.));
#835=DIRECTION('',(1.,0.,-3.4389972918901E-10));
#836=DIRECTION('',(3.4389972918901E-10,0.,1.));
#837=DIRECTION('',(1.,0.,-3.4389972918901E-10));
#838=DIRECTION('',(-3.43899976719019E-10,0.,-1.));
#839=DIRECTION('',(-1.,0.,3.43899976719019E-10));
#840=DIRECTION('',(-3.43896954163669E-10,0.,-1.));
#841=DIRECTION('',(-1.,0.,3.43896954163669E-10));
#842=DIRECTION('',(4.37273808981108E-10,0.,1.));
#843=DIRECTION('',(1.,0.,-4.37273808981108E-10));
#844=DIRECTION('',(-1.,0.,4.37273808981108E-10));
#845=DIRECTION('',(-4.3780757892579E-10,0.,-1.));
#846=DIRECTION('',(-1.,0.,4.3780757892579E-10));
#847=DIRECTION('',(-1.,0.,4.3780757892579E-10));
#848=DIRECTION('',(-1.,0.,4.37273808981108E-10));
#849=DIRECTION('',(4.37273808981108E-10,0.,1.));
#850=DIRECTION('',(1.,0.,-1.83697016643289E-16));
#851=DIRECTION('',(-1.83697016643289E-16,0.,-1.));
#852=DIRECTION('',(0.,-1.,0.));
#853=DIRECTION('',(0.,0.,-1.));
#854=DIRECTION('',(0.,-1.,0.));
#855=DIRECTION('',(0.,0.,-1.));
#856=DIRECTION('',(-1.,0.,4.37807578925788E-10));
#857=DIRECTION('',(4.37807578925788E-10,0.,1.));
#858=DIRECTION('',(-1.,0.,4.3780757892579E-10));
#859=DIRECTION('',(4.3780757892579E-10,0.,1.));
#860=CARTESIAN_POINT('',(0.,0.,0.));
#861=CARTESIAN_POINT('',(-2.5760738380798,2.5,2.99540946482896));
#862=CARTESIAN_POINT('',(-2.5760738380798,-2.5,2.99540946482896));
#863=CARTESIAN_POINT('',(-2.47075280796168,2.5,3.32070053955708));
#864=CARTESIAN_POINT('',(-2.47075280796168,-2.5,3.32070053955708));
#865=CARTESIAN_POINT('',(-1.36079484744518,2.5,3.92096766679561));
#866=CARTESIAN_POINT('',(-1.36079484744518,-2.5,3.92096766679561));
#867=CARTESIAN_POINT('',(0.551795265779531,2.5,3.90231949766794));
#868=CARTESIAN_POINT('',(0.551795265779531,-2.5,3.90231949766794));
#869=CARTESIAN_POINT('',(1.29025343614017,2.5,3.73939407188402));
#870=CARTESIAN_POINT('',(1.29025343614017,-2.5,3.73939407188402));
#871=CARTESIAN_POINT('',(-1.28217748918136E-11,0.5,2.87164919201183));
#872=CARTESIAN_POINT('',(-1.29025343214352,0.5,3.73939407277146));
#873=CARTESIAN_POINT('',(-2.5760738380798,0.5,2.99540946482896));
#874=CARTESIAN_POINT('',(-1.29025343214352,2.5,3.73939407277146));
#875=CARTESIAN_POINT('',(-1.29025343214352,-0.5,3.73939407277146));
#876=CARTESIAN_POINT('',(-1.28217748918136E-11,-0.5,2.87164919201183));
#877=CARTESIAN_POINT('',(-2.5760738380798,-0.5,2.99540946482896));
#878=CARTESIAN_POINT('',(-2.5760738380798,2.5,2.99540946482896));
#879=CARTESIAN_POINT('',(-2.5760738380798,-2.5,2.99540946482896));
#880=CARTESIAN_POINT('',(-1.28217748918136E-11,-2.5,2.87164919201183));
#881=CARTESIAN_POINT('',(1.29025343614017,-2.5,3.73939407188402));
#882=CARTESIAN_POINT('',(1.29025343614017,2.5,3.73939407188402));
#883=CARTESIAN_POINT('',(1.29025343614017,2.5,3.73939407188402));
#884=CARTESIAN_POINT('',(-1.28217748918136E-11,2.5,2.87164919201183));
#885=CARTESIAN_POINT('',(-2.5760738380798,2.5,2.99540946482896));
#886=CARTESIAN_POINT('',(-2.5760738380798,2.5,2.99540946482896));
#887=CARTESIAN_POINT('',(-1.87474935491894,2.5,2.17992276166699));
#888=CARTESIAN_POINT('',(-1.87474935491894,0.5,2.17992276166699));
#889=CARTESIAN_POINT('',(-0.189545619019617,0.5,0.220400070328778));
#890=CARTESIAN_POINT('',(-2.3596296527646E-8,2.5,2.03005828353537E-8));
#891=CARTESIAN_POINT('',(-0.189545643391801,2.5,0.220400049368523));
#892=CARTESIAN_POINT('',(-0.189545619019617,2.5,0.220400070328778));
#893=CARTESIAN_POINT('',(1.87474935489329,2.5,2.17992276166699));
#894=CARTESIAN_POINT('',(1.87474935489329,2.5,2.17992276166699));
#895=CARTESIAN_POINT('',(2.57607383805427,2.5,2.99540946482895));
#896=CARTESIAN_POINT('',(0.189545618993969,2.5,0.220400070328777));
#897=CARTESIAN_POINT('',(2.57607383805416,2.24882248202731,2.99540946482895));
#898=CARTESIAN_POINT('',(2.57607383805416,0.5,2.99540946482895));
#899=CARTESIAN_POINT('',(1.87474935489329,0.5,2.17992276166699));
#900=CARTESIAN_POINT('',(0.189545618993969,0.5,0.220400070328778));
#901=CARTESIAN_POINT('',(0.189545618993969,2.5,0.220400070328778));
#902=CARTESIAN_POINT('',(-2.3596296527646E-8,3.15,-18.2499999797038));
#903=CARTESIAN_POINT('',(3.14999995280699,3.15,-19.0500000726295));
#904=CARTESIAN_POINT('',(3.14999995280699,3.15,-19.0500000726295));
#905=CARTESIAN_POINT('',(3.14999995280699,0.375,-19.0500000726295));
#906=CARTESIAN_POINT('',(-2.3596296527646E-8,0.375,-18.2499999797038));
#907=CARTESIAN_POINT('',(-3.15,0.375,-19.0500000726279));
#908=CARTESIAN_POINT('',(-3.15,3.15,-19.0500000726279));
#909=CARTESIAN_POINT('',(-3.15,3.15,-19.0500000726279));
#910=CARTESIAN_POINT('',(-2.3596296527646E-8,3.15,-18.2499999797038));
#911=CARTESIAN_POINT('',(-1.87474935491894,2.5,2.17992276166699));
#912=CARTESIAN_POINT('',(-1.87474935491894,-0.5,2.17992276166699));
#913=CARTESIAN_POINT('',(-0.189545619019617,-0.5,0.220400070328778));
#914=CARTESIAN_POINT('',(-0.189545619019617,2.5,0.220400070328778));
#915=CARTESIAN_POINT('',(-0.189545619019617,-2.5,0.220400070328778));
#916=CARTESIAN_POINT('',(-1.87474935491894,-2.5,2.17992276166699));
#917=CARTESIAN_POINT('',(1.87474935489329,2.5,2.17992276166699));
#918=CARTESIAN_POINT('',(1.87474935489329,-0.5,2.17992276166699));
#919=CARTESIAN_POINT('',(0.189545618993969,-0.5,0.220400070328778));
#920=CARTESIAN_POINT('',(2.57607383805416,-0.5,2.99540946482895));
#921=CARTESIAN_POINT('',(2.57607383805416,2.5,2.99540946482895));
#922=CARTESIAN_POINT('',(2.57607383805416,-2.5,2.99540946482895));
#923=CARTESIAN_POINT('',(1.87474935489329,-2.5,2.17992276166699));
#924=CARTESIAN_POINT('',(0.189545618993969,-2.5,0.220400070328777));
#925=CARTESIAN_POINT('',(0.189545618993969,2.5,0.220400070328778));
#926=CARTESIAN_POINT('',(-1.28217748918136E-11,2.5,2.87164919201183));
#927=CARTESIAN_POINT('',(-1.28232927748551E-11,2.5,0.383410678312834));
#928=CARTESIAN_POINT('',(3.14999996009402,2.5,3.73939407124446));
#929=CARTESIAN_POINT('',(3.14999996009402,2.5,3.73939407124446));
#930=CARTESIAN_POINT('',(3.14999996190991,2.5,3.3674017678244));
#931=CARTESIAN_POINT('',(3.14999996174725,2.5,2.99540946463158));
#932=CARTESIAN_POINT('',(3.14999996174725,2.5,2.99540946463158));
#933=CARTESIAN_POINT('',(-1.28217748918136E-11,-2.5,2.87164919201183));
#934=CARTESIAN_POINT('',(-1.28232927748551E-11,-2.5,0.383410678312834));
#935=CARTESIAN_POINT('',(2.97393803534011E-11,-2.5,2.99540946571487));
#936=CARTESIAN_POINT('',(3.14999996174725,-2.5,2.99540946463158));
#937=CARTESIAN_POINT('',(3.14999995918173,-2.5,-2.87164917835957));
#938=CARTESIAN_POINT('',(3.14999996009402,-2.5,3.73939407124446));
#939=CARTESIAN_POINT('',(3.14999996009402,-2.5,3.73939407124446));
#940=CARTESIAN_POINT('',(-1.28217748918136E-11,0.5,2.87164919201183));
#941=CARTESIAN_POINT('',(-7.39035207200085E-9,0.5,-13.9999999797038));
#942=CARTESIAN_POINT('',(3.14999995918173,0.5,-13.9999999810812));
#943=CARTESIAN_POINT('',(-2.35962957469352E-8,0.5,-13.9999999797038));
#944=CARTESIAN_POINT('',(-2.3596296527646E-8,0.5,-18.2499999797038));
#945=CARTESIAN_POINT('',(-3.15000000637433,0.5,-15.396931437147));
#946=CARTESIAN_POINT('',(-3.15000000637433,0.5,-2.87164917835957));
#947=CARTESIAN_POINT('',(-3.15000000546204,0.5,3.73939407341102));
#948=CARTESIAN_POINT('',(3.14999996009402,0.5,3.73939407124446));
#949=CARTESIAN_POINT('',(-1.28232927748551E-11,0.5,0.383410678312834));
#950=CARTESIAN_POINT('',(3.14999996174725,0.5,2.99540946463158));
#951=CARTESIAN_POINT('',(3.14999996174725,0.5,2.99540946463158));
#952=CARTESIAN_POINT('',(3.14999995918173,0.5,-2.87164917835957));
#953=CARTESIAN_POINT('',(-1.28217748918136E-11,-0.5,2.87164919201183));
#954=CARTESIAN_POINT('',(-2.3596296527646E-8,-0.5,-18.2499999797038));
#955=CARTESIAN_POINT('',(-3.15000000637433,-0.5,-15.396931437147));
#956=CARTESIAN_POINT('',(-2.17356091696123E-8,-0.5,-13.9999999797004));
#957=CARTESIAN_POINT('',(-7.39935765124519E-9,-0.5,-13.9999999797021));
#958=CARTESIAN_POINT('',(3.14999995431559,-0.5,-13.9999999810812));
#959=CARTESIAN_POINT('',(3.14999995918173,-0.5,-2.87164917835957));
#960=CARTESIAN_POINT('',(3.14999996174725,-0.5,2.99540946473027));
#961=CARTESIAN_POINT('',(2.97393803534011E-11,-0.5,2.99540946571487));
#962=CARTESIAN_POINT('',(-1.28232927748551E-11,-0.5,0.383410678312834));
#963=CARTESIAN_POINT('',(3.14999996009402,-0.5,3.73939407124446));
#964=CARTESIAN_POINT('',(-3.15000000546204,-0.5,3.73939407341102));
#965=CARTESIAN_POINT('',(-3.15000000637433,-0.5,-2.87164917835957));
#966=CARTESIAN_POINT('',(-3.15000000637433,0.5,-2.87164917835957));
#967=CARTESIAN_POINT('',(-3.15,-3.15,-19.0500000726279));
#968=CARTESIAN_POINT('',(-3.15,-3.15,-17.4499998867797));
#969=CARTESIAN_POINT('',(-3.15,-3.15,-19.0500000726279));
#970=CARTESIAN_POINT('',(-3.15,3.15,-17.4499998867797));
#971=CARTESIAN_POINT('',(-3.15,-1.5,-17.4499998867797));
#972=CARTESIAN_POINT('',(-3.15,-1.5,-17.4499998867797));
#973=CARTESIAN_POINT('',(-3.15,-1.39739815564816,-17.4499998867797));
#974=CARTESIAN_POINT('',(-3.15000000925698,-1.2220904743143,-17.3242895911168));
#975=CARTESIAN_POINT('',(-3.15000000470969,-0.980851574701014,-17.0068406131151));
#976=CARTESIAN_POINT('',(-3.15000000694274,-0.747375745888346,-16.5651360244778));
#977=CARTESIAN_POINT('',(-3.15000000621192,-0.553366913130299,-15.9944896925839));
#978=CARTESIAN_POINT('',(-3.15000000637433,-0.499999999999999,-15.5984527810724));
#979=CARTESIAN_POINT('',(-3.15000000637433,-0.499999999999999,-15.396931437147));
#980=CARTESIAN_POINT('',(-3.15000000546204,0.5,3.73939407341102));
#981=CARTESIAN_POINT('',(-3.15000000637433,0.5,-15.396931437147));
#982=CARTESIAN_POINT('',(-3.15000000637433,0.5,-15.5985234421763));
#983=CARTESIAN_POINT('',(-3.15000000637432,0.553065193780396,-15.992935366845));
#984=CARTESIAN_POINT('',(-3.15000000637433,0.747052181123713,-16.5645866676972));
#985=CARTESIAN_POINT('',(-3.15000000637433,0.981101712106977,-17.0075016856969));
#986=CARTESIAN_POINT('',(-3.15000000637433,1.22335408210925,-17.3256296429403));
#987=CARTESIAN_POINT('',(-3.15000000637433,1.39793869793909,-17.4499999093963));
#988=CARTESIAN_POINT('',(-3.15000000637433,1.49999999401326,-17.4499999118786));
#989=CARTESIAN_POINT('',(-3.15,1.5,-17.4499998867797));
#990=CARTESIAN_POINT('',(-3.15,3.15,-17.4499998867797));
#991=CARTESIAN_POINT('',(-3.15,3.15,-17.4499998867797));
#992=CARTESIAN_POINT('',(-3.15,3.15,-19.0500000726279));
#993=CARTESIAN_POINT('',(-3.15000000637433,0.375,-2.87164917835957));
#994=CARTESIAN_POINT('',(-3.15000000637433,0.375,-16.2400160946994));
#995=CARTESIAN_POINT('',(-3.15000000637433,0.5,-16.2400160946994));
#996=CARTESIAN_POINT('',(-3.15000000637433,-0.375,-16.2400160946994));
#997=CARTESIAN_POINT('',(-3.15000000637433,-0.375,-2.87164917835957));
#998=CARTESIAN_POINT('',(-3.15,-0.375,-19.0500000726279));
#999=CARTESIAN_POINT('',(-3.15,3.15,-19.0500000726279));
#1000=CARTESIAN_POINT('',(3.14999995918173,0.5,-2.87164917835957));
#1001=CARTESIAN_POINT('',(3.14999995280699,-3.15,-17.449999886778));
#1002=CARTESIAN_POINT('',(3.14999995280699,-3.15,-19.0500000726295));
#1003=CARTESIAN_POINT('',(3.14999995387831,-3.15,-14.9999999810812));
#1004=CARTESIAN_POINT('',(3.14999995280699,3.15,-19.0500000726295));
#1005=CARTESIAN_POINT('',(3.14999995280699,-0.375,-19.0500000726295));
#1006=CARTESIAN_POINT('',(3.14999995918173,-0.375,-2.87164917835957));
#1007=CARTESIAN_POINT('',(3.14999995283104,-0.375,-16.2400160946994));
#1008=CARTESIAN_POINT('',(3.14999995355472,0.5,-16.2400160946994));
#1009=CARTESIAN_POINT('',(3.14999995333608,0.375,-16.2400160946994));
#1010=CARTESIAN_POINT('',(3.14999995918173,0.375,-2.87164917835957));
#1011=CARTESIAN_POINT('',(3.14999995280699,3.15,-17.449999886778));
#1012=CARTESIAN_POINT('',(3.14999995387831,3.15,-14.9999999810812));
#1013=CARTESIAN_POINT('',(3.14999995387831,3.01380958179113,-14.9999999810812));
#1014=CARTESIAN_POINT('',(3.14999995387831,1.5,-14.9999999810812));
#1015=CARTESIAN_POINT('',(3.14999995431559,1.5,-13.9999999810812));
#1016=CARTESIAN_POINT('',(3.14999996174725,2.24882248202731,2.99540946463158));
#1017=CARTESIAN_POINT('',(3.14999996009402,0.5,3.73939407124446));
#1018=CARTESIAN_POINT('',(3.14999996174725,-2.37584131075557,2.99540946463158));
#1019=CARTESIAN_POINT('',(3.14999995431559,-1.5,-13.9999999810812));
#1020=CARTESIAN_POINT('',(3.14999995387831,-1.5,-14.9999999810812));
#1021=CARTESIAN_POINT('',(3.14999995387831,-2.75901113968222,-14.9999999810812));
#1022=CARTESIAN_POINT('',(-2.3596296527646E-8,3.15,-18.2499999797038));
#1023=CARTESIAN_POINT('',(-2.3596296527646E-8,1.5,-18.2499999797038));
#1024=CARTESIAN_POINT('',(-2.35962959306307E-8,1.5,-14.9999999797038));
#1025=CARTESIAN_POINT('',(-2.35962959306307E-8,3.01380958179113,-14.9999999797038));
#1026=CARTESIAN_POINT('',(-2.35962959306307E-8,3.15,-14.9999999797021));
#1027=CARTESIAN_POINT('',(-2.3596296527646E-8,3.15,-18.2499999797038));
#1028=CARTESIAN_POINT('',(-2.3596296527646E-8,3.15,-18.2499999797038));
#1029=CARTESIAN_POINT('',(-2.3596296527646E-8,-3.15,-18.2499999797038));
#1030=CARTESIAN_POINT('',(-2.3596296527646E-8,-0.375,-18.2499999797038));
#1031=CARTESIAN_POINT('',(-2.3596296527646E-8,3.15,-18.2499999797038));
#1032=CARTESIAN_POINT('',(-2.21734167485388E-8,-2.75901113968222,-14.9999999797021));
#1033=CARTESIAN_POINT('',(-2.21734167485384E-8,-3.15,-14.9999999797013));
#1034=CARTESIAN_POINT('',(-2.21734167485388E-8,-1.5,-14.9999999797021));
#1035=CARTESIAN_POINT('',(-2.3596296527646E-8,-1.5,-18.2499999797038));
#1036=CARTESIAN_POINT('',(-2.3596296527646E-8,-3.15,-18.2499999797038));
#1037=CARTESIAN_POINT('',(-2.3596296527646E-8,3.15,-18.2499999797038));
#1038=CARTESIAN_POINT('',(-2.35962959306307E-8,3.15,-14.9999999797038));
#1039=CARTESIAN_POINT('',(-2.3596296527646E-8,-3.15,-18.2499999797038));
#1040=CARTESIAN_POINT('',(3.14999995387831,-3.15,-14.9999999810812));
#1041=CARTESIAN_POINT('',(-1.28232927748551E-11,2.5,0.383410678312834));
#1042=CARTESIAN_POINT('',(-1.28232927748551E-11,2.5,0.383410678312834));
#1043=CARTESIAN_POINT('',(-14.5367237793685,0.375,-16.2400160946994));
#1044=CARTESIAN_POINT('',(-14.5367237793685,0.375,-16.2400160946994));
#1045=CARTESIAN_POINT('',(-14.5367237793685,-0.375,-16.2400160946994));
#1046=CARTESIAN_POINT('',(-14.5367237793685,0.375,-21.4999999797072));
#1047=CARTESIAN_POINT('',(-14.5367237793685,-0.375,-15.7400160946994));
#1048=CARTESIAN_POINT('',(3.14999996009402,0.5,3.73939407124446));
#1049=CARTESIAN_POINT('',(3.14999996009402,0.5,3.73939407124446));
#1050=CARTESIAN_POINT('',(2.97393803534011E-11,-2.37584131075557,2.99540946571487));
#1051=CARTESIAN_POINT('',(3.14999996174725,2.24882248202731,2.99540946463158));
#1052=CARTESIAN_POINT('',(-2.35962959306307E-8,3.01380958179113,-14.9999999797038));
#1053=CARTESIAN_POINT('',(-2.35962959306307E-8,1.5,-14.9999999797038));
#1054=CARTESIAN_POINT('',(3.14999995387831,-2.75901113968222,-14.9999999810812));
#1055=CARTESIAN_POINT('',(3.14999995387831,-1.5,-14.9999999810812));
#1056=CARTESIAN_POINT('',(-7.39035207200085E-9,1.5,-13.9999999797038));
#1057=CARTESIAN_POINT('',(-2.35962957469352E-8,1.5,-13.9999999797038));
#1058=CARTESIAN_POINT('',(-2.3596296527646E-8,1.5,-18.2499999797038));
#1059=CARTESIAN_POINT('',(-2.3596296527646E-8,-1.5,-18.2499999797038));
#1060=CARTESIAN_POINT('',(-2.17356091696123E-8,-1.5,-13.9999999797004));
#1061=CARTESIAN_POINT('',(3.14999995431612,-1.5,-13.9999999810812));
#1062=MECHANICAL_DESIGN_GEOMETRIC_PRESENTATION_REPRESENTATION('',(#623),
#1063);
#1063=(
GEOMETRIC_REPRESENTATION_CONTEXT(3)
GLOBAL_UNCERTAINTY_ASSIGNED_CONTEXT((#1064))
GLOBAL_UNIT_ASSIGNED_CONTEXT((#1067,#1066,#1065))
REPRESENTATION_CONTEXT('ScrollSawSandingEnds','TOP_LEVEL_ASSEMBLY_PART')
);
#1064=UNCERTAINTY_MEASURE_WITH_UNIT(LENGTH_MEASURE(0.005),#1067,
'DISTANCE_ACCURACY_VALUE','Maximum Tolerance applied to model');
#1065=(
NAMED_UNIT(*)
SI_UNIT($,.STERADIAN.)
SOLID_ANGLE_UNIT()
);
#1066=(
NAMED_UNIT(*)
PLANE_ANGLE_UNIT()
SI_UNIT($,.RADIAN.)
);
#1067=(
LENGTH_UNIT()
NAMED_UNIT(*)
SI_UNIT(.MILLI.,.METRE.)
);
#1068=PRODUCT_DEFINITION_SHAPE('','',#1069);
#1069=PRODUCT_DEFINITION('','',#1071,#1070);
#1070=PRODUCT_DEFINITION_CONTEXT('',#1077,'design');
#1071=PRODUCT_DEFINITION_FORMATION_WITH_SPECIFIED_SOURCE('','',#1073,
 .NOT_KNOWN.);
#1072=PRODUCT_RELATED_PRODUCT_CATEGORY('','',(#1073));
#1073=PRODUCT('ScrollSawSandingEnds','ScrollSawSandingEnds',
'ScrollSawSandingEnds',(#1075));
#1074=PRODUCT_CATEGORY('','');
#1075=PRODUCT_CONTEXT('',#1077,'mechanical');
#1076=APPLICATION_PROTOCOL_DEFINITION('international standard',
'automotive_design',2010,#1077);
#1077=APPLICATION_CONTEXT(
'core data for automotive mechanical design processes');
ENDSEC;
END-ISO-10303-21;
