999
"DXF R12 Output" (www.mydxf.blogspot.com)
 0 
SECTION
 2 
HEADER
 9 
$ACADVER
 1 
AC1009
 9 
$EXTMIN
 10 
 0 
 20 
 0 
 9 
$EXTMAX
 10 
 8.5 
 20 
 11 
 0 
ENDSEC
 0 
SECTION
 2 
ENTITIES
0
LINE
8
Layer 1
10
102.739870
20
182.938077
11
99.880979
21
182.830769
0
LINE
8
Layer 1
10
99.880979
20
182.830769
11
97.066965
21
182.513055
0
LINE
8
Layer 1
10
97.066965
20
182.513055
11
94.307283
21
181.991252
0
LINE
8
Layer 1
10
94.307283
20
181.991252
11
91.611384
21
181.271675
0
LINE
8
Layer 1
10
91.611384
20
181.271675
11
88.988721
21
180.360640
0
LINE
8
Layer 1
10
88.988721
20
180.360640
11
86.448747
21
179.264465
0
LINE
8
Layer 1
10
86.448747
20
179.264465
11
84.000914
21
177.989464
0
LINE
8
Layer 1
10
84.000914
20
177.989464
11
81.654676
21
176.541953
0
LINE
8
Layer 1
10
81.654676
20
176.541953
11
79.419484
21
174.928250
0
LINE
8
Layer 1
10
79.419484
20
174.928250
11
77.304792
21
173.154669
0
LINE
8
Layer 1
10
77.304792
20
173.154669
11
75.320051
21
171.227527
0
LINE
8
Layer 1
10
75.320051
20
171.227527
11
73.474716
21
169.153140
0
LINE
8
Layer 1
10
73.474716
20
169.153140
11
71.778237
21
166.937825
0
LINE
8
Layer 1
10
71.778237
20
166.937825
11
70.240069
21
164.587896
0
LINE
8
Layer 1
10
70.240069
20
164.587896
11
68.869664
21
162.109671
0
LINE
8
Layer 1
10
68.869664
20
162.109671
11
67.676473
21
159.509464
0
LINE
8
Layer 1
10
67.676473
20
159.509464
11
66.681563
21
156.827128
0
LINE
8
Layer 1
10
66.681563
20
156.827128
11
65.898216
21
154.105735
0
LINE
8
Layer 1
10
65.898216
20
154.105735
11
65.324215
21
151.356435
0
LINE
8
Layer 1
10
65.324215
20
151.356435
11
64.957341
21
148.590379
0
LINE
8
Layer 1
10
64.957341
20
148.590379
11
64.795377
21
145.818717
0
LINE
8
Layer 1
10
64.795377
20
145.818717
11
64.836106
21
143.052599
0
LINE
8
Layer 1
10
64.836106
20
143.052599
11
65.077308
21
140.303174
0
LINE
8
Layer 1
10
65.077308
20
140.303174
11
65.516767
21
137.581594
0
LINE
8
Layer 1
10
65.516767
20
137.581594
11
66.152264
21
134.899009
0
LINE
8
Layer 1
10
66.152264
20
134.899009
11
66.981581
21
132.266568
0
LINE
8
Layer 1
10
66.981581
20
132.266568
11
68.002500
21
129.695422
0
LINE
8
Layer 1
10
68.002500
20
129.695422
11
69.212804
21
127.196720
0
LINE
8
Layer 1
10
69.212804
20
127.196720
11
70.610275
21
124.781614
0
LINE
8
Layer 1
10
70.610275
20
124.781614
11
72.192695
21
122.461253
0
LINE
8
Layer 1
10
72.192695
20
122.461253
11
73.957845
21
120.246788
0
LINE
8
Layer 1
10
73.957845
20
120.246788
11
75.903508
21
118.149368
0
LINE
8
Layer 1
10
75.903508
20
118.149368
11
78.000928
21
116.203705
0
LINE
8
Layer 1
10
78.000928
20
116.203705
11
80.215393
21
114.438555
0
LINE
8
Layer 1
10
80.215393
20
114.438555
11
82.535754
21
112.856135
0
LINE
8
Layer 1
10
82.535754
20
112.856135
11
84.950860
21
111.458664
0
LINE
8
Layer 1
10
84.950860
20
111.458664
11
87.449562
21
110.248360
0
LINE
8
Layer 1
10
87.449562
20
110.248360
11
90.020708
21
109.227441
0
LINE
8
Layer 1
10
90.020708
20
109.227441
11
92.653149
21
108.398124
0
LINE
8
Layer 1
10
92.653149
20
108.398124
11
95.335734
21
107.762627
0
LINE
8
Layer 1
10
95.335734
20
107.762627
11
98.057314
21
107.323168
0
LINE
8
Layer 1
10
98.057314
20
107.323168
11
100.806739
21
107.081966
0
LINE
8
Layer 1
10
100.806739
20
107.081966
11
103.572857
21
107.041237
0
LINE
8
Layer 1
10
103.572857
20
107.041237
11
106.344519
21
107.203201
0
LINE
8
Layer 1
10
106.344519
20
107.203201
11
109.110575
21
107.570075
0
LINE
8
Layer 1
10
109.110575
20
107.570075
11
111.859875
21
108.144076
0
LINE
8
Layer 1
10
111.859875
20
108.144076
11
114.581268
21
108.927423
0
LINE
8
Layer 1
10
114.581268
20
108.927423
11
117.263604
21
109.922333
0
LINE
8
Layer 1
10
117.263604
20
109.922333
11
119.863811
21
111.115524
0
LINE
8
Layer 1
10
119.863811
20
111.115524
11
122.342036
21
112.485929
0
LINE
8
Layer 1
10
122.342036
20
112.485929
11
124.691965
21
114.024097
0
LINE
8
Layer 1
10
124.691965
20
114.024097
11
126.907280
21
115.720576
0
LINE
8
Layer 1
10
126.907280
20
115.720576
11
128.981667
21
117.565911
0
LINE
8
Layer 1
10
128.981667
20
117.565911
11
130.908809
21
119.550652
0
LINE
8
Layer 1
10
130.908809
20
119.550652
11
132.682390
21
121.665344
0
LINE
8
Layer 1
10
132.682390
20
121.665344
11
134.296093
21
123.900536
0
LINE
8
Layer 1
10
134.296093
20
123.900536
11
135.743604
21
126.246774
0
LINE
8
Layer 1
10
135.743604
20
126.246774
11
137.018605
21
128.694607
0
LINE
8
Layer 1
10
137.018605
20
128.694607
11
138.114780
21
131.234581
0
LINE
8
Layer 1
10
138.114780
20
131.234581
11
139.025815
21
133.857244
0
LINE
8
Layer 1
10
139.025815
20
133.857244
11
139.745392
21
136.553143
0
LINE
8
Layer 1
10
139.745392
20
136.553143
11
140.267195
21
139.312825
0
LINE
8
Layer 1
10
140.267195
20
139.312825
11
140.584909
21
142.126839
0
LINE
8
Layer 1
10
140.584909
20
142.126839
11
140.692217
21
144.985730
0
LINE
8
Layer 1
10
140.692217
20
144.985730
11
140.506504
21
148.736853
0
LINE
8
Layer 1
10
140.506504
20
148.736853
11
139.956235
21
152.424441
0
LINE
8
Layer 1
10
139.956235
20
152.424441
11
139.051720
21
156.023607
0
LINE
8
Layer 1
10
139.051720
20
156.023607
11
137.803267
21
159.509464
0
LINE
8
Layer 1
10
137.803267
20
159.509464
11
136.221183
21
162.857128
0
LINE
8
Layer 1
10
136.221183
20
162.857128
11
134.315777
21
166.041711
0
LINE
8
Layer 1
10
134.315777
20
166.041711
11
132.097357
21
169.038328
0
LINE
8
Layer 1
10
132.097357
20
169.038328
11
129.576232
21
171.822092
0
LINE
8
Layer 1
10
129.576232
20
171.822092
11
126.792468
21
174.343217
0
LINE
8
Layer 1
10
126.792468
20
174.343217
11
123.795851
21
176.561637
0
LINE
8
Layer 1
10
123.795851
20
176.561637
11
120.611268
21
178.467043
0
LINE
8
Layer 1
10
120.611268
20
178.467043
11
117.263604
21
180.049127
0
LINE
8
Layer 1
10
117.263604
20
180.049127
11
113.777747
21
181.297580
0
LINE
8
Layer 1
10
113.777747
20
181.297580
11
110.178581
21
182.202095
0
LINE
8
Layer 1
10
110.178581
20
182.202095
11
106.490993
21
182.752364
0
LINE
8
Layer 1
10
106.490993
20
182.752364
11
102.739870
21
182.938077
0
LINE
8
Layer 1
10
102.739870
20
182.938077
11
102.739870
21
182.938077
0
LINE
8
Layer 1
10
101.861150
20
196.879648
11
97.927651
21
196.732005
0
LINE
8
Layer 1
10
97.927651
20
196.732005
11
94.055900
21
196.294868
0
LINE
8
Layer 1
10
94.055900
20
196.294868
11
90.258901
21
195.576928
0
LINE
8
Layer 1
10
90.258901
20
195.576928
11
86.549661
21
194.586874
0
LINE
8
Layer 1
10
86.549661
20
194.586874
11
82.941185
21
193.333398
0
LINE
8
Layer 1
10
82.941185
20
193.333398
11
79.446480
21
191.825189
0
LINE
8
Layer 1
10
79.446480
20
191.825189
11
76.078550
21
190.070938
0
LINE
8
Layer 1
10
76.078550
20
190.070938
11
72.850401
21
188.079334
0
LINE
8
Layer 1
10
72.850401
20
188.079334
11
69.775040
21
185.859067
0
LINE
8
Layer 1
10
69.775040
20
185.859067
11
66.865472
21
183.418829
0
LINE
8
Layer 1
10
66.865472
20
183.418829
11
64.134703
21
180.767308
0
LINE
8
Layer 1
10
64.134703
20
180.767308
11
61.595738
21
177.913196
0
LINE
8
Layer 1
10
61.595738
20
177.913196
11
59.261583
21
174.865182
0
LINE
8
Layer 1
10
59.261583
20
174.865182
11
57.145245
21
171.631956
0
LINE
8
Layer 1
10
57.145245
20
171.631956
11
55.259728
21
168.222209
0
LINE
8
Layer 1
10
55.259728
20
168.222209
11
53.618038
21
164.644631
0
LINE
8
Layer 1
10
53.618038
20
164.644631
11
52.249158
21
160.954052
0
LINE
8
Layer 1
10
52.249158
20
160.954052
11
51.171365
21
157.209735
0
LINE
8
Layer 1
10
51.171365
20
157.209735
11
50.381606
21
153.427022
0
LINE
8
Layer 1
10
50.381606
20
153.427022
11
49.876832
21
149.621254
0
LINE
8
Layer 1
10
49.876832
20
149.621254
11
49.653989
21
145.807772
0
LINE
8
Layer 1
10
49.653989
20
145.807772
11
49.710026
21
142.001918
0
LINE
8
Layer 1
10
49.710026
20
142.001918
11
50.041892
21
138.219034
0
LINE
8
Layer 1
10
50.041892
20
138.219034
11
50.646536
21
134.474460
0
LINE
8
Layer 1
10
50.646536
20
134.474460
11
51.520905
21
130.783537
0
LINE
8
Layer 1
10
51.520905
20
130.783537
11
52.661947
21
127.161608
0
LINE
8
Layer 1
10
52.661947
20
127.161608
11
54.066613
21
123.624013
0
LINE
8
Layer 1
10
54.066613
20
123.624013
11
55.731849
21
120.186094
0
LINE
8
Layer 1
10
55.731849
20
120.186094
11
57.654604
21
116.863192
0
LINE
8
Layer 1
10
57.654604
20
116.863192
11
59.831828
21
113.670648
0
LINE
8
Layer 1
10
59.831828
20
113.670648
11
62.260467
21
110.623804
0
LINE
8
Layer 1
10
62.260467
20
110.623804
11
64.937471
21
107.738001
0
LINE
8
Layer 1
10
64.937471
20
107.738001
11
67.823274
21
105.060997
0
LINE
8
Layer 1
10
67.823274
20
105.060997
11
70.870118
21
102.632358
0
LINE
8
Layer 1
10
70.870118
20
102.632358
11
74.062662
21
100.455134
0
LINE
8
Layer 1
10
74.062662
20
100.455134
11
77.385564
21
98.532379
0
LINE
8
Layer 1
10
77.385564
20
98.532379
11
80.823483
21
96.867143
0
LINE
8
Layer 1
10
80.823483
20
96.867143
11
84.361078
21
95.462477
0
LINE
8
Layer 1
10
84.361078
20
95.462477
11
87.983007
21
94.321435
0
LINE
8
Layer 1
10
87.983007
20
94.321435
11
91.673930
21
93.447066
0
LINE
8
Layer 1
10
91.673930
20
93.447066
11
95.418504
21
92.842422
0
LINE
8
Layer 1
10
95.418504
20
92.842422
11
99.201388
21
92.510556
0
LINE
8
Layer 1
10
99.201388
20
92.510556
11
103.007242
21
92.454519
0
LINE
8
Layer 1
10
103.007242
20
92.454519
11
106.820724
21
92.677362
0
LINE
8
Layer 1
10
106.820724
20
92.677362
11
110.626492
21
93.182136
0
LINE
8
Layer 1
10
110.626492
20
93.182136
11
114.409205
21
93.971895
0
LINE
8
Layer 1
10
114.409205
20
93.971895
11
118.153522
21
95.049688
0
LINE
8
Layer 1
10
118.153522
20
95.049688
11
121.844101
21
96.418568
0
LINE
8
Layer 1
10
121.844101
20
96.418568
11
125.421679
21
98.060258
0
LINE
8
Layer 1
10
125.421679
20
98.060258
11
128.831426
21
99.945775
0
LINE
8
Layer 1
10
128.831426
20
99.945775
11
132.064652
21
102.062113
0
LINE
8
Layer 1
10
132.064652
20
102.062113
11
135.112666
21
104.396268
0
LINE
8
Layer 1
10
135.112666
20
104.396268
11
137.966778
21
106.935233
0
LINE
8
Layer 1
10
137.966778
20
106.935233
11
140.618299
21
109.666002
0
LINE
8
Layer 1
10
140.618299
20
109.666002
11
143.058537
21
112.575570
0
LINE
8
Layer 1
10
143.058537
20
112.575570
11
145.278804
21
115.650931
0
LINE
8
Layer 1
10
145.278804
20
115.650931
11
147.270408
21
118.879080
0
LINE
8
Layer 1
10
147.270408
20
118.879080
11
149.024659
21
122.247010
0
LINE
8
Layer 1
10
149.024659
20
122.247010
11
150.532868
21
125.741715
0
LINE
8
Layer 1
10
150.532868
20
125.741715
11
151.786344
21
129.350191
0
LINE
8
Layer 1
10
151.786344
20
129.350191
11
152.776398
21
133.059431
0
LINE
8
Layer 1
10
152.776398
20
133.059431
11
153.494338
21
136.856430
0
LINE
8
Layer 1
10
153.494338
20
136.856430
11
153.931475
21
140.728181
0
LINE
8
Layer 1
10
153.931475
20
140.728181
11
154.079118
21
144.661680
0
LINE
8
Layer 1
10
154.079118
20
144.661680
11
153.823598
21
149.822785
0
LINE
8
Layer 1
10
153.823598
20
149.822785
11
153.066493
21
154.896472
0
LINE
8
Layer 1
10
153.066493
20
154.896472
11
151.821987
21
159.848501
0
LINE
8
Layer 1
10
151.821987
20
159.848501
11
150.104262
21
164.644631
0
LINE
8
Layer 1
10
150.104262
20
164.644631
11
147.927501
21
169.250623
0
LINE
8
Layer 1
10
147.927501
20
169.250623
11
145.305886
21
173.632235
0
LINE
8
Layer 1
10
145.305886
20
173.632235
11
142.253601
21
177.755227
0
LINE
8
Layer 1
10
142.253601
20
177.755227
11
138.784829
21
181.585359
0
LINE
8
Layer 1
10
138.784829
20
181.585359
11
134.954697
21
185.054131
0
LINE
8
Layer 1
10
134.954697
20
185.054131
11
130.831705
21
188.106416
0
LINE
8
Layer 1
10
130.831705
20
188.106416
11
126.450093
21
190.728031
0
LINE
8
Layer 1
10
126.450093
20
190.728031
11
121.844101
21
192.904792
0
LINE
8
Layer 1
10
121.844101
20
192.904792
11
117.047971
21
194.622517
0
LINE
8
Layer 1
10
117.047971
20
194.622517
11
112.095942
21
195.867023
0
LINE
8
Layer 1
10
112.095942
20
195.867023
11
107.022255
21
196.624128
0
LINE
8
Layer 1
10
107.022255
20
196.624128
11
101.861150
21
196.879648
0
LINE
8
Layer 1
10
101.861150
20
196.879648
11
101.861150
21
196.879648
0
LINE
8
Layer 1
10
83.381168
20
206.222787
11
83.458594
21
206.428346
0
LINE
8
Layer 1
10
83.458594
20
206.428346
11
83.369609
21
206.806386
0
LINE
8
Layer 1
10
83.369609
20
206.806386
11
82.844949
21
208.561818
0
LINE
8
Layer 1
10
82.844949
20
208.561818
11
82.123835
21
212.064538
0
LINE
8
Layer 1
10
82.123835
20
212.064538
11
81.569138
21
216.336904
0
LINE
8
Layer 1
10
81.569138
20
216.336904
11
81.417750
21
220.180533
0
LINE
8
Layer 1
10
81.417750
20
220.180533
11
81.356497
21
223.067287
0
LINE
8
Layer 1
10
81.356497
20
223.067287
11
81.226054
21
224.055210
0
LINE
8
Layer 1
10
81.226054
20
224.055210
11
80.992472
21
224.764910
0
LINE
8
Layer 1
10
80.992472
20
224.764910
11
80.642748
21
225.247527
0
LINE
8
Layer 1
10
80.642748
20
225.247527
11
80.163877
21
225.554201
0
LINE
8
Layer 1
10
80.163877
20
225.554201
11
78.852235
21
225.779549
0
LINE
8
Layer 1
10
78.852235
20
225.779549
11
77.381118
21
225.526461
0
LINE
8
Layer 1
10
77.381118
20
225.526461
11
76.709838
21
225.224983
0
LINE
8
Layer 1
10
76.709838
20
225.224983
11
76.129570
21
224.799567
0
LINE
8
Layer 1
10
76.129570
20
224.799567
11
75.668911
21
224.240674
0
LINE
8
Layer 1
10
75.668911
20
224.240674
11
75.356461
21
223.538766
0
LINE
8
Layer 1
10
75.356461
20
223.538766
11
75.210418
21
222.691539
0
LINE
8
Layer 1
10
75.210418
20
222.691539
11
75.207384
21
221.725579
0
LINE
8
Layer 1
10
75.207384
20
221.725579
11
75.495138
21
219.572635
0
LINE
8
Layer 1
10
75.495138
20
219.572635
11
76.002461
21
217.305285
0
LINE
8
Layer 1
10
76.002461
20
217.305285
11
76.724735
21
214.968596
0
LINE
8
Layer 1
10
76.724735
20
214.968596
11
77.668886
21
212.603018
0
LINE
8
Layer 1
10
77.668886
20
212.603018
11
78.675439
21
210.410788
0
LINE
8
Layer 1
10
78.675439
20
210.410788
11
80.348793
21
207.276721
0
LINE
8
Layer 1
10
80.348793
20
207.276721
11
81.028305
21
206.460845
0
LINE
8
Layer 1
10
81.028305
20
206.460845
11
81.791026
21
206.074868
0
LINE
8
Layer 1
10
81.791026
20
206.074868
11
82.717842
21
206.017085
0
LINE
8
Layer 1
10
82.717842
20
206.017085
11
83.381168
21
206.222789
0
LINE
8
Layer 1
10
83.381168
20
206.222789
11
83.381168
21
206.222787
0
LINE
8
Layer 1
10
81.374990
20
223.779148
11
82.426616
21
224.204423
0
LINE
8
Layer 1
10
82.426616
20
224.204423
11
83.464380
21
224.851584
0
LINE
8
Layer 1
10
83.464380
20
224.851584
11
84.447823
21
225.869697
0
LINE
8
Layer 1
10
84.447823
20
225.869697
11
85.230181
21
227.116624
0
LINE
8
Layer 1
10
85.230181
20
227.116624
11
85.688966
21
228.423643
0
LINE
8
Layer 1
10
85.688966
20
228.423643
11
85.905068
21
229.806938
0
LINE
8
Layer 1
10
85.905068
20
229.806938
11
85.960538
21
232.672901
0
LINE
8
Layer 1
10
85.960538
20
232.672901
11
85.618471
21
234.679075
0
LINE
8
Layer 1
10
85.618471
20
234.679075
11
85.165465
21
235.816216
0
LINE
8
Layer 1
10
85.165465
20
235.816216
11
85.063770
21
236.138637
0
LINE
8
Layer 1
10
85.063770
20
236.138637
11
85.128485
21
236.398655
0
LINE
8
Layer 1
10
85.128485
20
236.398655
11
85.905072
21
236.944112
0
LINE
8
Layer 1
10
85.905072
20
236.944112
11
86.627343
21
237.153281
0
LINE
8
Layer 1
10
86.627343
20
237.153281
11
87.578432
21
237.230706
0
LINE
8
Layer 1
10
87.578432
20
237.230706
11
88.745620
21
237.116315
0
LINE
8
Layer 1
10
88.745620
20
237.116315
11
90.037616
21
236.814676
0
LINE
8
Layer 1
10
90.037616
20
236.814676
11
91.353882
21
236.343178
0
LINE
8
Layer 1
10
91.353882
20
236.343178
11
92.635477
21
235.705267
0
LINE
8
Layer 1
10
92.635477
20
235.705267
11
94.965231
21
234.013422
0
LINE
8
Layer 1
10
94.965231
20
234.013422
11
95.993743
21
233.035756
0
LINE
8
Layer 1
10
95.993743
20
233.035756
11
96.869709
21
231.850073
0
LINE
8
Layer 1
10
96.869709
20
231.850073
11
97.549220
21
230.338506
0
LINE
8
Layer 1
10
97.549220
20
230.338506
11
98.090055
21
228.577321
0
LINE
8
Layer 1
10
98.090055
20
228.577321
11
98.538440
21
226.719066
0
LINE
8
Layer 1
10
98.538440
20
226.719066
11
98.792675
21
225.027225
0
LINE
8
Layer 1
10
98.792675
20
225.027225
11
98.763784
21
223.695937
0
LINE
8
Layer 1
10
98.763784
20
223.695937
11
98.561549
21
222.531059
0
LINE
8
Layer 1
10
98.561549
20
222.531059
11
98.281885
21
221.273730
0
LINE
8
Layer 1
10
98.281885
20
221.273730
11
97.766468
21
219.794517
0
LINE
8
Layer 1
10
97.766468
20
219.794517
11
96.748353
21
217.959371
0
LINE
8
Layer 1
10
96.748353
20
217.959371
11
94.780295
21
215.486308
0
LINE
8
Layer 1
10
94.780295
20
215.486308
11
91.671647
21
212.301388
0
LINE
8
Layer 1
10
91.671647
20
212.301388
11
88.438202
21
209.310629
0
LINE
8
Layer 1
10
88.438202
20
209.310629
11
84.499811
21
205.954671
0
LINE
8
Layer 1
10
84.499811
20
205.954671
11
81.217466
21
202.233255
0
LINE
8
Layer 1
10
81.217466
20
202.233255
11
74.965851
21
195.721010
0
LINE
8
Layer 1
10
74.965851
20
195.721010
11
72.001319
21
192.598241
0
LINE
8
Layer 1
10
72.001319
20
192.598241
11
69.398030
21
189.660160
0
LINE
8
Layer 1
10
69.398030
20
189.660160
11
66.956625
21
186.597611
0
LINE
8
Layer 1
10
66.956625
20
186.597611
11
64.396871
21
183.025220
0
LINE
8
Layer 1
10
64.396871
20
183.025220
11
58.400353
21
173.882090
0
LINE
8
Layer 1
10
74.937516
20
223.999644
11
73.839168
21
224.797586
0
LINE
8
Layer 1
10
73.839168
20
224.797586
11
72.843973
21
225.824641
0
LINE
8
Layer 1
10
72.843973
20
225.824641
11
72.041738
21
227.228271
0
LINE
8
Layer 1
10
72.041738
20
227.228271
11
71.468826
21
228.829466
0
LINE
8
Layer 1
10
71.468826
20
228.829466
11
71.138397
21
230.410269
0
LINE
8
Layer 1
10
71.138397
20
230.410269
11
71.024251
21
231.923484
0
LINE
8
Layer 1
10
71.024251
20
231.923484
11
71.091839
21
233.382630
0
LINE
8
Layer 1
10
71.091839
20
233.382630
11
71.312627
21
234.873318
0
LINE
8
Layer 1
10
71.312627
20
234.873318
11
71.723412
21
236.508942
0
LINE
8
Layer 1
10
71.723412
20
236.508942
11
72.616332
21
238.441958
0
LINE
8
Layer 1
10
72.616332
20
238.441958
11
74.241444
21
240.733935
0
LINE
8
Layer 1
10
74.241444
20
240.733935
11
76.425284
21
243.043930
0
LINE
8
Layer 1
10
76.425284
20
243.043930
11
78.911764
21
244.993461
0
LINE
8
Layer 1
10
78.911764
20
244.993461
11
81.537924
21
246.456355
0
LINE
8
Layer 1
10
81.537924
20
246.456355
11
84.157325
21
247.403335
0
LINE
8
Layer 1
10
84.157325
20
247.403335
11
86.596489
21
247.940279
0
LINE
8
Layer 1
10
86.596489
20
247.940279
11
88.751306
21
248.170213
0
LINE
8
Layer 1
10
88.751306
20
248.170213
11
90.822117
21
248.049499
0
LINE
8
Layer 1
10
90.822117
20
248.049499
11
93.013278
21
247.515643
0
LINE
8
Layer 1
10
93.013278
20
247.515643
11
95.240754
21
246.577286
0
LINE
8
Layer 1
10
95.240754
20
246.577286
11
97.360923
21
245.278876
0
LINE
8
Layer 1
10
97.360923
20
245.278876
11
99.280198
21
243.736862
0
LINE
8
Layer 1
10
99.280198
20
243.736862
11
100.945427
21
242.035250
0
LINE
8
Layer 1
10
100.945427
20
242.035250
11
102.415100
21
240.056219
0
LINE
8
Layer 1
10
102.415100
20
240.056219
11
103.732430
21
237.739145
0
LINE
8
Layer 1
10
103.732430
20
237.739145
11
104.767790
21
235.453913
0
LINE
8
Layer 1
10
104.767790
20
235.453913
11
105.412814
21
233.505964
0
LINE
8
Layer 1
10
105.412814
20
233.505964
11
105.816810
21
231.512532
0
LINE
8
Layer 1
10
105.816810
20
231.512532
11
106.127569
21
229.025676
0
LINE
8
Layer 1
10
106.127569
20
229.025676
11
106.229130
21
226.024921
0
LINE
8
Layer 1
10
106.229130
20
226.024921
11
105.960791
21
222.658837
0
LINE
8
Layer 1
10
105.960791
20
222.658837
11
105.246810
21
219.324591
0
LINE
8
Layer 1
10
105.246810
20
219.324591
11
104.705248
21
217.793608
0
LINE
8
Layer 1
10
104.705248
20
217.793608
11
104.029531
21
216.326871
0
LINE
8
Layer 1
10
104.029531
20
216.326871
11
102.239230
21
213.351886
0
LINE
8
Layer 1
10
102.239230
20
213.351886
11
99.886534
21
210.107834
0
LINE
8
Layer 1
10
99.886534
20
210.107834
11
97.315547
21
207.009315
0
LINE
8
Layer 1
10
97.315547
20
207.009315
11
92.737494
21
202.206901
0
LINE
8
Layer 1
10
92.737494
20
202.206901
11
90.925979
21
199.901197
0
LINE
8
Layer 1
10
90.925979
20
199.901197
11
89.596530
21
197.841078
0
LINE
8
Layer 1
10
89.596530
20
197.841078
11
88.824932
21
196.333502
0
LINE
8
Layer 1
10
88.824932
20
196.333502
11
88.371676
21
195.167010
0
LINE
8
Layer 1
10
78.857803
20
234.896066
11
78.140252
21
234.696794
0
LINE
8
Layer 1
10
78.140252
20
234.696794
11
77.664559
21
234.166144
0
LINE
8
Layer 1
10
77.664559
20
234.166144
11
77.591062
21
233.482977
0
LINE
8
Layer 1
10
77.591062
20
233.482977
11
77.944534
21
232.877562
0
LINE
8
Layer 1
10
77.944534
20
232.877562
11
78.605833
21
232.553961
0
LINE
8
Layer 1
10
78.605833
20
232.553961
11
79.352061
21
232.621247
0
LINE
8
Layer 1
10
79.352061
20
232.621247
11
79.931694
21
233.056741
0
LINE
8
Layer 1
10
79.931694
20
233.056741
11
80.149361
21
233.713654
0
LINE
8
Layer 1
10
80.149361
20
233.713654
11
80.051047
21
234.166144
0
LINE
8
Layer 1
10
80.051047
20
234.166144
11
79.771072
21
234.549746
0
LINE
8
Layer 1
10
79.771072
20
234.549746
11
79.352061
21
234.806061
0
LINE
8
Layer 1
10
79.352061
20
234.806061
11
78.857803
21
234.896066
0
LINE
8
Layer 1
10
78.857803
20
234.896066
11
78.857803
21
234.896066
0
LINE
8
Layer 1
10
78.748657
20
236.496869
11
77.847211
21
236.378658
0
LINE
8
Layer 1
10
77.847211
20
236.378658
11
77.040683
21
236.043141
0
LINE
8
Layer 1
10
77.040683
20
236.043141
11
76.378078
21
235.518994
0
LINE
8
Layer 1
10
76.378078
20
235.518994
11
75.908400
21
234.834891
0
LINE
8
Layer 1
10
75.908400
20
234.834891
11
75.688141
21
234.060313
0
LINE
8
Layer 1
10
75.688141
20
234.060313
11
75.733456
21
233.279373
0
LINE
8
Layer 1
10
75.733456
20
233.279373
11
76.032848
21
232.542691
0
LINE
8
Layer 1
10
76.032848
20
232.542691
11
76.574818
21
231.900890
0
LINE
8
Layer 1
10
76.574818
20
231.900890
11
77.307685
21
231.426266
0
LINE
8
Layer 1
10
77.307685
20
231.426266
11
78.148896
21
231.164076
0
LINE
8
Layer 1
10
78.148896
20
231.164076
11
79.040646
21
231.124392
0
LINE
8
Layer 1
10
79.040646
20
231.124392
11
79.925130
21
231.317281
0
LINE
8
Layer 1
10
79.925130
20
231.317281
11
80.706301
21
231.728597
0
LINE
8
Layer 1
10
80.706301
20
231.728597
11
81.304821
21
232.308866
0
LINE
8
Layer 1
10
81.304821
20
232.308866
11
81.687945
21
233.015175
0
LINE
8
Layer 1
10
81.687945
20
233.015175
11
81.822929
21
233.804607
0
LINE
8
Layer 1
10
81.822929
20
233.804607
11
81.581338
21
234.852557
0
LINE
8
Layer 1
10
81.581338
20
234.852557
11
80.922496
21
235.708324
0
LINE
8
Layer 1
10
80.922496
20
235.708324
11
79.945302
21
236.285298
0
LINE
8
Layer 1
10
79.945302
20
236.285298
11
78.748657
21
236.496869
0
LINE
8
Layer 1
10
78.748657
20
236.496869
11
78.748657
21
236.496869
0
LINE
8
Layer 1
10
84.915392
20
236.278581
11
84.212005
21
237.903645
0
LINE
8
Layer 1
10
84.212005
20
237.903645
11
83.764811
21
238.591112
0
LINE
8
Layer 1
10
83.764811
20
238.591112
11
83.508628
21
239.292223
0
LINE
8
Layer 1
10
83.508628
20
239.292223
11
83.699633
21
240.090351
0
LINE
8
Layer 1
10
83.699633
20
240.090351
11
84.345418
21
240.838452
0
LINE
8
Layer 1
10
84.345418
20
240.838452
11
85.393673
21
241.375084
0
LINE
8
Layer 1
10
85.393673
20
241.375084
11
86.801202
21
241.711614
0
LINE
8
Layer 1
10
86.801202
20
241.711614
11
88.493719
21
241.881396
0
LINE
8
Layer 1
10
88.493719
20
241.881396
11
90.263545
21
241.832884
0
LINE
8
Layer 1
10
90.263545
20
241.832884
11
91.940145
21
241.473611
0
LINE
8
Layer 1
10
91.940145
20
241.473611
11
93.634938
21
240.632271
0
LINE
8
Layer 1
10
93.634938
20
240.632271
11
95.438874
21
239.210345
0
LINE
8
Layer 1
10
95.438874
20
239.210345
11
97.079086
21
237.479174
0
LINE
8
Layer 1
10
97.079086
20
237.479174
11
98.265287
21
235.709345
0
LINE
8
Layer 1
10
98.265287
20
235.709345
11
99.001259
21
233.798532
0
LINE
8
Layer 1
10
99.001259
20
233.798532
11
99.365078
21
231.617132
0
LINE
8
Layer 1
10
99.365078
20
231.617132
11
99.437839
21
229.299301
0
LINE
8
Layer 1
10
99.437839
20
229.299301
11
99.128593
21
225.418578
0
LINE
8
Layer 1
10
99.128593
20
225.418578
11
98.922431
21
224.272549
0
LINE
8
Layer 1
10
106.453770
20
225.842160
11
106.409799
21
222.684305
0
LINE
8
Layer 1
10
106.409799
20
222.684305
11
106.256500
21
219.719381
0
LINE
8
Layer 1
10
106.256500
20
219.719381
11
105.673370
21
215.234506
0
LINE
8
Layer 1
10
105.673370
20
215.234506
11
105.527601
21
214.008237
0
LINE
8
Layer 1
10
105.527601
20
214.008237
11
104.918730
21
212.627602
0
LINE
8
Layer 1
10
104.918730
20
212.627602
11
103.296924
21
210.314415
0
LINE
8
Layer 1
10
103.296924
20
210.314415
11
100.948360
21
207.448124
0
LINE
8
Layer 1
10
100.948360
20
207.448124
11
95.931819
21
202.105720
0
LINE
8
Layer 1
10
95.931819
20
202.105720
11
94.035607
21
200.073375
0
LINE
8
Layer 1
10
94.035607
20
200.073375
11
92.801845
21
198.555551
0
LINE
8
Layer 1
10
92.801845
20
198.555551
11
92.253027
21
197.528660
0
LINE
8
Layer 1
10
92.253027
20
197.528660
11
92.167276
21
196.874800
0
LINE
8
Layer 1
10
92.167276
20
196.874800
11
92.196214
21
196.377426
0
LINE
8
Layer 1
10
92.196214
20
196.377426
11
91.729919
21
195.519880
0
LINE
8
Layer 1
10
91.729919
20
195.519880
11
88.659970
21
192.158380
0
LINE
8
Layer 1
10
88.659970
20
192.158380
11
87.399403
21
190.880657
0
LINE
8
Layer 1
10
87.399403
20
190.880657
11
87.012716
21
190.566592
0
LINE
8
Layer 1
10
87.012716
20
190.566592
11
86.807717
21
190.529080
0
LINE
8
Layer 1
10
86.807717
20
190.529080
11
86.909548
21
191.283713
0
LINE
8
Layer 1
10
86.909548
20
191.283713
11
87.365110
21
192.604310
0
LINE
8
Layer 1
10
87.365110
20
192.604310
11
88.239787
21
195.125440
0
LINE
8
Layer 1
10
92.119012
20
196.476770
11
93.221843
21
195.679393
0
LINE
8
Layer 1
10
93.221843
20
195.679393
11
94.611189
21
194.900210
0
LINE
8
Layer 1
10
94.611189
20
194.900210
11
96.483341
21
194.174844
0
LINE
8
Layer 1
10
96.483341
20
194.174844
11
98.673836
21
193.608650
0
LINE
8
Layer 1
10
98.673836
20
193.608650
11
100.931032
21
193.295616
0
LINE
8
Layer 1
10
100.931032
20
193.295616
11
103.015410
21
193.214520
0
LINE
8
Layer 1
10
103.015410
20
193.214520
11
104.744305
21
193.309255
0
LINE
8
Layer 1
10
104.744305
20
193.309255
11
106.150310
21
193.499510
0
LINE
8
Layer 1
10
106.150310
20
193.499510
11
107.364558
21
193.696580
0
LINE
8
Layer 1
10
107.364558
20
193.696580
11
108.697050
21
193.802690
0
LINE
8
Layer 1
10
108.697050
20
193.802690
11
112.317050
21
193.517700
0
LINE
8
Layer 1
10
112.317050
20
193.517700
11
116.643110
21
192.710040
0
LINE
8
Layer 1
10
116.643110
20
192.710040
11
119.611726
21
192.143394
0
LINE
8
Layer 1
10
119.611726
20
192.143394
11
122.896670
21
191.356330
0
LINE
8
Layer 1
10
122.896670
20
191.356330
11
126.132834
21
190.264660
0
LINE
8
Layer 1
10
126.132834
20
190.264660
11
129.301310
21
188.994400
0
LINE
8
Layer 1
10
107.015100
20
193.616730
11
107.193940
21
194.025139
0
LINE
8
Layer 1
10
107.193940
20
194.025139
11
107.207690
21
194.655390
0
LINE
8
Layer 1
10
107.207690
20
194.655390
11
106.938588
21
195.633846
0
LINE
8
Layer 1
10
106.938588
20
195.633846
11
106.457940
21
196.705160
0
LINE
8
Layer 1
10
106.457940
20
196.705160
11
105.872411
21
197.657830
0
LINE
8
Layer 1
10
105.872411
20
197.657830
11
105.240450
21
198.837496
0
LINE
8
Layer 1
10
105.240450
20
198.837496
11
104.606769
21
200.608701
0
LINE
8
Layer 1
10
104.606769
20
200.608701
11
104.009200
21
202.854522
0
LINE
8
Layer 1
10
104.009200
20
202.854522
11
103.523416
21
205.321307
0
LINE
8
Layer 1
10
103.523416
20
205.321307
11
103.383270
21
207.690073
0
LINE
8
Layer 1
10
103.383270
20
207.690073
11
103.518887
21
208.743878
0
LINE
8
Layer 1
10
103.518887
20
208.743878
11
103.787365
21
209.713201
0
LINE
8
Layer 1
10
103.787365
20
209.713201
11
104.635160
21
211.493863
0
LINE
8
Layer 1
10
104.635160
20
211.493863
11
105.782145
21
213.149851
0
LINE
8
Layer 1
10
105.782145
20
213.149851
11
107.207710
21
214.506621
0
LINE
8
Layer 1
10
107.207710
20
214.506621
11
108.883473
21
215.375025
0
LINE
8
Layer 1
10
108.883473
20
215.375025
11
110.626300
21
215.799765
0
LINE
8
Layer 1
10
110.626300
20
215.799765
11
112.247036
21
215.873708
0
LINE
8
Layer 1
10
112.247036
20
215.873708
11
113.687210
21
215.648436
0
LINE
8
Layer 1
10
113.687210
20
215.648436
11
114.965749
21
215.165221
0
LINE
8
Layer 1
10
114.965749
20
215.165221
11
116.280400
21
214.465335
0
LINE
8
Layer 1
10
116.280400
20
214.465335
11
117.758405
21
213.602090
0
LINE
8
Layer 1
10
117.758405
20
213.602090
11
119.066160
21
212.676940
0
LINE
8
Layer 1
10
119.066160
20
212.676940
11
119.882125
21
211.768984
0
LINE
8
Layer 1
10
119.882125
20
211.768984
11
120.393710
21
210.819756
0
LINE
8
Layer 1
10
120.393710
20
210.819756
11
120.858001
21
209.721780
0
LINE
8
Layer 1
10
120.858001
20
209.721780
11
121.301660
21
208.309110
0
LINE
8
Layer 1
10
121.301660
20
208.309110
11
121.962000
21
204.670409
0
LINE
8
Layer 1
10
121.962000
20
204.670409
11
122.047991
21
203.136511
0
LINE
8
Layer 1
10
122.047991
20
203.136511
11
121.824450
21
201.767697
0
LINE
8
Layer 1
10
121.824450
20
201.767697
11
121.202810
21
200.393725
0
LINE
8
Layer 1
10
121.202810
20
200.393725
11
120.276790
21
199.195158
0
LINE
8
Layer 1
10
120.276790
20
199.195158
11
119.213210
21
198.380920
0
LINE
8
Layer 1
10
119.213210
20
198.380920
11
118.288920
21
197.922646
0
LINE
8
Layer 1
10
118.288920
20
197.922646
11
117.702530
21
197.730910
0
LINE
8
Layer 1
10
117.702530
20
197.730910
11
117.229630
21
197.709416
0
LINE
8
Layer 1
10
117.229630
20
197.709416
11
115.860820
21
197.922651
0
LINE
8
Layer 1
10
115.860820
20
197.922651
11
114.230630
21
198.507320
0
LINE
8
Layer 1
10
114.230630
20
198.507320
11
113.412951
21
199.001711
0
LINE
8
Layer 1
10
113.412951
20
199.001711
11
112.724250
21
199.614756
0
LINE
8
Layer 1
10
112.724250
20
199.614756
11
112.259091
21
200.333556
0
LINE
8
Layer 1
10
112.259091
20
200.333556
11
111.933230
21
201.238076
0
LINE
8
Layer 1
10
111.933230
20
201.238076
11
111.657231
21
202.387639
0
LINE
8
Layer 1
10
111.657231
20
202.387639
11
111.499890
21
203.666174
0
LINE
8
Layer 1
10
111.499890
20
203.666174
11
111.538575
21
204.850986
0
LINE
8
Layer 1
10
111.538575
20
204.850986
11
111.726870
21
205.468315
0
LINE
8
Layer 1
10
111.726870
20
205.468315
11
112.023507
21
205.150186
0
LINE
8
Layer 1
10
112.023507
20
205.150186
11
112.531660
21
204.202676
0
LINE
8
Layer 1
10
112.531660
20
204.202676
11
113.346757
21
203.068592
0
LINE
8
Layer 1
10
113.346757
20
203.068592
11
114.388850
21
202.063481
0
LINE
8
Layer 1
10
114.388850
20
202.063481
11
115.559905
21
201.419485
0
LINE
8
Layer 1
10
115.559905
20
201.419485
11
116.865090
21
201.162407
0
LINE
8
Layer 1
10
116.865090
20
201.162407
11
118.271740
21
201.269022
0
LINE
8
Layer 1
10
118.271740
20
201.269022
11
119.492660
21
201.726444
0
LINE
8
Layer 1
10
119.492660
20
201.726444
11
120.272502
21
202.522626
0
LINE
8
Layer 1
10
120.272502
20
202.522626
11
120.737660
21
203.638659
0
LINE
8
Layer 1
10
120.737660
20
203.638659
11
121.052344
21
205.016932
0
LINE
8
Layer 1
10
121.052344
20
205.016932
11
121.150360
21
206.451949
0
LINE
8
Layer 1
10
121.150360
20
206.451949
11
120.938846
21
207.747679
0
LINE
8
Layer 1
10
120.938846
20
207.747679
11
120.448760
21
208.893802
0
LINE
8
Layer 1
10
120.448760
20
208.893802
11
119.715341
21
209.886019
0
LINE
8
Layer 1
10
119.715341
20
209.886019
11
118.667230
21
210.558382
0
LINE
8
Layer 1
10
118.667230
20
210.558382
11
117.288956
21
210.758715
0
LINE
8
Layer 1
10
117.288956
20
210.758715
11
115.895210
21
210.551482
0
LINE
8
Layer 1
10
115.895210
20
210.551482
11
114.789501
21
210.051074
0
LINE
8
Layer 1
10
114.789501
20
210.051074
11
113.900460
21
209.354627
0
LINE
8
Layer 1
10
113.900460
20
209.354627
11
112.462870
21
207.731312
0
LINE
8
Layer 1
10
112.462870
20
207.731312
11
111.719990
21
206.204298
0
LINE
8
Layer 1
10
116.961350
20
211.115537
11
115.489360
21
211.425066
0
LINE
8
Layer 1
10
115.489360
20
211.425066
11
114.520352
21
211.460321
0
LINE
8
Layer 1
10
114.520352
20
211.460321
11
113.515240
21
211.335646
0
LINE
8
Layer 1
10
113.515240
20
211.335646
11
112.617599
21
211.014079
0
LINE
8
Layer 1
10
112.617599
20
211.014079
11
111.781870
21
210.579016
0
LINE
8
Layer 1
10
111.781870
20
210.579016
11
110.958171
21
210.101823
0
LINE
8
Layer 1
10
110.958171
20
210.101823
11
110.268610
21
209.485340
0
LINE
8
Layer 1
10
110.268610
20
209.485340
11
109.835264
21
208.622092
0
LINE
8
Layer 1
10
109.835264
20
208.622092
11
109.608280
21
207.531852
0
LINE
8
Layer 1
10
109.608280
20
207.531852
11
109.515440
21
206.286851
0
LINE
8
Layer 1
10
109.515440
20
206.286851
11
109.567080
21
205.041852
0
LINE
8
Layer 1
10
109.567080
20
205.041852
11
109.787186
21
203.900027
0
LINE
8
Layer 1
10
109.787186
20
203.900027
11
110.172390
21
202.675656
0
LINE
8
Layer 1
10
110.172390
20
202.675656
11
111.520580
21
199.325841
0
LINE
8
Layer 1
10
111.520580
20
199.325841
11
112.585880
21
197.279501
0
LINE
8
Layer 1
10
112.585880
20
197.279501
11
113.769830
21
195.418884
0
LINE
8
Layer 1
10
113.769830
20
195.418884
11
114.880707
21
194.119719
0
LINE
8
Layer 1
10
114.880707
20
194.119719
11
115.764590
21
193.362234
0
LINE
8
Layer 1
10
115.764590
20
193.362234
11
116.713810
21
192.873864
0
LINE
8
Layer 1
10
117.786770
20
192.626230
11
118.192598
21
193.014004
0
LINE
8
Layer 1
10
118.192598
20
193.014004
11
118.557160
21
193.623620
0
LINE
8
Layer 1
10
118.557160
20
193.623620
11
119.024890
21
195.700920
0
LINE
8
Layer 1
10
119.024890
20
195.700920
11
119.196850
21
197.523701
0
LINE
8
Layer 1
10
119.196850
20
197.523701
11
119.643950
21
198.693035
0
LINE
8
Layer 1
10
122.161470
20
203.645526
11
125.635100
21
204.780472
0
LINE
8
Layer 1
10
125.635100
20
204.780472
11
126.984136
21
205.018639
0
LINE
8
Layer 1
10
126.984136
20
205.018639
11
128.173250
21
204.952432
0
LINE
8
Layer 1
10
128.173250
20
204.952432
11
129.346029
21
204.580135
0
LINE
8
Layer 1
10
129.346029
20
204.580135
11
130.415630
21
203.996323
0
LINE
8
Layer 1
10
130.415630
20
203.996323
11
131.284034
21
203.288702
0
LINE
8
Layer 1
10
131.284034
20
203.288702
11
132.038940
21
202.421153
0
LINE
8
Layer 1
10
132.038940
20
202.421153
11
133.400880
21
200.233804
0
LINE
8
Layer 1
10
133.400880
20
200.233804
11
133.823043
21
199.156464
0
LINE
8
Layer 1
10
133.823043
20
199.156464
11
134.013050
21
198.135873
0
LINE
8
Layer 1
10
134.013050
20
198.135873
11
133.978679
21
197.162571
0
LINE
8
Layer 1
10
133.978679
20
197.162571
11
133.779180
21
196.292450
0
LINE
8
Layer 1
10
133.779180
20
196.292450
11
133.036310
21
194.889240
0
LINE
8
Layer 1
10
133.036310
20
194.889240
11
132.436164
21
194.179039
0
LINE
8
Layer 1
10
132.436164
20
194.179039
11
131.578070
21
193.499790
0
LINE
8
Layer 1
10
131.578070
20
193.499790
11
130.443987
21
192.951238
0
LINE
8
Layer 1
10
130.443987
20
192.951238
11
129.356330
21
192.619360
0
LINE
8
Layer 1
10
129.356330
20
192.619360
11
128.602284
21
192.565194
0
LINE
8
Layer 1
10
128.602284
20
192.565194
11
127.987520
21
192.763800
0
LINE
8
Layer 1
10
127.987520
20
192.763800
11
127.285055
21
193.164475
0
LINE
8
Layer 1
10
127.285055
20
193.164475
11
126.618710
21
193.699280
0
LINE
8
Layer 1
10
126.618710
20
193.699280
11
126.156991
21
194.310598
0
LINE
8
Layer 1
10
126.156991
20
194.310598
11
125.896460
21
194.999300
0
LINE
8
Layer 1
10
125.896460
20
194.999300
11
125.801007
21
195.775711
0
LINE
8
Layer 1
10
125.801007
20
195.775711
11
125.875760
21
196.629500
0
LINE
8
Layer 1
10
125.875760
20
196.629500
11
126.474190
21
198.466052
0
LINE
8
Layer 1
10
126.474190
20
198.466052
11
126.846480
21
199.282007
0
LINE
8
Layer 1
10
126.846480
20
199.282007
11
127.100120
21
199.545956
0
LINE
8
Layer 1
10
127.100120
20
199.545956
11
127.189520
21
197.764434
0
LINE
8
Layer 1
10
127.189520
20
197.764434
11
127.423397
21
196.581338
0
LINE
8
Layer 1
10
127.423397
20
196.581338
11
127.904880
21
195.604600
0
LINE
8
Layer 1
10
127.904880
20
195.604600
11
128.644311
21
194.977802
0
LINE
8
Layer 1
10
128.644311
20
194.977802
11
129.652010
21
194.717290
0
LINE
8
Layer 1
10
129.652010
20
194.717290
11
130.876376
21
194.792102
0
LINE
8
Layer 1
10
130.876376
20
194.792102
11
132.018190
21
195.109360
0
LINE
8
Layer 1
10
132.018190
20
195.109360
11
132.794601
21
195.571936
0
LINE
8
Layer 1
10
132.794601
20
195.571936
11
133.235680
21
196.127370
0
LINE
8
Layer 1
10
133.235680
20
196.127370
11
133.442036
21
196.732679
0
LINE
8
Layer 1
10
133.442036
20
196.732679
11
133.483310
21
197.337978
0
LINE
8
Layer 1
10
133.483310
20
197.337978
11
133.194400
21
198.555470
0
LINE
8
Layer 1
10
133.194400
20
198.555470
11
132.293330
21
200.103125
0
LINE
8
Layer 1
10
132.293330
20
200.103125
11
131.608060
21
200.781511
0
LINE
8
Layer 1
10
131.608060
20
200.781511
11
130.773180
21
201.238064
0
LINE
8
Layer 1
10
130.773180
20
201.238064
11
129.822234
21
201.390251
0
LINE
8
Layer 1
10
129.822234
20
201.390251
11
128.902240
21
201.258694
0
LINE
8
Layer 1
10
128.902240
20
201.258694
11
128.142176
21
200.901873
0
LINE
8
Layer 1
10
128.142176
20
200.901873
11
127.485290
21
200.426402
0
LINE
8
Layer 1
10
130.704520
20
201.375634
11
130.296967
21
201.790062
0
LINE
8
Layer 1
10
130.296967
20
201.790062
11
129.672740
21
202.090995
0
LINE
8
Layer 1
10
129.672740
20
202.090995
11
128.714054
21
202.186434
0
LINE
8
Layer 1
10
128.714054
20
202.186434
11
127.698630
21
202.070355
0
LINE
8
Layer 1
10
127.698630
20
202.070355
11
126.919643
21
201.759106
0
LINE
8
Layer 1
10
126.919643
20
201.759106
11
126.336690
21
201.272453
0
LINE
8
Layer 1
10
126.336690
20
201.272453
11
125.421860
21
199.827971
0
LINE
8
Layer 1
10
125.421860
20
199.827971
11
124.809680
21
197.846973
0
LINE
8
Layer 1
10
124.809680
20
197.846973
11
124.617080
21
195.879746
0
LINE
8
Layer 1
10
124.617080
20
195.879746
11
124.651480
21
194.490286
0
LINE
8
Layer 1
10
124.651480
20
194.490286
11
125.016040
21
192.674376
0
LINE
8
Layer 1
10
125.016040
20
192.674376
11
125.371141
21
191.946117
0
LINE
8
Layer 1
10
125.371141
20
191.946117
11
125.793300
21
191.346836
0
LINE
8
Layer 1
10
110.192950
20
202.985195
11
110.846400
21
203.184668
0
LINE
8
Layer 1
10
110.846400
20
203.184668
11
111.472340
21
202.861383
0
LINE
8
Layer 1
10
124.637710
20
195.226290
11
124.968744
21
195.268415
0
LINE
8
Layer 1
10
124.968744
20
195.268415
11
125.304930
21
195.191890
0
LINE
8
Layer 1
10
125.304930
20
195.191890
11
125.999650
21
194.524690
0
LINE
8
Layer 1
10
128.599710
20
189.489650
11
128.812940
21
191.319330
0
LINE
8
Layer 1
10
128.812940
20
191.319330
11
128.729494
21
191.921191
0
LINE
8
Layer 1
10
128.729494
20
191.921191
11
128.558440
21
192.378610
0
LINE
8
Layer 1
10
131.199770
20
188.210260
11
131.542834
21
190.279819
0
LINE
8
Layer 1
10
131.542834
20
190.279819
11
132.087100
21
192.137870
0
LINE
8
Layer 1
10
132.087100
20
192.137870
11
132.982155
21
193.588364
0
LINE
8
Layer 1
10
132.982155
20
193.588364
11
133.546723
21
194.117891
0
LINE
8
Layer 1
10
133.546723
20
194.117891
11
134.171270
21
194.497170
0
LINE
8
Layer 1
10
134.171270
20
194.497170
11
134.841280
21
194.717500
0
LINE
8
Layer 1
10
134.841280
20
194.717500
11
135.538367
21
194.794668
0
LINE
8
Layer 1
10
135.538367
20
194.794668
11
136.936410
21
194.607230
0
LINE
8
Layer 1
10
136.936410
20
194.607230
11
138.219239
21
194.103381
0
LINE
8
Layer 1
10
138.219239
20
194.103381
11
139.275080
21
193.424130
0
LINE
8
Layer 1
10
139.275080
20
193.424130
11
140.034292
21
192.675238
0
LINE
8
Layer 1
10
140.034292
20
192.675238
11
140.561350
21
191.848960
0
LINE
8
Layer 1
10
140.561350
20
191.848960
11
140.938809
21
190.915209
0
LINE
8
Layer 1
10
140.938809
20
190.915209
11
141.187290
21
189.867960
0
LINE
8
Layer 1
10
141.187290
20
189.867960
11
141.296503
21
188.745051
0
LINE
8
Layer 1
10
141.296503
20
188.745051
11
141.194290
21
187.735640
0
LINE
8
Layer 1
10
141.194290
20
187.735640
11
140.812530
21
186.998789
0
LINE
8
Layer 1
10
140.812530
20
186.998789
11
140.162510
21
186.421860
0
LINE
8
Layer 1
10
140.162510
20
186.421860
11
139.307865
21
185.882760
0
LINE
8
Layer 1
10
139.307865
20
185.882760
11
138.442900
21
185.493270
0
LINE
8
Layer 1
10
138.442900
20
185.493270
11
137.743020
21
185.387514
0
LINE
8
Layer 1
10
137.743020
20
185.387514
11
137.177270
21
185.555170
0
LINE
8
Layer 1
10
137.177270
20
185.555170
11
136.684598
21
185.957561
0
LINE
8
Layer 1
10
136.684598
20
185.957561
11
136.289950
21
186.586940
0
LINE
8
Layer 1
10
136.289950
20
186.586940
11
136.042319
21
187.431274
0
LINE
8
Layer 1
10
136.042319
20
187.431274
11
136.001050
21
188.430370
0
LINE
8
Layer 1
10
136.001050
20
188.430370
11
136.191915
21
189.440640
0
LINE
8
Layer 1
10
136.191915
20
189.440640
11
136.496300
21
190.033040
0
LINE
8
Layer 1
10
136.496300
20
190.033040
11
136.645695
21
190.034863
0
LINE
8
Layer 1
10
136.645695
20
190.034863
11
136.783481
21
189.856775
0
LINE
8
Layer 1
10
136.783481
20
189.856775
11
137.019070
21
189.159470
0
LINE
8
Layer 1
10
137.019070
20
189.159470
11
137.227141
21
188.304823
0
LINE
8
Layer 1
10
137.227141
20
188.304823
11
137.569350
21
187.522400
0
LINE
8
Layer 1
10
137.569350
20
187.522400
11
138.184969
21
186.998780
0
LINE
8
Layer 1
10
138.184969
20
186.998780
11
138.986310
21
186.882710
0
LINE
8
Layer 1
10
138.986310
20
186.882710
11
139.814305
21
187.247261
0
LINE
8
Layer 1
10
139.814305
20
187.247261
11
140.451410
21
187.900720
0
LINE
8
Layer 1
10
140.451410
20
187.900720
11
140.731690
21
188.618661
0
LINE
8
Layer 1
10
140.731690
20
188.618661
11
140.754030
21
189.310810
0
LINE
8
Layer 1
10
140.754030
20
189.310810
11
140.633654
21
189.928149
0
LINE
8
Layer 1
10
140.633654
20
189.928149
11
140.286290
21
190.452630
0
LINE
8
Layer 1
10
140.286290
20
190.452630
11
139.640575
21
190.859318
0
LINE
8
Layer 1
10
139.640575
20
190.859318
11
138.876210
21
191.064810
0
LINE
8
Layer 1
10
138.876210
20
191.064810
11
138.196956
21
191.012384
0
LINE
8
Layer 1
10
138.196956
20
191.012384
11
137.651840
21
190.810310
0
LINE
8
Layer 1
10
137.651840
20
190.810310
11
136.895210
21
190.356330
0
LINE
8
Layer 1
10
139.784090
20
190.934130
11
139.323229
21
191.489564
0
LINE
8
Layer 1
10
139.323229
20
191.489564
11
138.573460
21
191.910860
0
LINE
8
Layer 1
10
138.573460
20
191.910860
11
137.382632
21
192.056155
0
LINE
8
Layer 1
10
137.382632
20
192.056155
11
136.736602
21
191.971776
0
LINE
8
Layer 1
10
136.736602
20
191.971776
11
136.145380
21
191.752620
0
LINE
8
Layer 1
10
136.145380
20
191.752620
11
135.662700
21
191.387630
0
LINE
8
Layer 1
10
135.662700
20
191.387630
11
135.291586
21
190.911729
0
LINE
8
Layer 1
10
135.291586
20
190.911729
11
134.845350
21
189.812890
0
LINE
8
Layer 1
10
134.845350
20
189.812890
11
134.715521
21
188.743291
0
LINE
8
Layer 1
10
134.715521
20
188.743291
11
134.755950
21
187.653060
0
LINE
8
Layer 1
10
134.755950
20
187.653060
11
134.914160
21
185.156180
0
LINE
8
Layer 1
10
138.463420
20
182.102190
11
137.858118
21
183.114180
0
LINE
8
Layer 1
10
137.858118
20
183.114180
11
137.459170
21
184.007520
0
LINE
8
Layer 1
10
137.459170
20
184.007520
11
137.404146
21
184.703109
0
LINE
8
Layer 1
10
137.404146
20
184.703109
11
137.555470
21
185.280040
 0 
ENDSEC
 0 
EOF