<?xml version="1.0" encoding="UTF-8" standalone="no"?>
<svg
   xmlns:dc="http://purl.org/dc/elements/1.1/"
   xmlns:cc="http://creativecommons.org/ns#"
   xmlns:rdf="http://www.w3.org/1999/02/22-rdf-syntax-ns#"
   xmlns:svg="http://www.w3.org/2000/svg"
   xmlns="http://www.w3.org/2000/svg"
   xmlns:sodipodi="http://sodipodi.sourceforge.net/DTD/sodipodi-0.dtd"
   xmlns:inkscape="http://www.inkscape.org/namespaces/inkscape"
   sodipodi:docname="gift.svg"
   inkscape:version="1.0 (4035a4fb49, 2020-05-01)"
   id="svg8"
   version="1.1"
   viewBox="0 0 60 60"
   height="60mm"
   width="60mm">
  <defs
     id="defs2" />
  <sodipodi:namedview
     inkscape:window-maximized="1"
     inkscape:window-y="-8"
     inkscape:window-x="1672"
     inkscape:window-height="987"
     inkscape:window-width="1680"
     showgrid="false"
     inkscape:document-rotation="0"
     inkscape:current-layer="layer1"
     inkscape:document-units="mm"
     inkscape:cy="445.64455"
     inkscape:cx="377.44511"
     inkscape:zoom="0.7"
     inkscape:pageshadow="2"
     inkscape:pageopacity="0.0"
     borderopacity="1.0"
     bordercolor="#666666"
     pagecolor="#ffffff"
     id="base" />
  <metadata
     id="metadata5">
    <rdf:RDF>
      <cc:Work
         rdf:about="">
        <dc:format>image/svg+xml</dc:format>
        <dc:type
           rdf:resource="http://purl.org/dc/dcmitype/StillImage" />
        <dc:title></dc:title>
      </cc:Work>
    </rdf:RDF>
  </metadata>
  <g
     id="layer1"
     inkscape:groupmode="layer"
     inkscape:label="Layer 1">
    <path
       id="path24"
       d="M 2.4934239,59.82064 C 2.0644561,59.593951 1.7920677,59.314984 1.6059526,58.911725 1.4425489,58.557677 1.4353811,57.946634 1.4334369,44.205129 L 1.4314125,29.867923 1.2236272,29.867574 C 0.92000942,29.867225 0.44107049,29.544799 0.2303752,29.199229 0.05225058,28.907083 0.04685587,28.722443 0.0465208,22.906496 l -3.452e-4,-5.991734 0.4034201,-0.40342 0.40341973,-0.403419 H 6.4676768 c 3.0880652,0 5.5948162,-0.01986 5.5705542,-0.04411 -0.02426,-0.02426 -0.415589,-0.151318 -0.86962,-0.282346 C 6.9289821,14.557927 5.0315557,12.61226 5.488372,9.9568082 5.7146025,8.6417429 6.2821135,7.7837686 7.6649749,6.6661806 9.4795743,5.1996745 9.7704223,4.84491 10.792983,2.8507638 c 0.734562,-1.4325075 1.216183,-2.01758377 2.012785,-2.44514388 0.531265,-0.28514572 0.669468,-0.31715861 1.508344,-0.3493886 0.765846,-0.02942375 1.024173,-0.0015009 1.513285,0.16365917 2.423408,0.81824841 4.064731,3.56928631 5.870242,9.83916351 0.01602,0.05567 0.359095,0.08064 0.863794,0.06286 l 0.837205,-0.02949 0.06311,-0.2937338 C 23.496477,9.6371411 23.732467,8.8608259 23.986209,8.0735495 25.440862,3.5602363 26.819935,1.3516937 28.76675,0.41765328 29.443238,0.09308848 29.485175,0.08535 30.567556,0.08535 c 1.0873,0 1.119216,0.005979 1.693045,0.3170895 0.808343,0.43826016 1.261801,0.9996383 2.092594,2.5906113 0.892359,1.7088728 1.283116,2.2066059 2.520976,3.2111125 1.78089,1.4451713 2.350286,2.1866886 2.647578,3.4479162 0.649601,2.7558575 -1.071625,4.7343275 -5.214051,5.9933115 -0.533317,0.162089 -1.05278,0.329654 -1.154364,0.372369 -0.10285,0.04325 2.30679,0.08043 5.437661,0.08391 l 5.622361,0.0062 0.394093,0.394094 c 0.338167,0.338167 0.402718,0.465938 0.454884,0.900401 0.03344,0.278475 0.04802,2.958185 0.03243,5.954911 -0.02761,5.303436 -0.03344,5.457204 -0.218071,5.771507 -0.224367,0.381936 -0.71945,0.739105 -1.024501,0.739105 H 43.634968 V 44.208661 58.54938 l -0.207785,0.406701 c -0.114281,0.223683 -0.367479,0.533777 -0.56266,0.689098 l -0.354875,0.282402 -19.869584,0.01975 C 4.6565684,59.965207 2.7441833,59.953165 2.4934344,59.820671 Z M 42.388246,59.614499 c 0.427356,-0.19724 0.731094,-0.500706 0.871166,-0.870395 0.06823,-0.180092 0.0985,-4.682252 0.0985,-14.652307 V 29.699461 l 0.372603,-0.06295 c 0.430145,-0.07267 0.849582,-0.390781 1.002714,-0.760477 0.07737,-0.186776 0.09953,-1.836973 0.08124,-6.049238 l -0.02513,-5.7924 -0.347814,-0.347808 -0.347815,-0.347807 -6.331479,-0.02496 c -4.874819,-0.01923 -6.322984,-0.05046 -6.294537,-0.1358 0.02031,-0.06096 0.200119,-0.142818 0.399555,-0.18191 2.409749,-0.47233 4.585521,-1.28491 5.77142,-2.155441 0.603511,-0.443018 1.218523,-1.142552 1.475173,-1.677908 0.315741,-0.658614 0.358477,-1.835593 0.09781,-2.6937777 C 38.900946,8.4460572 38.39847,7.8087348 36.985049,6.6448493 36.303249,6.0834192 35.547635,5.3785694 35.305906,5.0785167 35.064178,4.7784637 34.551137,3.9234101 34.165811,3.1783974 33.333357,1.5688751 32.860545,0.98778521 32.064541,0.59591299 30.669161,-0.09103049 29.00451,0.23930178 27.67943,1.466091 26.727734,2.3471928 25.872582,3.7549653 25.083893,5.7389359 24.715164,6.6664748 23.757695,9.5538367 23.646855,10.072496 l -0.06208,0.290496 -0.849009,-0.0031 c -0.466954,-0.0017 -0.927776,0.013 -1.024044,0.03273 -0.152281,0.0312 -0.231132,-0.150241 -0.606509,-1.3955534 C 20.271606,6.2315277 19.360634,4.0572347 18.481543,2.7348919 17.036723,0.56157272 14.825162,-0.30170657 13.001856,0.59590391 12.219659,0.98097831 11.726263,1.5756241 10.977695,3.0354462 9.9507406,5.0381608 9.6497765,5.4035807 7.8173647,6.8726047 6.8464448,7.6509806 6.2528936,8.3763931 5.9463488,9.1592789 5.7801965,9.5836161 5.7373792,9.8834901 5.7321691,10.659308 c -0.00581,0.864767 0.020066,1.026361 0.2391742,1.493761 0.75729,1.61544 3.1728447,2.973923 6.5886437,3.705384 1.904343,0.407796 1.592819,0.434124 -5.1412626,0.434497 -6.0418784,3.49e-4 -6.2267077,0.0055 -6.51915314,0.183855 -0.16553839,0.100931 -0.38355783,0.318949 -0.48448755,0.484487 -0.1778318,0.291668 -0.18352004,0.476067 -0.18385442,5.960328 -3.8394e-4,6.124979 -0.005019,6.064854 0.49910276,6.461398 0.13463019,0.105901 0.40978715,0.220423 0.61146025,0.254496 L 1.70847,29.699464 V 44.0918 c 0,9.970055 0.030265,14.472215 0.098501,14.652307 0.1400717,0.369689 0.4438081,0.673155 0.8711651,0.870395 0.355437,0.164043 1.1057589,0.170487 19.8550599,0.170487 18.749304,0 19.499627,-0.0065 19.855064,-0.170487 z"
       style="fill:none;stroke:#800000;stroke-width:0.092349" />
  </g>
</svg>
