  0
SECTION
  2
HEADER
  9
$ACADVER
  1
AC1014
  9
$HANDSEED
  5
FFFF
  9
$MEASUREMENT
 70
     1
  0
ENDSEC
  0
SECTION
  2
TABLES
  0
TABLE
  2
VPORT
  5
8
330
0
100
AcDbSymbolTable
 70
     4
  0
VPORT
  5
2E
330
8
100
AcDbSymbolTableRecord
100
AcDbViewportTableRecord
  2
*ACTIVE
 70
     0
 10
0.0
 20
0.0
 11
1.0
 21
1.0
 12
210.0
 22
148.5
 13
0.0
 23
0.0
 14
10.0
 24
10.0
 15
10.0
 25
10.0
 16
0.0
 26
0.0
 36
1.0
 17
0.0
 27
0.0
 37
0.0
 40
341.0
 41
1.24
 42
50.0
 43
0.0
 44
0.0
 50
0.0
 51
0.0
 71
     0
 72
   100
 73
     1
 74
     3
 75
     0
 76
     0
 77
     0
 78
     0
  0
ENDTAB
  0
TABLE
  2
LTYPE
  5
5
330
0
100
AcDbSymbolTable
 70
     1
  0
LTYPE
  5
14
330
5
100
AcDbSymbolTableRecord
100
AcDbLinetypeTableRecord
  2
BYBLOCK
 70
     0
  3

 72
    65
 73
     0
 40
0.0
  0
LTYPE
  5
15
330
5
100
AcDbSymbolTableRecord
100
AcDbLinetypeTableRecord
  2
BYLAYER
 70
     0
  3

 72
    65
 73
     0
 40
0.0
  0
LTYPE
  5
16
330
5
100
AcDbSymbolTableRecord
100
AcDbLinetypeTableRecord
  2
CONTINUOUS
 70
     0
  3
Solid line
 72
    65
 73
     0
 40
0.0
  0
ENDTAB
  0
TABLE
  2
LAYER
  5
2
100
AcDbSymbolTable
 70
2
  0
LAYER
  5
50
100
AcDbSymbolTableRecord
100
AcDbLayerTableRecord
  2
0
 70
0
  6
CONTINUOUS
  0
LAYER
  5
51
100
AcDbSymbolTableRecord
100
AcDbLayerTableRecord
  2
Layer_1
 70
0
  6
CONTINUOUS
  0
ENDTAB
  0
TABLE
  2
STYLE
  5
3
330
0
100
AcDbSymbolTable
 70
     1
  0
STYLE
  5
11
330
3
100
AcDbSymbolTableRecord
100
AcDbTextStyleTableRecord
  2
STANDARD
 70
     0
 40
0.0
 41
1.0
 50
0.0
 71
     0
 42
2.5
  3
txt
  4

  0
ENDTAB
  0
TABLE
  2
VIEW
  5
6
330
0
100
AcDbSymbolTable
 70
     0
  0
ENDTAB
  0
TABLE
  2
UCS
  5
7
330
0
100
AcDbSymbolTable
 70
     0
  0
ENDTAB
  0
TABLE
  2
APPID
  5
9
330
0
100
AcDbSymbolTable
 70
     2
  0
APPID
  5
12
330
9
100
AcDbSymbolTableRecord
100
AcDbRegAppTableRecord
  2
ACAD
 70
     0
  0
ENDTAB
  0
TABLE
  2
DIMSTYLE
  5
A
330
0
100
AcDbSymbolTable
 70
     1
  0
DIMSTYLE
105
27
330
A
100
AcDbSymbolTableRecord
100
AcDbDimStyleTableRecord
  2
ISO-25
 70
     0
  3

  4

  5

  6

  7

 40
1.0
 41
2.5
 42
0.625
 43
3.75
 44
1.25
 45
0.0
 46
0.0
 47
0.0
 48
0.0
140
2.5
141
2.5
142
0.0
143
0.03937007874016
144
1.0
145
0.0
146
1.0
147
0.625
 71
     0
 72
     0
 73
     0
 74
     0
 75
     0
 76
     0
 77
     1
 78
     8
170
     0
171
     3
172
     1
173
     0
174
     0
175
     0
176
     0
177
     0
178
     0
270
     2
271
     2
272
     2
273
     2
274
     3
340
11
275
     0
280
     0
281
     0
282
     0
283
     0
284
     8
285
     0
286
     0
287
     3
288
     0
  0
ENDTAB
  0
TABLE
  2
BLOCK_RECORD
  5
1
330
0
100
AcDbSymbolTable
 70
     1
  0
BLOCK_RECORD
  5
1F
330
1
100
AcDbSymbolTableRecord
100
AcDbBlockTableRecord
  2
*MODEL_SPACE
  0
BLOCK_RECORD
  5
1B
330
1
100
AcDbSymbolTableRecord
100
AcDbBlockTableRecord
  2
*PAPER_SPACE
  0
ENDTAB
  0
ENDSEC
  0
SECTION
  2
BLOCKS
  0
BLOCK
  5
20
330
1F
100
AcDbEntity
  8
0
100
AcDbBlockBegin
  2
*MODEL_SPACE
 70
     0
 10
0.0
 20
0.0
 30
0.0
  3
*MODEL_SPACE
  1

  0
ENDBLK
  5
21
330
1F
100
AcDbEntity
  8
0
100
AcDbBlockEnd
  0
BLOCK
  5
1C
330
1B
100
AcDbEntity
 67
     1
  8
0
100
AcDbBlockBegin
  2
*PAPER_SPACE
  1

  0
ENDBLK
  5
1D
330
1B
100
AcDbEntity
 67
     1
  8
0
100
AcDbBlockEnd
  0
ENDSEC
  0
SECTION
  2
ENTITIES
  0
SPLINE
  5
100
100
AcDbEntity
  8
Layer_1
 62
1
100
AcDbSpline
 70
8
 71
3
 72
8
 73
4
 74
0
 40
0
 40
0
 40
0
 40
0
 40
1
 40
1
 40
1
 40
1
 10
7.067973
 20
0.508422
 30
0.0
 10
5.852002
 20
1.151005
 30
0.0
 10
5.079877
 20
1.941778
 30
0.0
 10
4.552307
 20
3.084874
 30
0.0
  0
SPLINE
  5
101
100
AcDbEntity
  8
Layer_1
 62
1
100
AcDbSpline
 70
8
 71
3
 72
8
 73
4
 74
0
 40
0
 40
0
 40
0
 40
0
 40
1
 40
1
 40
1
 40
1
 10
4.552307
 20
3.084874
 30
0.0
 10
4.089115
 20
4.088475
 30
0.0
 10
4.068797
 20
5.820565
 30
0.0
 10
4.063286
 20
44.772863
 30
0.0
  0
SPLINE
  5
102
100
AcDbEntity
  8
Layer_1
 62
1
100
AcDbSpline
 70
8
 71
3
 72
8
 73
4
 74
0
 40
0
 40
0
 40
0
 40
0
 40
1
 40
1
 40
1
 40
1
 10
3.468550
 20
85.414751
 30
0.0
 10
2.607901
 20
85.415740
 30
0.0
 10
1.250279
 20
86.329704
 30
0.0
 10
0.653032
 20
87.309272
 30
0.0
  0
SPLINE
  5
103
100
AcDbEntity
  8
Layer_1
 62
1
100
AcDbSpline
 70
8
 71
3
 72
8
 73
4
 74
0
 40
0
 40
0
 40
0
 40
0
 40
1
 40
1
 40
1
 40
1
 10
0.653032
 20
87.309272
 30
0.0
 10
0.148112
 20
88.137403
 30
0.0
 10
0.132820
 20
88.660791
 30
0.0
 10
0.131870
 20
105.146940
 30
0.0
  0
LWPOLYLINE
  5
104
100
AcDbEntity
  8
Layer_1
 62
1
100
AcDbPolyline
 90
3
 70
0
 10
4.063286
 20
44.772863
 30
0.0
 10
4.057547
 20
85.413762
 30
0.0
 10
3.468550
 20
85.414751
 30
0.0
  0
SPLINE
  5
105
100
AcDbEntity
  8
Layer_1
 62
1
100
AcDbSpline
 70
8
 71
3
 72
8
 73
4
 74
0
 40
0
 40
0
 40
0
 40
0
 40
1
 40
1
 40
1
 40
1
 10
18.333572
 20
124.418486
 30
0.0
 10
27.087143
 20
124.418486
 30
0.0
 10
34.192894
 20
124.474782
 30
0.0
 10
34.124119
 20
124.543522
 30
0.0
  0
SPLINE
  5
106
100
AcDbEntity
  8
Layer_1
 62
1
100
AcDbSpline
 70
8
 71
3
 72
8
 73
4
 74
0
 40
0
 40
0
 40
0
 40
0
 40
1
 40
1
 40
1
 40
1
 10
34.124119
 20
124.543522
 30
0.0
 10
34.055351
 20
124.612291
 30
0.0
 10
32.946072
 20
124.972455
 30
0.0
 10
31.659055
 20
125.343873
 30
0.0
  0
SPLINE
  5
107
100
AcDbEntity
  8
Layer_1
 62
1
100
AcDbSpline
 70
8
 71
3
 72
8
 73
4
 74
0
 40
0
 40
0
 40
0
 40
0
 40
1
 40
1
 40
1
 40
1
 10
31.659055
 20
125.343873
 30
0.0
 10
19.641209
 20
128.812175
 30
0.0
 10
14.262678
 20
134.327452
 30
0.0
 10
15.557590
 20
141.854717
 30
0.0
  0
SPLINE
  5
108
100
AcDbEntity
  8
Layer_1
 62
1
100
AcDbSpline
 70
8
 71
3
 72
8
 73
4
 74
0
 40
0
 40
0
 40
0
 40
0
 40
1
 40
1
 40
1
 40
1
 10
15.557590
 20
141.854717
 30
0.0
 10
16.198873
 20
145.582461
 30
0.0
 10
17.807566
 20
148.014514
 30
0.0
 10
21.727488
 20
151.182480
 30
0.0
  0
SPLINE
  5
109
100
AcDbEntity
  8
Layer_1
 62
1
100
AcDbSpline
 70
8
 71
3
 72
8
 73
4
 74
0
 40
0
 40
0
 40
0
 40
0
 40
1
 40
1
 40
1
 40
1
 10
21.727488
 20
151.182480
 30
0.0
 10
26.871234
 20
155.339505
 30
0.0
 10
27.695685
 20
156.345137
 30
0.0
 10
30.594283
 20
161.997835
 30
0.0
  0
SPLINE
  5
10a
100
AcDbEntity
  8
Layer_1
 62
1
100
AcDbSpline
 70
8
 71
3
 72
8
 73
4
 74
0
 40
0
 40
0
 40
0
 40
0
 40
1
 40
1
 40
1
 40
1
 10
30.594283
 20
161.997835
 30
0.0
 10
32.676506
 20
166.058486
 30
0.0
 10
34.041730
 20
167.716970
 30
0.0
 10
36.299815
 20
168.928951
 30
0.0
  0
SPLINE
  5
10b
100
AcDbEntity
  8
Layer_1
 62
1
100
AcDbSpline
 70
8
 71
3
 72
8
 73
4
 74
0
 40
0
 40
0
 40
0
 40
0
 40
1
 40
1
 40
1
 40
1
 10
36.299815
 20
168.928951
 30
0.0
 10
37.805763
 20
169.737238
 30
0.0
 10
38.197519
 20
169.827984
 30
0.0
 10
40.575436
 20
169.919344
 30
0.0
  0
SPLINE
  5
10c
100
AcDbEntity
  8
Layer_1
 62
1
100
AcDbSpline
 70
8
 71
3
 72
8
 73
4
 74
0
 40
0
 40
0
 40
0
 40
0
 40
1
 40
1
 40
1
 40
1
 10
40.575436
 20
169.919344
 30
0.0
 10
42.746338
 20
170.002750
 30
0.0
 10
43.478603
 20
169.923599
 30
0.0
 10
44.865062
 20
169.455429
 30
0.0
  0
SPLINE
  5
10d
100
AcDbEntity
  8
Layer_1
 62
1
100
AcDbSpline
 70
8
 71
3
 72
8
 73
4
 74
0
 40
0
 40
0
 40
0
 40
0
 40
1
 40
1
 40
1
 40
1
 10
44.865062
 20
169.455429
 30
0.0
 10
51.734565
 20
167.135984
 30
0.0
 10
56.387134
 20
159.337767
 30
0.0
 10
61.505118
 20
141.564886
 30
0.0
  0
SPLINE
  5
10e
100
AcDbEntity
  8
Layer_1
 62
1
100
AcDbSpline
 70
8
 71
3
 72
8
 73
4
 74
0
 40
0
 40
0
 40
0
 40
0
 40
1
 40
1
 40
1
 40
1
 10
61.505118
 20
141.564886
 30
0.0
 10
61.550529
 20
141.407082
 30
0.0
 10
62.523026
 20
141.336300
 30
0.0
 10
63.953668
 20
141.386700
 30
0.0
  0
LWPOLYLINE
  5
10f
100
AcDbEntity
  8
Layer_1
 62
1
100
AcDbPolyline
 90
5
 70
0
 10
0.131870
 20
105.146940
 30
0.0
 10
0.130891
 20
122.131383
 30
0.0
 10
1.274445
 20
123.274936
 30
0.0
 10
2.417996
 20
124.418486
 30
0.0
 10
18.333572
 20
124.418486
 30
0.0
  0
SPLINE
  5
110
100
AcDbEntity
  8
Layer_1
 62
1
100
AcDbSpline
 70
8
 71
3
 72
8
 73
4
 74
0
 40
0
 40
0
 40
0
 40
0
 40
1
 40
1
 40
1
 40
1
 10
66.505742
 20
142.302925
 30
0.0
 10
66.604187
 20
142.760860
 30
0.0
 10
67.273135
 20
144.961438
 30
0.0
 10
67.992403
 20
147.193088
 30
0.0
  0
SPLINE
  5
111
100
AcDbEntity
  8
Layer_1
 62
1
100
AcDbSpline
 70
8
 71
3
 72
8
 73
4
 74
0
 40
0
 40
0
 40
0
 40
0
 40
1
 40
1
 40
1
 40
1
 10
67.992403
 20
147.193088
 30
0.0
 10
72.115829
 20
159.986732
 30
0.0
 10
76.025013
 20
166.247167
 30
0.0
 10
81.543543
 20
168.894841
 30
0.0
  0
SPLINE
  5
112
100
AcDbEntity
  8
Layer_1
 62
1
100
AcDbSpline
 70
8
 71
3
 72
8
 73
4
 74
0
 40
0
 40
0
 40
0
 40
0
 40
1
 40
1
 40
1
 40
1
 10
81.543543
 20
168.894841
 30
0.0
 10
83.461147
 20
169.814867
 30
0.0
 10
83.580024
 20
169.836803
 30
0.0
 10
86.648190
 20
169.836803
 30
0.0
  0
SPLINE
  5
113
100
AcDbEntity
  8
Layer_1
 62
1
100
AcDbSpline
 70
8
 71
3
 72
8
 73
4
 74
0
 40
0
 40
0
 40
0
 40
0
 40
1
 40
1
 40
1
 40
1
 10
86.648190
 20
169.836803
 30
0.0
 10
89.730300
 20
169.836803
 30
0.0
 10
89.820771
 20
169.819855
 30
0.0
 10
91.447373
 20
168.937967
 30
0.0
  0
SPLINE
  5
114
100
AcDbEntity
  8
Layer_1
 62
1
100
AcDbSpline
 70
8
 71
3
 72
8
 73
4
 74
0
 40
0
 40
0
 40
0
 40
0
 40
1
 40
1
 40
1
 40
1
 10
91.447373
 20
168.937967
 30
0.0
 10
93.738739
 20
167.695655
 30
0.0
 10
95.024132
 20
166.104346
 30
0.0
 10
97.379135
 20
161.594502
 30
0.0
  0
SPLINE
  5
115
100
AcDbEntity
  8
Layer_1
 62
1
100
AcDbSpline
 70
8
 71
3
 72
8
 73
4
 74
0
 40
0
 40
0
 40
0
 40
0
 40
1
 40
1
 40
1
 40
1
 10
97.379135
 20
161.594502
 30
0.0
 10
99.908657
 20
156.750453
 30
0.0
 10
101.016315
 20
155.339556
 30
0.0
 10
104.525209
 20
152.492136
 30
0.0
  0
SPLINE
  5
116
100
AcDbEntity
  8
Layer_1
 62
1
100
AcDbSpline
 70
8
 71
3
 72
8
 73
4
 74
0
 40
0
 40
0
 40
0
 40
0
 40
1
 40
1
 40
1
 40
1
 10
104.525209
 20
152.492136
 30
0.0
 10
109.573401
 20
148.395587
 30
0.0
 10
111.187437
 20
146.293648
 30
0.0
 10
112.030155
 20
142.718515
 30
0.0
  0
SPLINE
  5
117
100
AcDbEntity
  8
Layer_1
 62
1
100
AcDbSpline
 70
8
 71
3
 72
8
 73
4
 74
0
 40
0
 40
0
 40
0
 40
0
 40
1
 40
1
 40
1
 40
1
 10
112.030155
 20
142.718515
 30
0.0
 10
113.871543
 20
134.906635
 30
0.0
 10
108.992477
 20
129.298374
 30
0.0
 10
97.250168
 20
125.729600
 30
0.0
  0
SPLINE
  5
118
100
AcDbEntity
  8
Layer_1
 62
1
100
AcDbSpline
 70
8
 71
3
 72
8
 73
4
 74
0
 40
0
 40
0
 40
0
 40
0
 40
1
 40
1
 40
1
 40
1
 10
97.250168
 20
125.729600
 30
0.0
 10
95.738403
 20
125.270135
 30
0.0
 10
94.265909
 20
124.795148
 30
0.0
 10
93.977955
 20
124.674066
 30
0.0
  0
SPLINE
  5
119
100
AcDbEntity
  8
Layer_1
 62
1
100
AcDbSpline
 70
8
 71
3
 72
8
 73
4
 74
0
 40
0
 40
0
 40
0
 40
0
 40
1
 40
1
 40
1
 40
1
 10
93.977955
 20
124.674066
 30
0.0
 10
93.686411
 20
124.551468
 30
0.0
 10
100.516887
 20
124.446076
 30
0.0
 10
109.391797
 20
124.436211
 30
0.0
  0
LWPOLYLINE
  5
11a
100
AcDbEntity
  8
Layer_1
 62
1
100
AcDbPolyline
 90
3
 70
0
 10
63.953668
 20
141.386700
 30
0.0
 10
66.326848
 20
141.470294
 30
0.0
 10
66.505742
 20
142.302925
 30
0.0
  0
SPLINE
  5
11b
100
AcDbEntity
  8
Layer_1
 62
1
100
AcDbSpline
 70
8
 71
3
 72
8
 73
4
 74
0
 40
0
 40
0
 40
0
 40
0
 40
1
 40
1
 40
1
 40
1
 10
126.446312
 20
123.301519
 30
0.0
 10
127.404896
 20
122.342936
 30
0.0
 10
127.587875
 20
121.980750
 30
0.0
 10
127.735747
 20
120.749202
 30
0.0
  0
SPLINE
  5
11c
100
AcDbEntity
  8
Layer_1
 62
1
100
AcDbSpline
 70
8
 71
3
 72
8
 73
4
 74
0
 40
0
 40
0
 40
0
 40
0
 40
1
 40
1
 40
1
 40
1
 10
127.735747
 20
120.749202
 30
0.0
 10
127.830538
 20
119.959824
 30
0.0
 10
127.871867
 20
112.363795
 30
0.0
 10
127.827675
 20
103.869139
 30
0.0
  0
SPLINE
  5
11d
100
AcDbEntity
  8
Layer_1
 62
1
100
AcDbSpline
 70
8
 71
3
 72
8
 73
4
 74
0
 40
0
 40
0
 40
0
 40
0
 40
1
 40
1
 40
1
 40
1
 10
127.827675
 20
103.869139
 30
0.0
 10
127.749410
 20
88.835777
 30
0.0
 10
127.732884
 20
88.399899
 30
0.0
 10
127.209521
 20
87.508962
 30
0.0
  0
SPLINE
  5
11e
100
AcDbEntity
  8
Layer_1
 62
1
100
AcDbSpline
 70
8
 71
3
 72
8
 73
4
 74
0
 40
0
 40
0
 40
0
 40
0
 40
1
 40
1
 40
1
 40
1
 10
127.209521
 20
87.508962
 30
0.0
 10
126.573520
 20
86.426308
 30
0.0
 10
125.170135
 20
85.413861
 30
0.0
 10
124.305423
 20
85.413861
 30
0.0
  0
LWPOLYLINE
  5
11f
100
AcDbEntity
  8
Layer_1
 62
1
100
AcDbPolyline
 90
3
 70
0
 10
109.391797
 20
124.436211
 30
0.0
 10
125.329198
 20
124.418636
 30
0.0
 10
126.446312
 20
123.301519
 30
0.0
  0
SPLINE
  5
120
100
AcDbEntity
  8
Layer_1
 62
1
100
AcDbSpline
 70
8
 71
3
 72
8
 73
4
 74
0
 40
0
 40
0
 40
0
 40
0
 40
1
 40
1
 40
1
 40
1
 10
123.100676
 20
2.959140
 30
0.0
 10
122.776730
 20
2.325078
 30
0.0
 10
122.059003
 20
1.446072
 30
0.0
 10
121.505734
 20
1.005792
 30
0.0
  0
LWPOLYLINE
  5
121
100
AcDbEntity
  8
Layer_1
 62
1
100
AcDbPolyline
 90
5
 70
0
 10
124.305423
 20
85.413861
 30
0.0
 10
123.689673
 20
85.413861
 30
0.0
 10
123.689673
 20
44.762851
 30
0.0
 10
123.689673
 20
4.111994
 30
0.0
 10
123.100676
 20
2.959140
 30
0.0
  0
SPLINE
  5
122
100
AcDbEntity
  8
Layer_1
 62
1
100
AcDbSpline
 70
8
 71
3
 72
8
 73
4
 74
0
 40
0
 40
0
 40
0
 40
0
 40
1
 40
1
 40
1
 40
1
 10
64.176559
 20
0.149298
 30
0.0
 10
13.199721
 20
0.098626
 30
0.0
 10
7.778787
 20
0.132761
 30
0.0
 10
7.068003
 20
0.508334
 30
0.0
  0
LWPOLYLINE
  5
123
100
AcDbEntity
  8
Layer_1
 62
1
100
AcDbPolyline
 90
3
 70
0
 10
121.505734
 20
1.005792
 30
0.0
 10
120.499790
 20
0.205282
 30
0.0
 10
64.176559
 20
0.149298
 30
0.0
  0
SPLINE
  5
124
100
AcDbEntity
  8
Layer_1
 62
1
100
AcDbSpline
 70
8
 71
3
 72
8
 73
4
 74
0
 40
0
 40
0
 40
0
 40
0
 40
1
 40
1
 40
1
 40
1
 10
120.155658
 20
1.092759
 30
0.0
 10
121.367061
 20
1.651864
 30
0.0
 10
122.228050
 20
2.512083
 30
0.0
 10
122.625105
 20
3.560020
 30
0.0
  0
SPLINE
  5
125
100
AcDbEntity
  8
Layer_1
 62
1
100
AcDbSpline
 70
8
 71
3
 72
8
 73
4
 74
0
 40
0
 40
0
 40
0
 40
0
 40
1
 40
1
 40
1
 40
1
 10
122.625105
 20
3.560020
 30
0.0
 10
122.818513
 20
4.070517
 30
0.0
 10
122.904317
 20
16.832546
 30
0.0
 10
122.904317
 20
45.094119
 30
0.0
  0
LWPOLYLINE
  5
126
100
AcDbEntity
  8
Layer_1
 62
1
100
AcDbPolyline
 90
1
 70
1
 10
7.068003
 20
0.508334
 30
0.0
  0
SPLINE
  5
127
100
AcDbEntity
  8
Layer_1
 62
1
100
AcDbSpline
 70
8
 71
3
 72
8
 73
4
 74
0
 40
0
 40
0
 40
0
 40
0
 40
1
 40
1
 40
1
 40
1
 10
123.960515
 20
86.069733
 30
0.0
 10
125.179824
 20
86.275726
 30
0.0
 10
126.368779
 20
87.177458
 30
0.0
 10
126.802854
 20
88.225415
 30
0.0
  0
SPLINE
  5
128
100
AcDbEntity
  8
Layer_1
 62
1
100
AcDbSpline
 70
8
 71
3
 72
8
 73
4
 74
0
 40
0
 40
0
 40
0
 40
0
 40
1
 40
1
 40
1
 40
1
 10
126.802854
 20
88.225415
 30
0.0
 10
127.022170
 20
88.754859
 30
0.0
 10
127.084986
 20
93.432583
 30
0.0
 10
127.033140
 20
105.372862
 30
0.0
  0
LWPOLYLINE
  5
129
100
AcDbEntity
  8
Layer_1
 62
1
100
AcDbPolyline
 90
3
 70
0
 10
122.904317
 20
45.094119
 30
0.0
 10
122.904317
 20
85.891292
 30
0.0
 10
123.960515
 20
86.069733
 30
0.0
  0
SPLINE
  5
12a
100
AcDbEntity
  8
Layer_1
 62
1
100
AcDbSpline
 70
8
 71
3
 72
8
 73
4
 74
0
 40
0
 40
0
 40
0
 40
0
 40
1
 40
1
 40
1
 40
1
 10
107.042545
 20
123.834838
 30
0.0
 10
93.224160
 20
123.889348
 30
0.0
 10
89.119125
 20
123.977874
 30
0.0
 10
89.199763
 20
124.219783
 30
0.0
  0
SPLINE
  5
12b
100
AcDbEntity
  8
Layer_1
 62
1
100
AcDbSpline
 70
8
 71
3
 72
8
 73
4
 74
0
 40
0
 40
0
 40
0
 40
0
 40
1
 40
1
 40
1
 40
1
 10
89.199763
 20
124.219783
 30
0.0
 10
89.257334
 20
124.392583
 30
0.0
 10
89.767029
 20
124.624621
 30
0.0
 10
90.332359
 20
124.735433
 30
0.0
  0
SPLINE
  5
12c
100
AcDbEntity
  8
Layer_1
 62
1
100
AcDbSpline
 70
8
 71
3
 72
8
 73
4
 74
0
 40
0
 40
0
 40
0
 40
0
 40
1
 40
1
 40
1
 40
1
 10
90.332359
 20
124.735433
 30
0.0
 10
97.163144
 20
126.074322
 30
0.0
 10
103.330687
 20
128.377698
 30
0.0
 10
106.692290
 20
130.845345
 30
0.0
  0
SPLINE
  5
12d
100
AcDbEntity
  8
Layer_1
 62
1
100
AcDbSpline
 70
8
 71
3
 72
8
 73
4
 74
0
 40
0
 40
0
 40
0
 40
0
 40
1
 40
1
 40
1
 40
1
 10
106.692290
 20
130.845345
 30
0.0
 10
108.403030
 20
132.101144
 30
0.0
 10
110.146371
 20
134.084075
 30
0.0
 10
110.873883
 20
135.601620
 30
0.0
  0
SPLINE
  5
12e
100
AcDbEntity
  8
Layer_1
 62
1
100
AcDbSpline
 70
8
 71
3
 72
8
 73
4
 74
0
 40
0
 40
0
 40
0
 40
0
 40
1
 40
1
 40
1
 40
1
 10
110.873883
 20
135.601620
 30
0.0
 10
111.768897
 20
137.468557
 30
0.0
 10
111.890038
 20
140.804875
 30
0.0
 10
111.151140
 20
143.237525
 30
0.0
  0
SPLINE
  5
12f
100
AcDbEntity
  8
Layer_1
 62
1
100
AcDbSpline
 70
8
 71
3
 72
8
 73
4
 74
0
 40
0
 40
0
 40
0
 40
0
 40
1
 40
1
 40
1
 40
1
 10
111.151140
 20
143.237525
 30
0.0
 10
110.270398
 20
146.137161
 30
0.0
 10
108.846057
 20
147.943744
 30
0.0
 10
104.839509
 20
151.242947
 30
0.0
  0
SPLINE
  5
130
100
AcDbEntity
  8
Layer_1
 62
1
100
AcDbSpline
 70
8
 71
3
 72
8
 73
4
 74
0
 40
0
 40
0
 40
0
 40
0
 40
1
 40
1
 40
1
 40
1
 10
104.839509
 20
151.242947
 30
0.0
 10
102.906848
 20
152.834402
 30
0.0
 10
100.764950
 20
154.832402
 30
0.0
 10
100.079734
 20
155.682945
 30
0.0
  0
SPLINE
  5
131
100
AcDbEntity
  8
Layer_1
 62
1
100
AcDbSpline
 70
8
 71
3
 72
8
 73
4
 74
0
 40
0
 40
0
 40
0
 40
0
 40
1
 40
1
 40
1
 40
1
 10
100.079734
 20
155.682945
 30
0.0
 10
99.394520
 20
156.533489
 30
0.0
 10
97.940231
 20
158.957263
 30
0.0
 10
96.847968
 20
161.069110
 30
0.0
  0
SPLINE
  5
132
100
AcDbEntity
  8
Layer_1
 62
1
100
AcDbSpline
 70
8
 71
3
 72
8
 73
4
 74
0
 40
0
 40
0
 40
0
 40
0
 40
1
 40
1
 40
1
 40
1
 10
96.847968
 20
161.069110
 30
0.0
 10
94.488256
 20
165.631535
 30
0.0
 10
93.148002
 20
167.278719
 30
0.0
 10
90.891612
 20
168.389538
 30
0.0
  0
SPLINE
  5
133
100
AcDbEntity
  8
Layer_1
 62
1
100
AcDbSpline
 70
8
 71
3
 72
8
 73
4
 74
0
 40
0
 40
0
 40
0
 40
0
 40
1
 40
1
 40
1
 40
1
 10
90.891612
 20
168.389538
 30
0.0
 10
86.936204
 20
170.336779
 30
0.0
 10
82.217509
 20
169.400404
 30
0.0
 10
78.461376
 20
165.922892
 30
0.0
  0
SPLINE
  5
134
100
AcDbEntity
  8
Layer_1
 62
1
100
AcDbSpline
 70
8
 71
3
 72
8
 73
4
 74
0
 40
0
 40
0
 40
0
 40
0
 40
1
 40
1
 40
1
 40
1
 10
78.461376
 20
165.922892
 30
0.0
 10
75.763655
 20
163.425280
 30
0.0
 10
73.339603
 20
159.434744
 30
0.0
 10
71.103949
 20
153.810890
 30
0.0
  0
SPLINE
  5
135
100
AcDbEntity
  8
Layer_1
 62
1
100
AcDbSpline
 70
8
 71
3
 72
8
 73
4
 74
0
 40
0
 40
0
 40
0
 40
0
 40
1
 40
1
 40
1
 40
1
 10
71.103949
 20
153.810890
 30
0.0
 10
70.058733
 20
151.181646
 30
0.0
 10
67.344647
 20
142.996998
 30
0.0
 10
67.030455
 20
141.526783
 30
0.0
  0
LWPOLYLINE
  5
136
100
AcDbEntity
  8
Layer_1
 62
1
100
AcDbPolyline
 90
5
 70
0
 10
127.033140
 20
105.372862
 30
0.0
 10
126.961906
 20
121.792263
 30
0.0
 10
125.975976
 20
122.778176
 30
0.0
 10
124.990044
 20
123.764085
 30
0.0
 10
107.042545
 20
123.834838
 30
0.0
  0
SPLINE
  5
137
100
AcDbEntity
  8
Layer_1
 62
1
100
AcDbSpline
 70
8
 71
3
 72
8
 73
4
 74
0
 40
0
 40
0
 40
0
 40
0
 40
1
 40
1
 40
1
 40
1
 10
64.447841
 20
140.712117
 30
0.0
 10
63.124191
 20
140.716936
 30
0.0
 10
61.817924
 20
140.675267
 30
0.0
 10
61.545039
 20
140.619339
 30
0.0
  0
SPLINE
  5
138
100
AcDbEntity
  8
Layer_1
 62
1
100
AcDbSpline
 70
8
 71
3
 72
8
 73
4
 74
0
 40
0
 40
0
 40
0
 40
0
 40
1
 40
1
 40
1
 40
1
 10
61.545039
 20
140.619339
 30
0.0
 10
61.113376
 20
140.530898
 30
0.0
 10
60.889861
 20
141.045219
 30
0.0
 10
59.825801
 20
144.575239
 30
0.0
  0
SPLINE
  5
139
100
AcDbEntity
  8
Layer_1
 62
1
100
AcDbSpline
 70
8
 71
3
 72
8
 73
4
 74
0
 40
0
 40
0
 40
0
 40
0
 40
1
 40
1
 40
1
 40
1
 10
59.825801
 20
144.575239
 30
0.0
 10
57.462820
 20
152.414567
 30
0.0
 10
54.880537
 20
158.577917
 30
0.0
 10
52.388626
 20
162.326291
 30
0.0
  0
SPLINE
  5
13a
100
AcDbEntity
  8
Layer_1
 62
1
100
AcDbSpline
 70
8
 71
3
 72
8
 73
4
 74
0
 40
0
 40
0
 40
0
 40
0
 40
1
 40
1
 40
1
 40
1
 10
52.388626
 20
162.326291
 30
0.0
 10
48.293073
 20
168.486880
 30
0.0
 10
42.024081
 20
170.933971
 30
0.0
 10
36.855655
 20
168.389564
 30
0.0
  0
SPLINE
  5
13b
100
AcDbEntity
  8
Layer_1
 62
1
100
AcDbSpline
 70
8
 71
3
 72
8
 73
4
 74
0
 40
0
 40
0
 40
0
 40
0
 40
1
 40
1
 40
1
 40
1
 10
36.855655
 20
168.389564
 30
0.0
 10
34.638403
 20
167.298014
 30
0.0
 10
33.239801
 20
165.612404
 30
0.0
 10
31.117876
 20
161.474326
 30
0.0
  0
SPLINE
  5
13c
100
AcDbEntity
  8
Layer_1
 62
1
100
AcDbSpline
 70
8
 71
3
 72
8
 73
4
 74
0
 40
0
 40
0
 40
0
 40
0
 40
1
 40
1
 40
1
 40
1
 10
31.117876
 20
161.474326
 30
0.0
 10
28.206824
 20
155.797339
 30
0.0
 10
27.353697
 20
154.761504
 30
0.0
 10
22.159459
 20
150.597341
 30
0.0
  0
SPLINE
  5
13d
100
AcDbEntity
  8
Layer_1
 62
1
100
AcDbSpline
 70
8
 71
3
 72
8
 73
4
 74
0
 40
0
 40
0
 40
0
 40
0
 40
1
 40
1
 40
1
 40
1
 10
22.159459
 20
150.597341
 30
0.0
 10
19.407245
 20
148.390921
 30
0.0
 10
17.724738
 20
146.334634
 30
0.0
 10
16.855792
 20
144.115430
 30
0.0
  0
SPLINE
  5
13e
100
AcDbEntity
  8
Layer_1
 62
1
100
AcDbSpline
 70
8
 71
3
 72
8
 73
4
 74
0
 40
0
 40
0
 40
0
 40
0
 40
1
 40
1
 40
1
 40
1
 10
16.855792
 20
144.115430
 30
0.0
 10
16.384809
 20
142.912584
 30
0.0
 10
16.263437
 20
142.062548
 30
0.0
 10
16.248668
 20
139.863379
 30
0.0
  0
SPLINE
  5
13f
100
AcDbEntity
  8
Layer_1
 62
1
100
AcDbSpline
 70
8
 71
3
 72
8
 73
4
 74
0
 40
0
 40
0
 40
0
 40
0
 40
1
 40
1
 40
1
 40
1
 10
16.248668
 20
139.863379
 30
0.0
 10
16.232199
 20
137.412071
 30
0.0
 10
16.305548
 20
136.954009
 30
0.0
 10
16.926642
 20
135.629096
 30
0.0
  0
SPLINE
  5
140
100
AcDbEntity
  8
Layer_1
 62
1
100
AcDbSpline
 70
8
 71
3
 72
8
 73
4
 74
0
 40
0
 40
0
 40
0
 40
0
 40
1
 40
1
 40
1
 40
1
 10
16.926642
 20
135.629096
 30
0.0
 10
19.073291
 20
131.049896
 30
0.0
 10
25.920533
 20
127.199078
 30
0.0
 10
35.603113
 20
125.125645
 30
0.0
  0
SPLINE
  5
141
100
AcDbEntity
  8
Layer_1
 62
1
100
AcDbSpline
 70
8
 71
3
 72
8
 73
4
 74
0
 40
0
 40
0
 40
0
 40
0
 40
1
 40
1
 40
1
 40
1
 10
35.603113
 20
125.125645
 30
0.0
 10
41.001250
 20
123.969688
 30
0.0
 10
40.118190
 20
123.895057
 30
0.0
 10
21.029455
 20
123.894000
 30
0.0
  0
SPLINE
  5
142
100
AcDbEntity
  8
Layer_1
 62
1
100
AcDbSpline
 70
8
 71
3
 72
8
 73
4
 74
0
 40
0
 40
0
 40
0
 40
0
 40
1
 40
1
 40
1
 40
1
 10
21.029455
 20
123.894000
 30
0.0
 10
3.902871
 20
123.893011
 30
0.0
 10
3.378945
 20
123.878409
 30
0.0
 10
2.549966
 20
123.372836
 30
0.0
  0
SPLINE
  5
143
100
AcDbEntity
  8
Layer_1
 62
1
100
AcDbSpline
 70
8
 71
3
 72
8
 73
4
 74
0
 40
0
 40
0
 40
0
 40
0
 40
1
 40
1
 40
1
 40
1
 10
2.549966
 20
123.372836
 30
0.0
 10
2.080723
 20
123.086733
 30
0.0
 10
1.462715
 20
122.468729
 30
0.0
 10
1.176615
 20
121.999487
 30
0.0
  0
SPLINE
  5
144
100
AcDbEntity
  8
Layer_1
 62
1
100
AcDbSpline
 70
8
 71
3
 72
8
 73
4
 74
0
 40
0
 40
0
 40
0
 40
0
 40
1
 40
1
 40
1
 40
1
 10
1.176615
 20
121.999487
 30
0.0
 10
0.672525
 20
121.172712
 30
0.0
 10
0.656401
 20
120.650006
 30
0.0
 10
0.655453
 20
105.104069
 30
0.0
  0
SPLINE
  5
145
100
AcDbEntity
  8
Layer_1
 62
1
100
AcDbSpline
 70
8
 71
3
 72
8
 73
4
 74
0
 40
0
 40
0
 40
0
 40
0
 40
1
 40
1
 40
1
 40
1
 10
0.655453
 20
105.104069
 30
0.0
 10
0.654365
 20
87.741924
 30
0.0
 10
0.641226
 20
87.912357
 30
0.0
 10
2.070233
 20
86.788295
 30
0.0
  0
SPLINE
  5
146
100
AcDbEntity
  8
Layer_1
 62
1
100
AcDbSpline
 70
8
 71
3
 72
8
 73
4
 74
0
 40
0
 40
0
 40
0
 40
0
 40
1
 40
1
 40
1
 40
1
 10
2.070233
 20
86.788295
 30
0.0
 10
2.451861
 20
86.488104
 30
0.0
 10
3.231834
 20
86.163474
 30
0.0
 10
3.803506
 20
86.066889
 30
0.0
  0
LWPOLYLINE
  5
147
100
AcDbEntity
  8
Layer_1
 62
1
100
AcDbPolyline
 90
3
 70
0
 10
67.030455
 20
141.526783
 30
0.0
 10
66.854480
 20
140.703330
 30
0.0
 10
64.447841
 20
140.712117
 30
0.0
  0
SPLINE
  5
148
100
AcDbEntity
  8
Layer_1
 62
1
100
AcDbSpline
 70
8
 71
3
 72
8
 73
4
 74
0
 40
0
 40
0
 40
0
 40
0
 40
1
 40
1
 40
1
 40
1
 10
4.842907
 20
45.094110
 30
0.0
 10
4.842907
 20
16.832537
 30
0.0
 10
4.928698
 20
4.070509
 30
0.0
 10
5.122123
 20
3.560012
 30
0.0
  0
SPLINE
  5
149
100
AcDbEntity
  8
Layer_1
 62
1
100
AcDbSpline
 70
8
 71
3
 72
8
 73
4
 74
0
 40
0
 40
0
 40
0
 40
0
 40
1
 40
1
 40
1
 40
1
 10
5.122123
 20
3.560012
 30
0.0
 10
5.519176
 20
2.512074
 30
0.0
 10
6.380161
 20
1.651856
 30
0.0
 10
7.591567
 20
1.092750
 30
0.0
  0
SPLINE
  5
14a
100
AcDbEntity
  8
Layer_1
 62
1
100
AcDbSpline
 70
8
 71
3
 72
8
 73
4
 74
0
 40
0
 40
0
 40
0
 40
0
 40
1
 40
1
 40
1
 40
1
 10
7.591567
 20
1.092750
 30
0.0
 10
8.599105
 20
0.627746
 30
0.0
 10
10.726002
 20
0.609480
 30
0.0
 10
63.873626
 20
0.609480
 30
0.0
  0
SPLINE
  5
14b
100
AcDbEntity
  8
Layer_1
 62
1
100
AcDbSpline
 70
8
 71
3
 72
8
 73
4
 74
0
 40
0
 40
0
 40
0
 40
0
 40
1
 40
1
 40
1
 40
1
 10
63.873626
 20
0.609480
 30
0.0
 10
117.021260
 20
0.609480
 30
0.0
 10
119.148160
 20
0.627905
 30
0.0
 10
120.155698
 20
1.092750
 30
0.0
  0
LWPOLYLINE
  5
14c
100
AcDbEntity
  8
Layer_1
 62
1
100
AcDbPolyline
 90
3
 70
0
 10
3.803506
 20
86.066889
 30
0.0
 10
4.842907
 20
85.891283
 30
0.0
 10
4.842907
 20
45.094110
 30
0.0
  0
LWPOLYLINE
  5
14d
100
AcDbEntity
  8
Layer_1
 62
1
100
AcDbPolyline
 90
1
 70
1
 10
120.155698
 20
1.092750
 30
0.0
  0
ENDSEC
  0
SECTION
  2
OBJECTS
  0
DICTIONARY
  5
C
330
0
100
AcDbDictionary
  3
ACAD_GROUP
350
D
  3
ACAD_MLINESTYLE
350
17
  0
DICTIONARY
  5
D
330
C
100
AcDbDictionary
  0
DICTIONARY
  5
1A
330
C
100
AcDbDictionary
  0
DICTIONARY
  5
17
330
C
100
AcDbDictionary
  3
STANDARD
350
18
  0
DICTIONARY
  5
19
330
C
100
AcDbDictionary
  0
ENDSEC
  0
EOF
