<?xml version="1.0" encoding="UTF-8" standalone="no"?>
<svg
   xmlns:dc="http://purl.org/dc/elements/1.1/"
   xmlns:cc="http://creativecommons.org/ns#"
   xmlns:rdf="http://www.w3.org/1999/02/22-rdf-syntax-ns#"
   xmlns:svg="http://www.w3.org/2000/svg"
   xmlns="http://www.w3.org/2000/svg"
   xmlns:sodipodi="http://sodipodi.sourceforge.net/DTD/sodipodi-0.dtd"
   xmlns:inkscape="http://www.inkscape.org/namespaces/inkscape"
   sodipodi:docname="tree.svg"
   inkscape:version="1.0 (4035a4fb49, 2020-05-01)"
   id="svg8"
   version="1.1"
   viewBox="0 0 60 60"
   height="60mm"
   width="60mm">
  <defs
     id="defs2">
    <rect
       id="rect30"
       height="21.355655"
       width="77.107143"
       y="70.114583"
       x="-5.1026786" />
  </defs>
  <sodipodi:namedview
     inkscape:window-maximized="1"
     inkscape:window-y="-8"
     inkscape:window-x="1672"
     inkscape:window-height="987"
     inkscape:window-width="1680"
     showgrid="false"
     inkscape:document-rotation="0"
     inkscape:current-layer="layer1"
     inkscape:document-units="mm"
     inkscape:cy="139.83483"
     inkscape:cx="133.21957"
     inkscape:zoom="1.979899"
     inkscape:pageshadow="2"
     inkscape:pageopacity="0.0"
     borderopacity="1.0"
     bordercolor="#666666"
     pagecolor="#ffffff"
     id="base" />
  <metadata
     id="metadata5">
    <rdf:RDF>
      <cc:Work
         rdf:about="">
        <dc:format>image/svg+xml</dc:format>
        <dc:type
           rdf:resource="http://purl.org/dc/dcmitype/StillImage" />
        <dc:title></dc:title>
      </cc:Work>
    </rdf:RDF>
  </metadata>
  <g
     id="layer1"
     inkscape:groupmode="layer"
     inkscape:label="Layer 1">
    <path
       sodipodi:nodetypes="cccsccccccsccccsc"
       d="m 0.52916718,29.800552 c 5e-8,-4.133048 0.83762452,-8.070459 2.35237672,-11.651736 m 0,0 C 4.3962961,14.56754 6.588176,11.342398 9.296687,8.6338871 12.005198,5.9253761 15.23034,3.7334962 18.811616,2.218744 m 0,0 c 3.581277,-1.51475219 7.518688,-2.35237664 11.651736,-2.35237666 m 0,0 c 4.133048,-2e-8 8.070459,0.8376244 11.651736,2.35237656 m 0,0 c 3.581276,1.5147522 6.806418,3.7066321 9.514929,6.4151431 2.708511,2.708511 4.900391,5.933653 6.415143,9.514929 m 0,0 c 1.514752,3.581277 2.352377,7.518688 2.352377,11.651736 m 0,0 c 0,16.532194 -13.401991,29.934185 -29.934185,29.934185 -16.532194,0 -29.93418501,-13.401991 -29.93418482,-29.934185"
       style="fill:none;stroke:#800000;stroke-width:0.25"
       id="path10" />
    <path
       sodipodi:nodetypes="ssscssssssssssssssssscsscsssssssssssssssssssscsssscscsccssssssscsssscssscssscssssscssssssscsssc"
       id="path26"
       d="m 23.953418,52.872908 c -0.167656,-0.08498 -0.333274,-0.231968 -0.409025,-0.363034 -0.121347,-0.209957 -0.12815,-0.342971 -0.145625,-2.847445 l -0.01834,-2.6272 h -0.312342 c -0.465957,0 -3.332729,-0.297165 -4.590762,-0.47587 -2.797064,-0.397331 -6.122558,-1.116371 -8.9041617,-1.925269 -0.484536,-0.140905 -1.031042,-0.299771 -1.214455,-0.353037 -0.527491,-0.153189 -0.444105,-0.280233 0.400664,-0.610424 1.6024807,-0.626356 3.0247227,-1.488783 4.4950197,-2.725715 1.208257,-1.016481 2.889806,-2.850828 4.026642,-4.392526 0.252979,-0.34307 0.526525,-0.713906 0.607883,-0.824079 0.08136,-0.110168 0.147922,-0.216361 0.147922,-0.235976 0,-0.01962 -1.441857,-0.03567 -3.204127,-0.03567 -1.76227,0 -3.24892,-0.01718 -3.303665,-0.03819 -0.118896,-0.04562 -0.13269,-0.250253 -0.01979,-0.293576 0.04386,-0.01684 0.532333,-0.371055 1.08549,-0.787165 2.525363,-1.899684 5.095451,-4.525187 7.620911,-7.785227 0.939864,-1.213241 2.981191,-4.122834 2.981191,-4.249221 0,-0.0365 -0.960558,-0.06624 -2.464652,-0.07627 -1.710567,-0.01142 -2.471651,-0.03746 -2.487522,-0.08511 -0.01257,-0.03775 0.225764,-0.306739 0.529649,-0.597739 2.773038,-2.655454 4.314372,-4.29756 5.96242,-6.35224 1.905242,-2.375335 3.717333,-5.154101 4.983329,-7.6417243 l 0.490991,-0.964777 0.252777,0.0096 c 0.251395,0.0096 0.254275,0.01255 0.526193,0.544503 1.855489,3.6298703 3.729296,6.4154673 6.453249,9.5933813 0.812344,0.947727 3.615788,3.811319 4.592503,4.691036 0.607513,0.547182 0.711127,0.674659 0.621337,0.764446 -0.02817,0.02817 -1.147616,0.05294 -2.487676,0.05507 -1.593629,0.0026 -2.436473,0.02582 -2.436473,0.06733 0,0.108454 1.461107,2.244017 2.345563,3.428286 2.76629,3.704005 5.471201,6.529868 8.194702,8.561137 1.304592,0.973006 1.255011,0.929959 1.209065,1.049697 -0.0378,0.09849 -0.294376,0.106741 -3.31514,0.106741 -1.800796,0 -3.274177,0.01652 -3.274177,0.0367 0,0.05784 1.014493,1.455167 1.482995,2.042631 1.929409,2.419312 4.239546,4.430246 6.311108,5.493697 0.590738,0.303262 1.959045,0.859185 2.114726,0.859185 0.05887,0 0.09656,0.05662 0.09656,0.145076 0,0.132667 -0.07942,0.168294 -0.928172,0.416414 -3.698624,1.081236 -7.081304,1.811355 -10.209898,2.203713 -1.332181,0.167068 -3.631661,0.381145 -4.094045,0.381145 -0.19692,0 -0.445343,0.01746 -0.552052,0.0388 l -0.194017,0.0388 -0.01836,2.556934 c -0.01764,2.455718 -0.02358,2.566898 -0.150353,2.808639 -0.0726,0.138441 -0.22834,0.308343 -0.3461,0.377563 -0.209478,0.123135 -0.3433,0.126221 -6.192166,0.142793 l -5.978061,0.01694 z m 12.224491,-0.305471 c 0.356463,-0.162414 0.359458,-0.187991 0.359458,-3.06982 0,-3.04719 -0.06553,-2.776447 0.672328,-2.777822 0.235892,-4.76e-4 0.924443,-0.04259 1.530116,-0.09368 4.004264,-0.337759 6.853408,-0.808615 10.320019,-1.705516 1.076474,-0.278514 3.030362,-0.831825 3.067095,-0.868556 0.01015,-0.01015 -0.243937,-0.126164 -0.56467,-0.257772 -1.211492,-0.497117 -1.99104,-0.953192 -3.289011,-1.924242 -1.655227,-1.238327 -3.186133,-2.811361 -4.671179,-4.799723 -1.013017,-1.356353 -1.300411,-1.802584 -1.215603,-1.88744 0.05159,-0.05162 0.964925,-0.08129 3.194074,-0.103752 l 3.121827,-0.03147 -0.686512,-0.512653 C 44.526265,31.929139 41.202061,28.194 37.783079,23.037241 c -0.4917,-0.741619 -0.605085,-0.953335 -0.547633,-1.022563 0.05946,-0.07164 0.500415,-0.0873 2.458356,-0.0873 h 2.385901 l -0.615919,-0.575485 c -1.746746,-1.632085 -3.886093,-3.910215 -5.309821,-5.654279 -2.098831,-2.571062 -4.121116,-5.683098 -5.5804,-8.5875163 l -0.125458,-0.249697 -0.413399,0.824981 c -1.116248,2.2275914 -2.791298,4.8353833 -4.580586,7.1312563 -1.653712,2.121913 -3.436322,4.075596 -5.730785,6.280756 l -0.862052,0.828499 2.402914,0.01647 c 2.218503,0.01521 2.404519,0.02481 2.423827,0.125138 0.02333,0.121208 -0.133427,0.371125 -1.175118,1.873537 -2.300305,3.317688 -3.904567,5.287437 -6.077019,7.461509 -1.40892,1.409972 -2.314446,2.213385 -3.513871,3.117621 l -0.741404,0.558939 H 15.2609 c 1.694158,0 3.125079,0.01719 3.179823,0.0382 0.184337,0.07073 0.101937,0.255578 -0.477018,1.070014 -2.693979,3.789728 -5.655473,6.391951 -8.6969777,7.641915 -0.322493,0.132535 -0.465158,0.219709 -0.409025,0.249934 0.130101,0.07004 1.5741387,0.474811 2.9179107,0.817892 3.582688,0.914702 6.93578,1.472778 10.508801,1.749041 l 1.384393,0.107044 0.03146,2.705316 c 0.02336,2.008664 0.05185,2.740946 0.110608,2.843673 0.201477,0.352214 -0.149477,0.333594 6.287516,0.333594 4.129467,0 5.975135,-0.02074 6.079513,-0.06829 z"
       style="fill:#000000;stroke-width:0.0629269" />
    <g
       style="font-style:normal;font-variant:normal;font-weight:normal;font-stretch:normal;font-size:5.64444px;line-height:1.25;font-family:sans-serif;-inkscape-font-specification:'sans-serif, Normal';font-variant-ligatures:normal;font-variant-caps:normal;font-variant-numeric:normal;font-feature-settings:normal;text-align:start;letter-spacing:0px;word-spacing:0px;writing-mode:lr-tb;text-anchor:start;white-space:pre;fill:#000000;fill-opacity:1;stroke:none"
       id="text28"
       transform="rotate(104.17169,24.409023,30.128064)"
       aria-label=" Christmas">
      <path
         id="path61"
         style="font-size:7.76111px"
         d="m 0.21892361,23.53523 q 0.0601471,0.0077 0.14782384,0.09907 0.73509895,0.796625 0.58895771,1.943179 -0.14949526,1.172867 -1.04315829,1.800091 -0.86495293,0.611782 -2.04533887,0.461328 -1.142794,-0.145662 -1.8510994,-0.942692 -0.7420641,-0.831896 -0.599277,-1.952135 0.1552451,-1.217977 0.9914879,-1.814317 0.092285,-0.06464 0.1561915,-0.0565 0.071425,0.0091 0.4965053,0.330703 0.4255598,0.317841 0.473323,0.392694 0.02624,0.03391 0.02049,0.07902 -0.0024,0.0188 -0.1743252,0.168793 -0.2063154,0.179997 -0.3327294,0.362538 -0.1882206,0.27781 -0.2289485,0.597341 -0.070435,0.552601 0.3009104,0.936117 0.3446262,0.353368 0.9085048,0.42524 0.571397,0.07283 0.99740494,-0.18231 0.4631947,-0.277144 0.53362997,-0.829745 0.0416862,-0.32705 -0.0637893,-0.638474 -0.069543,-0.203698 -0.2133116,-0.424497 -0.12176659,-0.183612 -0.11937083,-0.202408 0.004792,-0.03759 0.0509341,-0.06991 0.0753319,-0.05152 0.51158503,-0.267156 0.45224823,-0.221235 0.49359933,-0.215964 z" />
      <path
         id="path63"
         style="font-size:7.76111px"
         d="m -0.40468138,18.871339 2.50971028,0.733984 q 0.127411,0.03686 0.1124829,0.143003 -0.019141,0.120703 -0.1392049,0.535699 -0.1158512,0.400434 -0.190261,0.548542 -0.056597,0.113811 -0.1912889,0.07484 -0.313067,-0.09057 -0.93968176,-0.283698 -0.62661475,-0.193123 -0.93968176,-0.283698 -0.42591675,-0.123223 -0.5512467,0.309974 -0.0421277,0.145613 0.0174899,0.375892 0.0652726,0.25164 0.20360455,0.291662 l 0.89915757,0.260138 q 0.17473507,0.05055 0.52995192,0.145433 0.35157658,0.09382 0.52631168,0.144379 0.1346916,0.03897 0.1166039,0.15603 -0.018088,0.117063 -0.1686943,0.637628 -0.086362,0.298505 -0.1533993,0.421131 -0.067037,0.122626 -0.1653259,0.09419 -0.28758488,-0.0832 -0.86170131,-0.253247 -0.57775674,-0.171098 -0.86534155,-0.2543 -1.19038264,-0.344394 -1.97678224,-0.544296 -0.2761831,-0.06807 -0.5513131,-0.139777 -0.3219732,-0.07343 -0.5613642,-0.0914 -0.050484,-0.0028 -0.072326,-0.0091 -0.054605,-0.0158 -0.057008,-0.07567 -1.138e-4,-0.122329 0.055797,-0.342854 0.073335,-0.294385 0.079745,-0.343815 0.1141813,-0.681014 0.1141813,-0.681014 0.016851,-0.05824 0.093298,-0.03613 0.11649,0.0337 0.3124945,0.106189 0.2287674,0.08197 0.3124946,0.106189 0.8163918,0.259864 1.293273,0.397832 0.072806,0.02106 0.083338,-0.01534 0.00211,-0.0073 -0.073698,-0.222518 -0.088168,-0.254319 -0.119716,-0.472533 -0.044209,-0.324446 0.033728,-0.593829 0.1348087,-0.465961 0.4692843,-0.708464 0.36004953,-0.262719 0.81508879,-0.13107 z" />
      <path
         id="path65"
         style="font-size:7.76111px"
         d="m 1.307317,15.829251 q 0.1358192,0.05828 0.071564,0.208028 -0.028392,0.06617 -0.090647,0.192034 -0.064243,0.120889 -0.091141,0.183574 -0.1240283,0.289052 -0.078312,0.43238 0.045717,0.143329 0.3208378,0.26138 0.1497494,0.06426 0.4577077,0.192273 0.30597,0.12304 0.4557194,0.187296 0.1009938,0.04334 0.3089587,0.116075 0.2044823,0.07125 0.3019936,0.113087 0.083581,0.03586 0.044716,0.155271 -0.057797,0.173139 -0.2057343,0.517911 -0.1419601,0.330842 -0.2480314,0.520381 -0.063243,0.108947 -0.1642365,0.06561 Q 2.112109,18.855007 1.5598787,18.613928 1.0041658,18.371355 0.72556224,18.25181 q -0.81839806,-0.351165 -1.4120005,-0.428552 -0.0343315,-0.0065 -0.0552268,-0.01545 -0.0522382,-0.02241 -0.0472361,-0.08212 0.0612922,-0.200506 0.16396901,-0.593564 0.12814315,-0.596566 0.13561473,-0.613979 0.0268977,-0.06269 0.25376962,0.01404 0.22687191,0.07673 0.24629803,0.03146 -0.02092044,0.04875 -0.05855837,-0.363274 -0.04112047,-0.413523 0.09187372,-0.723469 0.08368173,-0.195023 0.16726281,-0.159159 0.1009938,0.04334 0.27660278,0.143429 0.18953916,0.106071 0.27510847,0.146912 0.1009938,0.04334 0.26965036,0.11158 0.2084587,0.0812 0.2746271,0.109591 z" />
      <path
         id="path67"
         style="font-size:7.76111px"
         d="m 0.38288821,12.900446 q 0.58156464,0.310772 0.23149957,0.965868 -0.15002789,0.280755 -0.39532276,0.385997 -0.26759441,0.114809 -0.5416651,-0.03165 -0.2607014,-0.139311 -0.3170828,-0.435838 -0.0519423,-0.27267 0.0909414,-0.540056 0.13931161,-0.260702 0.39820556,-0.36727 0.2760651,-0.11458 0.53342417,0.02295 z m 2.43691069,1.413933 q 0.2439898,0.130381 0.7339851,0.379331 0.486653,0.247163 0.7273005,0.375759 0.070189,0.03751 0.038907,0.128209 -0.040672,0.124355 -0.2532112,0.522092 -0.2143255,0.401079 -0.2951051,0.504002 -0.052662,0.06639 -0.091673,0.06702 -0.016941,-4.59e-4 -0.1038419,-0.0469 Q 3.3455394,16.120662 2.8896566,15.864161 2.4304315,15.605874 2.1964687,15.48085 1.2472483,14.973613 0.64644456,14.747088 q -0.0570493,-0.02189 -0.0737609,-0.03082 -0.0668465,-0.03572 -0.0186233,-0.125964 0.0500093,-0.09358 0.17186789,-0.273381 0.12364464,-0.183139 0.17543998,-0.280066 0.0517953,-0.09693 0.13867437,-0.299713 0.086879,-0.202785 0.1386744,-0.299712 0.042865,-0.08022 0.1097117,-0.0445 0.013369,0.0071 0.059932,0.04062 0.6124604,0.42181 1.4714381,0.880824 z" />
      <path
         id="path69"
         style="font-size:7.76111px"
         d="m 3.3373362,10.967147 q 0.031851,0.02053 0.055199,0.103216 -0.079788,0.07481 -0.1372801,0.163994 -0.1211439,0.187924 -0.1204618,0.368715 -0.003,0.214485 0.1721791,0.327416 0.1114799,0.07186 0.3881951,0.0203 0.4160994,-0.07894 0.5422424,-0.07878 0.3467883,-0.0064 0.6238954,0.172244 0.1624421,0.104718 0.3029293,0.285458 0.1534382,0.202615 0.1739422,0.37364 0.051906,0.367111 -0.011224,0.772784 -0.073185,0.435262 -0.2579812,0.721924 -0.041066,0.0637 -0.5287909,0.06491 -0.488857,-0.004 -0.5653004,-0.05331 -0.028666,-0.01848 -0.01245,-0.05762 0.1023233,-0.249652 0.2066998,-0.50249 0.091505,-0.337784 -0.1123435,-0.469194 -0.1401462,-0.09034 -0.4296019,-0.04699 -0.5085482,0.08247 -0.5358722,0.08289 -0.3340477,0.0146 -0.5888588,-0.149658 -0.477771,-0.307993 -0.5001109,-1.007729 -0.016971,-0.624135 0.3012886,-1.117831 0.032853,-0.05096 0.5062047,-0.02987 0.470167,0.01904 0.5274995,0.056 z" />
      <path
         id="path71"
         style="font-size:7.76111px"
         d="m 6.9278824,9.5078997 q 0.089285,0.070379 0.2520644,0.2372908 0.1651251,0.1639361 0.2514342,0.2319686 0.083333,0.065687 0.093067,0.1023109 0.00973,0.03662 -0.00896,0.152171 Q 7.4241645,10.78213 7.0558505,11.24939 6.3778712,12.109505 5.7201363,11.59105 5.5237086,11.436217 5.1425831,11.111671 4.7584815,10.784779 4.5620538,10.629946 4.4311021,10.526725 4.3114587,10.67851 q -0.00938,0.0119 -0.030497,0.03869 -0.018137,0.02913 -0.027521,0.04104 -0.089146,0.113095 -0.1695028,0.04975 -0.047619,-0.03754 -0.1411408,-0.120904 -0.091176,-0.08635 -0.1387948,-0.12388 -0.0625,-0.04926 -0.1975131,-0.141212 Q 3.4738212,10.327071 3.4113215,10.277806 3.351798,10.230887 3.4959864,10.03572 3.5774644,9.9262313 3.5279549,9.8727297 3.4289359,9.7657266 3.1801976,9.5793111 2.786887,9.2885884 2.8047441,9.3026641 2.4595076,9.030534 2.5111185,8.9650581 2.5744592,8.8847014 2.7274707,8.7640439 2.8998801,8.6248992 2.9574433,8.5641152 3.09792,8.4287519 3.3752668,8.1503572 3.4398679,8.0806446 3.4845106,8.1158339 3.6035576,8.2096718 3.8282062,8.420527 4.0552008,8.6284059 4.177224,8.7245898 4.3230567,8.8395413 4.3910892,8.7532322 4.4731974,8.649066 4.6308313,8.4307197 4.7884651,8.2123733 4.8729193,8.105231 q 0.051611,-0.065476 0.096253,-0.030287 0.068452,0.053957 0.1936264,0.1767514 0.1251744,0.1227945 0.1936264,0.1767514 0.071428,0.056303 0.2106783,0.1612402 0.1392501,0.1049375 0.2106783,0.1612403 0.0625,0.049265 -0.00553,0.135574 Q 5.7253327,8.9460243 5.6120969,9.0835592 5.4958849,9.2187476 5.448966,9.2782711 L 5.2730175,9.5014846 q -0.035189,0.044643 0.095763,0.1478644 0.071428,0.056303 0.2113085,0.1665624 0.1452024,0.1096294 0.2136545,0.1635862 0.2499988,0.1970594 0.3898094,0.2155824 0.1913162,0.02052 0.3766462,-0.2145985 0.058649,-0.074404 0.1338244,-0.237114 0.074546,-0.1680317 0.1191186,-0.224579 0.049265,-0.0625 0.1147403,-0.010889 z" />
      <path
         id="path73"
         style="font-size:7.76111px"
         d="m 12.352604,5.6041599 q 0.08962,0.09778 0.01605,0.1857704 -0.07357,0.08799 -0.403228,0.3901314 -0.340834,0.312383 -0.440008,0.3724362 -0.09917,0.060053 -0.209277,-0.060077 Q 11.198356,6.3639103 10.97373,6.1020005 10.746544,5.837297 10.62876,5.708786 10.180669,5.2198855 9.9800163,5.0233925 9.6585525,4.7063033 9.3596248,4.9802786 9.2283201,5.1006229 9.199436,5.3327158 9.170785,5.5594546 9.279721,5.7063556 q 0.096367,0.1275782 0.6187123,0.6974965 0.1203447,0.1313047 0.3745357,0.39182 0.25163,0.2577215 0.374535,0.39182 0.0845,0.092193 0.0035,0.1664476 L 9.8044868,8.1297763 Q 9.7262627,8.2014708 9.6212815,8.0869284 9.5009372,7.9556237 9.2686298,7.6853327 9.0363224,7.4150417 8.9134175,7.2809433 8.8186784,7.1775758 8.6210522,6.973168 8.423426,6.7687603 8.3261264,6.662599 7.9599725,6.2630975 7.6554573,6.5421938 7.5325338,6.6548566 7.4771118,6.8804293 7.4154027,7.1271858 7.5203839,7.2417282 7.753391,7.4959564 8.2196382,7.9990587 8.6858855,8.502161 8.916332,8.7535955 8.980345,8.8234385 8.978946,8.8555639 8.977546,8.8876889 8.912825,8.9572896 8.7973494,9.0836877 8.5263588,9.3320579 8.3503547,9.4933704 8.1114942,9.6814495 8.039324,9.7373144 8.0125528,9.7361484 7.9885753,9.7324219 7.9245624,9.662579 7.7197211,9.4390816 7.3153926,8.9923201 6.9085036,8.5427648 6.7036623,8.3192675 6.2837375,7.8610979 5.6917824,7.3498383 5.6554688,7.3214347 5.6401057,7.3046724 5.5965769,7.2571792 5.6203258,7.2045697 5.6587429,7.1230948 5.8137966,6.950141 6.0054017,6.7385462 6.0393927,6.6971116 6.0622089,6.6659189 6.2063255,6.4361627 6.3073704,6.2715853 6.391182,6.1947698 6.4442626,6.14612 6.6262925,6.3391197 6.8057619,6.5293256 6.8253179,6.511402 6.843013,6.474622 6.8537261,6.4133981 6.9259245,5.9873914 7.0046244,5.7816079 7.1250014,5.4810805 7.376436,5.250634 7.633458,5.0150665 7.9395868,4.9452517 8.2836616,4.8663608 8.5632337,5.0367869 8.5269435,4.6999319 8.6612939,4.3249117 8.7956443,3.9498915 9.0414914,3.724566 9.410262,3.3865778 9.7983321,3.3444716 q 0.4392849,-0.047922 0.7670309,0.3096737 0.135708,0.148067 0.401302,0.4546763 0.263033,0.3038156 0.398741,0.4518826 0.161312,0.1760042 0.494879,0.5231247 0.331006,0.3443268 0.492319,0.520331 z" />
      <path
         id="path75"
         style="font-size:7.76111px"
         d="m 15.335809,1.7287138 q 0.153303,0.2482844 0.484948,0.7204858 0.331644,0.4722015 0.482956,0.7172614 0.07964,0.128979 -0.02725,0.2083356 Q 15.894551,3.6506943 15.378635,3.969246 15.31737,4.007074 15.181315,3.8372157 15.046493,3.6621419 15.015482,3.676836 14.99765,3.7056614 14.981614,3.7734619 14.84545,4.3608136 14.432718,4.6156549 13.803945,5.0038897 13.084607,4.7621621 12.407749,4.5387427 12.00956,3.893848 11.549651,3.1489947 11.671986,2.4454755 11.800489,1.7158791 12.52922,1.2659249 q 0.506243,-0.3125788 1.018674,-0.139063 0.02285,0.00816 0.03253,0.00219 0.02902,-0.017918 -0.03108,-0.19459363 -0.05886,-0.18189057 -0.0073,-0.21374573 0.119305,-0.0736651 0.49646,-0.21300971 0.359042,-0.13261437 0.525568,-0.1730825 0.06031,-0.0105174 0.08022,0.0217273 0.008,0.0128979 0.03214,0.0736868 0.257178,0.64734007 0.659349,1.29868367 z m -1.026334,0.660432 Q 14.140244,2.1150656 13.85662,2.0452307 q -0.28239,-0.07505 -0.559694,0.096171 -0.277305,0.1712215 -0.3387,0.4540878 -0.06139,0.2828662 0.109827,0.560171 0.161266,0.2611823 0.457312,0.3367087 0.296045,0.075526 0.554003,-0.08375 0.27408,-0.1692306 0.3387,-0.4540878 0.06263,-0.2880817 -0.108593,-0.5653856 z" />
      <path
         id="path77"
         style="font-size:7.76111px"
         d="m 17.75648,-0.68552273 q 0.01582,0.0344368 -0.0089,0.11670673 -0.107496,0.0201852 -0.203919,0.0644762 -0.203177,0.0933274 -0.299797,0.24613601 -0.117842,0.17923786 -0.03084,0.36864036 0.05536,0.12052886 0.31641,0.2258148 0.393291,0.157138 0.499568,0.2250883 0.295846,0.18104694 0.433465,0.48064723 0.08067,0.1756278 0.101963,0.4035541 0.02045,0.2533338 -0.05421,0.4085643 -0.153596,0.3374504 -0.42492,0.6455727 -0.295711,0.3276642 -0.605642,0.4700281 -0.06887,0.031636 -0.480768,-0.2295538 -0.410033,-0.2662156 -0.447996,-0.348864 -0.01424,-0.030993 0.02048,-0.05528 0.220494,-0.1554953 0.444432,-0.3125725 0.258753,-0.2356233 0.157516,-0.456019 -0.0696,-0.151522 -0.336973,-0.2705826 Q 16.363166,1.0929675 16.3399,1.0786327 16.050381,0.91136052 15.923836,0.63586598 15.686563,0.11931372 16.043911,-0.48270965 16.365142,-1.0180997 16.898913,-1.263282 q 0.0551,-0.025309 0.442888,0.2469538 0.386206,0.2688192 0.414679,0.33080547 z" />
    </g>
    <g
       style="font-style:normal;font-variant:normal;font-weight:normal;font-stretch:normal;font-size:7.76111px;line-height:1.25;font-family:sans-serif;-inkscape-font-specification:'sans-serif, Normal';font-variant-ligatures:normal;font-variant-caps:normal;font-variant-numeric:normal;font-feature-settings:normal;text-align:start;letter-spacing:0px;word-spacing:0px;writing-mode:lr-tb;text-anchor:start;fill:#000000;fill-opacity:1;stroke:none;stroke-width:0.264583"
       id="text40"
       transform="rotate(24.382992,20.665616,46.755485)"
       aria-label="Happy">
      <path
         id="path50"
         style="font-style:normal;font-variant:normal;font-weight:normal;font-stretch:normal;font-size:7.76111px;font-family:'Berlin Sans FB Demi';-inkscape-font-specification:'Berlin Sans FB Demi';stroke-width:0.264583"
         d="m 0.79281072,24.370644 q 0.0792171,0.0076 0.0948176,0.04337 0.009868,0.01618 0.008717,0.107435 5.3253e-4,0.232281 -0.0396839,0.651 -0.0568827,0.592242 -0.0896609,0.695691 -0.0324159,0.09968 -0.111633,0.09207 -0.29800736,-0.02862 -0.8914859,-0.112273 -0.59688848,-0.08779 -0.89489592,-0.116408 -0.1471175,-0.01413 -0.1777218,0.06669 -0.042496,0.125358 -0.1178571,0.909984 -0.075723,0.7884 -0.058226,0.923327 0.01089,0.0848 0.1617802,0.09929 0.2942351,0.02826 0.8845169,0.06592 0.58650954,0.0373 0.88074465,0.06556 0.11316735,0.01087 0.12224619,0.114531 0.0110395,0.122886 -0.0454809,0.711356 -0.0489119,0.509253 -0.0849509,0.646652 -0.0293682,0.107584 -0.1274466,0.09816 -0.40740247,-0.03913 -1.22612878,-0.155836 -0.81836406,-0.120478 -1.22953876,-0.15997 -0.4375804,-0.04203 -1.3163644,-0.08836 -0.8825562,-0.0467 -1.3201366,-0.08872 -0.082989,-0.008 -0.075381,-0.08719 0.011232,-0.116939 0.045012,-0.349731 0.034142,-0.236565 0.045374,-0.353505 0.011594,-0.120711 0.023465,-0.363222 0.012233,-0.246283 0.023827,-0.366995 0.00616,-0.06413 0.07406,-0.05761 0.2829184,0.02717 0.8447697,0.123014 0.5580791,0.09548 0.8409975,0.122653 0.1320286,0.01268 0.161546,-0.05682 0.039598,-0.09518 0.1229294,-0.962797 0.077534,-0.80726 0.059675,-0.938415 -0.013938,-0.09271 -0.1459666,-0.105388 -0.2716017,-0.02609 -0.8211134,-0.05222 -0.5532839,-0.02649 -0.8286578,-0.05294 -0.1169396,-0.01123 -0.1078819,-0.105538 0.010507,-0.109395 0.0432,-0.330871 0.033055,-0.225248 0.043925,-0.338415 0.010507,-0.109395 0.020567,-0.333044 0.010422,-0.227422 0.021291,-0.340589 0.010507,-0.109396 0.1010409,-0.1007 0.4338082,0.04167 1.3053459,0.163444 0.8719001,0.118006 1.3094805,0.160034 0.4111747,0.03949 1.23714725,0.08075 0.82633483,0.03749 1.2337373,0.07662 z" />
      <path
         id="path52"
         style="font-style:normal;font-variant:normal;font-weight:normal;font-stretch:normal;font-size:7.76111px;font-family:'Berlin Sans FB Demi';-inkscape-font-specification:'Berlin Sans FB Demi';stroke-width:0.264583"
         d="m 0.26848459,19.538127 q 0.2812992,0.07757 0.84565821,0.197828 0.5643591,0.120254 0.842005,0.19682 0.1461295,0.0403 0.1218283,0.171184 -0.092045,0.462069 -0.2532381,1.046586 -0.019142,0.06941 -0.2344283,0.03756 -0.2179324,-0.03651 -0.2306527,-0.0046 0.00655,0.03326 0.040948,0.09385 0.2999808,0.523005 0.1710266,0.990619 -0.1964537,0.712381 -0.8880063,1.024848 -0.64796807,0.296968 -1.37861536,0.09548 -0.84389764,-0.232722 -1.23307214,-0.831428 -0.4024034,-0.622009 -0.1747186,-1.447641 0.1581704,-0.573558 0.6517048,-0.795182 0.022296,-0.0096 0.025318,-0.02054 0.00907,-0.03288 -0.1552063,-0.121422 -0.1669191,-0.0932 -0.1507998,-0.151656 0.037276,-0.13517 0.2187691,-0.49395 0.1728027,-0.341521 0.2672686,-0.484506 0.037031,-0.04875 0.073564,-0.03868 0.014613,0.004 0.073696,0.03212 0.62899723,0.299253 1.36695099,0.502759 z m -0.30248102,1.182387 q -0.3105251,-0.08563 -0.56585566,0.05623 -0.25797635,0.137204 -0.34461746,0.451382 -0.0866411,0.314178 0.0608918,0.56321 0.1475329,0.249032 0.46171123,0.335673 0.29591216,0.0816 0.56421734,-0.06454 Q 0.410656,21.91632 0.49125238,21.624061 0.57688608,21.313536 0.43036058,21.060851 0.2801819,20.807159 -0.03399643,20.720518 Z" />
      <path
         id="path54"
         style="font-style:normal;font-variant:normal;font-weight:normal;font-stretch:normal;font-size:7.76111px;font-family:'Berlin Sans FB Demi';-inkscape-font-specification:'Berlin Sans FB Demi';stroke-width:0.264583"
         d="m 2.4019176,14.762184 q 0.7390384,0.333921 1.0293673,0.989069 0.3013546,0.676764 -0.027885,1.405442 -0.1201492,0.265915 -0.3886936,0.510525 -0.2685444,0.244609 -0.2560614,0.216981 -0.020285,0.0449 0.083319,0.09171 0.176126,0.07958 0.5361799,0.22147 0.3635073,0.143452 0.5396333,0.223031 0.1105104,0.04993 0.059018,0.163896 L 3.6619307,19.29037 q -0.1076661,0.238288 -0.156141,0.299555 -0.070985,0.09268 -0.174589,0.04587 L 0.67516451,18.427396 q -0.80465399,-0.363568 -1.41181933,-0.492358 -0.0376553,-0.0087 -0.0618294,-0.01962 -0.0518018,-0.02341 -0.0503445,-0.07265 0.009053,-0.158091 0.12198594,-0.564497 0.10825182,-0.396045 0.18314998,-0.561811 0.0608548,-0.134684 0.24823608,-0.07081 0.18548825,0.05886 0.19797128,0.03123 -0.01560379,0.03453 -0.05385418,-0.377804 -0.0401435,-0.417352 0.08156604,-0.686721 0.3386021,-0.749398 1.03529472,-0.975212 Q 1.638705,14.41734 2.4019176,14.762184 Z m -0.5858073,1.278109 q -0.276276,-0.12483 -0.5599416,-0.04923 -0.30026744,0.08473 -0.42197695,0.354099 -0.12483026,0.276276 0.017839,0.540345 0.1313108,0.233987 0.41794715,0.363498 0.2935433,0.132632 0.5555932,0.06806 0.2839983,-0.06713 0.4135097,-0.353765 0.2746265,-0.607807 -0.4229705,-0.923004 z" />
      <path
         id="path56"
         style="font-style:normal;font-variant:normal;font-weight:normal;font-stretch:normal;font-size:7.76111px;font-family:'Berlin Sans FB Demi';-inkscape-font-specification:'Berlin Sans FB Demi';stroke-width:0.264583"
         d="m 5.082294,10.588391 q 0.6780738,0.444856 0.8629174,1.137202 0.1923714,0.715414 -0.2462484,1.383982 -0.160065,0.24398 -0.4634021,0.443821 -0.3033371,0.199841 -0.286707,0.174492 -0.027024,0.04119 0.068033,0.103555 0.161597,0.106017 0.4951849,0.302208 0.3367565,0.19827 0.4983535,0.304287 0.1013942,0.06652 0.032795,0.171084 l -0.4208999,0.648467 q -0.1434349,0.218631 -0.2008531,0.271608 -0.084543,0.08051 -0.1796,0.01814 L 2.8062266,13.940253 Q 2.06795,13.4559 1.4882221,13.234197 q -0.035843,-0.01445 -0.058023,-0.029 -0.047528,-0.03118 -0.038426,-0.0796 0.033543,-0.154756 0.2083421,-0.538637 0.1685623,-0.374376 0.2683431,-0.526468 0.081072,-0.123574 0.2562314,-0.03132 0.1740696,0.08701 0.1906997,0.06166 -0.020788,0.03169 0.00559,-0.381581 0.02529,-0.418515 0.1874341,-0.665664 0.4510924,-0.687579 1.1744375,-0.802229 0.6991871,-0.11237 1.3994409,0.347037 z m -0.7775596,1.171382 q -0.2534856,-0.166302 -0.5454593,-0.135768 -0.3097945,0.03697 -0.4719383,0.284121 -0.1663013,0.253485 -0.066462,0.536539 0.0933,0.251569 0.3562915,0.424107 0.2693284,0.176695 0.538234,0.153689 0.2909847,-0.02212 0.4635224,-0.285109 0.3658629,-0.557668 -0.2741883,-0.977579 z" />
      <path
         id="path58"
         style="font-style:normal;font-variant:normal;font-weight:normal;font-stretch:normal;font-size:7.76111px;font-family:'Berlin Sans FB Demi';-inkscape-font-specification:'Berlin Sans FB Demi';stroke-width:0.264583"
         d="m 7.3902823,6.6371662 q 0.5488511,0.4891389 0.6374186,0.6289845 0.1036364,0.1685036 0.4719726,1.5323024 0.057945,0.2140775 0.2261923,1.0391493 0.1838732,0.9100636 0.164567,0.9943806 -0.018075,0.105719 -0.7316127,0.906363 -0.1084174,0.121653 -0.1745287,0.138876 -0.1487717,-0.0666 -0.3576296,-0.151208 -0.1393609,-0.04298 -0.281551,-0.08848 -0.2051054,-0.06604 -0.2532006,-0.108902 -0.053754,-0.04791 -0.010891,-0.096 0.700931,-0.786498 0.3416315,-1.106708 Q 7.3915307,10.298194 6.5167525,10.20894 5.6152225,10.12123 5.4356382,10.032247 5.3334228,9.9817613 4.8298377,9.5329637 4.727989,9.4421957 4.5293344,9.2550014 4.3278506,9.0652857 4.2260019,8.9745176 4.1524446,8.9089629 4.2356486,8.8156017 4.3642366,8.6713161 4.6324215,8.3874797 4.9031276,8.1008142 5.0317157,7.9565286 q 0.052948,-0.059412 0.140651,0.01875 0.079216,0.070597 0.2329121,0.2228008 0.1508672,0.1496821 0.2300828,0.2202795 0.3564704,0.3176881 0.4938665,0.4198316 0.1065836,0.079759 0.519067,0.1580257 0.4313638,0.079864 0.4994399,0.00348 Q 7.205726,8.9346262 7.067144,8.5319333 6.9326234,8.1531612 6.8521766,8.061162 6.6284265,7.8109932 6.3370261,7.5512958 6.2606396,7.4832198 6.0924308,7.358692 5.924222,7.2341643 5.8450064,7.1635669 5.7912529,7.1156615 5.844201,7.0562498 5.972789,6.9119642 6.2161273,6.6161368 6.4619869,6.3174802 6.5905749,6.1731946 6.6561296,6.0996372 6.752379,6.1397298 6.9178176,6.2161033 7.3902823,6.6371662 Z" />
    </g>
  </g>
</svg>
