  0
SECTION
  2
HEADER
  9
$ACADVER
  1
AC1014
  9
$HANDSEED
  5
FFFF
  9
$MEASUREMENT
 70
     1
  0
ENDSEC
  0
SECTION
  2
TABLES
  0
TABLE
  2
VPORT
  5
8
330
0
100
AcDbSymbolTable
 70
     4
  0
VPORT
  5
2E
330
8
100
AcDbSymbolTableRecord
100
AcDbViewportTableRecord
  2
*ACTIVE
 70
     0
 10
0.0
 20
0.0
 11
1.0
 21
1.0
 12
210.0
 22
148.5
 13
0.0
 23
0.0
 14
10.0
 24
10.0
 15
10.0
 25
10.0
 16
0.0
 26
0.0
 36
1.0
 17
0.0
 27
0.0
 37
0.0
 40
341.0
 41
1.24
 42
50.0
 43
0.0
 44
0.0
 50
0.0
 51
0.0
 71
     0
 72
   100
 73
     1
 74
     3
 75
     0
 76
     0
 77
     0
 78
     0
  0
ENDTAB
  0
TABLE
  2
LTYPE
  5
5
330
0
100
AcDbSymbolTable
 70
     1
  0
LTYPE
  5
14
330
5
100
AcDbSymbolTableRecord
100
AcDbLinetypeTableRecord
  2
BYBLOCK
 70
     0
  3

 72
    65
 73
     0
 40
0.0
  0
LTYPE
  5
15
330
5
100
AcDbSymbolTableRecord
100
AcDbLinetypeTableRecord
  2
BYLAYER
 70
     0
  3

 72
    65
 73
     0
 40
0.0
  0
LTYPE
  5
16
330
5
100
AcDbSymbolTableRecord
100
AcDbLinetypeTableRecord
  2
CONTINUOUS
 70
     0
  3
Solid line
 72
    65
 73
     0
 40
0.0
  0
ENDTAB
  0
TABLE
  2
LAYER
  5
2
100
AcDbSymbolTable
 70
2
  0
LAYER
  5
50
100
AcDbSymbolTableRecord
100
AcDbLayerTableRecord
  2
0
 70
0
  6
CONTINUOUS
  0
LAYER
  5
51
100
AcDbSymbolTableRecord
100
AcDbLayerTableRecord
  2
Layer_1
 70
0
  6
CONTINUOUS
  0
ENDTAB
  0
TABLE
  2
STYLE
  5
3
330
0
100
AcDbSymbolTable
 70
     1
  0
STYLE
  5
11
330
3
100
AcDbSymbolTableRecord
100
AcDbTextStyleTableRecord
  2
STANDARD
 70
     0
 40
0.0
 41
1.0
 50
0.0
 71
     0
 42
2.5
  3
txt
  4

  0
ENDTAB
  0
TABLE
  2
VIEW
  5
6
330
0
100
AcDbSymbolTable
 70
     0
  0
ENDTAB
  0
TABLE
  2
UCS
  5
7
330
0
100
AcDbSymbolTable
 70
     0
  0
ENDTAB
  0
TABLE
  2
APPID
  5
9
330
0
100
AcDbSymbolTable
 70
     2
  0
APPID
  5
12
330
9
100
AcDbSymbolTableRecord
100
AcDbRegAppTableRecord
  2
ACAD
 70
     0
  0
ENDTAB
  0
TABLE
  2
DIMSTYLE
  5
A
330
0
100
AcDbSymbolTable
 70
     1
  0
DIMSTYLE
105
27
330
A
100
AcDbSymbolTableRecord
100
AcDbDimStyleTableRecord
  2
ISO-25
 70
     0
  3

  4

  5

  6

  7

 40
1.0
 41
2.5
 42
0.625
 43
3.75
 44
1.25
 45
0.0
 46
0.0
 47
0.0
 48
0.0
140
2.5
141
2.5
142
0.0
143
0.03937007874016
144
1.0
145
0.0
146
1.0
147
0.625
 71
     0
 72
     0
 73
     0
 74
     0
 75
     0
 76
     0
 77
     1
 78
     8
170
     0
171
     3
172
     1
173
     0
174
     0
175
     0
176
     0
177
     0
178
     0
270
     2
271
     2
272
     2
273
     2
274
     3
340
11
275
     0
280
     0
281
     0
282
     0
283
     0
284
     8
285
     0
286
     0
287
     3
288
     0
  0
ENDTAB
  0
TABLE
  2
BLOCK_RECORD
  5
1
330
0
100
AcDbSymbolTable
 70
     1
  0
BLOCK_RECORD
  5
1F
330
1
100
AcDbSymbolTableRecord
100
AcDbBlockTableRecord
  2
*MODEL_SPACE
  0
BLOCK_RECORD
  5
1B
330
1
100
AcDbSymbolTableRecord
100
AcDbBlockTableRecord
  2
*PAPER_SPACE
  0
ENDTAB
  0
ENDSEC
  0
SECTION
  2
BLOCKS
  0
BLOCK
  5
20
330
1F
100
AcDbEntity
  8
0
100
AcDbBlockBegin
  2
*MODEL_SPACE
 70
     0
 10
0.0
 20
0.0
 30
0.0
  3
*MODEL_SPACE
  1

  0
ENDBLK
  5
21
330
1F
100
AcDbEntity
  8
0
100
AcDbBlockEnd
  0
BLOCK
  5
1C
330
1B
100
AcDbEntity
 67
     1
  8
0
100
AcDbBlockBegin
  2
*PAPER_SPACE
  1

  0
ENDBLK
  5
1D
330
1B
100
AcDbEntity
 67
     1
  8
0
100
AcDbBlockEnd
  0
ENDSEC
  0
SECTION
  2
ENTITIES
  0
SPLINE
  5
100
100
AcDbEntity
  8
Layer_1
 62
1
100
AcDbSpline
 70
8
 71
3
 72
8
 73
4
 74
0
 40
0
 40
0
 40
0
 40
0
 40
1
 40
1
 40
1
 40
1
 10
1.500001
 20
85.604734
 30
0.0
 10
1.500002
 20
97.320461
 30
0.0
 10
3.874370
 20
108.481626
 30
0.0
 10
8.168156
 20
118.633277
 30
0.0
  0
SPLINE
  5
101
100
AcDbEntity
  8
Layer_1
 62
1
100
AcDbSpline
 70
8
 71
3
 72
8
 73
4
 74
0
 40
0
 40
0
 40
0
 40
0
 40
1
 40
1
 40
1
 40
1
 10
8.168156
 20
118.633277
 30
0.0
 10
12.461942
 20
128.784926
 30
0.0
 10
18.675145
 20
137.927061
 30
0.0
 10
26.352814
 20
145.604729
 30
0.0
  0
SPLINE
  5
102
100
AcDbEntity
  8
Layer_1
 62
1
100
AcDbSpline
 70
8
 71
3
 72
8
 73
4
 74
0
 40
0
 40
0
 40
0
 40
0
 40
1
 40
1
 40
1
 40
1
 10
26.352814
 20
145.604729
 30
0.0
 10
34.030483
 20
153.282398
 30
0.0
 10
43.172617
 20
159.495601
 30
0.0
 10
53.324266
 20
163.789387
 30
0.0
  0
SPLINE
  5
103
100
AcDbEntity
  8
Layer_1
 62
1
100
AcDbSpline
 70
8
 71
3
 72
8
 73
4
 74
0
 40
0
 40
0
 40
0
 40
0
 40
1
 40
1
 40
1
 40
1
 10
53.324266
 20
163.789387
 30
0.0
 10
63.475917
 20
168.083173
 30
0.0
 10
74.637082
 20
170.457541
 30
0.0
 10
86.352809
 20
170.457541
 30
0.0
  0
SPLINE
  5
104
100
AcDbEntity
  8
Layer_1
 62
1
100
AcDbSpline
 70
8
 71
3
 72
8
 73
4
 74
0
 40
0
 40
0
 40
0
 40
0
 40
1
 40
1
 40
1
 40
1
 10
86.352809
 20
170.457541
 30
0.0
 10
98.068535
 20
170.457541
 30
0.0
 10
109.229700
 20
168.083173
 30
0.0
 10
119.381352
 20
163.789387
 30
0.0
  0
SPLINE
  5
105
100
AcDbEntity
  8
Layer_1
 62
1
100
AcDbSpline
 70
8
 71
3
 72
8
 73
4
 74
0
 40
0
 40
0
 40
0
 40
0
 40
1
 40
1
 40
1
 40
1
 10
119.381352
 20
163.789387
 30
0.0
 10
129.533000
 20
159.495602
 30
0.0
 10
138.675135
 20
153.282399
 30
0.0
 10
146.352804
 20
145.604730
 30
0.0
  0
SPLINE
  5
106
100
AcDbEntity
  8
Layer_1
 62
1
100
AcDbSpline
 70
8
 71
3
 72
8
 73
4
 74
0
 40
0
 40
0
 40
0
 40
0
 40
1
 40
1
 40
1
 40
1
 10
146.352804
 20
145.604730
 30
0.0
 10
154.030473
 20
137.927061
 30
0.0
 10
160.243676
 20
128.784926
 30
0.0
 10
164.537461
 20
118.633277
 30
0.0
  0
SPLINE
  5
107
100
AcDbEntity
  8
Layer_1
 62
1
100
AcDbSpline
 70
8
 71
3
 72
8
 73
4
 74
0
 40
0
 40
0
 40
0
 40
0
 40
1
 40
1
 40
1
 40
1
 10
164.537461
 20
118.633277
 30
0.0
 10
168.831247
 20
108.481626
 30
0.0
 10
171.205617
 20
97.320461
 30
0.0
 10
171.205617
 20
85.604734
 30
0.0
  0
SPLINE
  5
108
100
AcDbEntity
  8
Layer_1
 62
1
100
AcDbSpline
 70
8
 71
3
 72
8
 73
4
 74
0
 40
0
 40
0
 40
0
 40
0
 40
1
 40
1
 40
1
 40
1
 10
171.205617
 20
85.604734
 30
0.0
 10
171.205617
 20
38.741822
 30
0.0
 10
133.215721
 20
0.751927
 30
0.0
 10
86.352809
 20
0.751927
 30
0.0
  0
SPLINE
  5
109
100
AcDbEntity
  8
Layer_1
 62
1
100
AcDbSpline
 70
8
 71
3
 72
8
 73
4
 74
0
 40
0
 40
0
 40
0
 40
0
 40
1
 40
1
 40
1
 40
1
 10
86.352809
 20
0.751927
 30
0.0
 10
39.489897
 20
0.751927
 30
0.0
 10
1.500001
 20
38.741822
 30
0.0
 10
1.500001
 20
85.604734
 30
0.0
  0
SPLINE
  5
10a
100
AcDbEntity
  8
Layer_1
 62
7
100
AcDbSpline
 70
8
 71
3
 72
8
 73
4
 74
0
 40
0
 40
0
 40
0
 40
0
 40
1
 40
1
 40
1
 40
1
 10
67.899453
 20
20.202780
 30
0.0
 10
67.424207
 20
20.443669
 30
0.0
 10
66.954739
 20
20.860328
 30
0.0
 10
66.740012
 20
21.231853
 30
0.0
  0
SPLINE
  5
10b
100
AcDbEntity
  8
Layer_1
 62
7
100
AcDbSpline
 70
8
 71
3
 72
8
 73
4
 74
0
 40
0
 40
0
 40
0
 40
0
 40
1
 40
1
 40
1
 40
1
 10
66.740012
 20
21.231853
 30
0.0
 10
66.396036
 20
21.827007
 30
0.0
 10
66.376752
 20
22.204054
 30
0.0
 10
66.327216
 20
29.303351
 30
0.0
  0
SPLINE
  5
10c
100
AcDbEntity
  8
Layer_1
 62
7
100
AcDbSpline
 70
8
 71
3
 72
8
 73
4
 74
0
 40
0
 40
0
 40
0
 40
0
 40
1
 40
1
 40
1
 40
1
 10
65.389850
 20
36.750532
 30
0.0
 10
64.069027
 20
36.750532
 30
0.0
 10
55.942744
 20
37.592889
 30
0.0
 10
52.376666
 20
38.099455
 30
0.0
  0
SPLINE
  5
10d
100
AcDbEntity
  8
Layer_1
 62
7
100
AcDbSpline
 70
8
 71
3
 72
8
 73
4
 74
0
 40
0
 40
0
 40
0
 40
0
 40
1
 40
1
 40
1
 40
1
 10
52.376666
 20
38.099455
 30
0.0
 10
44.447981
 20
39.225747
 30
0.0
 10
35.021384
 20
41.263971
 30
0.0
 10
27.136523
 20
43.556910
 30
0.0
  0
SPLINE
  5
10e
100
AcDbEntity
  8
Layer_1
 62
7
100
AcDbSpline
 70
8
 71
3
 72
8
 73
4
 74
0
 40
0
 40
0
 40
0
 40
0
 40
1
 40
1
 40
1
 40
1
 10
27.136523
 20
43.556910
 30
0.0
 10
25.763035
 20
43.956326
 30
0.0
 10
24.213884
 20
44.406655
 30
0.0
 10
23.693973
 20
44.557645
 30
0.0
  0
SPLINE
  5
10f
100
AcDbEntity
  8
Layer_1
 62
7
100
AcDbSpline
 70
8
 71
3
 72
8
 73
4
 74
0
 40
0
 40
0
 40
0
 40
0
 40
1
 40
1
 40
1
 40
1
 10
23.693973
 20
44.557645
 30
0.0
 10
22.198723
 20
44.991882
 30
0.0
 10
22.435093
 20
45.352006
 30
0.0
 10
24.829714
 20
46.287981
 30
0.0
  0
SPLINE
  5
110
100
AcDbEntity
  8
Layer_1
 62
7
100
AcDbSpline
 70
8
 71
3
 72
8
 73
4
 74
0
 40
0
 40
0
 40
0
 40
0
 40
1
 40
1
 40
1
 40
1
 10
24.829714
 20
46.287981
 30
0.0
 10
29.372179
 20
48.063478
 30
0.0
 10
33.403731
 20
50.508153
 30
0.0
 10
37.571502
 20
54.014417
 30
0.0
  0
SPLINE
  5
111
100
AcDbEntity
  8
Layer_1
 62
7
100
AcDbSpline
 70
8
 71
3
 72
8
 73
4
 74
0
 40
0
 40
0
 40
0
 40
0
 40
1
 40
1
 40
1
 40
1
 10
37.571502
 20
54.014417
 30
0.0
 10
40.996483
 20
56.895780
 30
0.0
 10
45.763078
 20
62.095504
 30
0.0
 10
48.985605
 20
66.465672
 30
0.0
  0
SPLINE
  5
112
100
AcDbEntity
  8
Layer_1
 62
7
100
AcDbSpline
 70
8
 71
3
 72
8
 73
4
 74
0
 40
0
 40
0
 40
0
 40
0
 40
1
 40
1
 40
1
 40
1
 10
48.985605
 20
66.465672
 30
0.0
 10
49.702711
 20
67.438154
 30
0.0
 10
50.478117
 20
68.489342
 30
0.0
 10
50.708738
 20
68.801644
 30
0.0
  0
SPLINE
  5
113
100
AcDbEntity
  8
Layer_1
 62
7
100
AcDbSpline
 70
8
 71
3
 72
8
 73
4
 74
0
 40
0
 40
0
 40
0
 40
0
 40
1
 40
1
 40
1
 40
1
 10
50.708738
 20
68.801644
 30
0.0
 10
50.939365
 20
69.113931
 30
0.0
 10
51.128045
 20
69.414951
 30
0.0
 10
51.128045
 20
69.470552
 30
0.0
  0
SPLINE
  5
114
100
AcDbEntity
  8
Layer_1
 62
7
100
AcDbSpline
 70
8
 71
3
 72
8
 73
4
 74
0
 40
0
 40
0
 40
0
 40
0
 40
1
 40
1
 40
1
 40
1
 10
51.128045
 20
69.470552
 30
0.0
 10
51.128045
 20
69.526168
 30
0.0
 10
47.040891
 20
69.571664
 30
0.0
 10
42.045480
 20
69.571664
 30
0.0
  0
SPLINE
  5
115
100
AcDbEntity
  8
Layer_1
 62
7
100
AcDbSpline
 70
8
 71
3
 72
8
 73
4
 74
0
 40
0
 40
0
 40
0
 40
0
 40
1
 40
1
 40
1
 40
1
 10
42.045480
 20
69.571664
 30
0.0
 10
37.050069
 20
69.571664
 30
0.0
 10
32.835943
 20
69.620363
 30
0.0
 10
32.680760
 20
69.679919
 30
0.0
  0
SPLINE
  5
116
100
AcDbEntity
  8
Layer_1
 62
7
100
AcDbSpline
 70
8
 71
3
 72
8
 73
4
 74
0
 40
0
 40
0
 40
0
 40
0
 40
1
 40
1
 40
1
 40
1
 10
32.680760
 20
69.679919
 30
0.0
 10
32.343732
 20
69.809236
 30
0.0
 10
32.304631
 20
70.389298
 30
0.0
 10
32.624663
 20
70.512103
 30
0.0
  0
SPLINE
  5
117
100
AcDbEntity
  8
Layer_1
 62
7
100
AcDbSpline
 70
8
 71
3
 72
8
 73
4
 74
0
 40
0
 40
0
 40
0
 40
0
 40
1
 40
1
 40
1
 40
1
 10
32.624663
 20
70.512103
 30
0.0
 10
32.748990
 20
70.559838
 30
0.0
 10
34.133638
 20
71.563912
 30
0.0
 10
35.701642
 20
72.743437
 30
0.0
  0
SPLINE
  5
118
100
AcDbEntity
  8
Layer_1
 62
7
100
AcDbSpline
 70
8
 71
3
 72
8
 73
4
 74
0
 40
0
 40
0
 40
0
 40
0
 40
1
 40
1
 40
1
 40
1
 10
35.701642
 20
72.743437
 30
0.0
 10
42.860151
 20
78.128368
 30
0.0
 10
50.145440
 20
85.570739
 30
0.0
 10
57.304225
 20
94.811797
 30
0.0
  0
SPLINE
  5
119
100
AcDbEntity
  8
Layer_1
 62
7
100
AcDbSpline
 70
8
 71
3
 72
8
 73
4
 74
0
 40
0
 40
0
 40
0
 40
0
 40
1
 40
1
 40
1
 40
1
 10
57.304225
 20
94.811797
 30
0.0
 10
59.968406
 20
98.250905
 30
0.0
 10
65.754845
 20
106.498570
 30
0.0
 10
65.754845
 20
106.856833
 30
0.0
  0
SPLINE
  5
11a
100
AcDbEntity
  8
Layer_1
 62
7
100
AcDbSpline
 70
8
 71
3
 72
8
 73
4
 74
0
 40
0
 40
0
 40
0
 40
0
 40
1
 40
1
 40
1
 40
1
 10
65.754845
 20
106.856833
 30
0.0
 10
65.754845
 20
106.960297
 30
0.0
 10
63.032003
 20
107.044600
 30
0.0
 10
58.768430
 20
107.073031
 30
0.0
  0
SPLINE
  5
11b
100
AcDbEntity
  8
Layer_1
 62
7
100
AcDbSpline
 70
8
 71
3
 72
8
 73
4
 74
0
 40
0
 40
0
 40
0
 40
0
 40
1
 40
1
 40
1
 40
1
 10
58.768430
 20
107.073031
 30
0.0
 10
53.919578
 20
107.105403
 30
0.0
 10
51.762175
 20
107.179217
 30
0.0
 10
51.717186
 20
107.314288
 30
0.0
  0
SPLINE
  5
11c
100
AcDbEntity
  8
Layer_1
 62
7
100
AcDbSpline
 70
8
 71
3
 72
8
 73
4
 74
0
 40
0
 40
0
 40
0
 40
0
 40
1
 40
1
 40
1
 40
1
 10
51.717186
 20
107.314288
 30
0.0
 10
51.681555
 20
107.421296
 30
0.0
 10
52.357147
 20
108.183784
 30
0.0
 10
53.218553
 20
109.008666
 30
0.0
  0
SPLINE
  5
11d
100
AcDbEntity
  8
Layer_1
 62
7
100
AcDbSpline
 70
8
 71
3
 72
8
 73
4
 74
0
 40
0
 40
0
 40
0
 40
0
 40
1
 40
1
 40
1
 40
1
 10
53.218553
 20
109.008666
 30
0.0
 10
61.079134
 20
116.535937
 30
0.0
 10
65.448269
 20
121.190726
 30
0.0
 10
70.119901
 20
127.015016
 30
0.0
  0
SPLINE
  5
11e
100
AcDbEntity
  8
Layer_1
 62
7
100
AcDbSpline
 70
8
 71
3
 72
8
 73
4
 74
0
 40
0
 40
0
 40
0
 40
0
 40
1
 40
1
 40
1
 40
1
 10
70.119901
 20
127.015016
 30
0.0
 10
75.520587
 20
133.748249
 30
0.0
 10
80.657223
 20
141.625066
 30
0.0
 10
84.245873
 20
148.676596
 30
0.0
  0
LWPOLYLINE
  5
11f
100
AcDbEntity
  8
Layer_1
 62
7
100
AcDbPolyline
 90
3
 70
0
 10
66.327216
 20
29.303351
 30
0.0
 10
66.275229
 20
36.750532
 30
0.0
 10
65.389850
 20
36.750532
 30
0.0
  0
SPLINE
  5
120
100
AcDbEntity
  8
Layer_1
 62
7
100
AcDbSpline
 70
8
 71
3
 72
8
 73
4
 74
0
 40
0
 40
0
 40
0
 40
0
 40
1
 40
1
 40
1
 40
1
 10
86.354192
 20
151.384185
 30
0.0
 10
87.066808
 20
151.356972
 30
0.0
 10
87.074972
 20
151.348610
 30
0.0
 10
87.845763
 20
149.840712
 30
0.0
  0
SPLINE
  5
121
100
AcDbEntity
  8
Layer_1
 62
7
100
AcDbSpline
 70
8
 71
3
 72
8
 73
4
 74
0
 40
0
 40
0
 40
0
 40
0
 40
1
 40
1
 40
1
 40
1
 10
87.845763
 20
149.840712
 30
0.0
 10
93.105417
 20
139.551316
 30
0.0
 10
98.416996
 20
131.655135
 30
0.0
 10
106.138437
 20
122.646875
 30
0.0
  0
SPLINE
  5
122
100
AcDbEntity
  8
Layer_1
 62
7
100
AcDbSpline
 70
8
 71
3
 72
8
 73
4
 74
0
 40
0
 40
0
 40
0
 40
0
 40
1
 40
1
 40
1
 40
1
 10
106.138437
 20
122.646875
 30
0.0
 10
108.441145
 20
119.960405
 30
0.0
 10
116.387915
 20
111.843136
 30
0.0
 10
119.156556
 20
109.349450
 30
0.0
  0
SPLINE
  5
123
100
AcDbEntity
  8
Layer_1
 62
7
100
AcDbSpline
 70
8
 71
3
 72
8
 73
4
 74
0
 40
0
 40
0
 40
0
 40
0
 40
1
 40
1
 40
1
 40
1
 10
119.156556
 20
109.349450
 30
0.0
 10
120.878640
 20
107.798383
 30
0.0
 10
121.172349
 20
107.437031
 30
0.0
 10
120.917826
 20
107.182517
 30
0.0
  0
SPLINE
  5
124
100
AcDbEntity
  8
Layer_1
 62
7
100
AcDbSpline
 70
8
 71
3
 72
8
 73
4
 74
0
 40
0
 40
0
 40
0
 40
0
 40
1
 40
1
 40
1
 40
1
 10
120.917826
 20
107.182517
 30
0.0
 10
120.837974
 20
107.102665
 30
0.0
 10
117.664741
 20
107.032450
 30
0.0
 10
113.866146
 20
107.026413
 30
0.0
  0
SPLINE
  5
125
100
AcDbEntity
  8
Layer_1
 62
7
100
AcDbSpline
 70
8
 71
3
 72
8
 73
4
 74
0
 40
0
 40
0
 40
0
 40
0
 40
1
 40
1
 40
1
 40
1
 10
113.866146
 20
107.026413
 30
0.0
 10
109.348773
 20
107.019043
 30
0.0
 10
106.959609
 20
106.953222
 30
0.0
 10
106.959609
 20
106.835556
 30
0.0
  0
SPLINE
  5
126
100
AcDbEntity
  8
Layer_1
 62
7
100
AcDbSpline
 70
8
 71
3
 72
8
 73
4
 74
0
 40
0
 40
0
 40
0
 40
0
 40
1
 40
1
 40
1
 40
1
 10
106.959609
 20
106.835556
 30
0.0
 10
106.959609
 20
106.528127
 30
0.0
 10
111.101329
 20
100.474563
 30
0.0
 10
113.608449
 20
97.117580
 30
0.0
  0
SPLINE
  5
127
100
AcDbEntity
  8
Layer_1
 62
7
100
AcDbSpline
 70
8
 71
3
 72
8
 73
4
 74
0
 40
0
 40
0
 40
0
 40
0
 40
1
 40
1
 40
1
 40
1
 10
113.608449
 20
97.117580
 30
0.0
 10
121.449900
 20
86.618038
 30
0.0
 10
129.117365
 20
78.607718
 30
0.0
 10
136.837525
 20
72.849790
 30
0.0
  0
SPLINE
  5
128
100
AcDbEntity
  8
Layer_1
 62
7
100
AcDbSpline
 70
8
 71
3
 72
8
 73
4
 74
0
 40
0
 40
0
 40
0
 40
0
 40
1
 40
1
 40
1
 40
1
 10
136.837525
 20
72.849790
 30
0.0
 10
140.535581
 20
70.091663
 30
0.0
 10
140.395037
 20
70.213686
 30
0.0
 10
140.264796
 20
69.874271
 30
0.0
  0
SPLINE
  5
129
100
AcDbEntity
  8
Layer_1
 62
7
100
AcDbSpline
 70
8
 71
3
 72
8
 73
4
 74
0
 40
0
 40
0
 40
0
 40
0
 40
1
 40
1
 40
1
 40
1
 10
140.264796
 20
69.874271
 30
0.0
 10
140.157646
 20
69.595087
 30
0.0
 10
139.430344
 20
69.571698
 30
0.0
 10
130.867549
 20
69.571698
 30
0.0
  0
SPLINE
  5
12a
100
AcDbEntity
  8
Layer_1
 62
7
100
AcDbSpline
 70
8
 71
3
 72
8
 73
4
 74
0
 40
0
 40
0
 40
0
 40
0
 40
1
 40
1
 40
1
 40
1
 10
130.867549
 20
69.571698
 30
0.0
 10
125.762930
 20
69.571698
 30
0.0
 10
121.586417
 20
69.524870
 30
0.0
 10
121.586417
 20
69.467666
 30
0.0
  0
SPLINE
  5
12b
100
AcDbEntity
  8
Layer_1
 62
7
100
AcDbSpline
 70
8
 71
3
 72
8
 73
4
 74
0
 40
0
 40
0
 40
0
 40
0
 40
1
 40
1
 40
1
 40
1
 10
121.586417
 20
69.467666
 30
0.0
 10
121.586417
 20
69.303711
 30
0.0
 10
124.462145
 20
65.342784
 30
0.0
 10
125.790182
 20
63.677531
 30
0.0
  0
SPLINE
  5
12c
100
AcDbEntity
  8
Layer_1
 62
7
100
AcDbSpline
 70
8
 71
3
 72
8
 73
4
 74
0
 40
0
 40
0
 40
0
 40
0
 40
1
 40
1
 40
1
 40
1
 10
125.790182
 20
63.677531
 30
0.0
 10
131.259373
 20
56.819639
 30
0.0
 10
137.807793
 20
51.119354
 30
0.0
 10
143.679937
 20
48.104847
 30
0.0
  0
SPLINE
  5
12d
100
AcDbEntity
  8
Layer_1
 62
7
100
AcDbSpline
 70
8
 71
3
 72
8
 73
4
 74
0
 40
0
 40
0
 40
0
 40
0
 40
1
 40
1
 40
1
 40
1
 10
143.679937
 20
48.104847
 30
0.0
 10
145.354470
 20
47.245207
 30
0.0
 10
149.233136
 20
45.669362
 30
0.0
 10
149.674436
 20
45.669362
 30
0.0
  0
SPLINE
  5
12e
100
AcDbEntity
  8
Layer_1
 62
7
100
AcDbSpline
 70
8
 71
3
 72
8
 73
4
 74
0
 40
0
 40
0
 40
0
 40
0
 40
1
 40
1
 40
1
 40
1
 10
149.674436
 20
45.669362
 30
0.0
 10
149.841312
 20
45.669362
 30
0.0
 10
149.948150
 20
45.508864
 30
0.0
 10
149.948150
 20
45.258123
 30
0.0
  0
SPLINE
  5
12f
100
AcDbEntity
  8
Layer_1
 62
7
100
AcDbSpline
 70
8
 71
3
 72
8
 73
4
 74
0
 40
0
 40
0
 40
0
 40
0
 40
1
 40
1
 40
1
 40
1
 10
149.948150
 20
45.258123
 30
0.0
 10
149.948150
 20
44.882059
 30
0.0
 10
149.723022
 20
44.781069
 30
0.0
 10
147.317111
 20
44.077737
 30
0.0
  0
SPLINE
  5
130
100
AcDbEntity
  8
Layer_1
 62
7
100
AcDbSpline
 70
8
 71
3
 72
8
 73
4
 74
0
 40
0
 40
0
 40
0
 40
0
 40
1
 40
1
 40
1
 40
1
 10
147.317111
 20
44.077737
 30
0.0
 10
136.832822
 20
41.012816
 30
0.0
 10
127.244123
 20
38.943187
 30
0.0
 10
118.375668
 20
37.830991
 30
0.0
  0
SPLINE
  5
131
100
AcDbEntity
  8
Layer_1
 62
7
100
AcDbSpline
 70
8
 71
3
 72
8
 73
4
 74
0
 40
0
 40
0
 40
0
 40
0
 40
1
 40
1
 40
1
 40
1
 10
118.375668
 20
37.830991
 30
0.0
 10
114.599407
 20
37.357413
 30
0.0
 10
108.081196
 20
36.750580
 30
0.0
 10
106.770501
 20
36.750580
 30
0.0
  0
SPLINE
  5
132
100
AcDbEntity
  8
Layer_1
 62
7
100
AcDbSpline
 70
8
 71
3
 72
8
 73
4
 74
0
 40
0
 40
0
 40
0
 40
0
 40
1
 40
1
 40
1
 40
1
 10
106.770501
 20
36.750580
 30
0.0
 10
106.212302
 20
36.750580
 30
0.0
 10
105.508111
 20
36.701087
 30
0.0
 10
105.205629
 20
36.640596
 30
0.0
  0
LWPOLYLINE
  5
133
100
AcDbEntity
  8
Layer_1
 62
7
100
AcDbPolyline
 90
3
 70
0
 10
84.245873
 20
148.676596
 30
0.0
 10
85.637659
 20
151.411397
 30
0.0
 10
86.354192
 20
151.384185
 30
0.0
  0
SPLINE
  5
134
100
AcDbEntity
  8
Layer_1
 62
7
100
AcDbSpline
 70
8
 71
3
 72
8
 73
4
 74
0
 40
0
 40
0
 40
0
 40
0
 40
1
 40
1
 40
1
 40
1
 10
104.603615
 20
29.282610
 30
0.0
 10
104.553612
 20
22.321519
 30
0.0
 10
104.536774
 20
22.006363
 30
0.0
 10
104.177418
 20
21.321113
 30
0.0
  0
SPLINE
  5
135
100
AcDbEntity
  8
Layer_1
 62
7
100
AcDbSpline
 70
8
 71
3
 72
8
 73
4
 74
0
 40
0
 40
0
 40
0
 40
0
 40
1
 40
1
 40
1
 40
1
 10
104.177418
 20
21.321113
 30
0.0
 10
103.971623
 20
20.928682
 30
0.0
 10
103.530155
 20
20.447070
 30
0.0
 10
103.196347
 20
20.250856
 30
0.0
  0
SPLINE
  5
136
100
AcDbEntity
  8
Layer_1
 62
7
100
AcDbSpline
 70
8
 71
3
 72
8
 73
4
 74
0
 40
0
 40
0
 40
0
 40
0
 40
1
 40
1
 40
1
 40
1
 10
103.196347
 20
20.250856
 30
0.0
 10
102.602551
 20
19.901812
 30
0.0
 10
102.223213
 20
19.893064
 30
0.0
 10
85.643751
 20
19.846089
 30
0.0
  0
LWPOLYLINE
  5
137
100
AcDbEntity
  8
Layer_1
 62
7
100
AcDbPolyline
 90
3
 70
0
 10
105.205629
 20
36.640596
 30
0.0
 10
104.655660
 20
36.530612
 30
0.0
 10
104.603615
 20
29.282610
 30
0.0
  0
SPLINE
  5
138
100
AcDbEntity
  8
Layer_1
 62
7
100
AcDbSpline
 70
8
 71
3
 72
8
 73
4
 74
0
 40
0
 40
0
 40
0
 40
0
 40
1
 40
1
 40
1
 40
1
 10
102.551553
 20
21.068683
 30
0.0
 10
103.561999
 20
21.529069
 30
0.0
 10
103.570489
 20
21.601570
 30
0.0
 10
103.570489
 20
29.770534
 30
0.0
  0
SPLINE
  5
139
100
AcDbEntity
  8
Layer_1
 62
7
100
AcDbSpline
 70
8
 71
3
 72
8
 73
4
 74
0
 40
0
 40
0
 40
0
 40
0
 40
1
 40
1
 40
1
 40
1
 10
103.570489
 20
29.770534
 30
0.0
 10
103.570489
 20
38.408238
 30
0.0
 10
103.384735
 20
37.640778
 30
0.0
 10
105.476301
 20
37.644676
 30
0.0
  0
SPLINE
  5
13a
100
AcDbEntity
  8
Layer_1
 62
7
100
AcDbSpline
 70
8
 71
3
 72
8
 73
4
 74
0
 40
0
 40
0
 40
0
 40
0
 40
1
 40
1
 40
1
 40
1
 10
105.476301
 20
37.644676
 30
0.0
 10
106.144971
 20
37.646025
 30
0.0
 10
108.096769
 20
37.765403
 30
0.0
 10
109.813637
 20
37.910225
 30
0.0
  0
SPLINE
  5
13b
100
AcDbEntity
  8
Layer_1
 62
7
100
AcDbSpline
 70
8
 71
3
 72
8
 73
4
 74
0
 40
0
 40
0
 40
0
 40
0
 40
1
 40
1
 40
1
 40
1
 10
109.813637
 20
37.910225
 30
0.0
 10
121.164307
 20
38.867652
 30
0.0
 10
129.240621
 20
40.202362
 30
0.0
 10
139.067235
 20
42.744759
 30
0.0
  0
SPLINE
  5
13c
100
AcDbEntity
  8
Layer_1
 62
7
100
AcDbSpline
 70
8
 71
3
 72
8
 73
4
 74
0
 40
0
 40
0
 40
0
 40
0
 40
1
 40
1
 40
1
 40
1
 10
139.067235
 20
42.744759
 30
0.0
 10
142.118657
 20
43.534247
 30
0.0
 10
147.657237
 20
45.102688
 30
0.0
 10
147.761362
 20
45.206807
 30
0.0
  0
SPLINE
  5
13d
100
AcDbEntity
  8
Layer_1
 62
7
100
AcDbSpline
 70
8
 71
3
 72
8
 73
4
 74
0
 40
0
 40
0
 40
0
 40
0
 40
1
 40
1
 40
1
 40
1
 10
147.761362
 20
45.206807
 30
0.0
 10
147.790134
 20
45.235579
 30
0.0
 10
147.069887
 20
45.564437
 30
0.0
 10
146.160723
 20
45.937500
 30
0.0
  0
SPLINE
  5
13e
100
AcDbEntity
  8
Layer_1
 62
7
100
AcDbSpline
 70
8
 71
3
 72
8
 73
4
 74
0
 40
0
 40
0
 40
0
 40
0
 40
1
 40
1
 40
1
 40
1
 10
146.160723
 20
45.937500
 30
0.0
 10
142.726572
 20
47.346650
 30
0.0
 10
140.516830
 20
48.639461
 30
0.0
 10
136.837542
 20
51.392044
 30
0.0
  0
SPLINE
  5
13f
100
AcDbEntity
  8
Layer_1
 62
7
100
AcDbSpline
 70
8
 71
3
 72
8
 73
4
 74
0
 40
0
 40
0
 40
0
 40
0
 40
1
 40
1
 40
1
 40
1
 10
136.837542
 20
51.392044
 30
0.0
 10
132.145560
 20
54.902262
 30
0.0
 10
127.805984
 20
59.361256
 30
0.0
 10
123.596405
 20
64.997558
 30
0.0
  0
SPLINE
  5
140
100
AcDbEntity
  8
Layer_1
 62
7
100
AcDbSpline
 70
8
 71
3
 72
8
 73
4
 74
0
 40
0
 40
0
 40
0
 40
0
 40
1
 40
1
 40
1
 40
1
 10
123.596405
 20
64.997558
 30
0.0
 10
120.724860
 20
68.842338
 30
0.0
 10
119.910200
 20
70.107245
 30
0.0
 10
120.150601
 20
70.347781
 30
0.0
  0
SPLINE
  5
141
100
AcDbEntity
  8
Layer_1
 62
7
100
AcDbSpline
 70
8
 71
3
 72
8
 73
4
 74
0
 40
0
 40
0
 40
0
 40
0
 40
1
 40
1
 40
1
 40
1
 10
120.150601
 20
70.347781
 30
0.0
 10
120.296840
 20
70.494106
 30
0.0
 10
122.885821
 20
70.578210
 30
0.0
 10
129.204669
 20
70.641882
 30
0.0
  0
LWPOLYLINE
  5
142
100
AcDbEntity
  8
Layer_1
 62
7
100
AcDbPolyline
 90
3
 70
0
 10
85.643751
 20
19.846089
 30
0.0
 10
68.698066
 20
19.798070
 30
0.0
 10
67.899453
 20
20.202780
 30
0.0
  0
SPLINE
  5
143
100
AcDbEntity
  8
Layer_1
 62
7
100
AcDbSpline
 70
8
 71
3
 72
8
 73
4
 74
0
 40
0
 40
0
 40
0
 40
0
 40
1
 40
1
 40
1
 40
1
 10
136.107924
 20
72.184277
 30
0.0
 10
126.216184
 20
79.570945
 30
0.0
 10
116.793244
 20
90.158740
 30
0.0
 10
107.101641
 20
104.776325
 30
0.0
  0
SPLINE
  5
144
100
AcDbEntity
  8
Layer_1
 62
7
100
AcDbSpline
 70
8
 71
3
 72
8
 73
4
 74
0
 40
0
 40
0
 40
0
 40
0
 40
1
 40
1
 40
1
 40
1
 10
107.101641
 20
104.776325
 30
0.0
 10
105.707846
 20
106.878552
 30
0.0
 10
105.386440
 20
107.478692
 30
0.0
 10
105.549296
 20
107.674929
 30
0.0
  0
SPLINE
  5
145
100
AcDbEntity
  8
Layer_1
 62
7
100
AcDbSpline
 70
8
 71
3
 72
8
 73
4
 74
0
 40
0
 40
0
 40
0
 40
0
 40
1
 40
1
 40
1
 40
1
 10
105.549296
 20
107.674929
 30
0.0
 10
105.717844
 20
107.878003
 30
0.0
 10
106.967795
 20
107.922393
 30
0.0
 10
112.517864
 20
107.922393
 30
0.0
  0
LWPOLYLINE
  5
146
100
AcDbEntity
  8
Layer_1
 62
7
100
AcDbPolyline
 90
3
 70
0
 10
129.204669
 20
70.641882
 30
0.0
 10
138.053942
 20
70.731088
 30
0.0
 10
136.107924
 20
72.184277
 30
0.0
  0
SPLINE
  5
147
100
AcDbEntity
  8
Layer_1
 62
7
100
AcDbSpline
 70
8
 71
3
 72
8
 73
4
 74
0
 40
0
 40
0
 40
0
 40
0
 40
1
 40
1
 40
1
 40
1
 10
117.535136
 20
109.553689
 30
0.0
 10
112.583730
 20
114.180072
 30
0.0
 10
106.519439
 20
120.637763
 30
0.0
 10
102.483675
 20
125.581567
 30
0.0
  0
SPLINE
  5
148
100
AcDbEntity
  8
Layer_1
 62
7
100
AcDbSpline
 70
8
 71
3
 72
8
 73
4
 74
0
 40
0
 40
0
 40
0
 40
0
 40
1
 40
1
 40
1
 40
1
 10
102.483675
 20
125.581567
 30
0.0
 10
96.534232
 20
132.869616
 30
0.0
 10
90.801771
 20
141.691136
 30
0.0
 10
86.665218
 20
149.924133
 30
0.0
  0
LWPOLYLINE
  5
149
100
AcDbEntity
  8
Layer_1
 62
7
100
AcDbPolyline
 90
3
 70
0
 10
112.517864
 20
107.922393
 30
0.0
 10
119.281048
 20
107.922393
 30
0.0
 10
117.535136
 20
109.553689
 30
0.0
  0
SPLINE
  5
14a
100
AcDbEntity
  8
Layer_1
 62
7
100
AcDbSpline
 70
8
 71
3
 72
8
 73
4
 74
0
 40
0
 40
0
 40
0
 40
0
 40
1
 40
1
 40
1
 40
1
 10
85.137749
 20
148.293406
 30
0.0
 10
81.973582
 20
141.978974
 30
0.0
 10
77.225409
 20
134.586808
 30
0.0
 10
72.153411
 20
128.078821
 30
0.0
  0
SPLINE
  5
14b
100
AcDbEntity
  8
Layer_1
 62
7
100
AcDbSpline
 70
8
 71
3
 72
8
 73
4
 74
0
 40
0
 40
0
 40
0
 40
0
 40
1
 40
1
 40
1
 40
1
 10
72.153411
 20
128.078821
 30
0.0
 10
67.465723
 20
122.063950
 30
0.0
 10
62.412656
 20
116.525951
 30
0.0
 10
55.908666
 20
110.275104
 30
0.0
  0
LWPOLYLINE
  5
14c
100
AcDbEntity
  8
Layer_1
 62
7
100
AcDbPolyline
 90
3
 70
0
 10
86.665218
 20
149.924133
 30
0.0
 10
86.309589
 20
150.631935
 30
0.0
 10
85.137749
 20
148.293406
 30
0.0
  0
SPLINE
  5
14d
100
AcDbEntity
  8
Layer_1
 62
7
100
AcDbSpline
 70
8
 71
3
 72
8
 73
4
 74
0
 40
0
 40
0
 40
0
 40
0
 40
1
 40
1
 40
1
 40
1
 10
60.276464
 20
107.879916
 30
0.0
 10
66.565134
 20
107.836801
 30
0.0
 10
67.092423
 20
107.809588
 30
0.0
 10
67.147155
 20
107.525194
 30
0.0
  0
SPLINE
  5
14e
100
AcDbEntity
  8
Layer_1
 62
7
100
AcDbSpline
 70
8
 71
3
 72
8
 73
4
 74
0
 40
0
 40
0
 40
0
 40
0
 40
1
 40
1
 40
1
 40
1
 10
67.147155
 20
107.525194
 30
0.0
 10
67.213287
 20
107.181612
 30
0.0
 10
66.768936
 20
106.473186
 30
0.0
 10
63.816111
 20
102.214380
 30
0.0
  0
SPLINE
  5
14f
100
AcDbEntity
  8
Layer_1
 62
7
100
AcDbSpline
 70
8
 71
3
 72
8
 73
4
 74
0
 40
0
 40
0
 40
0
 40
0
 40
1
 40
1
 40
1
 40
1
 10
63.816111
 20
102.214380
 30
0.0
 10
57.295562
 20
92.809911
 30
0.0
 10
52.748048
 20
87.226370
 30
0.0
 10
46.589916
 20
81.063646
 30
0.0
  0
SPLINE
  5
150
100
AcDbEntity
  8
Layer_1
 62
7
100
AcDbSpline
 70
8
 71
3
 72
8
 73
4
 74
0
 40
0
 40
0
 40
0
 40
0
 40
1
 40
1
 40
1
 40
1
 10
46.589916
 20
81.063646
 30
0.0
 10
42.596127
 20
77.066875
 30
0.0
 10
40.029282
 20
74.789484
 30
0.0
 10
36.629337
 20
72.226295
 30
0.0
  0
LWPOLYLINE
  5
151
100
AcDbEntity
  8
Layer_1
 62
7
100
AcDbPolyline
 90
3
 70
0
 10
55.908666
 20
110.275104
 30
0.0
 10
53.465054
 20
107.926603
 30
0.0
 10
60.276464
 20
107.879916
 30
0.0
  0
SPLINE
  5
152
100
AcDbEntity
  8
Layer_1
 62
7
100
AcDbSpline
 70
8
 71
3
 72
8
 73
4
 74
0
 40
0
 40
0
 40
0
 40
0
 40
1
 40
1
 40
1
 40
1
 10
43.259244
 20
70.641901
 30
0.0
 10
48.061582
 20
70.641901
 30
0.0
 10
52.117736
 20
70.593174
 30
0.0
 10
52.272916
 20
70.533618
 30
0.0
  0
SPLINE
  5
153
100
AcDbEntity
  8
Layer_1
 62
7
100
AcDbSpline
 70
8
 71
3
 72
8
 73
4
 74
0
 40
0
 40
0
 40
0
 40
0
 40
1
 40
1
 40
1
 40
1
 10
52.272916
 20
70.533618
 30
0.0
 10
52.795446
 20
70.333123
 30
0.0
 10
52.561871
 20
69.809145
 30
0.0
 10
50.920739
 20
67.500507
 30
0.0
  0
SPLINE
  5
154
100
AcDbEntity
  8
Layer_1
 62
7
100
AcDbSpline
 70
8
 71
3
 72
8
 73
4
 74
0
 40
0
 40
0
 40
0
 40
0
 40
1
 40
1
 40
1
 40
1
 10
50.920739
 20
67.500507
 30
0.0
 10
43.284263
 20
56.757971
 30
0.0
 10
34.889477
 20
49.381591
 30
0.0
 10
26.267888
 20
45.838386
 30
0.0
  0
SPLINE
  5
155
100
AcDbEntity
  8
Layer_1
 62
7
100
AcDbSpline
 70
8
 71
3
 72
8
 73
4
 74
0
 40
0
 40
0
 40
0
 40
0
 40
1
 40
1
 40
1
 40
1
 10
26.267888
 20
45.838386
 30
0.0
 10
25.353735
 20
45.462696
 30
0.0
 10
24.949330
 20
45.215589
 30
0.0
 10
25.108447
 20
45.129912
 30
0.0
  0
SPLINE
  5
156
100
AcDbEntity
  8
Layer_1
 62
7
100
AcDbSpline
 70
8
 71
3
 72
8
 73
4
 74
0
 40
0
 40
0
 40
0
 40
0
 40
1
 40
1
 40
1
 40
1
 10
25.108447
 20
45.129912
 30
0.0
 10
25.477238
 20
44.931373
 30
0.0
 10
29.570573
 20
43.783991
 30
0.0
 10
33.379690
 20
42.811478
 30
0.0
  0
SPLINE
  5
157
100
AcDbEntity
  8
Layer_1
 62
7
100
AcDbSpline
 70
8
 71
3
 72
8
 73
4
 74
0
 40
0
 40
0
 40
0
 40
0
 40
1
 40
1
 40
1
 40
1
 10
33.379690
 20
42.811478
 30
0.0
 10
43.535341
 20
40.218622
 30
0.0
 10
53.040169
 20
38.636674
 30
0.0
 10
63.168418
 20
37.853566
 30
0.0
  0
LWPOLYLINE
  5
158
100
AcDbEntity
  8
Layer_1
 62
7
100
AcDbPolyline
 90
3
 70
0
 10
36.629337
 20
72.226295
 30
0.0
 10
34.527719
 20
70.641901
 30
0.0
 10
43.259244
 20
70.641901
 30
0.0
  0
SPLINE
  5
159
100
AcDbEntity
  8
Layer_1
 62
7
100
AcDbSpline
 70
8
 71
3
 72
8
 73
4
 74
0
 40
0
 40
0
 40
0
 40
0
 40
1
 40
1
 40
1
 40
1
 10
67.181859
 20
29.881522
 30
0.0
 10
67.248077
 20
24.187671
 30
0.0
 10
67.328836
 20
22.111911
 30
0.0
 10
67.495394
 20
21.820717
 30
0.0
  0
SPLINE
  5
15a
100
AcDbEntity
  8
Layer_1
 62
7
100
AcDbSpline
 70
8
 71
3
 72
8
 73
4
 74
0
 40
0
 40
0
 40
0
 40
0
 40
1
 40
1
 40
1
 40
1
 10
67.495394
 20
21.820717
 30
0.0
 10
68.066510
 20
20.822315
 30
0.0
 10
67.071679
 20
20.875096
 30
0.0
 10
85.318274
 20
20.875096
 30
0.0
  0
SPLINE
  5
15b
100
AcDbEntity
  8
Layer_1
 62
7
100
AcDbSpline
 70
8
 71
3
 72
8
 73
4
 74
0
 40
0
 40
0
 40
0
 40
0
 40
1
 40
1
 40
1
 40
1
 10
85.318274
 20
20.875096
 30
0.0
 10
97.023849
 20
20.875096
 30
0.0
 10
102.255664
 20
20.933887
 30
0.0
 10
102.551539
 20
21.068674
 30
0.0
  0
LWPOLYLINE
  5
15c
100
AcDbEntity
  8
Layer_1
 62
7
100
AcDbPolyline
 90
3
 70
0
 10
63.168418
 20
37.853566
 30
0.0
 10
67.092681
 20
37.550134
 30
0.0
 10
67.181859
 20
29.881522
 30
0.0
  0
SPLINE
  5
15d
100
AcDbEntity
  8
Layer_1
 62
7
100
AcDbSpline
 70
8
 71
3
 72
8
 73
4
 74
0
 40
0
 40
0
 40
0
 40
0
 40
1
 40
1
 40
1
 40
1
 10
104.098514
 20
146.584410
 30
0.0
 10
104.056578
 20
146.477768
 30
0.0
 10
103.931621
 20
146.365261
 30
0.0
 10
103.723643
 20
146.246889
 30
0.0
  0
SPLINE
  5
15e
100
AcDbEntity
  8
Layer_1
 62
7
100
AcDbSpline
 70
8
 71
3
 72
8
 73
4
 74
0
 40
0
 40
0
 40
0
 40
0
 40
1
 40
1
 40
1
 40
1
 10
103.723643
 20
146.246889
 30
0.0
 10
101.923920
 20
145.268576
 30
0.0
 10
100.007479
 20
145.178539
 30
0.0
 10
97.974319
 20
145.976779
 30
0.0
  0
SPLINE
  5
15f
100
AcDbEntity
  8
Layer_1
 62
7
100
AcDbSpline
 70
8
 71
3
 72
8
 73
4
 74
0
 40
0
 40
0
 40
0
 40
0
 40
1
 40
1
 40
1
 40
1
 10
97.974319
 20
145.976779
 30
0.0
 10
95.894499
 20
146.793339
 30
0.0
 10
94.486708
 20
148.165424
 30
0.0
 10
93.750945
 20
150.093035
 30
0.0
  0
SPLINE
  5
160
100
AcDbEntity
  8
Layer_1
 62
7
100
AcDbSpline
 70
8
 71
3
 72
8
 73
4
 74
0
 40
0
 40
0
 40
0
 40
0
 40
1
 40
1
 40
1
 40
1
 10
93.750945
 20
150.093035
 30
0.0
 10
93.030192
 20
151.960897
 30
0.0
 10
93.080713
 20
153.941404
 30
0.0
 10
93.902508
 20
156.034557
 30
0.0
  0
SPLINE
  5
161
100
AcDbEntity
  8
Layer_1
 62
7
100
AcDbSpline
 70
8
 71
3
 72
8
 73
4
 74
0
 40
0
 40
0
 40
0
 40
0
 40
1
 40
1
 40
1
 40
1
 10
93.902508
 20
156.034557
 30
0.0
 10
94.698131
 20
158.061049
 30
0.0
 10
95.989976
 20
159.538812
 30
0.0
 10
97.778045
 20
160.467846
 30
0.0
  0
SPLINE
  5
162
100
AcDbEntity
  8
Layer_1
 62
7
100
AcDbSpline
 70
8
 71
3
 72
8
 73
4
 74
0
 40
0
 40
0
 40
0
 40
0
 40
1
 40
1
 40
1
 40
1
 10
97.778045
 20
160.467846
 30
0.0
 10
99.645615
 20
161.442602
 30
0.0
 10
101.572649
 20
161.540021
 30
0.0
 10
103.559144
 20
160.760101
 30
0.0
  0
SPLINE
  5
163
100
AcDbEntity
  8
Layer_1
 62
7
100
AcDbSpline
 70
8
 71
3
 72
8
 73
4
 74
0
 40
0
 40
0
 40
0
 40
0
 40
1
 40
1
 40
1
 40
1
 10
103.559144
 20
160.760101
 30
0.0
 10
105.718957
 20
159.912135
 30
0.0
 10
107.151734
 20
158.584096
 30
0.0
 10
107.857477
 20
156.775982
 30
0.0
  0
SPLINE
  5
164
100
AcDbEntity
  8
Layer_1
 62
7
100
AcDbSpline
 70
8
 71
3
 72
8
 73
4
 74
0
 40
0
 40
0
 40
0
 40
0
 40
1
 40
1
 40
1
 40
1
 10
107.857477
 20
156.775982
 30
0.0
 10
107.933216
 20
156.576986
 30
0.0
 10
107.948845
 20
156.420825
 30
0.0
 10
107.904363
 20
156.307498
 30
0.0
  0
SPLINE
  5
165
100
AcDbEntity
  8
Layer_1
 62
7
100
AcDbSpline
 70
8
 71
3
 72
8
 73
4
 74
0
 40
0
 40
0
 40
0
 40
0
 40
1
 40
1
 40
1
 40
1
 10
107.904363
 20
156.307498
 30
0.0
 10
107.854643
 20
156.180840
 30
0.0
 10
107.436820
 20
155.802482
 30
0.0
 10
106.650892
 20
155.172423
 30
0.0
  0
SPLINE
  5
166
100
AcDbEntity
  8
Layer_1
 62
7
100
AcDbSpline
 70
8
 71
3
 72
8
 73
4
 74
0
 40
0
 40
0
 40
0
 40
0
 40
1
 40
1
 40
1
 40
1
 10
106.650892
 20
155.172423
 30
0.0
 10
105.871635
 20
154.539746
 30
0.0
 10
105.402382
 20
154.196966
 30
0.0
 10
105.243134
 20
154.144084
 30
0.0
  0
SPLINE
  5
167
100
AcDbEntity
  8
Layer_1
 62
7
100
AcDbSpline
 70
8
 71
3
 72
8
 73
4
 74
0
 40
0
 40
0
 40
0
 40
0
 40
1
 40
1
 40
1
 40
1
 10
105.243134
 20
154.144084
 30
0.0
 10
105.168862
 20
154.111694
 30
0.0
 10
105.091730
 20
154.111203
 30
0.0
 10
105.011738
 20
154.142609
 30
0.0
  0
SPLINE
  5
168
100
AcDbEntity
  8
Layer_1
 62
7
100
AcDbSpline
 70
8
 71
3
 72
8
 73
4
 74
0
 40
0
 40
0
 40
0
 40
0
 40
1
 40
1
 40
1
 40
1
 10
105.011738
 20
154.142609
 30
0.0
 10
104.978402
 20
154.155705
 30
0.0
 10
104.864093
 20
154.354456
 30
0.0
 10
104.668813
 20
154.738863
 30
0.0
  0
SPLINE
  5
169
100
AcDbEntity
  8
Layer_1
 62
7
100
AcDbSpline
 70
8
 71
3
 72
8
 73
4
 74
0
 40
0
 40
0
 40
0
 40
0
 40
1
 40
1
 40
1
 40
1
 10
104.668813
 20
154.738863
 30
0.0
 10
104.434468
 20
155.200163
 30
0.0
 10
104.179310
 20
155.588852
 30
0.0
 10
103.903336
 20
155.904930
 30
0.0
  0
SPLINE
  5
16a
100
AcDbEntity
  8
Layer_1
 62
7
100
AcDbSpline
 70
8
 71
3
 72
8
 73
4
 74
0
 40
0
 40
0
 40
0
 40
0
 40
1
 40
1
 40
1
 40
1
 10
103.903336
 20
155.904930
 30
0.0
 10
103.481402
 20
156.378331
 30
0.0
 10
102.987127
 20
156.726261
 30
0.0
 10
102.420509
 20
156.948722
 30
0.0
  0
SPLINE
  5
16b
100
AcDbEntity
  8
Layer_1
 62
7
100
AcDbSpline
 70
8
 71
3
 72
8
 73
4
 74
0
 40
0
 40
0
 40
0
 40
0
 40
1
 40
1
 40
1
 40
1
 10
102.420509
 20
156.948722
 30
0.0
 10
101.440593
 20
157.333447
 30
0.0
 10
100.513382
 20
157.274330
 30
0.0
 10
99.638876
 20
156.771372
 30
0.0
  0
SPLINE
  5
16c
100
AcDbEntity
  8
Layer_1
 62
7
100
AcDbSpline
 70
8
 71
3
 72
8
 73
4
 74
0
 40
0
 40
0
 40
0
 40
0
 40
1
 40
1
 40
1
 40
1
 10
99.638876
 20
156.771372
 30
0.0
 10
98.831970
 20
156.303423
 30
0.0
 10
98.232229
 20
155.569491
 30
0.0
 10
97.839653
 20
154.569576
 30
0.0
  0
SPLINE
  5
16d
100
AcDbEntity
  8
Layer_1
 62
7
100
AcDbSpline
 70
8
 71
3
 72
8
 73
4
 74
0
 40
0
 40
0
 40
0
 40
0
 40
1
 40
1
 40
1
 40
1
 10
97.839653
 20
154.569576
 30
0.0
 10
97.441844
 20
153.556330
 30
0.0
 10
97.378129
 20
152.600408
 30
0.0
 10
97.648510
 20
151.701809
 30
0.0
  0
SPLINE
  5
16e
100
AcDbEntity
  8
Layer_1
 62
7
100
AcDbSpline
 70
8
 71
3
 72
8
 73
4
 74
0
 40
0
 40
0
 40
0
 40
0
 40
1
 40
1
 40
1
 40
1
 10
97.648510
 20
151.701809
 30
0.0
 10
97.942002
 20
150.724895
 30
0.0
 10
98.578706
 20
150.044075
 30
0.0
 10
99.558622
 20
149.659350
 30
0.0
  0
SPLINE
  5
16f
100
AcDbEntity
  8
Layer_1
 62
7
100
AcDbSpline
 70
8
 71
3
 72
8
 73
4
 74
0
 40
0
 40
0
 40
0
 40
0
 40
1
 40
1
 40
1
 40
1
 10
99.558622
 20
149.659350
 30
0.0
 10
100.138572
 20
149.431655
 30
0.0
 10
100.738251
 20
149.342394
 30
0.0
 10
101.357658
 20
149.391566
 30
0.0
  0
SPLINE
  5
170
100
AcDbEntity
  8
Layer_1
 62
7
100
AcDbSpline
 70
8
 71
3
 72
8
 73
4
 74
0
 40
0
 40
0
 40
0
 40
0
 40
1
 40
1
 40
1
 40
1
 10
101.357658
 20
149.391566
 30
0.0
 10
101.763059
 20
149.424741
 30
0.0
 10
102.201298
 20
149.521961
 30
0.0
 10
102.672374
 20
149.683225
 30
0.0
  0
SPLINE
  5
171
100
AcDbEntity
  8
Layer_1
 62
7
100
AcDbSpline
 70
8
 71
3
 72
8
 73
4
 74
0
 40
0
 40
0
 40
0
 40
0
 40
1
 40
1
 40
1
 40
1
 10
102.672374
 20
149.683225
 30
0.0
 10
103.065135
 20
149.821381
 30
0.0
 10
103.278180
 20
149.883915
 30
0.0
 10
103.311511
 20
149.870830
 30
0.0
  0
SPLINE
  5
172
100
AcDbEntity
  8
Layer_1
 62
7
100
AcDbSpline
 70
8
 71
3
 72
8
 73
4
 74
0
 40
0
 40
0
 40
0
 40
0
 40
1
 40
1
 40
1
 40
1
 10
103.311511
 20
149.870830
 30
0.0
 10
103.378168
 20
149.844658
 30
0.0
 10
103.430431
 20
149.781823
 30
0.0
 10
103.468301
 20
149.682326
 30
0.0
  0
SPLINE
  5
173
100
AcDbEntity
  8
Layer_1
 62
7
100
AcDbSpline
 70
8
 71
3
 72
8
 73
4
 74
0
 40
0
 40
0
 40
0
 40
0
 40
1
 40
1
 40
1
 40
1
 10
103.468301
 20
149.682326
 30
0.0
 10
103.527845
 20
149.520462
 30
0.0
 10
103.654247
 20
148.989984
 30
0.0
 10
103.847506
 20
148.090891
 30
0.0
  0
SPLINE
  5
174
100
AcDbEntity
  8
Layer_1
 62
7
100
AcDbSpline
 70
8
 71
3
 72
8
 73
4
 74
0
 40
0
 40
0
 40
0
 40
0
 40
1
 40
1
 40
1
 40
1
 10
103.847506
 20
148.090891
 30
0.0
 10
104.043624
 20
147.159901
 30
0.0
 10
104.127288
 20
146.657743
 30
0.0
 10
104.098498
 20
146.584416
 30
0.0
  0
LWPOLYLINE
  5
175
100
AcDbEntity
  8
Layer_1
 62
7
100
AcDbPolyline
 90
1
 70
1
 10
102.551539
 20
21.068674
 30
0.0
  0
LWPOLYLINE
  5
176
100
AcDbEntity
  8
Layer_1
 62
7
100
AcDbPolyline
 90
1
 70
1
 10
104.098498
 20
146.584416
 30
0.0
  0
SPLINE
  5
177
100
AcDbEntity
  8
Layer_1
 62
7
100
AcDbSpline
 70
8
 71
3
 72
8
 73
4
 74
0
 40
0
 40
0
 40
0
 40
0
 40
1
 40
1
 40
1
 40
1
 10
113.590418
 20
138.673325
 30
0.0
 10
113.463933
 20
138.456930
 30
0.0
 10
113.306903
 20
138.386963
 30
0.0
 10
113.119329
 20
138.463424
 30
0.0
  0
SPLINE
  5
178
100
AcDbEntity
  8
Layer_1
 62
7
100
AcDbSpline
 70
8
 71
3
 72
8
 73
4
 74
0
 40
0
 40
0
 40
0
 40
0
 40
1
 40
1
 40
1
 40
1
 10
113.119329
 20
138.463424
 30
0.0
 10
112.907027
 20
138.554341
 30
0.0
 10
112.448462
 20
138.805795
 30
0.0
 10
111.743635
 20
139.217787
 30
0.0
  0
SPLINE
  5
179
100
AcDbEntity
  8
Layer_1
 62
7
100
AcDbSpline
 70
8
 71
3
 72
8
 73
4
 74
0
 40
0
 40
0
 40
0
 40
0
 40
1
 40
1
 40
1
 40
1
 10
111.743635
 20
139.217787
 30
0.0
 10
111.063540
 20
139.615323
 30
0.0
 10
110.605021
 20
139.916522
 30
0.0
 10
110.368077
 20
140.121384
 30
0.0
  0
SPLINE
  5
17a
100
AcDbEntity
  8
Layer_1
 62
7
100
AcDbSpline
 70
8
 71
3
 72
8
 73
4
 74
0
 40
0
 40
0
 40
0
 40
0
 40
1
 40
1
 40
1
 40
1
 10
110.368077
 20
140.121384
 30
0.0
 10
110.185732
 20
140.277741
 30
0.0
 10
110.161421
 20
140.470298
 30
0.0
 10
110.295143
 20
140.699057
 30
0.0
  0
SPLINE
  5
17b
100
AcDbEntity
  8
Layer_1
 62
7
100
AcDbSpline
 70
8
 71
3
 72
8
 73
4
 74
0
 40
0
 40
0
 40
0
 40
0
 40
1
 40
1
 40
1
 40
1
 10
110.295143
 20
140.699057
 30
0.0
 10
110.605936
 20
141.230771
 30
0.0
 10
111.083218
 20
142.026008
 30
0.0
 10
111.726991
 20
143.084769
 30
0.0
  0
SPLINE
  5
17c
100
AcDbEntity
  8
Layer_1
 62
7
100
AcDbSpline
 70
8
 71
3
 72
8
 73
4
 74
0
 40
0
 40
0
 40
0
 40
0
 40
1
 40
1
 40
1
 40
1
 10
111.726991
 20
143.084769
 30
0.0
 10
112.370755
 20
144.143533
 30
0.0
 10
112.848038
 20
144.938771
 30
0.0
 10
113.158840
 20
145.470482
 30
0.0
  0
SPLINE
  5
17d
100
AcDbEntity
  8
Layer_1
 62
7
100
AcDbSpline
 70
8
 71
3
 72
8
 73
4
 74
0
 40
0
 40
0
 40
0
 40
0
 40
1
 40
1
 40
1
 40
1
 10
113.158840
 20
145.470482
 30
0.0
 10
113.581673
 20
146.193857
 30
0.0
 10
113.425220
 20
146.770575
 30
0.0
 10
112.689480
 20
147.200637
 30
0.0
  0
SPLINE
  5
17e
100
AcDbEntity
  8
Layer_1
 62
7
100
AcDbSpline
 70
8
 71
3
 72
8
 73
4
 74
0
 40
0
 40
0
 40
0
 40
0
 40
1
 40
1
 40
1
 40
1
 10
112.689480
 20
147.200637
 30
0.0
 10
112.442172
 20
147.345196
 30
0.0
 10
112.093762
 20
147.416129
 30
0.0
 10
111.644250
 20
147.413438
 30
0.0
  0
SPLINE
  5
17f
100
AcDbEntity
  8
Layer_1
 62
7
100
AcDbSpline
 70
8
 71
3
 72
8
 73
4
 74
0
 40
0
 40
0
 40
0
 40
0
 40
1
 40
1
 40
1
 40
1
 10
111.644250
 20
147.413438
 30
0.0
 10
111.152983
 20
147.410267
 30
0.0
 10
110.838683
 20
147.291211
 30
0.0
 10
110.701351
 20
147.056269
 30
0.0
  0
LWPOLYLINE
  5
180
100
AcDbEntity
  8
Layer_1
 62
7
100
AcDbPolyline
 90
2
 70
0
 10
117.349423
 20
145.061568
 30
0.0
 10
113.590418
 20
138.673325
 30
0.0
  0
SPLINE
  5
181
100
AcDbEntity
  8
Layer_1
 62
7
100
AcDbSpline
 70
8
 71
3
 72
8
 73
4
 74
0
 40
0
 40
0
 40
0
 40
0
 40
1
 40
1
 40
1
 40
1
 10
109.362378
 20
144.765582
 30
0.0
 10
109.188914
 20
144.468812
 30
0.0
 10
108.933083
 20
144.016953
 30
0.0
 10
108.594887
 20
143.410006
 30
0.0
  0
SPLINE
  5
182
100
AcDbEntity
  8
Layer_1
 62
7
100
AcDbSpline
 70
8
 71
3
 72
8
 73
4
 74
0
 40
0
 40
0
 40
0
 40
0
 40
1
 40
1
 40
1
 40
1
 10
108.594887
 20
143.410006
 30
0.0
 10
108.260322
 20
142.809237
 30
0.0
 10
108.006299
 20
142.360469
 30
0.0
 10
107.832818
 20
142.063702
 30
0.0
  0
SPLINE
  5
183
100
AcDbEntity
  8
Layer_1
 62
7
100
AcDbSpline
 70
8
 71
3
 72
8
 73
4
 74
0
 40
0
 40
0
 40
0
 40
0
 40
1
 40
1
 40
1
 40
1
 10
107.832818
 20
142.063702
 30
0.0
 10
107.699098
 20
141.834944
 30
0.0
 10
107.529181
 20
141.764215
 30
0.0
 10
107.323066
 20
141.851516
 30
0.0
  0
SPLINE
  5
184
100
AcDbEntity
  8
Layer_1
 62
7
100
AcDbSpline
 70
8
 71
3
 72
8
 73
4
 74
0
 40
0
 40
0
 40
0
 40
0
 40
1
 40
1
 40
1
 40
1
 10
107.323066
 20
141.851516
 30
0.0
 10
107.116946
 20
141.938819
 30
0.0
 10
106.571823
 20
142.240869
 30
0.0
 10
105.687698
 20
142.757665
 30
0.0
  0
SPLINE
  5
185
100
AcDbEntity
  8
Layer_1
 62
7
100
AcDbSpline
 70
8
 71
3
 72
8
 73
4
 74
0
 40
0
 40
0
 40
0
 40
0
 40
1
 40
1
 40
1
 40
1
 10
105.687698
 20
142.757665
 30
0.0
 10
105.180719
 20
143.054011
 30
0.0
 10
104.830397
 20
143.291965
 30
0.0
 10
104.636731
 20
143.471530
 30
0.0
  0
SPLINE
  5
186
100
AcDbEntity
  8
Layer_1
 62
7
100
AcDbSpline
 70
8
 71
3
 72
8
 73
4
 74
0
 40
0
 40
0
 40
0
 40
0
 40
1
 40
1
 40
1
 40
1
 10
104.636731
 20
143.471530
 30
0.0
 10
104.443066
 20
143.651093
 30
0.0
 10
104.395021
 20
143.824342
 30
0.0
 10
104.492598
 20
143.991275
 30
0.0
  0
SPLINE
  5
187
100
AcDbEntity
  8
Layer_1
 62
7
100
AcDbSpline
 70
8
 71
3
 72
8
 73
4
 74
0
 40
0
 40
0
 40
0
 40
0
 40
1
 40
1
 40
1
 40
1
 10
104.492598
 20
143.991275
 30
0.0
 10
104.778097
 20
144.479709
 30
0.0
 10
105.209444
 20
145.210551
 30
0.0
 10
105.786637
 20
146.183801
 30
0.0
  0
SPLINE
  5
188
100
AcDbEntity
  8
Layer_1
 62
7
100
AcDbSpline
 70
8
 71
3
 72
8
 73
4
 74
0
 40
0
 40
0
 40
0
 40
0
 40
1
 40
1
 40
1
 40
1
 10
105.786637
 20
146.183801
 30
0.0
 10
106.367441
 20
147.163235
 30
0.0
 10
106.800594
 20
147.897168
 30
0.0
 10
107.086097
 20
148.385601
 30
0.0
  0
SPLINE
  5
189
100
AcDbEntity
  8
Layer_1
 62
7
100
AcDbSpline
 70
8
 71
3
 72
8
 73
4
 74
0
 40
0
 40
0
 40
0
 40
0
 40
1
 40
1
 40
1
 40
1
 10
107.086097
 20
148.385601
 30
0.0
 10
108.267864
 20
150.407340
 30
0.0
 10
109.223803
 20
152.092407
 30
0.0
 10
109.953915
 20
153.440800
 30
0.0
  0
SPLINE
  5
18a
100
AcDbEntity
  8
Layer_1
 62
7
100
AcDbSpline
 70
8
 71
3
 72
8
 73
4
 74
0
 40
0
 40
0
 40
0
 40
0
 40
1
 40
1
 40
1
 40
1
 10
109.953915
 20
153.440800
 30
0.0
 10
110.206417
 20
153.915343
 30
0.0
 10
110.462008
 20
154.388079
 30
0.0
 10
110.720686
 20
154.859010
 30
0.0
  0
SPLINE
  5
18b
100
AcDbEntity
  8
Layer_1
 62
7
100
AcDbSpline
 70
8
 71
3
 72
8
 73
4
 74
0
 40
0
 40
0
 40
0
 40
0
 40
1
 40
1
 40
1
 40
1
 10
110.720686
 20
154.859010
 30
0.0
 10
111.004195
 20
155.414972
 30
0.0
 10
111.217791
 20
155.908108
 30
0.0
 10
111.361475
 20
156.338418
 30
0.0
  0
SPLINE
  5
18c
100
AcDbEntity
  8
Layer_1
 62
7
100
AcDbSpline
 70
8
 71
3
 72
8
 73
4
 74
0
 40
0
 40
0
 40
0
 40
0
 40
1
 40
1
 40
1
 40
1
 10
111.361475
 20
156.338418
 30
0.0
 10
111.389963
 20
156.429622
 30
0.0
 10
111.415031
 20
156.493777
 30
0.0
 10
111.436680
 20
156.530882
 30
0.0
  0
SPLINE
  5
18d
100
AcDbEntity
  8
Layer_1
 62
7
100
AcDbSpline
 70
8
 71
3
 72
8
 73
4
 74
0
 40
0
 40
0
 40
0
 40
0
 40
1
 40
1
 40
1
 40
1
 10
111.436680
 20
156.530882
 30
0.0
 10
111.490893
 20
156.623622
 30
0.0
 10
111.573404
 20
156.658343
 30
0.0
 10
111.684213
 20
156.635046
 30
0.0
  0
SPLINE
  5
18e
100
AcDbEntity
  8
Layer_1
 62
7
100
AcDbSpline
 70
8
 71
3
 72
8
 73
4
 74
0
 40
0
 40
0
 40
0
 40
0
 40
1
 40
1
 40
1
 40
1
 10
111.684213
 20
156.635046
 30
0.0
 10
111.908403
 20
156.578657
 30
0.0
 10
112.209592
 20
156.448227
 30
0.0
 10
112.587781
 20
156.243754
 30
0.0
  0
SPLINE
  5
18f
100
AcDbEntity
  8
Layer_1
 62
7
100
AcDbSpline
 70
8
 71
3
 72
8
 73
4
 74
0
 40
0
 40
0
 40
0
 40
0
 40
1
 40
1
 40
1
 40
1
 10
112.587781
 20
156.243754
 30
0.0
 10
113.093239
 20
155.973184
 30
0.0
 10
113.389769
 20
155.820592
 30
0.0
 10
113.477371
 20
155.785977
 30
0.0
  0
SPLINE
  5
190
100
AcDbEntity
  8
Layer_1
 62
7
100
AcDbSpline
 70
8
 71
3
 72
8
 73
4
 74
0
 40
0
 40
0
 40
0
 40
0
 40
1
 40
1
 40
1
 40
1
 10
113.477371
 20
155.785977
 30
0.0
 10
114.672332
 20
155.261686
 30
0.0
 10
115.269812
 20
154.999540
 30
0.0
 10
115.269812
 20
154.999540
 30
0.0
  0
SPLINE
  5
191
100
AcDbEntity
  8
Layer_1
 62
7
100
AcDbSpline
 70
8
 71
3
 72
8
 73
4
 74
0
 40
0
 40
0
 40
0
 40
0
 40
1
 40
1
 40
1
 40
1
 10
115.269812
 20
154.999540
 30
0.0
 10
115.368726
 20
154.941719
 30
0.0
 10
115.380243
 20
154.847888
 30
0.0
 10
115.304362
 20
154.718048
 30
0.0
  0
SPLINE
  5
192
100
AcDbEntity
  8
Layer_1
 62
7
100
AcDbSpline
 70
8
 71
3
 72
8
 73
4
 74
0
 40
0
 40
0
 40
0
 40
0
 40
1
 40
1
 40
1
 40
1
 10
115.304362
 20
154.718048
 30
0.0
 10
115.188719
 20
154.520201
 30
0.0
 10
115.019146
 20
154.258482
 30
0.0
 10
114.795643
 20
153.932891
 30
0.0
  0
SPLINE
  5
193
100
AcDbEntity
  8
Layer_1
 62
7
100
AcDbSpline
 70
8
 71
3
 72
8
 73
4
 74
0
 40
0
 40
0
 40
0
 40
0
 40
1
 40
1
 40
1
 40
1
 10
114.795643
 20
153.932891
 30
0.0
 10
114.539611
 20
153.551656
 30
0.0
 10
114.370038
 20
153.289937
 30
0.0
 10
114.286924
 20
153.147733
 30
0.0
  0
SPLINE
  5
194
100
AcDbEntity
  8
Layer_1
 62
7
100
AcDbSpline
 70
8
 71
3
 72
8
 73
4
 74
0
 40
0
 40
0
 40
0
 40
0
 40
1
 40
1
 40
1
 40
1
 10
114.286924
 20
153.147733
 30
0.0
 10
113.433071
 20
151.772129
 30
0.0
 10
112.769429
 20
150.679361
 30
0.0
 10
112.296000
 20
149.869428
 30
0.0
  0
SPLINE
  5
195
100
AcDbEntity
  8
Layer_1
 62
7
100
AcDbSpline
 70
8
 71
3
 72
8
 73
4
 74
0
 40
0
 40
0
 40
0
 40
0
 40
1
 40
1
 40
1
 40
1
 10
112.296000
 20
149.869428
 30
0.0
 10
112.223728
 20
149.745773
 30
0.0
 10
112.218503
 20
149.665877
 30
0.0
 10
112.280324
 20
149.629738
 30
0.0
  0
SPLINE
  5
196
100
AcDbEntity
  8
Layer_1
 62
7
100
AcDbSpline
 70
8
 71
3
 72
8
 73
4
 74
0
 40
0
 40
0
 40
0
 40
0
 40
1
 40
1
 40
1
 40
1
 10
112.280324
 20
149.629738
 30
0.0
 10
112.292723
 20
149.622495
 30
0.0
 10
112.513626
 20
149.638535
 30
0.0
 10
112.943033
 20
149.677860
 30
0.0
  0
SPLINE
  5
197
100
AcDbEntity
  8
Layer_1
 62
7
100
AcDbSpline
 70
8
 71
3
 72
8
 73
4
 74
0
 40
0
 40
0
 40
0
 40
0
 40
1
 40
1
 40
1
 40
1
 10
112.943033
 20
149.677860
 30
0.0
 10
113.449802
 20
149.721741
 30
0.0
 10
113.910396
 20
149.722103
 30
0.0
 10
114.324815
 20
149.678947
 30
0.0
  0
SPLINE
  5
198
100
AcDbEntity
  8
Layer_1
 62
7
100
AcDbSpline
 70
8
 71
3
 72
8
 73
4
 74
0
 40
0
 40
0
 40
0
 40
0
 40
1
 40
1
 40
1
 40
1
 10
114.324815
 20
149.678947
 30
0.0
 10
114.939735
 20
149.609838
 30
0.0
 10
115.475955
 20
149.441567
 30
0.0
 10
115.933473
 20
149.174132
 30
0.0
  0
SPLINE
  5
199
100
AcDbEntity
  8
Layer_1
 62
7
100
AcDbSpline
 70
8
 71
3
 72
8
 73
4
 74
0
 40
0
 40
0
 40
0
 40
0
 40
1
 40
1
 40
1
 40
1
 10
115.933473
 20
149.174132
 30
0.0
 10
116.724859
 20
148.711544
 30
0.0
 10
117.265339
 20
148.117729
 30
0.0
 10
117.554915
 20
147.392688
 30
0.0
  0
SPLINE
  5
19a
100
AcDbEntity
  8
Layer_1
 62
7
100
AcDbSpline
 70
8
 71
3
 72
8
 73
4
 74
0
 40
0
 40
0
 40
0
 40
0
 40
1
 40
1
 40
1
 40
1
 10
117.554915
 20
147.392688
 30
0.0
 10
117.869699
 20
146.611435
 30
0.0
 10
117.801218
 20
145.834391
 30
0.0
 10
117.349472
 20
145.061554
 30
0.0
  0
LWPOLYLINE
  5
19b
100
AcDbEntity
  8
Layer_1
 62
7
100
AcDbPolyline
 90
2
 70
0
 10
110.701351
 20
147.056269
 30
0.0
 10
109.362378
 20
144.765582
 30
0.0
  0
SPLINE
  5
19c
100
AcDbEntity
  8
Layer_1
 62
7
100
AcDbSpline
 70
8
 71
3
 72
8
 73
4
 74
0
 40
0
 40
0
 40
0
 40
0
 40
1
 40
1
 40
1
 40
1
 10
124.522097
 20
138.245141
 30
0.0
 10
124.352474
 20
138.023251
 30
0.0
 10
124.145339
 20
138.005813
 30
0.0
 10
123.900692
 20
138.192828
 30
0.0
  0
SPLINE
  5
19d
100
AcDbEntity
  8
Layer_1
 62
7
100
AcDbSpline
 70
8
 71
3
 72
8
 73
4
 74
0
 40
0
 40
0
 40
0
 40
0
 40
1
 40
1
 40
1
 40
1
 10
123.900692
 20
138.192828
 30
0.0
 10
123.792588
 20
138.275464
 30
0.0
 10
123.637631
 20
138.402932
 30
0.0
 10
123.435820
 20
138.575232
 30
0.0
  0
SPLINE
  5
19e
100
AcDbEntity
  8
Layer_1
 62
7
100
AcDbSpline
 70
8
 71
3
 72
8
 73
4
 74
0
 40
0
 40
0
 40
0
 40
0
 40
1
 40
1
 40
1
 40
1
 10
123.435820
 20
138.575232
 30
0.0
 10
123.244044
 20
138.748873
 30
0.0
 10
123.096951
 20
138.874836
 30
0.0
 10
122.994541
 20
138.953122
 30
0.0
  0
SPLINE
  5
19f
100
AcDbEntity
  8
Layer_1
 62
7
100
AcDbSpline
 70
8
 71
3
 72
8
 73
4
 74
0
 40
0
 40
0
 40
0
 40
0
 40
1
 40
1
 40
1
 40
1
 10
122.994541
 20
138.953122
 30
0.0
 10
122.522309
 20
139.314108
 30
0.0
 10
122.144311
 20
139.485875
 30
0.0
 10
121.860547
 20
139.468425
 30
0.0
  0
SPLINE
  5
1a0
100
AcDbEntity
  8
Layer_1
 62
7
100
AcDbSpline
 70
8
 71
3
 72
8
 73
4
 74
0
 40
0
 40
0
 40
0
 40
0
 40
1
 40
1
 40
1
 40
1
 10
121.860547
 20
139.468425
 30
0.0
 10
121.576781
 20
139.450974
 30
0.0
 10
121.263103
 20
139.217512
 30
0.0
 10
120.919515
 20
138.768040
 30
0.0
  0
SPLINE
  5
1a1
100
AcDbEntity
  8
Layer_1
 62
7
100
AcDbSpline
 70
8
 71
3
 72
8
 73
4
 74
0
 40
0
 40
0
 40
0
 40
0
 40
1
 40
1
 40
1
 40
1
 10
120.919515
 20
138.768040
 30
0.0
 10
120.732490
 20
138.523392
 30
0.0
 10
120.450461
 20
138.148554
 30
0.0
 10
120.073427
 20
137.643525
 30
0.0
  0
SPLINE
  5
1a2
100
AcDbEntity
  8
Layer_1
 62
7
100
AcDbSpline
 70
8
 71
3
 72
8
 73
4
 74
0
 40
0
 40
0
 40
0
 40
0
 40
1
 40
1
 40
1
 40
1
 10
120.073427
 20
137.643525
 30
0.0
 10
119.706424
 20
137.139837
 30
0.0
 10
119.429415
 20
136.765669
 30
0.0
 10
119.242397
 20
136.521020
 30
0.0
  0
SPLINE
  5
1a3
100
AcDbEntity
  8
Layer_1
 62
7
100
AcDbSpline
 70
8
 71
3
 72
8
 73
4
 74
0
 40
0
 40
0
 40
0
 40
0
 40
1
 40
1
 40
1
 40
1
 10
119.242397
 20
136.521020
 30
0.0
 10
119.116261
 20
136.356026
 30
0.0
 10
118.938449
 20
136.099833
 30
0.0
 10
118.708962
 20
135.752441
 30
0.0
  0
SPLINE
  5
1a4
100
AcDbEntity
  8
Layer_1
 62
7
100
AcDbSpline
 70
8
 71
3
 72
8
 73
4
 74
0
 40
0
 40
0
 40
0
 40
0
 40
1
 40
1
 40
1
 40
1
 10
118.708962
 20
135.752441
 30
0.0
 10
118.483807
 20
135.410743
 30
0.0
 10
118.310344
 20
135.160240
 30
0.0
 10
118.188573
 20
135.000932
 30
0.0
  0
SPLINE
  5
1a5
100
AcDbEntity
  8
Layer_1
 62
7
100
AcDbSpline
 70
8
 71
3
 72
8
 73
4
 74
0
 40
0
 40
0
 40
0
 40
0
 40
1
 40
1
 40
1
 40
1
 10
118.188573
 20
135.000932
 30
0.0
 10
118.084198
 20
134.864382
 30
0.0
 10
117.931606
 20
134.859336
 30
0.0
 10
117.730797
 20
134.985793
 30
0.0
  0
SPLINE
  5
1a6
100
AcDbEntity
  8
Layer_1
 62
7
100
AcDbSpline
 70
8
 71
3
 72
8
 73
4
 74
0
 40
0
 40
0
 40
0
 40
0
 40
1
 40
1
 40
1
 40
1
 10
117.730797
 20
134.985793
 30
0.0
 10
117.440303
 20
135.171798
 30
0.0
 10
117.013425
 20
135.480086
 30
0.0
 10
116.450162
 20
135.910659
 30
0.0
  0
SPLINE
  5
1a7
100
AcDbEntity
  8
Layer_1
 62
7
100
AcDbSpline
 70
8
 71
3
 72
8
 73
4
 74
0
 40
0
 40
0
 40
0
 40
0
 40
1
 40
1
 40
1
 40
1
 10
116.450162
 20
135.910659
 30
0.0
 10
115.909657
 20
136.323835
 30
0.0
 10
115.490301
 20
136.671445
 30
0.0
 10
115.192094
 20
136.953488
 30
0.0
  0
SPLINE
  5
1a8
100
AcDbEntity
  8
Layer_1
 62
7
100
AcDbSpline
 70
8
 71
3
 72
8
 73
4
 74
0
 40
0
 40
0
 40
0
 40
0
 40
1
 40
1
 40
1
 40
1
 10
115.192094
 20
136.953488
 30
0.0
 10
115.021736
 20
137.119771
 30
0.0
 10
114.999622
 20
137.285410
 30
0.0
 10
115.125753
 20
137.450405
 30
0.0
  0
SPLINE
  5
1a9
100
AcDbEntity
  8
Layer_1
 62
7
100
AcDbSpline
 70
8
 71
3
 72
8
 73
4
 74
0
 40
0
 40
0
 40
0
 40
0
 40
1
 40
1
 40
1
 40
1
 10
115.125753
 20
137.450405
 30
0.0
 10
115.473688
 20
137.905566
 30
0.0
 10
115.996263
 20
138.583289
 30
0.0
 10
116.693479
 20
139.483574
 30
0.0
  0
SPLINE
  5
1aa
100
AcDbEntity
  8
Layer_1
 62
7
100
AcDbSpline
 70
8
 71
3
 72
8
 73
4
 74
0
 40
0
 40
0
 40
0
 40
0
 40
1
 40
1
 40
1
 40
1
 10
116.693479
 20
139.483574
 30
0.0
 10
117.395044
 20
140.389549
 30
0.0
 10
117.919795
 20
141.070118
 30
0.0
 10
118.267732
 20
141.525280
 30
0.0
  0
SPLINE
  5
1ab
100
AcDbEntity
  8
Layer_1
 62
7
100
AcDbSpline
 70
8
 71
3
 72
8
 73
4
 74
0
 40
0
 40
0
 40
0
 40
0
 40
1
 40
1
 40
1
 40
1
 10
118.267732
 20
141.525280
 30
0.0
 10
119.289800
 20
142.862318
 30
0.0
 10
120.009050
 20
144.056749
 30
0.0
 10
120.425483
 20
145.108573
 30
0.0
  0
SPLINE
  5
1ac
100
AcDbEntity
  8
Layer_1
 62
7
100
AcDbSpline
 70
8
 71
3
 72
8
 73
4
 74
0
 40
0
 40
0
 40
0
 40
0
 40
1
 40
1
 40
1
 40
1
 10
120.425483
 20
145.108573
 30
0.0
 10
120.453277
 20
145.168469
 30
0.0
 10
120.480207
 20
145.215490
 30
0.0
 10
120.506273
 20
145.249634
 30
0.0
  0
SPLINE
  5
1ad
100
AcDbEntity
  8
Layer_1
 62
7
100
AcDbSpline
 70
8
 71
3
 72
8
 73
4
 74
0
 40
0
 40
0
 40
0
 40
0
 40
1
 40
1
 40
1
 40
1
 10
120.506273
 20
145.249634
 30
0.0
 10
120.571503
 20
145.334979
 30
0.0
 10
120.657662
 20
145.359257
 30
0.0
 10
120.764752
 20
145.322466
 30
0.0
  0
SPLINE
  5
1ae
100
AcDbEntity
  8
Layer_1
 62
7
100
AcDbSpline
 70
8
 71
3
 72
8
 73
4
 74
0
 40
0
 40
0
 40
0
 40
0
 40
1
 40
1
 40
1
 40
1
 10
120.764752
 20
145.322466
 30
0.0
 10
121.103771
 20
145.117395
 30
0.0
 10
121.609618
 20
144.829868
 30
0.0
 10
122.282294
 20
144.459883
 30
0.0
  0
SPLINE
  5
1af
100
AcDbEntity
  8
Layer_1
 62
7
100
AcDbSpline
 70
8
 71
3
 72
8
 73
4
 74
0
 40
0
 40
0
 40
0
 40
0
 40
1
 40
1
 40
1
 40
1
 10
122.282294
 20
144.459883
 30
0.0
 10
123.316065
 20
143.949082
 30
0.0
 10
123.847174
 20
143.682807
 30
0.0
 10
123.875623
 20
143.661061
 30
0.0
  0
SPLINE
  5
1b0
100
AcDbEntity
  8
Layer_1
 62
7
100
AcDbSpline
 70
8
 71
3
 72
8
 73
4
 74
0
 40
0
 40
0
 40
0
 40
0
 40
1
 40
1
 40
1
 40
1
 10
123.875623
 20
143.661061
 30
0.0
 10
123.978042
 20
143.582773
 30
0.0
 10
123.906474
 20
143.353536
 30
0.0
 10
123.660919
 20
142.973351
 30
0.0
  0
SPLINE
  5
1b1
100
AcDbEntity
  8
Layer_1
 62
7
100
AcDbSpline
 70
8
 71
3
 72
8
 73
4
 74
0
 40
0
 40
0
 40
0
 40
0
 40
1
 40
1
 40
1
 40
1
 10
123.660919
 20
142.973351
 30
0.0
 10
123.415364
 20
142.593165
 30
0.0
 10
123.329566
 20
142.374803
 30
0.0
 10
123.403524
 20
142.318264
 30
0.0
  0
SPLINE
  5
1b2
100
AcDbEntity
  8
Layer_1
 62
7
100
AcDbSpline
 70
8
 71
3
 72
8
 73
4
 74
0
 40
0
 40
0
 40
0
 40
0
 40
1
 40
1
 40
1
 40
1
 10
123.403524
 20
142.318264
 30
0.0
 10
123.323881
 20
142.379151
 30
0.0
 10
123.670232
 20
142.348760
 30
0.0
 10
124.442577
 20
142.227092
 30
0.0
  0
SPLINE
  5
1b3
100
AcDbEntity
  8
Layer_1
 62
7
100
AcDbSpline
 70
8
 71
3
 72
8
 73
4
 74
0
 40
0
 40
0
 40
0
 40
0
 40
1
 40
1
 40
1
 40
1
 10
124.442577
 20
142.227092
 30
0.0
 10
125.219280
 20
142.111112
 30
0.0
 10
125.860815
 20
141.859581
 30
0.0
 10
126.367182
 20
141.472501
 30
0.0
  0
SPLINE
  5
1b4
100
AcDbEntity
  8
Layer_1
 62
7
100
AcDbSpline
 70
8
 71
3
 72
8
 73
4
 74
0
 40
0
 40
0
 40
0
 40
0
 40
1
 40
1
 40
1
 40
1
 10
126.367182
 20
141.472501
 30
0.0
 10
126.685796
 20
141.228944
 30
0.0
 10
126.792912
 20
141.038892
 30
0.0
 10
126.688530
 20
140.902343
 30
0.0
  0
SPLINE
  5
1b5
100
AcDbEntity
  8
Layer_1
 62
7
100
AcDbSpline
 70
8
 71
3
 72
8
 73
4
 74
0
 40
0
 40
0
 40
0
 40
0
 40
1
 40
1
 40
1
 40
1
 10
126.688530
 20
140.902343
 30
0.0
 10
126.562394
 20
140.737349
 30
0.0
 10
126.367007
 20
140.517126
 30
0.0
 10
126.102371
 20
140.241675
 30
0.0
  0
SPLINE
  5
1b6
100
AcDbEntity
  8
Layer_1
 62
7
100
AcDbSpline
 70
8
 71
3
 72
8
 73
4
 74
0
 40
0
 40
0
 40
0
 40
0
 40
1
 40
1
 40
1
 40
1
 10
126.102371
 20
140.241675
 30
0.0
 10
125.820328
 20
139.943467
 30
0.0
 10
125.622097
 20
139.725419
 30
0.0
 10
125.507676
 20
139.587530
 30
0.0
  0
SPLINE
  5
1b7
100
AcDbEntity
  8
Layer_1
 62
7
100
AcDbSpline
 70
8
 71
3
 72
8
 73
4
 74
0
 40
0
 40
0
 40
0
 40
0
 40
1
 40
1
 40
1
 40
1
 10
125.507676
 20
139.587530
 30
0.0
 10
125.381540
 20
139.422536
 30
0.0
 10
125.216939
 20
139.201315
 30
0.0
 10
125.013874
 20
138.923866
 30
0.0
  0
SPLINE
  5
1b8
100
AcDbEntity
  8
Layer_1
 62
7
100
AcDbSpline
 70
8
 71
3
 72
8
 73
4
 74
0
 40
0
 40
0
 40
0
 40
0
 40
1
 40
1
 40
1
 40
1
 10
125.013874
 20
138.923866
 30
0.0
 10
124.768649
 20
138.579486
 30
0.0
 10
124.604719
 20
138.353245
 30
0.0
 10
124.522086
 20
138.245144
 30
0.0
  0
LWPOLYLINE
  5
1b9
100
AcDbEntity
  8
Layer_1
 62
7
100
AcDbPolyline
 90
1
 70
1
 10
117.349472
 20
145.061554
 30
0.0
  0
SPLINE
  5
1ba
100
AcDbEntity
  8
Layer_1
 62
7
100
AcDbSpline
 70
8
 71
3
 72
8
 73
4
 74
0
 40
0
 40
0
 40
0
 40
0
 40
1
 40
1
 40
1
 40
1
 10
133.213109
 20
138.753227
 30
0.0
 10
132.374626
 20
137.831439
 30
0.0
 10
131.436216
 20
137.842794
 30
0.0
 10
130.397879
 20
138.787292
 30
0.0
  0
SPLINE
  5
1bb
100
AcDbEntity
  8
Layer_1
 62
7
100
AcDbSpline
 70
8
 71
3
 72
8
 73
4
 74
0
 40
0
 40
0
 40
0
 40
0
 40
1
 40
1
 40
1
 40
1
 10
130.397879
 20
138.787292
 30
0.0
 10
129.952879
 20
139.192077
 30
0.0
 10
129.690708
 20
139.643536
 30
0.0
 10
129.611369
 20
140.141670
 30
0.0
  0
SPLINE
  5
1bc
100
AcDbEntity
  8
Layer_1
 62
7
100
AcDbSpline
 70
8
 71
3
 72
8
 73
4
 74
0
 40
0
 40
0
 40
0
 40
0
 40
1
 40
1
 40
1
 40
1
 10
129.611369
 20
140.141670
 30
0.0
 10
129.524817
 20
140.685088
 30
0.0
 10
129.679118
 20
141.173999
 30
0.0
 10
130.074271
 20
141.608404
 30
0.0
  0
SPLINE
  5
1bd
100
AcDbEntity
  8
Layer_1
 62
7
100
AcDbSpline
 70
8
 71
3
 72
8
 73
4
 74
0
 40
0
 40
0
 40
0
 40
0
 40
1
 40
1
 40
1
 40
1
 10
130.074271
 20
141.608404
 30
0.0
 10
130.450141
 20
142.021620
 30
0.0
 10
130.922775
 20
142.211283
 30
0.0
 10
131.492173
 20
142.177395
 30
0.0
  0
SPLINE
  5
1be
100
AcDbEntity
  8
Layer_1
 62
7
100
AcDbSpline
 70
8
 71
3
 72
8
 73
4
 74
0
 40
0
 40
0
 40
0
 40
0
 40
1
 40
1
 40
1
 40
1
 10
131.492173
 20
142.177395
 30
0.0
 10
132.015805
 20
142.146411
 30
0.0
 10
132.489526
 20
141.938164
 30
0.0
 10
132.913337
 20
141.552655
 30
0.0
  0
SPLINE
  5
1bf
100
AcDbEntity
  8
Layer_1
 62
7
100
AcDbSpline
 70
8
 71
3
 72
8
 73
4
 74
0
 40
0
 40
0
 40
0
 40
0
 40
1
 40
1
 40
1
 40
1
 10
132.913337
 20
141.552655
 30
0.0
 10
133.326553
 20
141.176782
 30
0.0
 10
133.570900
 20
140.727014
 30
0.0
 10
133.646378
 20
140.203350
 30
0.0
  0
SPLINE
  5
1c0
100
AcDbEntity
  8
Layer_1
 62
7
100
AcDbSpline
 70
8
 71
3
 72
8
 73
4
 74
0
 40
0
 40
0
 40
0
 40
0
 40
1
 40
1
 40
1
 40
1
 10
133.646378
 20
140.203350
 30
0.0
 10
133.728591
 20
139.644517
 30
0.0
 10
133.584167
 20
139.161143
 30
0.0
 10
133.213106
 20
138.753227
 30
0.0
  0
LWPOLYLINE
  5
1c1
100
AcDbEntity
  8
Layer_1
 62
7
100
AcDbPolyline
 90
1
 70
1
 10
124.522086
 20
138.245144
 30
0.0
  0
SPLINE
  5
1c2
100
AcDbEntity
  8
Layer_1
 62
7
100
AcDbSpline
 70
8
 71
3
 72
8
 73
4
 74
0
 40
0
 40
0
 40
0
 40
0
 40
1
 40
1
 40
1
 40
1
 10
127.635871
 20
133.036950
 30
0.0
 10
127.284095
 20
132.650223
 30
0.0
 10
126.766785
 20
132.065552
 30
0.0
 10
126.083941
 20
131.282939
 30
0.0
  0
SPLINE
  5
1c3
100
AcDbEntity
  8
Layer_1
 62
7
100
AcDbSpline
 70
8
 71
3
 72
8
 73
4
 74
0
 40
0
 40
0
 40
0
 40
0
 40
1
 40
1
 40
1
 40
1
 10
126.083941
 20
131.282939
 30
0.0
 10
125.405918
 20
130.505623
 30
0.0
 10
124.893427
 20
129.926250
 30
0.0
 10
124.546467
 20
129.544821
 30
0.0
  0
SPLINE
  5
1c4
100
AcDbEntity
  8
Layer_1
 62
7
100
AcDbSpline
 70
8
 71
3
 72
8
 73
4
 74
0
 40
0
 40
0
 40
0
 40
0
 40
1
 40
1
 40
1
 40
1
 10
124.546467
 20
129.544821
 30
0.0
 10
124.445265
 20
129.433572
 30
0.0
 10
124.318809
 20
129.427587
 30
0.0
 10
124.167099
 20
129.526867
 30
0.0
  0
SPLINE
  5
1c5
100
AcDbEntity
  8
Layer_1
 62
7
100
AcDbSpline
 70
8
 71
3
 72
8
 73
4
 74
0
 40
0
 40
0
 40
0
 40
0
 40
1
 40
1
 40
1
 40
1
 10
124.167099
 20
129.526867
 30
0.0
 10
123.958067
 20
129.658923
 30
0.0
 10
123.538342
 20
130.011674
 30
0.0
 10
122.907923
 20
130.585119
 30
0.0
  0
SPLINE
  5
1c6
100
AcDbEntity
  8
Layer_1
 62
7
100
AcDbSpline
 70
8
 71
3
 72
8
 73
4
 74
0
 40
0
 40
0
 40
0
 40
0
 40
1
 40
1
 40
1
 40
1
 10
122.907923
 20
130.585119
 30
0.0
 10
122.272207
 20
131.163383
 30
0.0
 10
121.878745
 20
131.550329
 30
0.0
 10
121.727539
 20
131.745956
 30
0.0
  0
SPLINE
  5
1c7
100
AcDbEntity
  8
Layer_1
 62
7
100
AcDbSpline
 70
8
 71
3
 72
8
 73
4
 74
0
 40
0
 40
0
 40
0
 40
0
 40
1
 40
1
 40
1
 40
1
 10
121.727539
 20
131.745956
 30
0.0
 10
121.630261
 20
131.873163
 30
0.0
 10
121.590069
 20
131.972650
 30
0.0
 10
121.606964
 20
132.044420
 30
0.0
  0
SPLINE
  5
1c8
100
AcDbEntity
  8
Layer_1
 62
7
100
AcDbSpline
 70
8
 71
3
 72
8
 73
4
 74
0
 40
0
 40
0
 40
0
 40
0
 40
1
 40
1
 40
1
 40
1
 10
121.606964
 20
132.044420
 30
0.0
 10
121.615643
 20
132.075248
 30
0.0
 10
121.682631
 20
132.159530
 30
0.0
 10
121.807929
 20
132.297268
 30
0.0
  0
SPLINE
  5
1c9
100
AcDbEntity
  8
Layer_1
 62
7
100
AcDbSpline
 70
8
 71
3
 72
8
 73
4
 74
0
 40
0
 40
0
 40
0
 40
0
 40
1
 40
1
 40
1
 40
1
 10
121.807929
 20
132.297268
 30
0.0
 10
122.140418
 20
132.662809
 30
0.0
 10
122.647110
 20
133.203888
 30
0.0
 10
123.328006
 20
133.920505
 30
0.0
  0
SPLINE
  5
1ca
100
AcDbEntity
  8
Layer_1
 62
7
100
AcDbSpline
 70
8
 71
3
 72
8
 73
4
 74
0
 40
0
 40
0
 40
0
 40
0
 40
1
 40
1
 40
1
 40
1
 10
123.328006
 20
133.920505
 30
0.0
 10
124.013721
 20
134.642419
 30
0.0
 10
124.525240
 20
135.188794
 30
0.0
 10
124.862562
 20
135.559628
 30
0.0
  0
SPLINE
  5
1cb
100
AcDbEntity
  8
Layer_1
 62
7
100
AcDbSpline
 70
8
 71
3
 72
8
 73
4
 74
0
 40
0
 40
0
 40
0
 40
0
 40
1
 40
1
 40
1
 40
1
 10
124.862562
 20
135.559628
 30
0.0
 10
126.231120
 20
137.064155
 30
0.0
 10
127.261911
 20
138.314428
 30
0.0
 10
127.954934
 20
139.310446
 30
0.0
  0
SPLINE
  5
1cc
100
AcDbEntity
  8
Layer_1
 62
7
100
AcDbSpline
 70
8
 71
3
 72
8
 73
4
 74
0
 40
0
 40
0
 40
0
 40
0
 40
1
 40
1
 40
1
 40
1
 10
127.954934
 20
139.310446
 30
0.0
 10
128.021436
 20
139.404846
 30
0.0
 10
128.066735
 20
139.465291
 30
0.0
 10
128.090829
 20
139.491779
 30
0.0
  0
SPLINE
  5
1cd
100
AcDbEntity
  8
Layer_1
 62
7
100
AcDbSpline
 70
8
 71
3
 72
8
 73
4
 74
0
 40
0
 40
0
 40
0
 40
0
 40
1
 40
1
 40
1
 40
1
 10
128.090829
 20
139.491779
 30
0.0
 10
128.187204
 20
139.597732
 30
0.0
 10
128.306911
 20
139.585654
 30
0.0
 10
128.449950
 20
139.455544
 30
0.0
  0
SPLINE
  5
1ce
100
AcDbEntity
  8
Layer_1
 62
7
100
AcDbSpline
 70
8
 71
3
 72
8
 73
4
 74
0
 40
0
 40
0
 40
0
 40
0
 40
1
 40
1
 40
1
 40
1
 10
128.449950
 20
139.455544
 30
0.0
 10
128.598274
 20
139.320618
 30
0.0
 10
128.808967
 20
139.099923
 30
0.0
 10
129.082027
 20
138.793460
 30
0.0
  0
SPLINE
  5
1cf
100
AcDbEntity
  8
Layer_1
 62
7
100
AcDbSpline
 70
8
 71
3
 72
8
 73
4
 74
0
 40
0
 40
0
 40
0
 40
0
 40
1
 40
1
 40
1
 40
1
 10
129.082027
 20
138.793460
 30
0.0
 10
129.360377
 20
138.482179
 30
0.0
 10
129.576368
 20
138.256666
 30
0.0
 10
129.729998
 20
138.116919
 30
0.0
  0
SPLINE
  5
1d0
100
AcDbEntity
  8
Layer_1
 62
7
100
AcDbSpline
 70
8
 71
3
 72
8
 73
4
 74
0
 40
0
 40
0
 40
0
 40
0
 40
1
 40
1
 40
1
 40
1
 10
129.729998
 20
138.116919
 30
0.0
 10
129.883634
 20
137.977170
 30
0.0
 10
130.126129
 20
137.780794
 30
0.0
 10
130.457482
 20
137.527788
 30
0.0
  0
SPLINE
  5
1d1
100
AcDbEntity
  8
Layer_1
 62
7
100
AcDbSpline
 70
8
 71
3
 72
8
 73
4
 74
0
 40
0
 40
0
 40
0
 40
0
 40
1
 40
1
 40
1
 40
1
 10
130.457482
 20
137.527788
 30
0.0
 10
130.788839
 20
137.274782
 30
0.0
 10
131.031333
 20
137.078406
 30
0.0
 10
131.184963
 20
136.938659
 30
0.0
  0
SPLINE
  5
1d2
100
AcDbEntity
  8
Layer_1
 62
7
100
AcDbSpline
 70
8
 71
3
 72
8
 73
4
 74
0
 40
0
 40
0
 40
0
 40
0
 40
1
 40
1
 40
1
 40
1
 10
131.184963
 20
136.938659
 30
0.0
 10
131.312114
 20
136.823004
 30
0.0
 10
131.327502
 20
136.712200
 30
0.0
 10
131.231126
 20
136.606247
 30
0.0
  0
SPLINE
  5
1d3
100
AcDbEntity
  8
Layer_1
 62
7
100
AcDbSpline
 70
8
 71
3
 72
8
 73
4
 74
0
 40
0
 40
0
 40
0
 40
0
 40
1
 40
1
 40
1
 40
1
 10
131.231126
 20
136.606247
 30
0.0
 10
131.211932
 20
136.585036
 30
0.0
 10
131.160855
 20
136.539528
 30
0.0
 10
131.077894
 20
136.469721
 30
0.0
  0
SPLINE
  5
1d4
100
AcDbEntity
  8
Layer_1
 62
7
100
AcDbSpline
 70
8
 71
3
 72
8
 73
4
 74
0
 40
0
 40
0
 40
0
 40
0
 40
1
 40
1
 40
1
 40
1
 10
131.077894
 20
136.469721
 30
0.0
 10
130.021667
 20
135.542698
 30
0.0
 10
128.874329
 20
134.398440
 30
0.0
 10
127.635880
 20
133.036948
 30
0.0
  0
LWPOLYLINE
  5
1d5
100
AcDbEntity
  8
Layer_1
 62
7
100
AcDbPolyline
 90
1
 70
1
 10
133.213106
 20
138.753227
 30
0.0
  0
SPLINE
  5
1d6
100
AcDbEntity
  8
Layer_1
 62
7
100
AcDbSpline
 70
8
 71
3
 72
8
 73
4
 74
0
 40
0
 40
0
 40
0
 40
0
 40
1
 40
1
 40
1
 40
1
 10
136.476153
 20
129.291582
 30
0.0
 10
136.423800
 20
129.242721
 30
0.0
 10
136.316472
 20
129.216030
 30
0.0
 10
136.154168
 20
129.211506
 30
0.0
  0
SPLINE
  5
1d7
100
AcDbEntity
  8
Layer_1
 62
7
100
AcDbSpline
 70
8
 71
3
 72
8
 73
4
 74
0
 40
0
 40
0
 40
0
 40
0
 40
1
 40
1
 40
1
 40
1
 10
136.154168
 20
129.211506
 30
0.0
 10
136.054013
 20
129.392310
 30
0.0
 10
135.935531
 20
129.556013
 30
0.0
 10
135.798723
 20
129.702616
 30
0.0
  0
SPLINE
  5
1d8
100
AcDbEntity
  8
Layer_1
 62
7
100
AcDbSpline
 70
8
 71
3
 72
8
 73
4
 74
0
 40
0
 40
0
 40
0
 40
0
 40
1
 40
1
 40
1
 40
1
 10
135.798723
 20
129.702616
 30
0.0
 10
135.510449
 20
130.011528
 30
0.0
 10
135.200526
 20
130.207182
 30
0.0
 10
134.868956
 20
130.289578
 30
0.0
  0
SPLINE
  5
1d9
100
AcDbEntity
  8
Layer_1
 62
7
100
AcDbSpline
 70
8
 71
3
 72
8
 73
4
 74
0
 40
0
 40
0
 40
0
 40
0
 40
1
 40
1
 40
1
 40
1
 10
134.868956
 20
130.289578
 30
0.0
 10
134.477354
 20
130.394310
 30
0.0
 10
134.137569
 20
130.312315
 30
0.0
 10
133.849602
 20
130.043592
 30
0.0
  0
SPLINE
  5
1da
100
AcDbEntity
  8
Layer_1
 62
7
100
AcDbSpline
 70
8
 71
3
 72
8
 73
4
 74
0
 40
0
 40
0
 40
0
 40
0
 40
1
 40
1
 40
1
 40
1
 10
133.849602
 20
130.043592
 30
0.0
 10
133.666358
 20
129.872580
 30
0.0
 10
133.557958
 20
129.521641
 30
0.0
 10
133.524402
 20
128.990774
 30
0.0
  0
SPLINE
  5
1db
100
AcDbEntity
  8
Layer_1
 62
7
100
AcDbSpline
 70
8
 71
3
 72
8
 73
4
 74
0
 40
0
 40
0
 40
0
 40
0
 40
1
 40
1
 40
1
 40
1
 10
133.524402
 20
128.990774
 30
0.0
 10
133.476524
 20
128.191853
 30
0.0
 10
133.423258
 20
127.676867
 30
0.0
 10
133.364602
 20
127.445815
 30
0.0
  0
SPLINE
  5
1dc
100
AcDbEntity
  8
Layer_1
 62
7
100
AcDbSpline
 70
8
 71
3
 72
8
 73
4
 74
0
 40
0
 40
0
 40
0
 40
0
 40
1
 40
1
 40
1
 40
1
 10
133.364602
 20
127.445815
 30
0.0
 10
133.215881
 20
126.807451
 30
0.0
 10
132.913756
 20
126.275730
 30
0.0
 10
132.458227
 20
125.850653
 30
0.0
  0
SPLINE
  5
1dd
100
AcDbEntity
  8
Layer_1
 62
7
100
AcDbSpline
 70
8
 71
3
 72
8
 73
4
 74
0
 40
0
 40
0
 40
0
 40
0
 40
1
 40
1
 40
1
 40
1
 10
132.458227
 20
125.850653
 30
0.0
 10
132.191201
 20
125.601468
 30
0.0
 10
131.859608
 20
125.389983
 30
0.0
 10
131.463448
 20
125.216198
 30
0.0
  0
SPLINE
  5
1de
100
AcDbEntity
  8
Layer_1
 62
7
100
AcDbSpline
 70
8
 71
3
 72
8
 73
4
 74
0
 40
0
 40
0
 40
0
 40
0
 40
1
 40
1
 40
1
 40
1
 10
131.463448
 20
125.216198
 30
0.0
 10
131.021216
 20
125.028804
 30
0.0
 10
130.638676
 20
124.955886
 30
0.0
 10
130.315829
 20
124.997445
 30
0.0
  0
SPLINE
  5
1df
100
AcDbEntity
  8
Layer_1
 62
7
100
AcDbSpline
 70
8
 71
3
 72
8
 73
4
 74
0
 40
0
 40
0
 40
0
 40
0
 40
1
 40
1
 40
1
 40
1
 10
130.315829
 20
124.997445
 30
0.0
 10
129.619175
 20
125.072191
 30
0.0
 10
128.913804
 20
125.261244
 30
0.0
 10
128.199718
 20
125.564606
 30
0.0
  0
SPLINE
  5
1e0
100
AcDbEntity
  8
Layer_1
 62
7
100
AcDbSpline
 70
8
 71
3
 72
8
 73
4
 74
0
 40
0
 40
0
 40
0
 40
0
 40
1
 40
1
 40
1
 40
1
 10
128.199718
 20
125.564606
 30
0.0
 10
127.436069
 20
125.900081
 30
0.0
 10
126.834376
 20
126.303429
 30
0.0
 10
126.394638
 20
126.774651
 30
0.0
  0
SPLINE
  5
1e1
100
AcDbEntity
  8
Layer_1
 62
7
100
AcDbSpline
 70
8
 71
3
 72
8
 73
4
 74
0
 40
0
 40
0
 40
0
 40
0
 40
1
 40
1
 40
1
 40
1
 10
126.394638
 20
126.774651
 30
0.0
 10
126.296924
 20
126.879366
 30
0.0
 10
126.359785
 20
127.378821
 30
0.0
 10
126.583222
 20
128.273015
 30
0.0
  0
SPLINE
  5
1e2
100
AcDbEntity
  8
Layer_1
 62
7
100
AcDbSpline
 70
8
 71
3
 72
8
 73
4
 74
0
 40
0
 40
0
 40
0
 40
0
 40
1
 40
1
 40
1
 40
1
 10
126.583222
 20
128.273015
 30
0.0
 10
126.816729
 20
129.166873
 30
0.0
 10
126.996341
 20
129.672426
 30
0.0
 10
127.122057
 20
129.789676
 30
0.0
  0
SPLINE
  5
1e3
100
AcDbEntity
  8
Layer_1
 62
7
100
AcDbSpline
 70
8
 71
3
 72
8
 73
4
 74
0
 40
0
 40
0
 40
0
 40
0
 40
1
 40
1
 40
1
 40
1
 10
127.122057
 20
129.789676
 30
0.0
 10
127.169180
 20
129.833649
 30
0.0
 10
127.224847
 20
129.831725
 30
0.0
 10
127.289059
 20
129.783905
 30
0.0
  0
SPLINE
  5
1e4
100
AcDbEntity
  8
Layer_1
 62
7
100
AcDbSpline
 70
8
 71
3
 72
8
 73
4
 74
0
 40
0
 40
0
 40
0
 40
0
 40
1
 40
1
 40
1
 40
1
 10
127.289059
 20
129.783905
 30
0.0
 10
127.699142
 20
129.480917
 30
0.0
 10
128.111669
 20
129.175311
 30
0.0
 10
128.526640
 20
128.867087
 30
0.0
  0
SPLINE
  5
1e5
100
AcDbEntity
  8
Layer_1
 62
7
100
AcDbSpline
 70
8
 71
3
 72
8
 73
4
 74
0
 40
0
 40
0
 40
0
 40
0
 40
1
 40
1
 40
1
 40
1
 10
128.526640
 20
128.867087
 30
0.0
 10
129.103209
 20
128.543146
 30
0.0
 10
129.559038
 20
128.537526
 30
0.0
 10
129.894128
 20
128.850229
 30
0.0
  0
SPLINE
  5
1e6
100
AcDbEntity
  8
Layer_1
 62
7
100
AcDbSpline
 70
8
 71
3
 72
8
 73
4
 74
0
 40
0
 40
0
 40
0
 40
0
 40
1
 40
1
 40
1
 40
1
 10
129.894128
 20
128.850229
 30
0.0
 10
130.124495
 20
129.065214
 30
0.0
 10
130.266925
 20
129.447913
 30
0.0
 10
130.321419
 20
129.998325
 30
0.0
  0
SPLINE
  5
1e7
100
AcDbEntity
  8
Layer_1
 62
7
100
AcDbSpline
 70
8
 71
3
 72
8
 73
4
 74
0
 40
0
 40
0
 40
0
 40
0
 40
1
 40
1
 40
1
 40
1
 10
130.321419
 20
129.998325
 30
0.0
 10
130.405601
 20
130.968269
 30
0.0
 10
130.453629
 20
131.478371
 30
0.0
 10
130.465501
 20
131.528629
 30
0.0
  0
SPLINE
  5
1e8
100
AcDbEntity
  8
Layer_1
 62
7
100
AcDbSpline
 70
8
 71
3
 72
8
 73
4
 74
0
 40
0
 40
0
 40
0
 40
0
 40
1
 40
1
 40
1
 40
1
 10
130.465501
 20
131.528629
 30
0.0
 10
130.593303
 20
132.147443
 30
0.0
 10
130.866632
 20
132.652291
 30
0.0
 10
131.285486
 20
133.043172
 30
0.0
  0
SPLINE
  5
1e9
100
AcDbEntity
  8
Layer_1
 62
7
100
AcDbSpline
 70
8
 71
3
 72
8
 73
4
 74
0
 40
0
 40
0
 40
0
 40
0
 40
1
 40
1
 40
1
 40
1
 10
131.285486
 20
133.043172
 30
0.0
 10
132.070855
 20
133.776070
 30
0.0
 10
133.109754
 20
134.001113
 30
0.0
 10
134.402182
 20
133.718300
 30
0.0
  0
SPLINE
  5
1ea
100
AcDbEntity
  8
Layer_1
 62
7
100
AcDbSpline
 70
8
 71
3
 72
8
 73
4
 74
0
 40
0
 40
0
 40
0
 40
0
 40
1
 40
1
 40
1
 40
1
 10
134.402182
 20
133.718300
 30
0.0
 10
135.553605
 20
133.460629
 30
0.0
 10
136.507981
 20
132.926019
 30
0.0
 10
137.265307
 20
132.114470
 30
0.0
  0
SPLINE
  5
1eb
100
AcDbEntity
  8
Layer_1
 62
7
100
AcDbSpline
 70
8
 71
3
 72
8
 73
4
 74
0
 40
0
 40
0
 40
0
 40
0
 40
1
 40
1
 40
1
 40
1
 10
137.265307
 20
132.114470
 30
0.0
 10
137.343479
 20
132.030698
 30
0.0
 10
137.253741
 20
131.560041
 30
0.0
 10
136.996095
 20
130.702500
 30
0.0
  0
SPLINE
  5
1ec
100
AcDbEntity
  8
Layer_1
 62
7
100
AcDbSpline
 70
8
 71
3
 72
8
 73
4
 74
0
 40
0
 40
0
 40
0
 40
0
 40
1
 40
1
 40
1
 40
1
 10
136.996095
 20
130.702500
 30
0.0
 10
136.743678
 20
129.849845
 30
0.0
 10
136.570347
 20
129.379544
 30
0.0
 10
136.476101
 20
129.291597
 30
0.0
  0
LWPOLYLINE
  5
1ed
100
AcDbEntity
  8
Layer_1
 62
7
100
AcDbPolyline
 90
1
 70
1
 10
127.635880
 20
133.036948
 30
0.0
  0
SPLINE
  5
1ee
100
AcDbEntity
  8
Layer_1
 62
7
100
AcDbSpline
 70
8
 71
3
 72
8
 73
4
 74
0
 40
0
 40
0
 40
0
 40
0
 40
1
 40
1
 40
1
 40
1
 10
137.994872
 20
118.410692
 30
0.0
 10
137.824610
 20
118.279662
 30
0.0
 10
137.548911
 20
118.103632
 30
0.0
 10
137.167774
 20
117.882604
 30
0.0
  0
SPLINE
  5
1ef
100
AcDbEntity
  8
Layer_1
 62
7
100
AcDbSpline
 70
8
 71
3
 72
8
 73
4
 74
0
 40
0
 40
0
 40
0
 40
0
 40
1
 40
1
 40
1
 40
1
 10
137.167774
 20
117.882604
 30
0.0
 10
136.791004
 20
117.655902
 30
0.0
 10
136.520327
 20
117.479218
 30
0.0
 10
136.355742
 20
117.352555
 30
0.0
  0
SPLINE
  5
1f0
100
AcDbEntity
  8
Layer_1
 62
7
100
AcDbSpline
 70
8
 71
3
 72
8
 73
4
 74
0
 40
0
 40
0
 40
0
 40
0
 40
1
 40
1
 40
1
 40
1
 10
136.355742
 20
117.352555
 30
0.0
 10
136.196831
 20
117.230259
 30
0.0
 10
136.081572
 20
117.168666
 30
0.0
 10
136.009965
 20
117.167776
 30
0.0
  0
SPLINE
  5
1f1
100
AcDbEntity
  8
Layer_1
 62
7
100
AcDbSpline
 70
8
 71
3
 72
8
 73
4
 74
0
 40
0
 40
0
 40
0
 40
0
 40
1
 40
1
 40
1
 40
1
 10
136.009965
 20
117.167776
 30
0.0
 10
135.938366
 20
117.166891
 30
0.0
 10
135.801031
 20
117.210301
 30
0.0
 10
135.597960
 20
117.298008
 30
0.0
  0
SPLINE
  5
1f2
100
AcDbEntity
  8
Layer_1
 62
7
100
AcDbSpline
 70
8
 71
3
 72
8
 73
4
 74
0
 40
0
 40
0
 40
0
 40
0
 40
1
 40
1
 40
1
 40
1
 10
135.597960
 20
117.298008
 30
0.0
 10
134.631578
 20
117.720029
 30
0.0
 10
133.805522
 20
118.376554
 30
0.0
 10
133.119791
 20
119.267583
 30
0.0
  0
SPLINE
  5
1f3
100
AcDbEntity
  8
Layer_1
 62
7
100
AcDbSpline
 70
8
 71
3
 72
8
 73
4
 74
0
 40
0
 40
0
 40
0
 40
0
 40
1
 40
1
 40
1
 40
1
 10
133.119791
 20
119.267583
 30
0.0
 10
131.857524
 20
120.907758
 30
0.0
 10
131.853516
 20
122.210477
 30
0.0
 10
133.107768
 20
123.175740
 30
0.0
  0
SPLINE
  5
1f4
100
AcDbEntity
  8
Layer_1
 62
7
100
AcDbSpline
 70
8
 71
3
 72
8
 73
4
 74
0
 40
0
 40
0
 40
0
 40
0
 40
1
 40
1
 40
1
 40
1
 10
133.107768
 20
123.175740
 30
0.0
 10
133.482341
 20
123.464009
 30
0.0
 10
134.055120
 20
123.882224
 30
0.0
 10
134.826104
 20
124.430384
 30
0.0
  0
SPLINE
  5
1f5
100
AcDbEntity
  8
Layer_1
 62
7
100
AcDbSpline
 70
8
 71
3
 72
8
 73
4
 74
0
 40
0
 40
0
 40
0
 40
0
 40
1
 40
1
 40
1
 40
1
 10
134.826104
 20
124.430384
 30
0.0
 10
135.602763
 20
124.982913
 30
0.0
 10
136.178379
 20
125.403311
 30
0.0
 10
136.552953
 20
125.691580
 30
0.0
  0
SPLINE
  5
1f6
100
AcDbEntity
  8
Layer_1
 62
7
100
AcDbSpline
 70
8
 71
3
 72
8
 73
4
 74
0
 40
0
 40
0
 40
0
 40
0
 40
1
 40
1
 40
1
 40
1
 10
136.552953
 20
125.691580
 30
0.0
 10
136.802667
 20
125.883759
 30
0.0
 10
136.816147
 20
126.124570
 30
0.0
 10
136.593394
 20
126.414013
 30
0.0
  0
SPLINE
  5
1f7
100
AcDbEntity
  8
Layer_1
 62
7
100
AcDbSpline
 70
8
 71
3
 72
8
 73
4
 74
0
 40
0
 40
0
 40
0
 40
0
 40
1
 40
1
 40
1
 40
1
 10
136.593394
 20
126.414013
 30
0.0
 10
136.575930
 20
126.436705
 30
0.0
 10
136.547540
 20
126.473594
 30
0.0
 10
136.508224
 20
126.524681
 30
0.0
  0
SPLINE
  5
1f8
100
AcDbEntity
  8
Layer_1
 62
7
100
AcDbSpline
 70
8
 71
3
 72
8
 73
4
 74
0
 40
0
 40
0
 40
0
 40
0
 40
1
 40
1
 40
1
 40
1
 10
136.508224
 20
126.524681
 30
0.0
 10
136.463242
 20
126.571390
 30
0.0
 10
136.432011
 20
126.606096
 30
0.0
 10
136.414530
 20
126.628801
 30
0.0
  0
SPLINE
  5
1f9
100
AcDbEntity
  8
Layer_1
 62
7
100
AcDbSpline
 70
8
 71
3
 72
8
 73
4
 74
0
 40
0
 40
0
 40
0
 40
0
 40
1
 40
1
 40
1
 40
1
 10
136.414530
 20
126.628801
 30
0.0
 10
136.248557
 20
126.844464
 30
0.0
 10
136.242191
 20
127.011258
 30
0.0
 10
136.395434
 20
127.129185
 30
0.0
  0
SPLINE
  5
1fa
100
AcDbEntity
  8
Layer_1
 62
7
100
AcDbSpline
 70
8
 71
3
 72
8
 73
4
 74
0
 40
0
 40
0
 40
0
 40
0
 40
1
 40
1
 40
1
 40
1
 10
136.395434
 20
127.129185
 30
0.0
 10
136.486248
 20
127.199066
 30
0.0
 10
136.629662
 20
127.300400
 30
0.0
 10
136.825675
 20
127.433185
 30
0.0
  0
SPLINE
  5
1fb
100
AcDbEntity
  8
Layer_1
 62
7
100
AcDbSpline
 70
8
 71
3
 72
8
 73
4
 74
0
 40
0
 40
0
 40
0
 40
0
 40
1
 40
1
 40
1
 40
1
 10
136.825675
 20
127.433185
 30
0.0
 10
137.026074
 20
127.560291
 30
0.0
 10
137.171672
 20
127.658787
 30
0.0
 10
137.262468
 20
127.728673
 30
0.0
  0
SPLINE
  5
1fc
100
AcDbEntity
  8
Layer_1
 62
7
100
AcDbSpline
 70
8
 71
3
 72
8
 73
4
 74
0
 40
0
 40
0
 40
0
 40
0
 40
1
 40
1
 40
1
 40
1
 10
137.262468
 20
127.728673
 30
0.0
 10
137.381641
 20
127.820397
 30
0.0
 10
137.556700
 20
127.968677
 30
0.0
 10
137.787646
 20
128.173512
 30
0.0
  0
SPLINE
  5
1fd
100
AcDbEntity
  8
Layer_1
 62
7
100
AcDbSpline
 70
8
 71
3
 72
8
 73
4
 74
0
 40
0
 40
0
 40
0
 40
0
 40
1
 40
1
 40
1
 40
1
 10
137.787646
 20
128.173512
 30
0.0
 10
138.022949
 20
128.372675
 30
0.0
 10
138.200193
 20
128.518118
 30
0.0
 10
138.319375
 20
128.609839
 30
0.0
  0
SPLINE
  5
1fe
100
AcDbEntity
  8
Layer_1
 62
7
100
AcDbSpline
 70
8
 71
3
 72
8
 73
4
 74
0
 40
0
 40
0
 40
0
 40
0
 40
1
 40
1
 40
1
 40
1
 10
138.319375
 20
128.609839
 30
0.0
 10
138.432882
 20
128.697194
 30
0.0
 10
138.635077
 20
128.563627
 30
0.0
 10
138.925961
 20
128.209141
 30
0.0
  0
SPLINE
  5
1ff
100
AcDbEntity
  8
Layer_1
 62
7
100
AcDbSpline
 70
8
 71
3
 72
8
 73
4
 74
0
 40
0
 40
0
 40
0
 40
0
 40
1
 40
1
 40
1
 40
1
 10
138.925961
 20
128.209141
 30
0.0
 10
139.088874
 20
128.009196
 30
0.0
 10
139.230799
 20
127.942203
 30
0.0
 10
139.351733
 20
128.008164
 30
0.0
  0
SPLINE
  5
200
100
AcDbEntity
  8
Layer_1
 62
7
100
AcDbSpline
 70
8
 71
3
 72
8
 73
4
 74
0
 40
0
 40
0
 40
0
 40
0
 40
1
 40
1
 40
1
 40
1
 10
139.351733
 20
128.008164
 30
0.0
 10
139.593603
 20
128.140085
 30
0.0
 10
139.942859
 20
128.390796
 30
0.0
 10
140.399502
 20
128.760299
 30
0.0
  0
SPLINE
  5
201
100
AcDbEntity
  8
Layer_1
 62
7
100
AcDbSpline
 70
8
 71
3
 72
8
 73
4
 74
0
 40
0
 40
0
 40
0
 40
0
 40
1
 40
1
 40
1
 40
1
 10
140.399502
 20
128.760299
 30
0.0
 10
141.114151
 20
129.346435
 30
0.0
 10
141.454449
 20
129.626399
 30
0.0
 10
141.420397
 20
129.600193
 30
0.0
  0
SPLINE
  5
202
100
AcDbEntity
  8
Layer_1
 62
7
100
AcDbSpline
 70
8
 71
3
 72
8
 73
4
 74
0
 40
0
 40
0
 40
0
 40
0
 40
1
 40
1
 40
1
 40
1
 10
141.420397
 20
129.600193
 30
0.0
 10
142.078737
 20
130.106847
 30
0.0
 10
142.455952
 20
130.297746
 30
0.0
 10
142.552041
 20
130.172888
 30
0.0
  0
SPLINE
  5
203
100
AcDbEntity
  8
Layer_1
 62
7
100
AcDbSpline
 70
8
 71
3
 72
8
 73
4
 74
0
 40
0
 40
0
 40
0
 40
0
 40
1
 40
1
 40
1
 40
1
 10
142.552041
 20
130.172888
 30
0.0
 10
142.669969
 20
130.019653
 30
0.0
 10
142.804074
 20
129.774946
 30
0.0
 10
142.954355
 20
129.438767
 30
0.0
  0
SPLINE
  5
204
100
AcDbEntity
  8
Layer_1
 62
7
100
AcDbSpline
 70
8
 71
3
 72
8
 73
4
 74
0
 40
0
 40
0
 40
0
 40
0
 40
1
 40
1
 40
1
 40
1
 10
142.954355
 20
129.438767
 30
0.0
 10
143.129535
 20
129.058492
 30
0.0
 10
143.259495
 20
128.801558
 30
0.0
 10
143.344234
 20
128.667965
 30
0.0
  0
SPLINE
  5
205
100
AcDbEntity
  8
Layer_1
 62
7
100
AcDbSpline
 70
8
 71
3
 72
8
 73
4
 74
0
 40
0
 40
0
 40
0
 40
0
 40
1
 40
1
 40
1
 40
1
 10
143.344234
 20
128.667965
 30
0.0
 10
143.527259
 20
128.347948
 30
0.0
 10
143.809657
 20
127.869453
 30
0.0
 10
144.191426
 20
127.232480
 30
0.0
  0
SPLINE
  5
206
100
AcDbEntity
  8
Layer_1
 62
7
100
AcDbSpline
 70
8
 71
3
 72
8
 73
4
 74
0
 40
0
 40
0
 40
0
 40
0
 40
1
 40
1
 40
1
 40
1
 10
144.191426
 20
127.232480
 30
0.0
 10
144.289268
 20
127.081861
 30
0.0
 10
144.295624
 20
126.973794
 30
0.0
 10
144.210494
 20
126.908278
 30
0.0
  0
SPLINE
  5
207
100
AcDbEntity
  8
Layer_1
 62
7
100
AcDbSpline
 70
8
 71
3
 72
8
 73
4
 74
0
 40
0
 40
0
 40
0
 40
0
 40
1
 40
1
 40
1
 40
1
 10
144.210494
 20
126.908278
 30
0.0
 10
143.983480
 20
126.733570
 30
0.0
 10
143.624835
 20
126.489187
 30
0.0
 10
143.134558
 20
126.175131
 30
0.0
  0
SPLINE
  5
208
100
AcDbEntity
  8
Layer_1
 62
7
100
AcDbSpline
 70
8
 71
3
 72
8
 73
4
 74
0
 40
0
 40
0
 40
0
 40
0
 40
1
 40
1
 40
1
 40
1
 10
143.134558
 20
126.175131
 30
0.0
 10
142.648649
 20
125.855398
 30
0.0
 10
142.289350
 20
125.605994
 30
0.0
 10
142.056660
 20
125.426918
 30
0.0
  0
SPLINE
  5
209
100
AcDbEntity
  8
Layer_1
 62
7
100
AcDbSpline
 70
8
 71
3
 72
8
 73
4
 74
0
 40
0
 40
0
 40
0
 40
0
 40
1
 40
1
 40
1
 40
1
 10
142.056660
 20
125.426918
 30
0.0
 10
141.778568
 20
125.212900
 30
0.0
 10
141.702854
 20
125.023599
 30
0.0
 10
141.829518
 20
124.859014
 30
0.0
  0
SPLINE
  5
20a
100
AcDbEntity
  8
Layer_1
 62
7
100
AcDbSpline
 70
8
 71
3
 72
8
 73
4
 74
0
 40
0
 40
0
 40
0
 40
0
 40
1
 40
1
 40
1
 40
1
 10
141.829518
 20
124.859014
 30
0.0
 10
141.982388
 20
124.660377
 30
0.0
 10
142.222389
 20
124.366135
 30
0.0
 10
142.549522
 20
123.976289
 30
0.0
  0
SPLINE
  5
20b
100
AcDbEntity
  8
Layer_1
 62
7
100
AcDbSpline
 70
8
 71
3
 72
8
 73
4
 74
0
 40
0
 40
0
 40
0
 40
0
 40
1
 40
1
 40
1
 40
1
 10
142.549522
 20
123.976289
 30
0.0
 10
142.876656
 20
123.586442
 30
0.0
 10
143.118841
 20
123.289363
 30
0.0
 10
143.276078
 20
123.085051
 30
0.0
  0
SPLINE
  5
20c
100
AcDbEntity
  8
Layer_1
 62
7
100
AcDbSpline
 70
8
 71
3
 72
8
 73
4
 74
0
 40
0
 40
0
 40
0
 40
0
 40
1
 40
1
 40
1
 40
1
 10
143.276078
 20
123.085051
 30
0.0
 10
143.372168
 20
122.960193
 30
0.0
 10
143.377648
 20
122.865006
 30
0.0
 10
143.292519
 20
122.799492
 30
0.0
  0
SPLINE
  5
20d
100
AcDbEntity
  8
Layer_1
 62
7
100
AcDbSpline
 70
8
 71
3
 72
8
 73
4
 74
0
 40
0
 40
0
 40
0
 40
0
 40
1
 40
1
 40
1
 40
1
 10
143.292519
 20
122.799492
 30
0.0
 10
143.161985
 20
122.699035
 30
0.0
 10
142.955267
 20
122.562537
 30
0.0
 10
142.672363
 20
122.389999
 30
0.0
  0
SPLINE
  5
20e
100
AcDbEntity
  8
Layer_1
 62
7
100
AcDbSpline
 70
8
 71
3
 72
8
 73
4
 74
0
 40
0
 40
0
 40
0
 40
0
 40
1
 40
1
 40
1
 40
1
 10
142.672363
 20
122.389999
 30
0.0
 10
142.389458
 20
122.217461
 30
0.0
 10
142.182739
 20
122.080964
 30
0.0
 10
142.052206
 20
121.980507
 30
0.0
  0
SPLINE
  5
20f
100
AcDbEntity
  8
Layer_1
 62
7
100
AcDbSpline
 70
8
 71
3
 72
8
 73
4
 74
0
 40
0
 40
0
 40
0
 40
0
 40
1
 40
1
 40
1
 40
1
 10
142.052206
 20
121.980507
 30
0.0
 10
141.915998
 20
121.875682
 30
0.0
 10
141.719545
 20
121.719975
 30
0.0
 10
141.462847
 20
121.513384
 30
0.0
  0
SPLINE
  5
210
100
AcDbEntity
  8
Layer_1
 62
7
100
AcDbSpline
 70
8
 71
3
 72
8
 73
4
 74
0
 40
0
 40
0
 40
0
 40
0
 40
1
 40
1
 40
1
 40
1
 10
141.462847
 20
121.513384
 30
0.0
 10
141.206149
 20
121.306794
 30
0.0
 10
141.009695
 20
121.151087
 30
0.0
 10
140.873487
 20
121.046262
 30
0.0
  0
SPLINE
  5
211
100
AcDbEntity
  8
Layer_1
 62
7
100
AcDbSpline
 70
8
 71
3
 72
8
 73
4
 74
0
 40
0
 40
0
 40
0
 40
0
 40
1
 40
1
 40
1
 40
1
 10
140.873487
 20
121.046262
 30
0.0
 10
140.754304
 20
120.954540
 30
0.0
 10
140.631381
 20
120.990969
 30
0.0
 10
140.504716
 20
121.155549
 30
0.0
  0
SPLINE
  5
212
100
AcDbEntity
  8
Layer_1
 62
7
100
AcDbSpline
 70
8
 71
3
 72
8
 73
4
 74
0
 40
0
 40
0
 40
0
 40
0
 40
1
 40
1
 40
1
 40
1
 10
140.504716
 20
121.155549
 30
0.0
 10
140.417363
 20
121.269056
 30
0.0
 10
140.273883
 20
121.461364
 30
0.0
 10
140.074275
 20
121.732473
 30
0.0
  0
SPLINE
  5
213
100
AcDbEntity
  8
Layer_1
 62
7
100
AcDbSpline
 70
8
 71
3
 72
8
 73
4
 74
0
 40
0
 40
0
 40
0
 40
0
 40
1
 40
1
 40
1
 40
1
 10
140.074275
 20
121.732473
 30
0.0
 10
139.880343
 20
122.007950
 30
0.0
 10
139.739700
 20
122.202441
 30
0.0
 10
139.652346
 20
122.315948
 30
0.0
  0
LWPOLYLINE
  5
214
100
AcDbEntity
  8
Layer_1
 62
7
100
AcDbPolyline
 90
1
 70
1
 10
136.476101
 20
129.291597
 30
0.0
  0
SPLINE
  5
215
100
AcDbEntity
  8
Layer_1
 62
7
100
AcDbSpline
 70
8
 71
3
 72
8
 73
4
 74
0
 40
0
 40
0
 40
0
 40
0
 40
1
 40
1
 40
1
 40
1
 10
139.160980
 20
122.954431
 30
0.0
 10
139.095464
 20
123.039561
 30
0.0
 10
138.937848
 20
122.986036
 30
0.0
 10
138.688133
 20
122.793856
 30
0.0
  0
SPLINE
  5
216
100
AcDbEntity
  8
Layer_1
 62
7
100
AcDbSpline
 70
8
 71
3
 72
8
 73
4
 74
0
 40
0
 40
0
 40
0
 40
0
 40
1
 40
1
 40
1
 40
1
 10
138.688133
 20
122.793856
 30
0.0
 10
138.551925
 20
122.689032
 30
0.0
 10
138.350450
 20
122.533978
 30
0.0
 10
138.083709
 20
122.328696
 30
0.0
  0
SPLINE
  5
217
100
AcDbEntity
  8
Layer_1
 62
7
100
AcDbSpline
 70
8
 71
3
 72
8
 73
4
 74
0
 40
0
 40
0
 40
0
 40
0
 40
1
 40
1
 40
1
 40
1
 10
138.083709
 20
122.328696
 30
0.0
 10
137.815660
 20
122.113370
 30
0.0
 10
137.616369
 20
121.955479
 30
0.0
 10
137.485836
 20
121.855022
 30
0.0
  0
SPLINE
  5
218
100
AcDbEntity
  8
Layer_1
 62
7
100
AcDbSpline
 70
8
 71
3
 72
8
 73
4
 74
0
 40
0
 40
0
 40
0
 40
0
 40
1
 40
1
 40
1
 40
1
 10
137.485836
 20
121.855022
 30
0.0
 10
137.009108
 20
121.488134
 30
0.0
 10
136.721431
 20
121.180891
 30
0.0
 10
136.622807
 20
120.933293
 30
0.0
  0
SPLINE
  5
219
100
AcDbEntity
  8
Layer_1
 62
7
100
AcDbSpline
 70
8
 71
3
 72
8
 73
4
 74
0
 40
0
 40
0
 40
0
 40
0
 40
1
 40
1
 40
1
 40
1
 10
136.622807
 20
120.933293
 30
0.0
 10
136.496693
 20
120.592248
 30
0.0
 10
136.606162
 20
120.197549
 30
0.0
 10
136.951211
 20
119.749196
 30
0.0
  0
SPLINE
  5
21a
100
AcDbEntity
  8
Layer_1
 62
7
100
AcDbSpline
 70
8
 71
3
 72
8
 73
4
 74
0
 40
0
 40
0
 40
0
 40
0
 40
1
 40
1
 40
1
 40
1
 10
136.951211
 20
119.749196
 30
0.0
 10
137.060403
 20
119.607312
 30
0.0
 10
137.246671
 20
119.429860
 30
0.0
 10
137.510016
 20
119.216839
 30
0.0
  0
SPLINE
  5
21b
100
AcDbEntity
  8
Layer_1
 62
7
100
AcDbSpline
 70
8
 71
3
 72
8
 73
4
 74
0
 40
0
 40
0
 40
0
 40
0
 40
1
 40
1
 40
1
 40
1
 10
137.510016
 20
119.216839
 30
0.0
 10
137.783402
 20
119.002509
 30
0.0
 10
137.961588
 20
118.841429
 30
0.0
 10
138.044575
 20
118.733598
 30
0.0
  0
SPLINE
  5
21c
100
AcDbEntity
  8
Layer_1
 62
7
100
AcDbSpline
 70
8
 71
3
 72
8
 73
4
 74
0
 40
0
 40
0
 40
0
 40
0
 40
1
 40
1
 40
1
 40
1
 10
138.044575
 20
118.733598
 30
0.0
 10
138.136297
 20
118.614416
 30
0.0
 10
138.119730
 20
118.506780
 30
0.0
 10
137.994872
 20
118.410692
 30
0.0
  0
LWPOLYLINE
  5
21d
100
AcDbEntity
  8
Layer_1
 62
7
100
AcDbPolyline
 90
2
 70
0
 10
139.652346
 20
122.315948
 30
0.0
 10
139.160980
 20
122.954431
 30
0.0
  0
SPLINE
  5
21e
100
AcDbEntity
  8
Layer_1
 62
7
100
AcDbSpline
 70
8
 71
3
 72
8
 73
4
 74
0
 40
0
 40
0
 40
0
 40
0
 40
1
 40
1
 40
1
 40
1
 10
144.959056
 20
100.792319
 30
0.0
 10
144.738435
 20
100.673353
 30
0.0
 10
144.564533
 20
100.701624
 30
0.0
 10
144.437351
 20
100.877133
 30
0.0
  0
SPLINE
  5
21f
100
AcDbEntity
  8
Layer_1
 62
7
100
AcDbSpline
 70
8
 71
3
 72
8
 73
4
 74
0
 40
0
 40
0
 40
0
 40
0
 40
1
 40
1
 40
1
 40
1
 10
144.437351
 20
100.877133
 30
0.0
 10
144.310169
 20
101.052641
 30
0.0
 10
144.046040
 20
101.512299
 30
0.0
 10
143.644963
 20
102.256106
 30
0.0
  0
SPLINE
  5
220
100
AcDbEntity
  8
Layer_1
 62
7
100
AcDbSpline
 70
8
 71
3
 72
8
 73
4
 74
0
 40
0
 40
0
 40
0
 40
0
 40
1
 40
1
 40
1
 40
1
 10
143.644963
 20
102.256106
 30
0.0
 10
143.230292
 20
103.025129
 30
0.0
 10
142.990882
 20
103.514388
 30
0.0
 10
142.926735
 20
103.723885
 30
0.0
  0
SPLINE
  5
221
100
AcDbEntity
  8
Layer_1
 62
7
100
AcDbSpline
 70
8
 71
3
 72
8
 73
4
 74
0
 40
0
 40
0
 40
0
 40
0
 40
1
 40
1
 40
1
 40
1
 10
142.926735
 20
103.723885
 30
0.0
 10
142.862585
 20
103.933373
 30
0.0
 10
142.966036
 20
104.111200
 30
0.0
 10
143.237087
 20
104.257363
 30
0.0
  0
SPLINE
  5
222
100
AcDbEntity
  8
Layer_1
 62
7
100
AcDbSpline
 70
8
 71
3
 72
8
 73
4
 74
0
 40
0
 40
0
 40
0
 40
0
 40
1
 40
1
 40
1
 40
1
 10
143.237087
 20
104.257363
 30
0.0
 10
143.527046
 20
104.413717
 30
0.0
 10
143.963931
 20
104.637091
 30
0.0
 10
144.547743
 20
104.927485
 30
0.0
  0
SPLINE
  5
223
100
AcDbEntity
  8
Layer_1
 62
7
100
AcDbSpline
 70
8
 71
3
 72
8
 73
4
 74
0
 40
0
 40
0
 40
0
 40
0
 40
1
 40
1
 40
1
 40
1
 10
144.547743
 20
104.927485
 30
0.0
 10
145.137857
 20
105.221277
 30
0.0
 10
145.577894
 20
105.446349
 30
0.0
 10
145.867853
 20
105.602701
 30
0.0
  0
SPLINE
  5
224
100
AcDbEntity
  8
Layer_1
 62
7
100
AcDbSpline
 70
8
 71
3
 72
8
 73
4
 74
0
 40
0
 40
0
 40
0
 40
0
 40
1
 40
1
 40
1
 40
1
 10
145.867853
 20
105.602701
 30
0.0
 10
146.970959
 20
106.197518
 30
0.0
 10
147.748941
 20
106.633294
 30
0.0
 10
148.201801
 20
106.910030
 30
0.0
  0
SPLINE
  5
225
100
AcDbEntity
  8
Layer_1
 62
7
100
AcDbSpline
 70
8
 71
3
 72
8
 73
4
 74
0
 40
0
 40
0
 40
0
 40
0
 40
1
 40
1
 40
1
 40
1
 10
148.201801
 20
106.910030
 30
0.0
 10
148.931519
 20
107.352325
 30
0.0
 10
149.114534
 20
107.910708
 30
0.0
 10
148.750846
 20
108.585178
 30
0.0
  0
SPLINE
  5
226
100
AcDbEntity
  8
Layer_1
 62
7
100
AcDbSpline
 70
8
 71
3
 72
8
 73
4
 74
0
 40
0
 40
0
 40
0
 40
0
 40
1
 40
1
 40
1
 40
1
 10
148.750846
 20
108.585178
 30
0.0
 10
148.591096
 20
108.881440
 30
0.0
 10
148.305276
 20
109.109724
 30
0.0
 10
147.893387
 20
109.270028
 30
0.0
  0
SPLINE
  5
227
100
AcDbEntity
  8
Layer_1
 62
7
100
AcDbSpline
 70
8
 71
3
 72
8
 73
4
 74
0
 40
0
 40
0
 40
0
 40
0
 40
1
 40
1
 40
1
 40
1
 10
147.893387
 20
109.270028
 30
0.0
 10
147.491201
 20
109.427429
 30
0.0
 10
147.130327
 20
109.440313
 30
0.0
 10
146.810767
 20
109.308681
 30
0.0
  0
SPLINE
  5
228
100
AcDbEntity
  8
Layer_1
 62
7
100
AcDbSpline
 70
8
 71
3
 72
8
 73
4
 74
0
 40
0
 40
0
 40
0
 40
0
 40
1
 40
1
 40
1
 40
1
 10
146.810767
 20
109.308681
 30
0.0
 10
146.532426
 20
109.191139
 30
0.0
 10
145.750303
 20
108.785675
 30
0.0
 10
144.464397
 20
108.092290
 30
0.0
  0
SPLINE
  5
229
100
AcDbEntity
  8
Layer_1
 62
7
100
AcDbSpline
 70
8
 71
3
 72
8
 73
4
 74
0
 40
0
 40
0
 40
0
 40
0
 40
1
 40
1
 40
1
 40
1
 10
144.464397
 20
108.092290
 30
0.0
 10
144.168135
 20
107.932539
 30
0.0
 10
143.722536
 20
107.680058
 30
0.0
 10
143.127601
 20
107.334849
 30
0.0
  0
SPLINE
  5
22a
100
AcDbEntity
  8
Layer_1
 62
7
100
AcDbSpline
 70
8
 71
3
 72
8
 73
4
 74
0
 40
0
 40
0
 40
0
 40
0
 40
1
 40
1
 40
1
 40
1
 10
143.127601
 20
107.334849
 30
0.0
 10
142.538969
 20
106.993039
 30
0.0
 10
142.093371
 20
106.740559
 30
0.0
 10
141.790805
 20
106.577409
 30
0.0
  0
SPLINE
  5
22b
100
AcDbEntity
  8
Layer_1
 62
7
100
AcDbSpline
 70
8
 71
3
 72
8
 73
4
 74
0
 40
0
 40
0
 40
0
 40
0
 40
1
 40
1
 40
1
 40
1
 10
141.790805
 20
106.577409
 30
0.0
 10
141.582788
 20
106.465238
 30
0.0
 10
141.429492
 20
106.500537
 30
0.0
 10
141.330915
 20
106.683304
 30
0.0
  0
LWPOLYLINE
  5
22c
100
AcDbEntity
  8
Layer_1
 62
7
100
AcDbPolyline
 90
1
 70
1
 10
137.994872
 20
118.410692
 30
0.0
  0
SPLINE
  5
22d
100
AcDbEntity
  8
Layer_1
 62
7
100
AcDbSpline
 70
8
 71
3
 72
8
 73
4
 74
0
 40
0
 40
0
 40
0
 40
0
 40
1
 40
1
 40
1
 40
1
 10
139.786108
 20
109.548283
 30
0.0
 10
139.690937
 20
109.724780
 30
0.0
 10
139.772573
 20
109.882707
 30
0.0
 10
140.031014
 20
110.022064
 30
0.0
  0
SPLINE
  5
22e
100
AcDbEntity
  8
Layer_1
 62
7
100
AcDbSpline
 70
8
 71
3
 72
8
 73
4
 74
0
 40
0
 40
0
 40
0
 40
0
 40
1
 40
1
 40
1
 40
1
 10
140.031014
 20
110.022064
 30
0.0
 10
140.327277
 20
110.181814
 30
0.0
 10
140.776769
 20
110.411985
 30
0.0
 10
141.379491
 20
110.712575
 30
0.0
  0
SPLINE
  5
22f
100
AcDbEntity
  8
Layer_1
 62
7
100
AcDbSpline
 70
8
 71
3
 72
8
 73
4
 74
0
 40
0
 40
0
 40
0
 40
0
 40
1
 40
1
 40
1
 40
1
 10
141.379491
 20
110.712575
 30
0.0
 10
141.982213
 20
111.013166
 30
0.0
 10
142.434857
 20
111.245036
 30
0.0
 10
142.737423
 20
111.408186
 30
0.0
  0
SPLINE
  5
230
100
AcDbEntity
  8
Layer_1
 62
7
100
AcDbSpline
 70
8
 71
3
 72
8
 73
4
 74
0
 40
0
 40
0
 40
0
 40
0
 40
1
 40
1
 40
1
 40
1
 10
142.737423
 20
111.408186
 30
0.0
 10
142.970650
 20
111.533947
 30
0.0
 10
143.320245
 20
111.730591
 30
0.0
 10
143.786207
 20
111.998119
 30
0.0
  0
SPLINE
  5
231
100
AcDbEntity
  8
Layer_1
 62
7
100
AcDbSpline
 70
8
 71
3
 72
8
 73
4
 74
0
 40
0
 40
0
 40
0
 40
0
 40
1
 40
1
 40
1
 40
1
 10
143.786207
 20
111.998119
 30
0.0
 10
144.252168
 20
112.265647
 30
0.0
 10
144.604914
 20
112.463991
 30
0.0
 10
144.844446
 20
112.593151
 30
0.0
  0
SPLINE
  5
232
100
AcDbEntity
  8
Layer_1
 62
7
100
AcDbSpline
 70
8
 71
3
 72
8
 73
4
 74
0
 40
0
 40
0
 40
0
 40
0
 40
1
 40
1
 40
1
 40
1
 10
144.844446
 20
112.593151
 30
0.0
 10
145.745840
 20
113.079201
 30
0.0
 10
146.011294
 20
113.665764
 30
0.0
 10
145.640809
 20
114.352841
 30
0.0
  0
SPLINE
  5
233
100
AcDbEntity
  8
Layer_1
 62
7
100
AcDbSpline
 70
8
 71
3
 72
8
 73
4
 74
0
 40
0
 40
0
 40
0
 40
0
 40
1
 40
1
 40
1
 40
1
 10
145.640809
 20
114.352841
 30
0.0
 10
145.491255
 20
114.630193
 30
0.0
 10
145.222647
 20
114.871825
 30
0.0
 10
144.834983
 20
115.077737
 30
0.0
  0
SPLINE
  5
234
100
AcDbEntity
  8
Layer_1
 62
7
100
AcDbSpline
 70
8
 71
3
 72
8
 73
4
 74
0
 40
0
 40
0
 40
0
 40
0
 40
1
 40
1
 40
1
 40
1
 10
144.834983
 20
115.077737
 30
0.0
 10
144.411414
 20
115.304970
 30
0.0
 10
144.070408
 20
115.348908
 30
0.0
 10
143.811967
 20
115.209551
 30
0.0
  0
SPLINE
  5
235
100
AcDbEntity
  8
Layer_1
 62
7
100
AcDbSpline
 70
8
 71
3
 72
8
 73
4
 74
0
 40
0
 40
0
 40
0
 40
0
 40
1
 40
1
 40
1
 40
1
 10
143.811967
 20
115.209551
 30
0.0
 10
143.238352
 20
114.900246
 30
0.0
 10
142.382781
 20
114.434838
 30
0.0
 10
141.245255
 20
113.813325
 30
0.0
  0
SPLINE
  5
236
100
AcDbEntity
  8
Layer_1
 62
7
100
AcDbSpline
 70
8
 71
3
 72
8
 73
4
 74
0
 40
0
 40
0
 40
0
 40
0
 40
1
 40
1
 40
1
 40
1
 10
141.245255
 20
113.813325
 30
0.0
 10
140.107728
 20
113.191812
 30
0.0
 10
139.255309
 20
112.728103
 30
0.0
 10
138.687998
 20
112.422197
 30
0.0
  0
SPLINE
  5
237
100
AcDbEntity
  8
Layer_1
 62
7
100
AcDbSpline
 70
8
 71
3
 72
8
 73
4
 74
0
 40
0
 40
0
 40
0
 40
0
 40
1
 40
1
 40
1
 40
1
 10
138.687998
 20
112.422197
 30
0.0
 10
138.530411
 20
112.337223
 30
0.0
 10
138.422511
 20
112.303450
 30
0.0
 10
138.364296
 20
112.320877
 30
0.0
  0
SPLINE
  5
238
100
AcDbEntity
  8
Layer_1
 62
7
100
AcDbSpline
 70
8
 71
3
 72
8
 73
4
 74
0
 40
0
 40
0
 40
0
 40
0
 40
1
 40
1
 40
1
 40
1
 10
138.364296
 20
112.320877
 30
0.0
 10
138.306083
 20
112.338305
 30
0.0
 10
138.228185
 20
112.422413
 30
0.0
 10
138.130604
 20
112.573200
 30
0.0
  0
SPLINE
  5
239
100
AcDbEntity
  8
Layer_1
 62
7
100
AcDbSpline
 70
8
 71
3
 72
8
 73
4
 74
0
 40
0
 40
0
 40
0
 40
0
 40
1
 40
1
 40
1
 40
1
 10
138.130604
 20
112.573200
 30
0.0
 10
137.952437
 20
112.843260
 30
0.0
 10
137.698505
 20
113.284008
 30
0.0
 10
137.368807
 20
113.895444
 30
0.0
  0
SPLINE
  5
23a
100
AcDbEntity
  8
Layer_1
 62
7
100
AcDbSpline
 70
8
 71
3
 72
8
 73
4
 74
0
 40
0
 40
0
 40
0
 40
0
 40
1
 40
1
 40
1
 40
1
 10
137.368807
 20
113.895444
 30
0.0
 10
137.154674
 20
114.292561
 30
0.0
 10
136.930559
 20
114.753455
 30
0.0
 10
136.696464
 20
115.278125
 30
0.0
  0
SPLINE
  5
23b
100
AcDbEntity
  8
Layer_1
 62
7
100
AcDbSpline
 70
8
 71
3
 72
8
 73
4
 74
0
 40
0
 40
0
 40
0
 40
0
 40
1
 40
1
 40
1
 40
1
 10
136.696464
 20
115.278125
 30
0.0
 10
136.627496
 20
115.436206
 30
0.0
 10
136.600274
 20
115.539503
 30
0.0
 10
136.614796
 20
115.588015
 30
0.0
  0
SPLINE
  5
23c
100
AcDbEntity
  8
Layer_1
 62
7
100
AcDbSpline
 70
8
 71
3
 72
8
 73
4
 74
0
 40
0
 40
0
 40
0
 40
0
 40
1
 40
1
 40
1
 40
1
 10
136.614796
 20
115.588015
 30
0.0
 10
136.632718
 20
115.630223
 30
0.0
 10
136.720472
 20
115.693815
 30
0.0
 10
136.878058
 20
115.778788
 30
0.0
  0
SPLINE
  5
23d
100
AcDbEntity
  8
Layer_1
 62
7
100
AcDbSpline
 70
8
 71
3
 72
8
 73
4
 74
0
 40
0
 40
0
 40
0
 40
0
 40
1
 40
1
 40
1
 40
1
 10
136.878058
 20
115.778788
 30
0.0
 10
137.382335
 20
116.050704
 30
0.0
 10
138.137297
 20
116.453726
 30
0.0
 10
139.142946
 20
116.987856
 30
0.0
  0
SPLINE
  5
23e
100
AcDbEntity
  8
Layer_1
 62
7
100
AcDbSpline
 70
8
 71
3
 72
8
 73
4
 74
0
 40
0
 40
0
 40
0
 40
0
 40
1
 40
1
 40
1
 40
1
 10
139.142946
 20
116.987856
 30
0.0
 10
140.154898
 20
117.525384
 30
0.0
 10
140.913012
 20
117.930106
 30
0.0
 10
141.417289
 20
118.202022
 30
0.0
  0
SPLINE
  5
23f
100
AcDbEntity
  8
Layer_1
 62
7
100
AcDbSpline
 70
8
 71
3
 72
8
 73
4
 74
0
 40
0
 40
0
 40
0
 40
0
 40
1
 40
1
 40
1
 40
1
 10
141.417289
 20
118.202022
 30
0.0
 10
142.451056
 20
118.759449
 30
0.0
 10
143.573256
 20
119.462197
 30
0.0
 10
144.783890
 20
120.310264
 30
0.0
  0
SPLINE
  5
240
100
AcDbEntity
  8
Layer_1
 62
7
100
AcDbSpline
 70
8
 71
3
 72
8
 73
4
 74
0
 40
0
 40
0
 40
0
 40
0
 40
1
 40
1
 40
1
 40
1
 10
144.783890
 20
120.310264
 30
0.0
 10
144.852734
 20
120.363658
 30
0.0
 10
144.906066
 20
120.400552
 30
0.0
 10
144.943887
 20
120.420946
 30
0.0
  0
SPLINE
  5
241
100
AcDbEntity
  8
Layer_1
 62
7
100
AcDbSpline
 70
8
 71
3
 72
8
 73
4
 74
0
 40
0
 40
0
 40
0
 40
0
 40
1
 40
1
 40
1
 40
1
 10
144.943887
 20
120.420946
 30
0.0
 10
145.051045
 20
120.478728
 30
0.0
 10
145.147328
 20
120.473692
 30
0.0
 10
145.232734
 20
120.405837
 30
0.0
  0
SPLINE
  5
242
100
AcDbEntity
  8
Layer_1
 62
7
100
AcDbSpline
 70
8
 71
3
 72
8
 73
4
 74
0
 40
0
 40
0
 40
0
 40
0
 40
1
 40
1
 40
1
 40
1
 10
145.232734
 20
120.405837
 30
0.0
 10
145.364242
 20
120.297751
 30
0.0
 10
145.552574
 20
120.061650
 30
0.0
 10
145.797731
 20
119.697533
 30
0.0
  0
SPLINE
  5
243
100
AcDbEntity
  8
Layer_1
 62
7
100
AcDbSpline
 70
8
 71
3
 72
8
 73
4
 74
0
 40
0
 40
0
 40
0
 40
0
 40
1
 40
1
 40
1
 40
1
 10
145.797731
 20
119.697533
 30
0.0
 10
146.096776
 20
119.248566
 30
0.0
 10
146.276395
 20
118.983358
 30
0.0
 10
146.336587
 20
118.901907
 30
0.0
  0
SPLINE
  5
244
100
AcDbEntity
  8
Layer_1
 62
7
100
AcDbSpline
 70
8
 71
3
 72
8
 73
4
 74
0
 40
0
 40
0
 40
0
 40
0
 40
1
 40
1
 40
1
 40
1
 10
146.336587
 20
118.901907
 30
0.0
 10
146.383183
 20
118.845670
 30
0.0
 10
146.583628
 20
118.632373
 30
0.0
 10
146.937921
 20
118.262014
 30
0.0
  0
SPLINE
  5
245
100
AcDbEntity
  8
Layer_1
 62
7
100
AcDbSpline
 70
8
 71
3
 72
8
 73
4
 74
0
 40
0
 40
0
 40
0
 40
0
 40
1
 40
1
 40
1
 40
1
 10
146.937921
 20
118.262014
 30
0.0
 10
147.192718
 20
118.000730
 30
0.0
 10
147.371100
 20
117.775536
 30
0.0
 10
147.473069
 20
117.586432
 30
0.0
  0
SPLINE
  5
246
100
AcDbEntity
  8
Layer_1
 62
7
100
AcDbSpline
 70
8
 71
3
 72
8
 73
4
 74
0
 40
0
 40
0
 40
0
 40
0
 40
1
 40
1
 40
1
 40
1
 10
147.473069
 20
117.586432
 30
0.0
 10
147.537649
 20
117.466667
 30
0.0
 10
147.351017
 20
117.284669
 30
0.0
 10
146.913174
 20
117.040439
 30
0.0
  0
SPLINE
  5
247
100
AcDbEntity
  8
Layer_1
 62
7
100
AcDbSpline
 70
8
 71
3
 72
8
 73
4
 74
0
 40
0
 40
0
 40
0
 40
0
 40
1
 40
1
 40
1
 40
1
 10
146.913174
 20
117.040439
 30
0.0
 10
146.481635
 20
116.799608
 30
0.0
 10
146.277761
 20
116.657131
 30
0.0
 10
146.301554
 20
116.613007
 30
0.0
  0
SPLINE
  5
248
100
AcDbEntity
  8
Layer_1
 62
7
100
AcDbSpline
 70
8
 71
3
 72
8
 73
4
 74
0
 40
0
 40
0
 40
0
 40
0
 40
1
 40
1
 40
1
 40
1
 10
146.301554
 20
116.613007
 30
0.0
 10
146.360757
 20
116.563568
 30
0.0
 10
146.443969
 20
116.514871
 30
0.0
 10
146.551190
 20
116.466915
 30
0.0
  0
SPLINE
  5
249
100
AcDbEntity
  8
Layer_1
 62
7
100
AcDbSpline
 70
8
 71
3
 72
8
 73
4
 74
0
 40
0
 40
0
 40
0
 40
0
 40
1
 40
1
 40
1
 40
1
 10
146.551190
 20
116.466915
 30
0.0
 10
147.298337
 20
116.137531
 30
0.0
 10
147.842229
 20
115.853135
 30
0.0
 10
148.182864
 20
115.613727
 30
0.0
  0
SPLINE
  5
24a
100
AcDbEntity
  8
Layer_1
 62
7
100
AcDbSpline
 70
8
 71
3
 72
8
 73
4
 74
0
 40
0
 40
0
 40
0
 40
0
 40
1
 40
1
 40
1
 40
1
 10
148.182864
 20
115.613727
 30
0.0
 10
148.677811
 20
115.254122
 30
0.0
 10
149.078237
 20
114.790664
 30
0.0
 10
149.384142
 20
114.223353
 30
0.0
  0
SPLINE
  5
24b
100
AcDbEntity
  8
Layer_1
 62
7
100
AcDbSpline
 70
8
 71
3
 72
8
 73
4
 74
0
 40
0
 40
0
 40
0
 40
0
 40
1
 40
1
 40
1
 40
1
 10
149.384142
 20
114.223353
 30
0.0
 10
149.696845
 20
113.643435
 30
0.0
 10
149.846338
 20
113.056873
 30
0.0
 10
149.832621
 20
112.463667
 30
0.0
  0
SPLINE
  5
24c
100
AcDbEntity
  8
Layer_1
 62
7
100
AcDbSpline
 70
8
 71
3
 72
8
 73
4
 74
0
 40
0
 40
0
 40
0
 40
0
 40
1
 40
1
 40
1
 40
1
 10
149.832621
 20
112.463667
 30
0.0
 10
149.817976
 20
111.796736
 30
0.0
 10
149.589848
 20
111.246572
 30
0.0
 10
149.148236
 20
110.813177
 30
0.0
  0
SPLINE
  5
24d
100
AcDbEntity
  8
Layer_1
 62
7
100
AcDbSpline
 70
8
 71
3
 72
8
 73
4
 74
0
 40
0
 40
0
 40
0
 40
0
 40
1
 40
1
 40
1
 40
1
 10
149.148236
 20
110.813177
 30
0.0
 10
149.782229
 20
110.723818
 30
0.0
 10
150.411712
 20
110.469302
 30
0.0
 10
151.036683
 20
110.049629
 30
0.0
  0
SPLINE
  5
24e
100
AcDbEntity
  8
Layer_1
 62
7
100
AcDbSpline
 70
8
 71
3
 72
8
 73
4
 74
0
 40
0
 40
0
 40
0
 40
0
 40
1
 40
1
 40
1
 40
1
 10
151.036683
 20
110.049629
 30
0.0
 10
151.661655
 20
109.629955
 30
0.0
 10
152.123694
 20
109.142767
 30
0.0
 10
152.422801
 20
108.588063
 30
0.0
  0
SPLINE
  5
24f
100
AcDbEntity
  8
Layer_1
 62
7
100
AcDbSpline
 70
8
 71
3
 72
8
 73
4
 74
0
 40
0
 40
0
 40
0
 40
0
 40
1
 40
1
 40
1
 40
1
 10
152.422801
 20
108.588063
 30
0.0
 10
152.871463
 20
107.756006
 30
0.0
 10
153.044594
 20
106.974717
 30
0.0
 10
152.942196
 20
106.244194
 30
0.0
  0
SPLINE
  5
250
100
AcDbEntity
  8
Layer_1
 62
7
100
AcDbSpline
 70
8
 71
3
 72
8
 73
4
 74
0
 40
0
 40
0
 40
0
 40
0
 40
1
 40
1
 40
1
 40
1
 10
152.942196
 20
106.244194
 30
0.0
 10
152.826758
 20
105.417142
 30
0.0
 10
152.365618
 20
104.786083
 30
0.0
 10
151.558776
 20
104.351018
 30
0.0
  0
SPLINE
  5
251
100
AcDbEntity
  8
Layer_1
 62
7
100
AcDbSpline
 70
8
 71
3
 72
8
 73
4
 74
0
 40
0
 40
0
 40
0
 40
0
 40
1
 40
1
 40
1
 40
1
 10
151.558776
 20
104.351018
 30
0.0
 10
151.224693
 20
104.170873
 30
0.0
 10
150.715318
 20
103.908412
 30
0.0
 10
150.030651
 20
103.563635
 30
0.0
  0
SPLINE
  5
252
100
AcDbEntity
  8
Layer_1
 62
7
100
AcDbSpline
 70
8
 71
3
 72
8
 73
4
 74
0
 40
0
 40
0
 40
0
 40
0
 40
1
 40
1
 40
1
 40
1
 10
150.030651
 20
103.563635
 30
0.0
 10
149.352288
 20
103.222258
 30
0.0
 10
148.846065
 20
102.961497
 30
0.0
 10
148.511981
 20
102.781352
 30
0.0
  0
SPLINE
  5
253
100
AcDbEntity
  8
Layer_1
 62
7
100
AcDbSpline
 70
8
 71
3
 72
8
 73
4
 74
0
 40
0
 40
0
 40
0
 40
0
 40
1
 40
1
 40
1
 40
1
 10
148.511981
 20
102.781352
 30
0.0
 10
148.114863
 20
102.567219
 30
0.0
 10
147.521134
 20
102.234864
 30
0.0
 10
146.730791
 20
101.784287
 30
0.0
  0
SPLINE
  5
254
100
AcDbEntity
  8
Layer_1
 62
7
100
AcDbSpline
 70
8
 71
3
 72
8
 73
4
 74
0
 40
0
 40
0
 40
0
 40
0
 40
1
 40
1
 40
1
 40
1
 10
146.730791
 20
101.784287
 30
0.0
 10
145.946753
 20
101.337110
 30
0.0
 10
145.356174
 20
101.006454
 30
0.0
 10
144.959056
 20
100.792319
 30
0.0
  0
LWPOLYLINE
  5
255
100
AcDbEntity
  8
Layer_1
 62
7
100
AcDbPolyline
 90
2
 70
0
 10
141.330915
 20
106.683304
 30
0.0
 10
139.786108
 20
109.548283
 30
0.0
  0
SPLINE
  5
256
100
AcDbEntity
  8
Layer_1
 62
7
100
AcDbSpline
 70
8
 71
3
 72
8
 73
4
 74
0
 40
0
 40
0
 40
0
 40
0
 40
1
 40
1
 40
1
 40
1
 10
153.539894
 20
89.903788
 30
0.0
 10
153.014046
 20
89.737772
 30
0.0
 10
152.241806
 20
89.460171
 30
0.0
 10
151.223173
 20
89.070986
 30
0.0
  0
SPLINE
  5
257
100
AcDbEntity
  8
Layer_1
 62
7
100
AcDbSpline
 70
8
 71
3
 72
8
 73
4
 74
0
 40
0
 40
0
 40
0
 40
0
 40
1
 40
1
 40
1
 40
1
 10
151.223173
 20
89.070986
 30
0.0
 10
150.204541
 20
88.681803
 30
0.0
 10
149.435716
 20
88.405282
 30
0.0
 10
148.916698
 20
88.241421
 30
0.0
  0
SPLINE
  5
258
100
AcDbEntity
  8
Layer_1
 62
7
100
AcDbSpline
 70
8
 71
3
 72
8
 73
4
 74
0
 40
0
 40
0
 40
0
 40
0
 40
1
 40
1
 40
1
 40
1
 10
148.916698
 20
88.241421
 30
0.0
 10
148.643529
 20
88.155175
 30
0.0
 10
148.458971
 20
88.228335
 30
0.0
 10
148.363024
 20
88.460900
 30
0.0
  0
SPLINE
  5
259
100
AcDbEntity
  8
Layer_1
 62
7
100
AcDbSpline
 70
8
 71
3
 72
8
 73
4
 74
0
 40
0
 40
0
 40
0
 40
0
 40
1
 40
1
 40
1
 40
1
 10
148.363024
 20
88.460900
 30
0.0
 10
148.034209
 20
89.288307
 30
0.0
 10
147.697316
 20
90.248346
 30
0.0
 10
147.352347
 20
91.341017
 30
0.0
  0
SPLINE
  5
25a
100
AcDbEntity
  8
Layer_1
 62
7
100
AcDbSpline
 70
8
 71
3
 72
8
 73
4
 74
0
 40
0
 40
0
 40
0
 40
0
 40
1
 40
1
 40
1
 40
1
 10
147.352347
 20
91.341017
 30
0.0
 10
147.311382
 20
91.470771
 30
0.0
 10
147.477985
 20
91.620998
 30
0.0
 10
147.852156
 20
91.791697
 30
0.0
  0
SPLINE
  5
25b
100
AcDbEntity
  8
Layer_1
 62
7
100
AcDbSpline
 70
8
 71
3
 72
8
 73
4
 74
0
 40
0
 40
0
 40
0
 40
0
 40
1
 40
1
 40
1
 40
1
 10
147.852156
 20
91.791697
 30
0.0
 10
148.235313
 20
91.957724
 30
0.0
 10
148.420604
 20
92.072547
 30
0.0
 10
148.408028
 20
92.136165
 30
0.0
  0
SPLINE
  5
25c
100
AcDbEntity
  8
Layer_1
 62
7
100
AcDbSpline
 70
8
 71
3
 72
8
 73
4
 74
0
 40
0
 40
0
 40
0
 40
0
 40
1
 40
1
 40
1
 40
1
 10
148.408028
 20
92.136165
 30
0.0
 10
148.363463
 20
92.182174
 30
0.0
 10
148.282777
 20
92.235555
 30
0.0
 10
148.165968
 20
92.296306
 30
0.0
  0
SPLINE
  5
25d
100
AcDbEntity
  8
Layer_1
 62
7
100
AcDbSpline
 70
8
 71
3
 72
8
 73
4
 74
0
 40
0
 40
0
 40
0
 40
0
 40
1
 40
1
 40
1
 40
1
 10
148.165968
 20
92.296306
 30
0.0
 10
147.152791
 20
92.817540
 30
0.0
 10
146.508215
 20
93.515225
 30
0.0
 10
146.232239
 20
94.389361
 30
0.0
  0
SPLINE
  5
25e
100
AcDbEntity
  8
Layer_1
 62
7
100
AcDbSpline
 70
8
 71
3
 72
8
 73
4
 74
0
 40
0
 40
0
 40
0
 40
0
 40
1
 40
1
 40
1
 40
1
 10
146.232239
 20
94.389361
 30
0.0
 10
145.811808
 20
95.721054
 30
0.0
 10
145.989453
 20
96.989985
 30
0.0
 10
146.765172
 20
98.196153
 30
0.0
  0
SPLINE
  5
25f
100
AcDbEntity
  8
Layer_1
 62
7
100
AcDbSpline
 70
8
 71
3
 72
8
 73
4
 74
0
 40
0
 40
0
 40
0
 40
0
 40
1
 40
1
 40
1
 40
1
 10
146.765172
 20
98.196153
 30
0.0
 10
147.487693
 20
99.332957
 30
0.0
 10
148.531872
 20
100.116965
 30
0.0
 10
149.897709
 20
100.548176
 30
0.0
  0
SPLINE
  5
260
100
AcDbEntity
  8
Layer_1
 62
7
100
AcDbSpline
 70
8
 71
3
 72
8
 73
4
 74
0
 40
0
 40
0
 40
0
 40
0
 40
1
 40
1
 40
1
 40
1
 10
149.897709
 20
100.548176
 30
0.0
 10
151.475252
 20
101.046225
 30
0.0
 10
152.880235
 20
101.020428
 30
0.0
 10
154.112658
 20
100.470785
 30
0.0
  0
SPLINE
  5
261
100
AcDbEntity
  8
Layer_1
 62
7
100
AcDbSpline
 70
8
 71
3
 72
8
 73
4
 74
0
 40
0
 40
0
 40
0
 40
0
 40
1
 40
1
 40
1
 40
1
 10
154.112658
 20
100.470785
 30
0.0
 10
155.390008
 20
99.897775
 30
0.0
 10
156.272317
 20
98.839571
 30
0.0
 10
156.759586
 20
97.296174
 30
0.0
  0
SPLINE
  5
262
100
AcDbEntity
  8
Layer_1
 62
7
100
AcDbSpline
 70
8
 71
3
 72
8
 73
4
 74
0
 40
0
 40
0
 40
0
 40
0
 40
1
 40
1
 40
1
 40
1
 10
156.759586
 20
97.296174
 30
0.0
 10
157.098087
 20
96.223990
 30
0.0
 10
156.989832
 20
95.258587
 30
0.0
 10
156.434823
 20
94.399965
 30
0.0
  0
SPLINE
  5
263
100
AcDbEntity
  8
Layer_1
 62
7
100
AcDbSpline
 70
8
 71
3
 72
8
 73
4
 74
0
 40
0
 40
0
 40
0
 40
0
 40
1
 40
1
 40
1
 40
1
 10
156.434823
 20
94.399965
 30
0.0
 10
156.409300
 20
94.361874
 30
0.0
 10
156.399768
 20
94.332579
 30
0.0
 10
156.406228
 20
94.312080
 30
0.0
  0
SPLINE
  5
264
100
AcDbEntity
  8
Layer_1
 62
7
100
AcDbSpline
 70
8
 71
3
 72
8
 73
4
 74
0
 40
0
 40
0
 40
0
 40
0
 40
1
 40
1
 40
1
 40
1
 10
156.406228
 20
94.312080
 30
0.0
 10
156.425632
 20
94.250618
 30
0.0
 10
156.611094
 20
94.234076
 30
0.0
 10
156.962614
 20
94.262452
 30
0.0
  0
SPLINE
  5
265
100
AcDbEntity
  8
Layer_1
 62
7
100
AcDbSpline
 70
8
 71
3
 72
8
 73
4
 74
0
 40
0
 40
0
 40
0
 40
0
 40
1
 40
1
 40
1
 40
1
 10
156.962614
 20
94.262452
 30
0.0
 10
157.323116
 20
94.286143
 30
0.0
 10
157.520623
 20
94.243384
 30
0.0
 10
157.555134
 20
94.134175
 30
0.0
  0
SPLINE
  5
266
100
AcDbEntity
  8
Layer_1
 62
7
100
AcDbSpline
 70
8
 71
3
 72
8
 73
4
 74
0
 40
0
 40
0
 40
0
 40
0
 40
1
 40
1
 40
1
 40
1
 10
157.555134
 20
94.134175
 30
0.0
 10
157.634909
 20
93.881496
 30
0.0
 10
157.715204
 20
93.377400
 30
0.0
 10
157.796021
 20
92.621888
 30
0.0
  0
SPLINE
  5
267
100
AcDbEntity
  8
Layer_1
 62
7
100
AcDbSpline
 70
8
 71
3
 72
8
 73
4
 74
0
 40
0
 40
0
 40
0
 40
0
 40
1
 40
1
 40
1
 40
1
 10
157.796021
 20
92.621888
 30
0.0
 10
157.872887
 20
91.902676
 30
0.0
 10
157.909871
 20
91.381150
 30
0.0
 10
157.906973
 20
91.057310
 30
0.0
  0
SPLINE
  5
268
100
AcDbEntity
  8
Layer_1
 62
7
100
AcDbSpline
 70
8
 71
3
 72
8
 73
4
 74
0
 40
0
 40
0
 40
0
 40
0
 40
1
 40
1
 40
1
 40
1
 10
157.906973
 20
91.057310
 30
0.0
 10
157.898340
 20
90.941941
 30
0.0
 10
157.859877
 20
90.873475
 30
0.0
 10
157.791585
 20
90.851914
 30
0.0
  0
SPLINE
  5
269
100
AcDbEntity
  8
Layer_1
 62
7
100
AcDbSpline
 70
8
 71
3
 72
8
 73
4
 74
0
 40
0
 40
0
 40
0
 40
0
 40
1
 40
1
 40
1
 40
1
 10
157.791585
 20
90.851914
 30
0.0
 10
157.764252
 20
90.843223
 30
0.0
 10
157.689310
 20
90.830825
 30
0.0
 10
157.566761
 20
90.814720
 30
0.0
  0
SPLINE
  5
26a
100
AcDbEntity
  8
Layer_1
 62
7
100
AcDbSpline
 70
8
 71
3
 72
8
 73
4
 74
0
 40
0
 40
0
 40
0
 40
0
 40
1
 40
1
 40
1
 40
1
 10
157.566761
 20
90.814720
 30
0.0
 10
156.261684
 20
90.643008
 30
0.0
 10
154.919397
 20
90.339391
 30
0.0
 10
153.539901
 20
89.903868
 30
0.0
  0
LWPOLYLINE
  5
26b
100
AcDbEntity
  8
Layer_1
 62
7
100
AcDbPolyline
 90
1
 70
1
 10
144.959056
 20
100.792319
 30
0.0
  0
SPLINE
  5
26c
100
AcDbEntity
  8
Layer_1
 62
7
100
AcDbSpline
 70
8
 71
3
 72
8
 73
4
 74
0
 40
0
 40
0
 40
0
 40
0
 40
1
 40
1
 40
1
 40
1
 10
152.437054
 20
93.182880
 30
0.0
 10
153.017536
 20
93.366146
 30
0.0
 10
153.437366
 20
93.701459
 30
0.0
 10
153.696544
 20
94.188819
 30
0.0
  0
SPLINE
  5
26d
100
AcDbEntity
  8
Layer_1
 62
7
100
AcDbSpline
 70
8
 71
3
 72
8
 73
4
 74
0
 40
0
 40
0
 40
0
 40
0
 40
1
 40
1
 40
1
 40
1
 10
153.696544
 20
94.188819
 30
0.0
 10
153.964707
 20
94.671505
 30
0.0
 10
154.006078
 20
95.206502
 30
0.0
 10
153.820658
 20
95.793811
 30
0.0
  0
SPLINE
  5
26e
100
AcDbEntity
  8
Layer_1
 62
7
100
AcDbSpline
 70
8
 71
3
 72
8
 73
4
 74
0
 40
0
 40
0
 40
0
 40
0
 40
1
 40
1
 40
1
 40
1
 10
153.820658
 20
95.793811
 30
0.0
 10
153.635237
 20
96.381122
 30
0.0
 10
153.297589
 20
96.796459
 30
0.0
 10
152.807712
 20
97.039823
 30
0.0
  0
SPLINE
  5
26f
100
AcDbEntity
  8
Layer_1
 62
7
100
AcDbSpline
 70
8
 71
3
 72
8
 73
4
 74
0
 40
0
 40
0
 40
0
 40
0
 40
1
 40
1
 40
1
 40
1
 10
152.807712
 20
97.039823
 30
0.0
 10
152.317833
 20
97.283178
 30
0.0
 10
151.779240
 20
97.312149
 30
0.0
 10
151.191931
 20
97.126736
 30
0.0
  0
SPLINE
  5
270
100
AcDbEntity
  8
Layer_1
 62
7
100
AcDbSpline
 70
8
 71
3
 72
8
 73
4
 74
0
 40
0
 40
0
 40
0
 40
0
 40
1
 40
1
 40
1
 40
1
 10
151.191931
 20
97.126736
 30
0.0
 10
150.638768
 20
96.952097
 30
0.0
 10
150.224509
 20
96.611034
 30
0.0
 10
149.949154
 20
96.103547
 30
0.0
  0
SPLINE
  5
271
100
AcDbEntity
  8
Layer_1
 62
7
100
AcDbSpline
 70
8
 71
3
 72
8
 73
4
 74
0
 40
0
 40
0
 40
0
 40
0
 40
1
 40
1
 40
1
 40
1
 10
149.949154
 20
96.103547
 30
0.0
 10
149.673802
 20
95.596062
 30
0.0
 10
149.622368
 20
95.069151
 30
0.0
 10
149.794853
 20
94.522816
 30
0.0
  0
SPLINE
  5
272
100
AcDbEntity
  8
Layer_1
 62
7
100
AcDbSpline
 70
8
 71
3
 72
8
 73
4
 74
0
 40
0
 40
0
 40
0
 40
0
 40
1
 40
1
 40
1
 40
1
 10
149.794853
 20
94.522816
 30
0.0
 10
149.978118
 20
93.942335
 30
0.0
 10
150.315766
 20
93.526998
 30
0.0
 10
150.807799
 20
93.276804
 30
0.0
  0
SPLINE
  5
273
100
AcDbEntity
  8
Layer_1
 62
7
100
AcDbSpline
 70
8
 71
3
 72
8
 73
4
 74
0
 40
0
 40
0
 40
0
 40
0
 40
1
 40
1
 40
1
 40
1
 10
150.807799
 20
93.276804
 30
0.0
 10
151.306660
 20
93.028764
 30
0.0
 10
151.849745
 20
92.997456
 30
0.0
 10
152.437054
 20
93.182880
 30
0.0
  0
LWPOLYLINE
  5
274
100
AcDbEntity
  8
Layer_1
 62
7
100
AcDbPolyline
 90
1
 70
1
 10
153.539901
 20
89.903868
 30
0.0
  0
SPLINE
  5
275
100
AcDbEntity
  8
Layer_1
 62
7
100
AcDbSpline
 70
8
 71
3
 72
8
 73
4
 74
0
 40
0
 40
0
 40
0
 40
0
 40
1
 40
1
 40
1
 40
1
 10
158.495176
 20
81.575392
 30
0.0
 10
158.424760
 20
81.562339
 30
0.0
 10
158.319901
 20
81.597490
 30
0.0
 10
158.180599
 20
81.680847
 30
0.0
  0
SPLINE
  5
276
100
AcDbEntity
  8
Layer_1
 62
7
100
AcDbSpline
 70
8
 71
3
 72
8
 73
4
 74
0
 40
0
 40
0
 40
0
 40
0
 40
1
 40
1
 40
1
 40
1
 10
158.180599
 20
81.680847
 30
0.0
 10
158.193349
 20
81.887146
 30
0.0
 10
158.181454
 20
82.088877
 30
0.0
 10
158.144914
 20
82.286040
 30
0.0
  0
SPLINE
  5
277
100
AcDbEntity
  8
Layer_1
 62
7
100
AcDbSpline
 70
8
 71
3
 72
8
 73
4
 74
0
 40
0
 40
0
 40
0
 40
0
 40
1
 40
1
 40
1
 40
1
 10
158.144914
 20
82.286040
 30
0.0
 10
158.067918
 20
82.701491
 30
0.0
 10
157.911780
 20
83.033082
 30
0.0
 10
157.676499
 20
83.280813
 30
0.0
  0
SPLINE
  5
278
100
AcDbEntity
  8
Layer_1
 62
7
100
AcDbSpline
 70
8
 71
3
 72
8
 73
4
 74
0
 40
0
 40
0
 40
0
 40
0
 40
1
 40
1
 40
1
 40
1
 10
157.676499
 20
83.280813
 30
0.0
 10
157.402612
 20
83.579657
 30
0.0
 10
157.072025
 20
83.693189
 30
0.0
 10
156.684740
 20
83.621410
 30
0.0
  0
SPLINE
  5
279
100
AcDbEntity
  8
Layer_1
 62
7
100
AcDbSpline
 70
8
 71
3
 72
8
 73
4
 74
0
 40
0
 40
0
 40
0
 40
0
 40
1
 40
1
 40
1
 40
1
 10
156.684740
 20
83.621410
 30
0.0
 10
156.438287
 20
83.575741
 30
0.0
 10
156.158216
 20
83.338108
 30
0.0
 10
155.844527
 20
82.908512
 30
0.0
  0
SPLINE
  5
27a
100
AcDbEntity
  8
Layer_1
 62
7
100
AcDbSpline
 70
8
 71
3
 72
8
 73
4
 74
0
 40
0
 40
0
 40
0
 40
0
 40
1
 40
1
 40
1
 40
1
 10
155.844527
 20
82.908512
 30
0.0
 10
155.374648
 20
82.260607
 30
0.0
 10
155.052872
 20
81.855010
 30
0.0
 10
154.879199
 20
81.691722
 30
0.0
  0
SPLINE
  5
27b
100
AcDbEntity
  8
Layer_1
 62
7
100
AcDbSpline
 70
8
 71
3
 72
8
 73
4
 74
0
 40
0
 40
0
 40
0
 40
0
 40
1
 40
1
 40
1
 40
1
 10
154.879199
 20
81.691722
 30
0.0
 10
154.410597
 20
81.233423
 30
0.0
 10
153.869989
 20
80.947504
 30
0.0
 10
153.257375
 20
80.833967
 30
0.0
  0
SPLINE
  5
27c
100
AcDbEntity
  8
Layer_1
 62
7
100
AcDbSpline
 70
8
 71
3
 72
8
 73
4
 74
0
 40
0
 40
0
 40
0
 40
0
 40
1
 40
1
 40
1
 40
1
 10
153.257375
 20
80.833967
 30
0.0
 10
152.898257
 20
80.767417
 30
0.0
 10
152.504964
 20
80.767361
 30
0.0
 10
152.077494
 20
80.833801
 30
0.0
  0
SPLINE
  5
27d
100
AcDbEntity
  8
Layer_1
 62
7
100
AcDbSpline
 70
8
 71
3
 72
8
 73
4
 74
0
 40
0
 40
0
 40
0
 40
0
 40
1
 40
1
 40
1
 40
1
 10
152.077494
 20
80.833801
 30
0.0
 10
151.603861
 20
80.913541
 30
0.0
 10
151.242106
 20
81.057719
 30
0.0
 10
150.992227
 20
81.266335
 30
0.0
  0
SPLINE
  5
27e
100
AcDbEntity
  8
Layer_1
 62
7
100
AcDbSpline
 70
8
 71
3
 72
8
 73
4
 74
0
 40
0
 40
0
 40
0
 40
0
 40
1
 40
1
 40
1
 40
1
 10
150.992227
 20
81.266335
 30
0.0
 10
150.444997
 20
81.703888
 30
0.0
 10
149.951870
 20
82.242511
 30
0.0
 10
149.512845
 20
82.882202
 30
0.0
  0
SPLINE
  5
27f
100
AcDbEntity
  8
Layer_1
 62
7
100
AcDbSpline
 70
8
 71
3
 72
8
 73
4
 74
0
 40
0
 40
0
 40
0
 40
0
 40
1
 40
1
 40
1
 40
1
 10
149.512845
 20
82.882202
 30
0.0
 10
149.049298
 20
83.575619
 30
0.0
 10
148.758799
 20
84.239196
 30
0.0
 10
148.641347
 20
84.872934
 30
0.0
  0
SPLINE
  5
280
100
AcDbEntity
  8
Layer_1
 62
7
100
AcDbSpline
 70
8
 71
3
 72
8
 73
4
 74
0
 40
0
 40
0
 40
0
 40
0
 40
1
 40
1
 40
1
 40
1
 10
148.641347
 20
84.872934
 30
0.0
 10
148.615246
 20
85.013758
 30
0.0
 10
148.936764
 20
85.401098
 30
0.0
 10
149.605901
 20
86.034955
 30
0.0
  0
SPLINE
  5
281
100
AcDbEntity
  8
Layer_1
 62
7
100
AcDbSpline
 70
8
 71
3
 72
8
 73
4
 74
0
 40
0
 40
0
 40
0
 40
0
 40
1
 40
1
 40
1
 40
1
 10
149.605901
 20
86.034955
 30
0.0
 10
150.283383
 20
86.663069
 30
0.0
 10
150.706623
 20
86.992786
 30
0.0
 10
150.875620
 20
87.024105
 30
0.0
  0
SPLINE
  5
282
100
AcDbEntity
  8
Layer_1
 62
7
100
AcDbSpline
 70
8
 71
3
 72
8
 73
4
 74
0
 40
0
 40
0
 40
0
 40
0
 40
1
 40
1
 40
1
 40
1
 10
150.875620
 20
87.024105
 30
0.0
 10
150.938995
 20
87.035856
 30
0.0
 10
150.984901
 20
87.004306
 30
0.0
 10
151.013337
 20
86.929454
 30
0.0
  0
SPLINE
  5
283
100
AcDbEntity
  8
Layer_1
 62
7
100
AcDbSpline
 70
8
 71
3
 72
8
 73
4
 74
0
 40
0
 40
0
 40
0
 40
0
 40
1
 40
1
 40
1
 40
1
 10
151.013337
 20
86.929454
 30
0.0
 10
151.196228
 20
86.453511
 30
0.0
 10
151.379772
 20
85.974047
 30
0.0
 10
151.563968
 20
85.491062
 30
0.0
  0
SPLINE
  5
284
100
AcDbEntity
  8
Layer_1
 62
7
100
AcDbSpline
 70
8
 71
3
 72
8
 73
4
 74
0
 40
0
 40
0
 40
0
 40
0
 40
1
 40
1
 40
1
 40
1
 10
151.563968
 20
85.491062
 30
0.0
 10
151.875972
 20
84.907946
 30
0.0
 10
152.257304
 20
84.658149
 30
0.0
 10
152.707963
 20
84.741671
 30
0.0
  0
SPLINE
  5
285
100
AcDbEntity
  8
Layer_1
 62
7
100
AcDbSpline
 70
8
 71
3
 72
8
 73
4
 74
0
 40
0
 40
0
 40
0
 40
0
 40
1
 40
1
 40
1
 40
1
 10
152.707963
 20
84.741671
 30
0.0
 10
153.017791
 20
84.799091
 30
0.0
 10
153.343632
 20
85.045206
 30
0.0
 10
153.685485
 20
85.480015
 30
0.0
  0
SPLINE
  5
286
100
AcDbEntity
  8
Layer_1
 62
7
100
AcDbSpline
 70
8
 71
3
 72
8
 73
4
 74
0
 40
0
 40
0
 40
0
 40
0
 40
1
 40
1
 40
1
 40
1
 10
153.685485
 20
85.480015
 30
0.0
 10
154.277946
 20
86.252683
 30
0.0
 10
154.592692
 20
86.657015
 30
0.0
 10
154.629721
 20
86.693012
 30
0.0
  0
SPLINE
  5
287
100
AcDbEntity
  8
Layer_1
 62
7
100
AcDbSpline
 70
8
 71
3
 72
8
 73
4
 74
0
 40
0
 40
0
 40
0
 40
0
 40
1
 40
1
 40
1
 40
1
 10
154.629721
 20
86.693012
 30
0.0
 10
155.070157
 20
87.146092
 30
0.0
 10
155.572036
 20
87.424832
 30
0.0
 10
156.135359
 20
87.529232
 30
0.0
  0
SPLINE
  5
288
100
AcDbEntity
  8
Layer_1
 62
7
100
AcDbSpline
 70
8
 71
3
 72
8
 73
4
 74
0
 40
0
 40
0
 40
0
 40
0
 40
1
 40
1
 40
1
 40
1
 10
156.135359
 20
87.529232
 30
0.0
 10
157.191591
 20
87.724984
 30
0.0
 10
158.188569
 20
87.356216
 30
0.0
 10
159.126294
 20
86.422928
 30
0.0
  0
SPLINE
  5
289
100
AcDbEntity
  8
Layer_1
 62
7
100
AcDbSpline
 70
8
 71
3
 72
8
 73
4
 74
0
 40
0
 40
0
 40
0
 40
0
 40
1
 40
1
 40
1
 40
1
 10
159.126294
 20
86.422928
 30
0.0
 10
159.958639
 20
85.586645
 30
0.0
 10
160.475951
 20
84.622784
 30
0.0
 10
160.678228
 20
83.531343
 30
0.0
  0
SPLINE
  5
28a
100
AcDbEntity
  8
Layer_1
 62
7
100
AcDbSpline
 70
8
 71
3
 72
8
 73
4
 74
0
 40
0
 40
0
 40
0
 40
0
 40
1
 40
1
 40
1
 40
1
 10
160.678228
 20
83.531343
 30
0.0
 10
160.699107
 20
83.418677
 30
0.0
 10
160.370412
 20
83.070065
 30
0.0
 10
159.692142
 20
82.485507
 30
0.0
  0
SPLINE
  5
28b
100
AcDbEntity
  8
Layer_1
 62
7
100
AcDbSpline
 70
8
 71
3
 72
8
 73
4
 74
0
 40
0
 40
0
 40
0
 40
0
 40
1
 40
1
 40
1
 40
1
 10
159.692142
 20
82.485507
 30
0.0
 10
159.020913
 20
81.902254
 30
0.0
 10
158.621924
 20
81.598883
 30
0.0
 10
158.495176
 20
81.575392
 30
0.0
  0
LWPOLYLINE
  5
28c
100
AcDbEntity
  8
Layer_1
 62
7
100
AcDbPolyline
 90
1
 70
1
 10
152.437054
 20
93.182880
 30
0.0
  0
SPLINE
  5
28d
100
AcDbEntity
  8
Layer_1
 62
7
100
AcDbSpline
 70
8
 71
3
 72
8
 73
4
 74
0
 40
0
 40
0
 40
0
 40
0
 40
1
 40
1
 40
1
 40
1
 10
33.467432
 20
118.592906
 30
0.0
 10
33.597852
 20
118.518023
 30
0.0
 10
33.662535
 20
118.443713
 30
0.0
 10
33.661480
 20
118.369974
 30
0.0
  0
SPLINE
  5
28e
100
AcDbEntity
  8
Layer_1
 62
7
100
AcDbSpline
 70
8
 71
3
 72
8
 73
4
 74
0
 40
0
 40
0
 40
0
 40
0
 40
1
 40
1
 40
1
 40
1
 10
33.661480
 20
118.369974
 30
0.0
 10
33.665842
 20
118.334426
 30
0.0
 10
33.631436
 20
118.238567
 30
0.0
 10
33.558261
 20
118.082396
 30
0.0
  0
SPLINE
  5
28f
100
AcDbEntity
  8
Layer_1
 62
7
100
AcDbSpline
 70
8
 71
3
 72
8
 73
4
 74
0
 40
0
 40
0
 40
0
 40
0
 40
1
 40
1
 40
1
 40
1
 10
33.558261
 20
118.082396
 30
0.0
 10
33.377962
 20
117.682177
 30
0.0
 10
33.089868
 20
117.137403
 30
0.0
 10
32.693980
 20
116.448076
 30
0.0
  0
SPLINE
  5
290
100
AcDbEntity
  8
Layer_1
 62
7
100
AcDbSpline
 70
8
 71
3
 72
8
 73
4
 74
0
 40
0
 40
0
 40
0
 40
0
 40
1
 40
1
 40
1
 40
1
 10
32.693980
 20
116.448076
 30
0.0
 10
32.134030
 20
115.473082
 30
0.0
 10
31.785493
 20
114.909342
 30
0.0
 10
31.648368
 20
114.756857
 30
0.0
  0
SPLINE
  5
291
100
AcDbEntity
  8
Layer_1
 62
7
100
AcDbSpline
 70
8
 71
3
 72
8
 73
4
 74
0
 40
0
 40
0
 40
0
 40
0
 40
1
 40
1
 40
1
 40
1
 10
31.648368
 20
114.756857
 30
0.0
 10
31.514807
 20
114.610576
 30
0.0
 10
31.382821
 20
114.574886
 30
0.0
 10
31.252409
 20
114.649787
 30
0.0
  0
SPLINE
  5
292
100
AcDbEntity
  8
Layer_1
 62
7
100
AcDbSpline
 70
8
 71
3
 72
8
 73
4
 74
0
 40
0
 40
0
 40
0
 40
0
 40
1
 40
1
 40
1
 40
1
 10
31.252409
 20
114.649787
 30
0.0
 10
30.761804
 20
114.931541
 30
0.0
 10
30.038383
 20
115.375914
 30
0.0
 10
29.082146
 20
115.982905
 30
0.0
  0
SPLINE
  5
293
100
AcDbEntity
  8
Layer_1
 62
7
100
AcDbSpline
 70
8
 71
3
 72
8
 73
4
 74
0
 40
0
 40
0
 40
0
 40
0
 40
1
 40
1
 40
1
 40
1
 10
29.082146
 20
115.982905
 30
0.0
 10
28.123267
 20
116.599678
 30
0.0
 10
27.398524
 20
117.048940
 30
0.0
 10
26.907918
 20
117.330690
 30
0.0
  0
SPLINE
  5
294
100
AcDbEntity
  8
Layer_1
 62
7
100
AcDbSpline
 70
8
 71
3
 72
8
 73
4
 74
0
 40
0
 40
0
 40
0
 40
0
 40
1
 40
1
 40
1
 40
1
 10
26.907918
 20
117.330690
 30
0.0
 10
26.665721
 20
117.469786
 30
0.0
 10
26.486759
 20
117.481718
 30
0.0
 10
26.371030
 20
117.366486
 30
0.0
  0
SPLINE
  5
295
100
AcDbEntity
  8
Layer_1
 62
7
100
AcDbSpline
 70
8
 71
3
 72
8
 73
4
 74
0
 40
0
 40
0
 40
0
 40
0
 40
1
 40
1
 40
1
 40
1
 10
26.371030
 20
117.366486
 30
0.0
 10
26.200086
 20
117.183872
 30
0.0
 10
25.743692
 20
116.446710
 30
0.0
 10
25.001847
 20
115.154999
 30
0.0
  0
SPLINE
  5
296
100
AcDbEntity
  8
Layer_1
 62
7
100
AcDbSpline
 70
8
 71
3
 72
8
 73
4
 74
0
 40
0
 40
0
 40
0
 40
0
 40
1
 40
1
 40
1
 40
1
 10
25.001847
 20
115.154999
 30
0.0
 10
24.256435
 20
113.857074
 30
0.0
 10
23.846155
 20
113.085168
 30
0.0
 10
23.771006
 20
112.839280
 30
0.0
  0
SPLINE
  5
297
100
AcDbEntity
  8
Layer_1
 62
7
100
AcDbSpline
 70
8
 71
3
 72
8
 73
4
 74
0
 40
0
 40
0
 40
0
 40
0
 40
1
 40
1
 40
1
 40
1
 10
23.771006
 20
112.839280
 30
0.0
 10
23.723593
 20
112.684826
 30
0.0
 10
23.824090
 20
112.536269
 30
0.0
 10
24.072499
 20
112.393611
 30
0.0
  0
SPLINE
  5
298
100
AcDbEntity
  8
Layer_1
 62
7
100
AcDbSpline
 70
8
 71
3
 72
8
 73
4
 74
0
 40
0
 40
0
 40
0
 40
0
 40
1
 40
1
 40
1
 40
1
 10
24.072499
 20
112.393611
 30
0.0
 10
24.556892
 20
112.115419
 30
0.0
 10
25.292397
 20
111.713657
 30
0.0
 10
26.279014
 20
111.188322
 30
0.0
  0
SPLINE
  5
299
100
AcDbEntity
  8
Layer_1
 62
7
100
AcDbSpline
 70
8
 71
3
 72
8
 73
4
 74
0
 40
0
 40
0
 40
0
 40
0
 40
1
 40
1
 40
1
 40
1
 10
26.279014
 20
111.188322
 30
0.0
 10
27.259419
 20
110.666551
 30
0.0
 10
27.991818
 20
110.266569
 30
0.0
 10
28.476210
 20
109.988378
 30
0.0
  0
SPLINE
  5
29a
100
AcDbEntity
  8
Layer_1
 62
7
100
AcDbSpline
 70
8
 71
3
 72
8
 73
4
 74
0
 40
0
 40
0
 40
0
 40
0
 40
1
 40
1
 40
1
 40
1
 10
28.476210
 20
109.988378
 30
0.0
 10
28.662515
 20
109.881380
 30
0.0
 10
28.723044
 20
109.735128
 30
0.0
 10
28.657798
 20
109.549623
 30
0.0
  0
SPLINE
  5
29b
100
AcDbEntity
  8
Layer_1
 62
7
100
AcDbSpline
 70
8
 71
3
 72
8
 73
4
 74
0
 40
0
 40
0
 40
0
 40
0
 40
1
 40
1
 40
1
 40
1
 10
28.657798
 20
109.549623
 30
0.0
 10
28.580929
 20
109.329498
 30
0.0
 10
28.264303
 20
108.735043
 30
0.0
 10
27.707919
 20
107.766259
 30
0.0
  0
SPLINE
  5
29c
100
AcDbEntity
  8
Layer_1
 62
7
100
AcDbSpline
 70
8
 71
3
 72
8
 73
4
 74
0
 40
0
 40
0
 40
0
 40
0
 40
1
 40
1
 40
1
 40
1
 10
27.707919
 20
107.766259
 30
0.0
 10
27.226434
 20
106.927887
 30
0.0
 10
26.901079
 20
106.404514
 30
0.0
 10
26.731855
 20
106.196138
 30
0.0
  0
SPLINE
  5
29d
100
AcDbEntity
  8
Layer_1
 62
7
100
AcDbSpline
 70
8
 71
3
 72
8
 73
4
 74
0
 40
0
 40
0
 40
0
 40
0
 40
1
 40
1
 40
1
 40
1
 10
26.731855
 20
106.196138
 30
0.0
 10
26.597374
 20
106.033875
 30
0.0
 10
26.449403
 20
105.999112
 30
0.0
 10
26.287942
 20
106.091850
 30
0.0
  0
SPLINE
  5
29e
100
AcDbEntity
  8
Layer_1
 62
7
100
AcDbSpline
 70
8
 71
3
 72
8
 73
4
 74
0
 40
0
 40
0
 40
0
 40
0
 40
1
 40
1
 40
1
 40
1
 10
26.287942
 20
106.091850
 30
0.0
 10
25.617245
 20
106.477039
 30
0.0
 10
24.622822
 20
107.089440
 30
0.0
 10
23.304672
 20
107.929052
 30
0.0
  0
SPLINE
  5
29f
100
AcDbEntity
  8
Layer_1
 62
7
100
AcDbSpline
 70
8
 71
3
 72
8
 73
4
 74
0
 40
0
 40
0
 40
0
 40
0
 40
1
 40
1
 40
1
 40
1
 10
23.304672
 20
107.929052
 30
0.0
 10
21.990090
 20
108.774873
 30
0.0
 10
20.994344
 20
109.392162
 30
0.0
 10
20.317437
 20
109.780917
 30
0.0
  0
SPLINE
  5
2a0
100
AcDbEntity
  8
Layer_1
 62
7
100
AcDbSpline
 70
8
 71
3
 72
8
 73
4
 74
0
 40
0
 40
0
 40
0
 40
0
 40
1
 40
1
 40
1
 40
1
 10
20.317437
 20
109.780917
 30
0.0
 10
19.597060
 20
110.194642
 30
0.0
 10
18.498659
 20
110.784171
 30
0.0
 10
17.022234
 20
111.549506
 30
0.0
  0
SPLINE
  5
2a1
100
AcDbEntity
  8
Layer_1
 62
7
100
AcDbSpline
 70
8
 71
3
 72
8
 73
4
 74
0
 40
0
 40
0
 40
0
 40
0
 40
1
 40
1
 40
1
 40
1
 10
17.022234
 20
111.549506
 30
0.0
 10
15.539604
 20
112.318420
 30
0.0
 10
14.438097
 20
112.909731
 30
0.0
 10
13.717712
 20
113.323439
 30
0.0
  0
SPLINE
  5
2a2
100
AcDbEntity
  8
Layer_1
 62
7
100
AcDbSpline
 70
8
 71
3
 72
8
 73
4
 74
0
 40
0
 40
0
 40
0
 40
0
 40
1
 40
1
 40
1
 40
1
 10
13.717712
 20
113.323439
 30
0.0
 10
13.581112
 20
113.401953
 30
0.0
 10
13.550250
 20
113.506393
 30
0.0
 10
13.625126
 20
113.636761
 30
0.0
  0
SPLINE
  5
2a3
100
AcDbEntity
  8
Layer_1
 62
7
100
AcDbSpline
 70
8
 71
3
 72
8
 73
4
 74
0
 40
0
 40
0
 40
0
 40
0
 40
1
 40
1
 40
1
 40
1
 10
13.625126
 20
113.636761
 30
0.0
 10
13.735689
 20
113.829274
 30
0.0
 10
13.910850
 20
114.112696
 30
0.0
 10
14.150607
 20
114.487026
 30
0.0
  0
SPLINE
  5
2a4
100
AcDbEntity
  8
Layer_1
 62
7
100
AcDbSpline
 70
8
 71
3
 72
8
 73
4
 74
0
 40
0
 40
0
 40
0
 40
0
 40
1
 40
1
 40
1
 40
1
 10
14.150607
 20
114.487026
 30
0.0
 10
14.393931
 20
114.867567
 30
0.0
 10
14.570875
 20
115.154095
 30
0.0
 10
14.681439
 20
115.346611
 30
0.0
  0
SPLINE
  5
2a5
100
AcDbEntity
  8
Layer_1
 62
7
100
AcDbSpline
 70
8
 71
3
 72
8
 73
4
 74
0
 40
0
 40
0
 40
0
 40
0
 40
1
 40
1
 40
1
 40
1
 10
14.681439
 20
115.346611
 30
0.0
 10
14.795568
 20
115.545334
 30
0.0
 10
14.957448
 20
115.848771
 30
0.0
 10
15.167077
 20
116.256922
 30
0.0
  0
SPLINE
  5
2a6
100
AcDbEntity
  8
Layer_1
 62
7
100
AcDbSpline
 70
8
 71
3
 72
8
 73
4
 74
0
 40
0
 40
0
 40
0
 40
0
 40
1
 40
1
 40
1
 40
1
 10
15.167077
 20
116.256922
 30
0.0
 10
15.380273
 20
116.671283
 30
0.0
 10
15.543936
 20
116.977826
 30
0.0
 10
15.658066
 20
117.176551
 30
0.0
  0
SPLINE
  5
2a7
100
AcDbEntity
  8
Layer_1
 62
7
100
AcDbSpline
 70
8
 71
3
 72
8
 73
4
 74
0
 40
0
 40
0
 40
0
 40
0
 40
1
 40
1
 40
1
 40
1
 10
15.658066
 20
117.176551
 30
0.0
 10
15.718700
 20
117.282126
 30
0.0
 10
15.804909
 20
117.302816
 30
0.0
 10
15.916692
 20
117.238621
 30
0.0
  0
SPLINE
  5
2a8
100
AcDbEntity
  8
Layer_1
 62
7
100
AcDbSpline
 70
8
 71
3
 72
8
 73
4
 74
0
 40
0
 40
0
 40
0
 40
0
 40
1
 40
1
 40
1
 40
1
 10
15.916692
 20
117.238621
 30
0.0
 10
16.382457
 20
116.971135
 30
0.0
 10
17.061484
 20
116.535741
 30
0.0
 10
17.953773
 20
115.932441
 30
0.0
  0
SPLINE
  5
2a9
100
AcDbEntity
  8
Layer_1
 62
7
100
AcDbSpline
 70
8
 71
3
 72
8
 73
4
 74
0
 40
0
 40
0
 40
0
 40
0
 40
1
 40
1
 40
1
 40
1
 10
17.953773
 20
115.932441
 30
0.0
 10
18.839854
 20
115.332709
 30
0.0
 10
19.515776
 20
114.899098
 30
0.0
 10
19.981538
 20
114.631606
 30
0.0
  0
SPLINE
  5
2aa
100
AcDbEntity
  8
Layer_1
 62
7
100
AcDbSpline
 70
8
 71
3
 72
8
 73
4
 74
0
 40
0
 40
0
 40
0
 40
0
 40
1
 40
1
 40
1
 40
1
 10
19.981538
 20
114.631606
 30
0.0
 10
20.198894
 20
114.506778
 30
0.0
 10
20.360086
 20
114.492662
 30
0.0
 10
20.465112
 20
114.589258
 30
0.0
  0
SPLINE
  5
2ab
100
AcDbEntity
  8
Layer_1
 62
7
100
AcDbSpline
 70
8
 71
3
 72
8
 73
4
 74
0
 40
0
 40
0
 40
0
 40
0
 40
1
 40
1
 40
1
 40
1
 10
20.465112
 20
114.589258
 30
0.0
 10
20.607524
 20
114.722189
 30
0.0
 10
21.088885
 20
115.502824
 30
0.0
 10
21.909195
 20
116.931162
 30
0.0
  0
SPLINE
  5
2ac
100
AcDbEntity
  8
Layer_1
 62
7
100
AcDbSpline
 70
8
 71
3
 72
8
 73
4
 74
0
 40
0
 40
0
 40
0
 40
0
 40
1
 40
1
 40
1
 40
1
 10
21.909195
 20
116.931162
 30
0.0
 10
22.672438
 20
118.260136
 30
0.0
 10
23.089851
 20
119.044462
 30
0.0
 10
23.161433
 20
119.284139
 30
0.0
  0
SPLINE
  5
2ad
100
AcDbEntity
  8
Layer_1
 62
7
100
AcDbSpline
 70
8
 71
3
 72
8
 73
4
 74
0
 40
0
 40
0
 40
0
 40
0
 40
1
 40
1
 40
1
 40
1
 10
23.161433
 20
119.284139
 30
0.0
 10
23.209772
 20
119.454587
 30
0.0
 10
23.125262
 20
119.602222
 30
0.0
 10
22.907904
 20
119.727047
 30
0.0
  0
SPLINE
  5
2ae
100
AcDbEntity
  8
Layer_1
 62
7
100
AcDbSpline
 70
8
 71
3
 72
8
 73
4
 74
0
 40
0
 40
0
 40
0
 40
0
 40
1
 40
1
 40
1
 40
1
 10
22.907904
 20
119.727047
 30
0.0
 10
22.460775
 20
119.983846
 30
0.0
 10
21.774492
 20
120.349086
 30
0.0
 10
20.849053
 20
120.822768
 30
0.0
  0
SPLINE
  5
2af
100
AcDbEntity
  8
Layer_1
 62
7
100
AcDbSpline
 70
8
 71
3
 72
8
 73
4
 74
0
 40
0
 40
0
 40
0
 40
0
 40
1
 40
1
 40
1
 40
1
 10
20.849053
 20
120.822768
 30
0.0
 10
19.917403
 20
121.300012
 30
0.0
 10
19.224907
 20
121.668814
 30
0.0
 10
18.771567
 20
121.929176
 30
0.0
  0
SPLINE
  5
2b0
100
AcDbEntity
  8
Layer_1
 62
7
100
AcDbSpline
 70
8
 71
3
 72
8
 73
4
 74
0
 40
0
 40
0
 40
0
 40
0
 40
1
 40
1
 40
1
 40
1
 10
18.771567
 20
121.929176
 30
0.0
 10
18.579050
 20
122.039736
 30
0.0
 10
18.527375
 20
122.172645
 30
0.0
 10
18.616540
 20
122.327902
 30
0.0
  0
SPLINE
  5
2b1
100
AcDbEntity
  8
Layer_1
 62
7
100
AcDbSpline
 70
8
 71
3
 72
8
 73
4
 74
0
 40
0
 40
0
 40
0
 40
0
 40
1
 40
1
 40
1
 40
1
 10
18.616540
 20
122.327902
 30
0.0
 10
18.719971
 20
122.507997
 30
0.0
 10
18.886215
 20
122.775894
 30
0.0
 10
19.115273
 20
123.131595
 30
0.0
  0
SPLINE
  5
2b2
100
AcDbEntity
  8
Layer_1
 62
7
100
AcDbSpline
 70
8
 71
3
 72
8
 73
4
 74
0
 40
0
 40
0
 40
0
 40
0
 40
1
 40
1
 40
1
 40
1
 10
19.115273
 20
123.131595
 30
0.0
 10
19.347896
 20
123.493506
 30
0.0
 10
19.517707
 20
123.767613
 30
0.0
 10
19.624705
 20
123.953916
 30
0.0
  0
SPLINE
  5
2b3
100
AcDbEntity
  8
Layer_1
 62
7
100
AcDbSpline
 70
8
 71
3
 72
8
 73
4
 74
0
 40
0
 40
0
 40
0
 40
0
 40
1
 40
1
 40
1
 40
1
 10
19.624705
 20
123.953916
 30
0.0
 10
19.728135
 20
124.134011
 30
0.0
 10
19.875749
 20
124.412607
 30
0.0
 10
20.067546
 20
124.789705
 30
0.0
  0
SPLINE
  5
2b4
100
AcDbEntity
  8
Layer_1
 62
7
100
AcDbSpline
 70
8
 71
3
 72
8
 73
4
 74
0
 40
0
 40
0
 40
0
 40
0
 40
1
 40
1
 40
1
 40
1
 10
20.067546
 20
124.789705
 30
0.0
 10
20.262909
 20
125.173015
 30
0.0
 10
20.414089
 20
125.457822
 30
0.0
 10
20.521085
 20
125.644126
 30
0.0
  0
SPLINE
  5
2b5
100
AcDbEntity
  8
Layer_1
 62
7
100
AcDbSpline
 70
8
 71
3
 72
8
 73
4
 74
0
 40
0
 40
0
 40
0
 40
0
 40
1
 40
1
 40
1
 40
1
 10
20.521085
 20
125.644126
 30
0.0
 10
20.624516
 20
125.824223
 30
0.0
 10
20.750753
 20
125.871471
 30
0.0
 10
20.899797
 20
125.785873
 30
0.0
  0
SPLINE
  5
2b6
100
AcDbEntity
  8
Layer_1
 62
7
100
AcDbSpline
 70
8
 71
3
 72
8
 73
4
 74
0
 40
0
 40
0
 40
0
 40
0
 40
1
 40
1
 40
1
 40
1
 10
20.899797
 20
125.785873
 30
0.0
 10
21.613962
 20
125.375711
 30
0.0
 10
22.673592
 20
124.725862
 30
0.0
 10
24.078687
 20
123.836326
 30
0.0
  0
SPLINE
  5
2b7
100
AcDbEntity
  8
Layer_1
 62
7
100
AcDbSpline
 70
8
 71
3
 72
8
 73
4
 74
0
 40
0
 40
0
 40
0
 40
0
 40
1
 40
1
 40
1
 40
1
 10
24.078687
 20
123.836326
 30
0.0
 10
25.487345
 20
122.952992
 30
0.0
 10
26.551863
 20
122.304465
 30
0.0
 10
27.272242
 20
121.890744
 30
0.0
  0
SPLINE
  5
2b8
100
AcDbEntity
  8
Layer_1
 62
7
100
AcDbSpline
 70
8
 71
3
 72
8
 73
4
 74
0
 40
0
 40
0
 40
0
 40
0
 40
1
 40
1
 40
1
 40
1
 10
27.272242
 20
121.890744
 30
0.0
 10
27.949150
 20
121.501992
 30
0.0
 10
28.982345
 20
120.949913
 30
0.0
 10
30.371827
 20
120.234506
 30
0.0
  0
SPLINE
  5
2b9
100
AcDbEntity
  8
Layer_1
 62
7
100
AcDbSpline
 70
8
 71
3
 72
8
 73
4
 74
0
 40
0
 40
0
 40
0
 40
0
 40
1
 40
1
 40
1
 40
1
 10
30.371827
 20
120.234506
 30
0.0
 10
31.764873
 20
119.525305
 30
0.0
 10
32.796744
 20
118.978110
 30
0.0
 10
33.467441
 20
118.592921
 30
0.0
  0
LWPOLYLINE
  5
2ba
100
AcDbEntity
  8
Layer_1
 62
7
100
AcDbPolyline
 90
1
 70
1
 10
158.495176
 20
81.575392
 30
0.0
  0
SPLINE
  5
2bb
100
AcDbEntity
  8
Layer_1
 62
7
100
AcDbSpline
 70
8
 71
3
 72
8
 73
4
 74
0
 40
0
 40
0
 40
0
 40
0
 40
1
 40
1
 40
1
 40
1
 10
37.768916
 20
131.683145
 30
0.0
 10
38.192574
 20
131.330172
 30
0.0
 10
38.843182
 20
130.830047
 30
0.0
 10
39.720741
 20
130.182768
 30
0.0
  0
SPLINE
  5
2bc
100
AcDbEntity
  8
Layer_1
 62
7
100
AcDbSpline
 70
8
 71
3
 72
8
 73
4
 74
0
 40
0
 40
0
 40
0
 40
0
 40
1
 40
1
 40
1
 40
1
 10
39.720741
 20
130.182768
 30
0.0
 10
40.598303
 20
129.535497
 30
0.0
 10
41.246161
 20
129.037664
 30
0.0
 10
41.664313
 20
128.689270
 30
0.0
  0
SPLINE
  5
2bd
100
AcDbEntity
  8
Layer_1
 62
7
100
AcDbSpline
 70
8
 71
3
 72
8
 73
4
 74
0
 40
0
 40
0
 40
0
 40
0
 40
1
 40
1
 40
1
 40
1
 10
41.664313
 20
128.689270
 30
0.0
 10
41.884392
 20
128.505901
 30
0.0
 10
41.922463
 20
128.311057
 30
0.0
 10
41.778525
 20
128.104737
 30
0.0
  0
SPLINE
  5
2be
100
AcDbEntity
  8
Layer_1
 62
7
100
AcDbSpline
 70
8
 71
3
 72
8
 73
4
 74
0
 40
0
 40
0
 40
0
 40
0
 40
1
 40
1
 40
1
 40
1
 10
41.778525
 20
128.104737
 30
0.0
 10
41.259609
 20
127.381229
 30
0.0
 10
40.633420
 20
126.579316
 30
0.0
 10
39.899957
 20
125.698997
 30
0.0
  0
SPLINE
  5
2bf
100
AcDbEntity
  8
Layer_1
 62
7
100
AcDbSpline
 70
8
 71
3
 72
8
 73
4
 74
0
 40
0
 40
0
 40
0
 40
0
 40
1
 40
1
 40
1
 40
1
 10
39.899957
 20
125.698997
 30
0.0
 10
39.812859
 20
125.594462
 30
0.0
 10
39.596458
 20
125.653583
 30
0.0
 10
39.250753
 20
125.876361
 30
0.0
  0
SPLINE
  5
2c0
100
AcDbEntity
  8
Layer_1
 62
7
100
AcDbSpline
 70
8
 71
3
 72
8
 73
4
 74
0
 40
0
 40
0
 40
0
 40
0
 40
1
 40
1
 40
1
 40
1
 10
39.250753
 20
125.876361
 30
0.0
 10
38.904130
 20
126.109224
 30
0.0
 10
38.707423
 20
126.203156
 30
0.0
 10
38.660634
 20
126.158156
 30
0.0
  0
SPLINE
  5
2c1
100
AcDbEntity
  8
Layer_1
 62
7
100
AcDbSpline
 70
8
 71
3
 72
8
 73
4
 74
0
 40
0
 40
0
 40
0
 40
0
 40
1
 40
1
 40
1
 40
1
 10
38.660634
 20
126.158156
 30
0.0
 10
38.645960
 20
126.095799
 30
0.0
 10
38.644591
 20
125.999058
 30
0.0
 10
38.656527
 20
125.867934
 30
0.0
  0
SPLINE
  5
2c2
100
AcDbEntity
  8
Layer_1
 62
7
100
AcDbSpline
 70
8
 71
3
 72
8
 73
4
 74
0
 40
0
 40
0
 40
0
 40
0
 40
1
 40
1
 40
1
 40
1
 10
38.656527
 20
125.867934
 30
0.0
 10
38.764830
 20
124.733701
 30
0.0
 10
38.525596
 20
123.814456
 30
0.0
 10
37.938826
 20
123.110200
 30
0.0
  0
SPLINE
  5
2c3
100
AcDbEntity
  8
Layer_1
 62
7
100
AcDbSpline
 70
8
 71
3
 72
8
 73
4
 74
0
 40
0
 40
0
 40
0
 40
0
 40
1
 40
1
 40
1
 40
1
 10
37.938826
 20
123.110200
 30
0.0
 10
37.044918
 20
122.037309
 30
0.0
 10
35.880924
 20
121.501713
 30
0.0
 10
34.446844
 20
121.503413
 30
0.0
  0
SPLINE
  5
2c4
100
AcDbEntity
  8
Layer_1
 62
7
100
AcDbSpline
 70
8
 71
3
 72
8
 73
4
 74
0
 40
0
 40
0
 40
0
 40
0
 40
1
 40
1
 40
1
 40
1
 10
34.446844
 20
121.503413
 30
0.0
 10
33.099874
 20
121.497788
 30
0.0
 10
31.876187
 20
121.953387
 30
0.0
 10
30.775784
 20
122.870210
 30
0.0
  0
SPLINE
  5
2c5
100
AcDbEntity
  8
Layer_1
 62
7
100
AcDbSpline
 70
8
 71
3
 72
8
 73
4
 74
0
 40
0
 40
0
 40
0
 40
0
 40
1
 40
1
 40
1
 40
1
 10
30.775784
 20
122.870210
 30
0.0
 10
29.504820
 20
123.929147
 30
0.0
 10
28.767956
 20
125.125674
 30
0.0
 10
28.565192
 20
126.459789
 30
0.0
  0
SPLINE
  5
2c6
100
AcDbEntity
  8
Layer_1
 62
7
100
AcDbSpline
 70
8
 71
3
 72
8
 73
4
 74
0
 40
0
 40
0
 40
0
 40
0
 40
1
 40
1
 40
1
 40
1
 10
28.565192
 20
126.459789
 30
0.0
 10
28.357837
 20
127.844335
 30
0.0
 10
28.772169
 20
129.158335
 30
0.0
 10
29.808186
 20
130.401789
 30
0.0
  0
SPLINE
  5
2c7
100
AcDbEntity
  8
Layer_1
 62
7
100
AcDbSpline
 70
8
 71
3
 72
8
 73
4
 74
0
 40
0
 40
0
 40
0
 40
0
 40
1
 40
1
 40
1
 40
1
 10
29.808186
 20
130.401789
 30
0.0
 10
30.527896
 20
131.265604
 30
0.0
 10
31.398940
 20
131.695724
 30
0.0
 10
32.421318
 20
131.692150
 30
0.0
  0
SPLINE
  5
2c8
100
AcDbEntity
  8
Layer_1
 62
7
100
AcDbSpline
 70
8
 71
3
 72
8
 73
4
 74
0
 40
0
 40
0
 40
0
 40
0
 40
1
 40
1
 40
1
 40
1
 10
32.421318
 20
131.692150
 30
0.0
 10
32.467183
 20
131.691279
 30
0.0
 10
32.496984
 20
131.699080
 30
0.0
 10
32.510721
 20
131.715552
 30
0.0
  0
SPLINE
  5
2c9
100
AcDbEntity
  8
Layer_1
 62
7
100
AcDbSpline
 70
8
 71
3
 72
8
 73
4
 74
0
 40
0
 40
0
 40
0
 40
0
 40
1
 40
1
 40
1
 40
1
 10
32.510721
 20
131.715552
 30
0.0
 10
32.551983
 20
131.765069
 30
0.0
 10
32.465777
 20
131.930109
 30
0.0
 10
32.252100
 20
132.210669
 30
0.0
  0
SPLINE
  5
2ca
100
AcDbEntity
  8
Layer_1
 62
7
100
AcDbSpline
 70
8
 71
3
 72
8
 73
4
 74
0
 40
0
 40
0
 40
0
 40
0
 40
1
 40
1
 40
1
 40
1
 10
32.252100
 20
132.210669
 30
0.0
 10
32.037508
 20
132.501309
 30
0.0
 10
31.966887
 20
132.690649
 30
0.0
 10
32.040236
 20
132.778688
 30
0.0
  0
SPLINE
  5
2cb
100
AcDbEntity
  8
Layer_1
 62
7
100
AcDbSpline
 70
8
 71
3
 72
8
 73
4
 74
0
 40
0
 40
0
 40
0
 40
0
 40
1
 40
1
 40
1
 40
1
 10
32.040236
 20
132.778688
 30
0.0
 10
32.209850
 20
132.982263
 30
0.0
 10
32.590804
 20
133.322021
 30
0.0
 10
33.183096
 20
133.797963
 30
0.0
  0
SPLINE
  5
2cc
100
AcDbEntity
  8
Layer_1
 62
7
100
AcDbSpline
 70
8
 71
3
 72
8
 73
4
 74
0
 40
0
 40
0
 40
0
 40
0
 40
1
 40
1
 40
1
 40
1
 10
33.183096
 20
133.797963
 30
0.0
 10
33.746966
 20
134.250978
 30
0.0
 10
34.165975
 20
134.563690
 30
0.0
 10
34.440121
 20
134.736098
 30
0.0
  0
SPLINE
  5
2cd
100
AcDbEntity
  8
Layer_1
 62
7
100
AcDbSpline
 70
8
 71
3
 72
8
 73
4
 74
0
 40
0
 40
0
 40
0
 40
0
 40
1
 40
1
 40
1
 40
1
 10
34.440121
 20
134.736098
 30
0.0
 10
34.541892
 20
134.791117
 30
0.0
 10
34.620290
 20
134.795709
 30
0.0
 10
34.675314
 20
134.749875
 30
0.0
  0
SPLINE
  5
2ce
100
AcDbEntity
  8
Layer_1
 62
7
100
AcDbSpline
 70
8
 71
3
 72
8
 73
4
 74
0
 40
0
 40
0
 40
0
 40
0
 40
1
 40
1
 40
1
 40
1
 10
34.675314
 20
134.749875
 30
0.0
 10
34.697346
 20
134.731590
 30
0.0
 10
34.748239
 20
134.675200
 30
0.0
 10
34.827996
 20
134.580706
 30
0.0
  0
SPLINE
  5
2cf
100
AcDbEntity
  8
Layer_1
 62
7
100
AcDbSpline
 70
8
 71
3
 72
8
 73
4
 74
0
 40
0
 40
0
 40
0
 40
0
 40
1
 40
1
 40
1
 40
1
 10
34.827996
 20
134.580706
 30
0.0
 10
35.677166
 20
133.574911
 30
0.0
 10
36.657454
 20
132.609015
 30
0.0
 10
37.768859
 20
131.683018
 30
0.0
  0
LWPOLYLINE
  5
2d0
100
AcDbEntity
  8
Layer_1
 62
7
100
AcDbPolyline
 90
1
 70
1
 10
33.467441
 20
118.592921
 30
0.0
  0
SPLINE
  5
2d1
100
AcDbEntity
  8
Layer_1
 62
7
100
AcDbSpline
 70
8
 71
3
 72
8
 73
4
 74
0
 40
0
 40
0
 40
0
 40
0
 40
1
 40
1
 40
1
 40
1
 10
35.604292
 20
128.984418
 30
0.0
 10
35.136619
 20
129.374064
 30
0.0
 10
34.627707
 20
129.546401
 30
0.0
 10
34.077557
 20
129.501429
 30
0.0
  0
SPLINE
  5
2d2
100
AcDbEntity
  8
Layer_1
 62
7
100
AcDbSpline
 70
8
 71
3
 72
8
 73
4
 74
0
 40
0
 40
0
 40
0
 40
0
 40
1
 40
1
 40
1
 40
1
 10
34.077557
 20
129.501429
 30
0.0
 10
33.526485
 20
129.466535
 30
0.0
 10
33.053831
 20
129.212502
 30
0.0
 10
32.659595
 20
128.739330
 30
0.0
  0
SPLINE
  5
2d3
100
AcDbEntity
  8
Layer_1
 62
7
100
AcDbSpline
 70
8
 71
3
 72
8
 73
4
 74
0
 40
0
 40
0
 40
0
 40
0
 40
1
 40
1
 40
1
 40
1
 10
32.659595
 20
128.739330
 30
0.0
 10
32.265359
 20
128.266158
 30
0.0
 10
32.098066
 20
127.757704
 30
0.0
 10
32.157716
 20
127.213969
 30
0.0
  0
SPLINE
  5
2d4
100
AcDbEntity
  8
Layer_1
 62
7
100
AcDbSpline
 70
8
 71
3
 72
8
 73
4
 74
0
 40
0
 40
0
 40
0
 40
0
 40
1
 40
1
 40
1
 40
1
 10
32.157716
 20
127.213969
 30
0.0
 10
32.217367
 20
126.670234
 30
0.0
 10
32.483778
 20
126.201249
 30
0.0
 10
32.956951
 20
125.807012
 30
0.0
  0
SPLINE
  5
2d5
100
AcDbEntity
  8
Layer_1
 62
7
100
AcDbSpline
 70
8
 71
3
 72
8
 73
4
 74
0
 40
0
 40
0
 40
0
 40
0
 40
1
 40
1
 40
1
 40
1
 10
32.956951
 20
125.807012
 30
0.0
 10
33.402616
 20
125.435703
 30
0.0
 10
33.913360
 20
125.271157
 30
0.0
 10
34.489181
 20
125.313374
 30
0.0
  0
SPLINE
  5
2d6
100
AcDbEntity
  8
Layer_1
 62
7
100
AcDbSpline
 70
8
 71
3
 72
8
 73
4
 74
0
 40
0
 40
0
 40
0
 40
0
 40
1
 40
1
 40
1
 40
1
 10
34.489181
 20
125.313374
 30
0.0
 10
35.065010
 20
125.355606
 30
0.0
 10
35.536290
 20
125.596803
 30
0.0
 10
35.903021
 20
126.036963
 30
0.0
  0
SPLINE
  5
2d7
100
AcDbEntity
  8
Layer_1
 62
7
100
AcDbSpline
 70
8
 71
3
 72
8
 73
4
 74
0
 40
0
 40
0
 40
0
 40
0
 40
1
 40
1
 40
1
 40
1
 10
35.903021
 20
126.036963
 30
0.0
 10
36.292673
 20
126.504634
 30
0.0
 10
36.459966
 20
127.013087
 30
0.0
 10
36.404900
 20
127.562324
 30
0.0
  0
SPLINE
  5
2d8
100
AcDbEntity
  8
Layer_1
 62
7
100
AcDbSpline
 70
8
 71
3
 72
8
 73
4
 74
0
 40
0
 40
0
 40
0
 40
0
 40
1
 40
1
 40
1
 40
1
 10
36.404900
 20
127.562324
 30
0.0
 10
36.344331
 20
128.116144
 30
0.0
 10
36.077460
 20
128.590172
 30
0.0
 10
35.604288
 20
128.984408
 30
0.0
  0
LWPOLYLINE
  5
2d9
100
AcDbEntity
  8
Layer_1
 62
7
100
AcDbPolyline
 90
2
 70
0
 10
37.768859
 20
131.683018
 30
0.0
 10
37.768916
 20
131.683145
 30
0.0
  0
SPLINE
  5
2da
100
AcDbEntity
  8
Layer_1
 62
7
100
AcDbSpline
 70
8
 71
3
 72
8
 73
4
 74
0
 40
0
 40
0
 40
0
 40
0
 40
1
 40
1
 40
1
 40
1
 10
48.866030
 20
141.517108
 30
0.0
 10
49.877558
 20
140.365793
 30
0.0
 10
50.377620
 20
139.113062
 30
0.0
 10
50.366217
 20
137.758913
 30
0.0
  0
SPLINE
  5
2db
100
AcDbEntity
  8
Layer_1
 62
7
100
AcDbSpline
 70
8
 71
3
 72
8
 73
4
 74
0
 40
0
 40
0
 40
0
 40
0
 40
1
 40
1
 40
1
 40
1
 10
50.366217
 20
137.758913
 30
0.0
 10
50.356928
 20
136.358957
 30
0.0
 10
49.784696
 20
135.160305
 30
0.0
 10
48.649521
 20
134.162958
 30
0.0
  0
SPLINE
  5
2dc
100
AcDbEntity
  8
Layer_1
 62
7
100
AcDbSpline
 70
8
 71
3
 72
8
 73
4
 74
0
 40
0
 40
0
 40
0
 40
0
 40
1
 40
1
 40
1
 40
1
 10
48.649521
 20
134.162958
 30
0.0
 10
48.235264
 20
133.798998
 30
0.0
 10
47.701607
 20
133.511259
 30
0.0
 10
47.048552
 20
133.299742
 30
0.0
  0
SPLINE
  5
2dd
100
AcDbEntity
  8
Layer_1
 62
7
100
AcDbSpline
 70
8
 71
3
 72
8
 73
4
 74
0
 40
0
 40
0
 40
0
 40
0
 40
1
 40
1
 40
1
 40
1
 10
47.048552
 20
133.299742
 30
0.0
 10
46.395497
 20
133.088226
 30
0.0
 10
46.090490
 20
133.001376
 30
0.0
 10
46.133530
 20
133.039191
 30
0.0
  0
SPLINE
  5
2de
100
AcDbEntity
  8
Layer_1
 62
7
100
AcDbSpline
 70
8
 71
3
 72
8
 73
4
 74
0
 40
0
 40
0
 40
0
 40
0
 40
1
 40
1
 40
1
 40
1
 10
46.133530
 20
133.039191
 30
0.0
 10
46.063586
 20
132.977734
 30
0.0
 10
46.099516
 20
132.866307
 30
0.0
 10
46.241321
 20
132.704910
 30
0.0
  0
SPLINE
  5
2df
100
AcDbEntity
  8
Layer_1
 62
7
100
AcDbSpline
 70
8
 71
3
 72
8
 73
4
 74
0
 40
0
 40
0
 40
0
 40
0
 40
1
 40
1
 40
1
 40
1
 10
46.241321
 20
132.704910
 30
0.0
 10
46.482386
 20
132.430530
 30
0.0
 10
46.857433
 20
132.030779
 30
0.0
 10
47.366464
 20
131.505657
 30
0.0
  0
SPLINE
  5
2e0
100
AcDbEntity
  8
Layer_1
 62
7
100
AcDbSpline
 70
8
 71
3
 72
8
 73
4
 74
0
 40
0
 40
0
 40
0
 40
0
 40
1
 40
1
 40
1
 40
1
 10
47.366464
 20
131.505657
 30
0.0
 10
47.880221
 20
130.975153
 30
0.0
 10
48.257632
 20
130.572712
 30
0.0
 10
48.498697
 20
130.298334
 30
0.0
  0
SPLINE
  5
2e1
100
AcDbEntity
  8
Layer_1
 62
7
100
AcDbSpline
 70
8
 71
3
 72
8
 73
4
 74
0
 40
0
 40
0
 40
0
 40
0
 40
1
 40
1
 40
1
 40
1
 10
48.498697
 20
130.298334
 30
0.0
 10
48.649955
 20
130.126178
 30
0.0
 10
48.636814
 20
129.962107
 30
0.0
 10
48.459273
 20
129.806120
 30
0.0
  0
LWPOLYLINE
  5
2e2
100
AcDbEntity
  8
Layer_1
 62
7
100
AcDbPolyline
 90
1
 70
1
 10
35.604288
 20
128.984408
 30
0.0
  0
SPLINE
  5
2e3
100
AcDbEntity
  8
Layer_1
 62
7
100
AcDbSpline
 70
8
 71
3
 72
8
 73
4
 74
0
 40
0
 40
0
 40
0
 40
0
 40
1
 40
1
 40
1
 40
1
 10
46.820092
 20
128.351667
 30
0.0
 10
46.448873
 20
128.025520
 30
0.0
 10
46.197647
 20
127.828629
 30
0.0
 10
46.066414
 20
127.760994
 30
0.0
  0
SPLINE
  5
2e4
100
AcDbEntity
  8
Layer_1
 62
7
100
AcDbSpline
 70
8
 71
3
 72
8
 73
4
 74
0
 40
0
 40
0
 40
0
 40
0
 40
1
 40
1
 40
1
 40
1
 10
46.066414
 20
127.760994
 30
0.0
 10
45.871929
 20
127.656852
 30
0.0
 10
45.703784
 20
127.685480
 30
0.0
 10
45.561979
 20
127.846877
 30
0.0
  0
LWPOLYLINE
  5
2e5
100
AcDbEntity
  8
Layer_1
 62
7
100
AcDbPolyline
 90
2
 70
0
 10
48.459273
 20
129.806120
 30
0.0
 10
46.820092
 20
128.351667
 30
0.0
  0
SPLINE
  5
2e6
100
AcDbEntity
  8
Layer_1
 62
7
100
AcDbSpline
 70
8
 71
3
 72
8
 73
4
 74
0
 40
0
 40
0
 40
0
 40
0
 40
1
 40
1
 40
1
 40
1
 10
40.118707
 20
134.074931
 30
0.0
 10
39.017371
 20
135.328465
 30
0.0
 10
37.994412
 20
136.302912
 30
0.0
 10
37.049831
 20
136.998272
 30
0.0
  0
SPLINE
  5
2e7
100
AcDbEntity
  8
Layer_1
 62
7
100
AcDbSpline
 70
8
 71
3
 72
8
 73
4
 74
0
 40
0
 40
0
 40
0
 40
0
 40
1
 40
1
 40
1
 40
1
 10
37.049831
 20
136.998272
 30
0.0
 10
36.991805
 20
137.042624
 30
0.0
 10
36.946248
 20
137.083627
 30
0.0
 10
36.913159
 20
137.121282
 30
0.0
  0
SPLINE
  5
2e8
100
AcDbEntity
  8
Layer_1
 62
7
100
AcDbSpline
 70
8
 71
3
 72
8
 73
4
 74
0
 40
0
 40
0
 40
0
 40
0
 40
1
 40
1
 40
1
 40
1
 10
36.913159
 20
137.121282
 30
0.0
 10
36.842261
 20
137.201989
 30
0.0
 10
36.827273
 20
137.284151
 30
0.0
 10
36.868196
 20
137.367766
 30
0.0
  0
SPLINE
  5
2e9
100
AcDbEntity
  8
Layer_1
 62
7
100
AcDbSpline
 70
8
 71
3
 72
8
 73
4
 74
0
 40
0
 40
0
 40
0
 40
0
 40
1
 40
1
 40
1
 40
1
 10
36.868196
 20
137.367766
 30
0.0
 10
37.007115
 20
137.632811
 30
0.0
 10
37.332295
 20
138.071035
 30
0.0
 10
37.843737
 20
138.682439
 30
0.0
  0
SPLINE
  5
2ea
100
AcDbEntity
  8
Layer_1
 62
7
100
AcDbSpline
 70
8
 71
3
 72
8
 73
4
 74
0
 40
0
 40
0
 40
0
 40
0
 40
1
 40
1
 40
1
 40
1
 10
37.843737
 20
138.682439
 30
0.0
 10
38.339039
 20
139.279661
 30
0.0
 10
38.715810
 20
139.691715
 30
0.0
 10
38.974049
 20
139.918600
 30
0.0
  0
SPLINE
  5
2eb
100
AcDbEntity
  8
Layer_1
 62
7
100
AcDbSpline
 70
8
 71
3
 72
8
 73
4
 74
0
 40
0
 40
0
 40
0
 40
0
 40
1
 40
1
 40
1
 40
1
 10
38.974049
 20
139.918600
 30
0.0
 10
39.183867
 20
140.102943
 30
0.0
 10
39.425122
 20
140.067050
 30
0.0
 10
39.697812
 20
139.810923
 30
0.0
  0
SPLINE
  5
2ec
100
AcDbEntity
  8
Layer_1
 62
7
100
AcDbSpline
 70
8
 71
3
 72
8
 73
4
 74
0
 40
0
 40
0
 40
0
 40
0
 40
1
 40
1
 40
1
 40
1
 10
39.697812
 20
139.810923
 30
0.0
 10
39.971156
 20
139.564902
 30
0.0
 10
40.129349
 20
139.460801
 30
0.0
 10
40.172390
 20
139.498619
 30
0.0
  0
SPLINE
  5
2ed
100
AcDbEntity
  8
Layer_1
 62
7
100
AcDbSpline
 70
8
 71
3
 72
8
 73
4
 74
0
 40
0
 40
0
 40
0
 40
0
 40
1
 40
1
 40
1
 40
1
 10
40.172390
 20
139.498619
 30
0.0
 10
40.118594
 20
139.451359
 30
0.0
 10
40.219621
 20
139.797507
 30
0.0
 10
40.475470
 20
140.537061
 30
0.0
  0
SPLINE
  5
2ee
100
AcDbEntity
  8
Layer_1
 62
7
100
AcDbSpline
 70
8
 71
3
 72
8
 73
4
 74
0
 40
0
 40
0
 40
0
 40
0
 40
1
 40
1
 40
1
 40
1
 10
40.475470
 20
140.537061
 30
0.0
 10
40.731975
 20
141.286729
 30
0.0
 10
41.070047
 20
141.845906
 30
0.0
 10
41.489685
 20
142.214594
 30
0.0
  0
SPLINE
  5
2ef
100
AcDbEntity
  8
Layer_1
 62
7
100
AcDbSpline
 70
8
 71
3
 72
8
 73
4
 74
0
 40
0
 40
0
 40
0
 40
0
 40
1
 40
1
 40
1
 40
1
 10
41.489685
 20
142.214594
 30
0.0
 10
42.657139
 20
143.240300
 30
0.0
 10
43.928528
 20
143.675725
 30
0.0
 10
45.303852
 20
143.520867
 30
0.0
  0
SPLINE
  5
2f0
100
AcDbEntity
  8
Layer_1
 62
7
100
AcDbSpline
 70
8
 71
3
 72
8
 73
4
 74
0
 40
0
 40
0
 40
0
 40
0
 40
1
 40
1
 40
1
 40
1
 10
45.303852
 20
143.520867
 30
0.0
 10
46.634023
 20
143.374003
 30
0.0
 10
47.821415
 20
142.706084
 30
0.0
 10
48.866030
 20
141.517108
 30
0.0
  0
LWPOLYLINE
  5
2f1
100
AcDbEntity
  8
Layer_1
 62
7
100
AcDbPolyline
 90
2
 70
0
 10
45.561979
 20
127.846877
 30
0.0
 10
40.118707
 20
134.074931
 30
0.0
  0
SPLINE
  5
2f2
100
AcDbEntity
  8
Layer_1
 62
7
100
AcDbSpline
 70
8
 71
3
 72
8
 73
4
 74
0
 40
0
 40
0
 40
0
 40
0
 40
1
 40
1
 40
1
 40
1
 10
45.857894
 20
138.902805
 30
0.0
 10
45.479752
 20
139.333202
 30
0.0
 10
45.017068
 20
139.593992
 30
0.0
 10
44.469840
 20
139.685172
 30
0.0
  0
SPLINE
  5
2f3
100
AcDbEntity
  8
Layer_1
 62
7
100
AcDbSpline
 70
8
 71
3
 72
8
 73
4
 74
0
 40
0
 40
0
 40
0
 40
0
 40
1
 40
1
 40
1
 40
1
 10
44.469840
 20
139.685172
 30
0.0
 10
43.886915
 20
139.773591
 30
0.0
 10
43.385633
 20
139.633456
 30
0.0
 10
42.965995
 20
139.264769
 30
0.0
  0
SPLINE
  5
2f4
100
AcDbEntity
  8
Layer_1
 62
7
100
AcDbSpline
 70
8
 71
3
 72
8
 73
4
 74
0
 40
0
 40
0
 40
0
 40
0
 40
1
 40
1
 40
1
 40
1
 10
42.965995
 20
139.264769
 30
0.0
 10
42.535597
 20
138.886628
 30
0.0
 10
42.340172
 20
138.414646
 30
0.0
 10
42.379720
 20
137.848824
 30
0.0
  0
SPLINE
  5
2f5
100
AcDbEntity
  8
Layer_1
 62
7
100
AcDbSpline
 70
8
 71
3
 72
8
 73
4
 74
0
 40
0
 40
0
 40
0
 40
0
 40
1
 40
1
 40
1
 40
1
 10
42.379720
 20
137.848824
 30
0.0
 10
42.423186
 20
137.343640
 30
0.0
 10
42.641080
 20
136.867780
 30
0.0
 10
43.033402
 20
136.421242
 30
0.0
  0
SPLINE
  5
2f6
100
AcDbEntity
  8
Layer_1
 62
7
100
AcDbSpline
 70
8
 71
3
 72
8
 73
4
 74
0
 40
0
 40
0
 40
0
 40
0
 40
1
 40
1
 40
1
 40
1
 10
43.033402
 20
136.421242
 30
0.0
 10
43.435177
 20
135.963945
 30
0.0
 10
43.886774
 20
135.688646
 30
0.0
 10
44.388192
 20
135.595348
 30
0.0
  0
SPLINE
  5
2f7
100
AcDbEntity
  8
Layer_1
 62
7
100
AcDbSpline
 70
8
 71
3
 72
8
 73
4
 74
0
 40
0
 40
0
 40
0
 40
0
 40
1
 40
1
 40
1
 40
1
 10
44.388192
 20
135.595348
 30
0.0
 10
44.929385
 20
135.489329
 30
0.0
 10
45.423249
 20
135.632479
 30
0.0
 10
45.869786
 20
136.024798
 30
0.0
  0
SPLINE
  5
2f8
100
AcDbEntity
  8
Layer_1
 62
7
100
AcDbSpline
 70
8
 71
3
 72
8
 73
4
 74
0
 40
0
 40
0
 40
0
 40
0
 40
1
 40
1
 40
1
 40
1
 10
45.869786
 20
136.024798
 30
0.0
 10
46.816662
 20
136.856708
 30
0.0
 10
46.812696
 20
137.816041
 30
0.0
 10
45.857890
 20
138.902797
 30
0.0
  0
LWPOLYLINE
  5
2f9
100
AcDbEntity
  8
Layer_1
 62
7
100
AcDbPolyline
 90
1
 70
1
 10
48.866030
 20
141.517108
 30
0.0
  0
SPLINE
  5
2fa
100
AcDbEntity
  8
Layer_1
 62
7
100
AcDbSpline
 70
8
 71
3
 72
8
 73
4
 74
0
 40
0
 40
0
 40
0
 40
0
 40
1
 40
1
 40
1
 40
1
 10
60.670590
 20
149.156380
 30
0.0
 10
61.490638
 20
147.861685
 30
0.0
 10
61.789669
 20
146.546398
 30
0.0
 10
61.567684
 20
145.210519
 30
0.0
  0
SPLINE
  5
2fb
100
AcDbEntity
  8
Layer_1
 62
7
100
AcDbSpline
 70
8
 71
3
 72
8
 73
4
 74
0
 40
0
 40
0
 40
0
 40
0
 40
1
 40
1
 40
1
 40
1
 10
61.567684
 20
145.210519
 30
0.0
 10
61.340659
 20
143.829062
 30
0.0
 10
60.588874
 20
142.734058
 30
0.0
 10
59.312328
 20
141.925506
 30
0.0
  0
SPLINE
  5
2fc
100
AcDbEntity
  8
Layer_1
 62
7
100
AcDbSpline
 70
8
 71
3
 72
8
 73
4
 74
0
 40
0
 40
0
 40
0
 40
0
 40
1
 40
1
 40
1
 40
1
 10
59.312328
 20
141.925506
 30
0.0
 10
58.846480
 20
141.630442
 30
0.0
 10
58.274549
 20
141.429252
 30
0.0
 10
57.596535
 20
141.321935
 30
0.0
  0
SPLINE
  5
2fd
100
AcDbEntity
  8
Layer_1
 62
7
100
AcDbSpline
 70
8
 71
3
 72
8
 73
4
 74
0
 40
0
 40
0
 40
0
 40
0
 40
1
 40
1
 40
1
 40
1
 10
57.596535
 20
141.321935
 30
0.0
 10
56.918521
 20
141.214618
 30
0.0
 10
56.603714
 20
141.176288
 30
0.0
 10
56.652114
 20
141.206945
 30
0.0
  0
SPLINE
  5
2fe
100
AcDbEntity
  8
Layer_1
 62
7
100
AcDbSpline
 70
8
 71
3
 72
8
 73
4
 74
0
 40
0
 40
0
 40
0
 40
0
 40
1
 40
1
 40
1
 40
1
 10
56.652114
 20
141.206945
 30
0.0
 10
56.573465
 20
141.157131
 30
0.0
 10
56.591620
 20
141.041473
 30
0.0
 10
56.706579
 20
140.859970
 30
0.0
  0
SPLINE
  5
2ff
100
AcDbEntity
  8
Layer_1
 62
7
100
AcDbSpline
 70
8
 71
3
 72
8
 73
4
 74
0
 40
0
 40
0
 40
0
 40
0
 40
1
 40
1
 40
1
 40
1
 10
56.706579
 20
140.859970
 30
0.0
 10
56.902010
 20
140.551421
 30
0.0
 10
57.210284
 20
140.098179
 30
0.0
 10
57.631398
 20
139.500242
 30
0.0
  0
SPLINE
  5
300
100
AcDbEntity
  8
Layer_1
 62
7
100
AcDbSpline
 70
8
 71
3
 72
8
 73
4
 74
0
 40
0
 40
0
 40
0
 40
0
 40
1
 40
1
 40
1
 40
1
 10
57.631398
 20
139.500242
 30
0.0
 10
58.056344
 20
138.896254
 30
0.0
 10
58.366533
 20
138.439986
 30
0.0
 10
58.561965
 20
138.131437
 30
0.0
  0
SPLINE
  5
301
100
AcDbEntity
  8
Layer_1
 62
7
100
AcDbSpline
 70
8
 71
3
 72
8
 73
4
 74
0
 40
0
 40
0
 40
0
 40
0
 40
1
 40
1
 40
1
 40
1
 10
58.561965
 20
138.131437
 30
0.0
 10
58.684589
 20
137.937839
 30
0.0
 10
58.646076
 20
137.777811
 30
0.0
 10
58.446426
 20
137.651353
 30
0.0
  0
LWPOLYLINE
  5
302
100
AcDbEntity
  8
Layer_1
 62
7
100
AcDbPolyline
 90
1
 70
1
 10
45.857890
 20
138.902797
 30
0.0
  0
SPLINE
  5
303
100
AcDbEntity
  8
Layer_1
 62
7
100
AcDbSpline
 70
8
 71
3
 72
8
 73
4
 74
0
 40
0
 40
0
 40
0
 40
0
 40
1
 40
1
 40
1
 40
1
 10
56.600881
 20
136.469686
 30
0.0
 10
56.183433
 20
136.205278
 30
0.0
 10
55.904629
 20
136.049880
 30
0.0
 10
55.764470
 20
136.003491
 30
0.0
  0
SPLINE
  5
304
100
AcDbEntity
  8
Layer_1
 62
7
100
AcDbSpline
 70
8
 71
3
 72
8
 73
4
 74
0
 40
0
 40
0
 40
0
 40
0
 40
1
 40
1
 40
1
 40
1
 10
55.764470
 20
136.003491
 30
0.0
 10
55.556143
 20
135.930873
 30
0.0
 10
55.394503
 20
135.985320
 30
0.0
 10
55.279548
 20
136.166831
 30
0.0
  0
LWPOLYLINE
  5
305
100
AcDbEntity
  8
Layer_1
 62
7
100
AcDbPolyline
 90
2
 70
0
 10
58.446426
 20
137.651353
 30
0.0
 10
56.600881
 20
136.469686
 30
0.0
  0
SPLINE
  5
306
100
AcDbEntity
  8
Layer_1
 62
7
100
AcDbSpline
 70
8
 71
3
 72
8
 73
4
 74
0
 40
0
 40
0
 40
0
 40
0
 40
1
 40
1
 40
1
 40
1
 10
50.871735
 20
143.166042
 30
0.0
 10
49.978879
 20
144.575687
 30
0.0
 10
49.120017
 20
145.697448
 30
0.0
 10
48.295148
 20
146.531325
 30
0.0
  0
SPLINE
  5
307
100
AcDbEntity
  8
Layer_1
 62
7
100
AcDbSpline
 70
8
 71
3
 72
8
 73
4
 74
0
 40
0
 40
0
 40
0
 40
0
 40
1
 40
1
 40
1
 40
1
 10
48.295148
 20
146.531325
 30
0.0
 10
48.244728
 20
146.584160
 30
0.0
 10
48.206106
 20
146.631751
 30
0.0
 10
48.179281
 20
146.674098
 30
0.0
  0
SPLINE
  5
308
100
AcDbEntity
  8
Layer_1
 62
7
100
AcDbSpline
 70
8
 71
3
 72
8
 73
4
 74
0
 40
0
 40
0
 40
0
 40
0
 40
1
 40
1
 40
1
 40
1
 10
48.179281
 20
146.674098
 30
0.0
 10
48.121801
 20
146.764845
 30
0.0
 10
48.119781
 20
146.848338
 30
0.0
 10
48.173223
 20
146.924578
 30
0.0
  0
SPLINE
  5
309
100
AcDbEntity
  8
Layer_1
 62
7
100
AcDbSpline
 70
8
 71
3
 72
8
 73
4
 74
0
 40
0
 40
0
 40
0
 40
0
 40
1
 40
1
 40
1
 40
1
 10
48.173223
 20
146.924578
 30
0.0
 10
48.351692
 20
147.164777
 30
0.0
 10
48.741103
 20
147.547060
 30
0.0
 10
49.341457
 20
148.071428
 30
0.0
  0
SPLINE
  5
30a
100
AcDbEntity
  8
Layer_1
 62
7
100
AcDbSpline
 70
8
 71
3
 72
8
 73
4
 74
0
 40
0
 40
0
 40
0
 40
0
 40
1
 40
1
 40
1
 40
1
 10
49.341457
 20
148.071428
 30
0.0
 10
49.923660
 20
148.584302
 30
0.0
 10
50.359962
 20
148.932707
 30
0.0
 10
50.650361
 20
149.116644
 30
0.0
  0
SPLINE
  5
30b
100
AcDbEntity
  8
Layer_1
 62
7
100
AcDbSpline
 70
8
 71
3
 72
8
 73
4
 74
0
 40
0
 40
0
 40
0
 40
0
 40
1
 40
1
 40
1
 40
1
 10
50.650361
 20
149.116644
 30
0.0
 10
50.886310
 20
149.266092
 30
0.0
 10
51.119041
 20
149.193095
 30
0.0
 10
51.348554
 20
148.897655
 30
0.0
  0
SPLINE
  5
30c
100
AcDbEntity
  8
Layer_1
 62
7
100
AcDbSpline
 70
8
 71
3
 72
8
 73
4
 74
0
 40
0
 40
0
 40
0
 40
0
 40
1
 40
1
 40
1
 40
1
 10
51.348554
 20
148.897655
 30
0.0
 10
51.580283
 20
148.612091
 30
0.0
 10
51.720348
 20
148.484638
 30
0.0
 10
51.768748
 20
148.515296
 30
0.0
  0
SPLINE
  5
30d
100
AcDbEntity
  8
Layer_1
 62
7
100
AcDbSpline
 70
8
 71
3
 72
8
 73
4
 74
0
 40
0
 40
0
 40
0
 40
0
 40
1
 40
1
 40
1
 40
1
 10
51.768748
 20
148.515296
 30
0.0
 10
51.708245
 20
148.476969
 30
0.0
 10
51.861902
 20
148.803179
 30
0.0
 10
52.229721
 20
149.493925
 30
0.0
  0
SPLINE
  5
30e
100
AcDbEntity
  8
Layer_1
 62
7
100
AcDbSpline
 70
8
 71
3
 72
8
 73
4
 74
0
 40
0
 40
0
 40
0
 40
0
 40
1
 40
1
 40
1
 40
1
 10
52.229721
 20
149.493925
 30
0.0
 10
52.599759
 20
150.194546
 30
0.0
 10
53.020727
 20
150.694305
 30
0.0
 10
53.492626
 20
150.993202
 30
0.0
  0
SPLINE
  5
30f
100
AcDbEntity
  8
Layer_1
 62
7
100
AcDbSpline
 70
8
 71
3
 72
8
 73
4
 74
0
 40
0
 40
0
 40
0
 40
0
 40
1
 40
1
 40
1
 40
1
 10
53.492626
 20
150.993202
 30
0.0
 10
54.805471
 20
151.824745
 30
0.0
 10
56.129130
 20
152.057023
 30
0.0
 10
57.463603
 20
151.690035
 30
0.0
  0
SPLINE
  5
310
100
AcDbEntity
  8
Layer_1
 62
7
100
AcDbSpline
 70
8
 71
3
 72
8
 73
4
 74
0
 40
0
 40
0
 40
0
 40
0
 40
1
 40
1
 40
1
 40
1
 10
57.463603
 20
151.690035
 30
0.0
 10
58.754716
 20
151.337971
 30
0.0
 10
59.823708
 20
150.493416
 30
0.0
 10
60.670580
 20
149.156372
 30
0.0
  0
LWPOLYLINE
  5
311
100
AcDbEntity
  8
Layer_1
 62
7
100
AcDbPolyline
 90
2
 70
0
 10
55.279548
 20
136.166831
 30
0.0
 10
50.871735
 20
143.166042
 30
0.0
  0
SPLINE
  5
312
100
AcDbEntity
  8
Layer_1
 62
7
100
AcDbSpline
 70
8
 71
3
 72
8
 73
4
 74
0
 40
0
 40
0
 40
0
 40
0
 40
1
 40
1
 40
1
 40
1
 10
57.292282
 20
147.042021
 30
0.0
 10
56.985722
 20
147.526021
 30
0.0
 10
56.569258
 20
147.855635
 30
0.0
 10
56.042889
 20
148.030866
 30
0.0
  0
SPLINE
  5
313
100
AcDbEntity
  8
Layer_1
 62
7
100
AcDbSpline
 70
8
 71
3
 72
8
 73
4
 74
0
 40
0
 40
0
 40
0
 40
0
 40
1
 40
1
 40
1
 40
1
 10
56.042889
 20
148.030866
 30
0.0
 10
55.480826
 20
148.208922
 30
0.0
 10
54.963844
 20
148.148499
 30
0.0
 10
54.491944
 20
147.849599
 30
0.0
  0
SPLINE
  5
314
100
AcDbEntity
  8
Layer_1
 62
7
100
AcDbSpline
 70
8
 71
3
 72
8
 73
4
 74
0
 40
0
 40
0
 40
0
 40
0
 40
1
 40
1
 40
1
 40
1
 10
54.491944
 20
147.849599
 30
0.0
 10
54.007946
 20
147.543040
 30
0.0
 10
53.741456
 20
147.107218
 30
0.0
 10
53.692473
 20
146.542132
 30
0.0
  0
SPLINE
  5
315
100
AcDbEntity
  8
Layer_1
 62
7
100
AcDbSpline
 70
8
 71
3
 72
8
 73
4
 74
0
 40
0
 40
0
 40
0
 40
0
 40
1
 40
1
 40
1
 40
1
 10
53.692473
 20
146.542132
 30
0.0
 10
53.656798
 20
146.036341
 30
0.0
 10
53.797988
 20
145.532371
 30
0.0
 10
54.116044
 20
145.030222
 30
0.0
  0
SPLINE
  5
316
100
AcDbEntity
  8
Layer_1
 62
7
100
AcDbSpline
 70
8
 71
3
 72
8
 73
4
 74
0
 40
0
 40
0
 40
0
 40
0
 40
1
 40
1
 40
1
 40
1
 10
54.116044
 20
145.030222
 30
0.0
 10
54.441765
 20
144.515974
 30
0.0
 10
54.845020
 20
144.173755
 30
0.0
 10
55.325811
 20
144.003564
 30
0.0
  0
SPLINE
  5
317
100
AcDbEntity
  8
Layer_1
 62
7
100
AcDbSpline
 70
8
 71
3
 72
8
 73
4
 74
0
 40
0
 40
0
 40
0
 40
0
 40
1
 40
1
 40
1
 40
1
 10
55.325811
 20
144.003564
 30
0.0
 10
55.843913
 20
143.814623
 30
0.0
 10
56.354038
 20
143.879178
 30
0.0
 10
56.856184
 20
144.197230
 30
0.0
  0
SPLINE
  5
318
100
AcDbEntity
  8
Layer_1
 62
7
100
AcDbSpline
 70
8
 71
3
 72
8
 73
4
 74
0
 40
0
 40
0
 40
0
 40
0
 40
1
 40
1
 40
1
 40
1
 10
56.856184
 20
144.197230
 30
0.0
 10
57.920980
 20
144.871662
 30
0.0
 10
58.066346
 20
145.819925
 30
0.0
 10
57.292282
 20
147.042021
 30
0.0
  0
LWPOLYLINE
  5
319
100
AcDbEntity
  8
Layer_1
 62
7
100
AcDbPolyline
 90
1
 70
1
 10
60.670580
 20
149.156372
 30
0.0
  0
SPLINE
  5
31a
100
AcDbEntity
  8
Layer_1
 62
7
100
AcDbSpline
 70
8
 71
3
 72
8
 73
4
 74
0
 40
0
 40
0
 40
0
 40
0
 40
1
 40
1
 40
1
 40
1
 10
71.253257
 20
156.656805
 30
0.0
 10
71.816338
 20
155.386704
 30
0.0
 10
72.119549
 20
154.596753
 30
0.0
 10
72.162890
 20
154.286953
 30
0.0
  0
SPLINE
  5
31b
100
AcDbEntity
  8
Layer_1
 62
7
100
AcDbSpline
 70
8
 71
3
 72
8
 73
4
 74
0
 40
0
 40
0
 40
0
 40
0
 40
1
 40
1
 40
1
 40
1
 10
72.162890
 20
154.286953
 30
0.0
 10
72.209811
 20
153.916071
 30
0.0
 10
72.018273
 20
152.413258
 30
0.0
 10
71.588276
 20
149.778516
 30
0.0
  0
SPLINE
  5
31c
100
AcDbEntity
  8
Layer_1
 62
7
100
AcDbSpline
 70
8
 71
3
 72
8
 73
4
 74
0
 40
0
 40
0
 40
0
 40
0
 40
1
 40
1
 40
1
 40
1
 10
71.588276
 20
149.778516
 30
0.0
 10
71.520997
 20
149.364837
 30
0.0
 10
71.310309
 20
148.382308
 30
0.0
 10
70.956210
 20
146.830928
 30
0.0
  0
SPLINE
  5
31d
100
AcDbEntity
  8
Layer_1
 62
7
100
AcDbSpline
 70
8
 71
3
 72
8
 73
4
 74
0
 40
0
 40
0
 40
0
 40
0
 40
1
 40
1
 40
1
 40
1
 10
70.956210
 20
146.830928
 30
0.0
 10
70.562700
 20
145.121069
 30
0.0
 10
70.316440
 20
144.201107
 30
0.0
 10
70.217429
 20
144.071042
 30
0.0
  0
SPLINE
  5
31e
100
AcDbEntity
  8
Layer_1
 62
7
100
AcDbSpline
 70
8
 71
3
 72
8
 73
4
 74
0
 40
0
 40
0
 40
0
 40
0
 40
1
 40
1
 40
1
 40
1
 10
70.217429
 20
144.071042
 30
0.0
 10
70.103841
 20
143.903179
 30
0.0
 10
69.120658
 20
143.408546
 30
0.0
 10
67.267882
 20
142.587144
 30
0.0
  0
SPLINE
  5
31f
100
AcDbEntity
  8
Layer_1
 62
7
100
AcDbSpline
 70
8
 71
3
 72
8
 73
4
 74
0
 40
0
 40
0
 40
0
 40
0
 40
1
 40
1
 40
1
 40
1
 10
67.267882
 20
142.587144
 30
0.0
 10
66.986365
 20
142.462336
 30
0.0
 10
66.781992
 20
142.410899
 30
0.0
 10
66.654764
 20
142.432832
 30
0.0
  0
SPLINE
  5
320
100
AcDbEntity
  8
Layer_1
 62
7
100
AcDbSpline
 70
8
 71
3
 72
8
 73
4
 74
0
 40
0
 40
0
 40
0
 40
0
 40
1
 40
1
 40
1
 40
1
 10
66.654764
 20
142.432832
 30
0.0
 10
66.450655
 20
142.663530
 30
0.0
 10
66.201861
 20
142.933164
 30
0.0
 10
65.908381
 20
143.241735
 30
0.0
  0
SPLINE
  5
321
100
AcDbEntity
  8
Layer_1
 62
7
100
AcDbSpline
 70
8
 71
3
 72
8
 73
4
 74
0
 40
0
 40
0
 40
0
 40
0
 40
1
 40
1
 40
1
 40
1
 10
65.908381
 20
143.241735
 30
0.0
 10
65.702043
 20
143.424436
 30
0.0
 10
65.494253
 20
143.610409
 30
0.0
 10
65.285011
 20
143.799655
 30
0.0
  0
SPLINE
  5
322
100
AcDbEntity
  8
Layer_1
 62
7
100
AcDbSpline
 70
8
 71
3
 72
8
 73
4
 74
0
 40
0
 40
0
 40
0
 40
0
 40
1
 40
1
 40
1
 40
1
 10
65.285011
 20
143.799655
 30
0.0
 10
64.983504
 20
144.073338
 30
0.0
 10
64.808079
 20
144.265828
 30
0.0
 10
64.758736
 20
144.377125
 30
0.0
  0
SPLINE
  5
323
100
AcDbEntity
  8
Layer_1
 62
7
100
AcDbSpline
 70
8
 71
3
 72
8
 73
4
 74
0
 40
0
 40
0
 40
0
 40
0
 40
1
 40
1
 40
1
 40
1
 10
64.758736
 20
144.377125
 30
0.0
 10
64.703592
 20
144.501524
 30
0.0
 10
64.731667
 20
144.588391
 30
0.0
 10
64.842961
 20
144.637724
 30
0.0
  0
SPLINE
  5
324
100
AcDbEntity
  8
Layer_1
 62
7
100
AcDbSpline
 70
8
 71
3
 72
8
 73
4
 74
0
 40
0
 40
0
 40
0
 40
0
 40
1
 40
1
 40
1
 40
1
 10
64.842961
 20
144.637724
 30
0.0
 10
66.663002
 20
145.444613
 30
0.0
 10
67.388716
 20
146.263787
 30
0.0
 10
67.020101
 20
147.095246
 30
0.0
  0
SPLINE
  5
325
100
AcDbEntity
  8
Layer_1
 62
7
100
AcDbSpline
 70
8
 71
3
 72
8
 73
4
 74
0
 40
0
 40
0
 40
0
 40
0
 40
1
 40
1
 40
1
 40
1
 10
67.020101
 20
147.095246
 30
0.0
 10
66.988171
 20
147.167253
 30
0.0
 10
66.254184
 20
147.621302
 30
0.0
 10
64.818141
 20
148.457393
 30
0.0
  0
SPLINE
  5
326
100
AcDbEntity
  8
Layer_1
 62
7
100
AcDbSpline
 70
8
 71
3
 72
8
 73
4
 74
0
 40
0
 40
0
 40
0
 40
0
 40
1
 40
1
 40
1
 40
1
 10
64.818141
 20
148.457393
 30
0.0
 10
63.334848
 20
149.311697
 30
0.0
 10
62.473361
 20
149.885480
 30
0.0
 10
62.233680
 20
150.178742
 30
0.0
  0
SPLINE
  5
327
100
AcDbEntity
  8
Layer_1
 62
7
100
AcDbSpline
 70
8
 71
3
 72
8
 73
4
 74
0
 40
0
 40
0
 40
0
 40
0
 40
1
 40
1
 40
1
 40
1
 10
62.233680
 20
150.178742
 30
0.0
 10
62.097133
 20
150.345383
 30
0.0
 10
61.770538
 20
151.011378
 30
0.0
 10
61.253897
 20
152.176729
 30
0.0
  0
SPLINE
  5
328
100
AcDbEntity
  8
Layer_1
 62
7
100
AcDbSpline
 70
8
 71
3
 72
8
 73
4
 74
0
 40
0
 40
0
 40
0
 40
0
 40
1
 40
1
 40
1
 40
1
 10
61.253897
 20
152.176729
 30
0.0
 10
61.149408
 20
152.412418
 30
0.0
 10
60.999220
 20
152.768853
 30
0.0
 10
60.803336
 20
153.246036
 30
0.0
  0
SPLINE
  5
329
100
AcDbEntity
  8
Layer_1
 62
7
100
AcDbSpline
 70
8
 71
3
 72
8
 73
4
 74
0
 40
0
 40
0
 40
0
 40
0
 40
1
 40
1
 40
1
 40
1
 10
60.803336
 20
153.246036
 30
0.0
 10
60.604549
 20
153.729765
 30
0.0
 10
60.452910
 20
154.089475
 30
0.0
 10
60.348421
 20
154.325164
 30
0.0
  0
SPLINE
  5
32a
100
AcDbEntity
  8
Layer_1
 62
7
100
AcDbSpline
 70
8
 71
3
 72
8
 73
4
 74
0
 40
0
 40
0
 40
0
 40
0
 40
1
 40
1
 40
1
 40
1
 10
60.348421
 20
154.325164
 30
0.0
 10
60.272957
 20
154.495383
 30
0.0
 10
60.343249
 20
154.628384
 30
0.0
 10
60.559297
 20
154.724166
 30
0.0
  0
SPLINE
  5
32b
100
AcDbEntity
  8
Layer_1
 62
7
100
AcDbSpline
 70
8
 71
3
 72
8
 73
4
 74
0
 40
0
 40
0
 40
0
 40
0
 40
1
 40
1
 40
1
 40
1
 10
60.559297
 20
154.724166
 30
0.0
 10
60.893189
 20
154.872192
 30
0.0
 10
61.401655
 20
155.085863
 30
0.0
 10
62.084694
 20
155.365178
 30
0.0
  0
SPLINE
  5
32c
100
AcDbEntity
  8
Layer_1
 62
7
100
AcDbSpline
 70
8
 71
3
 72
8
 73
4
 74
0
 40
0
 40
0
 40
0
 40
0
 40
1
 40
1
 40
1
 40
1
 10
62.084694
 20
155.365178
 30
0.0
 10
62.774280
 20
155.647395
 30
0.0
 10
63.286020
 20
155.862517
 30
0.0
 10
63.619912
 20
156.010543
 30
0.0
  0
SPLINE
  5
32d
100
AcDbEntity
  8
Layer_1
 62
7
100
AcDbSpline
 70
8
 71
3
 72
8
 73
4
 74
0
 40
0
 40
0
 40
0
 40
0
 40
1
 40
1
 40
1
 40
1
 10
63.619912
 20
156.010543
 30
0.0
 10
63.757398
 20
156.071496
 30
0.0
 10
63.871129
 20
156.000494
 30
0.0
 10
63.961105
 20
155.797539
 30
0.0
  0
SPLINE
  5
32e
100
AcDbEntity
  8
Layer_1
 62
7
100
AcDbSpline
 70
8
 71
3
 72
8
 73
4
 74
0
 40
0
 40
0
 40
0
 40
0
 40
1
 40
1
 40
1
 40
1
 10
63.961105
 20
155.797539
 30
0.0
 10
64.042375
 20
155.614226
 30
0.0
 10
64.155910
 20
155.331628
 30
0.0
 10
64.301710
 20
154.949746
 30
0.0
  0
SPLINE
  5
32f
100
AcDbEntity
  8
Layer_1
 62
7
100
AcDbSpline
 70
8
 71
3
 72
8
 73
4
 74
0
 40
0
 40
0
 40
0
 40
0
 40
1
 40
1
 40
1
 40
1
 10
64.301710
 20
154.949746
 30
0.0
 10
64.444608
 20
154.574412
 30
0.0
 10
64.556692
 20
154.295088
 30
0.0
 10
64.637961
 20
154.111774
 30
0.0
  0
SPLINE
  5
330
100
AcDbEntity
  8
Layer_1
 62
7
100
AcDbSpline
 70
8
 71
3
 72
8
 73
4
 74
0
 40
0
 40
0
 40
0
 40
0
 40
1
 40
1
 40
1
 40
1
 10
64.637961
 20
154.111774
 30
0.0
 10
65.003674
 20
153.286864
 30
0.0
 10
65.264930
 20
152.732908
 30
0.0
 10
65.421729
 20
152.449907
 30
0.0
  0
SPLINE
  5
331
100
AcDbEntity
  8
Layer_1
 62
7
100
AcDbSpline
 70
8
 71
3
 72
8
 73
4
 74
0
 40
0
 40
0
 40
0
 40
0
 40
1
 40
1
 40
1
 40
1
 10
65.421729
 20
152.449907
 30
0.0
 10
65.542957
 20
152.229473
 30
0.0
 10
65.928026
 20
151.890998
 30
0.0
 10
66.576935
 20
151.434482
 30
0.0
  0
SPLINE
  5
332
100
AcDbEntity
  8
Layer_1
 62
7
100
AcDbSpline
 70
8
 71
3
 72
8
 73
4
 74
0
 40
0
 40
0
 40
0
 40
0
 40
1
 40
1
 40
1
 40
1
 10
66.576935
 20
151.434482
 30
0.0
 10
67.257095
 20
150.960487
 30
0.0
 10
67.685558
 20
150.762671
 30
0.0
 10
67.862323
 20
150.841034
 30
0.0
  0
SPLINE
  5
333
100
AcDbEntity
  8
Layer_1
 62
7
100
AcDbSpline
 70
8
 71
3
 72
8
 73
4
 74
0
 40
0
 40
0
 40
0
 40
0
 40
1
 40
1
 40
1
 40
1
 10
67.862323
 20
150.841034
 30
0.0
 10
68.012902
 20
150.907791
 30
0.0
 10
68.126010
 20
151.341786
 30
0.0
 10
68.201646
 20
152.143020
 30
0.0
  0
SPLINE
  5
334
100
AcDbEntity
  8
Layer_1
 62
7
100
AcDbSpline
 70
8
 71
3
 72
8
 73
4
 74
0
 40
0
 40
0
 40
0
 40
0
 40
1
 40
1
 40
1
 40
1
 10
68.201646
 20
152.143020
 30
0.0
 10
68.265610
 20
152.899913
 30
0.0
 10
68.264246
 20
153.388915
 30
0.0
 10
68.197555
 20
153.610027
 30
0.0
  0
SPLINE
  5
335
100
AcDbEntity
  8
Layer_1
 62
7
100
AcDbSpline
 70
8
 71
3
 72
8
 73
4
 74
0
 40
0
 40
0
 40
0
 40
0
 40
1
 40
1
 40
1
 40
1
 10
68.197555
 20
153.610027
 30
0.0
 10
68.007606
 20
154.215180
 30
0.0
 10
67.763153
 20
154.854922
 30
0.0
 10
67.464198
 20
155.529254
 30
0.0
  0
SPLINE
  5
336
100
AcDbEntity
  8
Layer_1
 62
7
100
AcDbSpline
 70
8
 71
3
 72
8
 73
4
 74
0
 40
0
 40
0
 40
0
 40
0
 40
1
 40
1
 40
1
 40
1
 10
67.464198
 20
155.529254
 30
0.0
 10
67.385831
 20
155.706021
 30
0.0
 10
67.250462
 20
155.967188
 30
0.0
 10
67.058091
 20
156.312756
 30
0.0
  0
SPLINE
  5
337
100
AcDbEntity
  8
Layer_1
 62
7
100
AcDbSpline
 70
8
 71
3
 72
8
 73
4
 74
0
 40
0
 40
0
 40
0
 40
0
 40
1
 40
1
 40
1
 40
1
 10
67.058091
 20
156.312756
 30
0.0
 10
66.865720
 20
156.658323
 30
0.0
 10
66.728900
 20
156.922764
 30
0.0
 10
66.647630
 20
157.106078
 30
0.0
  0
SPLINE
  5
338
100
AcDbEntity
  8
Layer_1
 62
7
100
AcDbSpline
 70
8
 71
3
 72
8
 73
4
 74
0
 40
0
 40
0
 40
0
 40
0
 40
1
 40
1
 40
1
 40
1
 10
66.647630
 20
157.106078
 30
0.0
 10
66.592483
 20
157.230469
 30
0.0
 10
66.633652
 20
157.323141
 30
0.0
 10
66.771137
 20
157.384093
 30
0.0
  0
SPLINE
  5
339
100
AcDbEntity
  8
Layer_1
 62
7
100
AcDbSpline
 70
8
 71
3
 72
8
 73
4
 74
0
 40
0
 40
0
 40
0
 40
0
 40
1
 40
1
 40
1
 40
1
 10
66.771137
 20
157.384093
 30
0.0
 10
67.105030
 20
157.532119
 30
0.0
 10
67.596790
 20
157.765801
 30
0.0
 10
68.246418
 20
158.085139
 30
0.0
  0
SPLINE
  5
33a
100
AcDbEntity
  8
Layer_1
 62
7
100
AcDbSpline
 70
8
 71
3
 72
8
 73
4
 74
0
 40
0
 40
0
 40
0
 40
0
 40
1
 40
1
 40
1
 40
1
 10
68.246418
 20
158.085139
 30
0.0
 10
68.902594
 20
158.407380
 30
0.0
 10
69.397627
 20
158.642514
 30
0.0
 10
69.731520
 20
158.790540
 30
0.0
  0
SPLINE
  5
33b
100
AcDbEntity
  8
Layer_1
 62
7
100
AcDbSpline
 70
8
 71
3
 72
8
 73
4
 74
0
 40
0
 40
0
 40
0
 40
0
 40
1
 40
1
 40
1
 40
1
 10
69.731520
 20
158.790540
 30
0.0
 10
69.901739
 20
158.866005
 30
0.0
 10
70.054043
 20
158.831688
 30
0.0
 10
70.188429
 20
158.687591
 30
0.0
  0
SPLINE
  5
33c
100
AcDbEntity
  8
Layer_1
 62
7
100
AcDbSpline
 70
8
 71
3
 72
8
 73
4
 74
0
 40
0
 40
0
 40
0
 40
0
 40
1
 40
1
 40
1
 40
1
 10
70.188429
 20
158.687591
 30
0.0
 10
70.413600
 20
158.427068
 30
0.0
 10
70.768543
 20
157.750139
 30
0.0
 10
71.253257
 20
156.656805
 30
0.0
  0
LWPOLYLINE
  5
33d
100
AcDbEntity
  8
Layer_1
 62
7
100
AcDbPolyline
 90
1
 70
1
 10
57.292282
 20
147.042021
 30
0.0
  0
LWPOLYLINE
  5
33e
100
AcDbEntity
  8
Layer_1
 62
7
100
AcDbPolyline
 90
1
 70
1
 10
71.253257
 20
156.656805
 30
0.0
  0
ENDSEC
  0
SECTION
  2
OBJECTS
  0
DICTIONARY
  5
C
330
0
100
AcDbDictionary
  3
ACAD_GROUP
350
D
  3
ACAD_MLINESTYLE
350
17
  0
DICTIONARY
  5
D
330
C
100
AcDbDictionary
  0
DICTIONARY
  5
1A
330
C
100
AcDbDictionary
  0
DICTIONARY
  5
17
330
C
100
AcDbDictionary
  3
STANDARD
350
18
  0
DICTIONARY
  5
19
330
C
100
AcDbDictionary
  0
ENDSEC
  0
EOF
