999
"DXF R12 Output" (www.mydxf.blogspot.com)
 0 
SECTION
 2 
HEADER
 9 
$ACADVER
 1 
AC1009
 9 
$EXTMIN
 10 
 0 
 20 
 0 
 9 
$EXTMAX
 10 
 8.5 
 20 
 11 
 0 
ENDSEC
 0 
SECTION
 2 
ENTITIES
0
LINE
8
Layer 1
10
15.149800
20
89.386600
11
14.332037
21
89.076122
0
LINE
8
Layer 1
10
14.332037
20
89.076122
11
13.877510
21
88.639320
0
LINE
8
Layer 1
10
13.877510
20
88.639320
11
13.679712
21
88.181685
0
LINE
8
Layer 1
10
13.679712
20
88.181685
11
13.916768
21
87.834532
0
LINE
8
Layer 1
10
13.916768
20
87.834532
11
14.520696
21
87.391079
0
LINE
8
Layer 1
10
14.520696
20
87.391079
11
14.939940
21
87.032383
0
LINE
8
Layer 1
10
14.939940
20
87.032383
11
15.069113
21
86.654901
0
LINE
8
Layer 1
10
15.069113
20
86.654901
11
14.909414
21
86.287920
0
LINE
8
Layer 1
10
14.909414
20
86.287920
11
14.462046
21
85.960729
0
LINE
8
Layer 1
10
14.462046
20
85.960729
11
13.797321
21
85.618674
0
LINE
8
Layer 1
10
13.797321
20
85.618674
11
11.824310
21
85.122525
0
LINE
8
Layer 1
10
11.824310
20
85.122525
11
8.857821
21
84.897240
0
LINE
8
Layer 1
10
8.857821
20
84.897240
11
5.872682
21
84.685434
0
LINE
8
Layer 1
10
5.872682
20
84.685434
11
5.161798
21
84.426176
0
LINE
8
Layer 1
10
5.161798
20
84.426176
11
4.881351
21
84.045251
0
LINE
8
Layer 1
10
4.881351
20
84.045251
11
5.092110
21
83.621170
0
LINE
8
Layer 1
10
5.092110
20
83.621170
11
5.765756
21
83.159045
0
LINE
8
Layer 1
10
5.765756
20
83.159045
11
7.196046
21
82.629033
0
LINE
8
Layer 1
10
7.196046
20
82.629033
11
8.459426
21
82.315778
0
LINE
8
Layer 1
10
8.459426
20
82.315778
11
9.406026
21
82.139368
0
LINE
8
Layer 1
10
9.406026
20
82.139368
11
10.627946
21
81.962956
0
LINE
8
Layer 1
10
10.627946
20
81.962956
11
11.749906
21
81.787818
0
LINE
8
Layer 1
10
11.749906
20
81.787818
11
12.889646
21
81.611407
0
LINE
8
Layer 1
10
12.889646
20
81.611407
11
13.874267
21
81.433724
0
LINE
8
Layer 1
10
13.874267
20
81.433724
11
14.978137
21
81.257314
0
LINE
8
Layer 1
10
14.978137
20
81.257314
11
15.845827
21
81.185924
0
LINE
8
Layer 1
10
15.845827
20
81.185924
11
16.025774
21
80.890866
0
LINE
8
Layer 1
10
16.025774
20
80.890866
11
15.884847
21
80.498873
0
LINE
8
Layer 1
10
15.884847
20
80.498873
11
15.561427
21
80.084699
0
LINE
8
Layer 1
10
15.561427
20
80.084699
11
14.723107
21
79.174268
0
LINE
8
Layer 1
10
14.723107
20
79.174268
11
13.938757
21
78.787559
0
LINE
8
Layer 1
10
13.938757
20
78.787559
11
13.637184
21
78.611149
0
LINE
8
Layer 1
10
13.637184
20
78.611149
11
13.393078
21
78.434738
0
LINE
8
Layer 1
10
13.393078
20
78.434738
11
13.284362
21
78.258327
0
LINE
8
Layer 1
10
13.284362
20
78.258327
11
13.609068
21
78.089900
0
LINE
8
Layer 1
10
13.609068
20
78.089900
11
14.192988
21
78.259033
0
LINE
8
Layer 1
10
14.192988
20
78.259033
11
14.792780
21
78.434719
0
LINE
8
Layer 1
10
14.792780
20
78.434719
11
15.522396
21
78.778133
0
LINE
8
Layer 1
10
15.522396
20
78.778133
11
16.108750
21
79.321499
0
LINE
8
Layer 1
10
16.108750
20
79.321499
11
16.469784
21
79.493184
0
LINE
8
Layer 1
10
16.469784
20
79.493184
11
16.697093
21
79.445613
0
LINE
8
Layer 1
10
16.697093
20
79.445613
11
16.682706
21
79.228567
0
LINE
8
Layer 1
10
16.682706
20
79.228567
11
16.500902
21
78.413138
0
LINE
8
Layer 1
10
16.500902
20
78.413138
11
16.275397
21
77.627022
0
LINE
8
Layer 1
10
16.275397
20
77.627022
11
16.149467
21
77.116156
0
LINE
8
Layer 1
10
16.149467
20
77.116156
11
15.990602
21
76.608593
0
LINE
8
Layer 1
10
15.990602
20
76.608593
11
15.753147
21
76.053192
0
LINE
8
Layer 1
10
15.753147
20
76.053192
11
15.559190
21
75.729773
0
LINE
8
Layer 1
10
15.559190
20
75.729773
11
15.443824
21
75.592630
0
LINE
8
Layer 1
10
15.443824
20
75.592630
11
15.272872
21
75.269210
0
LINE
8
Layer 1
10
15.272872
20
75.269210
11
13.682512
21
73.730450
0
LINE
8
Layer 1
10
13.682512
20
73.730450
11
12.812384
21
72.995406
0
LINE
8
Layer 1
10
12.812384
20
72.995406
11
12.542837
21
72.719577
0
LINE
8
Layer 1
10
12.542837
20
72.719577
11
12.712644
21
72.671986
0
LINE
8
Layer 1
10
12.712644
20
72.671986
11
12.974069
21
72.763806
0
LINE
8
Layer 1
10
12.974069
20
72.763806
11
13.297489
21
72.993112
0
LINE
8
Layer 1
10
13.297489
20
72.993112
11
14.091337
21
73.429722
0
LINE
8
Layer 1
10
14.091337
20
73.429722
11
14.734801
21
73.811022
0
LINE
8
Layer 1
10
14.734801
20
73.811022
11
15.230668
21
74.223447
0
LINE
8
Layer 1
10
15.230668
20
74.223447
11
15.675070
21
74.553698
0
LINE
8
Layer 1
10
15.675070
20
74.553698
11
15.796641
21
74.667250
0
LINE
8
Layer 1
10
15.796641
20
74.667250
11
16.149463
21
75.141734
0
LINE
8
Layer 1
10
16.149463
20
75.141734
11
16.502284
21
75.713952
0
LINE
8
Layer 1
10
16.502284
20
75.713952
11
16.782410
21
76.069697
0
LINE
8
Layer 1
10
16.782410
20
76.069697
11
17.155357
21
76.174364
0
LINE
8
Layer 1
10
17.155357
20
76.174364
11
16.968304
21
75.065784
0
LINE
8
Layer 1
10
16.968304
20
75.065784
11
16.611101
21
73.912744
0
LINE
8
Layer 1
10
16.611101
20
73.912744
11
16.498544
21
73.559922
0
LINE
8
Layer 1
10
16.498544
20
73.559922
11
16.330638
21
73.102168
0
LINE
8
Layer 1
10
16.330638
20
73.102168
11
16.088930
21
72.426543
0
LINE
8
Layer 1
10
16.088930
20
72.426543
11
15.904015
21
71.901216
0
LINE
8
Layer 1
10
15.904015
20
71.901216
11
15.802203
21
71.718150
0
LINE
8
Layer 1
10
15.802203
20
71.718150
11
15.973055
21
71.613523
0
LINE
8
Layer 1
10
15.973055
20
71.613523
11
16.149465
21
71.784090
0
LINE
8
Layer 1
10
16.149465
20
71.784090
11
16.307802
21
72.048706
0
LINE
8
Layer 1
10
16.307802
20
72.048706
11
17.118466
21
73.518329
0
LINE
8
Layer 1
10
17.118466
20
73.518329
11
17.981602
21
75.582766
0
LINE
8
Layer 1
10
17.981602
20
75.582766
11
18.354580
21
76.317810
0
LINE
8
Layer 1
10
18.354580
20
76.317810
11
18.454680
21
76.315236
0
LINE
8
Layer 1
10
18.454680
20
76.315236
11
18.510932
21
76.144335
0
LINE
8
Layer 1
10
18.510932
20
76.144335
11
18.623653
21
74.318490
0
LINE
8
Layer 1
10
18.623653
20
74.318490
11
18.854747
21
70.084630
0
LINE
8
Layer 1
10
18.854747
20
70.084630
11
18.917490
21
65.900637
0
LINE
8
Layer 1
10
18.917490
20
65.900637
11
18.703784
21
63.489420
0
LINE
8
Layer 1
10
18.703784
20
63.489420
11
18.456886
21
63.263412
0
LINE
8
Layer 1
10
18.456886
20
63.263412
11
18.203932
21
63.062105
0
LINE
8
Layer 1
10
18.203932
20
63.062105
11
17.990003
21
62.917176
0
LINE
8
Layer 1
10
17.990003
20
62.917176
11
17.637880
21
62.889005
0
LINE
8
Layer 1
10
17.637880
20
62.889005
11
17.219360
21
62.832042
0
LINE
8
Layer 1
10
17.219360
20
62.832042
11
16.801857
21
62.512082
0
LINE
8
Layer 1
10
16.801857
20
62.512082
11
16.384683
21
61.999441
0
LINE
8
Layer 1
10
16.384683
20
61.999441
11
16.902662
21
61.313395
0
LINE
8
Layer 1
10
16.902662
20
61.313395
11
17.974187
21
60.064161
0
LINE
8
Layer 1
10
17.974187
20
60.064161
11
18.146912
21
59.542825
0
LINE
8
Layer 1
10
18.146912
20
59.542825
11
17.973103
21
58.837183
0
LINE
8
Layer 1
10
17.973103
20
58.837183
11
17.796692
21
58.242643
0
LINE
8
Layer 1
10
17.796692
20
58.242643
11
17.687410
21
57.917875
0
LINE
8
Layer 1
10
17.687410
20
57.917875
11
17.499914
21
57.491387
0
LINE
8
Layer 1
10
17.499914
20
57.491387
11
17.256376
21
56.816495
0
LINE
8
Layer 1
10
17.256376
20
56.816495
11
17.091050
21
56.378947
0
LINE
8
Layer 1
10
17.091050
20
56.378947
11
16.766906
21
55.882717
0
LINE
8
Layer 1
10
16.766906
20
55.882717
11
16.443483
21
55.508540
0
LINE
8
Layer 1
10
16.443483
20
55.508540
11
13.032873
21
55.436800
0
LINE
8
Layer 1
10
13.032873
20
55.436800
11
8.581613
21
55.179600
0
LINE
8
Layer 1
10
8.581613
20
55.179600
11
7.774195
21
54.910384
0
LINE
8
Layer 1
10
7.774195
20
54.910384
11
7.633781
21
54.724766
0
LINE
8
Layer 1
10
7.633781
20
54.724766
11
7.634130
21
54.499100
0
LINE
8
Layer 1
10
7.634130
20
54.499100
11
7.644296
21
54.258313
0
LINE
8
Layer 1
10
7.644296
20
54.258313
11
7.505970
21
54.132800
0
LINE
8
Layer 1
10
7.505970
20
54.132800
11
7.228880
21
54.167900
0
LINE
8
Layer 1
10
7.228880
20
54.167900
11
6.831436
21
54.491750
0
LINE
8
Layer 1
10
6.831436
20
54.491750
11
6.433400
21
54.597800
0
LINE
8
Layer 1
10
6.433400
20
54.597800
11
6.277069
21
54.358181
0
LINE
8
Layer 1
10
6.277069
20
54.358181
11
6.446902
21
54.014418
0
LINE
8
Layer 1
10
6.446902
20
54.014418
11
6.623313
21
53.611194
0
LINE
8
Layer 1
10
6.623313
20
53.611194
11
6.544383
21
53.449472
0
LINE
8
Layer 1
10
6.544383
20
53.449472
11
6.341433
21
53.383219
0
LINE
8
Layer 1
10
6.341433
20
53.383219
11
5.766523
21
53.551304
0
LINE
8
Layer 1
10
5.766523
20
53.551304
11
5.113334
21
53.758369
0
LINE
8
Layer 1
10
5.113334
20
53.758369
11
4.209270
21
53.826930
0
LINE
8
Layer 1
10
4.209270
20
53.826930
11
3.343808
21
53.757178
0
LINE
8
Layer 1
10
3.343808
20
53.757178
11
2.806423
21
53.549304
0
LINE
8
Layer 1
10
2.806423
20
53.549304
11
2.564051
21
53.384348
0
LINE
8
Layer 1
10
2.564051
20
53.384348
11
1.826255
21
52.706372
0
LINE
8
Layer 1
10
1.826255
20
52.706372
11
1.043891
21
51.716358
0
LINE
8
Layer 1
10
1.043891
20
51.716358
11
0.902334
21
51.324031
0
LINE
8
Layer 1
10
0.902334
20
51.324031
11
0.951979
21
50.998957
0
LINE
8
Layer 1
10
0.951979
20
50.998957
11
1.698540
21
50.402800
0
LINE
8
Layer 1
10
1.698540
20
50.402800
11
2.683470
21
49.848600
0
LINE
8
Layer 1
10
2.683470
20
49.848600
11
3.271500
21
49.503300
0
LINE
8
Layer 1
10
3.271500
20
49.503300
11
5.506040
21
48.092000
0
LINE
8
Layer 1
10
5.506040
20
48.092000
11
7.758550
21
46.689800
0
LINE
8
Layer 1
10
7.758550
20
46.689800
11
8.088910
21
46.452800
0
LINE
8
Layer 1
10
8.088910
20
46.452800
11
8.388508
21
46.327939
0
LINE
8
Layer 1
10
8.388508
20
46.327939
11
8.704987
21
46.180704
0
LINE
8
Layer 1
10
8.704987
20
46.180704
11
10.246727
21
45.326916
0
LINE
8
Layer 1
10
10.246727
20
45.326916
11
12.743367
21
44.337934
0
LINE
8
Layer 1
10
12.743367
20
44.337934
11
15.134687
21
43.698422
0
LINE
8
Layer 1
10
15.134687
20
43.698422
11
17.678377
21
43.384431
0
LINE
8
Layer 1
10
17.678377
20
43.384431
11
20.525717
21
43.376631
0
LINE
8
Layer 1
10
20.525717
20
43.376631
11
22.263547
21
43.505389
0
LINE
8
Layer 1
10
22.263547
20
43.505389
11
24.165028
21
43.769859
0
LINE
8
Layer 1
10
24.165028
20
43.769859
11
26.927144
21
44.378424
0
LINE
8
Layer 1
10
26.927144
20
44.378424
11
29.415965
21
45.053814
0
LINE
8
Layer 1
10
29.415965
20
45.053814
11
30.497557
21
45.518759
0
LINE
8
Layer 1
10
30.497557
20
45.518759
11
30.725830
21
45.622315
0
LINE
8
Layer 1
10
30.725830
20
45.622315
11
31.031745
21
45.747940
0
LINE
8
Layer 1
10
31.031745
20
45.747940
11
31.270135
21
45.811880
0
LINE
8
Layer 1
10
31.270135
20
45.811880
11
31.500393
21
45.862660
0
LINE
8
Layer 1
10
31.500393
20
45.862660
11
31.842581
21
45.975130
0
LINE
8
Layer 1
10
31.842581
20
45.975130
11
32.261666
21
46.151542
0
LINE
8
Layer 1
10
32.261666
20
46.151542
11
32.673290
21
46.327952
0
LINE
8
Layer 1
10
32.673290
20
46.327952
11
33.084916
21
46.504363
0
LINE
8
Layer 1
10
33.084916
20
46.504363
11
33.385476
21
46.680774
0
LINE
8
Layer 1
10
33.385476
20
46.680774
11
34.811766
21
47.517266
0
LINE
8
Layer 1
10
34.811766
20
47.517266
11
36.729263
21
49.027918
0
LINE
8
Layer 1
10
36.729263
20
49.027918
11
38.090696
21
50.561806
0
LINE
8
Layer 1
10
38.090696
20
50.561806
11
38.493748
21
51.149842
0
LINE
8
Layer 1
10
38.493748
20
51.149842
11
39.008751
21
52.044551
0
LINE
8
Layer 1
10
39.008751
20
52.044551
11
39.318098
21
52.996102
0
LINE
8
Layer 1
10
39.318098
20
52.996102
11
39.171926
21
53.420823
0
LINE
8
Layer 1
10
39.171926
20
53.420823
11
38.745224
21
53.758328
0
LINE
8
Layer 1
10
38.745224
20
53.758328
11
38.055715
21
53.999429
0
LINE
8
Layer 1
10
38.055715
20
53.999429
11
37.121118
21
54.134942
0
LINE
8
Layer 1
10
37.121118
20
54.134942
11
35.166140
21
54.349615
0
LINE
8
Layer 1
10
35.166140
20
54.349615
11
33.742658
21
54.640255
0
LINE
8
Layer 1
10
33.742658
20
54.640255
11
33.201591
21
54.751948
0
LINE
8
Layer 1
10
33.201591
20
54.751948
11
32.835965
21
54.568885
0
LINE
8
Layer 1
10
32.835965
20
54.568885
11
32.260839
21
54.332111
0
LINE
8
Layer 1
10
32.260839
20
54.332111
11
32.056732
21
54.388503
0
LINE
8
Layer 1
10
32.056732
20
54.388503
11
31.942585
21
54.561685
0
LINE
8
Layer 1
10
31.942585
20
54.561685
11
31.849427
21
54.737873
0
LINE
8
Layer 1
10
31.849427
20
54.737873
11
31.573078
21
54.850014
0
LINE
8
Layer 1
10
31.573078
20
54.850014
11
29.797805
21
55.028696
0
LINE
8
Layer 1
10
29.797805
20
55.028696
11
26.641099
21
55.150738
0
LINE
8
Layer 1
10
26.641099
20
55.150738
11
25.658661
21
55.090213
0
LINE
8
Layer 1
10
25.658661
20
55.090213
11
25.181425
21
54.950486
0
LINE
8
Layer 1
10
25.181425
20
54.950486
11
24.972745
21
54.816666
0
LINE
8
Layer 1
10
24.972745
20
54.816666
11
24.801411
21
54.921086
0
LINE
8
Layer 1
10
24.801411
20
54.921086
11
24.559892
21
55.757995
0
LINE
8
Layer 1
10
24.559892
20
55.757995
11
24.359189
21
57.275998
0
LINE
8
Layer 1
10
24.359189
20
57.275998
11
24.271405
21
58.731847
0
LINE
8
Layer 1
10
24.271405
20
58.731847
11
24.368638
21
59.382296
0
LINE
8
Layer 1
10
24.368638
20
59.382296
11
24.499584
21
59.549586
0
LINE
8
Layer 1
10
24.499584
20
59.549586
11
25.117826
21
60.253593
0
LINE
8
Layer 1
10
25.117826
20
60.253593
11
25.923854
21
60.793586
0
LINE
8
Layer 1
10
25.923854
20
60.793586
11
26.265850
21
60.966568
0
LINE
8
Layer 1
10
26.265850
20
60.966568
11
26.224467
21
61.286441
0
LINE
8
Layer 1
10
26.224467
20
61.286441
11
25.977242
21
61.710605
0
LINE
8
Layer 1
10
25.977242
20
61.710605
11
25.461896
21
62.293155
0
LINE
8
Layer 1
10
25.461896
20
62.293155
11
24.868738
21
62.841893
0
LINE
8
Layer 1
10
24.868738
20
62.841893
11
24.806291
21
63.380945
0
LINE
8
Layer 1
10
24.806291
20
63.380945
11
25.375318
21
65.615485
0
LINE
8
Layer 1
10
25.375318
20
65.615485
11
25.616413
21
66.643935
0
LINE
8
Layer 1
10
25.616413
20
66.643935
11
25.792481
21
67.202700
0
LINE
8
Layer 1
10
25.792481
20
67.202700
11
25.969677
21
67.850024
0
LINE
8
Layer 1
10
25.969677
20
67.850024
11
26.150311
21
68.499474
0
LINE
8
Layer 1
10
26.150311
20
68.499474
11
26.329056
21
69.087641
0
LINE
8
Layer 1
10
26.329056
20
69.087641
11
26.505056
21
69.614133
0
LINE
8
Layer 1
10
26.505056
20
69.614133
11
26.680861
21
70.172766
0
LINE
8
Layer 1
10
26.680861
20
70.172766
11
26.923282
21
70.991879
0
LINE
8
Layer 1
10
26.923282
20
70.991879
11
27.086944
21
71.487720
0
LINE
8
Layer 1
10
27.086944
20
71.487720
11
27.251809
21
72.109294
0
LINE
8
Layer 1
10
27.251809
20
72.109294
11
27.619265
21
73.201154
0
LINE
8
Layer 1
10
27.619265
20
73.201154
11
27.910290
21
74.087731
0
LINE
8
Layer 1
10
27.910290
20
74.087731
11
28.082402
21
74.763973
0
LINE
8
Layer 1
10
28.082402
20
74.763973
11
28.273354
21
75.259280
0
LINE
8
Layer 1
10
28.273354
20
75.259280
11
28.380623
21
75.564926
0
LINE
8
Layer 1
10
28.380623
20
75.564926
11
28.573630
21
76.267585
0
LINE
8
Layer 1
10
28.573630
20
76.267585
11
28.910168
21
76.670566
0
LINE
8
Layer 1
10
28.910168
20
76.670566
11
29.136379
21
76.263908
0
LINE
8
Layer 1
10
29.136379
20
76.263908
11
29.383958
21
75.528864
0
LINE
8
Layer 1
10
29.383958
20
75.528864
11
29.555971
21
74.994663
0
LINE
8
Layer 1
10
29.555971
20
74.994663
11
29.664957
21
74.788850
0
LINE
8
Layer 1
10
29.664957
20
74.788850
11
29.850713
21
74.436029
0
LINE
8
Layer 1
10
29.850713
20
74.436029
11
30.034228
21
74.083208
0
LINE
8
Layer 1
10
30.034228
20
74.083208
11
30.212986
21
73.793403
0
LINE
8
Layer 1
10
30.212986
20
73.793403
11
30.480834
21
73.455116
0
LINE
8
Layer 1
10
30.480834
20
73.455116
11
30.795225
21
73.400820
0
LINE
8
Layer 1
10
30.795225
20
73.400820
11
30.382284
21
74.611510
0
LINE
8
Layer 1
10
30.382284
20
74.611510
11
30.201228
21
75.525528
0
LINE
8
Layer 1
10
30.201228
20
75.525528
11
30.013247
21
76.385120
0
LINE
8
Layer 1
10
30.013247
20
76.385120
11
29.911534
21
76.908765
0
LINE
8
Layer 1
10
29.911534
20
76.908765
11
29.990407
21
77.376205
0
LINE
8
Layer 1
10
29.990407
20
77.376205
11
30.516303
21
76.876375
0
LINE
8
Layer 1
10
30.516303
20
76.876375
11
30.961308
21
76.376544
0
LINE
8
Layer 1
10
30.961308
20
76.376544
11
30.964608
21
76.815331
0
LINE
8
Layer 1
10
30.964608
20
76.815331
11
31.021701
21
77.186616
0
LINE
8
Layer 1
10
31.021701
20
77.186616
11
31.261964
21
77.327912
0
LINE
8
Layer 1
10
31.261964
20
77.327912
11
31.555982
21
77.506562
0
LINE
8
Layer 1
10
31.555982
20
77.506562
11
31.732393
21
77.611421
0
LINE
8
Layer 1
10
31.732393
20
77.611421
11
31.909993
21
77.211231
0
LINE
8
Layer 1
10
31.909993
20
77.211231
11
31.784143
21
76.539781
0
LINE
8
Layer 1
10
31.784143
20
76.539781
11
31.546401
21
75.588984
0
LINE
8
Layer 1
10
31.546401
20
75.588984
11
31.511626
21
74.579981
0
LINE
8
Layer 1
10
31.511626
20
74.579981
11
31.601235
21
74.297129
0
LINE
8
Layer 1
10
31.601235
20
74.297129
11
31.746053
21
74.329765
0
LINE
8
Layer 1
10
31.746053
20
74.329765
11
31.908802
21
74.663170
0
LINE
8
Layer 1
10
31.908802
20
74.663170
11
32.081472
21
75.089796
0
LINE
8
Layer 1
10
32.081472
20
75.089796
11
32.257883
21
75.623278
0
LINE
8
Layer 1
10
32.257883
20
75.623278
11
32.450937
21
76.086670
0
LINE
8
Layer 1
10
32.450937
20
76.086670
11
32.829518
21
76.317748
0
LINE
8
Layer 1
10
32.829518
20
76.317748
11
32.967266
21
75.788515
0
LINE
8
Layer 1
10
32.967266
20
75.788515
11
33.015283
21
75.380353
0
LINE
8
Layer 1
10
33.015283
20
75.380353
11
33.129068
21
75.243641
0
LINE
8
Layer 1
10
33.129068
20
75.243641
11
33.372332
21
75.785815
0
LINE
8
Layer 1
10
33.372332
20
75.785815
11
33.549136
21
76.348704
0
LINE
8
Layer 1
10
33.549136
20
76.348704
11
33.844935
21
76.131567
0
LINE
8
Layer 1
10
33.844935
20
76.131567
11
34.089882
21
75.496342
0
LINE
8
Layer 1
10
34.089882
20
75.496342
11
34.436230
21
73.671627
0
LINE
8
Layer 1
10
34.436230
20
73.671627
11
34.731587
21
72.285707
0
LINE
8
Layer 1
10
34.731587
20
72.285707
11
34.773235
21
71.574126
0
LINE
8
Layer 1
10
34.773235
20
71.574126
11
34.578727
21
71.425029
0
LINE
8
Layer 1
10
34.578727
20
71.425029
11
34.223618
21
71.383451
0
LINE
8
Layer 1
10
34.223618
20
71.383451
11
33.261284
21
71.558092
0
LINE
8
Layer 1
10
33.261284
20
71.558092
11
32.446325
21
71.729339
0
LINE
8
Layer 1
10
32.446325
20
71.729339
11
31.329055
21
71.972874
0
LINE
8
Layer 1
10
31.329055
20
71.972874
11
30.195145
21
72.325695
0
LINE
8
Layer 1
10
30.195145
20
72.325695
11
29.599795
21
72.436753
0
LINE
8
Layer 1
10
29.599795
20
72.436753
11
28.875564
21
72.196906
0
LINE
8
Layer 1
10
28.875564
20
72.196906
11
28.380585
21
71.845972
0
LINE
8
Layer 1
10
28.380585
20
71.845972
11
28.233577
21
71.730193
0
LINE
8
Layer 1
10
28.233577
20
71.730193
11
27.997006
21
71.486727
0
LINE
8
Layer 1
10
27.997006
20
71.486727
11
27.736624
21
70.896814
0
LINE
8
Layer 1
10
27.736624
20
70.896814
11
27.439728
21
69.505263
0
LINE
8
Layer 1
10
27.439728
20
69.505263
11
27.904894
21
67.203233
0
LINE
8
Layer 1
10
27.904894
20
67.203233
11
28.212161
21
66.438787
0
LINE
8
Layer 1
10
28.212161
20
66.438787
11
28.565153
21
65.733143
0
LINE
8
Layer 1
10
28.565153
20
65.733143
11
28.786226
21
65.292116
0
LINE
8
Layer 1
10
28.786226
20
65.292116
11
28.976547
21
65.027500
0
LINE
8
Layer 1
10
28.976547
20
65.027500
11
29.086229
21
64.869317
0
LINE
8
Layer 1
10
29.086229
20
64.869317
11
29.321443
21
64.498268
0
LINE
8
Layer 1
10
29.321443
20
64.498268
11
29.556657
21
64.190077
0
LINE
8
Layer 1
10
29.556657
20
64.190077
11
30.813937
21
62.762067
0
LINE
8
Layer 1
10
30.813937
20
62.762067
11
31.978609
21
61.726571
0
LINE
8
Layer 1
10
31.978609
20
61.726571
11
32.850977
21
61.146467
0
LINE
8
Layer 1
10
32.850977
20
61.146467
11
32.967271
21
61.031100
0
LINE
8
Layer 1
10
32.967271
20
61.031100
11
33.256464
21
60.843151
0
LINE
8
Layer 1
10
33.256464
20
60.843151
11
33.682491
21
60.605696
0
LINE
8
Layer 1
10
33.682491
20
60.605696
11
34.072771
21
60.440824
0
LINE
8
Layer 1
10
34.072771
20
60.440824
11
34.617004
21
60.235893
0
LINE
8
Layer 1
10
34.617004
20
60.235893
11
35.184356
21
60.069821
0
LINE
8
Layer 1
10
35.184356
20
60.069821
11
36.734974
21
60.041896
0
LINE
8
Layer 1
10
36.734974
20
60.041896
11
38.830324
21
60.196346
0
LINE
8
Layer 1
10
38.830324
20
60.196346
11
39.649305
21
60.441948
0
LINE
8
Layer 1
10
39.649305
20
60.441948
11
41.552605
21
60.968454
0
LINE
8
Layer 1
10
41.552605
20
60.968454
11
42.181348
21
61.194367
0
LINE
8
Layer 1
10
42.181348
20
61.194367
11
45.316038
21
62.669157
0
LINE
8
Layer 1
10
45.316038
20
62.669157
11
46.181237
21
63.263396
0
LINE
8
Layer 1
10
46.181237
20
63.263396
11
47.452897
21
64.380416
0
LINE
8
Layer 1
10
47.452897
20
64.380416
11
48.063065
21
65.209542
0
LINE
8
Layer 1
10
48.063065
20
65.209542
11
48.444710
21
66.158767
0
LINE
8
Layer 1
10
48.444710
20
66.158767
11
48.564915
21
67.103831
0
LINE
8
Layer 1
10
48.564915
20
67.103831
11
48.390760
21
67.920476
0
LINE
8
Layer 1
10
48.390760
20
67.920476
11
47.780414
21
69.077132
0
LINE
8
Layer 1
10
47.780414
20
69.077132
11
47.200420
21
69.511816
0
LINE
8
Layer 1
10
47.200420
20
69.511816
11
45.857364
21
70.097293
0
LINE
8
Layer 1
10
45.857364
20
70.097293
11
44.963220
21
70.316014
0
LINE
8
Layer 1
10
44.963220
20
70.316014
11
42.754090
21
70.862666
0
LINE
8
Layer 1
10
42.754090
20
70.862666
11
41.790390
21
71.025472
0
LINE
8
Layer 1
10
41.790390
20
71.025472
11
41.249333
21
71.089246
0
LINE
8
Layer 1
10
41.249333
20
71.089246
11
40.880856
21
71.293541
0
LINE
8
Layer 1
10
40.880856
20
71.293541
11
40.664956
21
71.657820
0
LINE
8
Layer 1
10
40.664956
20
71.657820
11
40.581630
21
72.201542
0
LINE
8
Layer 1
10
40.581630
20
72.201542
11
40.917595
21
76.406002
0
LINE
8
Layer 1
10
40.917595
20
76.406002
11
41.037938
21
76.665399
0
LINE
8
Layer 1
10
41.037938
20
76.665399
11
41.232275
21
76.643304
0
LINE
8
Layer 1
10
41.232275
20
76.643304
11
41.784463
21
75.795797
0
LINE
8
Layer 1
10
41.784463
20
75.795797
11
42.369112
21
74.874375
0
LINE
8
Layer 1
10
42.369112
20
74.874375
11
42.516350
21
74.909365
0
LINE
8
Layer 1
10
42.516350
20
74.909365
11
42.524278
21
75.303178
0
LINE
8
Layer 1
10
42.524278
20
75.303178
11
42.360995
21
75.900291
0
LINE
8
Layer 1
10
42.360995
20
75.900291
11
42.262474
21
76.292261
0
LINE
8
Layer 1
10
42.262474
20
76.292261
11
42.416455
21
76.553012
0
LINE
8
Layer 1
10
42.416455
20
76.553012
11
43.229598
21
75.953150
0
LINE
8
Layer 1
10
43.229598
20
75.953150
11
44.571095
21
74.678442
0
LINE
8
Layer 1
10
44.571095
20
74.678442
11
45.148699
21
74.229533
0
LINE
8
Layer 1
10
45.148699
20
74.229533
11
45.053741
21
74.766505
0
LINE
8
Layer 1
10
45.053741
20
74.766505
11
44.543754
21
75.553353
0
LINE
8
Layer 1
10
44.543754
20
75.553353
11
43.869563
21
76.361409
0
LINE
8
Layer 1
10
43.869563
20
76.361409
11
43.404926
21
76.887376
0
LINE
8
Layer 1
10
43.404926
20
76.887376
11
43.199113
21
77.225991
0
LINE
8
Layer 1
10
43.199113
20
77.225991
11
43.067106
21
77.376264
0
LINE
8
Layer 1
10
43.067106
20
77.376264
11
43.081506
21
77.552676
0
LINE
8
Layer 1
10
43.081506
20
77.552676
11
43.369892
21
77.722997
0
LINE
8
Layer 1
10
43.369892
20
77.722997
11
43.575652
21
77.599126
0
LINE
8
Layer 1
10
43.575652
20
77.599126
11
44.921987
21
77.025920
0
LINE
8
Layer 1
10
44.921987
20
77.025920
11
46.379292
21
76.732378
0
LINE
8
Layer 1
10
46.379292
20
76.732378
11
46.484035
21
76.918669
0
LINE
8
Layer 1
10
46.484035
20
76.918669
11
46.352472
21
77.130483
0
LINE
8
Layer 1
10
46.352472
20
77.130483
11
45.663333
21
77.376261
0
LINE
8
Layer 1
10
45.663333
20
77.376261
11
45.433652
21
77.496780
0
LINE
8
Layer 1
10
45.433652
20
77.496780
11
45.126624
21
77.734030
0
LINE
8
Layer 1
10
45.126624
20
77.734030
11
44.284268
21
78.230010
0
LINE
8
Layer 1
10
44.284268
20
78.230010
11
43.467894
21
78.892930
0
LINE
8
Layer 1
10
43.467894
20
78.892930
11
43.228448
21
79.221284
0
LINE
8
Layer 1
10
43.228448
20
79.221284
11
43.253882
21
79.465085
0
LINE
8
Layer 1
10
43.253882
20
79.465085
11
44.198774
21
79.825885
0
LINE
8
Layer 1
10
44.198774
20
79.825885
11
46.021684
21
80.378830
0
LINE
8
Layer 1
10
46.021684
20
80.378830
11
47.576194
21
80.868128
0
LINE
8
Layer 1
10
47.576194
20
80.868128
11
48.031622
21
81.093684
0
LINE
8
Layer 1
10
48.031622
20
81.093684
11
48.432629
21
81.257302
0
LINE
8
Layer 1
10
48.432629
20
81.257302
11
48.844255
21
81.433713
0
LINE
8
Layer 1
10
48.844255
20
81.433713
11
49.255879
21
81.610124
0
LINE
8
Layer 1
10
49.255879
20
81.610124
11
49.667505
21
81.786535
0
LINE
8
Layer 1
10
49.667505
20
81.786535
11
50.028882
21
81.962945
0
LINE
8
Layer 1
10
50.028882
20
81.962945
11
50.337902
21
82.109954
0
LINE
8
Layer 1
10
50.337902
20
82.109954
11
50.896889
21
82.492177
0
LINE
8
Layer 1
10
50.896889
20
82.492177
11
51.568458
21
82.908803
0
LINE
8
Layer 1
10
51.568458
20
82.908803
11
51.942212
21
83.313580
0
LINE
8
Layer 1
10
51.942212
20
83.313580
11
52.000490
21
83.675177
0
LINE
8
Layer 1
10
52.000490
20
83.675177
11
51.725631
21
83.962267
0
LINE
8
Layer 1
10
51.725631
20
83.962267
11
51.440589
21
84.351541
0
LINE
8
Layer 1
10
51.440589
20
84.351541
11
51.641721
21
84.795541
0
LINE
8
Layer 1
10
51.641721
20
84.795541
11
53.136911
21
85.528508
0
LINE
8
Layer 1
10
53.136911
20
85.528508
11
56.143441
21
86.642058
0
LINE
8
Layer 1
10
56.143441
20
86.642058
11
57.000160
21
87.255576
0
LINE
8
Layer 1
10
57.000160
20
87.255576
11
57.320099
21
87.635802
0
LINE
8
Layer 1
10
57.320099
20
87.635802
11
56.933808
21
87.920977
0
LINE
8
Layer 1
10
56.933808
20
87.920977
11
56.312303
21
88.252083
0
LINE
8
Layer 1
10
56.312303
20
88.252083
11
53.644098
21
88.476434
0
LINE
8
Layer 1
10
53.644098
20
88.476434
11
49.655023
21
88.531333
0
LINE
8
Layer 1
10
49.655023
20
88.531333
11
45.800672
21
88.560937
0
LINE
8
Layer 1
10
45.800672
20
88.560937
11
42.787483
21
88.843228
0
LINE
8
Layer 1
10
42.787483
20
88.843228
11
38.809108
21
89.153296
0
LINE
8
Layer 1
10
38.809108
20
89.153296
11
35.025403
21
89.077288
0
LINE
8
Layer 1
10
35.025403
20
89.077288
11
32.438043
21
88.778099
0
LINE
8
Layer 1
10
32.438043
20
88.778099
11
27.616153
21
88.634462
0
LINE
8
Layer 1
10
27.616153
20
88.634462
11
24.008029
21
88.657352
0
LINE
8
Layer 1
10
24.008029
20
88.657352
11
22.743513
21
88.819739
0
LINE
8
Layer 1
10
22.743513
20
88.819739
11
21.567443
21
89.020770
0
LINE
8
Layer 1
10
21.567443
20
89.020770
11
20.383313
21
89.195660
0
LINE
8
Layer 1
10
20.383313
20
89.195660
11
17.711078
21
89.419395
0
LINE
8
Layer 1
10
17.711078
20
89.419395
11
15.149793
21
89.386590
0
LINE
8
Layer 1
10
15.149793
20
89.386590
11
15.149800
21
89.386600
0
LINE
8
Layer 1
10
30.941800
20
80.956600
11
31.151445
21
80.693953
0
LINE
8
Layer 1
10
31.151445
20
80.693953
11
31.203183
21
80.188462
0
LINE
8
Layer 1
10
31.203183
20
80.188462
11
31.244851
21
79.725608
0
LINE
8
Layer 1
10
31.244851
20
79.725608
11
31.379594
21
79.535709
0
LINE
8
Layer 1
10
31.379594
20
79.535709
11
31.556222
21
79.032691
0
LINE
8
Layer 1
10
31.556222
20
79.032691
11
31.451424
21
78.501569
0
LINE
8
Layer 1
10
31.451424
20
78.501569
11
31.269206
21
78.127599
0
LINE
8
Layer 1
10
31.269206
20
78.127599
11
31.032644
21
77.659338
0
LINE
8
Layer 1
10
31.032644
20
77.659338
11
30.882330
21
77.575500
0
LINE
8
Layer 1
10
30.882330
20
77.575500
11
30.754698
21
77.650471
0
LINE
8
Layer 1
10
30.754698
20
77.650471
11
30.559302
21
78.287704
0
LINE
8
Layer 1
10
30.559302
20
78.287704
11
30.397230
21
78.764840
0
LINE
8
Layer 1
10
30.397230
20
78.764840
11
30.224046
21
78.536258
0
LINE
8
Layer 1
10
30.224046
20
78.536258
11
30.099881
21
78.343919
0
LINE
8
Layer 1
10
30.099881
20
78.343919
11
29.769302
21
78.359721
0
LINE
8
Layer 1
10
29.769302
20
78.359721
11
29.115003
21
78.745518
0
LINE
8
Layer 1
10
29.115003
20
78.745518
11
28.851038
21
79.440931
0
LINE
8
Layer 1
10
28.851038
20
79.440931
11
28.901265
21
79.775087
0
LINE
8
Layer 1
10
28.901265
20
79.775087
11
29.137955
21
79.845998
0
LINE
8
Layer 1
10
29.137955
20
79.845998
11
29.380395
21
79.767661
0
LINE
8
Layer 1
10
29.380395
20
79.767661
11
29.461375
21
79.404971
0
LINE
8
Layer 1
10
29.461375
20
79.404971
11
29.555967
21
79.023479
0
LINE
8
Layer 1
10
29.555967
20
79.023479
11
29.929604
21
78.927998
0
LINE
8
Layer 1
10
29.929604
20
78.927998
11
30.282128
21
78.938506
0
LINE
8
Layer 1
10
30.282128
20
78.938506
11
30.294222
21
79.148684
0
LINE
8
Layer 1
10
30.294222
20
79.148684
11
30.407729
21
79.506396
0
LINE
8
Layer 1
10
30.407729
20
79.506396
11
30.669101
21
80.037931
0
LINE
8
Layer 1
10
30.669101
20
80.037931
11
30.627902
21
80.528328
0
LINE
8
Layer 1
10
30.627902
20
80.528328
11
30.174118
21
80.667448
0
LINE
8
Layer 1
10
30.174118
20
80.667448
11
29.972206
21
80.724574
0
LINE
8
Layer 1
10
29.972206
20
80.724574
11
29.909502
21
80.904463
0
LINE
8
Layer 1
10
29.909502
20
80.904463
11
29.987088
21
81.092334
0
LINE
8
Layer 1
10
29.987088
20
81.092334
11
30.294958
21
81.139677
0
LINE
8
Layer 1
10
30.294958
20
81.139677
11
30.941798
21
80.956598
0
LINE
8
Layer 1
10
30.941798
20
80.956598
11
30.941800
21
80.956600
0
LINE
8
Layer 1
10
60.017000
20
38.171900
11
59.594088
21
37.892354
0
LINE
8
Layer 1
10
59.594088
20
37.892354
11
59.450555
21
37.587177
0
LINE
8
Layer 1
10
59.450555
20
37.587177
11
59.499992
21
37.315351
0
LINE
8
Layer 1
10
59.499992
20
37.315351
11
60.009189
21
37.272245
0
LINE
8
Layer 1
10
60.009189
20
37.272245
11
60.605036
21
37.272245
0
LINE
8
Layer 1
10
60.605036
20
37.272245
11
60.605036
21
37.860282
0
LINE
8
Layer 1
10
60.605036
20
37.860282
11
60.575636
21
38.445004
0
LINE
8
Layer 1
10
60.575636
20
38.445004
11
60.017002
21
38.171900
0
LINE
8
Layer 1
10
60.017002
20
38.171900
11
60.017000
21
38.171900
 0 
ENDSEC
 0 
EOF