999
"DXF R12 Output" (www.mydxf.blogspot.com)
 0 
SECTION
 2 
HEADER
 9 
$ACADVER
 1 
AC1009
 9 
$EXTMIN
 10 
 0 
 20 
 0 
 9 
$EXTMAX
 10 
 8.5 
 20 
 11 
 0 
ENDSEC
 0 
SECTION
 2 
ENTITIES
0
LINE
8
Layer 1
10
9.507260
20
87.575600
11
6.547220
21
86.867988
0
LINE
8
Layer 1
10
6.547220
20
86.867988
11
5.504133
21
86.438436
0
LINE
8
Layer 1
10
5.504133
20
86.438436
11
4.842380
21
85.989000
0
LINE
8
Layer 1
10
4.842380
20
85.989000
11
4.310371
21
85.331625
0
LINE
8
Layer 1
10
4.310371
20
85.331625
11
4.114338
21
84.798075
0
LINE
8
Layer 1
10
4.114338
20
84.798075
11
4.261110
21
83.802300
0
LINE
8
Layer 1
10
4.261110
20
83.802300
11
4.621338
21
82.769355
0
LINE
8
Layer 1
10
4.621338
20
82.769355
11
5.151958
21
81.811763
0
LINE
8
Layer 1
10
5.151958
20
81.811763
11
6.605561
21
80.097797
0
LINE
8
Layer 1
10
6.605561
20
80.097797
11
8.384289
21
78.610726
0
LINE
8
Layer 1
10
8.384289
20
78.610726
11
10.250510
21
77.300870
0
LINE
8
Layer 1
10
10.250510
20
77.300870
11
11.117661
21
76.897174
0
LINE
8
Layer 1
10
11.117661
20
76.897174
11
12.045500
21
76.619740
0
LINE
8
Layer 1
10
12.045500
20
76.619740
11
13.783676
21
75.995110
0
LINE
8
Layer 1
10
13.783676
20
75.995110
11
14.788347
21
75.749173
0
LINE
8
Layer 1
10
14.788347
20
75.749173
11
16.209910
21
75.598360
0
LINE
8
Layer 1
10
16.209910
20
75.598360
11
19.458115
21
75.291950
0
LINE
8
Layer 1
10
19.458115
20
75.291950
11
21.635320
21
74.851560
0
LINE
8
Layer 1
10
21.635320
20
74.851560
11
22.020707
21
74.471644
0
LINE
8
Layer 1
10
22.020707
20
74.471644
11
22.175469
21
73.833383
0
LINE
8
Layer 1
10
22.175469
20
73.833383
11
22.175974
21
72.384330
0
LINE
8
Layer 1
10
22.175974
20
72.384330
11
22.059085
21
70.908044
0
LINE
8
Layer 1
10
22.059085
20
70.908044
11
21.775052
21
69.248767
0
LINE
8
Layer 1
10
21.775052
20
69.248767
11
20.925235
21
65.843144
0
LINE
8
Layer 1
10
20.925235
20
65.843144
11
19.636344
21
61.916930
0
LINE
8
Layer 1
10
19.636344
20
61.916930
11
19.118336
21
60.739020
0
LINE
8
Layer 1
10
19.118336
20
60.739020
11
18.124064
21
58.446283
0
LINE
8
Layer 1
10
18.124064
20
58.446283
11
17.024376
21
56.383720
0
LINE
8
Layer 1
10
17.024376
20
56.383720
11
16.406462
21
55.344390
0
LINE
8
Layer 1
10
16.406462
20
55.344390
11
16.008423
21
54.898965
0
LINE
8
Layer 1
10
16.008423
20
54.898965
11
15.842232
21
54.602015
0
LINE
8
Layer 1
10
15.842232
20
54.602015
11
15.684943
21
54.305056
0
LINE
8
Layer 1
10
15.684943
20
54.305056
11
14.796812
21
53.364712
0
LINE
8
Layer 1
10
14.796812
20
53.364712
11
13.419852
21
51.706912
0
LINE
8
Layer 1
10
13.419852
20
51.706912
11
11.502942
21
49.355862
0
LINE
8
Layer 1
10
11.502942
20
49.355862
11
10.812846
21
48.465007
0
LINE
8
Layer 1
10
10.812846
20
48.465007
11
10.206127
21
47.501747
0
LINE
8
Layer 1
10
10.206127
20
47.501747
11
9.583391
21
46.677251
0
LINE
8
Layer 1
10
9.583391
20
46.677251
11
9.282759
21
46.638522
0
LINE
8
Layer 1
10
9.282759
20
46.638522
11
8.955477
21
46.830664
0
LINE
8
Layer 1
10
8.955477
20
46.830664
11
8.071994
21
47.254381
0
LINE
8
Layer 1
10
8.071994
20
47.254381
11
7.527582
21
47.577922
0
LINE
8
Layer 1
10
7.527582
20
47.577922
11
7.169484
21
47.772119
0
LINE
8
Layer 1
10
7.169484
20
47.772119
11
6.427104
21
48.062775
0
LINE
8
Layer 1
10
6.427104
20
48.062775
11
5.578370
21
48.359727
0
LINE
8
Layer 1
10
5.578370
20
48.359727
11
4.057120
21
48.673242
0
LINE
8
Layer 1
10
4.057120
20
48.673242
11
2.978494
21
48.872751
0
LINE
8
Layer 1
10
2.978494
20
48.872751
11
1.869160
21
48.920702
0
LINE
8
Layer 1
10
1.869160
20
48.920702
11
0.882087
21
48.778688
0
LINE
8
Layer 1
10
0.882087
20
48.778688
11
0.369428
21
48.365700
0
LINE
8
Layer 1
10
0.369428
20
48.365700
11
0.100141
21
47.777475
0
LINE
8
Layer 1
10
0.100141
20
47.777475
11
0.290388
21
46.758900
0
LINE
8
Layer 1
10
0.290388
20
46.758900
11
1.236572
21
44.250962
0
LINE
8
Layer 1
10
1.236572
20
44.250962
11
2.894550
21
41.508200
0
LINE
8
Layer 1
10
2.894550
20
41.508200
11
4.837774
21
39.136238
0
LINE
8
Layer 1
10
4.837774
20
39.136238
11
5.834919
21
38.262679
0
LINE
8
Layer 1
10
5.834919
20
38.262679
11
6.907860
21
37.539280
0
LINE
8
Layer 1
10
6.907860
20
37.539280
11
7.484966
21
37.233204
0
LINE
8
Layer 1
10
7.484966
20
37.233204
11
8.100034
21
37.074924
0
LINE
8
Layer 1
10
8.100034
20
37.074924
11
10.794050
21
37.022092
0
LINE
8
Layer 1
10
10.794050
20
37.022092
11
13.507960
21
37.125053
0
LINE
8
Layer 1
10
13.507960
20
37.125053
11
15.203370
21
37.547999
0
LINE
8
Layer 1
10
15.203370
20
37.547999
11
17.213610
21
38.457432
0
LINE
8
Layer 1
10
17.213610
20
38.457432
11
17.777591
21
38.807194
0
LINE
8
Layer 1
10
17.777591
20
38.807194
11
18.084927
21
38.816820
0
LINE
8
Layer 1
10
18.084927
20
38.816820
11
18.185726
21
38.441399
0
LINE
8
Layer 1
10
18.185726
20
38.441399
11
18.130100
21
37.636016
0
LINE
8
Layer 1
10
18.130100
20
37.636016
11
17.807577
21
36.065286
0
LINE
8
Layer 1
10
17.807577
20
36.065286
11
17.620293
21
35.065750
0
LINE
8
Layer 1
10
17.620293
20
35.065750
11
17.316424
21
32.726610
0
LINE
8
Layer 1
10
17.316424
20
32.726610
11
17.102326
21
30.722759
0
LINE
8
Layer 1
10
17.102326
20
30.722759
11
17.049571
21
28.117310
0
LINE
8
Layer 1
10
17.049571
20
28.117310
11
17.007001
21
25.120520
0
LINE
8
Layer 1
10
17.007001
20
25.120520
11
14.852391
21
25.241689
0
LINE
8
Layer 1
10
14.852391
20
25.241689
11
12.607089
21
25.350149
0
LINE
8
Layer 1
10
12.607089
20
25.350149
11
10.213310
21
25.317888
0
LINE
8
Layer 1
10
10.213310
20
25.317888
11
8.144076
21
25.164575
0
LINE
8
Layer 1
10
8.144076
20
25.164575
11
6.872411
21
24.909881
0
LINE
8
Layer 1
10
6.872411
20
24.909881
11
5.653231
21
24.609923
0
LINE
8
Layer 1
10
5.653231
20
24.609923
11
5.335711
21
24.548509
0
LINE
8
Layer 1
10
5.335711
20
24.548509
11
5.174203
21
24.385234
0
LINE
8
Layer 1
10
5.174203
20
24.385234
11
5.180966
21
24.151547
0
LINE
8
Layer 1
10
5.180966
20
24.151547
11
5.368260
21
23.878898
0
LINE
8
Layer 1
10
5.368260
20
23.878898
11
5.484761
21
23.622118
0
LINE
8
Layer 1
10
5.484761
20
23.622118
11
5.376760
21
23.274300
0
LINE
8
Layer 1
10
5.376760
20
23.274300
11
5.753049
21
22.667190
0
LINE
8
Layer 1
10
5.753049
20
22.667190
11
6.819328
21
21.648662
0
LINE
8
Layer 1
10
6.819328
20
21.648662
11
8.089264
21
20.689607
0
LINE
8
Layer 1
10
8.089264
20
20.689607
11
9.076520
21
20.260920
0
LINE
8
Layer 1
10
9.076520
20
20.260920
11
9.829048
21
20.038742
0
LINE
8
Layer 1
10
9.829048
20
20.038742
11
10.858230
21
19.184140
0
LINE
8
Layer 1
10
10.858230
20
19.184140
11
11.983353
21
18.296246
0
LINE
8
Layer 1
10
11.983353
20
18.296246
11
13.451215
21
17.397370
0
LINE
8
Layer 1
10
13.451215
20
17.397370
11
15.065454
21
16.595844
0
LINE
8
Layer 1
10
15.065454
20
16.595844
11
16.629710
21
16.000000
0
LINE
8
Layer 1
10
16.629710
20
16.000000
11
18.166478
21
15.623266
0
LINE
8
Layer 1
10
18.166478
20
15.623266
11
19.801829
21
15.405622
0
LINE
8
Layer 1
10
19.801829
20
15.405622
11
21.471948
21
15.352300
0
LINE
8
Layer 1
10
21.471948
20
15.352300
11
23.113020
21
15.468532
0
LINE
8
Layer 1
10
23.113020
20
15.468532
11
25.231080
21
15.904498
0
LINE
8
Layer 1
10
25.231080
20
15.904498
11
25.832647
21
16.097298
0
LINE
8
Layer 1
10
25.832647
20
16.097298
11
26.980147
21
16.493234
0
LINE
8
Layer 1
10
26.980147
20
16.493234
11
27.992307
21
16.889170
0
LINE
8
Layer 1
10
27.992307
20
16.889170
11
28.512184
21
17.186122
0
LINE
8
Layer 1
10
28.512184
20
17.186122
11
29.106088
21
17.483074
0
LINE
8
Layer 1
10
29.106088
20
17.483074
11
29.699992
21
17.780026
0
LINE
8
Layer 1
10
29.699992
20
17.780026
11
30.318136
21
18.076978
0
LINE
8
Layer 1
10
30.318136
20
18.076978
11
30.689834
21
18.261606
0
LINE
8
Layer 1
10
30.689834
20
18.261606
11
31.058457
21
18.563230
0
LINE
8
Layer 1
10
31.058457
20
18.563230
11
32.257517
21
19.470196
0
LINE
8
Layer 1
10
32.257517
20
19.470196
11
32.945015
21
20.266636
0
LINE
8
Layer 1
10
32.945015
20
20.266636
11
33.027204
21
21.090476
0
LINE
8
Layer 1
10
33.027204
20
21.090476
11
32.837494
21
21.855859
0
LINE
8
Layer 1
10
32.837494
20
21.855859
11
31.976624
21
22.283386
0
LINE
8
Layer 1
10
31.976624
20
22.283386
11
30.673896
21
22.578729
0
LINE
8
Layer 1
10
30.673896
20
22.578729
11
28.809134
21
22.753270
0
LINE
8
Layer 1
10
28.809134
20
22.753270
11
25.754854
21
23.141338
0
LINE
8
Layer 1
10
25.754854
20
23.141338
11
24.270094
21
23.429134
0
LINE
8
Layer 1
10
24.270094
20
23.429134
11
23.167044
21
23.719072
0
LINE
8
Layer 1
10
23.167044
20
23.719072
11
21.855004
21
24.009008
0
LINE
8
Layer 1
10
21.855004
20
24.009008
11
21.099751
21
24.099991
0
LINE
8
Layer 1
10
21.099751
20
24.099991
11
20.696166
21
24.531055
0
LINE
8
Layer 1
10
20.696166
20
24.531055
11
20.544975
21
25.564207
0
LINE
8
Layer 1
10
20.544975
20
25.564207
11
20.546904
21
27.461458
0
LINE
8
Layer 1
10
20.546904
20
27.461458
11
20.793374
21
31.439828
0
LINE
8
Layer 1
10
20.793374
20
31.439828
11
21.525699
21
35.526749
0
LINE
8
Layer 1
10
21.525699
20
35.526749
11
22.103354
21
37.729318
0
LINE
8
Layer 1
10
22.103354
20
37.729318
11
22.375171
21
38.943988
0
LINE
8
Layer 1
10
22.375171
20
38.943988
11
22.670903
21
39.979318
0
LINE
8
Layer 1
10
22.670903
20
39.979318
11
22.967854
21
40.969158
0
LINE
8
Layer 1
10
22.967854
20
40.969158
11
23.264807
21
41.958998
0
LINE
8
Layer 1
10
23.264807
20
41.958998
11
23.568055
21
42.921976
0
LINE
8
Layer 1
10
23.568055
20
42.921976
11
23.833080
21
43.644530
0
LINE
8
Layer 1
10
23.833080
20
43.644530
11
24.335824
21
44.010796
0
LINE
8
Layer 1
10
24.335824
20
44.010796
11
25.064784
21
43.552098
0
LINE
8
Layer 1
10
25.064784
20
43.552098
11
26.895692
21
42.442392
0
LINE
8
Layer 1
10
26.895692
20
42.442392
11
29.377254
21
41.507478
0
LINE
8
Layer 1
10
29.377254
20
41.507478
11
30.161587
21
41.272286
0
LINE
8
Layer 1
10
30.161587
20
41.272286
11
30.551916
21
41.003018
0
LINE
8
Layer 1
10
30.551916
20
41.003018
11
30.664240
21
40.527890
0
LINE
8
Layer 1
10
30.664240
20
40.527890
11
30.614554
21
39.675118
0
LINE
8
Layer 1
10
30.614554
20
39.675118
11
30.491856
21
37.088198
0
LINE
8
Layer 1
10
30.491856
20
37.088198
11
30.475616
21
36.434730
0
LINE
8
Layer 1
10
30.475616
20
36.434730
11
30.361940
21
36.067169
0
LINE
8
Layer 1
10
30.361940
20
36.067169
11
30.053389
21
35.850750
0
LINE
8
Layer 1
10
30.053389
20
35.850750
11
29.452526
21
35.650708
0
LINE
8
Layer 1
10
29.452526
20
35.650708
11
27.027416
21
35.197740
0
LINE
8
Layer 1
10
27.027416
20
35.197740
11
24.419761
21
34.797996
0
LINE
8
Layer 1
10
24.419761
20
34.797996
11
22.808916
21
34.288033
0
LINE
8
Layer 1
10
22.808916
20
34.288033
11
22.427902
21
33.878007
0
LINE
8
Layer 1
10
22.427902
20
33.878007
11
22.370676
21
33.350560
0
LINE
8
Layer 1
10
22.370676
20
33.350560
11
22.631325
21
32.738792
0
LINE
8
Layer 1
10
22.631325
20
32.738792
11
23.203940
21
32.075803
0
LINE
8
Layer 1
10
23.203940
20
32.075803
11
24.441240
21
31.124418
0
LINE
8
Layer 1
10
24.441240
20
31.124418
11
25.146721
21
30.775536
0
LINE
8
Layer 1
10
25.146721
20
30.775536
11
26.337651
21
30.159934
0
LINE
8
Layer 1
10
26.337651
20
30.159934
11
27.057961
21
29.948771
0
LINE
8
Layer 1
10
27.057961
20
29.948771
11
27.807634
21
29.651819
0
LINE
8
Layer 1
10
27.807634
20
29.651819
11
28.655963
21
29.361163
0
LINE
8
Layer 1
10
28.655963
20
29.361163
11
29.558473
21
29.092098
0
LINE
8
Layer 1
10
29.558473
20
29.092098
11
31.481693
21
28.576619
0
LINE
8
Layer 1
10
31.481693
20
28.576619
11
33.238683
21
28.248488
0
LINE
8
Layer 1
10
33.238683
20
28.248488
11
34.740655
21
28.514823
0
LINE
8
Layer 1
10
34.740655
20
28.514823
11
36.197573
21
29.102565
0
LINE
8
Layer 1
10
36.197573
20
29.102565
11
36.732150
21
29.361163
0
LINE
8
Layer 1
10
36.732150
20
29.361163
11
37.163432
21
29.608623
0
LINE
8
Layer 1
10
37.163432
20
29.608623
11
37.628179
21
30.039313
0
LINE
8
Layer 1
10
37.628179
20
30.039313
11
38.381962
21
30.480441
0
LINE
8
Layer 1
10
38.381962
20
30.480441
11
39.562482
21
31.469022
0
LINE
8
Layer 1
10
39.562482
20
31.469022
11
40.630412
21
32.330683
0
LINE
8
Layer 1
10
40.630412
20
32.330683
11
40.786188
21
32.627636
0
LINE
8
Layer 1
10
40.786188
20
32.627636
11
40.987360
21
32.924587
0
LINE
8
Layer 1
10
40.987360
20
32.924587
11
41.517432
21
33.614300
0
LINE
8
Layer 1
10
41.517432
20
33.614300
11
41.707559
21
34.393501
0
LINE
8
Layer 1
10
41.707559
20
34.393501
11
41.397288
21
35.023929
0
LINE
8
Layer 1
10
41.397288
20
35.023929
11
40.518850
21
35.572822
0
LINE
8
Layer 1
10
40.518850
20
35.572822
11
39.004472
21
36.107420
0
LINE
8
Layer 1
10
39.004472
20
36.107420
11
35.836982
21
36.408939
0
LINE
8
Layer 1
10
35.836982
20
36.408939
11
33.295302
21
36.467199
0
LINE
8
Layer 1
10
33.295302
20
36.467199
11
33.107970
21
36.730460
0
LINE
8
Layer 1
10
33.107970
20
36.730460
11
33.123405
21
37.626329
0
LINE
8
Layer 1
10
33.123405
20
37.626329
11
33.519999
21
40.572293
0
LINE
8
Layer 1
10
33.519999
20
40.572293
11
33.760625
21
41.491791
0
LINE
8
Layer 1
10
33.760625
20
41.491791
11
33.986556
21
41.833149
0
LINE
8
Layer 1
10
33.986556
20
41.833149
11
34.253234
21
42.017776
0
LINE
8
Layer 1
10
34.253234
20
42.017776
11
34.640171
21
42.325212
0
LINE
8
Layer 1
10
34.640171
20
42.325212
11
35.344376
21
42.809625
0
LINE
8
Layer 1
10
35.344376
20
42.809625
11
36.362441
21
43.761128
0
LINE
8
Layer 1
10
36.362441
20
43.761128
11
37.359408
21
44.841894
0
LINE
8
Layer 1
10
37.359408
20
44.841894
11
38.000321
21
45.714102
0
LINE
8
Layer 1
10
38.000321
20
45.714102
11
38.354144
21
46.535829
0
LINE
8
Layer 1
10
38.354144
20
46.535829
11
38.391452
21
47.145648
0
LINE
8
Layer 1
10
38.391452
20
47.145648
11
38.098438
21
47.601074
0
LINE
8
Layer 1
10
38.098438
20
47.601074
11
37.461296
21
47.959622
0
LINE
8
Layer 1
10
37.461296
20
47.959622
11
36.836112
21
48.121620
0
LINE
8
Layer 1
10
36.836112
20
48.121620
11
36.289846
21
47.987012
0
LINE
8
Layer 1
10
36.289846
20
47.987012
11
35.790118
21
47.864251
0
LINE
8
Layer 1
10
35.790118
20
47.864251
11
35.361692
21
48.159501
0
LINE
8
Layer 1
10
35.361692
20
48.159501
11
35.075343
21
48.561819
0
LINE
8
Layer 1
10
35.075343
20
48.561819
11
35.186166
21
48.942424
0
LINE
8
Layer 1
10
35.186166
20
48.942424
11
35.509009
21
50.562091
0
LINE
8
Layer 1
10
35.509009
20
50.562091
11
35.858653
21
53.868718
0
LINE
8
Layer 1
10
35.858653
20
53.868718
11
36.116870
21
57.830923
0
LINE
8
Layer 1
10
36.116870
20
57.830923
11
36.165434
21
61.417324
0
LINE
8
Layer 1
10
36.165434
20
61.417324
11
35.844557
21
66.282174
0
LINE
8
Layer 1
10
35.844557
20
66.282174
11
35.756307
21
67.416854
0
LINE
8
Layer 1
10
35.756307
20
67.416854
11
35.901466
21
67.657747
0
LINE
8
Layer 1
10
35.901466
20
67.657747
11
36.240232
21
67.406654
0
LINE
8
Layer 1
10
36.240232
20
67.406654
11
37.487658
21
65.320839
0
LINE
8
Layer 1
10
37.487658
20
65.320839
11
38.407682
21
63.203734
0
LINE
8
Layer 1
10
38.407682
20
63.203734
11
38.577110
21
62.708819
0
LINE
8
Layer 1
10
38.577110
20
62.708819
11
39.176373
21
61.194004
0
LINE
8
Layer 1
10
39.176373
20
61.194004
11
39.598390
21
59.527369
0
LINE
8
Layer 1
10
39.598390
20
59.527369
11
39.787212
21
58.946668
0
LINE
8
Layer 1
10
39.787212
20
58.946668
11
40.169006
21
57.372818
0
LINE
8
Layer 1
10
40.169006
20
57.372818
11
40.662150
21
54.819638
0
LINE
8
Layer 1
10
40.662150
20
54.819638
11
40.849613
21
53.087908
0
LINE
8
Layer 1
10
40.849613
20
53.087908
11
40.845521
21
52.353240
0
LINE
8
Layer 1
10
40.845521
20
52.353240
11
41.007478
21
51.476564
0
LINE
8
Layer 1
10
41.007478
20
51.476564
11
41.332260
21
49.547598
0
LINE
8
Layer 1
10
41.332260
20
49.547598
11
41.580704
21
46.386338
0
LINE
8
Layer 1
10
41.580704
20
46.386338
11
41.983938
21
42.525958
0
LINE
8
Layer 1
10
41.983938
20
42.525958
11
42.489327
21
38.566598
0
LINE
8
Layer 1
10
42.489327
20
38.566598
11
42.951388
21
35.468388
0
LINE
8
Layer 1
10
42.951388
20
35.468388
11
43.239098
21
34.147418
0
LINE
8
Layer 1
10
43.239098
20
34.147418
11
43.562298
21
32.900578
0
LINE
8
Layer 1
10
43.562298
20
32.900578
11
43.957668
21
31.734238
0
LINE
8
Layer 1
10
43.957668
20
31.734238
11
44.202808
21
30.841354
0
LINE
8
Layer 1
10
44.202808
20
30.841354
11
44.146363
21
30.162063
0
LINE
8
Layer 1
10
44.146363
20
30.162063
11
43.557748
21
29.950369
0
LINE
8
Layer 1
10
43.557748
20
29.950369
11
42.432458
21
29.595701
0
LINE
8
Layer 1
10
42.432458
20
29.595701
11
41.442612
21
29.354783
0
LINE
8
Layer 1
10
41.442612
20
29.354783
11
40.500903
21
29.057831
0
LINE
8
Layer 1
10
40.500903
20
29.057831
11
39.678559
21
28.767175
0
LINE
8
Layer 1
10
39.678559
20
28.767175
11
38.689910
21
28.396955
0
LINE
8
Layer 1
10
38.689910
20
28.396955
11
37.117425
21
27.545794
0
LINE
8
Layer 1
10
37.117425
20
27.545794
11
35.625906
21
26.602944
0
LINE
8
Layer 1
10
35.625906
20
26.602944
11
34.880159
21
25.957655
0
LINE
8
Layer 1
10
34.880159
20
25.957655
11
34.548229
21
25.797654
0
LINE
8
Layer 1
10
34.548229
20
25.797654
11
34.224246
21
25.553885
0
LINE
8
Layer 1
10
34.224246
20
25.553885
11
34.171108
21
24.998915
0
LINE
8
Layer 1
10
34.171108
20
24.998915
11
34.358184
21
24.397253
0
LINE
8
Layer 1
10
34.358184
20
24.397253
11
34.754841
21
24.013404
0
LINE
8
Layer 1
10
34.754841
20
24.013404
11
35.334531
21
23.632213
0
LINE
8
Layer 1
10
35.334531
20
23.632213
11
35.832641
21
23.422034
0
LINE
8
Layer 1
10
35.832641
20
23.422034
11
36.761304
21
23.144120
0
LINE
8
Layer 1
10
36.761304
20
23.144120
11
38.706601
21
22.512576
0
LINE
8
Layer 1
10
38.706601
20
22.512576
11
41.606321
21
21.881816
0
LINE
8
Layer 1
10
41.606321
20
21.881816
11
44.528613
21
21.425789
0
LINE
8
Layer 1
10
44.528613
20
21.425789
11
46.541624
21
21.318440
0
LINE
8
Layer 1
10
46.541624
20
21.318440
11
48.767191
21
21.835002
0
LINE
8
Layer 1
10
48.767191
20
21.835002
11
50.873951
21
22.938348
0
LINE
8
Layer 1
10
50.873951
20
22.938348
11
52.891248
21
24.648494
0
LINE
8
Layer 1
10
52.891248
20
24.648494
11
54.848424
21
26.985460
0
LINE
8
Layer 1
10
54.848424
20
26.985460
11
56.108087
21
28.906735
0
LINE
8
Layer 1
10
56.108087
20
28.906735
11
56.701559
21
30.336719
0
LINE
8
Layer 1
10
56.701559
20
30.336719
11
56.753797
21
30.891692
0
LINE
8
Layer 1
10
56.753797
20
30.891692
11
56.645876
21
31.352903
0
LINE
8
Layer 1
10
56.645876
20
31.352903
11
56.379925
21
31.730036
0
LINE
8
Layer 1
10
56.379925
20
31.730036
11
55.958074
21
32.032780
0
LINE
8
Layer 1
10
55.958074
20
32.032780
11
55.175276
21
32.275332
0
LINE
8
Layer 1
10
55.175276
20
32.275332
11
53.668624
21
32.036580
0
LINE
8
Layer 1
10
53.668624
20
32.036580
11
51.225054
21
31.420854
0
LINE
8
Layer 1
10
51.225054
20
31.420854
11
49.762504
21
31.142766
0
LINE
8
Layer 1
10
49.762504
20
31.142766
11
48.428364
21
30.867092
0
LINE
8
Layer 1
10
48.428364
20
30.867092
11
47.551544
21
30.725553
0
LINE
8
Layer 1
10
47.551544
20
30.725553
11
47.014520
21
31.644853
0
LINE
8
Layer 1
10
47.014520
20
31.644853
11
46.725244
21
32.914113
0
LINE
8
Layer 1
10
46.725244
20
32.914113
11
46.443794
21
34.256753
0
LINE
8
Layer 1
10
46.443794
20
34.256753
11
46.036554
21
36.487903
0
LINE
8
Layer 1
10
46.036554
20
36.487903
11
45.723414
21
38.566563
0
LINE
8
Layer 1
10
45.723414
20
38.566563
11
45.338364
21
43.416783
0
LINE
8
Layer 1
10
45.338364
20
43.416783
11
44.642224
21
54.799983
0
LINE
8
Layer 1
10
44.642224
20
54.799983
11
44.251734
21
57.076613
0
LINE
8
Layer 1
10
44.251734
20
57.076613
11
43.737393
21
59.999012
0
LINE
8
Layer 1
10
43.737393
20
59.999012
11
43.175044
21
62.223783
0
LINE
8
Layer 1
10
43.175044
20
62.223783
11
42.735610
21
63.609553
0
LINE
8
Layer 1
10
42.735610
20
63.609553
11
42.275067
21
64.896343
0
LINE
8
Layer 1
10
42.275067
20
64.896343
11
41.666803
21
66.381113
0
LINE
8
Layer 1
10
41.666803
20
66.381113
11
41.046012
21
67.584513
0
LINE
8
Layer 1
10
41.046012
20
67.584513
11
40.786204
21
68.119073
0
LINE
8
Layer 1
10
40.786204
20
68.119073
11
40.538747
21
68.499433
0
LINE
8
Layer 1
10
40.538747
20
68.499433
11
39.899362
21
69.449613
0
LINE
8
Layer 1
10
39.899362
20
69.449613
11
38.585742
21
71.528283
0
LINE
8
Layer 1
10
38.585742
20
71.528283
11
38.312162
21
72.112953
0
LINE
8
Layer 1
10
38.312162
20
72.112953
11
37.878801
21
72.880213
0
LINE
8
Layer 1
10
37.878801
20
72.880213
11
37.697631
21
73.231692
0
LINE
8
Layer 1
10
37.697631
20
73.231692
11
37.657459
21
73.681323
0
LINE
8
Layer 1
10
37.657459
20
73.681323
11
37.724720
21
73.974071
0
LINE
8
Layer 1
10
37.724720
20
73.974071
11
37.922689
21
74.147928
0
LINE
8
Layer 1
10
37.922689
20
74.147928
11
39.202469
21
74.352633
0
LINE
8
Layer 1
10
39.202469
20
74.352633
11
48.491650
21
75.513897
0
LINE
8
Layer 1
10
48.491650
20
75.513897
11
51.562724
21
76.079827
0
LINE
8
Layer 1
10
51.562724
20
76.079827
11
53.387069
21
76.604563
0
LINE
8
Layer 1
10
53.387069
20
76.604563
11
54.487549
21
76.873423
0
LINE
8
Layer 1
10
54.487549
20
76.873423
11
55.348489
21
77.164073
0
LINE
8
Layer 1
10
55.348489
20
77.164073
11
56.153959
21
77.461023
0
LINE
8
Layer 1
10
56.153959
20
77.461023
11
56.821599
21
77.764263
0
LINE
8
Layer 1
10
56.821599
20
77.764263
11
57.445949
21
78.061223
0
LINE
8
Layer 1
10
57.445949
20
78.061223
11
57.746321
21
78.148453
0
LINE
8
Layer 1
10
57.746321
20
78.148453
11
57.937809
21
78.358173
0
LINE
8
Layer 1
10
57.937809
20
78.358173
11
58.279149
21
78.655123
0
LINE
8
Layer 1
10
58.279149
20
78.655123
11
58.636338
21
78.871627
0
LINE
8
Layer 1
10
58.636338
20
78.871627
11
59.116411
21
79.394376
0
LINE
8
Layer 1
10
59.116411
20
79.394376
11
59.835819
21
80.598013
0
LINE
8
Layer 1
10
59.835819
20
80.598013
11
59.899296
21
81.169920
0
LINE
8
Layer 1
10
59.899296
20
81.169920
11
59.794309
21
81.771039
0
LINE
8
Layer 1
10
59.794309
20
81.771039
11
59.121875
21
83.005910
0
LINE
8
Layer 1
10
59.121875
20
83.005910
11
57.904381
21
84.192613
0
LINE
8
Layer 1
10
57.904381
20
84.192613
11
56.227689
21
85.221133
0
LINE
8
Layer 1
10
56.227689
20
85.221133
11
54.327613
21
86.017194
0
LINE
8
Layer 1
10
54.327613
20
86.017194
11
52.106346
21
86.737839
0
LINE
8
Layer 1
10
52.106346
20
86.737839
11
49.741473
21
87.332149
0
LINE
8
Layer 1
10
49.741473
20
87.332149
11
47.410579
21
87.749203
0
LINE
8
Layer 1
10
47.410579
20
87.749203
11
45.854276
21
87.838117
0
LINE
8
Layer 1
10
45.854276
20
87.838117
11
44.340080
21
87.706471
0
LINE
8
Layer 1
10
44.340080
20
87.706471
11
43.054884
21
87.384546
0
LINE
8
Layer 1
10
43.054884
20
87.384546
11
42.185579
21
86.902623
0
LINE
8
Layer 1
10
42.185579
20
86.902623
11
40.702199
21
85.808126
0
LINE
8
Layer 1
10
40.702199
20
85.808126
11
39.188379
21
85.033383
0
LINE
8
Layer 1
10
39.188379
20
85.033383
11
37.190868
21
84.800158
0
LINE
8
Layer 1
10
37.190868
20
84.800158
11
35.068069
21
84.978383
0
LINE
8
Layer 1
10
35.068069
20
84.978383
11
32.471519
21
85.490143
0
LINE
8
Layer 1
10
32.471519
20
85.490143
11
27.225369
21
86.475773
0
LINE
8
Layer 1
10
27.225369
20
86.475773
11
23.519120
21
87.152510
0
LINE
8
Layer 1
10
23.519120
20
87.152510
11
19.150089
21
87.759273
0
LINE
8
Layer 1
10
19.150089
20
87.759273
11
16.994062
21
87.913989
0
LINE
8
Layer 1
10
16.994062
20
87.913989
11
14.349644
21
87.928878
0
LINE
8
Layer 1
10
14.349644
20
87.928878
11
11.694734
21
87.813042
0
LINE
8
Layer 1
10
11.694734
20
87.813042
11
9.507229
21
87.575583
0
LINE
8
Layer 1
10
9.507229
20
87.575583
11
9.507260
21
87.575600
0
LINE
8
Layer 1
10
29.565100
20
70.060300
11
29.538863
21
72.282481
0
LINE
8
Layer 1
10
29.538863
20
72.282481
11
29.782047
21
73.277280
0
LINE
8
Layer 1
10
29.782047
20
73.277280
11
30.065685
21
73.703667
0
LINE
8
Layer 1
10
30.065685
20
73.703667
11
30.340613
21
73.876740
0
LINE
8
Layer 1
10
30.340613
20
73.876740
11
30.600242
21
73.795368
0
LINE
8
Layer 1
10
30.600242
20
73.795368
11
30.837987
21
73.458420
0
LINE
8
Layer 1
10
30.837987
20
73.458420
11
30.837994
21
73.458420
0
LINE
8
Layer 1
10
30.837994
20
73.458420
11
31.615916
21
71.235902
0
LINE
8
Layer 1
10
31.615916
20
71.235902
11
32.325153
21
68.179620
0
LINE
8
Layer 1
10
32.325153
20
68.179620
11
32.845125
21
64.910113
0
LINE
8
Layer 1
10
32.845125
20
64.910113
11
33.055254
21
62.047920
0
LINE
8
Layer 1
10
33.055254
20
62.047920
11
32.972414
21
54.559790
0
LINE
8
Layer 1
10
32.972414
20
54.559790
11
32.672488
21
52.127380
0
LINE
8
Layer 1
10
32.672488
20
52.127380
11
32.397524
21
50.166550
0
LINE
8
Layer 1
10
32.397524
20
50.166550
11
32.145817
21
48.647835
0
LINE
8
Layer 1
10
32.145817
20
48.647835
11
31.919725
21
48.403813
0
LINE
8
Layer 1
10
31.919725
20
48.403813
11
31.593963
21
48.432470
0
LINE
8
Layer 1
10
31.593963
20
48.432470
11
31.433339
21
48.621771
0
LINE
8
Layer 1
10
31.433339
20
48.621771
11
31.339148
21
49.168159
0
LINE
8
Layer 1
10
31.339148
20
49.168159
11
31.283704
21
52.121170
0
LINE
8
Layer 1
10
31.283704
20
52.121170
11
31.125330
21
55.690810
0
LINE
8
Layer 1
10
31.125330
20
55.690810
11
30.746805
21
59.891000
0
LINE
8
Layer 1
10
30.746805
20
59.891000
11
30.834082
21
60.872276
0
LINE
8
Layer 1
10
30.834082
20
60.872276
11
31.120414
21
61.987839
0
LINE
8
Layer 1
10
31.120414
20
61.987839
11
31.343479
21
63.020510
0
LINE
8
Layer 1
10
31.343479
20
63.020510
11
31.240951
21
63.753110
0
LINE
8
Layer 1
10
31.240951
20
63.753110
11
30.672664
21
64.866579
0
LINE
8
Layer 1
10
30.672664
20
64.866579
11
30.155272
21
66.424484
0
LINE
8
Layer 1
10
30.155272
20
66.424484
11
29.761756
21
68.223504
0
LINE
8
Layer 1
10
29.761756
20
68.223504
11
29.565101
21
70.060320
0
LINE
8
Layer 1
10
29.565101
20
70.060320
11
29.565100
21
70.060300
0
LINE
8
Layer 1
10
28.398100
20
59.637500
11
28.338150
21
57.931820
0
LINE
8
Layer 1
10
28.338150
20
57.931820
11
28.615141
21
55.358240
0
LINE
8
Layer 1
10
28.615141
20
55.358240
11
28.919099
21
52.523360
0
LINE
8
Layer 1
10
28.919099
20
52.523360
11
29.098801
21
49.949780
0
LINE
8
Layer 1
10
29.098801
20
49.949780
11
29.166958
21
49.069537
0
LINE
8
Layer 1
10
29.166958
20
49.069537
11
29.034851
21
48.635310
0
LINE
8
Layer 1
10
29.034851
20
48.635310
11
28.423279
21
48.452253
0
LINE
8
Layer 1
10
28.423279
20
48.452253
11
27.310621
21
48.325623
0
LINE
8
Layer 1
10
27.310621
20
48.325623
11
26.180810
21
48.290358
0
LINE
8
Layer 1
10
26.180810
20
48.290358
11
25.517781
21
48.381395
0
LINE
8
Layer 1
10
25.517781
20
48.381395
11
25.369408
21
48.661317
0
LINE
8
Layer 1
10
25.369408
20
48.661317
11
25.490211
21
49.291251
0
LINE
8
Layer 1
10
25.490211
20
49.291251
11
26.719998
21
54.564959
0
LINE
8
Layer 1
10
26.719998
20
54.564959
11
27.038344
21
56.675844
0
LINE
8
Layer 1
10
27.038344
20
56.675844
11
27.042971
21
57.800301
0
LINE
8
Layer 1
10
27.042971
20
57.800301
11
27.128714
21
59.165816
0
LINE
8
Layer 1
10
27.128714
20
59.165816
11
27.384138
21
60.060719
0
LINE
8
Layer 1
10
27.384138
20
60.060719
11
27.742295
21
60.820231
0
LINE
8
Layer 1
10
27.742295
20
60.820231
11
27.923516
21
61.007757
0
LINE
8
Layer 1
10
27.923516
20
61.007757
11
28.069643
21
60.985653
0
LINE
8
Layer 1
10
28.069643
20
60.985653
11
28.270094
21
60.540180
0
LINE
8
Layer 1
10
28.270094
20
60.540180
11
28.398111
21
59.637511
0
LINE
8
Layer 1
10
22.584231
20
55.513691
11
22.375145
21
54.366311
0
LINE
8
Layer 1
10
22.375145
20
54.366311
11
22.157000
21
52.918031
0
LINE
8
Layer 1
10
22.157000
20
52.918031
11
21.785113
21
51.434581
0
LINE
8
Layer 1
10
21.785113
20
51.434581
11
20.809473
21
47.764561
0
LINE
8
Layer 1
10
20.809473
20
47.764561
11
20.496541
21
46.576751
0
LINE
8
Layer 1
10
20.496541
20
46.576751
11
20.197973
21
45.495541
0
LINE
8
Layer 1
10
20.197973
20
45.495541
11
19.903825
21
44.604684
0
LINE
8
Layer 1
10
19.903825
20
44.604684
11
19.499081
21
43.020944
0
LINE
8
Layer 1
10
19.499081
20
43.020944
11
19.116825
21
41.577194
0
LINE
8
Layer 1
10
19.116825
20
41.577194
11
18.932376
21
41.098742
0
LINE
8
Layer 1
10
18.932376
20
41.098742
11
18.638200
21
40.940682
0
LINE
8
Layer 1
10
18.638200
20
40.940682
11
18.210931
21
41.103153
0
LINE
8
Layer 1
10
18.210931
20
41.103153
11
17.627205
21
41.586294
0
LINE
8
Layer 1
10
17.627205
20
41.586294
11
15.934195
21
42.805224
0
LINE
8
Layer 1
10
15.934195
20
42.805224
11
15.050336
21
43.430718
0
LINE
8
Layer 1
10
15.050336
20
43.430718
11
14.800762
21
43.614798
0
LINE
8
Layer 1
10
14.800762
20
43.614798
11
13.195085
21
44.529723
0
LINE
8
Layer 1
10
13.195085
20
44.529723
11
12.284603
21
45.215966
0
LINE
8
Layer 1
10
12.284603
20
45.215966
11
11.885332
21
45.648138
0
LINE
8
Layer 1
10
11.885332
20
45.648138
11
12.619512
21
46.765961
0
LINE
8
Layer 1
10
12.619512
20
46.765961
11
14.852372
21
49.170518
0
LINE
8
Layer 1
10
14.852372
20
49.170518
11
17.623922
21
52.127108
0
LINE
8
Layer 1
10
17.623922
20
52.127108
11
18.960202
21
53.621438
0
LINE
8
Layer 1
10
18.960202
20
53.621438
11
19.207662
21
54.001787
0
LINE
8
Layer 1
10
19.207662
20
54.001787
11
19.900550
21
55.151597
0
LINE
8
Layer 1
10
19.900550
20
55.151597
11
20.593438
21
56.430577
0
LINE
8
Layer 1
10
20.593438
20
56.430577
11
20.791407
21
56.680678
0
LINE
8
Layer 1
10
20.791407
20
56.680678
11
20.989375
21
56.931071
0
LINE
8
Layer 1
10
20.989375
20
56.931071
11
21.385311
21
57.920190
0
LINE
8
Layer 1
10
21.385311
20
57.920190
11
21.781247
21
58.963560
0
LINE
8
Layer 1
10
21.781247
20
58.963560
11
22.251613
21
60.428135
0
LINE
8
Layer 1
10
22.251613
20
60.428135
11
22.634512
21
61.187338
0
LINE
8
Layer 1
10
22.634512
20
61.187338
11
22.803083
21
61.316118
0
LINE
8
Layer 1
10
22.803083
20
61.316118
11
22.933617
21
61.179570
0
LINE
8
Layer 1
10
22.933617
20
61.179570
11
23.121935
21
59.721029
0
LINE
8
Layer 1
10
23.121935
20
59.721029
11
23.013520
21
57.909321
0
LINE
8
Layer 1
10
23.013520
20
57.909321
11
22.584236
21
55.513640
0
LINE
8
Layer 1
10
22.584236
20
55.513640
11
22.584231
21
55.513691
 0 
ENDSEC
 0 
EOF