ISO-10303-21;
HEADER;
/* Generated by software containing ST-Developer
 * from STEP Tools, Inc. (www.steptools.com) 
 */
/* OPTION: strings as raw bytes, not using required /X/ escapes */

FILE_DESCRIPTION(
/* description */ ('Unknown'),
/* implementation_level */ '2;1');

FILE_NAME(
/* name */ 'HomeworkStandDrillJig01',
/* time_stamp */ '2023-05-08T19:32:10+01:00',
/* author */ ('Unknown'),
/* organization */ ('Unknown'),
/* preprocessor_version */ 'ST-DEVELOPER v18.102',
/* originating_system */ 'Solid Edge',
/* authorisation */ 'Unknown');

FILE_SCHEMA (('AUTOMOTIVE_DESIGN {1 0 10303 214 3 1 1}'));
ENDSEC;

DATA;
#10=PROPERTY_DEFINITION_REPRESENTATION(#14,#12);
#11=PROPERTY_DEFINITION_REPRESENTATION(#15,#13);
#12=REPRESENTATION('',(#16),#353);
#13=REPRESENTATION('',(#17),#353);
#14=PROPERTY_DEFINITION('pmi validation property','',#358);
#15=PROPERTY_DEFINITION('pmi validation property','',#358);
#16=VALUE_REPRESENTATION_ITEM('number of annotations',COUNT_MEASURE(0.));
#17=VALUE_REPRESENTATION_ITEM('number of views',COUNT_MEASURE(0.));
#18=SHAPE_REPRESENTATION_RELATIONSHIP('','',#225,#19);
#19=ADVANCED_BREP_SHAPE_REPRESENTATION('',(#223),#353);
#20=CYLINDRICAL_SURFACE('',#235,3.);
#21=CYLINDRICAL_SURFACE('',#241,0.5);
#22=CIRCLE('',#230,0.5);
#23=CIRCLE('',#231,3.);
#24=CIRCLE('',#236,3.);
#25=CIRCLE('',#240,0.5);
#26=ORIENTED_EDGE('',*,*,#78,.F.);
#27=ORIENTED_EDGE('',*,*,#79,.T.);
#28=ORIENTED_EDGE('',*,*,#80,.T.);
#29=ORIENTED_EDGE('',*,*,#81,.T.);
#30=ORIENTED_EDGE('',*,*,#82,.T.);
#31=ORIENTED_EDGE('',*,*,#83,.T.);
#32=ORIENTED_EDGE('',*,*,#84,.F.);
#33=ORIENTED_EDGE('',*,*,#85,.F.);
#34=ORIENTED_EDGE('',*,*,#84,.T.);
#35=ORIENTED_EDGE('',*,*,#86,.F.);
#36=ORIENTED_EDGE('',*,*,#78,.T.);
#37=ORIENTED_EDGE('',*,*,#87,.T.);
#38=ORIENTED_EDGE('',*,*,#88,.T.);
#39=ORIENTED_EDGE('',*,*,#89,.T.);
#40=ORIENTED_EDGE('',*,*,#90,.T.);
#41=ORIENTED_EDGE('',*,*,#91,.F.);
#42=ORIENTED_EDGE('',*,*,#92,.F.);
#43=ORIENTED_EDGE('',*,*,#93,.T.);
#44=ORIENTED_EDGE('',*,*,#94,.T.);
#45=ORIENTED_EDGE('',*,*,#95,.F.);
#46=ORIENTED_EDGE('',*,*,#90,.F.);
#47=ORIENTED_EDGE('',*,*,#96,.T.);
#48=ORIENTED_EDGE('',*,*,#87,.F.);
#49=ORIENTED_EDGE('',*,*,#81,.F.);
#50=ORIENTED_EDGE('',*,*,#97,.F.);
#51=ORIENTED_EDGE('',*,*,#94,.F.);
#52=ORIENTED_EDGE('',*,*,#98,.T.);
#53=ORIENTED_EDGE('',*,*,#99,.T.);
#54=ORIENTED_EDGE('',*,*,#100,.T.);
#55=ORIENTED_EDGE('',*,*,#89,.F.);
#56=ORIENTED_EDGE('',*,*,#88,.F.);
#57=ORIENTED_EDGE('',*,*,#99,.F.);
#58=ORIENTED_EDGE('',*,*,#101,.T.);
#59=ORIENTED_EDGE('',*,*,#92,.T.);
#60=ORIENTED_EDGE('',*,*,#102,.F.);
#61=ORIENTED_EDGE('',*,*,#85,.T.);
#62=ORIENTED_EDGE('',*,*,#100,.F.);
#63=ORIENTED_EDGE('',*,*,#93,.F.);
#64=ORIENTED_EDGE('',*,*,#101,.F.);
#65=ORIENTED_EDGE('',*,*,#98,.F.);
#66=ORIENTED_EDGE('',*,*,#96,.F.);
#67=ORIENTED_EDGE('',*,*,#80,.F.);
#68=ORIENTED_EDGE('',*,*,#103,.T.);
#69=ORIENTED_EDGE('',*,*,#82,.F.);
#70=ORIENTED_EDGE('',*,*,#102,.T.);
#71=ORIENTED_EDGE('',*,*,#91,.T.);
#72=ORIENTED_EDGE('',*,*,#95,.T.);
#73=ORIENTED_EDGE('',*,*,#97,.T.);
#74=ORIENTED_EDGE('',*,*,#86,.T.);
#75=ORIENTED_EDGE('',*,*,#83,.F.);
#76=ORIENTED_EDGE('',*,*,#103,.F.);
#77=ORIENTED_EDGE('',*,*,#79,.F.);
#78=EDGE_CURVE('',#104,#105,#122,.T.);
#79=EDGE_CURVE('',#104,#106,#123,.T.);
#80=EDGE_CURVE('',#106,#107,#124,.T.);
#81=EDGE_CURVE('',#107,#105,#125,.F.);
#82=EDGE_CURVE('',#108,#109,#126,.T.);
#83=EDGE_CURVE('',#109,#110,#127,.F.);
#84=EDGE_CURVE('',#111,#110,#128,.T.);
#85=EDGE_CURVE('',#108,#111,#129,.F.);
#86=EDGE_CURVE('',#104,#110,#22,.T.);
#87=EDGE_CURVE('',#105,#112,#130,.T.);
#88=EDGE_CURVE('',#112,#111,#131,.T.);
#89=EDGE_CURVE('',#113,#113,#23,.T.);
#90=EDGE_CURVE('',#114,#115,#132,.T.);
#91=EDGE_CURVE('',#116,#115,#133,.F.);
#92=EDGE_CURVE('',#117,#116,#134,.T.);
#93=EDGE_CURVE('',#117,#114,#135,.T.);
#94=EDGE_CURVE('',#118,#119,#136,.T.);
#95=EDGE_CURVE('',#115,#119,#137,.F.);
#96=EDGE_CURVE('',#114,#118,#138,.T.);
#97=EDGE_CURVE('',#119,#107,#139,.F.);
#98=EDGE_CURVE('',#118,#120,#140,.T.);
#99=EDGE_CURVE('',#120,#112,#141,.T.);
#100=EDGE_CURVE('',#121,#121,#24,.T.);
#101=EDGE_CURVE('',#120,#117,#142,.T.);
#102=EDGE_CURVE('',#108,#116,#143,.F.);
#103=EDGE_CURVE('',#106,#109,#25,.T.);
#104=VERTEX_POINT('',#299);
#105=VERTEX_POINT('',#300);
#106=VERTEX_POINT('',#302);
#107=VERTEX_POINT('',#304);
#108=VERTEX_POINT('',#308);
#109=VERTEX_POINT('',#309);
#110=VERTEX_POINT('',#311);
#111=VERTEX_POINT('',#313);
#112=VERTEX_POINT('',#318);
#113=VERTEX_POINT('',#321);
#114=VERTEX_POINT('',#324);
#115=VERTEX_POINT('',#325);
#116=VERTEX_POINT('',#327);
#117=VERTEX_POINT('',#329);
#118=VERTEX_POINT('',#333);
#119=VERTEX_POINT('',#334);
#120=VERTEX_POINT('',#340);
#121=VERTEX_POINT('',#344);
#122=LINE('',#298,#144);
#123=LINE('',#301,#145);
#124=LINE('',#303,#146);
#125=LINE('',#305,#147);
#126=LINE('',#307,#148);
#127=LINE('',#310,#149);
#128=LINE('',#312,#150);
#129=LINE('',#314,#151);
#130=LINE('',#317,#152);
#131=LINE('',#319,#153);
#132=LINE('',#323,#154);
#133=LINE('',#326,#155);
#134=LINE('',#328,#156);
#135=LINE('',#330,#157);
#136=LINE('',#332,#158);
#137=LINE('',#335,#159);
#138=LINE('',#336,#160);
#139=LINE('',#338,#161);
#140=LINE('',#339,#162);
#141=LINE('',#341,#163);
#142=LINE('',#346,#164);
#143=LINE('',#347,#165);
#144=VECTOR('',#246,1000.);
#145=VECTOR('',#247,1000.);
#146=VECTOR('',#248,1000.);
#147=VECTOR('',#249,1000.);
#148=VECTOR('',#252,1000.);
#149=VECTOR('',#253,1000.);
#150=VECTOR('',#254,1000.);
#151=VECTOR('',#255,1000.);
#152=VECTOR('',#260,1000.);
#153=VECTOR('',#261,1000.);
#154=VECTOR('',#266,1000.);
#155=VECTOR('',#267,1000.);
#156=VECTOR('',#268,1000.);
#157=VECTOR('',#269,1000.);
#158=VECTOR('',#272,1000.);
#159=VECTOR('',#273,1000.);
#160=VECTOR('',#274,1000.);
#161=VECTOR('',#277,1000.);
#162=VECTOR('',#278,1000.);
#163=VECTOR('',#279,1000.);
#164=VECTOR('',#286,1000.);
#165=VECTOR('',#287,1000.);
#166=EDGE_LOOP('',(#26,#27,#28,#29));
#167=EDGE_LOOP('',(#30,#31,#32,#33));
#168=EDGE_LOOP('',(#34,#35,#36,#37,#38));
#169=EDGE_LOOP('',(#39));
#170=EDGE_LOOP('',(#40,#41,#42,#43));
#171=EDGE_LOOP('',(#44,#45,#46,#47));
#172=EDGE_LOOP('',(#48,#49,#50,#51,#52,#53));
#173=EDGE_LOOP('',(#54));
#174=EDGE_LOOP('',(#55));
#175=EDGE_LOOP('',(#56,#57,#58,#59,#60,#61));
#176=EDGE_LOOP('',(#62));
#177=EDGE_LOOP('',(#63,#64,#65,#66));
#178=EDGE_LOOP('',(#67,#68,#69,#70,#71,#72,#73));
#179=EDGE_LOOP('',(#74,#75,#76,#77));
#180=FACE_BOUND('',#166,.T.);
#181=FACE_BOUND('',#167,.T.);
#182=FACE_BOUND('',#168,.T.);
#183=FACE_BOUND('',#169,.T.);
#184=FACE_BOUND('',#170,.T.);
#185=FACE_BOUND('',#171,.T.);
#186=FACE_BOUND('',#172,.T.);
#187=FACE_BOUND('',#173,.T.);
#188=FACE_BOUND('',#174,.T.);
#189=FACE_BOUND('',#175,.T.);
#190=FACE_BOUND('',#176,.T.);
#191=FACE_BOUND('',#177,.T.);
#192=FACE_BOUND('',#178,.T.);
#193=FACE_BOUND('',#179,.T.);
#194=PLANE('',#227);
#195=PLANE('',#228);
#196=PLANE('',#229);
#197=PLANE('',#232);
#198=PLANE('',#233);
#199=PLANE('',#234);
#200=PLANE('',#237);
#201=PLANE('',#238);
#202=PLANE('',#239);
#203=ADVANCED_FACE('',(#180),#194,.T.);
#204=ADVANCED_FACE('',(#181),#195,.T.);
#205=ADVANCED_FACE('',(#182,#183),#196,.T.);
#206=ADVANCED_FACE('',(#184),#197,.T.);
#207=ADVANCED_FACE('',(#185),#198,.T.);
#208=ADVANCED_FACE('',(#186),#199,.T.);
#209=ADVANCED_FACE('',(#187,#188),#20,.F.);
#210=ADVANCED_FACE('',(#189),#200,.T.);
#211=ADVANCED_FACE('',(#190,#191),#201,.F.);
#212=ADVANCED_FACE('',(#192),#202,.T.);
#213=ADVANCED_FACE('',(#193),#21,.F.);
#214=CLOSED_SHELL('',(#203,#204,#205,#206,#207,#208,#209,#210,#211,#212,
#213));
#215=STYLED_ITEM('',(#216),#223);
#216=PRESENTATION_STYLE_ASSIGNMENT((#217));
#217=SURFACE_STYLE_USAGE(.BOTH.,#218);
#218=SURFACE_SIDE_STYLE('',(#219));
#219=SURFACE_STYLE_FILL_AREA(#220);
#220=FILL_AREA_STYLE('',(#221));
#221=FILL_AREA_STYLE_COLOUR('',#222);
#222=COLOUR_RGB('',0.506983280181885,0.531564235687256,0.550000011920929);
#223=MANIFOLD_SOLID_BREP('',#214);
#224=SHAPE_DEFINITION_REPRESENTATION(#358,#225);
#225=SHAPE_REPRESENTATION('HomeworkStandDrillJig01',(#226),#353);
#226=AXIS2_PLACEMENT_3D('',#296,#242,#243);
#227=AXIS2_PLACEMENT_3D('',#297,#244,#245);
#228=AXIS2_PLACEMENT_3D('',#306,#250,#251);
#229=AXIS2_PLACEMENT_3D('',#315,#256,#257);
#230=AXIS2_PLACEMENT_3D('',#316,#258,#259);
#231=AXIS2_PLACEMENT_3D('',#320,#262,#263);
#232=AXIS2_PLACEMENT_3D('',#322,#264,#265);
#233=AXIS2_PLACEMENT_3D('',#331,#270,#271);
#234=AXIS2_PLACEMENT_3D('',#337,#275,#276);
#235=AXIS2_PLACEMENT_3D('',#342,#280,#281);
#236=AXIS2_PLACEMENT_3D('',#343,#282,#283);
#237=AXIS2_PLACEMENT_3D('',#345,#284,#285);
#238=AXIS2_PLACEMENT_3D('',#348,#288,#289);
#239=AXIS2_PLACEMENT_3D('',#349,#290,#291);
#240=AXIS2_PLACEMENT_3D('',#350,#292,#293);
#241=AXIS2_PLACEMENT_3D('',#351,#294,#295);
#242=DIRECTION('',(0.,0.,1.));
#243=DIRECTION('',(1.,0.,0.));
#244=DIRECTION('',(0.,1.,0.));
#245=DIRECTION('',(0.,0.,1.));
#246=DIRECTION('',(1.,0.,0.));
#247=DIRECTION('',(0.,0.,1.));
#248=DIRECTION('',(1.,0.,0.));
#249=DIRECTION('',(0.,0.,1.));
#250=DIRECTION('',(1.,0.,0.));
#251=DIRECTION('',(0.,0.,-1.));
#252=DIRECTION('',(0.,-1.,0.));
#253=DIRECTION('',(0.,0.,1.));
#254=DIRECTION('',(0.,-1.,0.));
#255=DIRECTION('',(0.,0.,1.));
#256=DIRECTION('',(0.,0.,1.));
#257=DIRECTION('',(1.,0.,0.));
#258=DIRECTION('',(0.,0.,-1.));
#259=DIRECTION('',(0.,1.,0.));
#260=DIRECTION('',(0.,1.,0.));
#261=DIRECTION('',(-1.,0.,0.));
#262=DIRECTION('',(0.,0.,-1.));
#263=DIRECTION('',(1.,0.,0.));
#264=DIRECTION('',(-1.,0.,0.));
#265=DIRECTION('',(0.,0.,1.));
#266=DIRECTION('',(0.,0.,1.));
#267=DIRECTION('',(0.,1.,0.));
#268=DIRECTION('',(0.,0.,1.));
#269=DIRECTION('',(0.,-1.,0.));
#270=DIRECTION('',(0.,-1.,0.));
#271=DIRECTION('',(0.,0.,-1.));
#272=DIRECTION('',(0.,0.,1.));
#273=DIRECTION('',(-1.,0.,0.));
#274=DIRECTION('',(1.,0.,0.));
#275=DIRECTION('',(1.,0.,0.));
#276=DIRECTION('',(0.,0.,-1.));
#277=DIRECTION('',(0.,-1.,0.));
#278=DIRECTION('',(0.,1.,0.));
#279=DIRECTION('',(0.,0.,1.));
#280=DIRECTION('',(0.,0.,1.));
#281=DIRECTION('',(1.,0.,0.));
#282=DIRECTION('',(0.,0.,-1.));
#283=DIRECTION('',(1.,0.,0.));
#284=DIRECTION('',(0.,1.,0.));
#285=DIRECTION('',(0.,0.,1.));
#286=DIRECTION('',(-1.,0.,0.));
#287=DIRECTION('',(1.,0.,0.));
#288=DIRECTION('',(0.,0.,1.));
#289=DIRECTION('',(1.,0.,0.));
#290=DIRECTION('',(0.,0.,1.));
#291=DIRECTION('',(1.,0.,0.));
#292=DIRECTION('',(0.,0.,-1.));
#293=DIRECTION('',(0.,1.,0.));
#294=DIRECTION('',(0.,0.,1.));
#295=DIRECTION('',(1.,0.,0.));
#296=CARTESIAN_POINT('',(0.,0.,0.));
#297=CARTESIAN_POINT('',(0.,-21.7,30.));
#298=CARTESIAN_POINT('',(0.,-21.7,0.));
#299=CARTESIAN_POINT('',(-8.1,-21.7,0.));
#300=CARTESIAN_POINT('',(8.15,-21.7,0.));
#301=CARTESIAN_POINT('',(-8.1,-21.7,0.11947931443446));
#302=CARTESIAN_POINT('',(-8.1,-21.7,30.));
#303=CARTESIAN_POINT('',(0.,-21.7,30.));
#304=CARTESIAN_POINT('',(8.15,-21.7,30.));
#305=CARTESIAN_POINT('',(8.15,-21.7,-2.));
#306=CARTESIAN_POINT('',(-8.6,0.,30.));
#307=CARTESIAN_POINT('',(-8.6,0.,30.));
#308=CARTESIAN_POINT('',(-8.6,21.7,30.));
#309=CARTESIAN_POINT('',(-8.6,-21.2,30.));
#310=CARTESIAN_POINT('',(-8.6,-21.2,0.11947931443446));
#311=CARTESIAN_POINT('',(-8.6,-21.2,0.));
#312=CARTESIAN_POINT('',(-8.6,0.,0.));
#313=CARTESIAN_POINT('',(-8.6,21.7,0.));
#314=CARTESIAN_POINT('',(-8.6,21.7,30.));
#315=CARTESIAN_POINT('',(0.,0.,0.));
#316=CARTESIAN_POINT('',(-8.6,-21.7,0.));
#317=CARTESIAN_POINT('',(8.15,-24.7,0.));
#318=CARTESIAN_POINT('',(8.15,21.7,0.));
#319=CARTESIAN_POINT('',(11.6,21.7,0.));
#320=CARTESIAN_POINT('',(0.,0.,0.));
#321=CARTESIAN_POINT('',(3.,0.,0.));
#322=CARTESIAN_POINT('',(-11.6,24.7,-2.));
#323=CARTESIAN_POINT('',(-11.6,-24.7,-2.));
#324=CARTESIAN_POINT('',(-11.6,-24.7,-2.));
#325=CARTESIAN_POINT('',(-11.6,-24.7,30.));
#326=CARTESIAN_POINT('',(-11.6,24.7,30.));
#327=CARTESIAN_POINT('',(-11.6,21.7,30.));
#328=CARTESIAN_POINT('',(-11.6,21.7,-2.));
#329=CARTESIAN_POINT('',(-11.6,21.7,-2.));
#330=CARTESIAN_POINT('',(-11.6,24.7,-2.));
#331=CARTESIAN_POINT('',(-11.6,-24.7,-2.));
#332=CARTESIAN_POINT('',(8.15,-24.7,-2.));
#333=CARTESIAN_POINT('',(8.15,-24.7,-2.));
#334=CARTESIAN_POINT('',(8.15,-24.7,30.));
#335=CARTESIAN_POINT('',(-11.6,-24.7,30.));
#336=CARTESIAN_POINT('',(-11.6,-24.7,-2.));
#337=CARTESIAN_POINT('',(8.15,-24.7,-2.));
#338=CARTESIAN_POINT('',(8.15,-24.7,30.));
#339=CARTESIAN_POINT('',(8.15,-24.7,-2.));
#340=CARTESIAN_POINT('',(8.15,21.7,-2.));
#341=CARTESIAN_POINT('',(8.15,21.7,-2.));
#342=CARTESIAN_POINT('',(0.,0.,-2.));
#343=CARTESIAN_POINT('',(0.,0.,-2.));
#344=CARTESIAN_POINT('',(3.,0.,-2.));
#345=CARTESIAN_POINT('',(11.6,21.7,-2.));
#346=CARTESIAN_POINT('',(11.6,21.7,-2.));
#347=CARTESIAN_POINT('',(11.6,21.7,30.));
#348=CARTESIAN_POINT('',(0.,0.,-2.));
#349=CARTESIAN_POINT('',(0.,0.,30.));
#350=CARTESIAN_POINT('',(-8.6,-21.7,30.));
#351=CARTESIAN_POINT('',(-8.6,-21.7,0.11947931443446));
#352=MECHANICAL_DESIGN_GEOMETRIC_PRESENTATION_REPRESENTATION('',(#215),
#353);
#353=(
GEOMETRIC_REPRESENTATION_CONTEXT(3)
GLOBAL_UNCERTAINTY_ASSIGNED_CONTEXT((#354))
GLOBAL_UNIT_ASSIGNED_CONTEXT((#357,#356,#355))
REPRESENTATION_CONTEXT('HomeworkStandDrillJig01',
'TOP_LEVEL_ASSEMBLY_PART')
);
#354=UNCERTAINTY_MEASURE_WITH_UNIT(LENGTH_MEASURE(0.005),#357,
'DISTANCE_ACCURACY_VALUE','Maximum Tolerance applied to model');
#355=(
NAMED_UNIT(*)
SI_UNIT($,.STERADIAN.)
SOLID_ANGLE_UNIT()
);
#356=(
NAMED_UNIT(*)
PLANE_ANGLE_UNIT()
SI_UNIT($,.RADIAN.)
);
#357=(
LENGTH_UNIT()
NAMED_UNIT(*)
SI_UNIT(.MILLI.,.METRE.)
);
#358=PRODUCT_DEFINITION_SHAPE('','',#359);
#359=PRODUCT_DEFINITION('','',#361,#360);
#360=PRODUCT_DEFINITION_CONTEXT('',#367,'design');
#361=PRODUCT_DEFINITION_FORMATION_WITH_SPECIFIED_SOURCE('','',#363,
 .NOT_KNOWN.);
#362=PRODUCT_RELATED_PRODUCT_CATEGORY('','',(#363));
#363=PRODUCT('HomeworkStandDrillJig01','HomeworkStandDrillJig01',
'HomeworkStandDrillJig01',(#365));
#364=PRODUCT_CATEGORY('','');
#365=PRODUCT_CONTEXT('',#367,'mechanical');
#366=APPLICATION_PROTOCOL_DEFINITION('international standard',
'automotive_design',2010,#367);
#367=APPLICATION_CONTEXT(
'core data for automotive mechanical design processes');
ENDSEC;
END-ISO-10303-21;
