ISO-10303-21;
HEADER;
/* Generated by software containing ST-Developer
 * from STEP Tools, Inc. (www.steptools.com) 
 */
/* OPTION: strings as raw bytes, not using required /X/ escapes */

FILE_DESCRIPTION(
/* description */ ('Unknown'),
/* implementation_level */ '2;1');

FILE_NAME(
/* name */ 'LongSandingPlate01',
/* time_stamp */ '2023-05-07T09:41:51+01:00',
/* author */ ('Unknown'),
/* organization */ ('Unknown'),
/* preprocessor_version */ 'ST-DEVELOPER v18.102',
/* originating_system */ 'Solid Edge',
/* authorisation */ 'Unknown');

FILE_SCHEMA (('AUTOMOTIVE_DESIGN {1 0 10303 214 3 1 1}'));
ENDSEC;

DATA;
#10=PROPERTY_DEFINITION_REPRESENTATION(#14,#12);
#11=PROPERTY_DEFINITION_REPRESENTATION(#15,#13);
#12=REPRESENTATION('',(#16),#1793);
#13=REPRESENTATION('',(#17),#1793);
#14=PROPERTY_DEFINITION('pmi validation property','',#1798);
#15=PROPERTY_DEFINITION('pmi validation property','',#1798);
#16=VALUE_REPRESENTATION_ITEM('number of annotations',COUNT_MEASURE(0.));
#17=VALUE_REPRESENTATION_ITEM('number of views',COUNT_MEASURE(0.));
#18=SHAPE_REPRESENTATION_RELATIONSHIP('','',#1063,#19);
#19=ADVANCED_BREP_SHAPE_REPRESENTATION('',(#1061),#1793);
#20=TOROIDAL_SURFACE('',#1115,6.,3.);
#21=TOROIDAL_SURFACE('',#1118,6.,3.);
#22=TOROIDAL_SURFACE('',#1153,6.,3.);
#23=TOROIDAL_SURFACE('',#1156,6.,3.);
#24=B_SPLINE_CURVE_WITH_KNOTS('',3,(#1598,#1599,#1600,#1601,#1602),
 .UNSPECIFIED.,.F.,.F.,(4,1,4),(1.76495326557931E-18,0.00307122074097126,
0.00614244148194252),.UNSPECIFIED.);
#25=B_SPLINE_CURVE_WITH_KNOTS('',3,(#1604,#1605,#1606,#1607,#1608),
 .UNSPECIFIED.,.F.,.F.,(4,1,4),(1.76495326557931E-18,0.00307122074097126,
0.00614244148194252),.UNSPECIFIED.);
#26=B_SPLINE_CURVE_WITH_KNOTS('',3,(#1755,#1756,#1757,#1758,#1759),
 .UNSPECIFIED.,.F.,.F.,(4,1,4),(0.,0.00307122074097126,0.00614244148194252),
 .UNSPECIFIED.);
#27=B_SPLINE_CURVE_WITH_KNOTS('',3,(#1761,#1762,#1763,#1764,#1765),
 .UNSPECIFIED.,.F.,.F.,(4,1,4),(0.,0.00307122074097126,0.00614244148194252),
 .UNSPECIFIED.);
#28=ELLIPSE('',#1077,2.59603175144827,1.00000000000001);
#29=ELLIPSE('',#1078,2.59603175144827,1.00000000000001);
#30=ELLIPSE('',#1079,2.59603175144827,1.00000000000001);
#31=ELLIPSE('',#1080,2.59603175144827,1.00000000000001);
#32=ELLIPSE('',#1120,2.59603175144827,1.00000000000001);
#33=ELLIPSE('',#1121,2.59603175144827,1.00000000000001);
#34=ELLIPSE('',#1122,2.59603175144827,1.00000000000001);
#35=ELLIPSE('',#1123,2.59603175144827,1.00000000000001);
#36=B_SPLINE_SURFACE_WITH_KNOTS('',3,1,((#1499,#1500),(#1501,#1502),(#1503,
#1504),(#1505,#1506),(#1507,#1508)),.SURF_OF_LINEAR_EXTRUSION.,.F.,.F.,
 .F.,(4,1,4),(2,2),(0.124078401631141,1.10751212077943,2.09094583992772),
(0.,1.),.UNSPECIFIED.);
#37=B_SPLINE_SURFACE_WITH_KNOTS('',3,1,((#1668,#1669),(#1670,#1671),(#1672,
#1673),(#1674,#1675),(#1676,#1677)),.SURF_OF_LINEAR_EXTRUSION.,.F.,.F.,
 .F.,(4,1,4),(2,2),(0.124078401631155,1.10751212077944,2.09094583992772),
(0.,1.),.UNSPECIFIED.);
#38=CIRCLE('',#1067,3.25000000000337);
#39=CIRCLE('',#1068,3.25000000000337);
#40=CIRCLE('',#1070,3.);
#41=CIRCLE('',#1071,3.);
#42=CIRCLE('',#1072,3.25000000000337);
#43=CIRCLE('',#1074,3.);
#44=CIRCLE('',#1075,3.25000000000337);
#45=CIRCLE('',#1076,3.);
#46=CIRCLE('',#1086,0.25);
#47=CIRCLE('',#1088,0.25);
#48=CIRCLE('',#1090,6.);
#49=CIRCLE('',#1091,0.25);
#50=CIRCLE('',#1093,6.);
#51=CIRCLE('',#1094,0.25);
#52=CIRCLE('',#1097,3.);
#53=CIRCLE('',#1098,3.);
#54=CIRCLE('',#1099,3.);
#55=CIRCLE('',#1100,3.);
#56=CIRCLE('',#1110,3.);
#57=CIRCLE('',#1112,3.);
#58=CIRCLE('',#1114,3.);
#59=CIRCLE('',#1117,3.);
#60=CIRCLE('',#1129,0.25);
#61=CIRCLE('',#1131,0.25);
#62=CIRCLE('',#1133,0.25);
#63=CIRCLE('',#1134,6.);
#64=CIRCLE('',#1136,0.25);
#65=CIRCLE('',#1137,6.);
#66=CIRCLE('',#1148,3.);
#67=CIRCLE('',#1150,3.);
#68=CIRCLE('',#1152,3.);
#69=CIRCLE('',#1155,3.);
#70=CYLINDRICAL_SURFACE('',#1066,3.25000000000337);
#71=CYLINDRICAL_SURFACE('',#1101,0.25);
#72=CYLINDRICAL_SURFACE('',#1102,0.25);
#73=CYLINDRICAL_SURFACE('',#1109,3.);
#74=CYLINDRICAL_SURFACE('',#1111,3.);
#75=CYLINDRICAL_SURFACE('',#1113,3.);
#76=CYLINDRICAL_SURFACE('',#1116,3.);
#77=CYLINDRICAL_SURFACE('',#1119,3.25000000000337);
#78=CYLINDRICAL_SURFACE('',#1139,0.25);
#79=CYLINDRICAL_SURFACE('',#1140,0.25);
#80=CYLINDRICAL_SURFACE('',#1147,3.);
#81=CYLINDRICAL_SURFACE('',#1149,3.);
#82=CYLINDRICAL_SURFACE('',#1151,3.);
#83=CYLINDRICAL_SURFACE('',#1154,3.);
#84=ORIENTED_EDGE('',*,*,#388,.F.);
#85=ORIENTED_EDGE('',*,*,#389,.F.);
#86=ORIENTED_EDGE('',*,*,#390,.T.);
#87=ORIENTED_EDGE('',*,*,#391,.F.);
#88=ORIENTED_EDGE('',*,*,#392,.T.);
#89=ORIENTED_EDGE('',*,*,#388,.T.);
#90=ORIENTED_EDGE('',*,*,#393,.F.);
#91=ORIENTED_EDGE('',*,*,#394,.F.);
#92=ORIENTED_EDGE('',*,*,#395,.F.);
#93=ORIENTED_EDGE('',*,*,#396,.T.);
#94=ORIENTED_EDGE('',*,*,#397,.T.);
#95=ORIENTED_EDGE('',*,*,#398,.F.);
#96=ORIENTED_EDGE('',*,*,#399,.F.);
#97=ORIENTED_EDGE('',*,*,#400,.F.);
#98=ORIENTED_EDGE('',*,*,#401,.T.);
#99=ORIENTED_EDGE('',*,*,#402,.T.);
#100=ORIENTED_EDGE('',*,*,#389,.T.);
#101=ORIENTED_EDGE('',*,*,#392,.F.);
#102=ORIENTED_EDGE('',*,*,#403,.F.);
#103=ORIENTED_EDGE('',*,*,#404,.T.);
#104=ORIENTED_EDGE('',*,*,#405,.T.);
#105=ORIENTED_EDGE('',*,*,#393,.T.);
#106=ORIENTED_EDGE('',*,*,#391,.T.);
#107=ORIENTED_EDGE('',*,*,#406,.F.);
#108=ORIENTED_EDGE('',*,*,#407,.F.);
#109=ORIENTED_EDGE('',*,*,#408,.F.);
#110=ORIENTED_EDGE('',*,*,#409,.T.);
#111=ORIENTED_EDGE('',*,*,#410,.F.);
#112=ORIENTED_EDGE('',*,*,#411,.F.);
#113=ORIENTED_EDGE('',*,*,#412,.T.);
#114=ORIENTED_EDGE('',*,*,#413,.T.);
#115=ORIENTED_EDGE('',*,*,#414,.T.);
#116=ORIENTED_EDGE('',*,*,#415,.T.);
#117=ORIENTED_EDGE('',*,*,#416,.T.);
#118=ORIENTED_EDGE('',*,*,#417,.F.);
#119=ORIENTED_EDGE('',*,*,#418,.T.);
#120=ORIENTED_EDGE('',*,*,#419,.F.);
#121=ORIENTED_EDGE('',*,*,#418,.F.);
#122=ORIENTED_EDGE('',*,*,#420,.F.);
#123=ORIENTED_EDGE('',*,*,#421,.T.);
#124=ORIENTED_EDGE('',*,*,#422,.F.);
#125=ORIENTED_EDGE('',*,*,#423,.T.);
#126=ORIENTED_EDGE('',*,*,#424,.F.);
#127=ORIENTED_EDGE('',*,*,#425,.T.);
#128=ORIENTED_EDGE('',*,*,#414,.F.);
#129=ORIENTED_EDGE('',*,*,#426,.T.);
#130=ORIENTED_EDGE('',*,*,#427,.T.);
#131=ORIENTED_EDGE('',*,*,#428,.T.);
#132=ORIENTED_EDGE('',*,*,#429,.T.);
#133=ORIENTED_EDGE('',*,*,#430,.T.);
#134=ORIENTED_EDGE('',*,*,#431,.T.);
#135=ORIENTED_EDGE('',*,*,#432,.T.);
#136=ORIENTED_EDGE('',*,*,#422,.T.);
#137=ORIENTED_EDGE('',*,*,#433,.T.);
#138=ORIENTED_EDGE('',*,*,#420,.T.);
#139=ORIENTED_EDGE('',*,*,#417,.T.);
#140=ORIENTED_EDGE('',*,*,#434,.F.);
#141=ORIENTED_EDGE('',*,*,#435,.F.);
#142=ORIENTED_EDGE('',*,*,#436,.F.);
#143=ORIENTED_EDGE('',*,*,#428,.F.);
#144=ORIENTED_EDGE('',*,*,#437,.T.);
#145=ORIENTED_EDGE('',*,*,#431,.F.);
#146=ORIENTED_EDGE('',*,*,#438,.F.);
#147=ORIENTED_EDGE('',*,*,#439,.F.);
#148=ORIENTED_EDGE('',*,*,#440,.T.);
#149=ORIENTED_EDGE('',*,*,#415,.F.);
#150=ORIENTED_EDGE('',*,*,#441,.T.);
#151=ORIENTED_EDGE('',*,*,#442,.T.);
#152=ORIENTED_EDGE('',*,*,#443,.T.);
#153=ORIENTED_EDGE('',*,*,#444,.F.);
#154=ORIENTED_EDGE('',*,*,#411,.T.);
#155=ORIENTED_EDGE('',*,*,#419,.T.);
#156=ORIENTED_EDGE('',*,*,#445,.T.);
#157=ORIENTED_EDGE('',*,*,#424,.T.);
#158=ORIENTED_EDGE('',*,*,#446,.T.);
#159=ORIENTED_EDGE('',*,*,#447,.T.);
#160=ORIENTED_EDGE('',*,*,#448,.F.);
#161=ORIENTED_EDGE('',*,*,#449,.T.);
#162=ORIENTED_EDGE('',*,*,#450,.T.);
#163=ORIENTED_EDGE('',*,*,#451,.F.);
#164=ORIENTED_EDGE('',*,*,#452,.T.);
#165=ORIENTED_EDGE('',*,*,#429,.F.);
#166=ORIENTED_EDGE('',*,*,#453,.T.);
#167=ORIENTED_EDGE('',*,*,#426,.F.);
#168=ORIENTED_EDGE('',*,*,#413,.F.);
#169=ORIENTED_EDGE('',*,*,#454,.T.);
#170=ORIENTED_EDGE('',*,*,#405,.F.);
#171=ORIENTED_EDGE('',*,*,#455,.T.);
#172=ORIENTED_EDGE('',*,*,#456,.T.);
#173=ORIENTED_EDGE('',*,*,#448,.T.);
#174=ORIENTED_EDGE('',*,*,#457,.F.);
#175=ORIENTED_EDGE('',*,*,#443,.F.);
#176=ORIENTED_EDGE('',*,*,#458,.T.);
#177=ORIENTED_EDGE('',*,*,#459,.T.);
#178=ORIENTED_EDGE('',*,*,#395,.T.);
#179=ORIENTED_EDGE('',*,*,#394,.T.);
#180=ORIENTED_EDGE('',*,*,#451,.T.);
#181=ORIENTED_EDGE('',*,*,#460,.T.);
#182=ORIENTED_EDGE('',*,*,#461,.F.);
#183=ORIENTED_EDGE('',*,*,#410,.T.);
#184=ORIENTED_EDGE('',*,*,#462,.T.);
#185=ORIENTED_EDGE('',*,*,#463,.F.);
#186=ORIENTED_EDGE('',*,*,#464,.F.);
#187=ORIENTED_EDGE('',*,*,#465,.F.);
#188=ORIENTED_EDGE('',*,*,#466,.F.);
#189=ORIENTED_EDGE('',*,*,#467,.F.);
#190=ORIENTED_EDGE('',*,*,#468,.F.);
#191=ORIENTED_EDGE('',*,*,#469,.T.);
#192=ORIENTED_EDGE('',*,*,#470,.T.);
#193=ORIENTED_EDGE('',*,*,#471,.F.);
#194=ORIENTED_EDGE('',*,*,#472,.F.);
#195=ORIENTED_EDGE('',*,*,#398,.T.);
#196=ORIENTED_EDGE('',*,*,#473,.T.);
#197=ORIENTED_EDGE('',*,*,#474,.T.);
#198=ORIENTED_EDGE('',*,*,#447,.F.);
#199=ORIENTED_EDGE('',*,*,#475,.F.);
#200=ORIENTED_EDGE('',*,*,#435,.T.);
#201=ORIENTED_EDGE('',*,*,#476,.T.);
#202=ORIENTED_EDGE('',*,*,#439,.T.);
#203=ORIENTED_EDGE('',*,*,#477,.T.);
#204=ORIENTED_EDGE('',*,*,#453,.F.);
#205=ORIENTED_EDGE('',*,*,#432,.F.);
#206=ORIENTED_EDGE('',*,*,#437,.F.);
#207=ORIENTED_EDGE('',*,*,#427,.F.);
#208=ORIENTED_EDGE('',*,*,#433,.F.);
#209=ORIENTED_EDGE('',*,*,#425,.F.);
#210=ORIENTED_EDGE('',*,*,#445,.F.);
#211=ORIENTED_EDGE('',*,*,#421,.F.);
#212=ORIENTED_EDGE('',*,*,#412,.F.);
#213=ORIENTED_EDGE('',*,*,#444,.T.);
#214=ORIENTED_EDGE('',*,*,#457,.T.);
#215=ORIENTED_EDGE('',*,*,#454,.F.);
#216=ORIENTED_EDGE('',*,*,#416,.F.);
#217=ORIENTED_EDGE('',*,*,#440,.F.);
#218=ORIENTED_EDGE('',*,*,#476,.F.);
#219=ORIENTED_EDGE('',*,*,#434,.T.);
#220=ORIENTED_EDGE('',*,*,#452,.F.);
#221=ORIENTED_EDGE('',*,*,#477,.F.);
#222=ORIENTED_EDGE('',*,*,#438,.T.);
#223=ORIENTED_EDGE('',*,*,#430,.F.);
#224=ORIENTED_EDGE('',*,*,#446,.F.);
#225=ORIENTED_EDGE('',*,*,#423,.F.);
#226=ORIENTED_EDGE('',*,*,#436,.T.);
#227=ORIENTED_EDGE('',*,*,#475,.T.);
#228=ORIENTED_EDGE('',*,*,#478,.T.);
#229=ORIENTED_EDGE('',*,*,#479,.T.);
#230=ORIENTED_EDGE('',*,*,#473,.F.);
#231=ORIENTED_EDGE('',*,*,#397,.F.);
#232=ORIENTED_EDGE('',*,*,#461,.T.);
#233=ORIENTED_EDGE('',*,*,#480,.T.);
#234=ORIENTED_EDGE('',*,*,#481,.T.);
#235=ORIENTED_EDGE('',*,*,#403,.T.);
#236=ORIENTED_EDGE('',*,*,#459,.F.);
#237=ORIENTED_EDGE('',*,*,#482,.T.);
#238=ORIENTED_EDGE('',*,*,#478,.F.);
#239=ORIENTED_EDGE('',*,*,#396,.F.);
#240=ORIENTED_EDGE('',*,*,#481,.F.);
#241=ORIENTED_EDGE('',*,*,#483,.T.);
#242=ORIENTED_EDGE('',*,*,#455,.F.);
#243=ORIENTED_EDGE('',*,*,#404,.F.);
#244=ORIENTED_EDGE('',*,*,#474,.F.);
#245=ORIENTED_EDGE('',*,*,#479,.F.);
#246=ORIENTED_EDGE('',*,*,#484,.F.);
#247=ORIENTED_EDGE('',*,*,#441,.F.);
#248=ORIENTED_EDGE('',*,*,#484,.T.);
#249=ORIENTED_EDGE('',*,*,#482,.F.);
#250=ORIENTED_EDGE('',*,*,#458,.F.);
#251=ORIENTED_EDGE('',*,*,#442,.F.);
#252=ORIENTED_EDGE('',*,*,#460,.F.);
#253=ORIENTED_EDGE('',*,*,#450,.F.);
#254=ORIENTED_EDGE('',*,*,#485,.F.);
#255=ORIENTED_EDGE('',*,*,#480,.F.);
#256=ORIENTED_EDGE('',*,*,#456,.F.);
#257=ORIENTED_EDGE('',*,*,#483,.F.);
#258=ORIENTED_EDGE('',*,*,#485,.T.);
#259=ORIENTED_EDGE('',*,*,#449,.F.);
#260=ORIENTED_EDGE('',*,*,#402,.F.);
#261=ORIENTED_EDGE('',*,*,#486,.T.);
#262=ORIENTED_EDGE('',*,*,#406,.T.);
#263=ORIENTED_EDGE('',*,*,#390,.F.);
#264=ORIENTED_EDGE('',*,*,#487,.T.);
#265=ORIENTED_EDGE('',*,*,#488,.F.);
#266=ORIENTED_EDGE('',*,*,#489,.T.);
#267=ORIENTED_EDGE('',*,*,#490,.F.);
#268=ORIENTED_EDGE('',*,*,#491,.F.);
#269=ORIENTED_EDGE('',*,*,#492,.F.);
#270=ORIENTED_EDGE('',*,*,#493,.F.);
#271=ORIENTED_EDGE('',*,*,#494,.F.);
#272=ORIENTED_EDGE('',*,*,#495,.T.);
#273=ORIENTED_EDGE('',*,*,#496,.F.);
#274=ORIENTED_EDGE('',*,*,#497,.T.);
#275=ORIENTED_EDGE('',*,*,#488,.T.);
#276=ORIENTED_EDGE('',*,*,#498,.T.);
#277=ORIENTED_EDGE('',*,*,#499,.F.);
#278=ORIENTED_EDGE('',*,*,#500,.T.);
#279=ORIENTED_EDGE('',*,*,#501,.F.);
#280=ORIENTED_EDGE('',*,*,#492,.T.);
#281=ORIENTED_EDGE('',*,*,#502,.F.);
#282=ORIENTED_EDGE('',*,*,#503,.F.);
#283=ORIENTED_EDGE('',*,*,#504,.F.);
#284=ORIENTED_EDGE('',*,*,#505,.F.);
#285=ORIENTED_EDGE('',*,*,#506,.F.);
#286=ORIENTED_EDGE('',*,*,#507,.F.);
#287=ORIENTED_EDGE('',*,*,#508,.F.);
#288=ORIENTED_EDGE('',*,*,#498,.F.);
#289=ORIENTED_EDGE('',*,*,#509,.T.);
#290=ORIENTED_EDGE('',*,*,#468,.T.);
#291=ORIENTED_EDGE('',*,*,#510,.T.);
#292=ORIENTED_EDGE('',*,*,#489,.F.);
#293=ORIENTED_EDGE('',*,*,#497,.F.);
#294=ORIENTED_EDGE('',*,*,#511,.F.);
#295=ORIENTED_EDGE('',*,*,#502,.T.);
#296=ORIENTED_EDGE('',*,*,#491,.T.);
#297=ORIENTED_EDGE('',*,*,#512,.F.);
#298=ORIENTED_EDGE('',*,*,#466,.T.);
#299=ORIENTED_EDGE('',*,*,#513,.T.);
#300=ORIENTED_EDGE('',*,*,#507,.T.);
#301=ORIENTED_EDGE('',*,*,#514,.F.);
#302=ORIENTED_EDGE('',*,*,#515,.F.);
#303=ORIENTED_EDGE('',*,*,#470,.F.);
#304=ORIENTED_EDGE('',*,*,#516,.F.);
#305=ORIENTED_EDGE('',*,*,#500,.F.);
#306=ORIENTED_EDGE('',*,*,#517,.F.);
#307=ORIENTED_EDGE('',*,*,#495,.F.);
#308=ORIENTED_EDGE('',*,*,#487,.F.);
#309=ORIENTED_EDGE('',*,*,#518,.T.);
#310=ORIENTED_EDGE('',*,*,#519,.F.);
#311=ORIENTED_EDGE('',*,*,#520,.F.);
#312=ORIENTED_EDGE('',*,*,#521,.T.);
#313=ORIENTED_EDGE('',*,*,#522,.F.);
#314=ORIENTED_EDGE('',*,*,#493,.T.);
#315=ORIENTED_EDGE('',*,*,#504,.T.);
#316=ORIENTED_EDGE('',*,*,#523,.F.);
#317=ORIENTED_EDGE('',*,*,#505,.T.);
#318=ORIENTED_EDGE('',*,*,#524,.F.);
#319=ORIENTED_EDGE('',*,*,#464,.T.);
#320=ORIENTED_EDGE('',*,*,#525,.F.);
#321=ORIENTED_EDGE('',*,*,#526,.F.);
#322=ORIENTED_EDGE('',*,*,#407,.T.);
#323=ORIENTED_EDGE('',*,*,#486,.F.);
#324=ORIENTED_EDGE('',*,*,#401,.F.);
#325=ORIENTED_EDGE('',*,*,#527,.F.);
#326=ORIENTED_EDGE('',*,*,#528,.F.);
#327=ORIENTED_EDGE('',*,*,#519,.T.);
#328=ORIENTED_EDGE('',*,*,#529,.T.);
#329=ORIENTED_EDGE('',*,*,#521,.F.);
#330=ORIENTED_EDGE('',*,*,#530,.F.);
#331=ORIENTED_EDGE('',*,*,#531,.F.);
#332=ORIENTED_EDGE('',*,*,#523,.T.);
#333=ORIENTED_EDGE('',*,*,#503,.T.);
#334=ORIENTED_EDGE('',*,*,#514,.T.);
#335=ORIENTED_EDGE('',*,*,#506,.T.);
#336=ORIENTED_EDGE('',*,*,#511,.T.);
#337=ORIENTED_EDGE('',*,*,#496,.T.);
#338=ORIENTED_EDGE('',*,*,#517,.T.);
#339=ORIENTED_EDGE('',*,*,#499,.T.);
#340=ORIENTED_EDGE('',*,*,#494,.T.);
#341=ORIENTED_EDGE('',*,*,#522,.T.);
#342=ORIENTED_EDGE('',*,*,#529,.F.);
#343=ORIENTED_EDGE('',*,*,#518,.F.);
#344=ORIENTED_EDGE('',*,*,#490,.T.);
#345=ORIENTED_EDGE('',*,*,#510,.F.);
#346=ORIENTED_EDGE('',*,*,#467,.T.);
#347=ORIENTED_EDGE('',*,*,#512,.T.);
#348=ORIENTED_EDGE('',*,*,#524,.T.);
#349=ORIENTED_EDGE('',*,*,#508,.T.);
#350=ORIENTED_EDGE('',*,*,#513,.F.);
#351=ORIENTED_EDGE('',*,*,#465,.T.);
#352=ORIENTED_EDGE('',*,*,#516,.T.);
#353=ORIENTED_EDGE('',*,*,#469,.F.);
#354=ORIENTED_EDGE('',*,*,#509,.F.);
#355=ORIENTED_EDGE('',*,*,#501,.T.);
#356=ORIENTED_EDGE('',*,*,#532,.F.);
#357=ORIENTED_EDGE('',*,*,#399,.T.);
#358=ORIENTED_EDGE('',*,*,#472,.T.);
#359=ORIENTED_EDGE('',*,*,#533,.F.);
#360=ORIENTED_EDGE('',*,*,#462,.F.);
#361=ORIENTED_EDGE('',*,*,#409,.F.);
#362=ORIENTED_EDGE('',*,*,#534,.F.);
#363=ORIENTED_EDGE('',*,*,#535,.F.);
#364=ORIENTED_EDGE('',*,*,#527,.T.);
#365=ORIENTED_EDGE('',*,*,#400,.T.);
#366=ORIENTED_EDGE('',*,*,#532,.T.);
#367=ORIENTED_EDGE('',*,*,#536,.F.);
#368=ORIENTED_EDGE('',*,*,#534,.T.);
#369=ORIENTED_EDGE('',*,*,#408,.T.);
#370=ORIENTED_EDGE('',*,*,#531,.T.);
#371=ORIENTED_EDGE('',*,*,#537,.F.);
#372=ORIENTED_EDGE('',*,*,#471,.T.);
#373=ORIENTED_EDGE('',*,*,#515,.T.);
#374=ORIENTED_EDGE('',*,*,#538,.T.);
#375=ORIENTED_EDGE('',*,*,#533,.T.);
#376=ORIENTED_EDGE('',*,*,#538,.F.);
#377=ORIENTED_EDGE('',*,*,#520,.T.);
#378=ORIENTED_EDGE('',*,*,#528,.T.);
#379=ORIENTED_EDGE('',*,*,#536,.T.);
#380=ORIENTED_EDGE('',*,*,#463,.T.);
#381=ORIENTED_EDGE('',*,*,#535,.T.);
#382=ORIENTED_EDGE('',*,*,#539,.T.);
#383=ORIENTED_EDGE('',*,*,#525,.T.);
#384=ORIENTED_EDGE('',*,*,#530,.T.);
#385=ORIENTED_EDGE('',*,*,#526,.T.);
#386=ORIENTED_EDGE('',*,*,#539,.F.);
#387=ORIENTED_EDGE('',*,*,#537,.T.);
#388=EDGE_CURVE('',#540,#541,#640,.T.);
#389=EDGE_CURVE('',#542,#540,#641,.T.);
#390=EDGE_CURVE('',#542,#543,#642,.T.);
#391=EDGE_CURVE('',#541,#543,#643,.T.);
#392=EDGE_CURVE('',#544,#540,#38,.T.);
#393=EDGE_CURVE('',#545,#541,#39,.T.);
#394=EDGE_CURVE('',#544,#545,#644,.T.);
#395=EDGE_CURVE('',#546,#544,#645,.T.);
#396=EDGE_CURVE('',#546,#547,#40,.F.);
#397=EDGE_CURVE('',#547,#548,#646,.T.);
#398=EDGE_CURVE('',#549,#548,#647,.T.);
#399=EDGE_CURVE('',#550,#549,#648,.T.);
#400=EDGE_CURVE('',#551,#550,#41,.F.);
#401=EDGE_CURVE('',#551,#552,#649,.T.);
#402=EDGE_CURVE('',#552,#542,#42,.T.);
#403=EDGE_CURVE('',#553,#554,#650,.T.);
#404=EDGE_CURVE('',#553,#555,#43,.T.);
#405=EDGE_CURVE('',#555,#545,#651,.T.);
#406=EDGE_CURVE('',#556,#543,#44,.T.);
#407=EDGE_CURVE('',#557,#556,#652,.T.);
#408=EDGE_CURVE('',#558,#557,#45,.T.);
#409=EDGE_CURVE('',#558,#559,#653,.T.);
#410=EDGE_CURVE('',#554,#559,#654,.T.);
#411=EDGE_CURVE('',#560,#561,#28,.F.);
#412=EDGE_CURVE('',#560,#562,#655,.T.);
#413=EDGE_CURVE('',#562,#563,#29,.F.);
#414=EDGE_CURVE('',#563,#564,#656,.T.);
#415=EDGE_CURVE('',#564,#565,#30,.T.);
#416=EDGE_CURVE('',#565,#566,#657,.F.);
#417=EDGE_CURVE('',#567,#566,#31,.T.);
#418=EDGE_CURVE('',#567,#561,#658,.T.);
#419=EDGE_CURVE('',#561,#568,#659,.T.);
#420=EDGE_CURVE('',#569,#567,#660,.T.);
#421=EDGE_CURVE('',#569,#568,#661,.T.);
#422=EDGE_CURVE('',#570,#571,#662,.T.);
#423=EDGE_CURVE('',#570,#572,#663,.T.);
#424=EDGE_CURVE('',#573,#572,#664,.T.);
#425=EDGE_CURVE('',#573,#571,#665,.F.);
#426=EDGE_CURVE('',#563,#574,#666,.T.);
#427=EDGE_CURVE('',#574,#575,#667,.T.);
#428=EDGE_CURVE('',#575,#564,#668,.T.);
#429=EDGE_CURVE('',#576,#577,#669,.T.);
#430=EDGE_CURVE('',#577,#578,#670,.T.);
#431=EDGE_CURVE('',#578,#579,#671,.T.);
#432=EDGE_CURVE('',#579,#576,#672,.F.);
#433=EDGE_CURVE('',#571,#569,#46,.T.);
#434=EDGE_CURVE('',#580,#566,#673,.T.);
#435=EDGE_CURVE('',#581,#580,#674,.T.);
#436=EDGE_CURVE('',#570,#581,#675,.T.);
#437=EDGE_CURVE('',#575,#579,#47,.F.);
#438=EDGE_CURVE('',#582,#578,#676,.T.);
#439=EDGE_CURVE('',#583,#582,#677,.T.);
#440=EDGE_CURVE('',#583,#565,#678,.F.);
#441=EDGE_CURVE('',#584,#585,#679,.T.);
#442=EDGE_CURVE('',#585,#586,#48,.T.);
#443=EDGE_CURVE('',#586,#587,#680,.T.);
#444=EDGE_CURVE('',#560,#587,#681,.T.);
#445=EDGE_CURVE('',#568,#573,#49,.T.);
#446=EDGE_CURVE('',#572,#588,#682,.T.);
#447=EDGE_CURVE('',#588,#584,#683,.T.);
#448=EDGE_CURVE('',#589,#590,#684,.T.);
#449=EDGE_CURVE('',#589,#591,#50,.F.);
#450=EDGE_CURVE('',#591,#592,#685,.F.);
#451=EDGE_CURVE('',#593,#592,#686,.T.);
#452=EDGE_CURVE('',#593,#577,#687,.T.);
#453=EDGE_CURVE('',#576,#574,#51,.F.);
#454=EDGE_CURVE('',#562,#590,#688,.T.);
#455=EDGE_CURVE('',#555,#594,#689,.T.);
#456=EDGE_CURVE('',#594,#589,#24,.F.);
#457=EDGE_CURVE('',#587,#590,#690,.T.);
#458=EDGE_CURVE('',#586,#595,#25,.T.);
#459=EDGE_CURVE('',#595,#546,#691,.T.);
#460=EDGE_CURVE('',#592,#596,#52,.T.);
#461=EDGE_CURVE('',#554,#596,#692,.T.);
#462=EDGE_CURVE('',#559,#597,#693,.T.);
#463=EDGE_CURVE('',#598,#597,#53,.T.);
#464=EDGE_CURVE('',#599,#598,#694,.T.);
#465=EDGE_CURVE('',#600,#599,#695,.T.);
#466=EDGE_CURVE('',#601,#600,#696,.T.);
#467=EDGE_CURVE('',#602,#601,#697,.T.);
#468=EDGE_CURVE('',#603,#602,#698,.T.);
#469=EDGE_CURVE('',#603,#604,#699,.T.);
#470=EDGE_CURVE('',#604,#605,#700,.T.);
#471=EDGE_CURVE('',#606,#605,#54,.T.);
#472=EDGE_CURVE('',#549,#606,#701,.T.);
#473=EDGE_CURVE('',#548,#607,#702,.T.);
#474=EDGE_CURVE('',#607,#584,#55,.T.);
#475=EDGE_CURVE('',#581,#588,#703,.T.);
#476=EDGE_CURVE('',#580,#583,#704,.T.);
#477=EDGE_CURVE('',#582,#593,#705,.T.);
#478=EDGE_CURVE('',#547,#608,#706,.F.);
#479=EDGE_CURVE('',#608,#607,#707,.F.);
#480=EDGE_CURVE('',#596,#609,#708,.T.);
#481=EDGE_CURVE('',#609,#553,#709,.F.);
#482=EDGE_CURVE('',#595,#608,#56,.F.);
#483=EDGE_CURVE('',#609,#594,#57,.T.);
#484=EDGE_CURVE('',#585,#608,#58,.T.);
#485=EDGE_CURVE('',#609,#591,#59,.T.);
#486=EDGE_CURVE('',#552,#556,#710,.T.);
#487=EDGE_CURVE('',#610,#611,#32,.F.);
#488=EDGE_CURVE('',#612,#611,#711,.T.);
#489=EDGE_CURVE('',#612,#613,#33,.T.);
#490=EDGE_CURVE('',#614,#613,#712,.F.);
#491=EDGE_CURVE('',#615,#614,#34,.T.);
#492=EDGE_CURVE('',#616,#615,#713,.T.);
#493=EDGE_CURVE('',#617,#616,#35,.F.);
#494=EDGE_CURVE('',#610,#617,#714,.T.);
#495=EDGE_CURVE('',#611,#618,#715,.T.);
#496=EDGE_CURVE('',#619,#618,#716,.T.);
#497=EDGE_CURVE('',#619,#612,#717,.T.);
#498=EDGE_CURVE('',#620,#621,#718,.T.);
#499=EDGE_CURVE('',#622,#621,#719,.F.);
#500=EDGE_CURVE('',#622,#623,#720,.T.);
#501=EDGE_CURVE('',#620,#623,#721,.T.);
#502=EDGE_CURVE('',#624,#615,#722,.T.);
#503=EDGE_CURVE('',#625,#624,#723,.T.);
#504=EDGE_CURVE('',#616,#625,#724,.T.);
#505=EDGE_CURVE('',#626,#627,#725,.T.);
#506=EDGE_CURVE('',#628,#626,#726,.F.);
#507=EDGE_CURVE('',#629,#628,#727,.T.);
#508=EDGE_CURVE('',#627,#629,#728,.T.);
#509=EDGE_CURVE('',#620,#603,#729,.T.);
#510=EDGE_CURVE('',#602,#613,#730,.T.);
#511=EDGE_CURVE('',#621,#619,#60,.T.);
#512=EDGE_CURVE('',#601,#614,#731,.F.);
#513=EDGE_CURVE('',#600,#629,#732,.T.);
#514=EDGE_CURVE('',#624,#628,#61,.F.);
#515=EDGE_CURVE('',#605,#630,#733,.T.);
#516=EDGE_CURVE('',#623,#604,#734,.T.);
#517=EDGE_CURVE('',#618,#622,#62,.T.);
#518=EDGE_CURVE('',#610,#631,#735,.T.);
#519=EDGE_CURVE('',#632,#631,#736,.T.);
#520=EDGE_CURVE('',#630,#632,#63,.T.);
#521=EDGE_CURVE('',#633,#634,#737,.T.);
#522=EDGE_CURVE('',#617,#634,#738,.T.);
#523=EDGE_CURVE('',#626,#625,#64,.F.);
#524=EDGE_CURVE('',#599,#627,#739,.T.);
#525=EDGE_CURVE('',#635,#598,#740,.F.);
#526=EDGE_CURVE('',#633,#635,#65,.F.);
#527=EDGE_CURVE('',#636,#551,#741,.T.);
#528=EDGE_CURVE('',#632,#636,#26,.T.);
#529=EDGE_CURVE('',#631,#634,#742,.T.);
#530=EDGE_CURVE('',#637,#633,#27,.F.);
#531=EDGE_CURVE('',#557,#637,#743,.T.);
#532=EDGE_CURVE('',#550,#638,#744,.F.);
#533=EDGE_CURVE('',#638,#606,#745,.F.);
#534=EDGE_CURVE('',#639,#558,#746,.F.);
#535=EDGE_CURVE('',#597,#639,#747,.T.);
#536=EDGE_CURVE('',#636,#638,#66,.F.);
#537=EDGE_CURVE('',#639,#637,#67,.T.);
#538=EDGE_CURVE('',#630,#638,#68,.T.);
#539=EDGE_CURVE('',#639,#635,#69,.T.);
#540=VERTEX_POINT('',#1454);
#541=VERTEX_POINT('',#1455);
#542=VERTEX_POINT('',#1457);
#543=VERTEX_POINT('',#1459);
#544=VERTEX_POINT('',#1463);
#545=VERTEX_POINT('',#1465);
#546=VERTEX_POINT('',#1469);
#547=VERTEX_POINT('',#1471);
#548=VERTEX_POINT('',#1473);
#549=VERTEX_POINT('',#1475);
#550=VERTEX_POINT('',#1477);
#551=VERTEX_POINT('',#1479);
#552=VERTEX_POINT('',#1481);
#553=VERTEX_POINT('',#1485);
#554=VERTEX_POINT('',#1486);
#555=VERTEX_POINT('',#1488);
#556=VERTEX_POINT('',#1491);
#557=VERTEX_POINT('',#1493);
#558=VERTEX_POINT('',#1495);
#559=VERTEX_POINT('',#1497);
#560=VERTEX_POINT('',#1510);
#561=VERTEX_POINT('',#1511);
#562=VERTEX_POINT('',#1513);
#563=VERTEX_POINT('',#1515);
#564=VERTEX_POINT('',#1517);
#565=VERTEX_POINT('',#1519);
#566=VERTEX_POINT('',#1521);
#567=VERTEX_POINT('',#1523);
#568=VERTEX_POINT('',#1527);
#569=VERTEX_POINT('',#1529);
#570=VERTEX_POINT('',#1533);
#571=VERTEX_POINT('',#1534);
#572=VERTEX_POINT('',#1536);
#573=VERTEX_POINT('',#1538);
#574=VERTEX_POINT('',#1542);
#575=VERTEX_POINT('',#1544);
#576=VERTEX_POINT('',#1548);
#577=VERTEX_POINT('',#1549);
#578=VERTEX_POINT('',#1551);
#579=VERTEX_POINT('',#1553);
#580=VERTEX_POINT('',#1558);
#581=VERTEX_POINT('',#1560);
#582=VERTEX_POINT('',#1565);
#583=VERTEX_POINT('',#1567);
#584=VERTEX_POINT('',#1571);
#585=VERTEX_POINT('',#1572);
#586=VERTEX_POINT('',#1574);
#587=VERTEX_POINT('',#1576);
#588=VERTEX_POINT('',#1580);
#589=VERTEX_POINT('',#1584);
#590=VERTEX_POINT('',#1585);
#591=VERTEX_POINT('',#1587);
#592=VERTEX_POINT('',#1589);
#593=VERTEX_POINT('',#1591);
#594=VERTEX_POINT('',#1597);
#595=VERTEX_POINT('',#1609);
#596=VERTEX_POINT('',#1613);
#597=VERTEX_POINT('',#1616);
#598=VERTEX_POINT('',#1618);
#599=VERTEX_POINT('',#1620);
#600=VERTEX_POINT('',#1622);
#601=VERTEX_POINT('',#1624);
#602=VERTEX_POINT('',#1626);
#603=VERTEX_POINT('',#1628);
#604=VERTEX_POINT('',#1630);
#605=VERTEX_POINT('',#1632);
#606=VERTEX_POINT('',#1634);
#607=VERTEX_POINT('',#1637);
#608=VERTEX_POINT('',#1650);
#609=VERTEX_POINT('',#1654);
#610=VERTEX_POINT('',#1679);
#611=VERTEX_POINT('',#1680);
#612=VERTEX_POINT('',#1682);
#613=VERTEX_POINT('',#1684);
#614=VERTEX_POINT('',#1686);
#615=VERTEX_POINT('',#1688);
#616=VERTEX_POINT('',#1690);
#617=VERTEX_POINT('',#1692);
#618=VERTEX_POINT('',#1696);
#619=VERTEX_POINT('',#1698);
#620=VERTEX_POINT('',#1702);
#621=VERTEX_POINT('',#1703);
#622=VERTEX_POINT('',#1705);
#623=VERTEX_POINT('',#1707);
#624=VERTEX_POINT('',#1711);
#625=VERTEX_POINT('',#1713);
#626=VERTEX_POINT('',#1717);
#627=VERTEX_POINT('',#1718);
#628=VERTEX_POINT('',#1720);
#629=VERTEX_POINT('',#1722);
#630=VERTEX_POINT('',#1734);
#631=VERTEX_POINT('',#1738);
#632=VERTEX_POINT('',#1740);
#633=VERTEX_POINT('',#1744);
#634=VERTEX_POINT('',#1745);
#635=VERTEX_POINT('',#1750);
#636=VERTEX_POINT('',#1754);
#637=VERTEX_POINT('',#1766);
#638=VERTEX_POINT('',#1776);
#639=VERTEX_POINT('',#1780);
#640=LINE('',#1453,#748);
#641=LINE('',#1456,#749);
#642=LINE('',#1458,#750);
#643=LINE('',#1460,#751);
#644=LINE('',#1466,#752);
#645=LINE('',#1468,#753);
#646=LINE('',#1472,#754);
#647=LINE('',#1474,#755);
#648=LINE('',#1476,#756);
#649=LINE('',#1480,#757);
#650=LINE('',#1484,#758);
#651=LINE('',#1489,#759);
#652=LINE('',#1492,#760);
#653=LINE('',#1496,#761);
#654=LINE('',#1498,#762);
#655=LINE('',#1512,#763);
#656=LINE('',#1516,#764);
#657=LINE('',#1520,#765);
#658=LINE('',#1524,#766);
#659=LINE('',#1526,#767);
#660=LINE('',#1528,#768);
#661=LINE('',#1530,#769);
#662=LINE('',#1532,#770);
#663=LINE('',#1535,#771);
#664=LINE('',#1537,#772);
#665=LINE('',#1539,#773);
#666=LINE('',#1541,#774);
#667=LINE('',#1543,#775);
#668=LINE('',#1545,#776);
#669=LINE('',#1547,#777);
#670=LINE('',#1550,#778);
#671=LINE('',#1552,#779);
#672=LINE('',#1554,#780);
#673=LINE('',#1557,#781);
#674=LINE('',#1559,#782);
#675=LINE('',#1561,#783);
#676=LINE('',#1564,#784);
#677=LINE('',#1566,#785);
#678=LINE('',#1568,#786);
#679=LINE('',#1570,#787);
#680=LINE('',#1575,#788);
#681=LINE('',#1577,#789);
#682=LINE('',#1579,#790);
#683=LINE('',#1581,#791);
#684=LINE('',#1583,#792);
#685=LINE('',#1588,#793);
#686=LINE('',#1590,#794);
#687=LINE('',#1592,#795);
#688=LINE('',#1594,#796);
#689=LINE('',#1596,#797);
#690=LINE('',#1603,#798);
#691=LINE('',#1610,#799);
#692=LINE('',#1614,#800);
#693=LINE('',#1615,#801);
#694=LINE('',#1619,#802);
#695=LINE('',#1621,#803);
#696=LINE('',#1623,#804);
#697=LINE('',#1625,#805);
#698=LINE('',#1627,#806);
#699=LINE('',#1629,#807);
#700=LINE('',#1631,#808);
#701=LINE('',#1635,#809);
#702=LINE('',#1636,#810);
#703=LINE('',#1639,#811);
#704=LINE('',#1640,#812);
#705=LINE('',#1641,#813);
#706=LINE('',#1649,#814);
#707=LINE('',#1651,#815);
#708=LINE('',#1653,#816);
#709=LINE('',#1655,#817);
#710=LINE('',#1667,#818);
#711=LINE('',#1681,#819);
#712=LINE('',#1685,#820);
#713=LINE('',#1689,#821);
#714=LINE('',#1693,#822);
#715=LINE('',#1695,#823);
#716=LINE('',#1697,#824);
#717=LINE('',#1699,#825);
#718=LINE('',#1701,#826);
#719=LINE('',#1704,#827);
#720=LINE('',#1706,#828);
#721=LINE('',#1708,#829);
#722=LINE('',#1710,#830);
#723=LINE('',#1712,#831);
#724=LINE('',#1714,#832);
#725=LINE('',#1716,#833);
#726=LINE('',#1719,#834);
#727=LINE('',#1721,#835);
#728=LINE('',#1723,#836);
#729=LINE('',#1725,#837);
#730=LINE('',#1726,#838);
#731=LINE('',#1729,#839);
#732=LINE('',#1730,#840);
#733=LINE('',#1733,#841);
#734=LINE('',#1735,#842);
#735=LINE('',#1737,#843);
#736=LINE('',#1739,#844);
#737=LINE('',#1743,#845);
#738=LINE('',#1746,#846);
#739=LINE('',#1748,#847);
#740=LINE('',#1749,#848);
#741=LINE('',#1753,#849);
#742=LINE('',#1760,#850);
#743=LINE('',#1767,#851);
#744=LINE('',#1775,#852);
#745=LINE('',#1777,#853);
#746=LINE('',#1779,#854);
#747=LINE('',#1781,#855);
#748=VECTOR('',#1161,1000.);
#749=VECTOR('',#1162,1000.);
#750=VECTOR('',#1163,1000.);
#751=VECTOR('',#1164,1000.);
#752=VECTOR('',#1171,1000.);
#753=VECTOR('',#1174,1000.);
#754=VECTOR('',#1177,1000.);
#755=VECTOR('',#1178,1000.);
#756=VECTOR('',#1179,1000.);
#757=VECTOR('',#1182,1000.);
#758=VECTOR('',#1187,1000.);
#759=VECTOR('',#1190,1000.);
#760=VECTOR('',#1193,1000.);
#761=VECTOR('',#1196,1000.);
#762=VECTOR('',#1197,1000.);
#763=VECTOR('',#1200,1000.);
#764=VECTOR('',#1203,1000.);
#765=VECTOR('',#1206,1000.);
#766=VECTOR('',#1209,1000.);
#767=VECTOR('',#1212,1000.);
#768=VECTOR('',#1213,1000.);
#769=VECTOR('',#1214,1000.);
#770=VECTOR('',#1217,1000.);
#771=VECTOR('',#1218,1000.);
#772=VECTOR('',#1219,1000.);
#773=VECTOR('',#1220,1000.);
#774=VECTOR('',#1223,1000.);
#775=VECTOR('',#1224,1000.);
#776=VECTOR('',#1225,1000.);
#777=VECTOR('',#1228,1000.);
#778=VECTOR('',#1229,1000.);
#779=VECTOR('',#1230,1000.);
#780=VECTOR('',#1231,1000.);
#781=VECTOR('',#1236,1000.);
#782=VECTOR('',#1237,1000.);
#783=VECTOR('',#1238,1000.);
#784=VECTOR('',#1243,1000.);
#785=VECTOR('',#1244,1000.);
#786=VECTOR('',#1245,1000.);
#787=VECTOR('',#1248,1000.);
#788=VECTOR('',#1251,1000.);
#789=VECTOR('',#1252,1000.);
#790=VECTOR('',#1255,1000.);
#791=VECTOR('',#1256,1000.);
#792=VECTOR('',#1259,1000.);
#793=VECTOR('',#1262,1000.);
#794=VECTOR('',#1263,1000.);
#795=VECTOR('',#1264,1000.);
#796=VECTOR('',#1267,1000.);
#797=VECTOR('',#1270,1000.);
#798=VECTOR('',#1271,1000.);
#799=VECTOR('',#1272,1000.);
#800=VECTOR('',#1277,1000.);
#801=VECTOR('',#1278,1000.);
#802=VECTOR('',#1281,1000.);
#803=VECTOR('',#1282,1000.);
#804=VECTOR('',#1283,1000.);
#805=VECTOR('',#1284,1000.);
#806=VECTOR('',#1285,1000.);
#807=VECTOR('',#1286,1000.);
#808=VECTOR('',#1287,1000.);
#809=VECTOR('',#1290,1000.);
#810=VECTOR('',#1291,1000.);
#811=VECTOR('',#1294,1000.);
#812=VECTOR('',#1295,1000.);
#813=VECTOR('',#1296,1000.);
#814=VECTOR('',#1311,1000.);
#815=VECTOR('',#1312,1000.);
#816=VECTOR('',#1315,1000.);
#817=VECTOR('',#1316,1000.);
#818=VECTOR('',#1339,1000.);
#819=VECTOR('',#1342,1000.);
#820=VECTOR('',#1345,1000.);
#821=VECTOR('',#1348,1000.);
#822=VECTOR('',#1351,1000.);
#823=VECTOR('',#1354,1000.);
#824=VECTOR('',#1355,1000.);
#825=VECTOR('',#1356,1000.);
#826=VECTOR('',#1359,1000.);
#827=VECTOR('',#1360,1000.);
#828=VECTOR('',#1361,1000.);
#829=VECTOR('',#1362,1000.);
#830=VECTOR('',#1365,1000.);
#831=VECTOR('',#1366,1000.);
#832=VECTOR('',#1367,1000.);
#833=VECTOR('',#1370,1000.);
#834=VECTOR('',#1371,1000.);
#835=VECTOR('',#1372,1000.);
#836=VECTOR('',#1373,1000.);
#837=VECTOR('',#1376,1000.);
#838=VECTOR('',#1377,1000.);
#839=VECTOR('',#1382,1000.);
#840=VECTOR('',#1383,1000.);
#841=VECTOR('',#1388,1000.);
#842=VECTOR('',#1389,1000.);
#843=VECTOR('',#1392,1000.);
#844=VECTOR('',#1393,1000.);
#845=VECTOR('',#1398,1000.);
#846=VECTOR('',#1399,1000.);
#847=VECTOR('',#1402,1000.);
#848=VECTOR('',#1403,1000.);
#849=VECTOR('',#1408,1000.);
#850=VECTOR('',#1409,1000.);
#851=VECTOR('',#1410,1000.);
#852=VECTOR('',#1425,1000.);
#853=VECTOR('',#1426,1000.);
#854=VECTOR('',#1429,1000.);
#855=VECTOR('',#1430,1000.);
#856=EDGE_LOOP('',(#84,#85,#86,#87));
#857=EDGE_LOOP('',(#88,#89,#90,#91));
#858=EDGE_LOOP('',(#92,#93,#94,#95,#96,#97,#98,#99,#100,#101));
#859=EDGE_LOOP('',(#102,#103,#104,#105,#106,#107,#108,#109,#110,#111));
#860=EDGE_LOOP('',(#112,#113,#114,#115,#116,#117,#118,#119));
#861=EDGE_LOOP('',(#120,#121,#122,#123));
#862=EDGE_LOOP('',(#124,#125,#126,#127));
#863=EDGE_LOOP('',(#128,#129,#130,#131));
#864=EDGE_LOOP('',(#132,#133,#134,#135));
#865=EDGE_LOOP('',(#136,#137,#138,#139,#140,#141,#142));
#866=EDGE_LOOP('',(#143,#144,#145,#146,#147,#148,#149));
#867=EDGE_LOOP('',(#150,#151,#152,#153,#154,#155,#156,#157,#158,#159));
#868=EDGE_LOOP('',(#160,#161,#162,#163,#164,#165,#166,#167,#168,#169));
#869=EDGE_LOOP('',(#170,#171,#172,#173,#174,#175,#176,#177,#178,#179));
#870=EDGE_LOOP('',(#180,#181,#182,#183,#184,#185,#186,#187,#188,#189,#190,
#191,#192,#193,#194,#195,#196,#197,#198,#199,#200,#201,#202,#203));
#871=EDGE_LOOP('',(#204,#205,#206,#207));
#872=EDGE_LOOP('',(#208,#209,#210,#211));
#873=EDGE_LOOP('',(#212,#213,#214,#215));
#874=EDGE_LOOP('',(#216,#217,#218,#219));
#875=EDGE_LOOP('',(#220,#221,#222,#223));
#876=EDGE_LOOP('',(#224,#225,#226,#227));
#877=EDGE_LOOP('',(#228,#229,#230,#231));
#878=EDGE_LOOP('',(#232,#233,#234,#235));
#879=EDGE_LOOP('',(#236,#237,#238,#239));
#880=EDGE_LOOP('',(#240,#241,#242,#243));
#881=EDGE_LOOP('',(#244,#245,#246,#247));
#882=EDGE_LOOP('',(#248,#249,#250,#251));
#883=EDGE_LOOP('',(#252,#253,#254,#255));
#884=EDGE_LOOP('',(#256,#257,#258,#259));
#885=EDGE_LOOP('',(#260,#261,#262,#263));
#886=EDGE_LOOP('',(#264,#265,#266,#267,#268,#269,#270,#271));
#887=EDGE_LOOP('',(#272,#273,#274,#275));
#888=EDGE_LOOP('',(#276,#277,#278,#279));
#889=EDGE_LOOP('',(#280,#281,#282,#283));
#890=EDGE_LOOP('',(#284,#285,#286,#287));
#891=EDGE_LOOP('',(#288,#289,#290,#291,#292,#293,#294));
#892=EDGE_LOOP('',(#295,#296,#297,#298,#299,#300,#301));
#893=EDGE_LOOP('',(#302,#303,#304,#305,#306,#307,#308,#309,#310,#311));
#894=EDGE_LOOP('',(#312,#313,#314,#315,#316,#317,#318,#319,#320,#321));
#895=EDGE_LOOP('',(#322,#323,#324,#325,#326,#327,#328,#329,#330,#331));
#896=EDGE_LOOP('',(#332,#333,#334,#335));
#897=EDGE_LOOP('',(#336,#337,#338,#339));
#898=EDGE_LOOP('',(#340,#341,#342,#343));
#899=EDGE_LOOP('',(#344,#345,#346,#347));
#900=EDGE_LOOP('',(#348,#349,#350,#351));
#901=EDGE_LOOP('',(#352,#353,#354,#355));
#902=EDGE_LOOP('',(#356,#357,#358,#359));
#903=EDGE_LOOP('',(#360,#361,#362,#363));
#904=EDGE_LOOP('',(#364,#365,#366,#367));
#905=EDGE_LOOP('',(#368,#369,#370,#371));
#906=EDGE_LOOP('',(#372,#373,#374,#375));
#907=EDGE_LOOP('',(#376,#377,#378,#379));
#908=EDGE_LOOP('',(#380,#381,#382,#383));
#909=EDGE_LOOP('',(#384,#385,#386,#387));
#910=FACE_BOUND('',#856,.T.);
#911=FACE_BOUND('',#857,.T.);
#912=FACE_BOUND('',#858,.T.);
#913=FACE_BOUND('',#859,.T.);
#914=FACE_BOUND('',#860,.T.);
#915=FACE_BOUND('',#861,.T.);
#916=FACE_BOUND('',#862,.T.);
#917=FACE_BOUND('',#863,.T.);
#918=FACE_BOUND('',#864,.T.);
#919=FACE_BOUND('',#865,.T.);
#920=FACE_BOUND('',#866,.T.);
#921=FACE_BOUND('',#867,.T.);
#922=FACE_BOUND('',#868,.T.);
#923=FACE_BOUND('',#869,.T.);
#924=FACE_BOUND('',#870,.T.);
#925=FACE_BOUND('',#871,.T.);
#926=FACE_BOUND('',#872,.T.);
#927=FACE_BOUND('',#873,.T.);
#928=FACE_BOUND('',#874,.T.);
#929=FACE_BOUND('',#875,.T.);
#930=FACE_BOUND('',#876,.T.);
#931=FACE_BOUND('',#877,.T.);
#932=FACE_BOUND('',#878,.T.);
#933=FACE_BOUND('',#879,.T.);
#934=FACE_BOUND('',#880,.T.);
#935=FACE_BOUND('',#881,.T.);
#936=FACE_BOUND('',#882,.T.);
#937=FACE_BOUND('',#883,.T.);
#938=FACE_BOUND('',#884,.T.);
#939=FACE_BOUND('',#885,.T.);
#940=FACE_BOUND('',#886,.T.);
#941=FACE_BOUND('',#887,.T.);
#942=FACE_BOUND('',#888,.T.);
#943=FACE_BOUND('',#889,.T.);
#944=FACE_BOUND('',#890,.T.);
#945=FACE_BOUND('',#891,.T.);
#946=FACE_BOUND('',#892,.T.);
#947=FACE_BOUND('',#893,.T.);
#948=FACE_BOUND('',#894,.T.);
#949=FACE_BOUND('',#895,.T.);
#950=FACE_BOUND('',#896,.T.);
#951=FACE_BOUND('',#897,.T.);
#952=FACE_BOUND('',#898,.T.);
#953=FACE_BOUND('',#899,.T.);
#954=FACE_BOUND('',#900,.T.);
#955=FACE_BOUND('',#901,.T.);
#956=FACE_BOUND('',#902,.T.);
#957=FACE_BOUND('',#903,.T.);
#958=FACE_BOUND('',#904,.T.);
#959=FACE_BOUND('',#905,.T.);
#960=FACE_BOUND('',#906,.T.);
#961=FACE_BOUND('',#907,.T.);
#962=FACE_BOUND('',#908,.T.);
#963=FACE_BOUND('',#909,.T.);
#964=PLANE('',#1065);
#965=PLANE('',#1069);
#966=PLANE('',#1073);
#967=PLANE('',#1081);
#968=PLANE('',#1082);
#969=PLANE('',#1083);
#970=PLANE('',#1084);
#971=PLANE('',#1085);
#972=PLANE('',#1087);
#973=PLANE('',#1089);
#974=PLANE('',#1092);
#975=PLANE('',#1095);
#976=PLANE('',#1096);
#977=PLANE('',#1103);
#978=PLANE('',#1104);
#979=PLANE('',#1105);
#980=PLANE('',#1106);
#981=PLANE('',#1107);
#982=PLANE('',#1108);
#983=PLANE('',#1124);
#984=PLANE('',#1125);
#985=PLANE('',#1126);
#986=PLANE('',#1127);
#987=PLANE('',#1128);
#988=PLANE('',#1130);
#989=PLANE('',#1132);
#990=PLANE('',#1135);
#991=PLANE('',#1138);
#992=PLANE('',#1141);
#993=PLANE('',#1142);
#994=PLANE('',#1143);
#995=PLANE('',#1144);
#996=PLANE('',#1145);
#997=PLANE('',#1146);
#998=ADVANCED_FACE('',(#910),#964,.F.);
#999=ADVANCED_FACE('',(#911),#70,.T.);
#1000=ADVANCED_FACE('',(#912),#965,.F.);
#1001=ADVANCED_FACE('',(#913),#966,.T.);
#1002=ADVANCED_FACE('',(#914),#36,.F.);
#1003=ADVANCED_FACE('',(#915),#967,.F.);
#1004=ADVANCED_FACE('',(#916),#968,.F.);
#1005=ADVANCED_FACE('',(#917),#969,.F.);
#1006=ADVANCED_FACE('',(#918),#970,.F.);
#1007=ADVANCED_FACE('',(#919),#971,.T.);
#1008=ADVANCED_FACE('',(#920),#972,.F.);
#1009=ADVANCED_FACE('',(#921),#973,.F.);
#1010=ADVANCED_FACE('',(#922),#974,.T.);
#1011=ADVANCED_FACE('',(#923),#975,.F.);
#1012=ADVANCED_FACE('',(#924),#976,.F.);
#1013=ADVANCED_FACE('',(#925),#71,.T.);
#1014=ADVANCED_FACE('',(#926),#72,.T.);
#1015=ADVANCED_FACE('',(#927),#977,.T.);
#1016=ADVANCED_FACE('',(#928),#978,.T.);
#1017=ADVANCED_FACE('',(#929),#979,.T.);
#1018=ADVANCED_FACE('',(#930),#980,.T.);
#1019=ADVANCED_FACE('',(#931),#981,.T.);
#1020=ADVANCED_FACE('',(#932),#982,.F.);
#1021=ADVANCED_FACE('',(#933),#73,.T.);
#1022=ADVANCED_FACE('',(#934),#74,.T.);
#1023=ADVANCED_FACE('',(#935),#75,.F.);
#1024=ADVANCED_FACE('',(#936),#20,.F.);
#1025=ADVANCED_FACE('',(#937),#76,.F.);
#1026=ADVANCED_FACE('',(#938),#21,.F.);
#1027=ADVANCED_FACE('',(#939),#77,.T.);
#1028=ADVANCED_FACE('',(#940),#37,.T.);
#1029=ADVANCED_FACE('',(#941),#983,.F.);
#1030=ADVANCED_FACE('',(#942),#984,.F.);
#1031=ADVANCED_FACE('',(#943),#985,.F.);
#1032=ADVANCED_FACE('',(#944),#986,.F.);
#1033=ADVANCED_FACE('',(#945),#987,.T.);
#1034=ADVANCED_FACE('',(#946),#988,.F.);
#1035=ADVANCED_FACE('',(#947),#989,.F.);
#1036=ADVANCED_FACE('',(#948),#990,.T.);
#1037=ADVANCED_FACE('',(#949),#991,.F.);
#1038=ADVANCED_FACE('',(#950),#78,.T.);
#1039=ADVANCED_FACE('',(#951),#79,.T.);
#1040=ADVANCED_FACE('',(#952),#992,.T.);
#1041=ADVANCED_FACE('',(#953),#993,.T.);
#1042=ADVANCED_FACE('',(#954),#994,.T.);
#1043=ADVANCED_FACE('',(#955),#995,.T.);
#1044=ADVANCED_FACE('',(#956),#996,.T.);
#1045=ADVANCED_FACE('',(#957),#997,.F.);
#1046=ADVANCED_FACE('',(#958),#80,.T.);
#1047=ADVANCED_FACE('',(#959),#81,.T.);
#1048=ADVANCED_FACE('',(#960),#82,.F.);
#1049=ADVANCED_FACE('',(#961),#22,.F.);
#1050=ADVANCED_FACE('',(#962),#83,.F.);
#1051=ADVANCED_FACE('',(#963),#23,.F.);
#1052=CLOSED_SHELL('',(#998,#999,#1000,#1001,#1002,#1003,#1004,#1005,#1006,
#1007,#1008,#1009,#1010,#1011,#1012,#1013,#1014,#1015,#1016,#1017,#1018,
#1019,#1020,#1021,#1022,#1023,#1024,#1025,#1026,#1027,#1028,#1029,#1030,
#1031,#1032,#1033,#1034,#1035,#1036,#1037,#1038,#1039,#1040,#1041,#1042,
#1043,#1044,#1045,#1046,#1047,#1048,#1049,#1050,#1051));
#1053=STYLED_ITEM('',(#1054),#1061);
#1054=PRESENTATION_STYLE_ASSIGNMENT((#1055));
#1055=SURFACE_STYLE_USAGE(.BOTH.,#1056);
#1056=SURFACE_SIDE_STYLE('',(#1057));
#1057=SURFACE_STYLE_FILL_AREA(#1058);
#1058=FILL_AREA_STYLE('',(#1059));
#1059=FILL_AREA_STYLE_COLOUR('',#1060);
#1060=COLOUR_RGB('',0.506983280181885,0.531564235687256,0.550000011920929);
#1061=MANIFOLD_SOLID_BREP('',#1052);
#1062=SHAPE_DEFINITION_REPRESENTATION(#1798,#1063);
#1063=SHAPE_REPRESENTATION('LongSandingPlate01',(#1064),#1793);
#1064=AXIS2_PLACEMENT_3D('',#1451,#1157,#1158);
#1065=AXIS2_PLACEMENT_3D('',#1452,#1159,#1160);
#1066=AXIS2_PLACEMENT_3D('',#1461,#1165,#1166);
#1067=AXIS2_PLACEMENT_3D('',#1462,#1167,#1168);
#1068=AXIS2_PLACEMENT_3D('',#1464,#1169,#1170);
#1069=AXIS2_PLACEMENT_3D('',#1467,#1172,#1173);
#1070=AXIS2_PLACEMENT_3D('',#1470,#1175,#1176);
#1071=AXIS2_PLACEMENT_3D('',#1478,#1180,#1181);
#1072=AXIS2_PLACEMENT_3D('',#1482,#1183,#1184);
#1073=AXIS2_PLACEMENT_3D('',#1483,#1185,#1186);
#1074=AXIS2_PLACEMENT_3D('',#1487,#1188,#1189);
#1075=AXIS2_PLACEMENT_3D('',#1490,#1191,#1192);
#1076=AXIS2_PLACEMENT_3D('',#1494,#1194,#1195);
#1077=AXIS2_PLACEMENT_3D('',#1509,#1198,#1199);
#1078=AXIS2_PLACEMENT_3D('',#1514,#1201,#1202);
#1079=AXIS2_PLACEMENT_3D('',#1518,#1204,#1205);
#1080=AXIS2_PLACEMENT_3D('',#1522,#1207,#1208);
#1081=AXIS2_PLACEMENT_3D('',#1525,#1210,#1211);
#1082=AXIS2_PLACEMENT_3D('',#1531,#1215,#1216);
#1083=AXIS2_PLACEMENT_3D('',#1540,#1221,#1222);
#1084=AXIS2_PLACEMENT_3D('',#1546,#1226,#1227);
#1085=AXIS2_PLACEMENT_3D('',#1555,#1232,#1233);
#1086=AXIS2_PLACEMENT_3D('',#1556,#1234,#1235);
#1087=AXIS2_PLACEMENT_3D('',#1562,#1239,#1240);
#1088=AXIS2_PLACEMENT_3D('',#1563,#1241,#1242);
#1089=AXIS2_PLACEMENT_3D('',#1569,#1246,#1247);
#1090=AXIS2_PLACEMENT_3D('',#1573,#1249,#1250);
#1091=AXIS2_PLACEMENT_3D('',#1578,#1253,#1254);
#1092=AXIS2_PLACEMENT_3D('',#1582,#1257,#1258);
#1093=AXIS2_PLACEMENT_3D('',#1586,#1260,#1261);
#1094=AXIS2_PLACEMENT_3D('',#1593,#1265,#1266);
#1095=AXIS2_PLACEMENT_3D('',#1595,#1268,#1269);
#1096=AXIS2_PLACEMENT_3D('',#1611,#1273,#1274);
#1097=AXIS2_PLACEMENT_3D('',#1612,#1275,#1276);
#1098=AXIS2_PLACEMENT_3D('',#1617,#1279,#1280);
#1099=AXIS2_PLACEMENT_3D('',#1633,#1288,#1289);
#1100=AXIS2_PLACEMENT_3D('',#1638,#1292,#1293);
#1101=AXIS2_PLACEMENT_3D('',#1642,#1297,#1298);
#1102=AXIS2_PLACEMENT_3D('',#1643,#1299,#1300);
#1103=AXIS2_PLACEMENT_3D('',#1644,#1301,#1302);
#1104=AXIS2_PLACEMENT_3D('',#1645,#1303,#1304);
#1105=AXIS2_PLACEMENT_3D('',#1646,#1305,#1306);
#1106=AXIS2_PLACEMENT_3D('',#1647,#1307,#1308);
#1107=AXIS2_PLACEMENT_3D('',#1648,#1309,#1310);
#1108=AXIS2_PLACEMENT_3D('',#1652,#1313,#1314);
#1109=AXIS2_PLACEMENT_3D('',#1656,#1317,#1318);
#1110=AXIS2_PLACEMENT_3D('',#1657,#1319,#1320);
#1111=AXIS2_PLACEMENT_3D('',#1658,#1321,#1322);
#1112=AXIS2_PLACEMENT_3D('',#1659,#1323,#1324);
#1113=AXIS2_PLACEMENT_3D('',#1660,#1325,#1326);
#1114=AXIS2_PLACEMENT_3D('',#1661,#1327,#1328);
#1115=AXIS2_PLACEMENT_3D('',#1662,#1329,#1330);
#1116=AXIS2_PLACEMENT_3D('',#1663,#1331,#1332);
#1117=AXIS2_PLACEMENT_3D('',#1664,#1333,#1334);
#1118=AXIS2_PLACEMENT_3D('',#1665,#1335,#1336);
#1119=AXIS2_PLACEMENT_3D('',#1666,#1337,#1338);
#1120=AXIS2_PLACEMENT_3D('',#1678,#1340,#1341);
#1121=AXIS2_PLACEMENT_3D('',#1683,#1343,#1344);
#1122=AXIS2_PLACEMENT_3D('',#1687,#1346,#1347);
#1123=AXIS2_PLACEMENT_3D('',#1691,#1349,#1350);
#1124=AXIS2_PLACEMENT_3D('',#1694,#1352,#1353);
#1125=AXIS2_PLACEMENT_3D('',#1700,#1357,#1358);
#1126=AXIS2_PLACEMENT_3D('',#1709,#1363,#1364);
#1127=AXIS2_PLACEMENT_3D('',#1715,#1368,#1369);
#1128=AXIS2_PLACEMENT_3D('',#1724,#1374,#1375);
#1129=AXIS2_PLACEMENT_3D('',#1727,#1378,#1379);
#1130=AXIS2_PLACEMENT_3D('',#1728,#1380,#1381);
#1131=AXIS2_PLACEMENT_3D('',#1731,#1384,#1385);
#1132=AXIS2_PLACEMENT_3D('',#1732,#1386,#1387);
#1133=AXIS2_PLACEMENT_3D('',#1736,#1390,#1391);
#1134=AXIS2_PLACEMENT_3D('',#1741,#1394,#1395);
#1135=AXIS2_PLACEMENT_3D('',#1742,#1396,#1397);
#1136=AXIS2_PLACEMENT_3D('',#1747,#1400,#1401);
#1137=AXIS2_PLACEMENT_3D('',#1751,#1404,#1405);
#1138=AXIS2_PLACEMENT_3D('',#1752,#1406,#1407);
#1139=AXIS2_PLACEMENT_3D('',#1768,#1411,#1412);
#1140=AXIS2_PLACEMENT_3D('',#1769,#1413,#1414);
#1141=AXIS2_PLACEMENT_3D('',#1770,#1415,#1416);
#1142=AXIS2_PLACEMENT_3D('',#1771,#1417,#1418);
#1143=AXIS2_PLACEMENT_3D('',#1772,#1419,#1420);
#1144=AXIS2_PLACEMENT_3D('',#1773,#1421,#1422);
#1145=AXIS2_PLACEMENT_3D('',#1774,#1423,#1424);
#1146=AXIS2_PLACEMENT_3D('',#1778,#1427,#1428);
#1147=AXIS2_PLACEMENT_3D('',#1782,#1431,#1432);
#1148=AXIS2_PLACEMENT_3D('',#1783,#1433,#1434);
#1149=AXIS2_PLACEMENT_3D('',#1784,#1435,#1436);
#1150=AXIS2_PLACEMENT_3D('',#1785,#1437,#1438);
#1151=AXIS2_PLACEMENT_3D('',#1786,#1439,#1440);
#1152=AXIS2_PLACEMENT_3D('',#1787,#1441,#1442);
#1153=AXIS2_PLACEMENT_3D('',#1788,#1443,#1444);
#1154=AXIS2_PLACEMENT_3D('',#1789,#1445,#1446);
#1155=AXIS2_PLACEMENT_3D('',#1790,#1447,#1448);
#1156=AXIS2_PLACEMENT_3D('',#1791,#1449,#1450);
#1157=DIRECTION('',(0.,0.,1.));
#1158=DIRECTION('',(1.,0.,0.));
#1159=DIRECTION('',(1.,0.,-4.3727482308437E-10));
#1160=DIRECTION('',(-4.3727482308437E-10,0.,-1.));
#1161=DIRECTION('',(0.,-1.,0.));
#1162=DIRECTION('',(4.3727482308437E-10,0.,1.));
#1163=DIRECTION('',(0.,-1.,0.));
#1164=DIRECTION('',(-4.3727482308437E-10,0.,-1.));
#1165=DIRECTION('',(0.,-1.,0.));
#1166=DIRECTION('',(0.,0.,-1.));
#1167=DIRECTION('',(0.,-1.,0.));
#1168=DIRECTION('',(1.,0.,0.));
#1169=DIRECTION('',(0.,-1.,0.));
#1170=DIRECTION('',(1.,0.,0.));
#1171=DIRECTION('',(0.,-1.,0.));
#1172=DIRECTION('',(0.,-1.,0.));
#1173=DIRECTION('',(0.,0.,-1.));
#1174=DIRECTION('',(0.,0.,-1.));
#1175=DIRECTION('',(0.,-1.,0.));
#1176=DIRECTION('',(0.,0.,-1.));
#1177=DIRECTION('',(1.,0.,-4.37274842240041E-10));
#1178=DIRECTION('',(4.3727482308437E-10,0.,1.));
#1179=DIRECTION('',(1.,0.,-4.37274842240041E-10));
#1180=DIRECTION('',(0.,1.,0.));
#1181=DIRECTION('',(8.74549684480083E-10,0.,1.));
#1182=DIRECTION('',(8.74549684480083E-10,0.,1.));
#1183=DIRECTION('',(0.,1.,0.));
#1184=DIRECTION('',(1.,0.,-8.74549684480083E-10));
#1185=DIRECTION('',(0.,-1.,0.));
#1186=DIRECTION('',(0.,0.,-1.));
#1187=DIRECTION('',(1.,0.,-4.37274842240041E-10));
#1188=DIRECTION('',(0.,-1.,0.));
#1189=DIRECTION('',(0.,0.,-1.));
#1190=DIRECTION('',(0.,0.,-1.));
#1191=DIRECTION('',(0.,1.,0.));
#1192=DIRECTION('',(1.,0.,-8.74549684480083E-10));
#1193=DIRECTION('',(8.74549684480083E-10,0.,1.));
#1194=DIRECTION('',(0.,1.,0.));
#1195=DIRECTION('',(8.74549684480083E-10,0.,1.));
#1196=DIRECTION('',(1.,0.,-4.37274842240041E-10));
#1197=DIRECTION('',(-4.3727482308437E-10,0.,-1.));
#1198=DIRECTION('',(0.,1.,0.));
#1199=DIRECTION('',(-1.,0.,6.12323399571021E-17));
#1200=DIRECTION('',(0.,-1.,0.));
#1201=DIRECTION('',(0.,1.,0.));
#1202=DIRECTION('',(-1.,0.,6.12323399571021E-17));
#1203=DIRECTION('',(0.,-1.,0.));
#1204=DIRECTION('',(0.,1.,0.));
#1205=DIRECTION('',(-1.,0.,6.12323399571021E-17));
#1206=DIRECTION('',(0.,-1.,0.));
#1207=DIRECTION('',(0.,1.,0.));
#1208=DIRECTION('',(-1.,0.,6.12323399571021E-17));
#1209=DIRECTION('',(0.,-1.,0.));
#1210=DIRECTION('',(0.758182476027172,0.,0.652042431936225));
#1211=DIRECTION('',(0.652042431936225,0.,-0.758182476027172));
#1212=DIRECTION('',(0.652042431936225,0.,-0.758182476027172));
#1213=DIRECTION('',(-0.652042422506091,0.,0.758182484137156));
#1214=DIRECTION('',(0.,-1.,0.));
#1215=DIRECTION('',(-0.758182476027171,0.,0.652042431936226));
#1216=DIRECTION('',(0.652042431936226,0.,0.758182476027171));
#1217=DIRECTION('',(-0.652042431936226,0.,-0.758182476027171));
#1218=DIRECTION('',(0.,-1.,0.));
#1219=DIRECTION('',(0.652042431936226,0.,0.758182476027171));
#1220=DIRECTION('',(0.,-1.,0.));
#1221=DIRECTION('',(0.758182476027172,0.,0.652042431936225));
#1222=DIRECTION('',(0.652042431936225,0.,-0.758182476027172));
#1223=DIRECTION('',(0.652042431936225,0.,-0.758182476027172));
#1224=DIRECTION('',(0.,-1.,0.));
#1225=DIRECTION('',(-0.652042431936225,0.,0.758182476027172));
#1226=DIRECTION('',(-0.758182476027171,0.,0.652042431936226));
#1227=DIRECTION('',(0.652042431936226,0.,0.758182476027171));
#1228=DIRECTION('',(0.652042431936226,0.,0.758182476027171));
#1229=DIRECTION('',(0.,-1.,0.));
#1230=DIRECTION('',(-0.652042431936226,0.,-0.758182476027171));
#1231=DIRECTION('',(0.,-1.,0.));
#1232=DIRECTION('',(0.,1.,0.));
#1233=DIRECTION('',(0.,0.,1.));
#1234=DIRECTION('',(0.,1.,0.));
#1235=DIRECTION('',(0.,0.,1.));
#1236=DIRECTION('',(-1.,0.,3.43899976719019E-10));
#1237=DIRECTION('',(4.3727482695599E-10,0.,1.));
#1238=DIRECTION('',(1.,0.,-3.43896954163669E-10));
#1239=DIRECTION('',(0.,1.,0.));
#1240=DIRECTION('',(0.,0.,1.));
#1241=DIRECTION('',(0.,1.,0.));
#1242=DIRECTION('',(0.,0.,1.));
#1243=DIRECTION('',(-1.,0.,3.43899976719019E-10));
#1244=DIRECTION('',(-4.3727482695599E-10,0.,-1.));
#1245=DIRECTION('',(1.,0.,-3.4389972918901E-10));
#1246=DIRECTION('',(0.,-1.,0.));
#1247=DIRECTION('',(0.,0.,-1.));
#1248=DIRECTION('',(-1.,0.,4.37273808981108E-10));
#1249=DIRECTION('',(0.,-1.,0.));
#1250=DIRECTION('',(0.,0.,-1.));
#1251=DIRECTION('',(-1.09563053601005E-16,0.,1.));
#1252=DIRECTION('',(-1.,0.,3.4389972918901E-10));
#1253=DIRECTION('',(0.,-1.,0.));
#1254=DIRECTION('',(0.,0.,-1.));
#1255=DIRECTION('',(1.,0.,-3.43896954163669E-10));
#1256=DIRECTION('',(-1.09563052903371E-16,0.,-1.));
#1257=DIRECTION('',(0.,-1.,0.));
#1258=DIRECTION('',(0.,0.,-1.));
#1259=DIRECTION('',(-1.09563053601005E-16,0.,1.));
#1260=DIRECTION('',(0.,-1.,0.));
#1261=DIRECTION('',(0.,0.,-1.));
#1262=DIRECTION('',(-1.,0.,4.3780757892579E-10));
#1263=DIRECTION('',(-4.3727482695599E-10,0.,-1.));
#1264=DIRECTION('',(-1.,0.,3.43899976719019E-10));
#1265=DIRECTION('',(0.,-1.,0.));
#1266=DIRECTION('',(0.,0.,-1.));
#1267=DIRECTION('',(-1.,0.,3.4389972918901E-10));
#1268=DIRECTION('',(1.,0.,1.09563053601005E-16));
#1269=DIRECTION('',(1.09563053601005E-16,0.,-1.));
#1270=DIRECTION('',(0.,1.,0.));
#1271=DIRECTION('',(0.,-1.,0.));
#1272=DIRECTION('',(0.,1.,0.));
#1273=DIRECTION('',(-1.,0.,4.3727482695599E-10));
#1274=DIRECTION('',(4.3727482695599E-10,0.,1.));
#1275=DIRECTION('',(-1.,0.,4.3727482695599E-10));
#1276=DIRECTION('',(4.3727482695599E-10,0.,1.));
#1277=DIRECTION('',(0.,1.,0.));
#1278=DIRECTION('',(0.,1.,0.));
#1279=DIRECTION('',(1.,0.,-4.37274857524092E-10));
#1280=DIRECTION('',(-4.37274857524092E-10,0.,-1.));
#1281=DIRECTION('',(4.37274857524092E-10,0.,1.));
#1282=DIRECTION('',(0.,1.,0.));
#1283=DIRECTION('',(4.37274857524092E-10,0.,1.));
#1284=DIRECTION('',(0.,-1.,0.));
#1285=DIRECTION('',(-4.37274857524092E-10,0.,-1.));
#1286=DIRECTION('',(0.,-1.,0.));
#1287=DIRECTION('',(8.7454957491703E-10,0.,1.));
#1288=DIRECTION('',(1.,0.,-4.37274857524092E-10));
#1289=DIRECTION('',(-4.37274857524092E-10,0.,-1.));
#1290=DIRECTION('',(0.,-1.,0.));
#1291=DIRECTION('',(0.,-1.,0.));
#1292=DIRECTION('',(-1.,0.,4.3727482695599E-10));
#1293=DIRECTION('',(4.3727482695599E-10,0.,1.));
#1294=DIRECTION('',(0.,-1.,0.));
#1295=DIRECTION('',(0.,-1.,0.));
#1296=DIRECTION('',(0.,1.,0.));
#1297=DIRECTION('',(0.,-1.,0.));
#1298=DIRECTION('',(0.,0.,-1.));
#1299=DIRECTION('',(0.,-1.,0.));
#1300=DIRECTION('',(0.,0.,-1.));
#1301=DIRECTION('',(3.4389972918901E-10,0.,1.));
#1302=DIRECTION('',(1.,0.,-3.4389972918901E-10));
#1303=DIRECTION('',(3.4389972918901E-10,0.,1.));
#1304=DIRECTION('',(1.,0.,-3.4389972918901E-10));
#1305=DIRECTION('',(-3.43899976719019E-10,0.,-1.));
#1306=DIRECTION('',(-1.,0.,3.43899976719019E-10));
#1307=DIRECTION('',(-3.43896954163669E-10,0.,-1.));
#1308=DIRECTION('',(-1.,0.,3.43896954163669E-10));
#1309=DIRECTION('',(4.37273808981108E-10,0.,1.));
#1310=DIRECTION('',(1.,0.,-4.37273808981108E-10));
#1311=DIRECTION('',(0.,1.,0.));
#1312=DIRECTION('',(-1.,0.,4.37273808981108E-10));
#1313=DIRECTION('',(-4.3780757892579E-10,0.,-1.));
#1314=DIRECTION('',(-1.,0.,4.3780757892579E-10));
#1315=DIRECTION('',(-1.,0.,4.3780757892579E-10));
#1316=DIRECTION('',(0.,1.,0.));
#1317=DIRECTION('',(0.,-1.,0.));
#1318=DIRECTION('',(0.,0.,-1.));
#1319=DIRECTION('',(0.,-1.,0.));
#1320=DIRECTION('',(0.,0.,-1.));
#1321=DIRECTION('',(0.,1.,0.));
#1322=DIRECTION('',(0.,0.,1.));
#1323=DIRECTION('',(0.,-1.,0.));
#1324=DIRECTION('',(0.,0.,-1.));
#1325=DIRECTION('',(-1.,0.,4.37273808981108E-10));
#1326=DIRECTION('',(4.37273808981108E-10,0.,1.));
#1327=DIRECTION('',(1.,0.,-4.37273806573602E-10));
#1328=DIRECTION('',(-4.37273806573602E-10,0.,-1.));
#1329=DIRECTION('',(0.,-1.,0.));
#1330=DIRECTION('',(0.,0.,-1.));
#1331=DIRECTION('',(-1.,0.,4.3780757892579E-10));
#1332=DIRECTION('',(4.3780757892579E-10,0.,1.));
#1333=DIRECTION('',(1.,6.32451267283211E-17,-4.37807577373152E-10));
#1334=DIRECTION('',(-4.37807577373152E-10,0.,-1.));
#1335=DIRECTION('',(0.,-1.,0.));
#1336=DIRECTION('',(0.,0.,-1.));
#1337=DIRECTION('',(0.,-1.,0.));
#1338=DIRECTION('',(8.74549684480083E-10,0.,1.));
#1339=DIRECTION('',(0.,-1.,0.));
#1340=DIRECTION('',(0.,-1.,0.));
#1341=DIRECTION('',(-1.,0.,8.74549623247743E-10));
#1342=DIRECTION('',(0.,-1.,0.));
#1343=DIRECTION('',(0.,-1.,0.));
#1344=DIRECTION('',(-1.,0.,8.74549623247743E-10));
#1345=DIRECTION('',(0.,-1.,0.));
#1346=DIRECTION('',(0.,-1.,0.));
#1347=DIRECTION('',(-1.,0.,8.74549623247743E-10));
#1348=DIRECTION('',(0.,-1.,0.));
#1349=DIRECTION('',(0.,-1.,0.));
#1350=DIRECTION('',(-1.,0.,8.74549623247743E-10));
#1351=DIRECTION('',(0.,-1.,0.));
#1352=DIRECTION('',(0.758182475456928,0.,-0.652042432599294));
#1353=DIRECTION('',(0.652042432599294,0.,0.758182475456928));
#1354=DIRECTION('',(0.652042432599294,0.,0.758182475456928));
#1355=DIRECTION('',(0.,-1.,0.));
#1356=DIRECTION('',(-0.652042423169159,0.,-0.758182483566912));
#1357=DIRECTION('',(-0.758182476597415,0.,-0.652042431273158));
#1358=DIRECTION('',(0.652042431273158,0.,-0.758182476597415));
#1359=DIRECTION('',(-0.652042431273158,0.,0.758182476597415));
#1360=DIRECTION('',(0.,-1.,0.));
#1361=DIRECTION('',(0.652042431273158,0.,-0.758182476597415));
#1362=DIRECTION('',(0.,-1.,0.));
#1363=DIRECTION('',(0.758182475456928,0.,-0.652042432599294));
#1364=DIRECTION('',(0.652042432599294,0.,0.758182475456928));
#1365=DIRECTION('',(-0.652042432599294,0.,-0.758182475456928));
#1366=DIRECTION('',(0.,-1.,0.));
#1367=DIRECTION('',(0.652042432599294,0.,0.758182475456928));
#1368=DIRECTION('',(-0.758182476597415,0.,-0.652042431273158));
#1369=DIRECTION('',(0.652042431273158,0.,-0.758182476597415));
#1370=DIRECTION('',(0.652042431273158,0.,-0.758182476597415));
#1371=DIRECTION('',(0.,-1.,0.));
#1372=DIRECTION('',(-0.652042431273158,0.,0.758182476597415));
#1373=DIRECTION('',(0.,-1.,0.));
#1374=DIRECTION('',(0.,1.,0.));
#1375=DIRECTION('',(-8.74549684480083E-10,0.,-1.));
#1376=DIRECTION('',(1.,0.,-5.30652730316414E-10));
#1377=DIRECTION('',(-1.,0.,5.30649707761063E-10));
#1378=DIRECTION('',(0.,-1.,0.));
#1379=DIRECTION('',(-8.74549684480083E-10,0.,-1.));
#1380=DIRECTION('',(0.,1.,0.));
#1381=DIRECTION('',(-8.74549684480083E-10,0.,-1.));
#1382=DIRECTION('',(1.,0.,-5.30649955291072E-10));
#1383=DIRECTION('',(-1.,0.,5.30649707761063E-10));
#1384=DIRECTION('',(0.,-1.,0.));
#1385=DIRECTION('',(-8.74549684480083E-10,0.,-1.));
#1386=DIRECTION('',(0.,-1.,0.));
#1387=DIRECTION('',(8.74549684480083E-10,0.,1.));
#1388=DIRECTION('',(-1.,0.,4.37275875498975E-10));
#1389=DIRECTION('',(1.,0.,-5.30652730316414E-10));
#1390=DIRECTION('',(0.,1.,0.));
#1391=DIRECTION('',(8.74549684480083E-10,0.,1.));
#1392=DIRECTION('',(-1.,0.,5.30649955291072E-10));
#1393=DIRECTION('',(-8.74549794043136E-10,0.,-1.));
#1394=DIRECTION('',(0.,1.,0.));
#1395=DIRECTION('',(8.74549684480083E-10,0.,1.));
#1396=DIRECTION('',(0.,-1.,0.));
#1397=DIRECTION('',(8.74549684480083E-10,0.,1.));
#1398=DIRECTION('',(-8.74549794043136E-10,0.,-1.));
#1399=DIRECTION('',(-1.,0.,5.30649955291072E-10));
#1400=DIRECTION('',(0.,1.,0.));
#1401=DIRECTION('',(8.74549684480083E-10,0.,1.));
#1402=DIRECTION('',(-1.,0.,5.30649707761063E-10));
#1403=DIRECTION('',(-1.,0.,4.36742105554293E-10));
#1404=DIRECTION('',(0.,1.,0.));
#1405=DIRECTION('',(8.74549684480083E-10,0.,1.));
#1406=DIRECTION('',(1.,0.,-8.74549794043136E-10));
#1407=DIRECTION('',(8.74549794043136E-10,0.,1.));
#1408=DIRECTION('',(0.,1.,0.));
#1409=DIRECTION('',(0.,-1.,0.));
#1410=DIRECTION('',(0.,1.,0.));
#1411=DIRECTION('',(0.,-1.,0.));
#1412=DIRECTION('',(8.74549684480083E-10,0.,1.));
#1413=DIRECTION('',(0.,-1.,0.));
#1414=DIRECTION('',(8.74549684480083E-10,0.,1.));
#1415=DIRECTION('',(-5.30649955291072E-10,0.,-1.));
#1416=DIRECTION('',(1.,0.,-5.30649955291072E-10));
#1417=DIRECTION('',(-5.30649955291072E-10,0.,-1.));
#1418=DIRECTION('',(1.,0.,-5.30649955291072E-10));
#1419=DIRECTION('',(5.30649707761063E-10,0.,1.));
#1420=DIRECTION('',(-1.,0.,5.30649707761063E-10));
#1421=DIRECTION('',(5.30652730316414E-10,0.,1.));
#1422=DIRECTION('',(-1.,0.,5.30652730316414E-10));
#1423=DIRECTION('',(-4.37275875498975E-10,0.,-1.));
#1424=DIRECTION('',(1.,0.,-4.37275875498975E-10));
#1425=DIRECTION('',(0.,1.,0.));
#1426=DIRECTION('',(-1.,0.,4.37275875498975E-10));
#1427=DIRECTION('',(4.36742105554293E-10,0.,1.));
#1428=DIRECTION('',(-1.,0.,4.36742105554293E-10));
#1429=DIRECTION('',(0.,1.,0.));
#1430=DIRECTION('',(-1.,0.,4.36742105554293E-10));
#1431=DIRECTION('',(0.,-1.,0.));
#1432=DIRECTION('',(8.74549684480083E-10,0.,1.));
#1433=DIRECTION('',(0.,1.,0.));
#1434=DIRECTION('',(8.74549684480083E-10,0.,1.));
#1435=DIRECTION('',(0.,1.,0.));
#1436=DIRECTION('',(-8.74549684480083E-10,0.,-1.));
#1437=DIRECTION('',(0.,1.,0.));
#1438=DIRECTION('',(8.74549684480083E-10,0.,1.));
#1439=DIRECTION('',(-1.,0.,4.37275875498975E-10));
#1440=DIRECTION('',(-4.37275875498975E-10,0.,-1.));
#1441=DIRECTION('',(-1.,0.,4.37275877906481E-10));
#1442=DIRECTION('',(4.37275877906481E-10,0.,1.));
#1443=DIRECTION('',(0.,-1.,0.));
#1444=DIRECTION('',(8.74549684480083E-10,0.,1.));
#1445=DIRECTION('',(-1.,0.,4.36742105554293E-10));
#1446=DIRECTION('',(-4.36742105554293E-10,0.,-1.));
#1447=DIRECTION('',(-1.,-6.32451267283211E-17,4.3674210710693E-10));
#1448=DIRECTION('',(4.3674210710693E-10,0.,1.));
#1449=DIRECTION('',(0.,-1.,0.));
#1450=DIRECTION('',(8.74549684480083E-10,0.,1.));
#1451=CARTESIAN_POINT('',(0.,0.,0.));
#1452=CARTESIAN_POINT('',(-0.350000039562566,0.,1.53046272424094E-10));
#1453=CARTESIAN_POINT('',(-0.35000004895571,3.15,-21.4810988612409));
#1454=CARTESIAN_POINT('',(-0.35000004895571,12.5,-21.4810988612409));
#1455=CARTESIAN_POINT('',(-0.35000004895571,-12.5,-21.4810988612409));
#1456=CARTESIAN_POINT('',(-0.350000067985429,12.5,-64.9999999795474));
#1457=CARTESIAN_POINT('',(-0.350000092683194,12.5,-121.481098861241));
#1458=CARTESIAN_POINT('',(-0.350000092683194,3.15,-121.481098861241));
#1459=CARTESIAN_POINT('',(-0.350000092683194,-12.5,-121.481098861241));
#1460=CARTESIAN_POINT('',(-0.350000046121688,-12.5,-14.9999999795474));
#1461=CARTESIAN_POINT('',(-2.3596296527646E-8,3.15,-18.2499999797038));
#1462=CARTESIAN_POINT('',(-2.3596296527646E-8,12.5,-18.2499999797038));
#1463=CARTESIAN_POINT('',(-3.15,12.5,-19.0500000726279));
#1464=CARTESIAN_POINT('',(-2.3596296527646E-8,-12.5,-18.2499999797038));
#1465=CARTESIAN_POINT('',(-3.15,-12.5,-19.0500000726279));
#1466=CARTESIAN_POINT('',(-3.15,3.15,-19.0500000726279));
#1467=CARTESIAN_POINT('',(-2.3596296527646E-8,12.5,-18.2499999797038));
#1468=CARTESIAN_POINT('',(-3.15,12.5,-19.0500000726279));
#1469=CARTESIAN_POINT('',(-3.15,12.5,-17.9999999796382));
#1470=CARTESIAN_POINT('',(-0.150000006374326,12.5,-17.9999999796382));
#1471=CARTESIAN_POINT('',(-0.150000005062504,12.5,-14.9999999796349));
#1472=CARTESIAN_POINT('',(-0.350000046121688,12.5,-14.9999999795474));
#1473=CARTESIAN_POINT('',(3.14999995387831,12.5,-14.9999999810779));
#1474=CARTESIAN_POINT('',(3.14999993201457,12.5,-64.9999999810779));
#1475=CARTESIAN_POINT('',(3.14999990448278,12.5,-127.962197744465));
#1476=CARTESIAN_POINT('',(-0.350000095517215,12.5,-127.962197742934));
#1477=CARTESIAN_POINT('',(-0.150000054458031,12.5,-127.962197743022));
#1478=CARTESIAN_POINT('',(-0.150000053146204,12.5,-124.962197743018));
#1479=CARTESIAN_POINT('',(-3.15000004677188,12.5,-124.962197740395));
#1480=CARTESIAN_POINT('',(-3.1500000458536,12.5,-123.912197647405));
#1481=CARTESIAN_POINT('',(-3.1500000458536,12.5,-123.912197647405));
#1482=CARTESIAN_POINT('',(-7.0149537174094E-8,12.5,-124.712197743084));
#1483=CARTESIAN_POINT('',(-2.3596296527646E-8,-12.5,-18.2499999797038));
#1484=CARTESIAN_POINT('',(-0.350000046121688,-12.5,-14.9999999795474));
#1485=CARTESIAN_POINT('',(-0.150000005060903,-12.5,-14.9999999796348));
#1486=CARTESIAN_POINT('',(3.14999995387831,-12.5,-14.9999999810779));
#1487=CARTESIAN_POINT('',(-0.150000006374326,-12.5,-17.9999999796364));
#1488=CARTESIAN_POINT('',(-3.15,-12.5,-17.9999999796364));
#1489=CARTESIAN_POINT('',(-3.15,-12.5,-19.0500000726279));
#1490=CARTESIAN_POINT('',(-7.0149537174094E-8,-12.5,-124.712197743084));
#1491=CARTESIAN_POINT('',(-3.1500000458536,-12.5,-123.912197647405));
#1492=CARTESIAN_POINT('',(-3.1500000458536,-12.5,-123.912197647405));
#1493=CARTESIAN_POINT('',(-3.15000004677188,-12.5,-124.962197740397));
#1494=CARTESIAN_POINT('',(-0.150000053146204,-12.5,-124.96219774302));
#1495=CARTESIAN_POINT('',(-0.15000005445643,-12.5,-127.962197743022));
#1496=CARTESIAN_POINT('',(-0.350000095517215,-12.5,-127.962197742934));
#1497=CARTESIAN_POINT('',(3.14999990448278,-12.5,-127.962197744465));
#1498=CARTESIAN_POINT('',(3.14999995387831,-12.5,-14.9999999810779));
#1499=CARTESIAN_POINT('',(-2.5760738380798,2.5,2.99540946482896));
#1500=CARTESIAN_POINT('',(-2.5760738380798,-2.5,2.99540946482896));
#1501=CARTESIAN_POINT('',(-2.47075280796168,2.5,3.32070053955708));
#1502=CARTESIAN_POINT('',(-2.47075280796168,-2.5,3.32070053955708));
#1503=CARTESIAN_POINT('',(-1.36079484744518,2.5,3.92096766679561));
#1504=CARTESIAN_POINT('',(-1.36079484744518,-2.5,3.92096766679561));
#1505=CARTESIAN_POINT('',(0.551795265779531,2.5,3.90231949766794));
#1506=CARTESIAN_POINT('',(0.551795265779531,-2.5,3.90231949766794));
#1507=CARTESIAN_POINT('',(1.29025343614017,2.5,3.73939407188402));
#1508=CARTESIAN_POINT('',(1.29025343614017,-2.5,3.73939407188402));
#1509=CARTESIAN_POINT('',(-1.28217748918136E-11,0.5,2.87164919201183));
#1510=CARTESIAN_POINT('',(-1.29025343214352,0.5,3.73939407277146));
#1511=CARTESIAN_POINT('',(-2.5760738380798,0.5,2.99540946482896));
#1512=CARTESIAN_POINT('',(-1.29025343214352,2.5,3.73939407277146));
#1513=CARTESIAN_POINT('',(-1.29025343214352,-0.5,3.73939407277146));
#1514=CARTESIAN_POINT('',(-1.28217748918136E-11,-0.5,2.87164919201183));
#1515=CARTESIAN_POINT('',(-2.5760738380798,-0.5,2.99540946482896));
#1516=CARTESIAN_POINT('',(-2.5760738380798,2.5,2.99540946482896));
#1517=CARTESIAN_POINT('',(-2.5760738380798,-2.5,2.99540946482896));
#1518=CARTESIAN_POINT('',(-1.28217748918136E-11,-2.5,2.87164919201183));
#1519=CARTESIAN_POINT('',(1.29025343614017,-2.5,3.73939407188402));
#1520=CARTESIAN_POINT('',(1.29025343614017,2.5,3.73939407188402));
#1521=CARTESIAN_POINT('',(1.29025343614017,2.5,3.73939407188402));
#1522=CARTESIAN_POINT('',(-1.28217748918136E-11,2.5,2.87164919201183));
#1523=CARTESIAN_POINT('',(-2.5760738380798,2.5,2.99540946482896));
#1524=CARTESIAN_POINT('',(-2.5760738380798,2.5,2.99540946482896));
#1525=CARTESIAN_POINT('',(-1.87474935491894,2.5,2.17992276166699));
#1526=CARTESIAN_POINT('',(-1.87474935491894,0.5,2.17992276166699));
#1527=CARTESIAN_POINT('',(-0.189545619019617,0.5,0.220400070328778));
#1528=CARTESIAN_POINT('',(-2.3596296527646E-8,2.5,2.03005828353537E-8));
#1529=CARTESIAN_POINT('',(-0.189545643391801,2.5,0.220400049368523));
#1530=CARTESIAN_POINT('',(-0.189545619019617,2.5,0.220400070328778));
#1531=CARTESIAN_POINT('',(1.87474935489329,2.5,2.17992276166699));
#1532=CARTESIAN_POINT('',(1.87474935489329,2.5,2.17992276166699));
#1533=CARTESIAN_POINT('',(2.57607383805427,2.5,2.99540946482895));
#1534=CARTESIAN_POINT('',(0.189545618993969,2.5,0.220400070328777));
#1535=CARTESIAN_POINT('',(2.57607383805416,2.24882248202731,2.99540946482895));
#1536=CARTESIAN_POINT('',(2.57607383805416,0.5,2.99540946482895));
#1537=CARTESIAN_POINT('',(1.87474935489329,0.5,2.17992276166699));
#1538=CARTESIAN_POINT('',(0.189545618993969,0.5,0.220400070328778));
#1539=CARTESIAN_POINT('',(0.189545618993969,2.5,0.220400070328778));
#1540=CARTESIAN_POINT('',(-1.87474935491894,2.5,2.17992276166699));
#1541=CARTESIAN_POINT('',(-1.87474935491894,-0.5,2.17992276166699));
#1542=CARTESIAN_POINT('',(-0.189545619019617,-0.5,0.220400070328778));
#1543=CARTESIAN_POINT('',(-0.189545619019617,2.5,0.220400070328778));
#1544=CARTESIAN_POINT('',(-0.189545619019617,-2.5,0.220400070328778));
#1545=CARTESIAN_POINT('',(-1.87474935491894,-2.5,2.17992276166699));
#1546=CARTESIAN_POINT('',(1.87474935489329,2.5,2.17992276166699));
#1547=CARTESIAN_POINT('',(1.87474935489329,-0.5,2.17992276166699));
#1548=CARTESIAN_POINT('',(0.189545618993969,-0.5,0.220400070328778));
#1549=CARTESIAN_POINT('',(2.57607383805416,-0.5,2.99540946482895));
#1550=CARTESIAN_POINT('',(2.57607383805416,2.5,2.99540946482895));
#1551=CARTESIAN_POINT('',(2.57607383805416,-2.5,2.99540946482895));
#1552=CARTESIAN_POINT('',(1.87474935489329,-2.5,2.17992276166699));
#1553=CARTESIAN_POINT('',(0.189545618993969,-2.5,0.220400070328777));
#1554=CARTESIAN_POINT('',(0.189545618993969,2.5,0.220400070328778));
#1555=CARTESIAN_POINT('',(-1.28217748918136E-11,2.5,2.87164919201183));
#1556=CARTESIAN_POINT('',(-1.28232927748551E-11,2.5,0.383410678312834));
#1557=CARTESIAN_POINT('',(3.14999996009402,2.5,3.73939407124446));
#1558=CARTESIAN_POINT('',(3.14999996009402,2.5,3.73939407124446));
#1559=CARTESIAN_POINT('',(3.14999996190991,2.5,3.3674017678244));
#1560=CARTESIAN_POINT('',(3.14999996174725,2.5,2.99540946463158));
#1561=CARTESIAN_POINT('',(3.14999996174725,2.5,2.99540946463158));
#1562=CARTESIAN_POINT('',(-1.28217748918136E-11,-2.5,2.87164919201183));
#1563=CARTESIAN_POINT('',(-1.28232927748551E-11,-2.5,0.383410678312834));
#1564=CARTESIAN_POINT('',(2.97393803534011E-11,-2.5,2.99540946571487));
#1565=CARTESIAN_POINT('',(3.14999996174725,-2.5,2.99540946463158));
#1566=CARTESIAN_POINT('',(3.14999995918173,-2.5,-2.87164917835957));
#1567=CARTESIAN_POINT('',(3.14999996009402,-2.5,3.73939407124446));
#1568=CARTESIAN_POINT('',(3.14999996009402,-2.5,3.73939407124446));
#1569=CARTESIAN_POINT('',(-1.28217748918136E-11,0.5,2.87164919201183));
#1570=CARTESIAN_POINT('',(-6.51580445403863E-9,0.5,-11.9999999797038));
#1571=CARTESIAN_POINT('',(3.14999995918173,0.5,-11.9999999810812));
#1572=CARTESIAN_POINT('',(-0.150000003750683,0.5,-11.9999999796382));
#1573=CARTESIAN_POINT('',(-0.150000006374326,0.5,-17.9999999796382));
#1574=CARTESIAN_POINT('',(-3.15000000637433,0.5,-12.8038475569316));
#1575=CARTESIAN_POINT('',(-3.15000000637433,0.5,-2.87164917835957));
#1576=CARTESIAN_POINT('',(-3.15000000546204,0.5,3.73939407341102));
#1577=CARTESIAN_POINT('',(3.14999996009402,0.5,3.73939407124446));
#1578=CARTESIAN_POINT('',(-1.28232927748551E-11,0.5,0.383410678312834));
#1579=CARTESIAN_POINT('',(3.14999996174725,0.5,2.99540946463158));
#1580=CARTESIAN_POINT('',(3.14999996174725,0.5,2.99540946463158));
#1581=CARTESIAN_POINT('',(3.14999995918173,0.5,-2.87164917835957));
#1582=CARTESIAN_POINT('',(-1.28217748918136E-11,-0.5,2.87164919201183));
#1583=CARTESIAN_POINT('',(-3.15000000637433,-0.5,-2.87164917835957));
#1584=CARTESIAN_POINT('',(-3.15000000637433,-0.5,-12.8038475569298));
#1585=CARTESIAN_POINT('',(-3.15000000546204,-0.5,3.73939407341102));
#1586=CARTESIAN_POINT('',(-0.150000006374326,-0.5,-17.9999999796364));
#1587=CARTESIAN_POINT('',(-0.150000003747481,-0.5,-11.9999999796364));
#1588=CARTESIAN_POINT('',(-6.52374249339361E-9,-0.5,-11.9999999797021));
#1589=CARTESIAN_POINT('',(3.14999995519014,-0.5,-11.9999999810812));
#1590=CARTESIAN_POINT('',(3.14999995918173,-0.5,-2.87164917835957));
#1591=CARTESIAN_POINT('',(3.14999996174725,-0.5,2.99540946473027));
#1592=CARTESIAN_POINT('',(2.97393803534011E-11,-0.5,2.99540946571487));
#1593=CARTESIAN_POINT('',(-1.28232927748551E-11,-0.5,0.383410678312834));
#1594=CARTESIAN_POINT('',(3.14999996009402,-0.5,3.73939407124446));
#1595=CARTESIAN_POINT('',(-3.15000000637433,0.5,-2.87164917835957));
#1596=CARTESIAN_POINT('',(-3.15000000637433,0.5,-17.9999999796364));
#1597=CARTESIAN_POINT('',(-3.15000000637433,-3.5,-17.9999999796364));
#1598=CARTESIAN_POINT('',(-3.15000000637433,-0.5,-12.8038475569298));
#1599=CARTESIAN_POINT('',(-3.15000000637433,-0.5,-13.843807975518));
#1600=CARTESIAN_POINT('',(-3.15000000637433,-1.30145744012745,-15.8035002298403));
#1601=CARTESIAN_POINT('',(-3.15000000637433,-2.77610691688558,-17.2761057211103));
#1602=CARTESIAN_POINT('',(-3.15000000637433,-3.5,-17.9999999796364));
#1603=CARTESIAN_POINT('',(-3.15000000546204,0.5,3.73939407341102));
#1604=CARTESIAN_POINT('',(-3.15000000637433,0.5,-12.8038475569316));
#1605=CARTESIAN_POINT('',(-3.15000000637433,0.5,-13.8438079755197));
#1606=CARTESIAN_POINT('',(-3.15000000637433,1.30145744012745,-15.803500229842));
#1607=CARTESIAN_POINT('',(-3.15000000637433,2.77610691688558,-17.2761057211121));
#1608=CARTESIAN_POINT('',(-3.15000000637433,3.5,-17.9999999796382));
#1609=CARTESIAN_POINT('',(-3.15000000637433,3.5,-17.9999999796382));
#1610=CARTESIAN_POINT('',(-3.15000000637433,12.5,-17.9999999796382));
#1611=CARTESIAN_POINT('',(3.14999995918173,0.5,-2.87164917835957));
#1612=CARTESIAN_POINT('',(3.14999995519014,-3.5,-11.9999999810812));
#1613=CARTESIAN_POINT('',(3.14999995387831,-3.5,-14.9999999810812));
#1614=CARTESIAN_POINT('',(3.14999995387831,-2.75901113968222,-14.9999999810812));
#1615=CARTESIAN_POINT('',(3.14999990448278,-2.75901113968222,-127.962197744461));
#1616=CARTESIAN_POINT('',(3.14999990448278,-3.5,-127.962197744461));
#1617=CARTESIAN_POINT('',(3.14999990317096,-3.5,-130.962197744461));
#1618=CARTESIAN_POINT('',(3.14999990317096,-0.5,-130.962197744461));
#1619=CARTESIAN_POINT('',(3.14999989917936,-0.5,-140.090548547183));
#1620=CARTESIAN_POINT('',(3.14999989661384,-0.5,-145.957607190273));
#1621=CARTESIAN_POINT('',(3.14999989661384,-2.37584131075557,-145.957607190174));
#1622=CARTESIAN_POINT('',(3.14999989661384,-2.5,-145.957607190174));
#1623=CARTESIAN_POINT('',(3.14999989917936,-2.5,-140.090548547183));
#1624=CARTESIAN_POINT('',(3.14999989430996,-2.5,-146.701591796787));
#1625=CARTESIAN_POINT('',(3.14999989430996,0.5,-146.701591796787));
#1626=CARTESIAN_POINT('',(3.14999989430996,2.5,-146.701591796787));
#1627=CARTESIAN_POINT('',(3.14999989645118,2.5,-146.329599493367));
#1628=CARTESIAN_POINT('',(3.14999989661384,2.5,-145.957607190174));
#1629=CARTESIAN_POINT('',(3.14999989661384,2.24882248202731,-145.957607190174));
#1630=CARTESIAN_POINT('',(3.14999989661384,0.5,-145.957607190174));
#1631=CARTESIAN_POINT('',(3.14999989917936,0.5,-140.090548547183));
#1632=CARTESIAN_POINT('',(3.14999990716256,0.5,-130.962197744461));
#1633=CARTESIAN_POINT('',(3.14999990317096,3.5,-130.962197744461));
#1634=CARTESIAN_POINT('',(3.14999990448278,3.5,-127.962197744461));
#1635=CARTESIAN_POINT('',(3.14999990448278,3.01380958179113,-127.962197744461));
#1636=CARTESIAN_POINT('',(3.14999995387831,3.01380958179113,-14.9999999810812));
#1637=CARTESIAN_POINT('',(3.14999995387831,3.5,-14.9999999810812));
#1638=CARTESIAN_POINT('',(3.14999995519014,3.5,-11.9999999810812));
#1639=CARTESIAN_POINT('',(3.14999996174725,2.24882248202731,2.99540946463158));
#1640=CARTESIAN_POINT('',(3.14999996009402,0.5,3.73939407124446));
#1641=CARTESIAN_POINT('',(3.14999996174725,-2.37584131075557,2.99540946463158));
#1642=CARTESIAN_POINT('',(-1.28232927748551E-11,2.5,0.383410678312834));
#1643=CARTESIAN_POINT('',(-1.28232927748551E-11,2.5,0.383410678312834));
#1644=CARTESIAN_POINT('',(3.14999996009402,0.5,3.73939407124446));
#1645=CARTESIAN_POINT('',(3.14999996009402,0.5,3.73939407124446));
#1646=CARTESIAN_POINT('',(2.97393803534011E-11,-2.37584131075557,2.99540946571487));
#1647=CARTESIAN_POINT('',(3.14999996174725,2.24882248202731,2.99540946463158));
#1648=CARTESIAN_POINT('',(-2.35962959306307E-8,3.01380958179113,-14.9999999797038));
#1649=CARTESIAN_POINT('',(-0.150000005062504,0.5,-14.9999999796382));
#1650=CARTESIAN_POINT('',(-0.150000005062504,3.5,-14.9999999796382));
#1651=CARTESIAN_POINT('',(-2.35962959306307E-8,3.5,-14.9999999797038));
#1652=CARTESIAN_POINT('',(3.14999995387831,-2.75901113968222,-14.9999999810812));
#1653=CARTESIAN_POINT('',(3.14999995387831,-3.5,-14.9999999810812));
#1654=CARTESIAN_POINT('',(-0.150000005060903,-3.5,-14.9999999796364));
#1655=CARTESIAN_POINT('',(-0.150000005060903,-2.75901113968222,-14.9999999796364));
#1656=CARTESIAN_POINT('',(-0.150000006374326,0.5,-17.9999999796382));
#1657=CARTESIAN_POINT('',(-0.150000006374326,3.5,-17.9999999796382));
#1658=CARTESIAN_POINT('',(-0.150000006374326,0.5,-17.9999999796364));
#1659=CARTESIAN_POINT('',(-0.150000006374326,-3.5,-17.9999999796364));
#1660=CARTESIAN_POINT('',(-6.51580445403863E-9,3.5,-11.9999999797038));
#1661=CARTESIAN_POINT('',(-0.150000003750683,3.5,-11.9999999796382));
#1662=CARTESIAN_POINT('',(-0.150000006374326,3.5,-17.9999999796382));
#1663=CARTESIAN_POINT('',(3.14999995519173,-3.5,-11.9999999810812));
#1664=CARTESIAN_POINT('',(-0.15000000374748,-3.5,-11.9999999796364));
#1665=CARTESIAN_POINT('',(-0.150000006374326,-3.5,-17.9999999796364));
#1666=CARTESIAN_POINT('',(-7.0149537174094E-8,3.15,-124.712197743084));
#1667=CARTESIAN_POINT('',(-3.1500000458536,3.15,-123.912197647405));
#1668=CARTESIAN_POINT('',(-2.57607390321321,2.5,-145.957607185364));
#1669=CARTESIAN_POINT('',(-2.57607390321321,-2.5,-145.957607185364));
#1670=CARTESIAN_POINT('',(-2.47075287337955,2.5,-146.282898260184));
#1671=CARTESIAN_POINT('',(-2.47075287337955,-2.5,-146.282898260184));
#1672=CARTESIAN_POINT('',(-1.360794913388,2.5,-146.883165388393));
#1673=CARTESIAN_POINT('',(-1.360794913388,-2.5,-146.883165388393));
#1674=CARTESIAN_POINT('',(0.551795199853002,2.5,-146.864517220938));
#1675=CARTESIAN_POINT('',(0.551795199853002,-2.5,-146.864517220938));
#1676=CARTESIAN_POINT('',(1.29025337035612,2.5,-146.7015917958));
#1677=CARTESIAN_POINT('',(1.29025337035612,-2.5,-146.7015917958));
#1678=CARTESIAN_POINT('',(-6.50379940401627E-8,0.5,-145.8338469148));
#1679=CARTESIAN_POINT('',(-1.29025349792757,0.5,-146.701591794431));
#1680=CARTESIAN_POINT('',(-2.57607390321321,0.5,-145.957607185364));
#1681=CARTESIAN_POINT('',(-2.57607390321321,2.5,-145.957607185364));
#1682=CARTESIAN_POINT('',(-2.57607390321321,2.5,-145.957607185364));
#1683=CARTESIAN_POINT('',(-6.50379940401627E-8,2.5,-145.8338469148));
#1684=CARTESIAN_POINT('',(1.29025337035611,2.5,-146.7015917958));
#1685=CARTESIAN_POINT('',(1.29025337035611,2.5,-146.7015917958));
#1686=CARTESIAN_POINT('',(1.29025337035611,-2.5,-146.7015917958));
#1687=CARTESIAN_POINT('',(-6.50379940401627E-8,-2.5,-145.8338469148));
#1688=CARTESIAN_POINT('',(-2.57607390321321,-2.5,-145.957607185364));
#1689=CARTESIAN_POINT('',(-2.57607390321321,2.5,-145.957607185364));
#1690=CARTESIAN_POINT('',(-2.57607390321321,-0.5,-145.957607185364));
#1691=CARTESIAN_POINT('',(-6.50379940401627E-8,-0.5,-145.8338469148));
#1692=CARTESIAN_POINT('',(-1.29025349792757,-0.5,-146.701591794431));
#1693=CARTESIAN_POINT('',(-1.29025349792757,2.5,-146.701591794431));
#1694=CARTESIAN_POINT('',(-1.87474941933916,2.5,-145.142120482815));
#1695=CARTESIAN_POINT('',(-1.87474941933916,0.5,-145.142120482815));
#1696=CARTESIAN_POINT('',(-0.18954568172614,0.5,-143.182597792951));
#1697=CARTESIAN_POINT('',(-0.18954568172614,2.5,-143.182597792951));
#1698=CARTESIAN_POINT('',(-0.189545706098324,2.5,-143.182597771991));
#1699=CARTESIAN_POINT('',(-8.61100689158593E-8,2.5,-142.962197743088));
#1700=CARTESIAN_POINT('',(1.87474929047307,2.5,-145.142120486094));
#1701=CARTESIAN_POINT('',(1.87474929047307,2.5,-145.142120486094));
#1702=CARTESIAN_POINT('',(2.57607377292086,2.5,-145.95760718987));
#1703=CARTESIAN_POINT('',(0.189545556287446,2.5,-143.182597793282));
#1704=CARTESIAN_POINT('',(0.189545556287446,2.5,-143.182597793282));
#1705=CARTESIAN_POINT('',(0.189545556287446,0.5,-143.182597793282));
#1706=CARTESIAN_POINT('',(1.87474929047307,0.5,-145.142120486094));
#1707=CARTESIAN_POINT('',(2.57607377292075,0.5,-145.95760718987));
#1708=CARTESIAN_POINT('',(2.57607377292075,2.24882248202731,-145.95760718987));
#1709=CARTESIAN_POINT('',(-1.87474941933916,2.5,-145.142120482815));
#1710=CARTESIAN_POINT('',(-1.87474941933916,-2.5,-145.142120482815));
#1711=CARTESIAN_POINT('',(-0.18954568172614,-2.5,-143.182597792951));
#1712=CARTESIAN_POINT('',(-0.18954568172614,2.5,-143.182597792951));
#1713=CARTESIAN_POINT('',(-0.18954568172614,-0.5,-143.182597792951));
#1714=CARTESIAN_POINT('',(-1.87474941933916,-0.5,-145.142120482815));
#1715=CARTESIAN_POINT('',(1.87474929047307,2.5,-145.142120486094));
#1716=CARTESIAN_POINT('',(1.87474929047307,-0.5,-145.142120486094));
#1717=CARTESIAN_POINT('',(0.189545556287446,-0.5,-143.182597793282));
#1718=CARTESIAN_POINT('',(2.57607377292075,-0.5,-145.95760718987));
#1719=CARTESIAN_POINT('',(0.189545556287446,2.5,-143.182597793282));
#1720=CARTESIAN_POINT('',(0.189545556287446,-2.5,-143.182597793282));
#1721=CARTESIAN_POINT('',(1.87474929047307,-2.5,-145.142120486094));
#1722=CARTESIAN_POINT('',(2.57607377292075,-2.5,-145.95760718987));
#1723=CARTESIAN_POINT('',(2.57607377292075,2.5,-145.95760718987));
#1724=CARTESIAN_POINT('',(-6.50379940401627E-8,2.5,-145.8338469148));
#1725=CARTESIAN_POINT('',(3.14999989661384,2.5,-145.957607190174));
#1726=CARTESIAN_POINT('',(3.14999989430996,2.5,-146.701591796787));
#1727=CARTESIAN_POINT('',(-6.28619073509791E-8,2.5,-143.345608401101));
#1728=CARTESIAN_POINT('',(-6.50379940401627E-8,-2.5,-145.8338469148));
#1729=CARTESIAN_POINT('',(3.14999989430996,-2.5,-146.701591796787));
#1730=CARTESIAN_POINT('',(-6.51036673932356E-8,-2.5,-145.957607188503));
#1731=CARTESIAN_POINT('',(-6.28619073509791E-8,-2.5,-143.345608401101));
#1732=CARTESIAN_POINT('',(-6.50379940401627E-8,0.5,-145.8338469148));
#1733=CARTESIAN_POINT('',(-5.85349806284871E-8,0.5,-130.962197743084));
#1734=CARTESIAN_POINT('',(-0.150000055769859,0.5,-130.962197743018));
#1735=CARTESIAN_POINT('',(3.14999989661384,0.5,-145.957607190174));
#1736=CARTESIAN_POINT('',(-6.28619073509791E-8,0.5,-143.345608401101));
#1737=CARTESIAN_POINT('',(3.14999989430996,0.5,-146.701591796787));
#1738=CARTESIAN_POINT('',(-3.1500000712461,0.5,-146.701591793444));
#1739=CARTESIAN_POINT('',(-3.1500000663767,0.5,-140.090548541673));
#1740=CARTESIAN_POINT('',(-3.1500000576905,0.5,-130.158350163101));
#1741=CARTESIAN_POINT('',(-0.150000053146204,0.5,-124.962197743018));
#1742=CARTESIAN_POINT('',(-6.50379940401627E-8,-0.5,-145.8338469148));
#1743=CARTESIAN_POINT('',(-3.1500000663767,-0.5,-140.090548541673));
#1744=CARTESIAN_POINT('',(-3.1500000576905,-0.5,-130.158350163103));
#1745=CARTESIAN_POINT('',(-3.1500000712461,-0.5,-146.701591793444));
#1746=CARTESIAN_POINT('',(3.14999989430996,-0.5,-146.701591796787));
#1747=CARTESIAN_POINT('',(-6.28619073509791E-8,-0.5,-143.345608401101));
#1748=CARTESIAN_POINT('',(-6.51036673932356E-8,-0.5,-145.957607188503));
#1749=CARTESIAN_POINT('',(-5.85429186678436E-8,-0.5,-130.962197743086));
#1750=CARTESIAN_POINT('',(-0.150000055766657,-0.5,-130.96219774302));
#1751=CARTESIAN_POINT('',(-0.150000053146204,-0.5,-124.96219774302));
#1752=CARTESIAN_POINT('',(-3.1500000663767,0.5,-140.090548541673));
#1753=CARTESIAN_POINT('',(-3.1500000531462,12.5,-124.962197740395));
#1754=CARTESIAN_POINT('',(-3.1500000531462,3.5,-124.962197740395));
#1755=CARTESIAN_POINT('',(-3.1500000576905,0.5,-130.158350163101));
#1756=CARTESIAN_POINT('',(-3.150000056781,0.5,-129.118389744513));
#1757=CARTESIAN_POINT('',(-3.15000005506715,1.30145744012744,-127.158697490191));
#1758=CARTESIAN_POINT('',(-3.15000005377929,2.77610691688558,-125.686091998921));
#1759=CARTESIAN_POINT('',(-3.1500000531462,3.5,-124.962197740395));
#1760=CARTESIAN_POINT('',(-3.1500000712461,0.5,-146.701591793444));
#1761=CARTESIAN_POINT('',(-3.1500000576905,-0.5,-130.158350163103));
#1762=CARTESIAN_POINT('',(-3.150000056781,-0.5,-129.118389744515));
#1763=CARTESIAN_POINT('',(-3.15000005506715,-1.30145744012745,-127.158697490193));
#1764=CARTESIAN_POINT('',(-3.15000005377929,-2.77610691688558,-125.686091998923));
#1765=CARTESIAN_POINT('',(-3.1500000531462,-3.5,-124.962197740397));
#1766=CARTESIAN_POINT('',(-3.1500000531462,-3.5,-124.962197740397));
#1767=CARTESIAN_POINT('',(-3.1500000531462,0.5,-124.962197740397));
#1768=CARTESIAN_POINT('',(-6.28619073509791E-8,2.5,-143.345608401101));
#1769=CARTESIAN_POINT('',(-6.28619073509791E-8,2.5,-143.345608401101));
#1770=CARTESIAN_POINT('',(3.14999989430996,0.5,-146.701591796787));
#1771=CARTESIAN_POINT('',(3.14999989430996,0.5,-146.701591796787));
#1772=CARTESIAN_POINT('',(-6.51036673932356E-8,-2.37584131075557,-145.957607188503));
#1773=CARTESIAN_POINT('',(3.14999989661384,2.24882248202731,-145.957607190174));
#1774=CARTESIAN_POINT('',(-7.29918230516389E-8,3.01380958179113,-127.962197743084));
#1775=CARTESIAN_POINT('',(-0.150000054458031,0.5,-127.962197743018));
#1776=CARTESIAN_POINT('',(-0.150000054458031,3.5,-127.962197743018));
#1777=CARTESIAN_POINT('',(-7.29918230516389E-8,3.5,-127.962197743084));
#1778=CARTESIAN_POINT('',(3.14999990448278,-2.75901113968222,-127.962197744461));
#1779=CARTESIAN_POINT('',(-0.15000005445643,-2.75901113968222,-127.96219774302));
#1780=CARTESIAN_POINT('',(-0.15000005445643,-3.5,-127.96219774302));
#1781=CARTESIAN_POINT('',(3.14999990448278,-3.5,-127.962197744461));
#1782=CARTESIAN_POINT('',(-0.150000053146204,0.5,-124.962197743018));
#1783=CARTESIAN_POINT('',(-0.150000053146204,3.5,-124.962197743018));
#1784=CARTESIAN_POINT('',(-0.150000053146204,0.5,-124.96219774302));
#1785=CARTESIAN_POINT('',(-0.150000053146204,-3.5,-124.96219774302));
#1786=CARTESIAN_POINT('',(-5.85349806284871E-8,3.5,-130.962197743084));
#1787=CARTESIAN_POINT('',(-0.150000055769859,3.5,-130.962197743018));
#1788=CARTESIAN_POINT('',(-0.150000053146204,3.5,-124.962197743018));
#1789=CARTESIAN_POINT('',(3.14999990317256,-3.5,-130.962197744461));
#1790=CARTESIAN_POINT('',(-0.150000055766657,-3.5,-130.96219774302));
#1791=CARTESIAN_POINT('',(-0.150000053146204,-3.5,-124.96219774302));
#1792=MECHANICAL_DESIGN_GEOMETRIC_PRESENTATION_REPRESENTATION('',(#1053),
#1793);
#1793=(
GEOMETRIC_REPRESENTATION_CONTEXT(3)
GLOBAL_UNCERTAINTY_ASSIGNED_CONTEXT((#1794))
GLOBAL_UNIT_ASSIGNED_CONTEXT((#1797,#1796,#1795))
REPRESENTATION_CONTEXT('LongSandingPlate01','TOP_LEVEL_ASSEMBLY_PART')
);
#1794=UNCERTAINTY_MEASURE_WITH_UNIT(LENGTH_MEASURE(0.005),#1797,
'DISTANCE_ACCURACY_VALUE','Maximum Tolerance applied to model');
#1795=(
NAMED_UNIT(*)
SI_UNIT($,.STERADIAN.)
SOLID_ANGLE_UNIT()
);
#1796=(
NAMED_UNIT(*)
PLANE_ANGLE_UNIT()
SI_UNIT($,.RADIAN.)
);
#1797=(
LENGTH_UNIT()
NAMED_UNIT(*)
SI_UNIT(.MILLI.,.METRE.)
);
#1798=PRODUCT_DEFINITION_SHAPE('','',#1799);
#1799=PRODUCT_DEFINITION('','',#1801,#1800);
#1800=PRODUCT_DEFINITION_CONTEXT('',#1807,'design');
#1801=PRODUCT_DEFINITION_FORMATION_WITH_SPECIFIED_SOURCE('','',#1803,
 .NOT_KNOWN.);
#1802=PRODUCT_RELATED_PRODUCT_CATEGORY('','',(#1803));
#1803=PRODUCT('LongSandingPlate01','LongSandingPlate01',
'LongSandingPlate01',(#1805));
#1804=PRODUCT_CATEGORY('','');
#1805=PRODUCT_CONTEXT('',#1807,'mechanical');
#1806=APPLICATION_PROTOCOL_DEFINITION('international standard',
'automotive_design',2010,#1807);
#1807=APPLICATION_CONTEXT(
'core data for automotive mechanical design processes');
ENDSEC;
END-ISO-10303-21;
