ISO-10303-21;
HEADER;
/* Generated by software containing ST-Developer
 * from STEP Tools, Inc. (www.steptools.com) 
 */
/* OPTION: strings as raw bytes, not using required /X/ escapes */

FILE_DESCRIPTION(
/* description */ ('Unknown'),
/* implementation_level */ '2;1');

FILE_NAME(
/* name */ 'ScrollSawSandingEnds_01_15mm',
/* time_stamp */ '2023-05-06T18:54:28+01:00',
/* author */ ('Unknown'),
/* organization */ ('Unknown'),
/* preprocessor_version */ 'ST-DEVELOPER v18.102',
/* originating_system */ 'Solid Edge',
/* authorisation */ 'Unknown');

FILE_SCHEMA (('AUTOMOTIVE_DESIGN {1 0 10303 214 3 1 1}'));
ENDSEC;

DATA;
#10=PROPERTY_DEFINITION_REPRESENTATION(#14,#12);
#11=PROPERTY_DEFINITION_REPRESENTATION(#15,#13);
#12=REPRESENTATION('',(#16),#1168);
#13=REPRESENTATION('',(#17),#1168);
#14=PROPERTY_DEFINITION('pmi validation property','',#1173);
#15=PROPERTY_DEFINITION('pmi validation property','',#1173);
#16=VALUE_REPRESENTATION_ITEM('number of annotations',COUNT_MEASURE(0.));
#17=VALUE_REPRESENTATION_ITEM('number of views',COUNT_MEASURE(0.));
#18=SHAPE_REPRESENTATION_RELATIONSHIP('','',#698,#19);
#19=ADVANCED_BREP_SHAPE_REPRESENTATION('',(#696),#1168);
#20=TOROIDAL_SURFACE('',#747,4.25000000000337,1.);
#21=TOROIDAL_SURFACE('',#748,4.25000000000337,1.);
#22=ELLIPSE('',#711,2.59603175144827,1.00000000000001);
#23=ELLIPSE('',#712,2.59603175144827,1.00000000000001);
#24=ELLIPSE('',#713,2.59603175144827,1.00000000000001);
#25=ELLIPSE('',#714,2.59603175144827,1.00000000000001);
#26=B_SPLINE_SURFACE_WITH_KNOTS('',3,1,((#1007,#1008),(#1009,#1010),(#1011,
#1012),(#1013,#1014),(#1015,#1016)),.SURF_OF_LINEAR_EXTRUSION.,.F.,.F.,
 .F.,(4,1,4),(2,2),(0.124078401631141,1.10751212077943,2.09094583992772),
(0.,1.),.UNSPECIFIED.);
#27=CIRCLE('',#702,3.25000000000337);
#28=CIRCLE('',#703,3.25000000000337);
#29=CIRCLE('',#705,3.25000000000337);
#30=CIRCLE('',#706,3.25000000000337);
#31=CIRCLE('',#708,3.25000000000337);
#32=CIRCLE('',#710,3.25000000000337);
#33=CIRCLE('',#720,0.25);
#34=CIRCLE('',#722,0.25);
#35=CIRCLE('',#724,4.25000000000337);
#36=CIRCLE('',#725,0.25);
#37=CIRCLE('',#727,4.25000000000337);
#38=CIRCLE('',#728,0.25);
#39=CIRCLE('',#731,1.);
#40=CIRCLE('',#732,1.);
#41=CIRCLE('',#734,3.25000000000337);
#42=CIRCLE('',#736,3.25000000000337);
#43=CIRCLE('',#746,1.);
#44=CIRCLE('',#749,1.);
#45=B_SPLINE_CURVE_WITH_KNOTS('',3,(#952,#953,#954,#955),.UNSPECIFIED.,
 .F.,.F.,(4,4),(0.0150022831871003,0.0300022831871003),.UNSPECIFIED.);
#46=B_SPLINE_CURVE_WITH_KNOTS('',3,(#967,#968,#969,#970),.UNSPECIFIED.,
 .F.,.F.,(4,4),(0.0151989663823314,0.0301989663823314),.UNSPECIFIED.);
#47=B_SPLINE_CURVE_WITH_KNOTS('',3,(#1106,#1107,#1108,#1109,#1110,#1111,
#1112,#1113),.UNSPECIFIED.,.F.,.F.,(4,1,1,1,1,4),(0.,0.000302791878715702,
0.000605583757431403,0.00121116751486281,0.00181675127229421,0.00242233502972561),
 .UNSPECIFIED.);
#48=B_SPLINE_CURVE_WITH_KNOTS('',3,(#1115,#1116,#1117,#1118,#1119,#1120,
#1121,#1122),.UNSPECIFIED.,.F.,.F.,(4,1,1,1,1,4),(0.,0.000596442231443425,
0.00119288446288685,0.00178932669433027,0.00208754781005199,0.0023857689257737),
 .UNSPECIFIED.);
#49=CYLINDRICAL_SURFACE('',#701,3.25000000000337);
#50=CYLINDRICAL_SURFACE('',#704,3.25000000000337);
#51=CYLINDRICAL_SURFACE('',#733,3.25000000000337);
#52=CYLINDRICAL_SURFACE('',#735,3.25000000000337);
#53=CYLINDRICAL_SURFACE('',#737,0.25);
#54=CYLINDRICAL_SURFACE('',#738,0.25);
#55=CYLINDRICAL_SURFACE('',#745,1.);
#56=CYLINDRICAL_SURFACE('',#750,1.);
#57=ORIENTED_EDGE('',*,*,#251,.F.);
#58=ORIENTED_EDGE('',*,*,#252,.T.);
#59=ORIENTED_EDGE('',*,*,#253,.T.);
#60=ORIENTED_EDGE('',*,*,#254,.F.);
#61=ORIENTED_EDGE('',*,*,#255,.F.);
#62=ORIENTED_EDGE('',*,*,#256,.F.);
#63=ORIENTED_EDGE('',*,*,#257,.F.);
#64=ORIENTED_EDGE('',*,*,#258,.T.);
#65=ORIENTED_EDGE('',*,*,#259,.F.);
#66=ORIENTED_EDGE('',*,*,#260,.T.);
#67=ORIENTED_EDGE('',*,*,#261,.T.);
#68=ORIENTED_EDGE('',*,*,#262,.T.);
#69=ORIENTED_EDGE('',*,*,#261,.F.);
#70=ORIENTED_EDGE('',*,*,#263,.F.);
#71=ORIENTED_EDGE('',*,*,#264,.F.);
#72=ORIENTED_EDGE('',*,*,#258,.F.);
#73=ORIENTED_EDGE('',*,*,#265,.F.);
#74=ORIENTED_EDGE('',*,*,#266,.F.);
#75=ORIENTED_EDGE('',*,*,#267,.F.);
#76=ORIENTED_EDGE('',*,*,#268,.F.);
#77=ORIENTED_EDGE('',*,*,#253,.F.);
#78=ORIENTED_EDGE('',*,*,#269,.T.);
#79=ORIENTED_EDGE('',*,*,#270,.F.);
#80=ORIENTED_EDGE('',*,*,#271,.F.);
#81=ORIENTED_EDGE('',*,*,#272,.T.);
#82=ORIENTED_EDGE('',*,*,#273,.F.);
#83=ORIENTED_EDGE('',*,*,#251,.T.);
#84=ORIENTED_EDGE('',*,*,#274,.T.);
#85=ORIENTED_EDGE('',*,*,#256,.T.);
#86=ORIENTED_EDGE('',*,*,#275,.F.);
#87=ORIENTED_EDGE('',*,*,#276,.T.);
#88=ORIENTED_EDGE('',*,*,#259,.T.);
#89=ORIENTED_EDGE('',*,*,#277,.T.);
#90=ORIENTED_EDGE('',*,*,#278,.T.);
#91=ORIENTED_EDGE('',*,*,#279,.T.);
#92=ORIENTED_EDGE('',*,*,#280,.T.);
#93=ORIENTED_EDGE('',*,*,#281,.F.);
#94=ORIENTED_EDGE('',*,*,#282,.T.);
#95=ORIENTED_EDGE('',*,*,#283,.T.);
#96=ORIENTED_EDGE('',*,*,#284,.T.);
#97=ORIENTED_EDGE('',*,*,#285,.T.);
#98=ORIENTED_EDGE('',*,*,#286,.T.);
#99=ORIENTED_EDGE('',*,*,#287,.F.);
#100=ORIENTED_EDGE('',*,*,#288,.T.);
#101=ORIENTED_EDGE('',*,*,#289,.F.);
#102=ORIENTED_EDGE('',*,*,#288,.F.);
#103=ORIENTED_EDGE('',*,*,#290,.F.);
#104=ORIENTED_EDGE('',*,*,#291,.T.);
#105=ORIENTED_EDGE('',*,*,#292,.F.);
#106=ORIENTED_EDGE('',*,*,#293,.T.);
#107=ORIENTED_EDGE('',*,*,#294,.F.);
#108=ORIENTED_EDGE('',*,*,#295,.T.);
#109=ORIENTED_EDGE('',*,*,#284,.F.);
#110=ORIENTED_EDGE('',*,*,#296,.T.);
#111=ORIENTED_EDGE('',*,*,#297,.T.);
#112=ORIENTED_EDGE('',*,*,#298,.T.);
#113=ORIENTED_EDGE('',*,*,#299,.T.);
#114=ORIENTED_EDGE('',*,*,#300,.T.);
#115=ORIENTED_EDGE('',*,*,#301,.T.);
#116=ORIENTED_EDGE('',*,*,#302,.T.);
#117=ORIENTED_EDGE('',*,*,#292,.T.);
#118=ORIENTED_EDGE('',*,*,#303,.T.);
#119=ORIENTED_EDGE('',*,*,#290,.T.);
#120=ORIENTED_EDGE('',*,*,#287,.T.);
#121=ORIENTED_EDGE('',*,*,#304,.F.);
#122=ORIENTED_EDGE('',*,*,#305,.F.);
#123=ORIENTED_EDGE('',*,*,#306,.F.);
#124=ORIENTED_EDGE('',*,*,#298,.F.);
#125=ORIENTED_EDGE('',*,*,#307,.T.);
#126=ORIENTED_EDGE('',*,*,#301,.F.);
#127=ORIENTED_EDGE('',*,*,#308,.F.);
#128=ORIENTED_EDGE('',*,*,#309,.F.);
#129=ORIENTED_EDGE('',*,*,#310,.T.);
#130=ORIENTED_EDGE('',*,*,#285,.F.);
#131=ORIENTED_EDGE('',*,*,#311,.T.);
#132=ORIENTED_EDGE('',*,*,#312,.T.);
#133=ORIENTED_EDGE('',*,*,#313,.T.);
#134=ORIENTED_EDGE('',*,*,#314,.F.);
#135=ORIENTED_EDGE('',*,*,#281,.T.);
#136=ORIENTED_EDGE('',*,*,#289,.T.);
#137=ORIENTED_EDGE('',*,*,#315,.T.);
#138=ORIENTED_EDGE('',*,*,#294,.T.);
#139=ORIENTED_EDGE('',*,*,#316,.T.);
#140=ORIENTED_EDGE('',*,*,#317,.T.);
#141=ORIENTED_EDGE('',*,*,#318,.T.);
#142=ORIENTED_EDGE('',*,*,#319,.T.);
#143=ORIENTED_EDGE('',*,*,#320,.F.);
#144=ORIENTED_EDGE('',*,*,#321,.T.);
#145=ORIENTED_EDGE('',*,*,#299,.F.);
#146=ORIENTED_EDGE('',*,*,#322,.T.);
#147=ORIENTED_EDGE('',*,*,#296,.F.);
#148=ORIENTED_EDGE('',*,*,#283,.F.);
#149=ORIENTED_EDGE('',*,*,#323,.T.);
#150=ORIENTED_EDGE('',*,*,#324,.F.);
#151=ORIENTED_EDGE('',*,*,#280,.F.);
#152=ORIENTED_EDGE('',*,*,#325,.F.);
#153=ORIENTED_EDGE('',*,*,#326,.T.);
#154=ORIENTED_EDGE('',*,*,#324,.T.);
#155=ORIENTED_EDGE('',*,*,#327,.F.);
#156=ORIENTED_EDGE('',*,*,#313,.F.);
#157=ORIENTED_EDGE('',*,*,#328,.T.);
#158=ORIENTED_EDGE('',*,*,#329,.F.);
#159=ORIENTED_EDGE('',*,*,#265,.T.);
#160=ORIENTED_EDGE('',*,*,#257,.T.);
#161=ORIENTED_EDGE('',*,*,#277,.F.);
#162=ORIENTED_EDGE('',*,*,#262,.F.);
#163=ORIENTED_EDGE('',*,*,#268,.T.);
#164=ORIENTED_EDGE('',*,*,#330,.T.);
#165=ORIENTED_EDGE('',*,*,#331,.T.);
#166=ORIENTED_EDGE('',*,*,#317,.F.);
#167=ORIENTED_EDGE('',*,*,#332,.F.);
#168=ORIENTED_EDGE('',*,*,#305,.T.);
#169=ORIENTED_EDGE('',*,*,#333,.T.);
#170=ORIENTED_EDGE('',*,*,#309,.T.);
#171=ORIENTED_EDGE('',*,*,#334,.T.);
#172=ORIENTED_EDGE('',*,*,#320,.T.);
#173=ORIENTED_EDGE('',*,*,#335,.T.);
#174=ORIENTED_EDGE('',*,*,#336,.F.);
#175=ORIENTED_EDGE('',*,*,#329,.T.);
#176=ORIENTED_EDGE('',*,*,#337,.T.);
#177=ORIENTED_EDGE('',*,*,#338,.F.);
#178=ORIENTED_EDGE('',*,*,#266,.T.);
#179=ORIENTED_EDGE('',*,*,#339,.T.);
#180=ORIENTED_EDGE('',*,*,#340,.T.);
#181=ORIENTED_EDGE('',*,*,#325,.T.);
#182=ORIENTED_EDGE('',*,*,#279,.F.);
#183=ORIENTED_EDGE('',*,*,#322,.F.);
#184=ORIENTED_EDGE('',*,*,#302,.F.);
#185=ORIENTED_EDGE('',*,*,#307,.F.);
#186=ORIENTED_EDGE('',*,*,#297,.F.);
#187=ORIENTED_EDGE('',*,*,#303,.F.);
#188=ORIENTED_EDGE('',*,*,#295,.F.);
#189=ORIENTED_EDGE('',*,*,#315,.F.);
#190=ORIENTED_EDGE('',*,*,#291,.F.);
#191=ORIENTED_EDGE('',*,*,#282,.F.);
#192=ORIENTED_EDGE('',*,*,#314,.T.);
#193=ORIENTED_EDGE('',*,*,#327,.T.);
#194=ORIENTED_EDGE('',*,*,#323,.F.);
#195=ORIENTED_EDGE('',*,*,#286,.F.);
#196=ORIENTED_EDGE('',*,*,#310,.F.);
#197=ORIENTED_EDGE('',*,*,#333,.F.);
#198=ORIENTED_EDGE('',*,*,#304,.T.);
#199=ORIENTED_EDGE('',*,*,#321,.F.);
#200=ORIENTED_EDGE('',*,*,#334,.F.);
#201=ORIENTED_EDGE('',*,*,#308,.T.);
#202=ORIENTED_EDGE('',*,*,#300,.F.);
#203=ORIENTED_EDGE('',*,*,#316,.F.);
#204=ORIENTED_EDGE('',*,*,#293,.F.);
#205=ORIENTED_EDGE('',*,*,#306,.T.);
#206=ORIENTED_EDGE('',*,*,#332,.T.);
#207=ORIENTED_EDGE('',*,*,#338,.T.);
#208=ORIENTED_EDGE('',*,*,#341,.T.);
#209=ORIENTED_EDGE('',*,*,#330,.F.);
#210=ORIENTED_EDGE('',*,*,#267,.T.);
#211=ORIENTED_EDGE('',*,*,#336,.T.);
#212=ORIENTED_EDGE('',*,*,#342,.T.);
#213=ORIENTED_EDGE('',*,*,#339,.F.);
#214=ORIENTED_EDGE('',*,*,#278,.F.);
#215=ORIENTED_EDGE('',*,*,#331,.F.);
#216=ORIENTED_EDGE('',*,*,#341,.F.);
#217=ORIENTED_EDGE('',*,*,#343,.F.);
#218=ORIENTED_EDGE('',*,*,#311,.F.);
#219=ORIENTED_EDGE('',*,*,#343,.T.);
#220=ORIENTED_EDGE('',*,*,#337,.F.);
#221=ORIENTED_EDGE('',*,*,#328,.F.);
#222=ORIENTED_EDGE('',*,*,#312,.F.);
#223=ORIENTED_EDGE('',*,*,#326,.F.);
#224=ORIENTED_EDGE('',*,*,#340,.F.);
#225=ORIENTED_EDGE('',*,*,#344,.F.);
#226=ORIENTED_EDGE('',*,*,#318,.F.);
#227=ORIENTED_EDGE('',*,*,#335,.F.);
#228=ORIENTED_EDGE('',*,*,#319,.F.);
#229=ORIENTED_EDGE('',*,*,#344,.T.);
#230=ORIENTED_EDGE('',*,*,#342,.F.);
#231=ORIENTED_EDGE('',*,*,#345,.F.);
#232=ORIENTED_EDGE('',*,*,#272,.F.);
#233=ORIENTED_EDGE('',*,*,#346,.F.);
#234=ORIENTED_EDGE('',*,*,#270,.T.);
#235=ORIENTED_EDGE('',*,*,#271,.T.);
#236=ORIENTED_EDGE('',*,*,#346,.T.);
#237=ORIENTED_EDGE('',*,*,#274,.F.);
#238=ORIENTED_EDGE('',*,*,#254,.T.);
#239=ORIENTED_EDGE('',*,*,#263,.T.);
#240=ORIENTED_EDGE('',*,*,#260,.F.);
#241=ORIENTED_EDGE('',*,*,#276,.F.);
#242=ORIENTED_EDGE('',*,*,#347,.F.);
#243=ORIENTED_EDGE('',*,*,#252,.F.);
#244=ORIENTED_EDGE('',*,*,#273,.T.);
#245=ORIENTED_EDGE('',*,*,#345,.T.);
#246=ORIENTED_EDGE('',*,*,#269,.F.);
#247=ORIENTED_EDGE('',*,*,#275,.T.);
#248=ORIENTED_EDGE('',*,*,#255,.T.);
#249=ORIENTED_EDGE('',*,*,#264,.T.);
#250=ORIENTED_EDGE('',*,*,#347,.T.);
#251=EDGE_CURVE('',#348,#349,#412,.T.);
#252=EDGE_CURVE('',#348,#350,#413,.T.);
#253=EDGE_CURVE('',#350,#351,#414,.T.);
#254=EDGE_CURVE('',#349,#351,#415,.T.);
#255=EDGE_CURVE('',#352,#353,#45,.T.);
#256=EDGE_CURVE('',#354,#352,#27,.T.);
#257=EDGE_CURVE('',#355,#354,#416,.T.);
#258=EDGE_CURVE('',#355,#353,#28,.T.);
#259=EDGE_CURVE('',#356,#357,#29,.T.);
#260=EDGE_CURVE('',#356,#358,#46,.T.);
#261=EDGE_CURVE('',#358,#359,#30,.T.);
#262=EDGE_CURVE('',#359,#357,#417,.T.);
#263=EDGE_CURVE('',#360,#358,#418,.T.);
#264=EDGE_CURVE('',#353,#360,#419,.T.);
#265=EDGE_CURVE('',#361,#355,#420,.T.);
#266=EDGE_CURVE('',#362,#361,#31,.T.);
#267=EDGE_CURVE('',#363,#362,#421,.T.);
#268=EDGE_CURVE('',#359,#363,#422,.T.);
#269=EDGE_CURVE('',#350,#364,#423,.T.);
#270=EDGE_CURVE('',#365,#364,#424,.T.);
#271=EDGE_CURVE('',#351,#365,#425,.T.);
#272=EDGE_CURVE('',#366,#367,#426,.T.);
#273=EDGE_CURVE('',#348,#367,#427,.T.);
#274=EDGE_CURVE('',#349,#366,#428,.T.);
#275=EDGE_CURVE('',#368,#352,#429,.T.);
#276=EDGE_CURVE('',#368,#356,#430,.T.);
#277=EDGE_CURVE('',#357,#369,#431,.T.);
#278=EDGE_CURVE('',#369,#370,#432,.T.);
#279=EDGE_CURVE('',#370,#371,#32,.T.);
#280=EDGE_CURVE('',#371,#354,#433,.T.);
#281=EDGE_CURVE('',#372,#373,#22,.F.);
#282=EDGE_CURVE('',#372,#374,#434,.T.);
#283=EDGE_CURVE('',#374,#375,#23,.F.);
#284=EDGE_CURVE('',#375,#376,#435,.T.);
#285=EDGE_CURVE('',#376,#377,#24,.T.);
#286=EDGE_CURVE('',#377,#378,#436,.F.);
#287=EDGE_CURVE('',#379,#378,#25,.T.);
#288=EDGE_CURVE('',#379,#373,#437,.T.);
#289=EDGE_CURVE('',#373,#380,#438,.T.);
#290=EDGE_CURVE('',#381,#379,#439,.T.);
#291=EDGE_CURVE('',#381,#380,#440,.T.);
#292=EDGE_CURVE('',#382,#383,#441,.T.);
#293=EDGE_CURVE('',#382,#384,#442,.T.);
#294=EDGE_CURVE('',#385,#384,#443,.T.);
#295=EDGE_CURVE('',#385,#383,#444,.F.);
#296=EDGE_CURVE('',#375,#386,#445,.T.);
#297=EDGE_CURVE('',#386,#387,#446,.T.);
#298=EDGE_CURVE('',#387,#376,#447,.T.);
#299=EDGE_CURVE('',#388,#389,#448,.T.);
#300=EDGE_CURVE('',#389,#390,#449,.T.);
#301=EDGE_CURVE('',#390,#391,#450,.T.);
#302=EDGE_CURVE('',#391,#388,#451,.F.);
#303=EDGE_CURVE('',#383,#381,#33,.T.);
#304=EDGE_CURVE('',#392,#378,#452,.T.);
#305=EDGE_CURVE('',#393,#392,#453,.T.);
#306=EDGE_CURVE('',#382,#393,#454,.T.);
#307=EDGE_CURVE('',#387,#391,#34,.F.);
#308=EDGE_CURVE('',#394,#390,#455,.T.);
#309=EDGE_CURVE('',#395,#394,#456,.T.);
#310=EDGE_CURVE('',#395,#377,#457,.F.);
#311=EDGE_CURVE('',#396,#397,#458,.T.);
#312=EDGE_CURVE('',#397,#398,#35,.T.);
#313=EDGE_CURVE('',#398,#399,#459,.T.);
#314=EDGE_CURVE('',#372,#399,#460,.T.);
#315=EDGE_CURVE('',#380,#385,#36,.T.);
#316=EDGE_CURVE('',#384,#400,#461,.T.);
#317=EDGE_CURVE('',#400,#396,#462,.T.);
#318=EDGE_CURVE('',#401,#402,#37,.F.);
#319=EDGE_CURVE('',#402,#403,#463,.F.);
#320=EDGE_CURVE('',#404,#403,#464,.T.);
#321=EDGE_CURVE('',#404,#389,#465,.T.);
#322=EDGE_CURVE('',#388,#386,#38,.F.);
#323=EDGE_CURVE('',#374,#405,#466,.T.);
#324=EDGE_CURVE('',#401,#405,#467,.T.);
#325=EDGE_CURVE('',#406,#371,#468,.T.);
#326=EDGE_CURVE('',#406,#401,#47,.T.);
#327=EDGE_CURVE('',#399,#405,#469,.T.);
#328=EDGE_CURVE('',#398,#407,#48,.T.);
#329=EDGE_CURVE('',#361,#407,#470,.T.);
#330=EDGE_CURVE('',#363,#408,#471,.T.);
#331=EDGE_CURVE('',#408,#396,#39,.T.);
#332=EDGE_CURVE('',#393,#400,#472,.T.);
#333=EDGE_CURVE('',#392,#395,#473,.T.);
#334=EDGE_CURVE('',#394,#404,#474,.T.);
#335=EDGE_CURVE('',#403,#409,#40,.T.);
#336=EDGE_CURVE('',#369,#409,#475,.T.);
#337=EDGE_CURVE('',#407,#410,#41,.F.);
#338=EDGE_CURVE('',#362,#410,#476,.T.);
#339=EDGE_CURVE('',#370,#411,#477,.T.);
#340=EDGE_CURVE('',#411,#406,#42,.T.);
#341=EDGE_CURVE('',#410,#408,#478,.F.);
#342=EDGE_CURVE('',#409,#411,#479,.T.);
#343=EDGE_CURVE('',#397,#410,#43,.T.);
#344=EDGE_CURVE('',#402,#411,#44,.T.);
#345=EDGE_CURVE('',#367,#364,#480,.T.);
#346=EDGE_CURVE('',#365,#366,#481,.T.);
#347=EDGE_CURVE('',#360,#368,#482,.T.);
#348=VERTEX_POINT('',#944);
#349=VERTEX_POINT('',#945);
#350=VERTEX_POINT('',#947);
#351=VERTEX_POINT('',#949);
#352=VERTEX_POINT('',#956);
#353=VERTEX_POINT('',#957);
#354=VERTEX_POINT('',#959);
#355=VERTEX_POINT('',#961);
#356=VERTEX_POINT('',#965);
#357=VERTEX_POINT('',#966);
#358=VERTEX_POINT('',#971);
#359=VERTEX_POINT('',#973);
#360=VERTEX_POINT('',#977);
#361=VERTEX_POINT('',#980);
#362=VERTEX_POINT('',#982);
#363=VERTEX_POINT('',#984);
#364=VERTEX_POINT('',#987);
#365=VERTEX_POINT('',#989);
#366=VERTEX_POINT('',#993);
#367=VERTEX_POINT('',#994);
#368=VERTEX_POINT('',#998);
#369=VERTEX_POINT('',#1001);
#370=VERTEX_POINT('',#1003);
#371=VERTEX_POINT('',#1005);
#372=VERTEX_POINT('',#1018);
#373=VERTEX_POINT('',#1019);
#374=VERTEX_POINT('',#1021);
#375=VERTEX_POINT('',#1023);
#376=VERTEX_POINT('',#1025);
#377=VERTEX_POINT('',#1027);
#378=VERTEX_POINT('',#1029);
#379=VERTEX_POINT('',#1031);
#380=VERTEX_POINT('',#1035);
#381=VERTEX_POINT('',#1037);
#382=VERTEX_POINT('',#1041);
#383=VERTEX_POINT('',#1042);
#384=VERTEX_POINT('',#1044);
#385=VERTEX_POINT('',#1046);
#386=VERTEX_POINT('',#1050);
#387=VERTEX_POINT('',#1052);
#388=VERTEX_POINT('',#1056);
#389=VERTEX_POINT('',#1057);
#390=VERTEX_POINT('',#1059);
#391=VERTEX_POINT('',#1061);
#392=VERTEX_POINT('',#1066);
#393=VERTEX_POINT('',#1068);
#394=VERTEX_POINT('',#1073);
#395=VERTEX_POINT('',#1075);
#396=VERTEX_POINT('',#1079);
#397=VERTEX_POINT('',#1080);
#398=VERTEX_POINT('',#1082);
#399=VERTEX_POINT('',#1084);
#400=VERTEX_POINT('',#1088);
#401=VERTEX_POINT('',#1092);
#402=VERTEX_POINT('',#1093);
#403=VERTEX_POINT('',#1095);
#404=VERTEX_POINT('',#1097);
#405=VERTEX_POINT('',#1101);
#406=VERTEX_POINT('',#1105);
#407=VERTEX_POINT('',#1123);
#408=VERTEX_POINT('',#1127);
#409=VERTEX_POINT('',#1133);
#410=VERTEX_POINT('',#1137);
#411=VERTEX_POINT('',#1141);
#412=LINE('',#943,#483);
#413=LINE('',#946,#484);
#414=LINE('',#948,#485);
#415=LINE('',#950,#486);
#416=LINE('',#960,#487);
#417=LINE('',#974,#488);
#418=LINE('',#976,#489);
#419=LINE('',#978,#490);
#420=LINE('',#979,#491);
#421=LINE('',#983,#492);
#422=LINE('',#985,#493);
#423=LINE('',#986,#494);
#424=LINE('',#988,#495);
#425=LINE('',#990,#496);
#426=LINE('',#992,#497);
#427=LINE('',#995,#498);
#428=LINE('',#996,#499);
#429=LINE('',#997,#500);
#430=LINE('',#999,#501);
#431=LINE('',#1000,#502);
#432=LINE('',#1002,#503);
#433=LINE('',#1006,#504);
#434=LINE('',#1020,#505);
#435=LINE('',#1024,#506);
#436=LINE('',#1028,#507);
#437=LINE('',#1032,#508);
#438=LINE('',#1034,#509);
#439=LINE('',#1036,#510);
#440=LINE('',#1038,#511);
#441=LINE('',#1040,#512);
#442=LINE('',#1043,#513);
#443=LINE('',#1045,#514);
#444=LINE('',#1047,#515);
#445=LINE('',#1049,#516);
#446=LINE('',#1051,#517);
#447=LINE('',#1053,#518);
#448=LINE('',#1055,#519);
#449=LINE('',#1058,#520);
#450=LINE('',#1060,#521);
#451=LINE('',#1062,#522);
#452=LINE('',#1065,#523);
#453=LINE('',#1067,#524);
#454=LINE('',#1069,#525);
#455=LINE('',#1072,#526);
#456=LINE('',#1074,#527);
#457=LINE('',#1076,#528);
#458=LINE('',#1078,#529);
#459=LINE('',#1083,#530);
#460=LINE('',#1085,#531);
#461=LINE('',#1087,#532);
#462=LINE('',#1089,#533);
#463=LINE('',#1094,#534);
#464=LINE('',#1096,#535);
#465=LINE('',#1098,#536);
#466=LINE('',#1100,#537);
#467=LINE('',#1102,#538);
#468=LINE('',#1104,#539);
#469=LINE('',#1114,#540);
#470=LINE('',#1124,#541);
#471=LINE('',#1126,#542);
#472=LINE('',#1129,#543);
#473=LINE('',#1130,#544);
#474=LINE('',#1131,#545);
#475=LINE('',#1134,#546);
#476=LINE('',#1138,#547);
#477=LINE('',#1140,#548);
#478=LINE('',#1150,#549);
#479=LINE('',#1152,#550);
#480=LINE('',#1160,#551);
#481=LINE('',#1161,#552);
#482=LINE('',#1164,#553);
#483=VECTOR('',#760,1000.);
#484=VECTOR('',#761,1000.);
#485=VECTOR('',#762,1000.);
#486=VECTOR('',#763,1000.);
#487=VECTOR('',#768,1000.);
#488=VECTOR('',#777,1000.);
#489=VECTOR('',#780,1000.);
#490=VECTOR('',#781,1000.);
#491=VECTOR('',#782,1000.);
#492=VECTOR('',#785,1000.);
#493=VECTOR('',#786,1000.);
#494=VECTOR('',#787,1000.);
#495=VECTOR('',#788,1000.);
#496=VECTOR('',#789,1000.);
#497=VECTOR('',#792,1000.);
#498=VECTOR('',#793,1000.);
#499=VECTOR('',#794,1000.);
#500=VECTOR('',#795,1000.);
#501=VECTOR('',#796,1000.);
#502=VECTOR('',#797,1000.);
#503=VECTOR('',#798,1000.);
#504=VECTOR('',#801,1000.);
#505=VECTOR('',#804,1000.);
#506=VECTOR('',#807,1000.);
#507=VECTOR('',#810,1000.);
#508=VECTOR('',#813,1000.);
#509=VECTOR('',#816,1000.);
#510=VECTOR('',#817,1000.);
#511=VECTOR('',#818,1000.);
#512=VECTOR('',#821,1000.);
#513=VECTOR('',#822,1000.);
#514=VECTOR('',#823,1000.);
#515=VECTOR('',#824,1000.);
#516=VECTOR('',#827,1000.);
#517=VECTOR('',#828,1000.);
#518=VECTOR('',#829,1000.);
#519=VECTOR('',#832,1000.);
#520=VECTOR('',#833,1000.);
#521=VECTOR('',#834,1000.);
#522=VECTOR('',#835,1000.);
#523=VECTOR('',#840,1000.);
#524=VECTOR('',#841,1000.);
#525=VECTOR('',#842,1000.);
#526=VECTOR('',#847,1000.);
#527=VECTOR('',#848,1000.);
#528=VECTOR('',#849,1000.);
#529=VECTOR('',#852,1000.);
#530=VECTOR('',#855,1000.);
#531=VECTOR('',#856,1000.);
#532=VECTOR('',#859,1000.);
#533=VECTOR('',#860,1000.);
#534=VECTOR('',#865,1000.);
#535=VECTOR('',#866,1000.);
#536=VECTOR('',#867,1000.);
#537=VECTOR('',#870,1000.);
#538=VECTOR('',#871,1000.);
#539=VECTOR('',#874,1000.);
#540=VECTOR('',#875,1000.);
#541=VECTOR('',#876,1000.);
#542=VECTOR('',#879,1000.);
#543=VECTOR('',#882,1000.);
#544=VECTOR('',#883,1000.);
#545=VECTOR('',#884,1000.);
#546=VECTOR('',#887,1000.);
#547=VECTOR('',#892,1000.);
#548=VECTOR('',#895,1000.);
#549=VECTOR('',#912,1000.);
#550=VECTOR('',#915,1000.);
#551=VECTOR('',#930,1000.);
#552=VECTOR('',#931,1000.);
#553=VECTOR('',#936,1000.);
#554=EDGE_LOOP('',(#57,#58,#59,#60));
#555=EDGE_LOOP('',(#61,#62,#63,#64));
#556=EDGE_LOOP('',(#65,#66,#67,#68));
#557=EDGE_LOOP('',(#69,#70,#71,#72,#73,#74,#75,#76));
#558=EDGE_LOOP('',(#77,#78,#79,#80));
#559=EDGE_LOOP('',(#81,#82,#83,#84));
#560=EDGE_LOOP('',(#85,#86,#87,#88,#89,#90,#91,#92));
#561=EDGE_LOOP('',(#93,#94,#95,#96,#97,#98,#99,#100));
#562=EDGE_LOOP('',(#101,#102,#103,#104));
#563=EDGE_LOOP('',(#105,#106,#107,#108));
#564=EDGE_LOOP('',(#109,#110,#111,#112));
#565=EDGE_LOOP('',(#113,#114,#115,#116));
#566=EDGE_LOOP('',(#117,#118,#119,#120,#121,#122,#123));
#567=EDGE_LOOP('',(#124,#125,#126,#127,#128,#129,#130));
#568=EDGE_LOOP('',(#131,#132,#133,#134,#135,#136,#137,#138,#139,#140));
#569=EDGE_LOOP('',(#141,#142,#143,#144,#145,#146,#147,#148,#149,#150));
#570=EDGE_LOOP('',(#151,#152,#153,#154,#155,#156,#157,#158,#159,#160));
#571=EDGE_LOOP('',(#161,#162,#163,#164,#165,#166,#167,#168,#169,#170,#171,
#172,#173,#174));
#572=EDGE_LOOP('',(#175,#176,#177,#178));
#573=EDGE_LOOP('',(#179,#180,#181,#182));
#574=EDGE_LOOP('',(#183,#184,#185,#186));
#575=EDGE_LOOP('',(#187,#188,#189,#190));
#576=EDGE_LOOP('',(#191,#192,#193,#194));
#577=EDGE_LOOP('',(#195,#196,#197,#198));
#578=EDGE_LOOP('',(#199,#200,#201,#202));
#579=EDGE_LOOP('',(#203,#204,#205,#206));
#580=EDGE_LOOP('',(#207,#208,#209,#210));
#581=EDGE_LOOP('',(#211,#212,#213,#214));
#582=EDGE_LOOP('',(#215,#216,#217,#218));
#583=EDGE_LOOP('',(#219,#220,#221,#222));
#584=EDGE_LOOP('',(#223,#224,#225,#226));
#585=EDGE_LOOP('',(#227,#228,#229,#230));
#586=EDGE_LOOP('',(#231,#232,#233,#234));
#587=EDGE_LOOP('',(#235,#236,#237,#238));
#588=EDGE_LOOP('',(#239,#240,#241,#242));
#589=EDGE_LOOP('',(#243,#244,#245,#246));
#590=EDGE_LOOP('',(#247,#248,#249,#250));
#591=FACE_BOUND('',#554,.T.);
#592=FACE_BOUND('',#555,.T.);
#593=FACE_BOUND('',#556,.T.);
#594=FACE_BOUND('',#557,.T.);
#595=FACE_BOUND('',#558,.T.);
#596=FACE_BOUND('',#559,.T.);
#597=FACE_BOUND('',#560,.T.);
#598=FACE_BOUND('',#561,.T.);
#599=FACE_BOUND('',#562,.T.);
#600=FACE_BOUND('',#563,.T.);
#601=FACE_BOUND('',#564,.T.);
#602=FACE_BOUND('',#565,.T.);
#603=FACE_BOUND('',#566,.T.);
#604=FACE_BOUND('',#567,.T.);
#605=FACE_BOUND('',#568,.T.);
#606=FACE_BOUND('',#569,.T.);
#607=FACE_BOUND('',#570,.T.);
#608=FACE_BOUND('',#571,.T.);
#609=FACE_BOUND('',#572,.T.);
#610=FACE_BOUND('',#573,.T.);
#611=FACE_BOUND('',#574,.T.);
#612=FACE_BOUND('',#575,.T.);
#613=FACE_BOUND('',#576,.T.);
#614=FACE_BOUND('',#577,.T.);
#615=FACE_BOUND('',#578,.T.);
#616=FACE_BOUND('',#579,.T.);
#617=FACE_BOUND('',#580,.T.);
#618=FACE_BOUND('',#581,.T.);
#619=FACE_BOUND('',#582,.T.);
#620=FACE_BOUND('',#583,.T.);
#621=FACE_BOUND('',#584,.T.);
#622=FACE_BOUND('',#585,.T.);
#623=FACE_BOUND('',#586,.T.);
#624=FACE_BOUND('',#587,.T.);
#625=FACE_BOUND('',#588,.T.);
#626=FACE_BOUND('',#589,.T.);
#627=FACE_BOUND('',#590,.T.);
#628=PLANE('',#700);
#629=PLANE('',#707);
#630=PLANE('',#709);
#631=PLANE('',#715);
#632=PLANE('',#716);
#633=PLANE('',#717);
#634=PLANE('',#718);
#635=PLANE('',#719);
#636=PLANE('',#721);
#637=PLANE('',#723);
#638=PLANE('',#726);
#639=PLANE('',#729);
#640=PLANE('',#730);
#641=PLANE('',#739);
#642=PLANE('',#740);
#643=PLANE('',#741);
#644=PLANE('',#742);
#645=PLANE('',#743);
#646=PLANE('',#744);
#647=PLANE('',#751);
#648=PLANE('',#752);
#649=PLANE('',#753);
#650=PLANE('',#754);
#651=PLANE('',#755);
#652=ADVANCED_FACE('',(#591),#628,.T.);
#653=ADVANCED_FACE('',(#592),#49,.T.);
#654=ADVANCED_FACE('',(#593),#50,.T.);
#655=ADVANCED_FACE('',(#594,#595),#629,.F.);
#656=ADVANCED_FACE('',(#596,#597),#630,.T.);
#657=ADVANCED_FACE('',(#598),#26,.F.);
#658=ADVANCED_FACE('',(#599),#631,.F.);
#659=ADVANCED_FACE('',(#600),#632,.F.);
#660=ADVANCED_FACE('',(#601),#633,.F.);
#661=ADVANCED_FACE('',(#602),#634,.F.);
#662=ADVANCED_FACE('',(#603),#635,.T.);
#663=ADVANCED_FACE('',(#604),#636,.F.);
#664=ADVANCED_FACE('',(#605),#637,.F.);
#665=ADVANCED_FACE('',(#606),#638,.T.);
#666=ADVANCED_FACE('',(#607),#639,.F.);
#667=ADVANCED_FACE('',(#608),#640,.F.);
#668=ADVANCED_FACE('',(#609),#51,.T.);
#669=ADVANCED_FACE('',(#610),#52,.T.);
#670=ADVANCED_FACE('',(#611),#53,.T.);
#671=ADVANCED_FACE('',(#612),#54,.T.);
#672=ADVANCED_FACE('',(#613),#641,.T.);
#673=ADVANCED_FACE('',(#614),#642,.T.);
#674=ADVANCED_FACE('',(#615),#643,.T.);
#675=ADVANCED_FACE('',(#616),#644,.T.);
#676=ADVANCED_FACE('',(#617),#645,.T.);
#677=ADVANCED_FACE('',(#618),#646,.F.);
#678=ADVANCED_FACE('',(#619),#55,.F.);
#679=ADVANCED_FACE('',(#620),#20,.F.);
#680=ADVANCED_FACE('',(#621),#21,.F.);
#681=ADVANCED_FACE('',(#622),#56,.F.);
#682=ADVANCED_FACE('',(#623),#647,.T.);
#683=ADVANCED_FACE('',(#624),#648,.T.);
#684=ADVANCED_FACE('',(#625),#649,.F.);
#685=ADVANCED_FACE('',(#626),#650,.F.);
#686=ADVANCED_FACE('',(#627),#651,.T.);
#687=CLOSED_SHELL('',(#652,#653,#654,#655,#656,#657,#658,#659,#660,#661,
#662,#663,#664,#665,#666,#667,#668,#669,#670,#671,#672,#673,#674,#675,#676,
#677,#678,#679,#680,#681,#682,#683,#684,#685,#686));
#688=STYLED_ITEM('',(#689),#696);
#689=PRESENTATION_STYLE_ASSIGNMENT((#690));
#690=SURFACE_STYLE_USAGE(.BOTH.,#691);
#691=SURFACE_SIDE_STYLE('',(#692));
#692=SURFACE_STYLE_FILL_AREA(#693);
#693=FILL_AREA_STYLE('',(#694));
#694=FILL_AREA_STYLE_COLOUR('',#695);
#695=COLOUR_RGB('',0.506983280181885,0.531564235687256,0.550000011920929);
#696=MANIFOLD_SOLID_BREP('',#687);
#697=SHAPE_DEFINITION_REPRESENTATION(#1173,#698);
#698=SHAPE_REPRESENTATION('ScrollSawSandingEnds_01_15mm',(#699),#1168);
#699=AXIS2_PLACEMENT_3D('',#941,#756,#757);
#700=AXIS2_PLACEMENT_3D('',#942,#758,#759);
#701=AXIS2_PLACEMENT_3D('',#951,#764,#765);
#702=AXIS2_PLACEMENT_3D('',#958,#766,#767);
#703=AXIS2_PLACEMENT_3D('',#962,#769,#770);
#704=AXIS2_PLACEMENT_3D('',#963,#771,#772);
#705=AXIS2_PLACEMENT_3D('',#964,#773,#774);
#706=AXIS2_PLACEMENT_3D('',#972,#775,#776);
#707=AXIS2_PLACEMENT_3D('',#975,#778,#779);
#708=AXIS2_PLACEMENT_3D('',#981,#783,#784);
#709=AXIS2_PLACEMENT_3D('',#991,#790,#791);
#710=AXIS2_PLACEMENT_3D('',#1004,#799,#800);
#711=AXIS2_PLACEMENT_3D('',#1017,#802,#803);
#712=AXIS2_PLACEMENT_3D('',#1022,#805,#806);
#713=AXIS2_PLACEMENT_3D('',#1026,#808,#809);
#714=AXIS2_PLACEMENT_3D('',#1030,#811,#812);
#715=AXIS2_PLACEMENT_3D('',#1033,#814,#815);
#716=AXIS2_PLACEMENT_3D('',#1039,#819,#820);
#717=AXIS2_PLACEMENT_3D('',#1048,#825,#826);
#718=AXIS2_PLACEMENT_3D('',#1054,#830,#831);
#719=AXIS2_PLACEMENT_3D('',#1063,#836,#837);
#720=AXIS2_PLACEMENT_3D('',#1064,#838,#839);
#721=AXIS2_PLACEMENT_3D('',#1070,#843,#844);
#722=AXIS2_PLACEMENT_3D('',#1071,#845,#846);
#723=AXIS2_PLACEMENT_3D('',#1077,#850,#851);
#724=AXIS2_PLACEMENT_3D('',#1081,#853,#854);
#725=AXIS2_PLACEMENT_3D('',#1086,#857,#858);
#726=AXIS2_PLACEMENT_3D('',#1090,#861,#862);
#727=AXIS2_PLACEMENT_3D('',#1091,#863,#864);
#728=AXIS2_PLACEMENT_3D('',#1099,#868,#869);
#729=AXIS2_PLACEMENT_3D('',#1103,#872,#873);
#730=AXIS2_PLACEMENT_3D('',#1125,#877,#878);
#731=AXIS2_PLACEMENT_3D('',#1128,#880,#881);
#732=AXIS2_PLACEMENT_3D('',#1132,#885,#886);
#733=AXIS2_PLACEMENT_3D('',#1135,#888,#889);
#734=AXIS2_PLACEMENT_3D('',#1136,#890,#891);
#735=AXIS2_PLACEMENT_3D('',#1139,#893,#894);
#736=AXIS2_PLACEMENT_3D('',#1142,#896,#897);
#737=AXIS2_PLACEMENT_3D('',#1143,#898,#899);
#738=AXIS2_PLACEMENT_3D('',#1144,#900,#901);
#739=AXIS2_PLACEMENT_3D('',#1145,#902,#903);
#740=AXIS2_PLACEMENT_3D('',#1146,#904,#905);
#741=AXIS2_PLACEMENT_3D('',#1147,#906,#907);
#742=AXIS2_PLACEMENT_3D('',#1148,#908,#909);
#743=AXIS2_PLACEMENT_3D('',#1149,#910,#911);
#744=AXIS2_PLACEMENT_3D('',#1151,#913,#914);
#745=AXIS2_PLACEMENT_3D('',#1153,#916,#917);
#746=AXIS2_PLACEMENT_3D('',#1154,#918,#919);
#747=AXIS2_PLACEMENT_3D('',#1155,#920,#921);
#748=AXIS2_PLACEMENT_3D('',#1156,#922,#923);
#749=AXIS2_PLACEMENT_3D('',#1157,#924,#925);
#750=AXIS2_PLACEMENT_3D('',#1158,#926,#927);
#751=AXIS2_PLACEMENT_3D('',#1159,#928,#929);
#752=AXIS2_PLACEMENT_3D('',#1162,#932,#933);
#753=AXIS2_PLACEMENT_3D('',#1163,#934,#935);
#754=AXIS2_PLACEMENT_3D('',#1165,#937,#938);
#755=AXIS2_PLACEMENT_3D('',#1166,#939,#940);
#756=DIRECTION('',(0.,0.,1.));
#757=DIRECTION('',(1.,0.,0.));
#758=DIRECTION('',(1.,1.21332014045457E-9,0.));
#759=DIRECTION('',(-1.21332014045457E-9,1.,0.));
#760=DIRECTION('',(0.,0.,1.));
#761=DIRECTION('',(-1.21332014045457E-9,1.,0.));
#762=DIRECTION('',(0.,0.,1.));
#763=DIRECTION('',(-1.21332014045457E-9,1.,0.));
#764=DIRECTION('',(0.,-1.,0.));
#765=DIRECTION('',(0.,0.,-1.));
#766=DIRECTION('',(0.,-1.,0.));
#767=DIRECTION('',(1.,0.,0.));
#768=DIRECTION('',(0.,-1.,0.));
#769=DIRECTION('',(0.,-1.,0.));
#770=DIRECTION('',(1.,0.,0.));
#771=DIRECTION('',(0.,-1.,0.));
#772=DIRECTION('',(0.,0.,-1.));
#773=DIRECTION('',(0.,-1.,0.));
#774=DIRECTION('',(1.,0.,0.));
#775=DIRECTION('',(0.,-1.,0.));
#776=DIRECTION('',(1.,0.,0.));
#777=DIRECTION('',(0.,-1.,0.));
#778=DIRECTION('',(0.,-1.,0.));
#779=DIRECTION('',(0.,0.,-1.));
#780=DIRECTION('',(1.,1.21332026310264E-9,0.));
#781=DIRECTION('',(0.,0.,-1.));
#782=DIRECTION('',(0.,0.,-1.));
#783=DIRECTION('',(0.,-1.,0.));
#784=DIRECTION('',(1.,0.,0.));
#785=DIRECTION('',(-1.,0.,4.37273808981108E-10));
#786=DIRECTION('',(4.3727482695599E-10,0.,1.));
#787=DIRECTION('',(1.,1.21332026310264E-9,0.));
#788=DIRECTION('',(0.,0.,-1.));
#789=DIRECTION('',(1.,0.,0.));
#790=DIRECTION('',(0.,-1.,0.));
#791=DIRECTION('',(0.,0.,-1.));
#792=DIRECTION('',(0.,0.,-1.));
#793=DIRECTION('',(1.,1.21332026310264E-9,0.));
#794=DIRECTION('',(1.,0.,0.));
#795=DIRECTION('',(0.,0.,1.));
#796=DIRECTION('',(1.,1.21332026310264E-9,0.));
#797=DIRECTION('',(4.3727482695599E-10,0.,1.));
#798=DIRECTION('',(-1.,0.,4.3780757892579E-10));
#799=DIRECTION('',(0.,-1.,0.));
#800=DIRECTION('',(1.,0.,0.));
#801=DIRECTION('',(0.,0.,-1.));
#802=DIRECTION('',(0.,1.,0.));
#803=DIRECTION('',(-1.,0.,6.12323399571021E-17));
#804=DIRECTION('',(0.,-1.,0.));
#805=DIRECTION('',(0.,1.,0.));
#806=DIRECTION('',(-1.,0.,6.12323399571021E-17));
#807=DIRECTION('',(0.,-1.,0.));
#808=DIRECTION('',(0.,1.,0.));
#809=DIRECTION('',(-1.,0.,6.12323399571021E-17));
#810=DIRECTION('',(0.,-1.,0.));
#811=DIRECTION('',(0.,1.,0.));
#812=DIRECTION('',(-1.,0.,6.12323399571021E-17));
#813=DIRECTION('',(0.,-1.,0.));
#814=DIRECTION('',(0.758182476027172,0.,0.652042431936225));
#815=DIRECTION('',(0.652042431936225,0.,-0.758182476027172));
#816=DIRECTION('',(0.652042431936225,0.,-0.758182476027172));
#817=DIRECTION('',(-0.652042422506091,0.,0.758182484137156));
#818=DIRECTION('',(0.,-1.,0.));
#819=DIRECTION('',(-0.758182476027171,0.,0.652042431936226));
#820=DIRECTION('',(0.652042431936226,0.,0.758182476027171));
#821=DIRECTION('',(-0.652042431936226,0.,-0.758182476027171));
#822=DIRECTION('',(0.,-1.,0.));
#823=DIRECTION('',(0.652042431936226,0.,0.758182476027171));
#824=DIRECTION('',(0.,-1.,0.));
#825=DIRECTION('',(0.758182476027172,0.,0.652042431936225));
#826=DIRECTION('',(0.652042431936225,0.,-0.758182476027172));
#827=DIRECTION('',(0.652042431936225,0.,-0.758182476027172));
#828=DIRECTION('',(0.,-1.,0.));
#829=DIRECTION('',(-0.652042431936225,0.,0.758182476027172));
#830=DIRECTION('',(-0.758182476027171,0.,0.652042431936226));
#831=DIRECTION('',(0.652042431936226,0.,0.758182476027171));
#832=DIRECTION('',(0.652042431936226,0.,0.758182476027171));
#833=DIRECTION('',(0.,-1.,0.));
#834=DIRECTION('',(-0.652042431936226,0.,-0.758182476027171));
#835=DIRECTION('',(0.,-1.,0.));
#836=DIRECTION('',(0.,1.,0.));
#837=DIRECTION('',(0.,0.,1.));
#838=DIRECTION('',(0.,1.,0.));
#839=DIRECTION('',(0.,0.,1.));
#840=DIRECTION('',(-1.,0.,3.43899976719019E-10));
#841=DIRECTION('',(4.3727482695599E-10,0.,1.));
#842=DIRECTION('',(1.,0.,-3.43896954163669E-10));
#843=DIRECTION('',(0.,1.,0.));
#844=DIRECTION('',(0.,0.,1.));
#845=DIRECTION('',(0.,1.,0.));
#846=DIRECTION('',(0.,0.,1.));
#847=DIRECTION('',(-1.,0.,3.43899976719019E-10));
#848=DIRECTION('',(-4.3727482695599E-10,0.,-1.));
#849=DIRECTION('',(1.,0.,-3.4389972918901E-10));
#850=DIRECTION('',(0.,-1.,0.));
#851=DIRECTION('',(0.,0.,-1.));
#852=DIRECTION('',(-1.,0.,4.37273808981108E-10));
#853=DIRECTION('',(0.,-1.,0.));
#854=DIRECTION('',(0.,0.,-1.));
#855=DIRECTION('',(-1.09563053601005E-16,0.,1.));
#856=DIRECTION('',(-1.,0.,3.4389972918901E-10));
#857=DIRECTION('',(0.,-1.,0.));
#858=DIRECTION('',(0.,0.,-1.));
#859=DIRECTION('',(1.,0.,-3.43896954163669E-10));
#860=DIRECTION('',(-1.09563052903371E-16,0.,-1.));
#861=DIRECTION('',(0.,-1.,0.));
#862=DIRECTION('',(0.,0.,-1.));
#863=DIRECTION('',(0.,-1.,0.));
#864=DIRECTION('',(0.,0.,-1.));
#865=DIRECTION('',(-1.,0.,4.3780757892579E-10));
#866=DIRECTION('',(-4.3727482695599E-10,0.,-1.));
#867=DIRECTION('',(-1.,0.,3.43899976719019E-10));
#868=DIRECTION('',(0.,-1.,0.));
#869=DIRECTION('',(0.,0.,-1.));
#870=DIRECTION('',(-1.,0.,3.4389972918901E-10));
#871=DIRECTION('',(-1.09563053601005E-16,0.,1.));
#872=DIRECTION('',(1.,0.,1.09563053601005E-16));
#873=DIRECTION('',(1.09563053601005E-16,0.,-1.));
#874=DIRECTION('',(0.,-1.,0.));
#875=DIRECTION('',(0.,-1.,0.));
#876=DIRECTION('',(0.,-1.,0.));
#877=DIRECTION('',(-1.,0.,4.3727482695599E-10));
#878=DIRECTION('',(4.3727482695599E-10,0.,1.));
#879=DIRECTION('',(0.,-1.,0.));
#880=DIRECTION('',(-1.,0.,4.3727482695599E-10));
#881=DIRECTION('',(4.3727482695599E-10,0.,1.));
#882=DIRECTION('',(0.,-1.,0.));
#883=DIRECTION('',(0.,-1.,0.));
#884=DIRECTION('',(0.,1.,0.));
#885=DIRECTION('',(-1.,0.,4.3727482695599E-10));
#886=DIRECTION('',(4.3727482695599E-10,0.,1.));
#887=DIRECTION('',(0.,1.,0.));
#888=DIRECTION('',(0.,-1.,0.));
#889=DIRECTION('',(0.,0.,-1.));
#890=DIRECTION('',(0.,-1.,0.));
#891=DIRECTION('',(0.,0.,-1.));
#892=DIRECTION('',(0.,-1.,0.));
#893=DIRECTION('',(0.,-1.,0.));
#894=DIRECTION('',(0.,0.,-1.));
#895=DIRECTION('',(0.,1.,0.));
#896=DIRECTION('',(0.,-1.,0.));
#897=DIRECTION('',(0.,0.,-1.));
#898=DIRECTION('',(0.,-1.,0.));
#899=DIRECTION('',(0.,0.,-1.));
#900=DIRECTION('',(0.,-1.,0.));
#901=DIRECTION('',(0.,0.,-1.));
#902=DIRECTION('',(3.4389972918901E-10,0.,1.));
#903=DIRECTION('',(1.,0.,-3.4389972918901E-10));
#904=DIRECTION('',(3.4389972918901E-10,0.,1.));
#905=DIRECTION('',(1.,0.,-3.4389972918901E-10));
#906=DIRECTION('',(-3.43899976719019E-10,0.,-1.));
#907=DIRECTION('',(-1.,0.,3.43899976719019E-10));
#908=DIRECTION('',(-3.43896954163669E-10,0.,-1.));
#909=DIRECTION('',(-1.,0.,3.43896954163669E-10));
#910=DIRECTION('',(4.37273808981108E-10,0.,1.));
#911=DIRECTION('',(1.,0.,-4.37273808981108E-10));
#912=DIRECTION('',(-1.,0.,4.37273808981108E-10));
#913=DIRECTION('',(-4.3780757892579E-10,0.,-1.));
#914=DIRECTION('',(-1.,0.,4.3780757892579E-10));
#915=DIRECTION('',(-1.,0.,4.3780757892579E-10));
#916=DIRECTION('',(-1.,0.,4.37273808981108E-10));
#917=DIRECTION('',(4.37273808981108E-10,0.,1.));
#918=DIRECTION('',(1.,0.,-1.83697016643289E-16));
#919=DIRECTION('',(-1.83697016643289E-16,0.,-1.));
#920=DIRECTION('',(0.,-1.,0.));
#921=DIRECTION('',(0.,0.,-1.));
#922=DIRECTION('',(0.,-1.,0.));
#923=DIRECTION('',(0.,0.,-1.));
#924=DIRECTION('',(-1.,0.,4.37807578925788E-10));
#925=DIRECTION('',(4.37807578925788E-10,0.,1.));
#926=DIRECTION('',(-1.,0.,4.3780757892579E-10));
#927=DIRECTION('',(4.3780757892579E-10,0.,1.));
#928=DIRECTION('',(-1.,-1.21332026310264E-9,0.));
#929=DIRECTION('',(1.21332026310264E-9,-1.,0.));
#930=DIRECTION('',(-1.21332026310264E-9,1.,0.));
#931=DIRECTION('',(1.21332026310264E-9,-1.,0.));
#932=DIRECTION('',(0.,0.,-1.));
#933=DIRECTION('',(-1.,0.,0.));
#934=DIRECTION('',(0.,0.,1.));
#935=DIRECTION('',(1.,0.,0.));
#936=DIRECTION('',(1.21332026310264E-9,-1.,0.));
#937=DIRECTION('',(0.,0.,-1.));
#938=DIRECTION('',(-1.,0.,0.));
#939=DIRECTION('',(-1.,-1.21332026310264E-9,0.));
#940=DIRECTION('',(1.21332026310264E-9,-1.,0.));
#941=CARTESIAN_POINT('',(0.,0.,0.));
#942=CARTESIAN_POINT('',(-0.315000023596507,-9.72393907471371,-33.1447697023383));
#943=CARTESIAN_POINT('',(-0.315000026294857,-7.5,-18.2499999797038));
#944=CARTESIAN_POINT('',(-0.315000035394758,-7.50000000076439,-21.2346985702977));
#945=CARTESIAN_POINT('',(-0.315000026294857,-7.5,-16.8955922894905));
#946=CARTESIAN_POINT('',(-0.315000023596507,-9.72393907471371,-21.2346985702977));
#947=CARTESIAN_POINT('',(-0.315000044494659,7.5,-21.2346985702977));
#948=CARTESIAN_POINT('',(-0.315000044494659,7.5,-18.2499999797038));
#949=CARTESIAN_POINT('',(-0.315000044494659,7.5,-16.8955922894905));
#950=CARTESIAN_POINT('',(-0.315000023596507,-9.72393907471371,-16.8955922894905));
#951=CARTESIAN_POINT('',(-2.3596296527646E-8,3.15,-18.2499999797038));
#952=CARTESIAN_POINT('',(-0.334999979101846,-7.50000000078866,-21.4826884939026));
#953=CARTESIAN_POINT('',(-0.334999985168447,-2.50000000078866,-21.482688493274));
#954=CARTESIAN_POINT('',(-0.334999991235048,2.49999999921135,-21.4826884926453));
#955=CARTESIAN_POINT('',(-0.33499999730165,7.49999999921135,-21.4826884920166));
#956=CARTESIAN_POINT('',(-0.334999979101846,-7.50000000078866,-21.4826884939026));
#957=CARTESIAN_POINT('',(-0.33499999730165,7.49999999921134,-21.4826884920166));
#958=CARTESIAN_POINT('',(-2.3596296527646E-8,-7.5,-18.2499999797038));
#959=CARTESIAN_POINT('',(-3.15,-7.5,-19.0500000726279));
#960=CARTESIAN_POINT('',(-3.15,3.15,-19.0500000726279));
#961=CARTESIAN_POINT('',(-3.15,7.5,-19.0500000726279));
#962=CARTESIAN_POINT('',(-2.3596296527646E-8,7.5,-18.2499999797038));
#963=CARTESIAN_POINT('',(-2.3596296527646E-8,3.15,-18.2499999797038));
#964=CARTESIAN_POINT('',(-2.3596296527646E-8,-7.5,-18.2499999797038));
#965=CARTESIAN_POINT('',(0.315000020898154,-7.5,-21.4846985702977));
#966=CARTESIAN_POINT('',(3.14999995280699,-7.5,-19.0500000726295));
#967=CARTESIAN_POINT('',(0.315000020898154,-7.5,-21.4846985702977));
#968=CARTESIAN_POINT('',(0.315000014831553,-2.5,-21.4846985708885));
#969=CARTESIAN_POINT('',(0.315000008764952,2.50000000000001,-21.4846985714793));
#970=CARTESIAN_POINT('',(0.31500000269835,7.50000000000001,-21.4846985720701));
#971=CARTESIAN_POINT('',(0.31500000269835,7.5,-21.48469857207));
#972=CARTESIAN_POINT('',(-2.3596296527646E-8,7.5,-18.2499999797038));
#973=CARTESIAN_POINT('',(3.14999995280699,7.5,-19.0500000726295));
#974=CARTESIAN_POINT('',(3.14999995280699,3.15,-19.0500000726295));
#975=CARTESIAN_POINT('',(-2.3596296527646E-8,7.5,-18.2499999797038));
#976=CARTESIAN_POINT('',(-0.33499999730165,7.49999999921134,-21.4846985702977));
#977=CARTESIAN_POINT('',(-0.33499999730165,7.49999999921134,-21.4846985702977));
#978=CARTESIAN_POINT('',(-0.33499999730165,7.49999999921134,-21.2346985702977));
#979=CARTESIAN_POINT('',(-3.15,7.5,-19.0500000726279));
#980=CARTESIAN_POINT('',(-3.15,7.5,-17.4499998867797));
#981=CARTESIAN_POINT('',(-2.3596296527646E-8,7.5,-18.2499999797038));
#982=CARTESIAN_POINT('',(-2.35962959306307E-8,7.5,-14.9999999797021));
#983=CARTESIAN_POINT('',(-2.35962959306307E-8,7.5,-14.9999999797038));
#984=CARTESIAN_POINT('',(3.14999995387831,7.5,-14.9999999810812));
#985=CARTESIAN_POINT('',(3.14999995918173,7.5,-2.87164917835957));
#986=CARTESIAN_POINT('',(-0.33499999730165,7.49999999921134,-21.2346985702977));
#987=CARTESIAN_POINT('',(0.31500000269835,7.5,-21.2346985702977));
#988=CARTESIAN_POINT('',(0.31500000269835,7.5,-18.2499999797038));
#989=CARTESIAN_POINT('',(0.31500000269835,7.5,-16.8955922894905));
#990=CARTESIAN_POINT('',(-2.3596296527646E-8,7.5,-16.8955922894905));
#991=CARTESIAN_POINT('',(-2.3596296527646E-8,-7.5,-18.2499999797038));
#992=CARTESIAN_POINT('',(0.315000020898154,-7.5,-18.2499999797038));
#993=CARTESIAN_POINT('',(0.315000023596505,-7.5,-16.8955922894905));
#994=CARTESIAN_POINT('',(0.315000020898154,-7.5,-21.2346985702977));
#995=CARTESIAN_POINT('',(-0.334999979101846,-7.50000000078866,-21.2346985702977));
#996=CARTESIAN_POINT('',(-2.3596296527646E-8,-7.5,-16.8955922894905));
#997=CARTESIAN_POINT('',(-0.334999979101846,-7.50000000078866,-21.4846985702977));
#998=CARTESIAN_POINT('',(-0.334999979101846,-7.50000000078866,-21.4846985702977));
#999=CARTESIAN_POINT('',(-0.334999979101846,-7.50000000078866,-21.4846985702977));
#1000=CARTESIAN_POINT('',(3.14999995918173,-7.5,-2.87164917835957));
#1001=CARTESIAN_POINT('',(3.14999995387831,-7.5,-14.9999999810812));
#1002=CARTESIAN_POINT('',(3.14999995387831,-7.5,-14.9999999810812));
#1003=CARTESIAN_POINT('',(-2.21734167485388E-8,-7.5,-14.9999999797021));
#1004=CARTESIAN_POINT('',(-2.3596296527646E-8,-7.5,-18.2499999797038));
#1005=CARTESIAN_POINT('',(-3.15,-7.5,-17.4499998867797));
#1006=CARTESIAN_POINT('',(-3.15,-7.5,-19.0500000726279));
#1007=CARTESIAN_POINT('',(-2.5760738380798,2.5,2.99540946482896));
#1008=CARTESIAN_POINT('',(-2.5760738380798,-2.5,2.99540946482896));
#1009=CARTESIAN_POINT('',(-2.47075280796168,2.5,3.32070053955708));
#1010=CARTESIAN_POINT('',(-2.47075280796168,-2.5,3.32070053955708));
#1011=CARTESIAN_POINT('',(-1.36079484744518,2.5,3.92096766679561));
#1012=CARTESIAN_POINT('',(-1.36079484744518,-2.5,3.92096766679561));
#1013=CARTESIAN_POINT('',(0.551795265779531,2.5,3.90231949766794));
#1014=CARTESIAN_POINT('',(0.551795265779531,-2.5,3.90231949766794));
#1015=CARTESIAN_POINT('',(1.29025343614017,2.5,3.73939407188402));
#1016=CARTESIAN_POINT('',(1.29025343614017,-2.5,3.73939407188402));
#1017=CARTESIAN_POINT('',(-1.28217748918136E-11,0.5,2.87164919201183));
#1018=CARTESIAN_POINT('',(-1.29025343214352,0.5,3.73939407277146));
#1019=CARTESIAN_POINT('',(-2.5760738380798,0.5,2.99540946482896));
#1020=CARTESIAN_POINT('',(-1.29025343214352,2.5,3.73939407277146));
#1021=CARTESIAN_POINT('',(-1.29025343214352,-0.5,3.73939407277146));
#1022=CARTESIAN_POINT('',(-1.28217748918136E-11,-0.5,2.87164919201183));
#1023=CARTESIAN_POINT('',(-2.5760738380798,-0.5,2.99540946482896));
#1024=CARTESIAN_POINT('',(-2.5760738380798,2.5,2.99540946482896));
#1025=CARTESIAN_POINT('',(-2.5760738380798,-2.5,2.99540946482896));
#1026=CARTESIAN_POINT('',(-1.28217748918136E-11,-2.5,2.87164919201183));
#1027=CARTESIAN_POINT('',(1.29025343614017,-2.5,3.73939407188402));
#1028=CARTESIAN_POINT('',(1.29025343614017,2.5,3.73939407188402));
#1029=CARTESIAN_POINT('',(1.29025343614017,2.5,3.73939407188402));
#1030=CARTESIAN_POINT('',(-1.28217748918136E-11,2.5,2.87164919201183));
#1031=CARTESIAN_POINT('',(-2.5760738380798,2.5,2.99540946482896));
#1032=CARTESIAN_POINT('',(-2.5760738380798,2.5,2.99540946482896));
#1033=CARTESIAN_POINT('',(-1.87474935491894,2.5,2.17992276166699));
#1034=CARTESIAN_POINT('',(-1.87474935491894,0.5,2.17992276166699));
#1035=CARTESIAN_POINT('',(-0.189545619019617,0.5,0.220400070328778));
#1036=CARTESIAN_POINT('',(-2.3596296527646E-8,2.5,2.03005828353537E-8));
#1037=CARTESIAN_POINT('',(-0.189545643391801,2.5,0.220400049368523));
#1038=CARTESIAN_POINT('',(-0.189545619019617,2.5,0.220400070328778));
#1039=CARTESIAN_POINT('',(1.87474935489329,2.5,2.17992276166699));
#1040=CARTESIAN_POINT('',(1.87474935489329,2.5,2.17992276166699));
#1041=CARTESIAN_POINT('',(2.57607383805427,2.5,2.99540946482895));
#1042=CARTESIAN_POINT('',(0.189545618993969,2.5,0.220400070328777));
#1043=CARTESIAN_POINT('',(2.57607383805416,2.24882248202731,2.99540946482895));
#1044=CARTESIAN_POINT('',(2.57607383805416,0.5,2.99540946482895));
#1045=CARTESIAN_POINT('',(1.87474935489329,0.5,2.17992276166699));
#1046=CARTESIAN_POINT('',(0.189545618993969,0.5,0.220400070328778));
#1047=CARTESIAN_POINT('',(0.189545618993969,2.5,0.220400070328778));
#1048=CARTESIAN_POINT('',(-1.87474935491894,2.5,2.17992276166699));
#1049=CARTESIAN_POINT('',(-1.87474935491894,-0.5,2.17992276166699));
#1050=CARTESIAN_POINT('',(-0.189545619019617,-0.5,0.220400070328778));
#1051=CARTESIAN_POINT('',(-0.189545619019617,2.5,0.220400070328778));
#1052=CARTESIAN_POINT('',(-0.189545619019617,-2.5,0.220400070328778));
#1053=CARTESIAN_POINT('',(-1.87474935491894,-2.5,2.17992276166699));
#1054=CARTESIAN_POINT('',(1.87474935489329,2.5,2.17992276166699));
#1055=CARTESIAN_POINT('',(1.87474935489329,-0.5,2.17992276166699));
#1056=CARTESIAN_POINT('',(0.189545618993969,-0.5,0.220400070328778));
#1057=CARTESIAN_POINT('',(2.57607383805416,-0.5,2.99540946482895));
#1058=CARTESIAN_POINT('',(2.57607383805416,2.5,2.99540946482895));
#1059=CARTESIAN_POINT('',(2.57607383805416,-2.5,2.99540946482895));
#1060=CARTESIAN_POINT('',(1.87474935489329,-2.5,2.17992276166699));
#1061=CARTESIAN_POINT('',(0.189545618993969,-2.5,0.220400070328777));
#1062=CARTESIAN_POINT('',(0.189545618993969,2.5,0.220400070328778));
#1063=CARTESIAN_POINT('',(-1.28217748918136E-11,2.5,2.87164919201183));
#1064=CARTESIAN_POINT('',(-1.28232927748551E-11,2.5,0.383410678312834));
#1065=CARTESIAN_POINT('',(3.14999996009402,2.5,3.73939407124446));
#1066=CARTESIAN_POINT('',(3.14999996009402,2.5,3.73939407124446));
#1067=CARTESIAN_POINT('',(3.14999996190991,2.5,3.3674017678244));
#1068=CARTESIAN_POINT('',(3.14999996174725,2.5,2.99540946463158));
#1069=CARTESIAN_POINT('',(3.14999996174725,2.5,2.99540946463158));
#1070=CARTESIAN_POINT('',(-1.28217748918136E-11,-2.5,2.87164919201183));
#1071=CARTESIAN_POINT('',(-1.28232927748551E-11,-2.5,0.383410678312834));
#1072=CARTESIAN_POINT('',(2.97393803534011E-11,-2.5,2.99540946571487));
#1073=CARTESIAN_POINT('',(3.14999996174725,-2.5,2.99540946463158));
#1074=CARTESIAN_POINT('',(3.14999995918173,-2.5,-2.87164917835957));
#1075=CARTESIAN_POINT('',(3.14999996009402,-2.5,3.73939407124446));
#1076=CARTESIAN_POINT('',(3.14999996009402,-2.5,3.73939407124446));
#1077=CARTESIAN_POINT('',(-1.28217748918136E-11,0.5,2.87164919201183));
#1078=CARTESIAN_POINT('',(-7.39035207200085E-9,0.5,-13.9999999797038));
#1079=CARTESIAN_POINT('',(3.14999995918173,0.5,-13.9999999810812));
#1080=CARTESIAN_POINT('',(-2.35962957469352E-8,0.5,-13.9999999797038));
#1081=CARTESIAN_POINT('',(-2.3596296527646E-8,0.5,-18.2499999797038));
#1082=CARTESIAN_POINT('',(-3.15000000637433,0.5,-15.396931437147));
#1083=CARTESIAN_POINT('',(-3.15000000637433,0.5,-2.87164917835957));
#1084=CARTESIAN_POINT('',(-3.15000000546204,0.5,3.73939407341102));
#1085=CARTESIAN_POINT('',(3.14999996009402,0.5,3.73939407124446));
#1086=CARTESIAN_POINT('',(-1.28232927748551E-11,0.5,0.383410678312834));
#1087=CARTESIAN_POINT('',(3.14999996174725,0.5,2.99540946463158));
#1088=CARTESIAN_POINT('',(3.14999996174725,0.5,2.99540946463158));
#1089=CARTESIAN_POINT('',(3.14999995918173,0.5,-2.87164917835957));
#1090=CARTESIAN_POINT('',(-1.28217748918136E-11,-0.5,2.87164919201183));
#1091=CARTESIAN_POINT('',(-2.3596296527646E-8,-0.5,-18.2499999797038));
#1092=CARTESIAN_POINT('',(-3.15000000637433,-0.5,-15.396931437147));
#1093=CARTESIAN_POINT('',(-2.17356091696123E-8,-0.5,-13.9999999797004));
#1094=CARTESIAN_POINT('',(-7.39935765124519E-9,-0.5,-13.9999999797021));
#1095=CARTESIAN_POINT('',(3.14999995431559,-0.5,-13.9999999810812));
#1096=CARTESIAN_POINT('',(3.14999995918173,-0.5,-2.87164917835957));
#1097=CARTESIAN_POINT('',(3.14999996174725,-0.5,2.99540946473027));
#1098=CARTESIAN_POINT('',(2.97393803534011E-11,-0.5,2.99540946571487));
#1099=CARTESIAN_POINT('',(-1.28232927748551E-11,-0.5,0.383410678312834));
#1100=CARTESIAN_POINT('',(3.14999996009402,-0.5,3.73939407124446));
#1101=CARTESIAN_POINT('',(-3.15000000546204,-0.5,3.73939407341102));
#1102=CARTESIAN_POINT('',(-3.15000000637433,-0.5,-2.87164917835957));
#1103=CARTESIAN_POINT('',(-3.15000000637433,0.5,-2.87164917835957));
#1104=CARTESIAN_POINT('',(-3.15,3.15,-17.4499998867797));
#1105=CARTESIAN_POINT('',(-3.15,-1.5,-17.4499998867797));
#1106=CARTESIAN_POINT('',(-3.15,-1.5,-17.4499998867797));
#1107=CARTESIAN_POINT('',(-3.15,-1.39739815564816,-17.4499998867797));
#1108=CARTESIAN_POINT('',(-3.15000000925698,-1.2220904743143,-17.3242895911168));
#1109=CARTESIAN_POINT('',(-3.15000000470969,-0.980851574701014,-17.0068406131151));
#1110=CARTESIAN_POINT('',(-3.15000000694274,-0.747375745888346,-16.5651360244778));
#1111=CARTESIAN_POINT('',(-3.15000000621192,-0.553366913130299,-15.9944896925839));
#1112=CARTESIAN_POINT('',(-3.15000000637433,-0.499999999999999,-15.5984527810724));
#1113=CARTESIAN_POINT('',(-3.15000000637433,-0.499999999999999,-15.396931437147));
#1114=CARTESIAN_POINT('',(-3.15000000546204,0.5,3.73939407341102));
#1115=CARTESIAN_POINT('',(-3.15000000637433,0.5,-15.396931437147));
#1116=CARTESIAN_POINT('',(-3.15000000637433,0.5,-15.5985234421763));
#1117=CARTESIAN_POINT('',(-3.15000000637432,0.553065193780396,-15.992935366845));
#1118=CARTESIAN_POINT('',(-3.15000000637433,0.747052181123713,-16.5645866676972));
#1119=CARTESIAN_POINT('',(-3.15000000637433,0.981101712106977,-17.0075016856969));
#1120=CARTESIAN_POINT('',(-3.15000000637433,1.22335408210925,-17.3256296429403));
#1121=CARTESIAN_POINT('',(-3.15000000637433,1.39793869793909,-17.4499999093963));
#1122=CARTESIAN_POINT('',(-3.15000000637433,1.49999999401326,-17.4499999118786));
#1123=CARTESIAN_POINT('',(-3.15,1.5,-17.4499998867797));
#1124=CARTESIAN_POINT('',(-3.15,3.15,-17.4499998867797));
#1125=CARTESIAN_POINT('',(3.14999995918173,0.5,-2.87164917835957));
#1126=CARTESIAN_POINT('',(3.14999995387831,3.01380958179113,-14.9999999810812));
#1127=CARTESIAN_POINT('',(3.14999995387831,1.5,-14.9999999810812));
#1128=CARTESIAN_POINT('',(3.14999995431559,1.5,-13.9999999810812));
#1129=CARTESIAN_POINT('',(3.14999996174725,2.24882248202731,2.99540946463158));
#1130=CARTESIAN_POINT('',(3.14999996009402,0.5,3.73939407124446));
#1131=CARTESIAN_POINT('',(3.14999996174725,-2.37584131075557,2.99540946463158));
#1132=CARTESIAN_POINT('',(3.14999995431559,-1.5,-13.9999999810812));
#1133=CARTESIAN_POINT('',(3.14999995387831,-1.5,-14.9999999810812));
#1134=CARTESIAN_POINT('',(3.14999995387831,-2.75901113968222,-14.9999999810812));
#1135=CARTESIAN_POINT('',(-2.3596296527646E-8,3.15,-18.2499999797038));
#1136=CARTESIAN_POINT('',(-2.3596296527646E-8,1.5,-18.2499999797038));
#1137=CARTESIAN_POINT('',(-2.35962959306307E-8,1.5,-14.9999999797038));
#1138=CARTESIAN_POINT('',(-2.35962959306307E-8,3.01380958179113,-14.9999999797038));
#1139=CARTESIAN_POINT('',(-2.3596296527646E-8,3.15,-18.2499999797038));
#1140=CARTESIAN_POINT('',(-2.21734167485388E-8,-2.75901113968222,-14.9999999797021));
#1141=CARTESIAN_POINT('',(-2.21734167485388E-8,-1.5,-14.9999999797021));
#1142=CARTESIAN_POINT('',(-2.3596296527646E-8,-1.5,-18.2499999797038));
#1143=CARTESIAN_POINT('',(-1.28232927748551E-11,2.5,0.383410678312834));
#1144=CARTESIAN_POINT('',(-1.28232927748551E-11,2.5,0.383410678312834));
#1145=CARTESIAN_POINT('',(3.14999996009402,0.5,3.73939407124446));
#1146=CARTESIAN_POINT('',(3.14999996009402,0.5,3.73939407124446));
#1147=CARTESIAN_POINT('',(2.97393803534011E-11,-2.37584131075557,2.99540946571487));
#1148=CARTESIAN_POINT('',(3.14999996174725,2.24882248202731,2.99540946463158));
#1149=CARTESIAN_POINT('',(-2.35962959306307E-8,3.01380958179113,-14.9999999797038));
#1150=CARTESIAN_POINT('',(-2.35962959306307E-8,1.5,-14.9999999797038));
#1151=CARTESIAN_POINT('',(3.14999995387831,-2.75901113968222,-14.9999999810812));
#1152=CARTESIAN_POINT('',(3.14999995387831,-1.5,-14.9999999810812));
#1153=CARTESIAN_POINT('',(-7.39035207200085E-9,1.5,-13.9999999797038));
#1154=CARTESIAN_POINT('',(-2.35962957469352E-8,1.5,-13.9999999797038));
#1155=CARTESIAN_POINT('',(-2.3596296527646E-8,1.5,-18.2499999797038));
#1156=CARTESIAN_POINT('',(-2.3596296527646E-8,-1.5,-18.2499999797038));
#1157=CARTESIAN_POINT('',(-2.17356091696123E-8,-1.5,-13.9999999797004));
#1158=CARTESIAN_POINT('',(3.14999995431612,-1.5,-13.9999999810812));
#1159=CARTESIAN_POINT('',(0.315,9.72393907471371,-33.1447697023383));
#1160=CARTESIAN_POINT('',(0.315000020898154,-7.5,-21.2346985702977));
#1161=CARTESIAN_POINT('',(0.315,9.72393907471371,-16.8955922894905));
#1162=CARTESIAN_POINT('',(0.,0.,-16.8955922894905));
#1163=CARTESIAN_POINT('',(-0.33499999730165,7.49999999921134,-21.4846985702977));
#1164=CARTESIAN_POINT('',(-0.33499999730165,7.49999999921134,-21.4846985702977));
#1165=CARTESIAN_POINT('',(-0.334999979101846,-7.50000000078866,-21.2346985702977));
#1166=CARTESIAN_POINT('',(-0.334999988201748,-4.06462273824326E-10,0.));
#1167=MECHANICAL_DESIGN_GEOMETRIC_PRESENTATION_REPRESENTATION('',(#688),
#1168);
#1168=(
GEOMETRIC_REPRESENTATION_CONTEXT(3)
GLOBAL_UNCERTAINTY_ASSIGNED_CONTEXT((#1169))
GLOBAL_UNIT_ASSIGNED_CONTEXT((#1172,#1171,#1170))
REPRESENTATION_CONTEXT('ScrollSawSandingEnds_01_15mm',
'TOP_LEVEL_ASSEMBLY_PART')
);
#1169=UNCERTAINTY_MEASURE_WITH_UNIT(LENGTH_MEASURE(0.005),#1172,
'DISTANCE_ACCURACY_VALUE','Maximum Tolerance applied to model');
#1170=(
NAMED_UNIT(*)
SI_UNIT($,.STERADIAN.)
SOLID_ANGLE_UNIT()
);
#1171=(
NAMED_UNIT(*)
PLANE_ANGLE_UNIT()
SI_UNIT($,.RADIAN.)
);
#1172=(
LENGTH_UNIT()
NAMED_UNIT(*)
SI_UNIT(.MILLI.,.METRE.)
);
#1173=PRODUCT_DEFINITION_SHAPE('','',#1174);
#1174=PRODUCT_DEFINITION('','',#1176,#1175);
#1175=PRODUCT_DEFINITION_CONTEXT('',#1182,'design');
#1176=PRODUCT_DEFINITION_FORMATION_WITH_SPECIFIED_SOURCE('','',#1178,
 .NOT_KNOWN.);
#1177=PRODUCT_RELATED_PRODUCT_CATEGORY('','',(#1178));
#1178=PRODUCT('ScrollSawSandingEnds_01_15mm',
'ScrollSawSandingEnds_01_15mm','ScrollSawSandingEnds_01_15mm',(#1180));
#1179=PRODUCT_CATEGORY('','');
#1180=PRODUCT_CONTEXT('',#1182,'mechanical');
#1181=APPLICATION_PROTOCOL_DEFINITION('international standard',
'automotive_design',2010,#1182);
#1182=APPLICATION_CONTEXT(
'core data for automotive mechanical design processes');
ENDSEC;
END-ISO-10303-21;
