ISO-10303-21;
HEADER;
/* Generated by software containing ST-Developer
 * from STEP Tools, Inc. (www.steptools.com) 
 */
/* OPTION: strings as raw bytes, not using required /X/ escapes */

FILE_DESCRIPTION(
/* description */ ('Unknown'),
/* implementation_level */ '2;1');

FILE_NAME(
/* name */ 'ScrollSawSandingEnds_01_15mmCurved',
/* time_stamp */ '2023-05-06T18:58:44+01:00',
/* author */ ('Unknown'),
/* organization */ ('Unknown'),
/* preprocessor_version */ 'ST-DEVELOPER v18.102',
/* originating_system */ 'Solid Edge',
/* authorisation */ 'Unknown');

FILE_SCHEMA (('AUTOMOTIVE_DESIGN {1 0 10303 214 3 1 1}'));
ENDSEC;

DATA;
#10=PROPERTY_DEFINITION_REPRESENTATION(#14,#12);
#11=PROPERTY_DEFINITION_REPRESENTATION(#15,#13);
#12=REPRESENTATION('',(#16),#1085);
#13=REPRESENTATION('',(#17),#1085);
#14=PROPERTY_DEFINITION('pmi validation property','',#1090);
#15=PROPERTY_DEFINITION('pmi validation property','',#1090);
#16=VALUE_REPRESENTATION_ITEM('number of annotations',COUNT_MEASURE(0.));
#17=VALUE_REPRESENTATION_ITEM('number of views',COUNT_MEASURE(0.));
#18=SHAPE_REPRESENTATION_RELATIONSHIP('','',#643,#19);
#19=ADVANCED_BREP_SHAPE_REPRESENTATION('',(#641),#1085);
#20=ORIENTED_CLOSED_SHELL('',*,#632,.F.);
#21=TOROIDAL_SURFACE('',#686,4.25000000000337,1.);
#22=TOROIDAL_SURFACE('',#687,4.25000000000337,1.);
#23=CYLINDRICAL_SURFACE('',#672,3.25000000000337);
#24=CYLINDRICAL_SURFACE('',#674,3.25000000000337);
#25=CYLINDRICAL_SURFACE('',#676,0.25);
#26=CYLINDRICAL_SURFACE('',#677,0.25);
#27=CYLINDRICAL_SURFACE('',#684,1.);
#28=CYLINDRICAL_SURFACE('',#689,1.);
#29=CYLINDRICAL_SURFACE('',#690,58.1467283326622);
#30=ELLIPSE('',#654,2.59603175144827,1.00000000000001);
#31=ELLIPSE('',#655,2.59603175144827,1.00000000000001);
#32=ELLIPSE('',#656,2.59603175144827,1.00000000000001);
#33=ELLIPSE('',#657,2.59603175144827,1.00000000000001);
#34=ELLIPSE('',#693,31.5687651210419,17.1737578848575);
#35=ELLIPSE('',#694,31.5687651210419,17.1737578848575);
#36=B_SPLINE_SURFACE_WITH_KNOTS('',3,1,((#949,#950),(#951,#952),(#953,#954),
(#955,#956),(#957,#958)),.SURF_OF_LINEAR_EXTRUSION.,.F.,.F.,.F.,(4,1,4),
(2,2),(0.124078401631141,1.10751212077943,2.09094583992772),(0.,1.),
 .UNSPECIFIED.);
#37=B_SPLINE_SURFACE_WITH_KNOTS('',3,1,((#1060,#1061),(#1062,#1063),(#1064,
#1065),(#1066,#1067)),.SURF_OF_LINEAR_EXTRUSION.,.F.,.F.,.F.,(4,4),(2,2),
(4.4806633376898,4.94411462307958),(0.,1.),.PIECEWISE_BEZIER_KNOTS.);
#38=B_SPLINE_CURVE_WITH_KNOTS('',3,(#924,#925,#926,#927,#928,#929,#930,
#931),.UNSPECIFIED.,.F.,.F.,(4,1,1,1,1,4),(0.,0.000302791878715702,0.000605583757431403,
0.00121116751486281,0.00181675127229421,0.00242233502972561),
 .UNSPECIFIED.);
#39=B_SPLINE_CURVE_WITH_KNOTS('',3,(#939,#940,#941,#942,#943,#944,#945,
#946),.UNSPECIFIED.,.F.,.F.,(4,1,1,1,1,4),(0.,0.000596442231443425,0.00119288446288685,
0.00178932669433027,0.00208754781005199,0.0023857689257737),
 .UNSPECIFIED.);
#40=CIRCLE('',#646,3.25000000000337);
#41=CIRCLE('',#649,1.);
#42=CIRCLE('',#650,1.);
#43=CIRCLE('',#652,3.25000000000337);
#44=CIRCLE('',#663,0.25);
#45=CIRCLE('',#665,0.25);
#46=CIRCLE('',#667,4.25000000000337);
#47=CIRCLE('',#668,0.25);
#48=CIRCLE('',#670,4.25000000000337);
#49=CIRCLE('',#671,0.25);
#50=CIRCLE('',#673,3.25000000000337);
#51=CIRCLE('',#675,3.25000000000337);
#52=CIRCLE('',#685,1.);
#53=CIRCLE('',#688,1.);
#54=CIRCLE('',#691,58.1467283326622);
#55=CIRCLE('',#692,58.1467283326622);
#56=ORIENTED_EDGE('',*,*,#232,.T.);
#57=ORIENTED_EDGE('',*,*,#233,.F.);
#58=ORIENTED_EDGE('',*,*,#234,.T.);
#59=ORIENTED_EDGE('',*,*,#235,.T.);
#60=ORIENTED_EDGE('',*,*,#236,.T.);
#61=ORIENTED_EDGE('',*,*,#237,.T.);
#62=ORIENTED_EDGE('',*,*,#238,.T.);
#63=ORIENTED_EDGE('',*,*,#233,.T.);
#64=ORIENTED_EDGE('',*,*,#239,.T.);
#65=ORIENTED_EDGE('',*,*,#240,.T.);
#66=ORIENTED_EDGE('',*,*,#241,.T.);
#67=ORIENTED_EDGE('',*,*,#242,.T.);
#68=ORIENTED_EDGE('',*,*,#243,.F.);
#69=ORIENTED_EDGE('',*,*,#244,.F.);
#70=ORIENTED_EDGE('',*,*,#245,.T.);
#71=ORIENTED_EDGE('',*,*,#246,.T.);
#72=ORIENTED_EDGE('',*,*,#247,.T.);
#73=ORIENTED_EDGE('',*,*,#248,.T.);
#74=ORIENTED_EDGE('',*,*,#249,.T.);
#75=ORIENTED_EDGE('',*,*,#250,.T.);
#76=ORIENTED_EDGE('',*,*,#251,.F.);
#77=ORIENTED_EDGE('',*,*,#234,.F.);
#78=ORIENTED_EDGE('',*,*,#238,.F.);
#79=ORIENTED_EDGE('',*,*,#240,.F.);
#80=ORIENTED_EDGE('',*,*,#237,.F.);
#81=ORIENTED_EDGE('',*,*,#252,.F.);
#82=ORIENTED_EDGE('',*,*,#253,.F.);
#83=ORIENTED_EDGE('',*,*,#254,.F.);
#84=ORIENTED_EDGE('',*,*,#239,.F.);
#85=ORIENTED_EDGE('',*,*,#232,.F.);
#86=ORIENTED_EDGE('',*,*,#255,.F.);
#87=ORIENTED_EDGE('',*,*,#256,.T.);
#88=ORIENTED_EDGE('',*,*,#257,.T.);
#89=ORIENTED_EDGE('',*,*,#258,.F.);
#90=ORIENTED_EDGE('',*,*,#259,.F.);
#91=ORIENTED_EDGE('',*,*,#260,.T.);
#92=ORIENTED_EDGE('',*,*,#261,.F.);
#93=ORIENTED_EDGE('',*,*,#252,.T.);
#94=ORIENTED_EDGE('',*,*,#262,.F.);
#95=ORIENTED_EDGE('',*,*,#263,.T.);
#96=ORIENTED_EDGE('',*,*,#264,.T.);
#97=ORIENTED_EDGE('',*,*,#265,.T.);
#98=ORIENTED_EDGE('',*,*,#266,.T.);
#99=ORIENTED_EDGE('',*,*,#267,.T.);
#100=ORIENTED_EDGE('',*,*,#268,.F.);
#101=ORIENTED_EDGE('',*,*,#269,.T.);
#102=ORIENTED_EDGE('',*,*,#270,.F.);
#103=ORIENTED_EDGE('',*,*,#269,.F.);
#104=ORIENTED_EDGE('',*,*,#271,.F.);
#105=ORIENTED_EDGE('',*,*,#272,.T.);
#106=ORIENTED_EDGE('',*,*,#273,.F.);
#107=ORIENTED_EDGE('',*,*,#274,.T.);
#108=ORIENTED_EDGE('',*,*,#275,.F.);
#109=ORIENTED_EDGE('',*,*,#276,.T.);
#110=ORIENTED_EDGE('',*,*,#265,.F.);
#111=ORIENTED_EDGE('',*,*,#277,.T.);
#112=ORIENTED_EDGE('',*,*,#278,.T.);
#113=ORIENTED_EDGE('',*,*,#279,.T.);
#114=ORIENTED_EDGE('',*,*,#280,.T.);
#115=ORIENTED_EDGE('',*,*,#281,.T.);
#116=ORIENTED_EDGE('',*,*,#282,.T.);
#117=ORIENTED_EDGE('',*,*,#283,.T.);
#118=ORIENTED_EDGE('',*,*,#273,.T.);
#119=ORIENTED_EDGE('',*,*,#284,.T.);
#120=ORIENTED_EDGE('',*,*,#271,.T.);
#121=ORIENTED_EDGE('',*,*,#268,.T.);
#122=ORIENTED_EDGE('',*,*,#285,.F.);
#123=ORIENTED_EDGE('',*,*,#245,.F.);
#124=ORIENTED_EDGE('',*,*,#286,.F.);
#125=ORIENTED_EDGE('',*,*,#279,.F.);
#126=ORIENTED_EDGE('',*,*,#287,.T.);
#127=ORIENTED_EDGE('',*,*,#282,.F.);
#128=ORIENTED_EDGE('',*,*,#288,.F.);
#129=ORIENTED_EDGE('',*,*,#247,.F.);
#130=ORIENTED_EDGE('',*,*,#289,.T.);
#131=ORIENTED_EDGE('',*,*,#266,.F.);
#132=ORIENTED_EDGE('',*,*,#290,.T.);
#133=ORIENTED_EDGE('',*,*,#291,.T.);
#134=ORIENTED_EDGE('',*,*,#259,.T.);
#135=ORIENTED_EDGE('',*,*,#292,.F.);
#136=ORIENTED_EDGE('',*,*,#262,.T.);
#137=ORIENTED_EDGE('',*,*,#270,.T.);
#138=ORIENTED_EDGE('',*,*,#293,.T.);
#139=ORIENTED_EDGE('',*,*,#275,.T.);
#140=ORIENTED_EDGE('',*,*,#294,.T.);
#141=ORIENTED_EDGE('',*,*,#243,.T.);
#142=ORIENTED_EDGE('',*,*,#295,.T.);
#143=ORIENTED_EDGE('',*,*,#296,.T.);
#144=ORIENTED_EDGE('',*,*,#249,.F.);
#145=ORIENTED_EDGE('',*,*,#297,.T.);
#146=ORIENTED_EDGE('',*,*,#280,.F.);
#147=ORIENTED_EDGE('',*,*,#298,.T.);
#148=ORIENTED_EDGE('',*,*,#277,.F.);
#149=ORIENTED_EDGE('',*,*,#264,.F.);
#150=ORIENTED_EDGE('',*,*,#299,.T.);
#151=ORIENTED_EDGE('',*,*,#257,.F.);
#152=ORIENTED_EDGE('',*,*,#261,.T.);
#153=ORIENTED_EDGE('',*,*,#300,.T.);
#154=ORIENTED_EDGE('',*,*,#301,.F.);
#155=ORIENTED_EDGE('',*,*,#253,.T.);
#156=ORIENTED_EDGE('',*,*,#302,.T.);
#157=ORIENTED_EDGE('',*,*,#303,.T.);
#158=ORIENTED_EDGE('',*,*,#255,.T.);
#159=ORIENTED_EDGE('',*,*,#236,.F.);
#160=ORIENTED_EDGE('',*,*,#298,.F.);
#161=ORIENTED_EDGE('',*,*,#283,.F.);
#162=ORIENTED_EDGE('',*,*,#287,.F.);
#163=ORIENTED_EDGE('',*,*,#278,.F.);
#164=ORIENTED_EDGE('',*,*,#284,.F.);
#165=ORIENTED_EDGE('',*,*,#276,.F.);
#166=ORIENTED_EDGE('',*,*,#293,.F.);
#167=ORIENTED_EDGE('',*,*,#272,.F.);
#168=ORIENTED_EDGE('',*,*,#263,.F.);
#169=ORIENTED_EDGE('',*,*,#292,.T.);
#170=ORIENTED_EDGE('',*,*,#258,.T.);
#171=ORIENTED_EDGE('',*,*,#299,.F.);
#172=ORIENTED_EDGE('',*,*,#267,.F.);
#173=ORIENTED_EDGE('',*,*,#289,.F.);
#174=ORIENTED_EDGE('',*,*,#246,.F.);
#175=ORIENTED_EDGE('',*,*,#285,.T.);
#176=ORIENTED_EDGE('',*,*,#297,.F.);
#177=ORIENTED_EDGE('',*,*,#248,.F.);
#178=ORIENTED_EDGE('',*,*,#288,.T.);
#179=ORIENTED_EDGE('',*,*,#281,.F.);
#180=ORIENTED_EDGE('',*,*,#294,.F.);
#181=ORIENTED_EDGE('',*,*,#274,.F.);
#182=ORIENTED_EDGE('',*,*,#286,.T.);
#183=ORIENTED_EDGE('',*,*,#244,.T.);
#184=ORIENTED_EDGE('',*,*,#301,.T.);
#185=ORIENTED_EDGE('',*,*,#304,.T.);
#186=ORIENTED_EDGE('',*,*,#241,.F.);
#187=ORIENTED_EDGE('',*,*,#254,.T.);
#188=ORIENTED_EDGE('',*,*,#251,.T.);
#189=ORIENTED_EDGE('',*,*,#305,.T.);
#190=ORIENTED_EDGE('',*,*,#302,.F.);
#191=ORIENTED_EDGE('',*,*,#235,.F.);
#192=ORIENTED_EDGE('',*,*,#242,.F.);
#193=ORIENTED_EDGE('',*,*,#304,.F.);
#194=ORIENTED_EDGE('',*,*,#306,.F.);
#195=ORIENTED_EDGE('',*,*,#290,.F.);
#196=ORIENTED_EDGE('',*,*,#306,.T.);
#197=ORIENTED_EDGE('',*,*,#300,.F.);
#198=ORIENTED_EDGE('',*,*,#260,.F.);
#199=ORIENTED_EDGE('',*,*,#291,.F.);
#200=ORIENTED_EDGE('',*,*,#256,.F.);
#201=ORIENTED_EDGE('',*,*,#303,.F.);
#202=ORIENTED_EDGE('',*,*,#307,.F.);
#203=ORIENTED_EDGE('',*,*,#295,.F.);
#204=ORIENTED_EDGE('',*,*,#250,.F.);
#205=ORIENTED_EDGE('',*,*,#296,.F.);
#206=ORIENTED_EDGE('',*,*,#307,.T.);
#207=ORIENTED_EDGE('',*,*,#305,.F.);
#208=ORIENTED_EDGE('',*,*,#308,.T.);
#209=ORIENTED_EDGE('',*,*,#309,.T.);
#210=ORIENTED_EDGE('',*,*,#310,.T.);
#211=ORIENTED_EDGE('',*,*,#311,.T.);
#212=ORIENTED_EDGE('',*,*,#312,.T.);
#213=ORIENTED_EDGE('',*,*,#313,.T.);
#214=ORIENTED_EDGE('',*,*,#314,.T.);
#215=ORIENTED_EDGE('',*,*,#315,.T.);
#216=ORIENTED_EDGE('',*,*,#312,.F.);
#217=ORIENTED_EDGE('',*,*,#316,.T.);
#218=ORIENTED_EDGE('',*,*,#310,.F.);
#219=ORIENTED_EDGE('',*,*,#317,.F.);
#220=ORIENTED_EDGE('',*,*,#311,.F.);
#221=ORIENTED_EDGE('',*,*,#316,.F.);
#222=ORIENTED_EDGE('',*,*,#315,.F.);
#223=ORIENTED_EDGE('',*,*,#318,.T.);
#224=ORIENTED_EDGE('',*,*,#308,.F.);
#225=ORIENTED_EDGE('',*,*,#318,.F.);
#226=ORIENTED_EDGE('',*,*,#314,.F.);
#227=ORIENTED_EDGE('',*,*,#319,.T.);
#228=ORIENTED_EDGE('',*,*,#309,.F.);
#229=ORIENTED_EDGE('',*,*,#319,.F.);
#230=ORIENTED_EDGE('',*,*,#313,.F.);
#231=ORIENTED_EDGE('',*,*,#317,.T.);
#232=EDGE_CURVE('',#320,#321,#378,.T.);
#233=EDGE_CURVE('',#322,#321,#379,.T.);
#234=EDGE_CURVE('',#322,#323,#380,.T.);
#235=EDGE_CURVE('',#323,#324,#381,.T.);
#236=EDGE_CURVE('',#324,#320,#40,.T.);
#237=EDGE_CURVE('',#325,#326,#382,.T.);
#238=EDGE_CURVE('',#326,#322,#383,.T.);
#239=EDGE_CURVE('',#321,#325,#384,.T.);
#240=EDGE_CURVE('',#326,#327,#385,.T.);
#241=EDGE_CURVE('',#327,#328,#386,.T.);
#242=EDGE_CURVE('',#328,#329,#41,.T.);
#243=EDGE_CURVE('',#330,#329,#387,.T.);
#244=EDGE_CURVE('',#331,#330,#388,.T.);
#245=EDGE_CURVE('',#331,#332,#389,.T.);
#246=EDGE_CURVE('',#332,#333,#390,.T.);
#247=EDGE_CURVE('',#333,#334,#391,.T.);
#248=EDGE_CURVE('',#334,#335,#392,.T.);
#249=EDGE_CURVE('',#335,#336,#393,.T.);
#250=EDGE_CURVE('',#336,#337,#42,.T.);
#251=EDGE_CURVE('',#323,#337,#394,.T.);
#252=EDGE_CURVE('',#338,#325,#395,.T.);
#253=EDGE_CURVE('',#339,#338,#43,.T.);
#254=EDGE_CURVE('',#327,#339,#396,.T.);
#255=EDGE_CURVE('',#340,#320,#397,.T.);
#256=EDGE_CURVE('',#340,#341,#38,.T.);
#257=EDGE_CURVE('',#341,#342,#398,.T.);
#258=EDGE_CURVE('',#343,#342,#399,.T.);
#259=EDGE_CURVE('',#344,#343,#400,.T.);
#260=EDGE_CURVE('',#344,#345,#39,.T.);
#261=EDGE_CURVE('',#338,#345,#401,.T.);
#262=EDGE_CURVE('',#346,#347,#30,.F.);
#263=EDGE_CURVE('',#346,#348,#402,.T.);
#264=EDGE_CURVE('',#348,#349,#31,.F.);
#265=EDGE_CURVE('',#349,#350,#403,.T.);
#266=EDGE_CURVE('',#350,#351,#32,.T.);
#267=EDGE_CURVE('',#351,#352,#404,.F.);
#268=EDGE_CURVE('',#353,#352,#33,.T.);
#269=EDGE_CURVE('',#353,#347,#405,.T.);
#270=EDGE_CURVE('',#347,#354,#406,.T.);
#271=EDGE_CURVE('',#355,#353,#407,.T.);
#272=EDGE_CURVE('',#355,#354,#408,.T.);
#273=EDGE_CURVE('',#356,#357,#409,.T.);
#274=EDGE_CURVE('',#356,#358,#410,.T.);
#275=EDGE_CURVE('',#359,#358,#411,.T.);
#276=EDGE_CURVE('',#359,#357,#412,.F.);
#277=EDGE_CURVE('',#349,#360,#413,.T.);
#278=EDGE_CURVE('',#360,#361,#414,.T.);
#279=EDGE_CURVE('',#361,#350,#415,.T.);
#280=EDGE_CURVE('',#362,#363,#416,.T.);
#281=EDGE_CURVE('',#363,#364,#417,.T.);
#282=EDGE_CURVE('',#364,#365,#418,.T.);
#283=EDGE_CURVE('',#365,#362,#419,.F.);
#284=EDGE_CURVE('',#357,#355,#44,.T.);
#285=EDGE_CURVE('',#332,#352,#420,.T.);
#286=EDGE_CURVE('',#356,#331,#421,.T.);
#287=EDGE_CURVE('',#361,#365,#45,.F.);
#288=EDGE_CURVE('',#334,#364,#422,.T.);
#289=EDGE_CURVE('',#333,#351,#423,.F.);
#290=EDGE_CURVE('',#329,#366,#424,.T.);
#291=EDGE_CURVE('',#366,#344,#46,.T.);
#292=EDGE_CURVE('',#346,#343,#425,.T.);
#293=EDGE_CURVE('',#354,#359,#47,.T.);
#294=EDGE_CURVE('',#358,#330,#426,.T.);
#295=EDGE_CURVE('',#341,#367,#48,.F.);
#296=EDGE_CURVE('',#367,#336,#427,.F.);
#297=EDGE_CURVE('',#335,#363,#428,.T.);
#298=EDGE_CURVE('',#362,#360,#49,.F.);
#299=EDGE_CURVE('',#348,#342,#429,.T.);
#300=EDGE_CURVE('',#345,#368,#50,.F.);
#301=EDGE_CURVE('',#339,#368,#430,.T.);
#302=EDGE_CURVE('',#324,#369,#431,.T.);
#303=EDGE_CURVE('',#369,#340,#51,.T.);
#304=EDGE_CURVE('',#368,#328,#432,.F.);
#305=EDGE_CURVE('',#337,#369,#433,.T.);
#306=EDGE_CURVE('',#366,#368,#52,.T.);
#307=EDGE_CURVE('',#367,#369,#53,.T.);
#308=EDGE_CURVE('',#370,#371,#54,.T.);
#309=EDGE_CURVE('',#371,#372,#434,.F.);
#310=EDGE_CURVE('',#372,#373,#55,.T.);
#311=EDGE_CURVE('',#373,#370,#435,.T.);
#312=EDGE_CURVE('',#374,#375,#34,.T.);
#313=EDGE_CURVE('',#375,#376,#436,.T.);
#314=EDGE_CURVE('',#376,#377,#35,.F.);
#315=EDGE_CURVE('',#377,#374,#437,.F.);
#316=EDGE_CURVE('',#374,#373,#438,.T.);
#317=EDGE_CURVE('',#375,#372,#439,.T.);
#318=EDGE_CURVE('',#377,#370,#440,.T.);
#319=EDGE_CURVE('',#376,#371,#441,.T.);
#320=VERTEX_POINT('',#876);
#321=VERTEX_POINT('',#877);
#322=VERTEX_POINT('',#879);
#323=VERTEX_POINT('',#881);
#324=VERTEX_POINT('',#883);
#325=VERTEX_POINT('',#887);
#326=VERTEX_POINT('',#888);
#327=VERTEX_POINT('',#893);
#328=VERTEX_POINT('',#895);
#329=VERTEX_POINT('',#897);
#330=VERTEX_POINT('',#899);
#331=VERTEX_POINT('',#901);
#332=VERTEX_POINT('',#903);
#333=VERTEX_POINT('',#905);
#334=VERTEX_POINT('',#907);
#335=VERTEX_POINT('',#909);
#336=VERTEX_POINT('',#911);
#337=VERTEX_POINT('',#913);
#338=VERTEX_POINT('',#917);
#339=VERTEX_POINT('',#919);
#340=VERTEX_POINT('',#923);
#341=VERTEX_POINT('',#932);
#342=VERTEX_POINT('',#934);
#343=VERTEX_POINT('',#936);
#344=VERTEX_POINT('',#938);
#345=VERTEX_POINT('',#947);
#346=VERTEX_POINT('',#960);
#347=VERTEX_POINT('',#961);
#348=VERTEX_POINT('',#963);
#349=VERTEX_POINT('',#965);
#350=VERTEX_POINT('',#967);
#351=VERTEX_POINT('',#969);
#352=VERTEX_POINT('',#971);
#353=VERTEX_POINT('',#973);
#354=VERTEX_POINT('',#977);
#355=VERTEX_POINT('',#979);
#356=VERTEX_POINT('',#983);
#357=VERTEX_POINT('',#984);
#358=VERTEX_POINT('',#986);
#359=VERTEX_POINT('',#988);
#360=VERTEX_POINT('',#992);
#361=VERTEX_POINT('',#994);
#362=VERTEX_POINT('',#998);
#363=VERTEX_POINT('',#999);
#364=VERTEX_POINT('',#1001);
#365=VERTEX_POINT('',#1003);
#366=VERTEX_POINT('',#1015);
#367=VERTEX_POINT('',#1022);
#368=VERTEX_POINT('',#1029);
#369=VERTEX_POINT('',#1033);
#370=VERTEX_POINT('',#1053);
#371=VERTEX_POINT('',#1054);
#372=VERTEX_POINT('',#1056);
#373=VERTEX_POINT('',#1058);
#374=VERTEX_POINT('',#1069);
#375=VERTEX_POINT('',#1070);
#376=VERTEX_POINT('',#1072);
#377=VERTEX_POINT('',#1074);
#378=LINE('',#875,#442);
#379=LINE('',#878,#443);
#380=LINE('',#880,#444);
#381=LINE('',#882,#445);
#382=LINE('',#886,#446);
#383=LINE('',#889,#447);
#384=LINE('',#890,#448);
#385=LINE('',#892,#449);
#386=LINE('',#894,#450);
#387=LINE('',#898,#451);
#388=LINE('',#900,#452);
#389=LINE('',#902,#453);
#390=LINE('',#904,#454);
#391=LINE('',#906,#455);
#392=LINE('',#908,#456);
#393=LINE('',#910,#457);
#394=LINE('',#914,#458);
#395=LINE('',#916,#459);
#396=LINE('',#920,#460);
#397=LINE('',#922,#461);
#398=LINE('',#933,#462);
#399=LINE('',#935,#463);
#400=LINE('',#937,#464);
#401=LINE('',#948,#465);
#402=LINE('',#962,#466);
#403=LINE('',#966,#467);
#404=LINE('',#970,#468);
#405=LINE('',#974,#469);
#406=LINE('',#976,#470);
#407=LINE('',#978,#471);
#408=LINE('',#980,#472);
#409=LINE('',#982,#473);
#410=LINE('',#985,#474);
#411=LINE('',#987,#475);
#412=LINE('',#989,#476);
#413=LINE('',#991,#477);
#414=LINE('',#993,#478);
#415=LINE('',#995,#479);
#416=LINE('',#997,#480);
#417=LINE('',#1000,#481);
#418=LINE('',#1002,#482);
#419=LINE('',#1004,#483);
#420=LINE('',#1007,#484);
#421=LINE('',#1008,#485);
#422=LINE('',#1011,#486);
#423=LINE('',#1012,#487);
#424=LINE('',#1014,#488);
#425=LINE('',#1017,#489);
#426=LINE('',#1019,#490);
#427=LINE('',#1023,#491);
#428=LINE('',#1024,#492);
#429=LINE('',#1026,#493);
#430=LINE('',#1030,#494);
#431=LINE('',#1032,#495);
#432=LINE('',#1042,#496);
#433=LINE('',#1044,#497);
#434=LINE('',#1055,#498);
#435=LINE('',#1059,#499);
#436=LINE('',#1071,#500);
#437=LINE('',#1075,#501);
#438=LINE('',#1077,#502);
#439=LINE('',#1078,#503);
#440=LINE('',#1080,#504);
#441=LINE('',#1082,#505);
#442=VECTOR('',#703,1000.);
#443=VECTOR('',#704,1000.);
#444=VECTOR('',#705,1000.);
#445=VECTOR('',#706,1000.);
#446=VECTOR('',#711,1000.);
#447=VECTOR('',#712,1000.);
#448=VECTOR('',#713,1000.);
#449=VECTOR('',#716,1000.);
#450=VECTOR('',#717,1000.);
#451=VECTOR('',#720,1000.);
#452=VECTOR('',#721,1000.);
#453=VECTOR('',#722,1000.);
#454=VECTOR('',#723,1000.);
#455=VECTOR('',#724,1000.);
#456=VECTOR('',#725,1000.);
#457=VECTOR('',#726,1000.);
#458=VECTOR('',#729,1000.);
#459=VECTOR('',#732,1000.);
#460=VECTOR('',#735,1000.);
#461=VECTOR('',#738,1000.);
#462=VECTOR('',#739,1000.);
#463=VECTOR('',#740,1000.);
#464=VECTOR('',#741,1000.);
#465=VECTOR('',#742,1000.);
#466=VECTOR('',#745,1000.);
#467=VECTOR('',#748,1000.);
#468=VECTOR('',#751,1000.);
#469=VECTOR('',#754,1000.);
#470=VECTOR('',#757,1000.);
#471=VECTOR('',#758,1000.);
#472=VECTOR('',#759,1000.);
#473=VECTOR('',#762,1000.);
#474=VECTOR('',#763,1000.);
#475=VECTOR('',#764,1000.);
#476=VECTOR('',#765,1000.);
#477=VECTOR('',#768,1000.);
#478=VECTOR('',#769,1000.);
#479=VECTOR('',#770,1000.);
#480=VECTOR('',#773,1000.);
#481=VECTOR('',#774,1000.);
#482=VECTOR('',#775,1000.);
#483=VECTOR('',#776,1000.);
#484=VECTOR('',#781,1000.);
#485=VECTOR('',#782,1000.);
#486=VECTOR('',#787,1000.);
#487=VECTOR('',#788,1000.);
#488=VECTOR('',#791,1000.);
#489=VECTOR('',#794,1000.);
#490=VECTOR('',#797,1000.);
#491=VECTOR('',#802,1000.);
#492=VECTOR('',#803,1000.);
#493=VECTOR('',#806,1000.);
#494=VECTOR('',#811,1000.);
#495=VECTOR('',#814,1000.);
#496=VECTOR('',#831,1000.);
#497=VECTOR('',#834,1000.);
#498=VECTOR('',#851,1000.);
#499=VECTOR('',#854,1000.);
#500=VECTOR('',#857,1000.);
#501=VECTOR('',#860,1000.);
#502=VECTOR('',#863,1000.);
#503=VECTOR('',#864,1000.);
#504=VECTOR('',#867,1000.);
#505=VECTOR('',#870,1000.);
#506=EDGE_LOOP('',(#56,#57,#58,#59,#60));
#507=EDGE_LOOP('',(#61,#62,#63,#64));
#508=EDGE_LOOP('',(#65,#66,#67,#68,#69,#70,#71,#72,#73,#74,#75,#76,#77,
#78));
#509=EDGE_LOOP('',(#79,#80,#81,#82,#83));
#510=EDGE_LOOP('',(#84,#85,#86,#87,#88,#89,#90,#91,#92,#93));
#511=EDGE_LOOP('',(#94,#95,#96,#97,#98,#99,#100,#101));
#512=EDGE_LOOP('',(#102,#103,#104,#105));
#513=EDGE_LOOP('',(#106,#107,#108,#109));
#514=EDGE_LOOP('',(#110,#111,#112,#113));
#515=EDGE_LOOP('',(#114,#115,#116,#117));
#516=EDGE_LOOP('',(#118,#119,#120,#121,#122,#123,#124));
#517=EDGE_LOOP('',(#125,#126,#127,#128,#129,#130,#131));
#518=EDGE_LOOP('',(#132,#133,#134,#135,#136,#137,#138,#139,#140,#141));
#519=EDGE_LOOP('',(#142,#143,#144,#145,#146,#147,#148,#149,#150,#151));
#520=EDGE_LOOP('',(#152,#153,#154,#155));
#521=EDGE_LOOP('',(#156,#157,#158,#159));
#522=EDGE_LOOP('',(#160,#161,#162,#163));
#523=EDGE_LOOP('',(#164,#165,#166,#167));
#524=EDGE_LOOP('',(#168,#169,#170,#171));
#525=EDGE_LOOP('',(#172,#173,#174,#175));
#526=EDGE_LOOP('',(#176,#177,#178,#179));
#527=EDGE_LOOP('',(#180,#181,#182,#183));
#528=EDGE_LOOP('',(#184,#185,#186,#187));
#529=EDGE_LOOP('',(#188,#189,#190,#191));
#530=EDGE_LOOP('',(#192,#193,#194,#195));
#531=EDGE_LOOP('',(#196,#197,#198,#199));
#532=EDGE_LOOP('',(#200,#201,#202,#203));
#533=EDGE_LOOP('',(#204,#205,#206,#207));
#534=EDGE_LOOP('',(#208,#209,#210,#211));
#535=EDGE_LOOP('',(#212,#213,#214,#215));
#536=EDGE_LOOP('',(#216,#217,#218,#219));
#537=EDGE_LOOP('',(#220,#221,#222,#223));
#538=EDGE_LOOP('',(#224,#225,#226,#227));
#539=EDGE_LOOP('',(#228,#229,#230,#231));
#540=FACE_BOUND('',#506,.T.);
#541=FACE_BOUND('',#507,.T.);
#542=FACE_BOUND('',#508,.T.);
#543=FACE_BOUND('',#509,.T.);
#544=FACE_BOUND('',#510,.T.);
#545=FACE_BOUND('',#511,.T.);
#546=FACE_BOUND('',#512,.T.);
#547=FACE_BOUND('',#513,.T.);
#548=FACE_BOUND('',#514,.T.);
#549=FACE_BOUND('',#515,.T.);
#550=FACE_BOUND('',#516,.T.);
#551=FACE_BOUND('',#517,.T.);
#552=FACE_BOUND('',#518,.T.);
#553=FACE_BOUND('',#519,.T.);
#554=FACE_BOUND('',#520,.T.);
#555=FACE_BOUND('',#521,.T.);
#556=FACE_BOUND('',#522,.T.);
#557=FACE_BOUND('',#523,.T.);
#558=FACE_BOUND('',#524,.T.);
#559=FACE_BOUND('',#525,.T.);
#560=FACE_BOUND('',#526,.T.);
#561=FACE_BOUND('',#527,.T.);
#562=FACE_BOUND('',#528,.T.);
#563=FACE_BOUND('',#529,.T.);
#564=FACE_BOUND('',#530,.T.);
#565=FACE_BOUND('',#531,.T.);
#566=FACE_BOUND('',#532,.T.);
#567=FACE_BOUND('',#533,.T.);
#568=FACE_BOUND('',#534,.T.);
#569=FACE_BOUND('',#535,.T.);
#570=FACE_BOUND('',#536,.T.);
#571=FACE_BOUND('',#537,.T.);
#572=FACE_BOUND('',#538,.T.);
#573=FACE_BOUND('',#539,.T.);
#574=PLANE('',#645);
#575=PLANE('',#647);
#576=PLANE('',#648);
#577=PLANE('',#651);
#578=PLANE('',#653);
#579=PLANE('',#658);
#580=PLANE('',#659);
#581=PLANE('',#660);
#582=PLANE('',#661);
#583=PLANE('',#662);
#584=PLANE('',#664);
#585=PLANE('',#666);
#586=PLANE('',#669);
#587=PLANE('',#678);
#588=PLANE('',#679);
#589=PLANE('',#680);
#590=PLANE('',#681);
#591=PLANE('',#682);
#592=PLANE('',#683);
#593=PLANE('',#695);
#594=PLANE('',#696);
#595=PLANE('',#697);
#596=PLANE('',#698);
#597=ADVANCED_FACE('',(#540),#574,.T.);
#598=ADVANCED_FACE('',(#541),#575,.T.);
#599=ADVANCED_FACE('',(#542),#576,.F.);
#600=ADVANCED_FACE('',(#543),#577,.F.);
#601=ADVANCED_FACE('',(#544),#578,.F.);
#602=ADVANCED_FACE('',(#545),#36,.F.);
#603=ADVANCED_FACE('',(#546),#579,.F.);
#604=ADVANCED_FACE('',(#547),#580,.F.);
#605=ADVANCED_FACE('',(#548),#581,.F.);
#606=ADVANCED_FACE('',(#549),#582,.F.);
#607=ADVANCED_FACE('',(#550),#583,.T.);
#608=ADVANCED_FACE('',(#551),#584,.F.);
#609=ADVANCED_FACE('',(#552),#585,.F.);
#610=ADVANCED_FACE('',(#553),#586,.T.);
#611=ADVANCED_FACE('',(#554),#23,.T.);
#612=ADVANCED_FACE('',(#555),#24,.T.);
#613=ADVANCED_FACE('',(#556),#25,.T.);
#614=ADVANCED_FACE('',(#557),#26,.T.);
#615=ADVANCED_FACE('',(#558),#587,.T.);
#616=ADVANCED_FACE('',(#559),#588,.T.);
#617=ADVANCED_FACE('',(#560),#589,.T.);
#618=ADVANCED_FACE('',(#561),#590,.T.);
#619=ADVANCED_FACE('',(#562),#591,.T.);
#620=ADVANCED_FACE('',(#563),#592,.F.);
#621=ADVANCED_FACE('',(#564),#27,.F.);
#622=ADVANCED_FACE('',(#565),#21,.F.);
#623=ADVANCED_FACE('',(#566),#22,.F.);
#624=ADVANCED_FACE('',(#567),#28,.F.);
#625=ADVANCED_FACE('',(#568),#29,.F.);
#626=ADVANCED_FACE('',(#569),#37,.T.);
#627=ADVANCED_FACE('',(#570),#593,.T.);
#628=ADVANCED_FACE('',(#571),#594,.F.);
#629=ADVANCED_FACE('',(#572),#595,.F.);
#630=ADVANCED_FACE('',(#573),#596,.F.);
#631=CLOSED_SHELL('',(#597,#598,#599,#600,#601,#602,#603,#604,#605,#606,
#607,#608,#609,#610,#611,#612,#613,#614,#615,#616,#617,#618,#619,#620,#621,
#622,#623,#624));
#632=CLOSED_SHELL('',(#625,#626,#627,#628,#629,#630));
#633=STYLED_ITEM('',(#634),#641);
#634=PRESENTATION_STYLE_ASSIGNMENT((#635));
#635=SURFACE_STYLE_USAGE(.BOTH.,#636);
#636=SURFACE_SIDE_STYLE('',(#637));
#637=SURFACE_STYLE_FILL_AREA(#638);
#638=FILL_AREA_STYLE('',(#639));
#639=FILL_AREA_STYLE_COLOUR('',#640);
#640=COLOUR_RGB('',0.506983280181885,0.531564235687256,0.550000011920929);
#641=BREP_WITH_VOIDS('',#631,(#20));
#642=SHAPE_DEFINITION_REPRESENTATION(#1090,#643);
#643=SHAPE_REPRESENTATION('ScrollSawSandingEnds_01_15mmCurved',(#644),#1085);
#644=AXIS2_PLACEMENT_3D('',#873,#699,#700);
#645=AXIS2_PLACEMENT_3D('',#874,#701,#702);
#646=AXIS2_PLACEMENT_3D('',#884,#707,#708);
#647=AXIS2_PLACEMENT_3D('',#885,#709,#710);
#648=AXIS2_PLACEMENT_3D('',#891,#714,#715);
#649=AXIS2_PLACEMENT_3D('',#896,#718,#719);
#650=AXIS2_PLACEMENT_3D('',#912,#727,#728);
#651=AXIS2_PLACEMENT_3D('',#915,#730,#731);
#652=AXIS2_PLACEMENT_3D('',#918,#733,#734);
#653=AXIS2_PLACEMENT_3D('',#921,#736,#737);
#654=AXIS2_PLACEMENT_3D('',#959,#743,#744);
#655=AXIS2_PLACEMENT_3D('',#964,#746,#747);
#656=AXIS2_PLACEMENT_3D('',#968,#749,#750);
#657=AXIS2_PLACEMENT_3D('',#972,#752,#753);
#658=AXIS2_PLACEMENT_3D('',#975,#755,#756);
#659=AXIS2_PLACEMENT_3D('',#981,#760,#761);
#660=AXIS2_PLACEMENT_3D('',#990,#766,#767);
#661=AXIS2_PLACEMENT_3D('',#996,#771,#772);
#662=AXIS2_PLACEMENT_3D('',#1005,#777,#778);
#663=AXIS2_PLACEMENT_3D('',#1006,#779,#780);
#664=AXIS2_PLACEMENT_3D('',#1009,#783,#784);
#665=AXIS2_PLACEMENT_3D('',#1010,#785,#786);
#666=AXIS2_PLACEMENT_3D('',#1013,#789,#790);
#667=AXIS2_PLACEMENT_3D('',#1016,#792,#793);
#668=AXIS2_PLACEMENT_3D('',#1018,#795,#796);
#669=AXIS2_PLACEMENT_3D('',#1020,#798,#799);
#670=AXIS2_PLACEMENT_3D('',#1021,#800,#801);
#671=AXIS2_PLACEMENT_3D('',#1025,#804,#805);
#672=AXIS2_PLACEMENT_3D('',#1027,#807,#808);
#673=AXIS2_PLACEMENT_3D('',#1028,#809,#810);
#674=AXIS2_PLACEMENT_3D('',#1031,#812,#813);
#675=AXIS2_PLACEMENT_3D('',#1034,#815,#816);
#676=AXIS2_PLACEMENT_3D('',#1035,#817,#818);
#677=AXIS2_PLACEMENT_3D('',#1036,#819,#820);
#678=AXIS2_PLACEMENT_3D('',#1037,#821,#822);
#679=AXIS2_PLACEMENT_3D('',#1038,#823,#824);
#680=AXIS2_PLACEMENT_3D('',#1039,#825,#826);
#681=AXIS2_PLACEMENT_3D('',#1040,#827,#828);
#682=AXIS2_PLACEMENT_3D('',#1041,#829,#830);
#683=AXIS2_PLACEMENT_3D('',#1043,#832,#833);
#684=AXIS2_PLACEMENT_3D('',#1045,#835,#836);
#685=AXIS2_PLACEMENT_3D('',#1046,#837,#838);
#686=AXIS2_PLACEMENT_3D('',#1047,#839,#840);
#687=AXIS2_PLACEMENT_3D('',#1048,#841,#842);
#688=AXIS2_PLACEMENT_3D('',#1049,#843,#844);
#689=AXIS2_PLACEMENT_3D('',#1050,#845,#846);
#690=AXIS2_PLACEMENT_3D('',#1051,#847,#848);
#691=AXIS2_PLACEMENT_3D('',#1052,#849,#850);
#692=AXIS2_PLACEMENT_3D('',#1057,#852,#853);
#693=AXIS2_PLACEMENT_3D('',#1068,#855,#856);
#694=AXIS2_PLACEMENT_3D('',#1073,#858,#859);
#695=AXIS2_PLACEMENT_3D('',#1076,#861,#862);
#696=AXIS2_PLACEMENT_3D('',#1079,#865,#866);
#697=AXIS2_PLACEMENT_3D('',#1081,#868,#869);
#698=AXIS2_PLACEMENT_3D('',#1083,#871,#872);
#699=DIRECTION('',(0.,0.,1.));
#700=DIRECTION('',(1.,0.,0.));
#701=DIRECTION('',(0.,-1.,0.));
#702=DIRECTION('',(0.,0.,-1.));
#703=DIRECTION('',(0.,0.,-1.));
#704=DIRECTION('',(-1.,0.,0.));
#705=DIRECTION('',(4.3727482695599E-10,0.,1.));
#706=DIRECTION('',(-1.,0.,4.3780757892579E-10));
#707=DIRECTION('',(0.,-1.,0.));
#708=DIRECTION('',(1.,0.,0.));
#709=DIRECTION('',(0.,0.,-1.));
#710=DIRECTION('',(-1.,0.,0.));
#711=DIRECTION('',(1.,0.,0.));
#712=DIRECTION('',(0.,-1.,0.));
#713=DIRECTION('',(0.,1.,0.));
#714=DIRECTION('',(-1.,0.,4.3727482695599E-10));
#715=DIRECTION('',(4.3727482695599E-10,0.,1.));
#716=DIRECTION('',(4.3727482695599E-10,0.,1.));
#717=DIRECTION('',(0.,-1.,0.));
#718=DIRECTION('',(-1.,0.,4.3727482695599E-10));
#719=DIRECTION('',(4.3727482695599E-10,0.,1.));
#720=DIRECTION('',(-1.09563052903371E-16,0.,-1.));
#721=DIRECTION('',(0.,-1.,0.));
#722=DIRECTION('',(4.3727482695599E-10,0.,1.));
#723=DIRECTION('',(0.,-1.,0.));
#724=DIRECTION('',(-4.3727482695599E-10,0.,-1.));
#725=DIRECTION('',(0.,1.,0.));
#726=DIRECTION('',(-4.3727482695599E-10,0.,-1.));
#727=DIRECTION('',(-1.,0.,4.3727482695599E-10));
#728=DIRECTION('',(4.3727482695599E-10,0.,1.));
#729=DIRECTION('',(0.,1.,0.));
#730=DIRECTION('',(0.,-1.,0.));
#731=DIRECTION('',(0.,0.,-1.));
#732=DIRECTION('',(0.,0.,-1.));
#733=DIRECTION('',(0.,-1.,0.));
#734=DIRECTION('',(1.,0.,0.));
#735=DIRECTION('',(-1.,0.,4.37273808981108E-10));
#736=DIRECTION('',(1.,0.,1.09563053601005E-16));
#737=DIRECTION('',(1.09563053601005E-16,0.,-1.));
#738=DIRECTION('',(0.,-1.,0.));
#739=DIRECTION('',(-1.09563053601005E-16,0.,1.));
#740=DIRECTION('',(0.,-1.,0.));
#741=DIRECTION('',(-1.09563053601005E-16,0.,1.));
#742=DIRECTION('',(0.,-1.,0.));
#743=DIRECTION('',(0.,1.,0.));
#744=DIRECTION('',(-1.,0.,6.12323399571021E-17));
#745=DIRECTION('',(0.,-1.,0.));
#746=DIRECTION('',(0.,1.,0.));
#747=DIRECTION('',(-1.,0.,6.12323399571021E-17));
#748=DIRECTION('',(0.,-1.,0.));
#749=DIRECTION('',(0.,1.,0.));
#750=DIRECTION('',(-1.,0.,6.12323399571021E-17));
#751=DIRECTION('',(0.,-1.,0.));
#752=DIRECTION('',(0.,1.,0.));
#753=DIRECTION('',(-1.,0.,6.12323399571021E-17));
#754=DIRECTION('',(0.,-1.,0.));
#755=DIRECTION('',(0.758182476027172,0.,0.652042431936225));
#756=DIRECTION('',(0.652042431936225,0.,-0.758182476027172));
#757=DIRECTION('',(0.652042431936225,0.,-0.758182476027172));
#758=DIRECTION('',(-0.652042422506091,0.,0.758182484137156));
#759=DIRECTION('',(0.,-1.,0.));
#760=DIRECTION('',(-0.758182476027171,0.,0.652042431936226));
#761=DIRECTION('',(0.652042431936226,0.,0.758182476027171));
#762=DIRECTION('',(-0.652042431936226,0.,-0.758182476027171));
#763=DIRECTION('',(0.,-1.,0.));
#764=DIRECTION('',(0.652042431936226,0.,0.758182476027171));
#765=DIRECTION('',(0.,-1.,0.));
#766=DIRECTION('',(0.758182476027172,0.,0.652042431936225));
#767=DIRECTION('',(0.652042431936225,0.,-0.758182476027172));
#768=DIRECTION('',(0.652042431936225,0.,-0.758182476027172));
#769=DIRECTION('',(0.,-1.,0.));
#770=DIRECTION('',(-0.652042431936225,0.,0.758182476027172));
#771=DIRECTION('',(-0.758182476027171,0.,0.652042431936226));
#772=DIRECTION('',(0.652042431936226,0.,0.758182476027171));
#773=DIRECTION('',(0.652042431936226,0.,0.758182476027171));
#774=DIRECTION('',(0.,-1.,0.));
#775=DIRECTION('',(-0.652042431936226,0.,-0.758182476027171));
#776=DIRECTION('',(0.,-1.,0.));
#777=DIRECTION('',(0.,1.,0.));
#778=DIRECTION('',(0.,0.,1.));
#779=DIRECTION('',(0.,1.,0.));
#780=DIRECTION('',(0.,0.,1.));
#781=DIRECTION('',(-1.,0.,3.43899976719019E-10));
#782=DIRECTION('',(1.,0.,-3.43896954163669E-10));
#783=DIRECTION('',(0.,1.,0.));
#784=DIRECTION('',(0.,0.,1.));
#785=DIRECTION('',(0.,1.,0.));
#786=DIRECTION('',(0.,0.,1.));
#787=DIRECTION('',(-1.,0.,3.43899976719019E-10));
#788=DIRECTION('',(1.,0.,-3.4389972918901E-10));
#789=DIRECTION('',(0.,-1.,0.));
#790=DIRECTION('',(0.,0.,-1.));
#791=DIRECTION('',(-1.,0.,4.37273808981108E-10));
#792=DIRECTION('',(0.,-1.,0.));
#793=DIRECTION('',(0.,0.,-1.));
#794=DIRECTION('',(-1.,0.,3.4389972918901E-10));
#795=DIRECTION('',(0.,-1.,0.));
#796=DIRECTION('',(0.,0.,-1.));
#797=DIRECTION('',(1.,0.,-3.43896954163669E-10));
#798=DIRECTION('',(0.,-1.,0.));
#799=DIRECTION('',(0.,0.,-1.));
#800=DIRECTION('',(0.,-1.,0.));
#801=DIRECTION('',(0.,0.,-1.));
#802=DIRECTION('',(-1.,0.,4.3780757892579E-10));
#803=DIRECTION('',(-1.,0.,3.43899976719019E-10));
#804=DIRECTION('',(0.,-1.,0.));
#805=DIRECTION('',(0.,0.,-1.));
#806=DIRECTION('',(-1.,0.,3.4389972918901E-10));
#807=DIRECTION('',(0.,-1.,0.));
#808=DIRECTION('',(0.,0.,-1.));
#809=DIRECTION('',(0.,-1.,0.));
#810=DIRECTION('',(0.,0.,-1.));
#811=DIRECTION('',(0.,-1.,0.));
#812=DIRECTION('',(0.,-1.,0.));
#813=DIRECTION('',(0.,0.,-1.));
#814=DIRECTION('',(0.,1.,0.));
#815=DIRECTION('',(0.,-1.,0.));
#816=DIRECTION('',(0.,0.,-1.));
#817=DIRECTION('',(0.,-1.,0.));
#818=DIRECTION('',(0.,0.,-1.));
#819=DIRECTION('',(0.,-1.,0.));
#820=DIRECTION('',(0.,0.,-1.));
#821=DIRECTION('',(3.4389972918901E-10,0.,1.));
#822=DIRECTION('',(1.,0.,-3.4389972918901E-10));
#823=DIRECTION('',(3.4389972918901E-10,0.,1.));
#824=DIRECTION('',(1.,0.,-3.4389972918901E-10));
#825=DIRECTION('',(-3.43899976719019E-10,0.,-1.));
#826=DIRECTION('',(-1.,0.,3.43899976719019E-10));
#827=DIRECTION('',(-3.43896954163669E-10,0.,-1.));
#828=DIRECTION('',(-1.,0.,3.43896954163669E-10));
#829=DIRECTION('',(4.37273808981108E-10,0.,1.));
#830=DIRECTION('',(1.,0.,-4.37273808981108E-10));
#831=DIRECTION('',(-1.,0.,4.37273808981108E-10));
#832=DIRECTION('',(-4.3780757892579E-10,0.,-1.));
#833=DIRECTION('',(-1.,0.,4.3780757892579E-10));
#834=DIRECTION('',(-1.,0.,4.3780757892579E-10));
#835=DIRECTION('',(-1.,0.,4.37273808981108E-10));
#836=DIRECTION('',(4.37273808981108E-10,0.,1.));
#837=DIRECTION('',(1.,0.,-1.83697016643289E-16));
#838=DIRECTION('',(-1.83697016643289E-16,0.,-1.));
#839=DIRECTION('',(0.,-1.,0.));
#840=DIRECTION('',(0.,0.,-1.));
#841=DIRECTION('',(0.,-1.,0.));
#842=DIRECTION('',(0.,0.,-1.));
#843=DIRECTION('',(-1.,0.,4.37807578925788E-10));
#844=DIRECTION('',(4.37807578925788E-10,0.,1.));
#845=DIRECTION('',(-1.,0.,4.3780757892579E-10));
#846=DIRECTION('',(4.3780757892579E-10,0.,1.));
#847=DIRECTION('',(0.,0.,-1.));
#848=DIRECTION('',(-1.,0.,0.));
#849=DIRECTION('',(1.09563053601005E-16,0.,-1.));
#850=DIRECTION('',(-1.,0.,-1.09563053601005E-16));
#851=DIRECTION('',(0.,0.,-1.));
#852=DIRECTION('',(0.,0.,1.));
#853=DIRECTION('',(1.,0.,0.));
#854=DIRECTION('',(0.,0.,-1.));
#855=DIRECTION('',(0.,0.,-1.));
#856=DIRECTION('',(0.,1.,0.));
#857=DIRECTION('',(0.,0.,-1.));
#858=DIRECTION('',(0.,0.,-1.));
#859=DIRECTION('',(0.,1.,0.));
#860=DIRECTION('',(0.,0.,-1.));
#861=DIRECTION('',(0.,0.,-1.));
#862=DIRECTION('',(-1.,0.,0.));
#863=DIRECTION('',(-1.,0.,-1.09563053601005E-16));
#864=DIRECTION('',(-1.,0.,-1.09563053601005E-16));
#865=DIRECTION('',(4.79285776892146E-31,-1.,-4.37452006985456E-15));
#866=DIRECTION('',(0.,4.37452006985456E-15,-1.));
#867=DIRECTION('',(-1.,0.,-1.09563053601005E-16));
#868=DIRECTION('',(1.09563053601005E-16,0.,-1.));
#869=DIRECTION('',(-1.,0.,-1.09563053601005E-16));
#870=DIRECTION('',(-1.,0.,-1.09563053601005E-16));
#871=DIRECTION('',(1.65270957549016E-32,1.,-1.50845519650157E-16));
#872=DIRECTION('',(0.,1.50845519650157E-16,1.));
#873=CARTESIAN_POINT('',(0.,0.,0.));
#874=CARTESIAN_POINT('',(-2.3596296527646E-8,-7.5,-18.2499999797038));
#875=CARTESIAN_POINT('',(-3.15,-7.5,-19.0500000726279));
#876=CARTESIAN_POINT('',(-3.15,-7.5,-17.4499998867797));
#877=CARTESIAN_POINT('',(-3.15,-7.5,-24.4972568194957));
#878=CARTESIAN_POINT('',(3.14999995245717,-7.5,-24.4972568194957));
#879=CARTESIAN_POINT('',(3.14999995245717,-7.5,-24.4972568194957));
#880=CARTESIAN_POINT('',(3.14999995918173,-7.5,-2.87164917835957));
#881=CARTESIAN_POINT('',(3.14999995387831,-7.5,-14.9999999810812));
#882=CARTESIAN_POINT('',(3.14999995387831,-7.5,-14.9999999810812));
#883=CARTESIAN_POINT('',(-2.21734167485388E-8,-7.5,-14.9999999797021));
#884=CARTESIAN_POINT('',(-2.3596296527646E-8,-7.5,-18.2499999797038));
#885=CARTESIAN_POINT('',(0.,0.,-24.4972568194957));
#886=CARTESIAN_POINT('',(-3.15,7.5,-24.4972568194957));
#887=CARTESIAN_POINT('',(-3.15,7.5,-24.4972568194957));
#888=CARTESIAN_POINT('',(3.14999995245717,7.5,-24.4972568194957));
#889=CARTESIAN_POINT('',(3.14999995245717,7.5,-24.4972568194957));
#890=CARTESIAN_POINT('',(-3.15,-7.5,-24.4972568194957));
#891=CARTESIAN_POINT('',(3.14999995918173,0.5,-2.87164917835957));
#892=CARTESIAN_POINT('',(3.14999995918173,7.5,-2.87164917835957));
#893=CARTESIAN_POINT('',(3.14999995387831,7.5,-14.9999999810812));
#894=CARTESIAN_POINT('',(3.14999995387831,3.01380958179113,-14.9999999810812));
#895=CARTESIAN_POINT('',(3.14999995387831,1.5,-14.9999999810812));
#896=CARTESIAN_POINT('',(3.14999995431559,1.5,-13.9999999810812));
#897=CARTESIAN_POINT('',(3.14999995918173,0.5,-13.9999999810812));
#898=CARTESIAN_POINT('',(3.14999995918173,0.5,-2.87164917835957));
#899=CARTESIAN_POINT('',(3.14999996174725,0.5,2.99540946463158));
#900=CARTESIAN_POINT('',(3.14999996174725,2.24882248202731,2.99540946463158));
#901=CARTESIAN_POINT('',(3.14999996174725,2.5,2.99540946463158));
#902=CARTESIAN_POINT('',(3.14999996190991,2.5,3.3674017678244));
#903=CARTESIAN_POINT('',(3.14999996009402,2.5,3.73939407124446));
#904=CARTESIAN_POINT('',(3.14999996009402,0.5,3.73939407124446));
#905=CARTESIAN_POINT('',(3.14999996009402,-2.5,3.73939407124446));
#906=CARTESIAN_POINT('',(3.14999995918173,-2.5,-2.87164917835957));
#907=CARTESIAN_POINT('',(3.14999996174725,-2.5,2.99540946463158));
#908=CARTESIAN_POINT('',(3.14999996174725,-2.37584131075557,2.99540946463158));
#909=CARTESIAN_POINT('',(3.14999996174725,-0.5,2.99540946473027));
#910=CARTESIAN_POINT('',(3.14999995918173,-0.5,-2.87164917835957));
#911=CARTESIAN_POINT('',(3.14999995431559,-0.5,-13.9999999810812));
#912=CARTESIAN_POINT('',(3.14999995431559,-1.5,-13.9999999810812));
#913=CARTESIAN_POINT('',(3.14999995387831,-1.5,-14.9999999810812));
#914=CARTESIAN_POINT('',(3.14999995387831,-2.75901113968222,-14.9999999810812));
#915=CARTESIAN_POINT('',(-2.3596296527646E-8,7.5,-18.2499999797038));
#916=CARTESIAN_POINT('',(-3.15,7.5,-19.0500000726279));
#917=CARTESIAN_POINT('',(-3.15,7.5,-17.4499998867797));
#918=CARTESIAN_POINT('',(-2.3596296527646E-8,7.5,-18.2499999797038));
#919=CARTESIAN_POINT('',(-2.35962959306307E-8,7.5,-14.9999999797021));
#920=CARTESIAN_POINT('',(-2.35962959306307E-8,7.5,-14.9999999797038));
#921=CARTESIAN_POINT('',(-3.15000000637433,0.5,-2.87164917835957));
#922=CARTESIAN_POINT('',(-3.15,3.15,-17.4499998867797));
#923=CARTESIAN_POINT('',(-3.15,-1.5,-17.4499998867797));
#924=CARTESIAN_POINT('',(-3.15,-1.5,-17.4499998867797));
#925=CARTESIAN_POINT('',(-3.15,-1.39739815564816,-17.4499998867797));
#926=CARTESIAN_POINT('',(-3.15000000925698,-1.2220904743143,-17.3242895911168));
#927=CARTESIAN_POINT('',(-3.15000000470969,-0.980851574701014,-17.0068406131151));
#928=CARTESIAN_POINT('',(-3.15000000694274,-0.747375745888346,-16.5651360244778));
#929=CARTESIAN_POINT('',(-3.15000000621192,-0.553366913130299,-15.9944896925839));
#930=CARTESIAN_POINT('',(-3.15000000637433,-0.499999999999999,-15.5984527810724));
#931=CARTESIAN_POINT('',(-3.15000000637433,-0.499999999999999,-15.396931437147));
#932=CARTESIAN_POINT('',(-3.15000000637433,-0.5,-15.396931437147));
#933=CARTESIAN_POINT('',(-3.15000000637433,-0.5,-2.87164917835957));
#934=CARTESIAN_POINT('',(-3.15000000546204,-0.5,3.73939407341102));
#935=CARTESIAN_POINT('',(-3.15000000546204,0.5,3.73939407341102));
#936=CARTESIAN_POINT('',(-3.15000000546204,0.5,3.73939407341102));
#937=CARTESIAN_POINT('',(-3.15000000637433,0.5,-2.87164917835957));
#938=CARTESIAN_POINT('',(-3.15000000637433,0.5,-15.396931437147));
#939=CARTESIAN_POINT('',(-3.15000000637433,0.5,-15.396931437147));
#940=CARTESIAN_POINT('',(-3.15000000637433,0.5,-15.5985234421763));
#941=CARTESIAN_POINT('',(-3.15000000637432,0.553065193780396,-15.992935366845));
#942=CARTESIAN_POINT('',(-3.15000000637433,0.747052181123713,-16.5645866676972));
#943=CARTESIAN_POINT('',(-3.15000000637433,0.981101712106977,-17.0075016856969));
#944=CARTESIAN_POINT('',(-3.15000000637433,1.22335408210925,-17.3256296429403));
#945=CARTESIAN_POINT('',(-3.15000000637433,1.39793869793909,-17.4499999093963));
#946=CARTESIAN_POINT('',(-3.15000000637433,1.49999999401326,-17.4499999118786));
#947=CARTESIAN_POINT('',(-3.15,1.5,-17.4499998867797));
#948=CARTESIAN_POINT('',(-3.15,3.15,-17.4499998867797));
#949=CARTESIAN_POINT('',(-2.5760738380798,2.5,2.99540946482896));
#950=CARTESIAN_POINT('',(-2.5760738380798,-2.5,2.99540946482896));
#951=CARTESIAN_POINT('',(-2.47075280796168,2.5,3.32070053955708));
#952=CARTESIAN_POINT('',(-2.47075280796168,-2.5,3.32070053955708));
#953=CARTESIAN_POINT('',(-1.36079484744518,2.5,3.92096766679561));
#954=CARTESIAN_POINT('',(-1.36079484744518,-2.5,3.92096766679561));
#955=CARTESIAN_POINT('',(0.551795265779531,2.5,3.90231949766794));
#956=CARTESIAN_POINT('',(0.551795265779531,-2.5,3.90231949766794));
#957=CARTESIAN_POINT('',(1.29025343614017,2.5,3.73939407188402));
#958=CARTESIAN_POINT('',(1.29025343614017,-2.5,3.73939407188402));
#959=CARTESIAN_POINT('',(-1.28217748918136E-11,0.5,2.87164919201183));
#960=CARTESIAN_POINT('',(-1.29025343214352,0.5,3.73939407277146));
#961=CARTESIAN_POINT('',(-2.5760738380798,0.5,2.99540946482896));
#962=CARTESIAN_POINT('',(-1.29025343214352,2.5,3.73939407277146));
#963=CARTESIAN_POINT('',(-1.29025343214352,-0.5,3.73939407277146));
#964=CARTESIAN_POINT('',(-1.28217748918136E-11,-0.5,2.87164919201183));
#965=CARTESIAN_POINT('',(-2.5760738380798,-0.5,2.99540946482896));
#966=CARTESIAN_POINT('',(-2.5760738380798,2.5,2.99540946482896));
#967=CARTESIAN_POINT('',(-2.5760738380798,-2.5,2.99540946482896));
#968=CARTESIAN_POINT('',(-1.28217748918136E-11,-2.5,2.87164919201183));
#969=CARTESIAN_POINT('',(1.29025343614017,-2.5,3.73939407188402));
#970=CARTESIAN_POINT('',(1.29025343614017,2.5,3.73939407188402));
#971=CARTESIAN_POINT('',(1.29025343614017,2.5,3.73939407188402));
#972=CARTESIAN_POINT('',(-1.28217748918136E-11,2.5,2.87164919201183));
#973=CARTESIAN_POINT('',(-2.5760738380798,2.5,2.99540946482896));
#974=CARTESIAN_POINT('',(-2.5760738380798,2.5,2.99540946482896));
#975=CARTESIAN_POINT('',(-1.87474935491894,2.5,2.17992276166699));
#976=CARTESIAN_POINT('',(-1.87474935491894,0.5,2.17992276166699));
#977=CARTESIAN_POINT('',(-0.189545619019617,0.5,0.220400070328778));
#978=CARTESIAN_POINT('',(-2.3596296527646E-8,2.5,2.03005828353537E-8));
#979=CARTESIAN_POINT('',(-0.189545643391801,2.5,0.220400049368523));
#980=CARTESIAN_POINT('',(-0.189545619019617,2.5,0.220400070328778));
#981=CARTESIAN_POINT('',(1.87474935489329,2.5,2.17992276166699));
#982=CARTESIAN_POINT('',(1.87474935489329,2.5,2.17992276166699));
#983=CARTESIAN_POINT('',(2.57607383805427,2.5,2.99540946482895));
#984=CARTESIAN_POINT('',(0.189545618993969,2.5,0.220400070328777));
#985=CARTESIAN_POINT('',(2.57607383805416,2.24882248202731,2.99540946482895));
#986=CARTESIAN_POINT('',(2.57607383805416,0.5,2.99540946482895));
#987=CARTESIAN_POINT('',(1.87474935489329,0.5,2.17992276166699));
#988=CARTESIAN_POINT('',(0.189545618993969,0.5,0.220400070328778));
#989=CARTESIAN_POINT('',(0.189545618993969,2.5,0.220400070328778));
#990=CARTESIAN_POINT('',(-1.87474935491894,2.5,2.17992276166699));
#991=CARTESIAN_POINT('',(-1.87474935491894,-0.5,2.17992276166699));
#992=CARTESIAN_POINT('',(-0.189545619019617,-0.5,0.220400070328778));
#993=CARTESIAN_POINT('',(-0.189545619019617,2.5,0.220400070328778));
#994=CARTESIAN_POINT('',(-0.189545619019617,-2.5,0.220400070328778));
#995=CARTESIAN_POINT('',(-1.87474935491894,-2.5,2.17992276166699));
#996=CARTESIAN_POINT('',(1.87474935489329,2.5,2.17992276166699));
#997=CARTESIAN_POINT('',(1.87474935489329,-0.5,2.17992276166699));
#998=CARTESIAN_POINT('',(0.189545618993969,-0.5,0.220400070328778));
#999=CARTESIAN_POINT('',(2.57607383805416,-0.5,2.99540946482895));
#1000=CARTESIAN_POINT('',(2.57607383805416,2.5,2.99540946482895));
#1001=CARTESIAN_POINT('',(2.57607383805416,-2.5,2.99540946482895));
#1002=CARTESIAN_POINT('',(1.87474935489329,-2.5,2.17992276166699));
#1003=CARTESIAN_POINT('',(0.189545618993969,-2.5,0.220400070328777));
#1004=CARTESIAN_POINT('',(0.189545618993969,2.5,0.220400070328778));
#1005=CARTESIAN_POINT('',(-1.28217748918136E-11,2.5,2.87164919201183));
#1006=CARTESIAN_POINT('',(-1.28232927748551E-11,2.5,0.383410678312834));
#1007=CARTESIAN_POINT('',(3.14999996009402,2.5,3.73939407124446));
#1008=CARTESIAN_POINT('',(3.14999996174725,2.5,2.99540946463158));
#1009=CARTESIAN_POINT('',(-1.28217748918136E-11,-2.5,2.87164919201183));
#1010=CARTESIAN_POINT('',(-1.28232927748551E-11,-2.5,0.383410678312834));
#1011=CARTESIAN_POINT('',(2.97393803534011E-11,-2.5,2.99540946571487));
#1012=CARTESIAN_POINT('',(3.14999996009402,-2.5,3.73939407124446));
#1013=CARTESIAN_POINT('',(-1.28217748918136E-11,0.5,2.87164919201183));
#1014=CARTESIAN_POINT('',(-7.39035207200085E-9,0.5,-13.9999999797038));
#1015=CARTESIAN_POINT('',(-2.35962957469352E-8,0.5,-13.9999999797038));
#1016=CARTESIAN_POINT('',(-2.3596296527646E-8,0.5,-18.2499999797038));
#1017=CARTESIAN_POINT('',(3.14999996009402,0.5,3.73939407124446));
#1018=CARTESIAN_POINT('',(-1.28232927748551E-11,0.5,0.383410678312834));
#1019=CARTESIAN_POINT('',(3.14999996174725,0.5,2.99540946463158));
#1020=CARTESIAN_POINT('',(-1.28217748918136E-11,-0.5,2.87164919201183));
#1021=CARTESIAN_POINT('',(-2.3596296527646E-8,-0.5,-18.2499999797038));
#1022=CARTESIAN_POINT('',(-2.17356091696123E-8,-0.5,-13.9999999797004));
#1023=CARTESIAN_POINT('',(-7.39935765124519E-9,-0.5,-13.9999999797021));
#1024=CARTESIAN_POINT('',(2.97393803534011E-11,-0.5,2.99540946571487));
#1025=CARTESIAN_POINT('',(-1.28232927748551E-11,-0.5,0.383410678312834));
#1026=CARTESIAN_POINT('',(3.14999996009402,-0.5,3.73939407124446));
#1027=CARTESIAN_POINT('',(-2.3596296527646E-8,3.15,-18.2499999797038));
#1028=CARTESIAN_POINT('',(-2.3596296527646E-8,1.5,-18.2499999797038));
#1029=CARTESIAN_POINT('',(-2.35962959306307E-8,1.5,-14.9999999797038));
#1030=CARTESIAN_POINT('',(-2.35962959306307E-8,3.01380958179113,-14.9999999797038));
#1031=CARTESIAN_POINT('',(-2.3596296527646E-8,3.15,-18.2499999797038));
#1032=CARTESIAN_POINT('',(-2.21734167485388E-8,-2.75901113968222,-14.9999999797021));
#1033=CARTESIAN_POINT('',(-2.21734167485388E-8,-1.5,-14.9999999797021));
#1034=CARTESIAN_POINT('',(-2.3596296527646E-8,-1.5,-18.2499999797038));
#1035=CARTESIAN_POINT('',(-1.28232927748551E-11,2.5,0.383410678312834));
#1036=CARTESIAN_POINT('',(-1.28232927748551E-11,2.5,0.383410678312834));
#1037=CARTESIAN_POINT('',(3.14999996009402,0.5,3.73939407124446));
#1038=CARTESIAN_POINT('',(3.14999996009402,0.5,3.73939407124446));
#1039=CARTESIAN_POINT('',(2.97393803534011E-11,-2.37584131075557,2.99540946571487));
#1040=CARTESIAN_POINT('',(3.14999996174725,2.24882248202731,2.99540946463158));
#1041=CARTESIAN_POINT('',(-2.35962959306307E-8,3.01380958179113,-14.9999999797038));
#1042=CARTESIAN_POINT('',(-2.35962959306307E-8,1.5,-14.9999999797038));
#1043=CARTESIAN_POINT('',(3.14999995387831,-2.75901113968222,-14.9999999810812));
#1044=CARTESIAN_POINT('',(3.14999995387831,-1.5,-14.9999999810812));
#1045=CARTESIAN_POINT('',(-7.39035207200085E-9,1.5,-13.9999999797038));
#1046=CARTESIAN_POINT('',(-2.35962957469352E-8,1.5,-13.9999999797038));
#1047=CARTESIAN_POINT('',(-2.3596296527646E-8,1.5,-18.2499999797038));
#1048=CARTESIAN_POINT('',(-2.3596296527646E-8,-1.5,-18.2499999797038));
#1049=CARTESIAN_POINT('',(-2.17356091696123E-8,-1.5,-13.9999999797004));
#1050=CARTESIAN_POINT('',(3.14999995431612,-1.5,-13.9999999810812));
#1051=CARTESIAN_POINT('',(57.4968566001108,-3.33437878002885E-9,-18.4972568194957));
#1052=CARTESIAN_POINT('',(57.4968566001108,-3.33437878002885E-9,-24.2472568194957));
#1053=CARTESIAN_POINT('',(-0.196119712788642,-7.24999999999997,-24.2472568194957));
#1054=CARTESIAN_POINT('',(-0.196119711950618,7.24999999999998,-24.2472568194957));
#1055=CARTESIAN_POINT('',(-0.196119711950618,7.24999999999998,-18.4972568194957));
#1056=CARTESIAN_POINT('',(-0.196119711950618,7.24999999999998,-18.4972568194957));
#1057=CARTESIAN_POINT('',(57.4968566001108,-3.33437878002885E-9,-18.4972568194957));
#1058=CARTESIAN_POINT('',(-0.196119712788642,-7.25,-18.4972568194957));
#1059=CARTESIAN_POINT('',(-0.196119712788642,-7.25,-18.4972568194957));
#1060=CARTESIAN_POINT('',(0.459028139484192,-7.24999999999998,-18.4972568194957));
#1061=CARTESIAN_POINT('',(0.459028139484192,-7.24999999999998,-24.2472568194957));
#1062=CARTESIAN_POINT('',(-0.150268222361627,-2.50348941981417,-18.4972568194957));
#1063=CARTESIAN_POINT('',(-0.150268222361627,-2.50348941981417,-24.2472568194957));
#1064=CARTESIAN_POINT('',(-0.150268222361627,2.50348941981416,-18.4972568194957));
#1065=CARTESIAN_POINT('',(-0.150268222361627,2.50348941981416,-24.2472568194957));
#1066=CARTESIAN_POINT('',(0.459028139484192,7.24999999999997,-18.4972568194957));
#1067=CARTESIAN_POINT('',(0.459028139484192,7.24999999999997,-24.2472568194957));
#1068=CARTESIAN_POINT('',(17.1737578848575,0.,-18.4972568194957));
#1069=CARTESIAN_POINT('',(0.459028139484195,-7.25,-18.4972568194957));
#1070=CARTESIAN_POINT('',(0.459028139484195,7.24999999999998,-18.4972568194957));
#1071=CARTESIAN_POINT('',(0.459028139484195,7.24999999999998,-18.4972568194957));
#1072=CARTESIAN_POINT('',(0.459028139484196,7.24999999999998,-24.2472568194957));
#1073=CARTESIAN_POINT('',(17.1737578848575,0.,-24.2472568194957));
#1074=CARTESIAN_POINT('',(0.459028139484195,-7.24999999999997,-24.2472568194957));
#1075=CARTESIAN_POINT('',(0.459028139484195,-7.25,-18.4972568194957));
#1076=CARTESIAN_POINT('',(17.1737578848575,0.,-18.4972568194957));
#1077=CARTESIAN_POINT('',(0.84135141382415,-7.25,-18.4972568194957));
#1078=CARTESIAN_POINT('',(0.84135141382415,7.24999999999998,-18.4972568194957));
#1079=CARTESIAN_POINT('',(0.84135141382415,-7.24999999999997,-24.2472568194957));
#1080=CARTESIAN_POINT('',(0.84135141382415,-7.24999999999997,-24.2472568194957));
#1081=CARTESIAN_POINT('',(0.84135141382415,7.24999999999998,-24.2472568194957));
#1082=CARTESIAN_POINT('',(0.84135141382415,7.24999999999998,-24.2472568194957));
#1083=CARTESIAN_POINT('',(0.84135141382415,7.24999999999998,-18.4972568194957));
#1084=MECHANICAL_DESIGN_GEOMETRIC_PRESENTATION_REPRESENTATION('',(#633),
#1085);
#1085=(
GEOMETRIC_REPRESENTATION_CONTEXT(3)
GLOBAL_UNCERTAINTY_ASSIGNED_CONTEXT((#1086))
GLOBAL_UNIT_ASSIGNED_CONTEXT((#1089,#1088,#1087))
REPRESENTATION_CONTEXT('ScrollSawSandingEnds_01_15mmCurved',
'TOP_LEVEL_ASSEMBLY_PART')
);
#1086=UNCERTAINTY_MEASURE_WITH_UNIT(LENGTH_MEASURE(0.005),#1089,
'DISTANCE_ACCURACY_VALUE','Maximum Tolerance applied to model');
#1087=(
NAMED_UNIT(*)
SI_UNIT($,.STERADIAN.)
SOLID_ANGLE_UNIT()
);
#1088=(
NAMED_UNIT(*)
PLANE_ANGLE_UNIT()
SI_UNIT($,.RADIAN.)
);
#1089=(
LENGTH_UNIT()
NAMED_UNIT(*)
SI_UNIT(.MILLI.,.METRE.)
);
#1090=PRODUCT_DEFINITION_SHAPE('','',#1091);
#1091=PRODUCT_DEFINITION('','',#1093,#1092);
#1092=PRODUCT_DEFINITION_CONTEXT('',#1099,'design');
#1093=PRODUCT_DEFINITION_FORMATION_WITH_SPECIFIED_SOURCE('','',#1095,
 .NOT_KNOWN.);
#1094=PRODUCT_RELATED_PRODUCT_CATEGORY('','',(#1095));
#1095=PRODUCT('ScrollSawSandingEnds_01_15mmCurved',
'ScrollSawSandingEnds_01_15mmCurved',
'ScrollSawSandingEnds_01_15mmCurved',(#1097));
#1096=PRODUCT_CATEGORY('','');
#1097=PRODUCT_CONTEXT('',#1099,'mechanical');
#1098=APPLICATION_PROTOCOL_DEFINITION('international standard',
'automotive_design',2010,#1099);
#1099=APPLICATION_CONTEXT(
'core data for automotive mechanical design processes');
ENDSEC;
END-ISO-10303-21;
