ISO-10303-21;
HEADER;
/* Generated by software containing ST-Developer
 * from STEP Tools, Inc. (www.steptools.com) 
 */
/* OPTION: strings as raw bytes, not using required /X/ escapes */

FILE_DESCRIPTION(
/* description */ ('Unknown'),
/* implementation_level */ '2;1');

FILE_NAME(
/* name */ 'ZeroThickness01_10mmEllipse',
/* time_stamp */ '2023-05-08T10:17:53+01:00',
/* author */ ('Unknown'),
/* organization */ ('Unknown'),
/* preprocessor_version */ 'ST-DEVELOPER v18.102',
/* originating_system */ 'Solid Edge',
/* authorisation */ 'Unknown');

FILE_SCHEMA (('AUTOMOTIVE_DESIGN {1 0 10303 214 3 1 1}'));
ENDSEC;

DATA;
#10=PROPERTY_DEFINITION_REPRESENTATION(#14,#12);
#11=PROPERTY_DEFINITION_REPRESENTATION(#15,#13);
#12=REPRESENTATION('',(#16),#1559);
#13=REPRESENTATION('',(#17),#1559);
#14=PROPERTY_DEFINITION('pmi validation property','',#1564);
#15=PROPERTY_DEFINITION('pmi validation property','',#1564);
#16=VALUE_REPRESENTATION_ITEM('number of annotations',COUNT_MEASURE(0.));
#17=VALUE_REPRESENTATION_ITEM('number of views',COUNT_MEASURE(0.));
#18=SHAPE_REPRESENTATION_RELATIONSHIP('','',#798,#19);
#19=ADVANCED_BREP_SHAPE_REPRESENTATION('',(#796),#1559);
#20=B_SPLINE_SURFACE_WITH_KNOTS('',3,1,((#1460,#1461),(#1462,#1463),(#1464,
#1465),(#1466,#1467),(#1468,#1469),(#1470,#1471),(#1472,#1473)),
 .SURF_OF_LINEAR_EXTRUSION.,.F.,.F.,.F.,(4,1,1,1,4),(2,2),(0.,0.25,0.5,
0.75,1.),(0.,1.),.UNSPECIFIED.);
#21=B_SPLINE_SURFACE_WITH_KNOTS('',3,1,((#1474,#1475),(#1476,#1477),(#1478,
#1479),(#1480,#1481),(#1482,#1483),(#1484,#1485),(#1486,#1487),(#1488,#1489)),
 .SURF_OF_LINEAR_EXTRUSION.,.F.,.F.,.F.,(4,1,1,1,1,4),(2,2),(0.,0.25,0.375,
0.5,0.75,1.),(0.,1.),.UNSPECIFIED.);
#22=B_SPLINE_SURFACE_WITH_KNOTS('',3,1,((#1490,#1491),(#1492,#1493),(#1494,
#1495),(#1496,#1497),(#1498,#1499),(#1500,#1501),(#1502,#1503),(#1504,#1505)),
 .SURF_OF_LINEAR_EXTRUSION.,.F.,.F.,.F.,(4,1,1,1,1,4),(2,2),(0.,0.25,0.5,
0.625,0.75,1.),(0.,1.),.UNSPECIFIED.);
#23=B_SPLINE_SURFACE_WITH_KNOTS('',3,1,((#1506,#1507),(#1508,#1509),(#1510,
#1511),(#1512,#1513),(#1514,#1515),(#1516,#1517),(#1518,#1519),(#1520,#1521),
(#1522,#1523),(#1524,#1525),(#1526,#1527),(#1528,#1529),(#1530,#1531),(#1532,
#1533),(#1534,#1535),(#1536,#1537),(#1538,#1539),(#1540,#1541),(#1542,#1543)),
 .SURF_OF_LINEAR_EXTRUSION.,.T.,.F.,.F.,(1,1,1,1,1,1,1,1,1,1,1,1,1,1,1,
1,1,1,1,1,1,1,1),(2,2),(-1.17809724509617,-0.785398163397448,-0.392699081698725,
0.,0.392699081698724,0.785398163397448,1.17809724509617,1.5707963267949,
1.96349540849362,2.35619449019234,2.74889357189107,3.14159265358979,3.53429173528852,
3.92699081698724,4.31968989868597,4.71238898038469,5.10508806208341,5.49778714378214,
5.89048622548086,6.28318530717959,6.67588438887831,7.06858347057703,7.46128255227576),
(0.,1.),.UNSPECIFIED.);
#24=B_SPLINE_SURFACE_WITH_KNOTS('',3,1,((#1544,#1545),(#1546,#1547),(#1548,
#1549),(#1550,#1551),(#1552,#1553),(#1554,#1555),(#1556,#1557)),
 .SURF_OF_LINEAR_EXTRUSION.,.F.,.F.,.F.,(4,1,1,1,4),(2,2),(0.,0.25,0.5,
0.75,1.),(0.,1.),.UNSPECIFIED.);
#25=ELLIPSE('',#856,9.98345064935904,5.);
#26=ELLIPSE('',#879,9.98345064935904,5.);
#27=B_SPLINE_CURVE_WITH_KNOTS('',3,(#1147,#1148,#1149,#1150,#1151,#1152,
#1153,#1154,#1155,#1156,#1157,#1158),.UNSPECIFIED.,.F.,.F.,(4,2,2,2,2,4),
(0.,0.282999571932436,0.495180021739654,0.707360471546871,0.919540921354088,
1.),.UNSPECIFIED.);
#28=B_SPLINE_CURVE_WITH_KNOTS('',3,(#1170,#1171,#1172,#1173,#1174,#1175,
#1176,#1177,#1178,#1179,#1180,#1181,#1182,#1183,#1184,#1185),
 .UNSPECIFIED.,.F.,.F.,(4,2,2,2,2,2,2,4),(0.,0.00304821367094833,0.100774627082335,
0.296227453905108,0.491680280727881,0.687133107550654,0.882585934373426,
1.),.UNSPECIFIED.);
#29=B_SPLINE_CURVE_WITH_KNOTS('',3,(#1206,#1207,#1208,#1209,#1210,#1211,
#1212,#1213,#1214,#1215,#1216,#1217,#1218,#1219,#1220,#1221),
 .UNSPECIFIED.,.F.,.F.,(4,2,2,2,2,2,2,4),(0.,0.117414065626573,0.312866892449346,
0.508319719272119,0.703772546094892,0.899225372917665,0.996951786329051,
1.),.UNSPECIFIED.);
#30=B_SPLINE_CURVE_WITH_KNOTS('',3,(#1273,#1274,#1275,#1276,#1277,#1278,
#1279,#1280,#1281,#1282,#1283,#1284),.UNSPECIFIED.,.F.,.F.,(4,2,2,2,2,4),
(0.,0.282994087277759,0.495170424935657,0.707346762593555,0.919523100251453,
1.),.UNSPECIFIED.);
#31=B_SPLINE_CURVE_WITH_KNOTS('',3,(#1372,#1373,#1374,#1375,#1376,#1377,
#1378,#1379,#1380,#1381,#1382,#1383),.UNSPECIFIED.,.F.,.F.,(4,2,2,2,2,4),
(0.,0.282999571932436,0.495180021739654,0.707360471546871,0.919540921354088,
1.),.UNSPECIFIED.);
#32=B_SPLINE_CURVE_WITH_KNOTS('',3,(#1389,#1390,#1391,#1392,#1393,#1394,
#1395,#1396,#1397,#1398,#1399,#1400),.UNSPECIFIED.,.F.,.F.,(4,2,2,2,2,4),
(0.,0.282994087277759,0.495170424935657,0.707346762593555,0.919523100251453,
1.),.UNSPECIFIED.);
#33=B_SPLINE_CURVE_WITH_KNOTS('',3,(#1405,#1406,#1407,#1408,#1409,#1410,
#1411,#1412,#1413,#1414,#1415,#1416,#1417,#1418,#1419,#1420),
 .UNSPECIFIED.,.F.,.F.,(4,2,2,2,2,2,2,4),(0.,0.117414065626573,0.312866892449346,
0.508319719272119,0.703772546094892,0.899225372917665,0.996951786329051,
1.),.UNSPECIFIED.);
#34=B_SPLINE_CURVE_WITH_KNOTS('',3,(#1423,#1424,#1425,#1426,#1427,#1428,
#1429,#1430,#1431,#1432,#1433,#1434,#1435,#1436,#1437,#1438),
 .UNSPECIFIED.,.F.,.F.,(4,2,2,2,2,2,2,4),(0.,0.00304821367094833,0.100774627082335,
0.296227453905108,0.491680280727881,0.687133107550654,0.882585934373426,
1.),.UNSPECIFIED.);
#35=PLANE('',#806);
#36=PLANE('',#810);
#37=PLANE('',#815);
#38=PLANE('',#816);
#39=PLANE('',#820);
#40=PLANE('',#821);
#41=PLANE('',#822);
#42=PLANE('',#823);
#43=PLANE('',#824);
#44=PLANE('',#825);
#45=PLANE('',#826);
#46=PLANE('',#855);
#47=PLANE('',#857);
#48=PLANE('',#867);
#49=PLANE('',#868);
#50=PLANE('',#880);
#51=CIRCLE('',#801,1.);
#52=CIRCLE('',#802,1.);
#53=CIRCLE('',#804,1.);
#54=CIRCLE('',#805,1.);
#55=CIRCLE('',#807,1.);
#56=CIRCLE('',#808,32.45);
#57=CIRCLE('',#809,1.);
#58=CIRCLE('',#811,1.);
#59=CIRCLE('',#812,32.45);
#60=CIRCLE('',#813,1.);
#61=CIRCLE('',#814,1.);
#62=CIRCLE('',#817,1.);
#63=CIRCLE('',#818,32.45);
#64=CIRCLE('',#819,1.);
#65=CIRCLE('',#827,1.);
#66=CIRCLE('',#828,1.);
#67=CIRCLE('',#829,32.45);
#68=CIRCLE('',#830,1.);
#69=CIRCLE('',#832,40.);
#70=CIRCLE('',#833,40.);
#71=CIRCLE('',#835,4.125);
#72=CIRCLE('',#836,4.125);
#73=CIRCLE('',#838,40.);
#74=CIRCLE('',#839,40.);
#75=CIRCLE('',#841,4.125);
#76=CIRCLE('',#842,4.125);
#77=CIRCLE('',#844,40.);
#78=CIRCLE('',#845,40.);
#79=CIRCLE('',#847,4.125);
#80=CIRCLE('',#848,4.125);
#81=CIRCLE('',#850,4.125);
#82=CIRCLE('',#851,4.125);
#83=CIRCLE('',#853,40.);
#84=CIRCLE('',#854,40.);
#85=CIRCLE('',#858,34.5);
#86=CIRCLE('',#860,32.45);
#87=CIRCLE('',#861,32.45);
#88=CIRCLE('',#862,32.45);
#89=CIRCLE('',#863,32.45);
#90=CIRCLE('',#864,32.45);
#91=CIRCLE('',#866,34.5);
#92=CIRCLE('',#869,1.);
#93=CIRCLE('',#870,1.);
#94=CIRCLE('',#871,1.);
#95=CIRCLE('',#872,1.);
#96=CIRCLE('',#873,1.);
#97=CIRCLE('',#874,1.);
#98=CIRCLE('',#875,1.);
#99=CIRCLE('',#876,1.);
#100=CIRCLE('',#877,1.);
#101=CIRCLE('',#878,1.);
#102=ORIENTED_EDGE('',*,*,#328,.F.);
#103=ORIENTED_EDGE('',*,*,#329,.F.);
#104=ORIENTED_EDGE('',*,*,#330,.F.);
#105=ORIENTED_EDGE('',*,*,#331,.F.);
#106=ORIENTED_EDGE('',*,*,#332,.F.);
#107=ORIENTED_EDGE('',*,*,#333,.F.);
#108=ORIENTED_EDGE('',*,*,#334,.F.);
#109=ORIENTED_EDGE('',*,*,#335,.F.);
#110=ORIENTED_EDGE('',*,*,#336,.F.);
#111=ORIENTED_EDGE('',*,*,#335,.T.);
#112=ORIENTED_EDGE('',*,*,#337,.F.);
#113=ORIENTED_EDGE('',*,*,#338,.T.);
#114=ORIENTED_EDGE('',*,*,#339,.T.);
#115=ORIENTED_EDGE('',*,*,#340,.T.);
#116=ORIENTED_EDGE('',*,*,#341,.F.);
#117=ORIENTED_EDGE('',*,*,#342,.F.);
#118=ORIENTED_EDGE('',*,*,#343,.F.);
#119=ORIENTED_EDGE('',*,*,#344,.T.);
#120=ORIENTED_EDGE('',*,*,#345,.T.);
#121=ORIENTED_EDGE('',*,*,#346,.T.);
#122=ORIENTED_EDGE('',*,*,#347,.F.);
#123=ORIENTED_EDGE('',*,*,#348,.T.);
#124=ORIENTED_EDGE('',*,*,#349,.F.);
#125=ORIENTED_EDGE('',*,*,#350,.F.);
#126=ORIENTED_EDGE('',*,*,#351,.T.);
#127=ORIENTED_EDGE('',*,*,#343,.T.);
#128=ORIENTED_EDGE('',*,*,#352,.F.);
#129=ORIENTED_EDGE('',*,*,#331,.T.);
#130=ORIENTED_EDGE('',*,*,#353,.F.);
#131=ORIENTED_EDGE('',*,*,#354,.T.);
#132=ORIENTED_EDGE('',*,*,#355,.T.);
#133=ORIENTED_EDGE('',*,*,#356,.T.);
#134=ORIENTED_EDGE('',*,*,#357,.F.);
#135=ORIENTED_EDGE('',*,*,#358,.F.);
#136=ORIENTED_EDGE('',*,*,#359,.F.);
#137=ORIENTED_EDGE('',*,*,#360,.T.);
#138=ORIENTED_EDGE('',*,*,#361,.T.);
#139=ORIENTED_EDGE('',*,*,#362,.F.);
#140=ORIENTED_EDGE('',*,*,#363,.T.);
#141=ORIENTED_EDGE('',*,*,#347,.T.);
#142=ORIENTED_EDGE('',*,*,#364,.T.);
#143=ORIENTED_EDGE('',*,*,#365,.F.);
#144=ORIENTED_EDGE('',*,*,#366,.T.);
#145=ORIENTED_EDGE('',*,*,#337,.T.);
#146=ORIENTED_EDGE('',*,*,#334,.T.);
#147=ORIENTED_EDGE('',*,*,#367,.F.);
#148=ORIENTED_EDGE('',*,*,#368,.T.);
#149=ORIENTED_EDGE('',*,*,#357,.T.);
#150=ORIENTED_EDGE('',*,*,#369,.T.);
#151=ORIENTED_EDGE('',*,*,#370,.F.);
#152=ORIENTED_EDGE('',*,*,#371,.T.);
#153=ORIENTED_EDGE('',*,*,#372,.T.);
#154=ORIENTED_EDGE('',*,*,#373,.T.);
#155=ORIENTED_EDGE('',*,*,#374,.F.);
#156=ORIENTED_EDGE('',*,*,#375,.T.);
#157=ORIENTED_EDGE('',*,*,#353,.T.);
#158=ORIENTED_EDGE('',*,*,#330,.T.);
#159=ORIENTED_EDGE('',*,*,#376,.T.);
#160=ORIENTED_EDGE('',*,*,#377,.T.);
#161=ORIENTED_EDGE('',*,*,#361,.F.);
#162=ORIENTED_EDGE('',*,*,#378,.T.);
#163=ORIENTED_EDGE('',*,*,#379,.T.);
#164=ORIENTED_EDGE('',*,*,#380,.T.);
#165=ORIENTED_EDGE('',*,*,#372,.F.);
#166=ORIENTED_EDGE('',*,*,#381,.F.);
#167=ORIENTED_EDGE('',*,*,#382,.F.);
#168=ORIENTED_EDGE('',*,*,#383,.T.);
#169=ORIENTED_EDGE('',*,*,#384,.T.);
#170=ORIENTED_EDGE('',*,*,#385,.F.);
#171=ORIENTED_EDGE('',*,*,#386,.F.);
#172=ORIENTED_EDGE('',*,*,#387,.T.);
#173=ORIENTED_EDGE('',*,*,#382,.T.);
#174=ORIENTED_EDGE('',*,*,#388,.F.);
#175=ORIENTED_EDGE('',*,*,#389,.F.);
#176=ORIENTED_EDGE('',*,*,#390,.T.);
#177=ORIENTED_EDGE('',*,*,#391,.T.);
#178=ORIENTED_EDGE('',*,*,#392,.F.);
#179=ORIENTED_EDGE('',*,*,#384,.F.);
#180=ORIENTED_EDGE('',*,*,#393,.T.);
#181=ORIENTED_EDGE('',*,*,#389,.T.);
#182=ORIENTED_EDGE('',*,*,#394,.F.);
#183=ORIENTED_EDGE('',*,*,#395,.F.);
#184=ORIENTED_EDGE('',*,*,#396,.T.);
#185=ORIENTED_EDGE('',*,*,#397,.T.);
#186=ORIENTED_EDGE('',*,*,#398,.F.);
#187=ORIENTED_EDGE('',*,*,#391,.F.);
#188=ORIENTED_EDGE('',*,*,#399,.T.);
#189=ORIENTED_EDGE('',*,*,#395,.T.);
#190=ORIENTED_EDGE('',*,*,#400,.F.);
#191=ORIENTED_EDGE('',*,*,#397,.F.);
#192=ORIENTED_EDGE('',*,*,#401,.T.);
#193=ORIENTED_EDGE('',*,*,#402,.T.);
#194=ORIENTED_EDGE('',*,*,#403,.F.);
#195=ORIENTED_EDGE('',*,*,#402,.F.);
#196=ORIENTED_EDGE('',*,*,#404,.T.);
#197=ORIENTED_EDGE('',*,*,#386,.T.);
#198=ORIENTED_EDGE('',*,*,#405,.T.);
#199=ORIENTED_EDGE('',*,*,#404,.F.);
#200=ORIENTED_EDGE('',*,*,#401,.F.);
#201=ORIENTED_EDGE('',*,*,#396,.F.);
#202=ORIENTED_EDGE('',*,*,#399,.F.);
#203=ORIENTED_EDGE('',*,*,#390,.F.);
#204=ORIENTED_EDGE('',*,*,#393,.F.);
#205=ORIENTED_EDGE('',*,*,#383,.F.);
#206=ORIENTED_EDGE('',*,*,#387,.F.);
#207=ORIENTED_EDGE('',*,*,#406,.F.);
#208=ORIENTED_EDGE('',*,*,#403,.T.);
#209=ORIENTED_EDGE('',*,*,#385,.T.);
#210=ORIENTED_EDGE('',*,*,#381,.T.);
#211=ORIENTED_EDGE('',*,*,#392,.T.);
#212=ORIENTED_EDGE('',*,*,#388,.T.);
#213=ORIENTED_EDGE('',*,*,#398,.T.);
#214=ORIENTED_EDGE('',*,*,#394,.T.);
#215=ORIENTED_EDGE('',*,*,#400,.T.);
#216=ORIENTED_EDGE('',*,*,#339,.F.);
#217=ORIENTED_EDGE('',*,*,#407,.T.);
#218=ORIENTED_EDGE('',*,*,#408,.F.);
#219=ORIENTED_EDGE('',*,*,#409,.T.);
#220=ORIENTED_EDGE('',*,*,#345,.F.);
#221=ORIENTED_EDGE('',*,*,#410,.T.);
#222=ORIENTED_EDGE('',*,*,#411,.F.);
#223=ORIENTED_EDGE('',*,*,#412,.T.);
#224=ORIENTED_EDGE('',*,*,#355,.F.);
#225=ORIENTED_EDGE('',*,*,#413,.T.);
#226=ORIENTED_EDGE('',*,*,#414,.F.);
#227=ORIENTED_EDGE('',*,*,#415,.T.);
#228=ORIENTED_EDGE('',*,*,#379,.F.);
#229=ORIENTED_EDGE('',*,*,#416,.T.);
#230=ORIENTED_EDGE('',*,*,#417,.F.);
#231=ORIENTED_EDGE('',*,*,#418,.T.);
#232=ORIENTED_EDGE('',*,*,#419,.T.);
#233=ORIENTED_EDGE('',*,*,#420,.F.);
#234=ORIENTED_EDGE('',*,*,#406,.T.);
#235=ORIENTED_EDGE('',*,*,#419,.F.);
#236=ORIENTED_EDGE('',*,*,#420,.T.);
#237=ORIENTED_EDGE('',*,*,#333,.T.);
#238=ORIENTED_EDGE('',*,*,#421,.T.);
#239=ORIENTED_EDGE('',*,*,#422,.T.);
#240=ORIENTED_EDGE('',*,*,#423,.T.);
#241=ORIENTED_EDGE('',*,*,#417,.T.);
#242=ORIENTED_EDGE('',*,*,#424,.T.);
#243=ORIENTED_EDGE('',*,*,#359,.T.);
#244=ORIENTED_EDGE('',*,*,#425,.F.);
#245=ORIENTED_EDGE('',*,*,#426,.T.);
#246=ORIENTED_EDGE('',*,*,#370,.T.);
#247=ORIENTED_EDGE('',*,*,#427,.T.);
#248=ORIENTED_EDGE('',*,*,#414,.T.);
#249=ORIENTED_EDGE('',*,*,#428,.T.);
#250=ORIENTED_EDGE('',*,*,#374,.T.);
#251=ORIENTED_EDGE('',*,*,#329,.T.);
#252=ORIENTED_EDGE('',*,*,#429,.T.);
#253=ORIENTED_EDGE('',*,*,#367,.T.);
#254=ORIENTED_EDGE('',*,*,#430,.T.);
#255=ORIENTED_EDGE('',*,*,#411,.T.);
#256=ORIENTED_EDGE('',*,*,#431,.T.);
#257=ORIENTED_EDGE('',*,*,#350,.T.);
#258=ORIENTED_EDGE('',*,*,#432,.T.);
#259=ORIENTED_EDGE('',*,*,#433,.T.);
#260=ORIENTED_EDGE('',*,*,#362,.T.);
#261=ORIENTED_EDGE('',*,*,#434,.T.);
#262=ORIENTED_EDGE('',*,*,#408,.T.);
#263=ORIENTED_EDGE('',*,*,#435,.T.);
#264=ORIENTED_EDGE('',*,*,#365,.T.);
#265=ORIENTED_EDGE('',*,*,#436,.F.);
#266=ORIENTED_EDGE('',*,*,#422,.F.);
#267=ORIENTED_EDGE('',*,*,#437,.T.);
#268=ORIENTED_EDGE('',*,*,#341,.T.);
#269=ORIENTED_EDGE('',*,*,#438,.T.);
#270=ORIENTED_EDGE('',*,*,#434,.F.);
#271=ORIENTED_EDGE('',*,*,#364,.F.);
#272=ORIENTED_EDGE('',*,*,#346,.F.);
#273=ORIENTED_EDGE('',*,*,#409,.F.);
#274=ORIENTED_EDGE('',*,*,#427,.F.);
#275=ORIENTED_EDGE('',*,*,#373,.F.);
#276=ORIENTED_EDGE('',*,*,#380,.F.);
#277=ORIENTED_EDGE('',*,*,#415,.F.);
#278=ORIENTED_EDGE('',*,*,#426,.F.);
#279=ORIENTED_EDGE('',*,*,#439,.T.);
#280=ORIENTED_EDGE('',*,*,#376,.F.);
#281=ORIENTED_EDGE('',*,*,#371,.F.);
#282=ORIENTED_EDGE('',*,*,#424,.F.);
#283=ORIENTED_EDGE('',*,*,#416,.F.);
#284=ORIENTED_EDGE('',*,*,#378,.F.);
#285=ORIENTED_EDGE('',*,*,#360,.F.);
#286=ORIENTED_EDGE('',*,*,#428,.F.);
#287=ORIENTED_EDGE('',*,*,#413,.F.);
#288=ORIENTED_EDGE('',*,*,#354,.F.);
#289=ORIENTED_EDGE('',*,*,#375,.F.);
#290=ORIENTED_EDGE('',*,*,#423,.F.);
#291=ORIENTED_EDGE('',*,*,#438,.F.);
#292=ORIENTED_EDGE('',*,*,#340,.F.);
#293=ORIENTED_EDGE('',*,*,#418,.F.);
#294=ORIENTED_EDGE('',*,*,#433,.F.);
#295=ORIENTED_EDGE('',*,*,#440,.T.);
#296=ORIENTED_EDGE('',*,*,#348,.F.);
#297=ORIENTED_EDGE('',*,*,#363,.F.);
#298=ORIENTED_EDGE('',*,*,#431,.F.);
#299=ORIENTED_EDGE('',*,*,#410,.F.);
#300=ORIENTED_EDGE('',*,*,#344,.F.);
#301=ORIENTED_EDGE('',*,*,#351,.F.);
#302=ORIENTED_EDGE('',*,*,#430,.F.);
#303=ORIENTED_EDGE('',*,*,#369,.F.);
#304=ORIENTED_EDGE('',*,*,#356,.F.);
#305=ORIENTED_EDGE('',*,*,#412,.F.);
#306=ORIENTED_EDGE('',*,*,#435,.F.);
#307=ORIENTED_EDGE('',*,*,#407,.F.);
#308=ORIENTED_EDGE('',*,*,#338,.F.);
#309=ORIENTED_EDGE('',*,*,#366,.F.);
#310=ORIENTED_EDGE('',*,*,#336,.T.);
#311=ORIENTED_EDGE('',*,*,#437,.F.);
#312=ORIENTED_EDGE('',*,*,#421,.F.);
#313=ORIENTED_EDGE('',*,*,#332,.T.);
#314=ORIENTED_EDGE('',*,*,#352,.T.);
#315=ORIENTED_EDGE('',*,*,#368,.F.);
#316=ORIENTED_EDGE('',*,*,#429,.F.);
#317=ORIENTED_EDGE('',*,*,#328,.T.);
#318=ORIENTED_EDGE('',*,*,#342,.T.);
#319=ORIENTED_EDGE('',*,*,#440,.F.);
#320=ORIENTED_EDGE('',*,*,#432,.F.);
#321=ORIENTED_EDGE('',*,*,#349,.T.);
#322=ORIENTED_EDGE('',*,*,#405,.F.);
#323=ORIENTED_EDGE('',*,*,#436,.T.);
#324=ORIENTED_EDGE('',*,*,#377,.F.);
#325=ORIENTED_EDGE('',*,*,#439,.F.);
#326=ORIENTED_EDGE('',*,*,#425,.T.);
#327=ORIENTED_EDGE('',*,*,#358,.T.);
#328=EDGE_CURVE('',#441,#442,#518,.T.);
#329=EDGE_CURVE('',#443,#441,#51,.F.);
#330=EDGE_CURVE('',#444,#443,#519,.T.);
#331=EDGE_CURVE('',#442,#444,#52,.F.);
#332=EDGE_CURVE('',#445,#446,#520,.T.);
#333=EDGE_CURVE('',#447,#445,#53,.F.);
#334=EDGE_CURVE('',#448,#447,#521,.T.);
#335=EDGE_CURVE('',#446,#448,#54,.F.);
#336=EDGE_CURVE('',#446,#449,#27,.T.);
#337=EDGE_CURVE('',#450,#448,#522,.T.);
#338=EDGE_CURVE('',#450,#451,#55,.F.);
#339=EDGE_CURVE('',#451,#452,#56,.T.);
#340=EDGE_CURVE('',#452,#453,#57,.F.);
#341=EDGE_CURVE('',#449,#453,#523,.T.);
#342=EDGE_CURVE('',#454,#455,#28,.T.);
#343=EDGE_CURVE('',#456,#454,#524,.T.);
#344=EDGE_CURVE('',#456,#457,#58,.F.);
#345=EDGE_CURVE('',#457,#458,#59,.T.);
#346=EDGE_CURVE('',#458,#459,#60,.F.);
#347=EDGE_CURVE('',#460,#459,#525,.T.);
#348=EDGE_CURVE('',#460,#455,#61,.F.);
#349=EDGE_CURVE('',#461,#454,#526,.T.);
#350=EDGE_CURVE('',#462,#461,#527,.T.);
#351=EDGE_CURVE('',#462,#456,#528,.T.);
#352=EDGE_CURVE('',#442,#463,#29,.T.);
#353=EDGE_CURVE('',#464,#444,#529,.T.);
#354=EDGE_CURVE('',#464,#465,#62,.F.);
#355=EDGE_CURVE('',#465,#466,#63,.T.);
#356=EDGE_CURVE('',#466,#467,#64,.F.);
#357=EDGE_CURVE('',#463,#467,#530,.T.);
#358=EDGE_CURVE('',#468,#469,#531,.T.);
#359=EDGE_CURVE('',#470,#468,#532,.T.);
#360=EDGE_CURVE('',#470,#471,#533,.T.);
#361=EDGE_CURVE('',#471,#469,#534,.T.);
#362=EDGE_CURVE('',#472,#473,#535,.T.);
#363=EDGE_CURVE('',#472,#460,#536,.F.);
#364=EDGE_CURVE('',#459,#473,#537,.F.);
#365=EDGE_CURVE('',#474,#447,#538,.T.);
#366=EDGE_CURVE('',#474,#450,#539,.T.);
#367=EDGE_CURVE('',#475,#476,#540,.T.);
#368=EDGE_CURVE('',#475,#463,#541,.T.);
#369=EDGE_CURVE('',#467,#476,#542,.F.);
#370=EDGE_CURVE('',#477,#478,#543,.T.);
#371=EDGE_CURVE('',#477,#479,#544,.F.);
#372=EDGE_CURVE('',#479,#480,#545,.T.);
#373=EDGE_CURVE('',#480,#478,#546,.F.);
#374=EDGE_CURVE('',#481,#443,#547,.T.);
#375=EDGE_CURVE('',#481,#464,#548,.T.);
#376=EDGE_CURVE('',#479,#482,#65,.F.);
#377=EDGE_CURVE('',#482,#469,#30,.T.);
#378=EDGE_CURVE('',#471,#483,#66,.F.);
#379=EDGE_CURVE('',#483,#484,#67,.T.);
#380=EDGE_CURVE('',#484,#480,#68,.F.);
#381=EDGE_CURVE('',#485,#486,#69,.T.);
#382=EDGE_CURVE('',#487,#485,#549,.T.);
#383=EDGE_CURVE('',#487,#488,#70,.T.);
#384=EDGE_CURVE('',#488,#486,#550,.T.);
#385=EDGE_CURVE('',#489,#485,#71,.T.);
#386=EDGE_CURVE('',#490,#489,#551,.T.);
#387=EDGE_CURVE('',#490,#487,#72,.T.);
#388=EDGE_CURVE('',#491,#492,#73,.T.);
#389=EDGE_CURVE('',#493,#491,#552,.T.);
#390=EDGE_CURVE('',#493,#494,#74,.T.);
#391=EDGE_CURVE('',#494,#492,#553,.T.);
#392=EDGE_CURVE('',#486,#491,#75,.T.);
#393=EDGE_CURVE('',#488,#493,#76,.T.);
#394=EDGE_CURVE('',#495,#496,#77,.T.);
#395=EDGE_CURVE('',#497,#495,#554,.T.);
#396=EDGE_CURVE('',#497,#498,#78,.T.);
#397=EDGE_CURVE('',#498,#496,#555,.T.);
#398=EDGE_CURVE('',#492,#495,#79,.T.);
#399=EDGE_CURVE('',#494,#497,#80,.T.);
#400=EDGE_CURVE('',#496,#499,#81,.T.);
#401=EDGE_CURVE('',#498,#500,#82,.T.);
#402=EDGE_CURVE('',#500,#499,#556,.T.);
#403=EDGE_CURVE('',#499,#489,#83,.T.);
#404=EDGE_CURVE('',#500,#490,#84,.T.);
#405=EDGE_CURVE('',#501,#501,#25,.F.);
#406=EDGE_CURVE('',#502,#502,#85,.T.);
#407=EDGE_CURVE('',#451,#503,#557,.F.);
#408=EDGE_CURVE('',#504,#503,#86,.T.);
#409=EDGE_CURVE('',#504,#458,#558,.T.);
#410=EDGE_CURVE('',#457,#505,#559,.F.);
#411=EDGE_CURVE('',#506,#505,#87,.T.);
#412=EDGE_CURVE('',#506,#466,#560,.T.);
#413=EDGE_CURVE('',#465,#507,#561,.F.);
#414=EDGE_CURVE('',#508,#507,#88,.T.);
#415=EDGE_CURVE('',#508,#484,#562,.T.);
#416=EDGE_CURVE('',#483,#509,#563,.F.);
#417=EDGE_CURVE('',#510,#509,#89,.T.);
#418=EDGE_CURVE('',#510,#452,#564,.T.);
#419=EDGE_CURVE('',#511,#511,#90,.T.);
#420=EDGE_CURVE('',#512,#512,#91,.T.);
#421=EDGE_CURVE('',#445,#513,#31,.T.);
#422=EDGE_CURVE('',#513,#514,#565,.T.);
#423=EDGE_CURVE('',#514,#510,#92,.F.);
#424=EDGE_CURVE('',#509,#470,#93,.F.);
#425=EDGE_CURVE('',#515,#468,#32,.T.);
#426=EDGE_CURVE('',#515,#477,#94,.F.);
#427=EDGE_CURVE('',#478,#508,#95,.F.);
#428=EDGE_CURVE('',#507,#481,#96,.F.);
#429=EDGE_CURVE('',#441,#475,#33,.T.);
#430=EDGE_CURVE('',#476,#506,#97,.F.);
#431=EDGE_CURVE('',#505,#462,#98,.F.);
#432=EDGE_CURVE('',#461,#516,#34,.T.);
#433=EDGE_CURVE('',#516,#472,#99,.F.);
#434=EDGE_CURVE('',#473,#504,#100,.F.);
#435=EDGE_CURVE('',#503,#474,#101,.F.);
#436=EDGE_CURVE('',#517,#517,#26,.T.);
#437=EDGE_CURVE('',#513,#449,#566,.T.);
#438=EDGE_CURVE('',#453,#514,#567,.F.);
#439=EDGE_CURVE('',#515,#482,#568,.T.);
#440=EDGE_CURVE('',#516,#455,#569,.T.);
#441=VERTEX_POINT('',#1130);
#442=VERTEX_POINT('',#1131);
#443=VERTEX_POINT('',#1133);
#444=VERTEX_POINT('',#1135);
#445=VERTEX_POINT('',#1139);
#446=VERTEX_POINT('',#1140);
#447=VERTEX_POINT('',#1142);
#448=VERTEX_POINT('',#1144);
#449=VERTEX_POINT('',#1159);
#450=VERTEX_POINT('',#1161);
#451=VERTEX_POINT('',#1163);
#452=VERTEX_POINT('',#1165);
#453=VERTEX_POINT('',#1167);
#454=VERTEX_POINT('',#1186);
#455=VERTEX_POINT('',#1187);
#456=VERTEX_POINT('',#1189);
#457=VERTEX_POINT('',#1191);
#458=VERTEX_POINT('',#1193);
#459=VERTEX_POINT('',#1195);
#460=VERTEX_POINT('',#1197);
#461=VERTEX_POINT('',#1201);
#462=VERTEX_POINT('',#1203);
#463=VERTEX_POINT('',#1222);
#464=VERTEX_POINT('',#1224);
#465=VERTEX_POINT('',#1226);
#466=VERTEX_POINT('',#1228);
#467=VERTEX_POINT('',#1230);
#468=VERTEX_POINT('',#1234);
#469=VERTEX_POINT('',#1235);
#470=VERTEX_POINT('',#1237);
#471=VERTEX_POINT('',#1239);
#472=VERTEX_POINT('',#1243);
#473=VERTEX_POINT('',#1244);
#474=VERTEX_POINT('',#1249);
#475=VERTEX_POINT('',#1253);
#476=VERTEX_POINT('',#1254);
#477=VERTEX_POINT('',#1259);
#478=VERTEX_POINT('',#1260);
#479=VERTEX_POINT('',#1262);
#480=VERTEX_POINT('',#1264);
#481=VERTEX_POINT('',#1268);
#482=VERTEX_POINT('',#1272);
#483=VERTEX_POINT('',#1286);
#484=VERTEX_POINT('',#1288);
#485=VERTEX_POINT('',#1292);
#486=VERTEX_POINT('',#1293);
#487=VERTEX_POINT('',#1295);
#488=VERTEX_POINT('',#1297);
#489=VERTEX_POINT('',#1301);
#490=VERTEX_POINT('',#1303);
#491=VERTEX_POINT('',#1307);
#492=VERTEX_POINT('',#1308);
#493=VERTEX_POINT('',#1310);
#494=VERTEX_POINT('',#1312);
#495=VERTEX_POINT('',#1319);
#496=VERTEX_POINT('',#1320);
#497=VERTEX_POINT('',#1322);
#498=VERTEX_POINT('',#1324);
#499=VERTEX_POINT('',#1331);
#500=VERTEX_POINT('',#1333);
#501=VERTEX_POINT('',#1340);
#502=VERTEX_POINT('',#1343);
#503=VERTEX_POINT('',#1346);
#504=VERTEX_POINT('',#1348);
#505=VERTEX_POINT('',#1351);
#506=VERTEX_POINT('',#1353);
#507=VERTEX_POINT('',#1356);
#508=VERTEX_POINT('',#1358);
#509=VERTEX_POINT('',#1361);
#510=VERTEX_POINT('',#1363);
#511=VERTEX_POINT('',#1366);
#512=VERTEX_POINT('',#1369);
#513=VERTEX_POINT('',#1384);
#514=VERTEX_POINT('',#1386);
#515=VERTEX_POINT('',#1401);
#516=VERTEX_POINT('',#1439);
#517=VERTEX_POINT('',#1444);
#518=LINE('',#1129,#570);
#519=LINE('',#1134,#571);
#520=LINE('',#1138,#572);
#521=LINE('',#1143,#573);
#522=LINE('',#1160,#574);
#523=LINE('',#1168,#575);
#524=LINE('',#1188,#576);
#525=LINE('',#1196,#577);
#526=LINE('',#1200,#578);
#527=LINE('',#1202,#579);
#528=LINE('',#1204,#580);
#529=LINE('',#1223,#581);
#530=LINE('',#1231,#582);
#531=LINE('',#1233,#583);
#532=LINE('',#1236,#584);
#533=LINE('',#1238,#585);
#534=LINE('',#1240,#586);
#535=LINE('',#1242,#587);
#536=LINE('',#1245,#588);
#537=LINE('',#1246,#589);
#538=LINE('',#1248,#590);
#539=LINE('',#1250,#591);
#540=LINE('',#1252,#592);
#541=LINE('',#1255,#593);
#542=LINE('',#1256,#594);
#543=LINE('',#1258,#595);
#544=LINE('',#1261,#596);
#545=LINE('',#1263,#597);
#546=LINE('',#1265,#598);
#547=LINE('',#1267,#599);
#548=LINE('',#1269,#600);
#549=LINE('',#1294,#601);
#550=LINE('',#1298,#602);
#551=LINE('',#1302,#603);
#552=LINE('',#1309,#604);
#553=LINE('',#1313,#605);
#554=LINE('',#1321,#606);
#555=LINE('',#1325,#607);
#556=LINE('',#1334,#608);
#557=LINE('',#1345,#609);
#558=LINE('',#1349,#610);
#559=LINE('',#1350,#611);
#560=LINE('',#1354,#612);
#561=LINE('',#1355,#613);
#562=LINE('',#1359,#614);
#563=LINE('',#1360,#615);
#564=LINE('',#1364,#616);
#565=LINE('',#1385,#617);
#566=LINE('',#1446,#618);
#567=LINE('',#1447,#619);
#568=LINE('',#1451,#620);
#569=LINE('',#1456,#621);
#570=VECTOR('',#895,1000.);
#571=VECTOR('',#898,1000.);
#572=VECTOR('',#903,1000.);
#573=VECTOR('',#906,1000.);
#574=VECTOR('',#911,1000.);
#575=VECTOR('',#918,1000.);
#576=VECTOR('',#921,1000.);
#577=VECTOR('',#928,1000.);
#578=VECTOR('',#933,1000.);
#579=VECTOR('',#934,1000.);
#580=VECTOR('',#935,1000.);
#581=VECTOR('',#938,1000.);
#582=VECTOR('',#945,1000.);
#583=VECTOR('',#948,1000.);
#584=VECTOR('',#949,1000.);
#585=VECTOR('',#950,1000.);
#586=VECTOR('',#951,1000.);
#587=VECTOR('',#954,1000.);
#588=VECTOR('',#955,1000.);
#589=VECTOR('',#956,1000.);
#590=VECTOR('',#959,1000.);
#591=VECTOR('',#960,1000.);
#592=VECTOR('',#963,1000.);
#593=VECTOR('',#964,1000.);
#594=VECTOR('',#965,1000.);
#595=VECTOR('',#968,1000.);
#596=VECTOR('',#969,1000.);
#597=VECTOR('',#970,1000.);
#598=VECTOR('',#971,1000.);
#599=VECTOR('',#974,1000.);
#600=VECTOR('',#975,1000.);
#601=VECTOR('',#990,1000.);
#602=VECTOR('',#993,1000.);
#603=VECTOR('',#998,1000.);
#604=VECTOR('',#1005,1000.);
#605=VECTOR('',#1008,1000.);
#606=VECTOR('',#1019,1000.);
#607=VECTOR('',#1022,1000.);
#608=VECTOR('',#1035,1000.);
#609=VECTOR('',#1052,1000.);
#610=VECTOR('',#1055,1000.);
#611=VECTOR('',#1056,1000.);
#612=VECTOR('',#1059,1000.);
#613=VECTOR('',#1060,1000.);
#614=VECTOR('',#1063,1000.);
#615=VECTOR('',#1064,1000.);
#616=VECTOR('',#1067,1000.);
#617=VECTOR('',#1078,1000.);
#618=VECTOR('',#1103,1000.);
#619=VECTOR('',#1104,1000.);
#620=VECTOR('',#1111,1000.);
#621=VECTOR('',#1120,1000.);
#622=EDGE_LOOP('',(#102,#103,#104,#105));
#623=EDGE_LOOP('',(#106,#107,#108,#109));
#624=EDGE_LOOP('',(#110,#111,#112,#113,#114,#115,#116));
#625=EDGE_LOOP('',(#117,#118,#119,#120,#121,#122,#123));
#626=EDGE_LOOP('',(#124,#125,#126,#127));
#627=EDGE_LOOP('',(#128,#129,#130,#131,#132,#133,#134));
#628=EDGE_LOOP('',(#135,#136,#137,#138));
#629=EDGE_LOOP('',(#139,#140,#141,#142));
#630=EDGE_LOOP('',(#143,#144,#145,#146));
#631=EDGE_LOOP('',(#147,#148,#149,#150));
#632=EDGE_LOOP('',(#151,#152,#153,#154));
#633=EDGE_LOOP('',(#155,#156,#157,#158));
#634=EDGE_LOOP('',(#159,#160,#161,#162,#163,#164,#165));
#635=EDGE_LOOP('',(#166,#167,#168,#169));
#636=EDGE_LOOP('',(#170,#171,#172,#173));
#637=EDGE_LOOP('',(#174,#175,#176,#177));
#638=EDGE_LOOP('',(#178,#179,#180,#181));
#639=EDGE_LOOP('',(#182,#183,#184,#185));
#640=EDGE_LOOP('',(#186,#187,#188,#189));
#641=EDGE_LOOP('',(#190,#191,#192,#193));
#642=EDGE_LOOP('',(#194,#195,#196,#197));
#643=EDGE_LOOP('',(#198));
#644=EDGE_LOOP('',(#199,#200,#201,#202,#203,#204,#205,#206));
#645=EDGE_LOOP('',(#207));
#646=EDGE_LOOP('',(#208,#209,#210,#211,#212,#213,#214,#215));
#647=EDGE_LOOP('',(#216,#217,#218,#219,#220,#221,#222,#223,#224,#225,#226,
#227,#228,#229,#230,#231));
#648=EDGE_LOOP('',(#232));
#649=EDGE_LOOP('',(#233));
#650=EDGE_LOOP('',(#234));
#651=EDGE_LOOP('',(#235));
#652=EDGE_LOOP('',(#236));
#653=EDGE_LOOP('',(#237,#238,#239,#240,#241,#242,#243,#244,#245,#246,#247,
#248,#249,#250,#251,#252,#253,#254,#255,#256,#257,#258,#259,#260,#261,#262,
#263,#264));
#654=EDGE_LOOP('',(#265));
#655=EDGE_LOOP('',(#266,#267,#268,#269));
#656=EDGE_LOOP('',(#270,#271,#272,#273));
#657=EDGE_LOOP('',(#274,#275,#276,#277));
#658=EDGE_LOOP('',(#278,#279,#280,#281));
#659=EDGE_LOOP('',(#282,#283,#284,#285));
#660=EDGE_LOOP('',(#286,#287,#288,#289));
#661=EDGE_LOOP('',(#290,#291,#292,#293));
#662=EDGE_LOOP('',(#294,#295,#296,#297));
#663=EDGE_LOOP('',(#298,#299,#300,#301));
#664=EDGE_LOOP('',(#302,#303,#304,#305));
#665=EDGE_LOOP('',(#306,#307,#308,#309));
#666=EDGE_LOOP('',(#310,#311,#312,#313));
#667=EDGE_LOOP('',(#314,#315,#316,#317));
#668=EDGE_LOOP('',(#318,#319,#320,#321));
#669=EDGE_LOOP('',(#322));
#670=EDGE_LOOP('',(#323));
#671=EDGE_LOOP('',(#324,#325,#326,#327));
#672=FACE_BOUND('',#622,.T.);
#673=FACE_BOUND('',#623,.T.);
#674=FACE_BOUND('',#624,.T.);
#675=FACE_BOUND('',#625,.T.);
#676=FACE_BOUND('',#626,.T.);
#677=FACE_BOUND('',#627,.T.);
#678=FACE_BOUND('',#628,.T.);
#679=FACE_BOUND('',#629,.T.);
#680=FACE_BOUND('',#630,.T.);
#681=FACE_BOUND('',#631,.T.);
#682=FACE_BOUND('',#632,.T.);
#683=FACE_BOUND('',#633,.T.);
#684=FACE_BOUND('',#634,.T.);
#685=FACE_BOUND('',#635,.T.);
#686=FACE_BOUND('',#636,.T.);
#687=FACE_BOUND('',#637,.T.);
#688=FACE_BOUND('',#638,.T.);
#689=FACE_BOUND('',#639,.T.);
#690=FACE_BOUND('',#640,.T.);
#691=FACE_BOUND('',#641,.T.);
#692=FACE_BOUND('',#642,.T.);
#693=FACE_BOUND('',#643,.T.);
#694=FACE_BOUND('',#644,.T.);
#695=FACE_BOUND('',#645,.T.);
#696=FACE_BOUND('',#646,.T.);
#697=FACE_BOUND('',#647,.T.);
#698=FACE_BOUND('',#648,.T.);
#699=FACE_BOUND('',#649,.T.);
#700=FACE_BOUND('',#650,.T.);
#701=FACE_BOUND('',#651,.T.);
#702=FACE_BOUND('',#652,.T.);
#703=FACE_BOUND('',#653,.T.);
#704=FACE_BOUND('',#654,.T.);
#705=FACE_BOUND('',#655,.T.);
#706=FACE_BOUND('',#656,.T.);
#707=FACE_BOUND('',#657,.T.);
#708=FACE_BOUND('',#658,.T.);
#709=FACE_BOUND('',#659,.T.);
#710=FACE_BOUND('',#660,.T.);
#711=FACE_BOUND('',#661,.T.);
#712=FACE_BOUND('',#662,.T.);
#713=FACE_BOUND('',#663,.T.);
#714=FACE_BOUND('',#664,.T.);
#715=FACE_BOUND('',#665,.T.);
#716=FACE_BOUND('',#666,.T.);
#717=FACE_BOUND('',#667,.T.);
#718=FACE_BOUND('',#668,.T.);
#719=FACE_BOUND('',#669,.T.);
#720=FACE_BOUND('',#670,.T.);
#721=FACE_BOUND('',#671,.T.);
#722=CYLINDRICAL_SURFACE('',#800,1.);
#723=CYLINDRICAL_SURFACE('',#803,1.);
#724=CYLINDRICAL_SURFACE('',#831,40.);
#725=CYLINDRICAL_SURFACE('',#834,4.125);
#726=CYLINDRICAL_SURFACE('',#837,40.);
#727=CYLINDRICAL_SURFACE('',#840,4.125);
#728=CYLINDRICAL_SURFACE('',#843,40.);
#729=CYLINDRICAL_SURFACE('',#846,4.125);
#730=CYLINDRICAL_SURFACE('',#849,4.125);
#731=CYLINDRICAL_SURFACE('',#852,40.);
#732=CYLINDRICAL_SURFACE('',#859,32.45);
#733=CYLINDRICAL_SURFACE('',#865,34.5);
#734=CYLINDRICAL_SURFACE('',#881,1.);
#735=CYLINDRICAL_SURFACE('',#882,1.);
#736=CYLINDRICAL_SURFACE('',#883,1.);
#737=CYLINDRICAL_SURFACE('',#884,1.);
#738=CYLINDRICAL_SURFACE('',#885,1.);
#739=CYLINDRICAL_SURFACE('',#886,1.);
#740=CYLINDRICAL_SURFACE('',#887,1.);
#741=CYLINDRICAL_SURFACE('',#888,1.);
#742=CYLINDRICAL_SURFACE('',#889,1.);
#743=CYLINDRICAL_SURFACE('',#890,1.);
#744=ADVANCED_FACE('',(#672),#722,.F.);
#745=ADVANCED_FACE('',(#673),#723,.F.);
#746=ADVANCED_FACE('',(#674),#35,.F.);
#747=ADVANCED_FACE('',(#675),#36,.F.);
#748=ADVANCED_FACE('',(#676),#37,.F.);
#749=ADVANCED_FACE('',(#677),#38,.F.);
#750=ADVANCED_FACE('',(#678),#39,.F.);
#751=ADVANCED_FACE('',(#679),#40,.F.);
#752=ADVANCED_FACE('',(#680),#41,.F.);
#753=ADVANCED_FACE('',(#681),#42,.F.);
#754=ADVANCED_FACE('',(#682),#43,.F.);
#755=ADVANCED_FACE('',(#683),#44,.F.);
#756=ADVANCED_FACE('',(#684),#45,.F.);
#757=ADVANCED_FACE('',(#685),#724,.T.);
#758=ADVANCED_FACE('',(#686),#725,.F.);
#759=ADVANCED_FACE('',(#687),#726,.T.);
#760=ADVANCED_FACE('',(#688),#727,.F.);
#761=ADVANCED_FACE('',(#689),#728,.T.);
#762=ADVANCED_FACE('',(#690),#729,.F.);
#763=ADVANCED_FACE('',(#691),#730,.F.);
#764=ADVANCED_FACE('',(#692),#731,.T.);
#765=ADVANCED_FACE('',(#693,#694),#46,.T.);
#766=ADVANCED_FACE('',(#695,#696),#47,.F.);
#767=ADVANCED_FACE('',(#697,#698),#732,.F.);
#768=ADVANCED_FACE('',(#699,#700),#733,.T.);
#769=ADVANCED_FACE('',(#701,#702),#48,.T.);
#770=ADVANCED_FACE('',(#703,#704),#49,.T.);
#771=ADVANCED_FACE('',(#705),#50,.F.);
#772=ADVANCED_FACE('',(#706),#734,.F.);
#773=ADVANCED_FACE('',(#707),#735,.F.);
#774=ADVANCED_FACE('',(#708),#736,.F.);
#775=ADVANCED_FACE('',(#709),#737,.F.);
#776=ADVANCED_FACE('',(#710),#738,.F.);
#777=ADVANCED_FACE('',(#711),#739,.F.);
#778=ADVANCED_FACE('',(#712),#740,.F.);
#779=ADVANCED_FACE('',(#713),#741,.F.);
#780=ADVANCED_FACE('',(#714),#742,.F.);
#781=ADVANCED_FACE('',(#715),#743,.F.);
#782=ADVANCED_FACE('',(#716),#20,.F.);
#783=ADVANCED_FACE('',(#717),#21,.F.);
#784=ADVANCED_FACE('',(#718),#22,.F.);
#785=ADVANCED_FACE('',(#719,#720),#23,.T.);
#786=ADVANCED_FACE('',(#721),#24,.T.);
#787=CLOSED_SHELL('',(#744,#745,#746,#747,#748,#749,#750,#751,#752,#753,
#754,#755,#756,#757,#758,#759,#760,#761,#762,#763,#764,#765,#766,#767,#768,
#769,#770,#771,#772,#773,#774,#775,#776,#777,#778,#779,#780,#781,#782,#783,
#784,#785,#786));
#788=STYLED_ITEM('',(#789),#796);
#789=PRESENTATION_STYLE_ASSIGNMENT((#790));
#790=SURFACE_STYLE_USAGE(.BOTH.,#791);
#791=SURFACE_SIDE_STYLE('',(#792));
#792=SURFACE_STYLE_FILL_AREA(#793);
#793=FILL_AREA_STYLE('',(#794));
#794=FILL_AREA_STYLE_COLOUR('',#795);
#795=COLOUR_RGB('',0.506983280181885,0.531564235687256,0.550000011920929);
#796=MANIFOLD_SOLID_BREP('',#787);
#797=SHAPE_DEFINITION_REPRESENTATION(#1564,#798);
#798=SHAPE_REPRESENTATION('ZeroThickness01_10mmEllipse',(#799),#1559);
#799=AXIS2_PLACEMENT_3D('',#1127,#891,#892);
#800=AXIS2_PLACEMENT_3D('',#1128,#893,#894);
#801=AXIS2_PLACEMENT_3D('',#1132,#896,#897);
#802=AXIS2_PLACEMENT_3D('',#1136,#899,#900);
#803=AXIS2_PLACEMENT_3D('',#1137,#901,#902);
#804=AXIS2_PLACEMENT_3D('',#1141,#904,#905);
#805=AXIS2_PLACEMENT_3D('',#1145,#907,#908);
#806=AXIS2_PLACEMENT_3D('',#1146,#909,#910);
#807=AXIS2_PLACEMENT_3D('',#1162,#912,#913);
#808=AXIS2_PLACEMENT_3D('',#1164,#914,#915);
#809=AXIS2_PLACEMENT_3D('',#1166,#916,#917);
#810=AXIS2_PLACEMENT_3D('',#1169,#919,#920);
#811=AXIS2_PLACEMENT_3D('',#1190,#922,#923);
#812=AXIS2_PLACEMENT_3D('',#1192,#924,#925);
#813=AXIS2_PLACEMENT_3D('',#1194,#926,#927);
#814=AXIS2_PLACEMENT_3D('',#1198,#929,#930);
#815=AXIS2_PLACEMENT_3D('',#1199,#931,#932);
#816=AXIS2_PLACEMENT_3D('',#1205,#936,#937);
#817=AXIS2_PLACEMENT_3D('',#1225,#939,#940);
#818=AXIS2_PLACEMENT_3D('',#1227,#941,#942);
#819=AXIS2_PLACEMENT_3D('',#1229,#943,#944);
#820=AXIS2_PLACEMENT_3D('',#1232,#946,#947);
#821=AXIS2_PLACEMENT_3D('',#1241,#952,#953);
#822=AXIS2_PLACEMENT_3D('',#1247,#957,#958);
#823=AXIS2_PLACEMENT_3D('',#1251,#961,#962);
#824=AXIS2_PLACEMENT_3D('',#1257,#966,#967);
#825=AXIS2_PLACEMENT_3D('',#1266,#972,#973);
#826=AXIS2_PLACEMENT_3D('',#1270,#976,#977);
#827=AXIS2_PLACEMENT_3D('',#1271,#978,#979);
#828=AXIS2_PLACEMENT_3D('',#1285,#980,#981);
#829=AXIS2_PLACEMENT_3D('',#1287,#982,#983);
#830=AXIS2_PLACEMENT_3D('',#1289,#984,#985);
#831=AXIS2_PLACEMENT_3D('',#1290,#986,#987);
#832=AXIS2_PLACEMENT_3D('',#1291,#988,#989);
#833=AXIS2_PLACEMENT_3D('',#1296,#991,#992);
#834=AXIS2_PLACEMENT_3D('',#1299,#994,#995);
#835=AXIS2_PLACEMENT_3D('',#1300,#996,#997);
#836=AXIS2_PLACEMENT_3D('',#1304,#999,#1000);
#837=AXIS2_PLACEMENT_3D('',#1305,#1001,#1002);
#838=AXIS2_PLACEMENT_3D('',#1306,#1003,#1004);
#839=AXIS2_PLACEMENT_3D('',#1311,#1006,#1007);
#840=AXIS2_PLACEMENT_3D('',#1314,#1009,#1010);
#841=AXIS2_PLACEMENT_3D('',#1315,#1011,#1012);
#842=AXIS2_PLACEMENT_3D('',#1316,#1013,#1014);
#843=AXIS2_PLACEMENT_3D('',#1317,#1015,#1016);
#844=AXIS2_PLACEMENT_3D('',#1318,#1017,#1018);
#845=AXIS2_PLACEMENT_3D('',#1323,#1020,#1021);
#846=AXIS2_PLACEMENT_3D('',#1326,#1023,#1024);
#847=AXIS2_PLACEMENT_3D('',#1327,#1025,#1026);
#848=AXIS2_PLACEMENT_3D('',#1328,#1027,#1028);
#849=AXIS2_PLACEMENT_3D('',#1329,#1029,#1030);
#850=AXIS2_PLACEMENT_3D('',#1330,#1031,#1032);
#851=AXIS2_PLACEMENT_3D('',#1332,#1033,#1034);
#852=AXIS2_PLACEMENT_3D('',#1335,#1036,#1037);
#853=AXIS2_PLACEMENT_3D('',#1336,#1038,#1039);
#854=AXIS2_PLACEMENT_3D('',#1337,#1040,#1041);
#855=AXIS2_PLACEMENT_3D('',#1338,#1042,#1043);
#856=AXIS2_PLACEMENT_3D('',#1339,#1044,#1045);
#857=AXIS2_PLACEMENT_3D('',#1341,#1046,#1047);
#858=AXIS2_PLACEMENT_3D('',#1342,#1048,#1049);
#859=AXIS2_PLACEMENT_3D('',#1344,#1050,#1051);
#860=AXIS2_PLACEMENT_3D('',#1347,#1053,#1054);
#861=AXIS2_PLACEMENT_3D('',#1352,#1057,#1058);
#862=AXIS2_PLACEMENT_3D('',#1357,#1061,#1062);
#863=AXIS2_PLACEMENT_3D('',#1362,#1065,#1066);
#864=AXIS2_PLACEMENT_3D('',#1365,#1068,#1069);
#865=AXIS2_PLACEMENT_3D('',#1367,#1070,#1071);
#866=AXIS2_PLACEMENT_3D('',#1368,#1072,#1073);
#867=AXIS2_PLACEMENT_3D('',#1370,#1074,#1075);
#868=AXIS2_PLACEMENT_3D('',#1371,#1076,#1077);
#869=AXIS2_PLACEMENT_3D('',#1387,#1079,#1080);
#870=AXIS2_PLACEMENT_3D('',#1388,#1081,#1082);
#871=AXIS2_PLACEMENT_3D('',#1402,#1083,#1084);
#872=AXIS2_PLACEMENT_3D('',#1403,#1085,#1086);
#873=AXIS2_PLACEMENT_3D('',#1404,#1087,#1088);
#874=AXIS2_PLACEMENT_3D('',#1421,#1089,#1090);
#875=AXIS2_PLACEMENT_3D('',#1422,#1091,#1092);
#876=AXIS2_PLACEMENT_3D('',#1440,#1093,#1094);
#877=AXIS2_PLACEMENT_3D('',#1441,#1095,#1096);
#878=AXIS2_PLACEMENT_3D('',#1442,#1097,#1098);
#879=AXIS2_PLACEMENT_3D('',#1443,#1099,#1100);
#880=AXIS2_PLACEMENT_3D('',#1445,#1101,#1102);
#881=AXIS2_PLACEMENT_3D('',#1448,#1105,#1106);
#882=AXIS2_PLACEMENT_3D('',#1449,#1107,#1108);
#883=AXIS2_PLACEMENT_3D('',#1450,#1109,#1110);
#884=AXIS2_PLACEMENT_3D('',#1452,#1112,#1113);
#885=AXIS2_PLACEMENT_3D('',#1453,#1114,#1115);
#886=AXIS2_PLACEMENT_3D('',#1454,#1116,#1117);
#887=AXIS2_PLACEMENT_3D('',#1455,#1118,#1119);
#888=AXIS2_PLACEMENT_3D('',#1457,#1121,#1122);
#889=AXIS2_PLACEMENT_3D('',#1458,#1123,#1124);
#890=AXIS2_PLACEMENT_3D('',#1459,#1125,#1126);
#891=DIRECTION('',(0.,0.,1.));
#892=DIRECTION('',(1.,0.,0.));
#893=DIRECTION('',(0.,0.,1.));
#894=DIRECTION('',(1.,0.,0.));
#895=DIRECTION('',(0.,0.,1.));
#896=DIRECTION('',(0.,0.,-1.));
#897=DIRECTION('',(-1.,0.,0.));
#898=DIRECTION('',(0.,0.,-1.));
#899=DIRECTION('',(0.,0.,1.));
#900=DIRECTION('',(1.,0.,0.));
#901=DIRECTION('',(0.,0.,1.));
#902=DIRECTION('',(1.,0.,0.));
#903=DIRECTION('',(0.,0.,1.));
#904=DIRECTION('',(0.,0.,-1.));
#905=DIRECTION('',(-1.,0.,0.));
#906=DIRECTION('',(0.,0.,-1.));
#907=DIRECTION('',(0.,0.,1.));
#908=DIRECTION('',(1.,0.,0.));
#909=DIRECTION('',(0.,0.,1.));
#910=DIRECTION('',(1.,0.,0.));
#911=DIRECTION('',(-1.,-1.83697019872103E-16,0.));
#912=DIRECTION('',(0.,0.,1.));
#913=DIRECTION('',(1.,0.,0.));
#914=DIRECTION('',(0.,0.,-1.));
#915=DIRECTION('',(1.,0.,0.));
#916=DIRECTION('',(0.,0.,1.));
#917=DIRECTION('',(1.,0.,0.));
#918=DIRECTION('',(0.,-1.,0.));
#919=DIRECTION('',(0.,0.,1.));
#920=DIRECTION('',(1.,0.,0.));
#921=DIRECTION('',(1.22464679914735E-16,-1.,0.));
#922=DIRECTION('',(0.,0.,1.));
#923=DIRECTION('',(1.,0.,0.));
#924=DIRECTION('',(0.,0.,-1.));
#925=DIRECTION('',(1.,0.,0.));
#926=DIRECTION('',(0.,0.,1.));
#927=DIRECTION('',(1.,0.,0.));
#928=DIRECTION('',(1.,1.83697019872103E-16,0.));
#929=DIRECTION('',(0.,0.,1.));
#930=DIRECTION('',(1.,0.,0.));
#931=DIRECTION('',(-1.,-1.22464679914735E-16,0.));
#932=DIRECTION('',(0.,0.,-1.));
#933=DIRECTION('',(0.,0.,1.));
#934=DIRECTION('',(1.22464679914735E-16,-1.,0.));
#935=DIRECTION('',(0.,0.,1.));
#936=DIRECTION('',(0.,0.,1.));
#937=DIRECTION('',(1.,0.,0.));
#938=DIRECTION('',(1.,6.12323399573677E-17,0.));
#939=DIRECTION('',(0.,0.,1.));
#940=DIRECTION('',(1.,0.,0.));
#941=DIRECTION('',(0.,0.,-1.));
#942=DIRECTION('',(1.,0.,0.));
#943=DIRECTION('',(0.,0.,1.));
#944=DIRECTION('',(1.,0.,0.));
#945=DIRECTION('',(-1.22464679914735E-16,1.,0.));
#946=DIRECTION('',(1.,0.,0.));
#947=DIRECTION('',(0.,0.,-1.));
#948=DIRECTION('',(0.,0.,1.));
#949=DIRECTION('',(0.,1.,0.));
#950=DIRECTION('',(0.,0.,1.));
#951=DIRECTION('',(0.,1.,0.));
#952=DIRECTION('',(1.83697019872103E-16,-1.,0.));
#953=DIRECTION('',(0.,0.,1.));
#954=DIRECTION('',(1.,1.83697019872103E-16,0.));
#955=DIRECTION('',(0.,0.,-1.));
#956=DIRECTION('',(0.,0.,1.));
#957=DIRECTION('',(-1.83697019872103E-16,1.,0.));
#958=DIRECTION('',(0.,0.,-1.));
#959=DIRECTION('',(-1.,-1.83697019872103E-16,0.));
#960=DIRECTION('',(0.,0.,1.));
#961=DIRECTION('',(1.,1.22464679914735E-16,0.));
#962=DIRECTION('',(0.,0.,1.));
#963=DIRECTION('',(-1.22464679914735E-16,1.,0.));
#964=DIRECTION('',(0.,0.,1.));
#965=DIRECTION('',(0.,0.,1.));
#966=DIRECTION('',(-6.12323399573677E-17,1.,0.));
#967=DIRECTION('',(0.,0.,1.));
#968=DIRECTION('',(-1.,-6.12323399573677E-17,0.));
#969=DIRECTION('',(0.,0.,-1.));
#970=DIRECTION('',(-1.,-6.12323399573677E-17,0.));
#971=DIRECTION('',(0.,0.,1.));
#972=DIRECTION('',(6.12323399573677E-17,-1.,0.));
#973=DIRECTION('',(0.,0.,-1.));
#974=DIRECTION('',(1.,6.12323399573677E-17,0.));
#975=DIRECTION('',(0.,0.,1.));
#976=DIRECTION('',(0.,0.,1.));
#977=DIRECTION('',(1.,0.,0.));
#978=DIRECTION('',(0.,0.,1.));
#979=DIRECTION('',(1.,0.,0.));
#980=DIRECTION('',(0.,0.,1.));
#981=DIRECTION('',(1.,0.,0.));
#982=DIRECTION('',(0.,0.,-1.));
#983=DIRECTION('',(1.,0.,0.));
#984=DIRECTION('',(0.,0.,1.));
#985=DIRECTION('',(1.,0.,0.));
#986=DIRECTION('',(0.,0.,-1.));
#987=DIRECTION('',(-1.,0.,0.));
#988=DIRECTION('',(0.,0.,-1.));
#989=DIRECTION('',(0.,1.,0.));
#990=DIRECTION('',(0.,0.,-1.));
#991=DIRECTION('',(0.,0.,-1.));
#992=DIRECTION('',(0.,1.,0.));
#993=DIRECTION('',(0.,0.,-1.));
#994=DIRECTION('',(0.,0.,-1.));
#995=DIRECTION('',(1.83697019872103E-16,1.,0.));
#996=DIRECTION('',(0.,0.,1.));
#997=DIRECTION('',(1.83697019872103E-16,1.,0.));
#998=DIRECTION('',(0.,0.,-1.));
#999=DIRECTION('',(0.,0.,1.));
#1000=DIRECTION('',(1.83697019872103E-16,1.,0.));
#1001=DIRECTION('',(0.,0.,-1.));
#1002=DIRECTION('',(-1.,0.,0.));
#1003=DIRECTION('',(0.,0.,-1.));
#1004=DIRECTION('',(0.,1.,0.));
#1005=DIRECTION('',(0.,0.,-1.));
#1006=DIRECTION('',(0.,0.,-1.));
#1007=DIRECTION('',(0.,1.,0.));
#1008=DIRECTION('',(0.,0.,-1.));
#1009=DIRECTION('',(0.,0.,-1.));
#1010=DIRECTION('',(1.,-1.22464679914735E-16,0.));
#1011=DIRECTION('',(0.,0.,1.));
#1012=DIRECTION('',(1.,-1.22464679914735E-16,0.));
#1013=DIRECTION('',(0.,0.,1.));
#1014=DIRECTION('',(1.,-1.22464679914735E-16,0.));
#1015=DIRECTION('',(0.,0.,-1.));
#1016=DIRECTION('',(-1.,0.,0.));
#1017=DIRECTION('',(0.,0.,-1.));
#1018=DIRECTION('',(0.,1.,0.));
#1019=DIRECTION('',(0.,0.,-1.));
#1020=DIRECTION('',(0.,0.,-1.));
#1021=DIRECTION('',(0.,1.,0.));
#1022=DIRECTION('',(0.,0.,-1.));
#1023=DIRECTION('',(0.,0.,-1.));
#1024=DIRECTION('',(-6.12323399573677E-17,-1.,0.));
#1025=DIRECTION('',(0.,0.,1.));
#1026=DIRECTION('',(-6.12323399573677E-17,-1.,0.));
#1027=DIRECTION('',(0.,0.,1.));
#1028=DIRECTION('',(-6.12323399573677E-17,-1.,0.));
#1029=DIRECTION('',(0.,0.,-1.));
#1030=DIRECTION('',(-1.,0.,0.));
#1031=DIRECTION('',(0.,0.,1.));
#1032=DIRECTION('',(-1.,0.,0.));
#1033=DIRECTION('',(0.,0.,1.));
#1034=DIRECTION('',(-1.,0.,0.));
#1035=DIRECTION('',(0.,0.,-1.));
#1036=DIRECTION('',(0.,0.,-1.));
#1037=DIRECTION('',(-1.,0.,0.));
#1038=DIRECTION('',(0.,0.,-1.));
#1039=DIRECTION('',(0.,1.,0.));
#1040=DIRECTION('',(0.,0.,-1.));
#1041=DIRECTION('',(0.,1.,0.));
#1042=DIRECTION('',(0.,0.,1.));
#1043=DIRECTION('',(1.,0.,0.));
#1044=DIRECTION('',(0.,0.,1.));
#1045=DIRECTION('',(6.12323399573677E-17,-1.,0.));
#1046=DIRECTION('',(0.,0.,1.));
#1047=DIRECTION('',(1.,0.,0.));
#1048=DIRECTION('',(0.,0.,-1.));
#1049=DIRECTION('',(1.,0.,0.));
#1050=DIRECTION('',(0.,0.,1.));
#1051=DIRECTION('',(1.,0.,0.));
#1052=DIRECTION('',(0.,0.,1.));
#1053=DIRECTION('',(0.,0.,-1.));
#1054=DIRECTION('',(-1.83697019872103E-16,1.,0.));
#1055=DIRECTION('',(0.,0.,1.));
#1056=DIRECTION('',(0.,0.,1.));
#1057=DIRECTION('',(0.,0.,-1.));
#1058=DIRECTION('',(-1.,-1.22464679914735E-16,0.));
#1059=DIRECTION('',(0.,0.,1.));
#1060=DIRECTION('',(0.,0.,1.));
#1061=DIRECTION('',(0.,0.,-1.));
#1062=DIRECTION('',(6.12323399573677E-17,-1.,0.));
#1063=DIRECTION('',(0.,0.,1.));
#1064=DIRECTION('',(0.,0.,1.));
#1065=DIRECTION('',(0.,0.,-1.));
#1066=DIRECTION('',(1.,0.,0.));
#1067=DIRECTION('',(0.,0.,1.));
#1068=DIRECTION('',(0.,0.,-1.));
#1069=DIRECTION('',(1.,0.,0.));
#1070=DIRECTION('',(0.,0.,1.));
#1071=DIRECTION('',(1.,0.,0.));
#1072=DIRECTION('',(0.,0.,-1.));
#1073=DIRECTION('',(1.,0.,0.));
#1074=DIRECTION('',(0.,0.,-1.));
#1075=DIRECTION('',(-1.,0.,0.));
#1076=DIRECTION('',(0.,0.,-1.));
#1077=DIRECTION('',(-1.,0.,0.));
#1078=DIRECTION('',(0.,-1.,0.));
#1079=DIRECTION('',(0.,0.,-1.));
#1080=DIRECTION('',(-1.,0.,0.));
#1081=DIRECTION('',(0.,0.,-1.));
#1082=DIRECTION('',(-1.,0.,0.));
#1083=DIRECTION('',(0.,0.,-1.));
#1084=DIRECTION('',(-1.,0.,0.));
#1085=DIRECTION('',(0.,0.,-1.));
#1086=DIRECTION('',(-1.,0.,0.));
#1087=DIRECTION('',(0.,0.,-1.));
#1088=DIRECTION('',(-1.,0.,0.));
#1089=DIRECTION('',(0.,0.,-1.));
#1090=DIRECTION('',(-1.,0.,0.));
#1091=DIRECTION('',(0.,0.,-1.));
#1092=DIRECTION('',(-1.,0.,0.));
#1093=DIRECTION('',(0.,0.,-1.));
#1094=DIRECTION('',(-1.,0.,0.));
#1095=DIRECTION('',(0.,0.,-1.));
#1096=DIRECTION('',(-1.,0.,0.));
#1097=DIRECTION('',(0.,0.,-1.));
#1098=DIRECTION('',(-1.,0.,0.));
#1099=DIRECTION('',(0.,0.,-1.));
#1100=DIRECTION('',(6.12323399573677E-17,-1.,0.));
#1101=DIRECTION('',(-1.,0.,0.));
#1102=DIRECTION('',(0.,0.,1.));
#1103=DIRECTION('',(0.,0.,1.));
#1104=DIRECTION('',(0.,0.,1.));
#1105=DIRECTION('',(0.,0.,1.));
#1106=DIRECTION('',(1.,0.,0.));
#1107=DIRECTION('',(0.,0.,1.));
#1108=DIRECTION('',(1.,0.,0.));
#1109=DIRECTION('',(0.,0.,1.));
#1110=DIRECTION('',(1.,0.,0.));
#1111=DIRECTION('',(0.,0.,1.));
#1112=DIRECTION('',(0.,0.,1.));
#1113=DIRECTION('',(1.,0.,0.));
#1114=DIRECTION('',(0.,0.,1.));
#1115=DIRECTION('',(1.,0.,0.));
#1116=DIRECTION('',(0.,0.,1.));
#1117=DIRECTION('',(1.,0.,0.));
#1118=DIRECTION('',(0.,0.,1.));
#1119=DIRECTION('',(1.,0.,0.));
#1120=DIRECTION('',(0.,0.,1.));
#1121=DIRECTION('',(0.,0.,1.));
#1122=DIRECTION('',(1.,0.,0.));
#1123=DIRECTION('',(0.,0.,1.));
#1124=DIRECTION('',(1.,0.,0.));
#1125=DIRECTION('',(0.,0.,1.));
#1126=DIRECTION('',(1.,0.,0.));
#1127=CARTESIAN_POINT('',(0.,0.,0.));
#1128=CARTESIAN_POINT('',(-7.72916554357584,2.25,-3.));
#1129=CARTESIAN_POINT('',(-6.9938816276802,1.57224077798588,-3.58828116612208));
#1130=CARTESIAN_POINT('',(-6.9938816276802,1.57224077798588,-3.));
#1131=CARTESIAN_POINT('',(-6.9938816276802,1.57224077798588,0.));
#1132=CARTESIAN_POINT('',(-7.72916554357584,2.25,-3.));
#1133=CARTESIAN_POINT('',(-7.72916554357584,1.25,-3.));
#1134=CARTESIAN_POINT('',(-7.72916554357584,1.25,-3.));
#1135=CARTESIAN_POINT('',(-7.72916554357584,1.25,0.));
#1136=CARTESIAN_POINT('',(-7.72916554357584,2.25,0.));
#1137=CARTESIAN_POINT('',(7.72916554357584,-2.25,-3.));
#1138=CARTESIAN_POINT('',(6.99412093002481,-1.57198125683015,-3.58828116612208));
#1139=CARTESIAN_POINT('',(6.99412093002481,-1.57198125683015,-3.));
#1140=CARTESIAN_POINT('',(6.99412093002481,-1.57198125683015,0.));
#1141=CARTESIAN_POINT('',(7.72916554357584,-2.25,-3.));
#1142=CARTESIAN_POINT('',(7.72916554357584,-1.25,-3.));
#1143=CARTESIAN_POINT('',(7.72916554357584,-1.25,-3.));
#1144=CARTESIAN_POINT('',(7.72916554357584,-1.25,0.));
#1145=CARTESIAN_POINT('',(7.72916554357584,-2.25,0.));
#1146=CARTESIAN_POINT('',(-14.2464214520489,14.2464214520489,0.));
#1147=CARTESIAN_POINT('',(6.99412093002482,-1.57198125683016,0.));
#1148=CARTESIAN_POINT('',(6.89552429727175,-2.92445567078222,0.));
#1149=CARTESIAN_POINT('',(6.66848792216439,-4.29610598024417,0.));
#1150=CARTESIAN_POINT('',(6.02507970745944,-6.51057442526793,0.));
#1151=CARTESIAN_POINT('',(5.6759572615193,-7.39813282253933,0.));
#1152=CARTESIAN_POINT('',(4.84467894666943,-8.97795926937532,0.));
#1153=CARTESIAN_POINT('',(4.36252307775969,-9.67022731893991,0.));
#1154=CARTESIAN_POINT('',(3.2738766340499,-10.8166796265567,0.));
#1155=CARTESIAN_POINT('',(2.66294916214937,-11.2714385884386,0.));
#1156=CARTESIAN_POINT('',(1.76090236708262,-11.6952817131672,0.));
#1157=CARTESIAN_POINT('',(1.50627186274941,-11.7888188329772,0.));
#1158=CARTESIAN_POINT('',(1.25000001211657,-11.8600436876667,0.));
#1159=CARTESIAN_POINT('',(1.25000001211657,-11.8600436876667,0.));
#1160=CARTESIAN_POINT('',(6.93829950348066,-1.25,0.));
#1161=CARTESIAN_POINT('',(31.36941185295,-1.24999999999999,0.));
#1162=CARTESIAN_POINT('',(31.36941185295,-2.24999999999999,0.));
#1163=CARTESIAN_POINT('',(32.3668494317401,-2.32154213036565,0.));
#1164=CARTESIAN_POINT('',(0.,0.,0.));
#1165=CARTESIAN_POINT('',(2.32154213036566,-32.3668494317401,0.));
#1166=CARTESIAN_POINT('',(2.25,-31.36941185295,0.));
#1167=CARTESIAN_POINT('',(1.25,-31.36941185295,0.));
#1168=CARTESIAN_POINT('',(1.25,-32.4259155614765,0.));
#1169=CARTESIAN_POINT('',(-14.2464214520489,14.2464214520489,0.));
#1170=CARTESIAN_POINT('',(1.25000001952677,11.8600710889617,0.));
#1171=CARTESIAN_POINT('',(1.26296280513085,11.8564340862772,0.));
#1172=CARTESIAN_POINT('',(1.27590356549015,11.8527439234628,0.));
#1173=CARTESIAN_POINT('',(1.70297598246667,11.7290002968393,0.));
#1174=CARTESIAN_POINT('',(2.09374971087949,11.5547151539134,0.));
#1175=CARTESIAN_POINT('',(3.17517479079785,10.9163017586585,0.));
#1176=CARTESIAN_POINT('',(3.77174406691457,10.3489711552109,0.));
#1177=CARTESIAN_POINT('',(4.76701926323226,9.09641789340695,0.));
#1178=CARTESIAN_POINT('',(5.17002748618664,8.40824543651742,0.));
#1179=CARTESIAN_POINT('',(5.83335498328747,6.99632502217835,0.));
#1180=CARTESIAN_POINT('',(6.09367425743392,6.27257706472883,0.));
#1181=CARTESIAN_POINT('',(6.50480692604032,4.84916109195019,0.));
#1182=CARTESIAN_POINT('',(6.68225733589041,4.05966482687677,0.));
#1183=CARTESIAN_POINT('',(6.89133504939202,2.67977873251902,0.));
#1184=CARTESIAN_POINT('',(6.95289662211426,2.13575112033723,0.));
#1185=CARTESIAN_POINT('',(6.9938816276802,1.57224077798589,0.));
#1186=CARTESIAN_POINT('',(1.25000001952677,11.8600710889617,0.));
#1187=CARTESIAN_POINT('',(6.9938816276802,1.57224077798589,0.));
#1188=CARTESIAN_POINT('',(1.25,6.93829950348066,0.));
#1189=CARTESIAN_POINT('',(1.25,31.36941185295,0.));
#1190=CARTESIAN_POINT('',(2.25,31.36941185295,0.));
#1191=CARTESIAN_POINT('',(2.32154213036566,32.3668494317401,0.));
#1192=CARTESIAN_POINT('',(0.,0.,0.));
#1193=CARTESIAN_POINT('',(32.3668494317401,2.32154213036566,0.));
#1194=CARTESIAN_POINT('',(31.36941185295,2.25,0.));
#1195=CARTESIAN_POINT('',(31.36941185295,1.25000000000001,0.));
#1196=CARTESIAN_POINT('',(32.4259155614765,1.25000000000001,0.));
#1197=CARTESIAN_POINT('',(7.72916554357584,1.25,0.));
#1198=CARTESIAN_POINT('',(7.72916554357584,2.25,0.));
#1199=CARTESIAN_POINT('',(1.25,6.93829950348066,-1.22710778182575));
#1200=CARTESIAN_POINT('',(1.25000001952677,11.8600710889617,-3.58828116612208));
#1201=CARTESIAN_POINT('',(1.25000001952677,11.8600710889617,-3.));
#1202=CARTESIAN_POINT('',(1.25,6.93829950348066,-3.));
#1203=CARTESIAN_POINT('',(1.25,31.36941185295,-3.));
#1204=CARTESIAN_POINT('',(1.25,31.36941185295,-1.22710778182575));
#1205=CARTESIAN_POINT('',(-14.2464214520489,14.2464214520489,0.));
#1206=CARTESIAN_POINT('',(-6.9938816276802,1.57224077798588,0.));
#1207=CARTESIAN_POINT('',(-6.95289662211427,2.13575112033723,0.));
#1208=CARTESIAN_POINT('',(-6.89133504939203,2.679778732519,0.));
#1209=CARTESIAN_POINT('',(-6.68225733589042,4.05966482687676,0.));
#1210=CARTESIAN_POINT('',(-6.50480692604032,4.84916109195018,0.));
#1211=CARTESIAN_POINT('',(-6.09367425743393,6.27257706472883,0.));
#1212=CARTESIAN_POINT('',(-5.83335498328747,6.99632502217835,0.));
#1213=CARTESIAN_POINT('',(-5.17002748618664,8.40824543651741,0.));
#1214=CARTESIAN_POINT('',(-4.76701926323226,9.09641789340695,0.));
#1215=CARTESIAN_POINT('',(-3.77174406691457,10.3489711552109,0.));
#1216=CARTESIAN_POINT('',(-3.17517479079785,10.9163017586585,0.));
#1217=CARTESIAN_POINT('',(-2.09374971087949,11.5547151539134,0.));
#1218=CARTESIAN_POINT('',(-1.70297598246668,11.7290002968393,0.));
#1219=CARTESIAN_POINT('',(-1.27590356549016,11.8527439234628,0.));
#1220=CARTESIAN_POINT('',(-1.26296280513085,11.8564340862772,0.));
#1221=CARTESIAN_POINT('',(-1.25000001952677,11.8600710889617,0.));
#1222=CARTESIAN_POINT('',(-1.25000001952677,11.8600710889617,0.));
#1223=CARTESIAN_POINT('',(-6.93829950348066,1.25,0.));
#1224=CARTESIAN_POINT('',(-31.36941185295,1.25,0.));
#1225=CARTESIAN_POINT('',(-31.36941185295,2.25,0.));
#1226=CARTESIAN_POINT('',(-32.3668494317401,2.32154213036566,0.));
#1227=CARTESIAN_POINT('',(0.,0.,0.));
#1228=CARTESIAN_POINT('',(-2.32154213036566,32.3668494317401,0.));
#1229=CARTESIAN_POINT('',(-2.25,31.36941185295,0.));
#1230=CARTESIAN_POINT('',(-1.25,31.36941185295,0.));
#1231=CARTESIAN_POINT('',(-1.25,32.4259155614765,0.));
#1232=CARTESIAN_POINT('',(-1.25,-6.93829950348066,-1.22710778182575));
#1233=CARTESIAN_POINT('',(-1.25000001172605,-11.8600951532532,-3.58828116612208));
#1234=CARTESIAN_POINT('',(-1.25000001172605,-11.8600951532532,-3.));
#1235=CARTESIAN_POINT('',(-1.25000001172605,-11.8600951532532,0.));
#1236=CARTESIAN_POINT('',(-1.25,-6.93829950348066,-3.));
#1237=CARTESIAN_POINT('',(-1.25,-31.36941185295,-3.));
#1238=CARTESIAN_POINT('',(-1.25,-31.36941185295,-1.22710778182575));
#1239=CARTESIAN_POINT('',(-1.25,-31.36941185295,0.));
#1240=CARTESIAN_POINT('',(-1.25,-6.93829950348066,0.));
#1241=CARTESIAN_POINT('',(32.4259155614765,1.25000000000001,-1.22710778182575));
#1242=CARTESIAN_POINT('',(32.4259155614765,1.25000000000001,-3.));
#1243=CARTESIAN_POINT('',(7.72916554357584,1.25,-3.));
#1244=CARTESIAN_POINT('',(31.36941185295,1.25000000000001,-3.));
#1245=CARTESIAN_POINT('',(7.72916554357584,1.25,0.));
#1246=CARTESIAN_POINT('',(31.36941185295,1.25000000000001,-1.22710778182575));
#1247=CARTESIAN_POINT('',(6.93829950348066,-1.25,-1.22710778182575));
#1248=CARTESIAN_POINT('',(6.93829950348066,-1.25,-3.));
#1249=CARTESIAN_POINT('',(31.36941185295,-1.24999999999999,-3.));
#1250=CARTESIAN_POINT('',(31.36941185295,-1.24999999999999,-1.22710778182575));
#1251=CARTESIAN_POINT('',(-1.25,32.4259155614765,-1.22710778182575));
#1252=CARTESIAN_POINT('',(-1.25,32.4259155614765,-3.));
#1253=CARTESIAN_POINT('',(-1.25000001952677,11.8600710889617,-3.));
#1254=CARTESIAN_POINT('',(-1.25,31.36941185295,-3.));
#1255=CARTESIAN_POINT('',(-1.25000001952677,11.8600710889617,-3.58828116612208));
#1256=CARTESIAN_POINT('',(-1.25,31.36941185295,-1.22710778182575));
#1257=CARTESIAN_POINT('',(-32.4259155614765,-1.25,-1.22710778182575));
#1258=CARTESIAN_POINT('',(-32.4259155614765,-1.25,-3.));
#1259=CARTESIAN_POINT('',(-7.72916554357584,-1.25,-3.));
#1260=CARTESIAN_POINT('',(-31.36941185295,-1.25,-3.));
#1261=CARTESIAN_POINT('',(-7.72916554357584,-1.25,0.));
#1262=CARTESIAN_POINT('',(-7.72916554357584,-1.25,0.));
#1263=CARTESIAN_POINT('',(-32.4259155614765,-1.25,0.));
#1264=CARTESIAN_POINT('',(-31.36941185295,-1.25,0.));
#1265=CARTESIAN_POINT('',(-31.36941185295,-1.25,-1.22710778182575));
#1266=CARTESIAN_POINT('',(-6.93829950348066,1.25,-1.22710778182575));
#1267=CARTESIAN_POINT('',(-6.93829950348066,1.25,-3.));
#1268=CARTESIAN_POINT('',(-31.36941185295,1.25,-3.));
#1269=CARTESIAN_POINT('',(-31.36941185295,1.25,-1.22710778182575));
#1270=CARTESIAN_POINT('',(-14.2464214520489,14.2464214520489,0.));
#1271=CARTESIAN_POINT('',(-7.72916554357584,-2.25,0.));
#1272=CARTESIAN_POINT('',(-6.99412093002482,-1.57198125683015,0.));
#1273=CARTESIAN_POINT('',(-6.99412093002482,-1.57198125683015,0.));
#1274=CARTESIAN_POINT('',(-6.89552429727175,-2.92445567078222,0.));
#1275=CARTESIAN_POINT('',(-6.6684879221644,-4.29610598024418,0.));
#1276=CARTESIAN_POINT('',(-6.02507970745943,-6.51057442526795,0.));
#1277=CARTESIAN_POINT('',(-5.6759572615193,-7.39813282253934,0.));
#1278=CARTESIAN_POINT('',(-4.84467894666942,-8.97795926937532,0.));
#1279=CARTESIAN_POINT('',(-4.36252307775968,-9.67022731893992,0.));
#1280=CARTESIAN_POINT('',(-3.2738766340499,-10.8166796265567,0.));
#1281=CARTESIAN_POINT('',(-2.66294916214936,-11.2714385884386,0.));
#1282=CARTESIAN_POINT('',(-1.76084262669902,-11.6953097832751,0.));
#1283=CARTESIAN_POINT('',(-1.50624864398836,-11.7888638936843,0.));
#1284=CARTESIAN_POINT('',(-1.25000001172605,-11.8600951532532,0.));
#1285=CARTESIAN_POINT('',(-2.25,-31.36941185295,0.));
#1286=CARTESIAN_POINT('',(-2.32154213036566,-32.3668494317401,0.));
#1287=CARTESIAN_POINT('',(0.,0.,0.));
#1288=CARTESIAN_POINT('',(-32.3668494317401,-2.32154213036566,0.));
#1289=CARTESIAN_POINT('',(-31.36941185295,-2.25,0.));
#1290=CARTESIAN_POINT('',(0.,0.,3.));
#1291=CARTESIAN_POINT('',(0.,0.,0.));
#1292=CARTESIAN_POINT('',(31.0306099942784,25.2408645530019,0.));
#1293=CARTESIAN_POINT('',(31.0306099942784,-25.2408645530019,0.));
#1294=CARTESIAN_POINT('',(31.0306099942784,25.2408645530019,3.));
#1295=CARTESIAN_POINT('',(31.0306099942784,25.2408645530019,3.));
#1296=CARTESIAN_POINT('',(0.,0.,3.));
#1297=CARTESIAN_POINT('',(31.0306099942784,-25.2408645530019,3.));
#1298=CARTESIAN_POINT('',(31.0306099942784,-25.2408645530019,3.));
#1299=CARTESIAN_POINT('',(28.4928429040977,28.4928429040977,3.));
#1300=CARTESIAN_POINT('',(28.4928429040977,28.4928429040977,0.));
#1301=CARTESIAN_POINT('',(25.2408645530019,31.0306099942784,0.));
#1302=CARTESIAN_POINT('',(25.2408645530019,31.0306099942784,3.));
#1303=CARTESIAN_POINT('',(25.2408645530019,31.0306099942784,3.));
#1304=CARTESIAN_POINT('',(28.4928429040977,28.4928429040977,3.));
#1305=CARTESIAN_POINT('',(0.,0.,3.));
#1306=CARTESIAN_POINT('',(0.,0.,0.));
#1307=CARTESIAN_POINT('',(25.2408645530019,-31.0306099942784,0.));
#1308=CARTESIAN_POINT('',(-25.2408645530019,-31.0306099942784,0.));
#1309=CARTESIAN_POINT('',(25.2408645530019,-31.0306099942784,3.));
#1310=CARTESIAN_POINT('',(25.2408645530019,-31.0306099942784,3.));
#1311=CARTESIAN_POINT('',(0.,0.,3.));
#1312=CARTESIAN_POINT('',(-25.2408645530019,-31.0306099942784,3.));
#1313=CARTESIAN_POINT('',(-25.2408645530019,-31.0306099942784,3.));
#1314=CARTESIAN_POINT('',(28.4928429040977,-28.4928429040977,3.));
#1315=CARTESIAN_POINT('',(28.4928429040977,-28.4928429040977,0.));
#1316=CARTESIAN_POINT('',(28.4928429040977,-28.4928429040977,3.));
#1317=CARTESIAN_POINT('',(0.,0.,3.));
#1318=CARTESIAN_POINT('',(0.,0.,0.));
#1319=CARTESIAN_POINT('',(-31.0306099942784,-25.2408645530019,0.));
#1320=CARTESIAN_POINT('',(-31.0306099942784,25.2408645530019,0.));
#1321=CARTESIAN_POINT('',(-31.0306099942784,-25.2408645530019,3.));
#1322=CARTESIAN_POINT('',(-31.0306099942784,-25.2408645530019,3.));
#1323=CARTESIAN_POINT('',(0.,0.,3.));
#1324=CARTESIAN_POINT('',(-31.0306099942784,25.2408645530019,3.));
#1325=CARTESIAN_POINT('',(-31.0306099942784,25.2408645530019,3.));
#1326=CARTESIAN_POINT('',(-28.4928429040977,-28.4928429040977,3.));
#1327=CARTESIAN_POINT('',(-28.4928429040977,-28.4928429040977,0.));
#1328=CARTESIAN_POINT('',(-28.4928429040977,-28.4928429040977,3.));
#1329=CARTESIAN_POINT('',(-28.4928429040977,28.4928429040977,3.));
#1330=CARTESIAN_POINT('',(-28.4928429040977,28.4928429040977,0.));
#1331=CARTESIAN_POINT('',(-25.2408645530019,31.0306099942784,0.));
#1332=CARTESIAN_POINT('',(-28.4928429040977,28.4928429040977,3.));
#1333=CARTESIAN_POINT('',(-25.2408645530019,31.0306099942784,3.));
#1334=CARTESIAN_POINT('',(-25.2408645530019,31.0306099942784,3.));
#1335=CARTESIAN_POINT('',(0.,0.,3.));
#1336=CARTESIAN_POINT('',(0.,0.,0.));
#1337=CARTESIAN_POINT('',(0.,0.,3.));
#1338=CARTESIAN_POINT('',(-14.2464214520489,14.2464214520489,3.));
#1339=CARTESIAN_POINT('',(0.,0.,3.));
#1340=CARTESIAN_POINT('',(6.11310044109156E-16,-9.98345064935904,3.));
#1341=CARTESIAN_POINT('',(-14.2464214520489,14.2464214520489,0.));
#1342=CARTESIAN_POINT('',(0.,0.,0.));
#1343=CARTESIAN_POINT('',(34.5,0.,0.));
#1344=CARTESIAN_POINT('',(0.,0.,-5.));
#1345=CARTESIAN_POINT('',(32.3668494317402,-2.32154213036565,-5.));
#1346=CARTESIAN_POINT('',(32.3668494317401,-2.32154213036565,-3.));
#1347=CARTESIAN_POINT('',(0.,0.,-3.));
#1348=CARTESIAN_POINT('',(32.3668494317401,2.32154213036566,-3.));
#1349=CARTESIAN_POINT('',(32.3668494317402,2.32154213036567,-5.));
#1350=CARTESIAN_POINT('',(2.32154213036566,32.3668494317402,-5.));
#1351=CARTESIAN_POINT('',(2.32154213036566,32.3668494317401,-3.));
#1352=CARTESIAN_POINT('',(0.,0.,-3.));
#1353=CARTESIAN_POINT('',(-2.32154213036566,32.3668494317401,-3.));
#1354=CARTESIAN_POINT('',(-2.32154213036566,32.3668494317402,-5.));
#1355=CARTESIAN_POINT('',(-32.3668494317402,2.32154213036566,-5.));
#1356=CARTESIAN_POINT('',(-32.3668494317401,2.32154213036566,-3.));
#1357=CARTESIAN_POINT('',(0.,0.,-3.));
#1358=CARTESIAN_POINT('',(-32.3668494317401,-2.32154213036566,-3.));
#1359=CARTESIAN_POINT('',(-32.3668494317402,-2.32154213036566,-5.));
#1360=CARTESIAN_POINT('',(-2.32154213036566,-32.3668494317402,-5.));
#1361=CARTESIAN_POINT('',(-2.32154213036566,-32.3668494317401,-3.));
#1362=CARTESIAN_POINT('',(0.,0.,-3.));
#1363=CARTESIAN_POINT('',(2.32154213036566,-32.3668494317401,-3.));
#1364=CARTESIAN_POINT('',(2.32154213036566,-32.3668494317402,-5.));
#1365=CARTESIAN_POINT('',(0.,0.,-5.));
#1366=CARTESIAN_POINT('',(32.45,0.,-5.));
#1367=CARTESIAN_POINT('',(0.,0.,-5.));
#1368=CARTESIAN_POINT('',(0.,0.,-5.));
#1369=CARTESIAN_POINT('',(34.5,0.,-5.));
#1370=CARTESIAN_POINT('',(0.,0.,-5.));
#1371=CARTESIAN_POINT('',(0.,0.,-3.));
#1372=CARTESIAN_POINT('',(6.99412093002482,-1.57198125683016,-3.));
#1373=CARTESIAN_POINT('',(6.89552429727175,-2.92445567078222,-3.));
#1374=CARTESIAN_POINT('',(6.66848792216439,-4.29610598024417,-3.));
#1375=CARTESIAN_POINT('',(6.02507970745944,-6.51057442526793,-3.));
#1376=CARTESIAN_POINT('',(5.6759572615193,-7.39813282253933,-3.));
#1377=CARTESIAN_POINT('',(4.84467894666943,-8.97795926937532,-3.));
#1378=CARTESIAN_POINT('',(4.36252307775969,-9.67022731893991,-3.));
#1379=CARTESIAN_POINT('',(3.2738766340499,-10.8166796265567,-3.));
#1380=CARTESIAN_POINT('',(2.66294916214937,-11.2714385884386,-3.));
#1381=CARTESIAN_POINT('',(1.76090236708262,-11.6952817131672,-3.));
#1382=CARTESIAN_POINT('',(1.50627186274941,-11.7888188329772,-3.));
#1383=CARTESIAN_POINT('',(1.25000001211657,-11.8600436876667,-3.));
#1384=CARTESIAN_POINT('',(1.25000001211657,-11.8600436876667,-3.));
#1385=CARTESIAN_POINT('',(1.25,-32.4259155614765,-3.));
#1386=CARTESIAN_POINT('',(1.25,-31.36941185295,-3.));
#1387=CARTESIAN_POINT('',(2.25,-31.36941185295,-3.));
#1388=CARTESIAN_POINT('',(-2.25,-31.36941185295,-3.));
#1389=CARTESIAN_POINT('',(-6.99412093002482,-1.57198125683015,-3.));
#1390=CARTESIAN_POINT('',(-6.89552429727175,-2.92445567078222,-3.));
#1391=CARTESIAN_POINT('',(-6.6684879221644,-4.29610598024418,-3.));
#1392=CARTESIAN_POINT('',(-6.02507970745943,-6.51057442526795,-3.));
#1393=CARTESIAN_POINT('',(-5.6759572615193,-7.39813282253934,-3.));
#1394=CARTESIAN_POINT('',(-4.84467894666942,-8.97795926937532,-3.));
#1395=CARTESIAN_POINT('',(-4.36252307775968,-9.67022731893992,-3.));
#1396=CARTESIAN_POINT('',(-3.2738766340499,-10.8166796265567,-3.));
#1397=CARTESIAN_POINT('',(-2.66294916214936,-11.2714385884386,-3.));
#1398=CARTESIAN_POINT('',(-1.76084262669902,-11.6953097832751,-3.));
#1399=CARTESIAN_POINT('',(-1.50624864398836,-11.7888638936843,-3.));
#1400=CARTESIAN_POINT('',(-1.25000001172605,-11.8600951532532,-3.));
#1401=CARTESIAN_POINT('',(-6.99412093002482,-1.57198125683015,-3.));
#1402=CARTESIAN_POINT('',(-7.72916554357584,-2.25,-3.));
#1403=CARTESIAN_POINT('',(-31.36941185295,-2.25,-3.));
#1404=CARTESIAN_POINT('',(-31.36941185295,2.25,-3.));
#1405=CARTESIAN_POINT('',(-6.9938816276802,1.57224077798588,-3.));
#1406=CARTESIAN_POINT('',(-6.95289662211427,2.13575112033723,-3.));
#1407=CARTESIAN_POINT('',(-6.89133504939203,2.679778732519,-3.));
#1408=CARTESIAN_POINT('',(-6.68225733589042,4.05966482687676,-3.));
#1409=CARTESIAN_POINT('',(-6.50480692604032,4.84916109195018,-3.));
#1410=CARTESIAN_POINT('',(-6.09367425743393,6.27257706472883,-3.));
#1411=CARTESIAN_POINT('',(-5.83335498328747,6.99632502217835,-3.));
#1412=CARTESIAN_POINT('',(-5.17002748618664,8.40824543651741,-3.));
#1413=CARTESIAN_POINT('',(-4.76701926323226,9.09641789340695,-3.));
#1414=CARTESIAN_POINT('',(-3.77174406691457,10.3489711552109,-3.));
#1415=CARTESIAN_POINT('',(-3.17517479079785,10.9163017586585,-3.));
#1416=CARTESIAN_POINT('',(-2.09374971087949,11.5547151539134,-3.));
#1417=CARTESIAN_POINT('',(-1.70297598246668,11.7290002968393,-3.));
#1418=CARTESIAN_POINT('',(-1.27590356549016,11.8527439234628,-3.));
#1419=CARTESIAN_POINT('',(-1.26296280513085,11.8564340862772,-3.));
#1420=CARTESIAN_POINT('',(-1.25000001952677,11.8600710889617,-3.));
#1421=CARTESIAN_POINT('',(-2.25,31.36941185295,-3.));
#1422=CARTESIAN_POINT('',(2.25,31.36941185295,-3.));
#1423=CARTESIAN_POINT('',(1.25000001952677,11.8600710889617,-3.));
#1424=CARTESIAN_POINT('',(1.26296280513085,11.8564340862772,-3.));
#1425=CARTESIAN_POINT('',(1.27590356549015,11.8527439234628,-3.));
#1426=CARTESIAN_POINT('',(1.70297598246667,11.7290002968393,-3.));
#1427=CARTESIAN_POINT('',(2.09374971087949,11.5547151539134,-3.));
#1428=CARTESIAN_POINT('',(3.17517479079785,10.9163017586585,-3.));
#1429=CARTESIAN_POINT('',(3.77174406691457,10.3489711552109,-3.));
#1430=CARTESIAN_POINT('',(4.76701926323226,9.09641789340695,-3.));
#1431=CARTESIAN_POINT('',(5.17002748618664,8.40824543651742,-3.));
#1432=CARTESIAN_POINT('',(5.83335498328747,6.99632502217835,-3.));
#1433=CARTESIAN_POINT('',(6.09367425743392,6.27257706472883,-3.));
#1434=CARTESIAN_POINT('',(6.50480692604032,4.84916109195019,-3.));
#1435=CARTESIAN_POINT('',(6.68225733589041,4.05966482687677,-3.));
#1436=CARTESIAN_POINT('',(6.89133504939202,2.67977873251902,-3.));
#1437=CARTESIAN_POINT('',(6.95289662211426,2.13575112033723,-3.));
#1438=CARTESIAN_POINT('',(6.9938816276802,1.57224077798589,-3.));
#1439=CARTESIAN_POINT('',(6.9938816276802,1.57224077798589,-3.));
#1440=CARTESIAN_POINT('',(7.72916554357584,2.25,-3.));
#1441=CARTESIAN_POINT('',(31.36941185295,2.25,-3.));
#1442=CARTESIAN_POINT('',(31.36941185295,-2.24999999999999,-3.));
#1443=CARTESIAN_POINT('',(0.,0.,-3.));
#1444=CARTESIAN_POINT('',(6.11310044109156E-16,-9.98345064935904,-3.));
#1445=CARTESIAN_POINT('',(1.25,-32.4259155614765,-1.22710778182575));
#1446=CARTESIAN_POINT('',(1.25000001211657,-11.8600436876667,-3.58828116612208));
#1447=CARTESIAN_POINT('',(1.25,-31.36941185295,-1.22710778182575));
#1448=CARTESIAN_POINT('',(31.36941185295,2.25,-5.));
#1449=CARTESIAN_POINT('',(-31.36941185295,-2.25,-5.));
#1450=CARTESIAN_POINT('',(-7.72916554357584,-2.25,-3.));
#1451=CARTESIAN_POINT('',(-6.99412093002482,-1.57198125683015,-3.58828116612208));
#1452=CARTESIAN_POINT('',(-2.25,-31.36941185295,-5.));
#1453=CARTESIAN_POINT('',(-31.36941185295,2.25,-5.));
#1454=CARTESIAN_POINT('',(2.25,-31.36941185295,-5.));
#1455=CARTESIAN_POINT('',(7.72916554357584,2.25,-3.));
#1456=CARTESIAN_POINT('',(6.9938816276802,1.57224077798589,-3.58828116612208));
#1457=CARTESIAN_POINT('',(2.25,31.36941185295,-5.));
#1458=CARTESIAN_POINT('',(-2.25,31.36941185295,-5.));
#1459=CARTESIAN_POINT('',(31.36941185295,-2.24999999999999,-5.));
#1460=CARTESIAN_POINT('',(6.99412093002482,-1.57198125683016,-3.));
#1461=CARTESIAN_POINT('',(6.99412093002482,-1.57198125683016,0.));
#1462=CARTESIAN_POINT('',(6.90702129937891,-2.76674844739234,-3.));
#1463=CARTESIAN_POINT('',(6.90702129937891,-2.76674844739234,-4.33680868994202E-16));
#1464=CARTESIAN_POINT('',(6.53130202232927,-5.18852754115895,-3.));
#1465=CARTESIAN_POINT('',(6.53130202232927,-5.18852754115895,-4.33680868994202E-16));
#1466=CARTESIAN_POINT('',(5.32204438739342,-8.37906275409986,-3.));
#1467=CARTESIAN_POINT('',(5.32204438739342,-8.37906275409986,-1.73472347597681E-15));
#1468=CARTESIAN_POINT('',(3.57185857190947,-10.745581101749,-3.));
#1469=CARTESIAN_POINT('',(3.57185857190947,-10.745581101749,4.33680868994202E-16));
#1470=CARTESIAN_POINT('',(2.04628010550618,-11.6387359872551,-3.));
#1471=CARTESIAN_POINT('',(2.04628010550618,-11.6387359872551,-4.33680868994202E-16));
#1472=CARTESIAN_POINT('',(1.25000001211657,-11.8600436876667,-3.));
#1473=CARTESIAN_POINT('',(1.25000001211657,-11.8600436876667,0.));
#1474=CARTESIAN_POINT('',(-6.9938816276802,1.57224077798588,-3.));
#1475=CARTESIAN_POINT('',(-6.9938816276802,1.57224077798588,0.));
#1476=CARTESIAN_POINT('',(-6.90661566566104,2.7720764606705,-3.));
#1477=CARTESIAN_POINT('',(-6.90661566566104,2.7720764606705,-4.33680868994202E-16));
#1478=CARTESIAN_POINT('',(-6.63089835258694,4.43334864399523,-3.));
#1479=CARTESIAN_POINT('',(-6.63089835258694,4.43334864399523,4.33680868994202E-16));
#1480=CARTESIAN_POINT('',(-6.11105021000998,6.23749038418549,-3.));
#1481=CARTESIAN_POINT('',(-6.11105021000998,6.23749038418549,-4.33680868994202E-16));
#1482=CARTESIAN_POINT('',(-5.39131141326806,8.08012664497972,-3.));
#1483=CARTESIAN_POINT('',(-5.39131141326806,8.08012664497972,0.));
#1484=CARTESIAN_POINT('',(-4.07781447922631,10.2720132257058,-3.));
#1485=CARTESIAN_POINT('',(-4.07781447922631,10.2720132257058,4.33680868994202E-16));
#1486=CARTESIAN_POINT('',(-2.31314609485172,11.5617814120351,-3.));
#1487=CARTESIAN_POINT('',(-2.31314609485172,11.5617814120351,-4.33680868994202E-16));
#1488=CARTESIAN_POINT('',(-1.25000001952677,11.8600710889617,-3.));
#1489=CARTESIAN_POINT('',(-1.25000001952677,11.8600710889617,0.));
#1490=CARTESIAN_POINT('',(1.25000001952677,11.8600710889617,-3.));
#1491=CARTESIAN_POINT('',(1.25000001952677,11.8600710889617,0.));
#1492=CARTESIAN_POINT('',(2.31314609485166,11.5617814120348,-3.));
#1493=CARTESIAN_POINT('',(2.31314609485166,11.5617814120348,-4.33680868994202E-16));
#1494=CARTESIAN_POINT('',(4.07781447922634,10.272013225706,-3.));
#1495=CARTESIAN_POINT('',(4.07781447922634,10.272013225706,4.33680868994202E-16));
#1496=CARTESIAN_POINT('',(5.39131141326806,8.0801266449797,-3.));
#1497=CARTESIAN_POINT('',(5.39131141326806,8.0801266449797,-4.33680868994202E-16));
#1498=CARTESIAN_POINT('',(6.11105021000998,6.23749038418549,-3.));
#1499=CARTESIAN_POINT('',(6.11105021000998,6.23749038418549,-4.33680868994202E-16));
#1500=CARTESIAN_POINT('',(6.63089835258694,4.43334864399523,-3.));
#1501=CARTESIAN_POINT('',(6.63089835258694,4.43334864399523,4.33680868994202E-16));
#1502=CARTESIAN_POINT('',(6.90661566566103,2.77207646067051,-3.));
#1503=CARTESIAN_POINT('',(6.90661566566103,2.77207646067051,-4.33680868994202E-16));
#1504=CARTESIAN_POINT('',(6.9938816276802,1.57224077798589,-3.));
#1505=CARTESIAN_POINT('',(6.9938816276802,1.57224077798589,0.));
#1506=CARTESIAN_POINT('',(1.96323118707498,-9.4636310588939,-3.));
#1507=CARTESIAN_POINT('',(1.96323118707498,-9.4636310588939,3.));
#1508=CARTESIAN_POINT('',(-5.42101086242752E-17,-10.2433604445916,-3.));
#1509=CARTESIAN_POINT('',(-5.42101086242752E-17,-10.2433604445916,3.));
#1510=CARTESIAN_POINT('',(-1.96323118707497,-9.4636310588939,-3.));
#1511=CARTESIAN_POINT('',(-1.96323118707497,-9.4636310588939,3.));
#1512=CARTESIAN_POINT('',(-3.62757822265281,-7.24314963250877,-3.));
#1513=CARTESIAN_POINT('',(-3.62757822265281,-7.24314963250877,3.));
#1514=CARTESIAN_POINT('',(-4.73965935791023,-3.9199643338891,-3.));
#1515=CARTESIAN_POINT('',(-4.73965935791023,-3.9199643338891,3.));
#1516=CARTESIAN_POINT('',(-5.13017032104489,-3.68628738645072E-15,-3.));
#1517=CARTESIAN_POINT('',(-5.13017032104489,-3.68628738645072E-15,3.));
#1518=CARTESIAN_POINT('',(-4.73965935791023,3.91996433388911,-3.));
#1519=CARTESIAN_POINT('',(-4.73965935791023,3.91996433388911,3.));
#1520=CARTESIAN_POINT('',(-3.6275782226528,7.24314963250878,-3.));
#1521=CARTESIAN_POINT('',(-3.6275782226528,7.24314963250878,3.));
#1522=CARTESIAN_POINT('',(-1.96323118707499,9.46363105889389,-3.));
#1523=CARTESIAN_POINT('',(-1.96323118707499,9.46363105889389,3.));
#1524=CARTESIAN_POINT('',(5.24874884550213E-15,10.2433604445916,-3.));
#1525=CARTESIAN_POINT('',(5.24874884550213E-15,10.2433604445916,3.));
#1526=CARTESIAN_POINT('',(1.96323118707496,9.46363105889391,-3.));
#1527=CARTESIAN_POINT('',(1.96323118707496,9.46363105889391,3.));
#1528=CARTESIAN_POINT('',(3.62757822265282,7.24314963250876,-3.));
#1529=CARTESIAN_POINT('',(3.62757822265282,7.24314963250876,3.));
#1530=CARTESIAN_POINT('',(4.73965935791022,3.91996433388914,-3.));
#1531=CARTESIAN_POINT('',(4.73965935791022,3.91996433388914,3.));
#1532=CARTESIAN_POINT('',(5.13017032104489,-3.861114986764E-14,-3.));
#1533=CARTESIAN_POINT('',(5.13017032104489,-3.861114986764E-14,3.));
#1534=CARTESIAN_POINT('',(4.73965935791023,-3.91996433388908,-3.));
#1535=CARTESIAN_POINT('',(4.73965935791023,-3.91996433388908,3.));
#1536=CARTESIAN_POINT('',(3.62757822265282,-7.24314963250875,-3.));
#1537=CARTESIAN_POINT('',(3.62757822265282,-7.24314963250875,3.));
#1538=CARTESIAN_POINT('',(1.96323118707498,-9.4636310588939,-3.));
#1539=CARTESIAN_POINT('',(1.96323118707498,-9.4636310588939,3.));
#1540=CARTESIAN_POINT('',(-5.42101086242752E-17,-10.2433604445916,-3.));
#1541=CARTESIAN_POINT('',(-5.42101086242752E-17,-10.2433604445916,3.));
#1542=CARTESIAN_POINT('',(-1.96323118707497,-9.4636310588939,-3.));
#1543=CARTESIAN_POINT('',(-1.96323118707497,-9.4636310588939,3.));
#1544=CARTESIAN_POINT('',(-6.99412093002482,-1.57198125683015,-3.));
#1545=CARTESIAN_POINT('',(-6.99412093002482,-1.57198125683015,0.));
#1546=CARTESIAN_POINT('',(-6.9070196113175,-2.76677160294842,-3.));
#1547=CARTESIAN_POINT('',(-6.9070196113175,-2.76677160294842,-4.33680868994202E-16));
#1548=CARTESIAN_POINT('',(-6.53129165906557,-5.18859841953258,-3.));
#1549=CARTESIAN_POINT('',(-6.53129165906557,-5.18859841953258,-8.67361737988404E-16));
#1550=CARTESIAN_POINT('',(-5.3219799290699,-8.37917706753155,-3.));
#1551=CARTESIAN_POINT('',(-5.3219799290699,-8.37917706753155,-4.33680868994202E-16));
#1552=CARTESIAN_POINT('',(-3.57178259879156,-10.7456986743088,-3.));
#1553=CARTESIAN_POINT('',(-3.57178259879156,-10.7456986743088,-4.33680868994202E-16));
#1554=CARTESIAN_POINT('',(-2.04603164646523,-11.6388165633986,-3.));
#1555=CARTESIAN_POINT('',(-2.04603164646523,-11.6388165633986,-4.33680868994202E-16));
#1556=CARTESIAN_POINT('',(-1.25000001172605,-11.8600951532532,-3.));
#1557=CARTESIAN_POINT('',(-1.25000001172605,-11.8600951532532,0.));
#1558=MECHANICAL_DESIGN_GEOMETRIC_PRESENTATION_REPRESENTATION('',(#788),
#1559);
#1559=(
GEOMETRIC_REPRESENTATION_CONTEXT(3)
GLOBAL_UNCERTAINTY_ASSIGNED_CONTEXT((#1560))
GLOBAL_UNIT_ASSIGNED_CONTEXT((#1563,#1562,#1561))
REPRESENTATION_CONTEXT('ZeroThickness01_10mmEllipse',
'TOP_LEVEL_ASSEMBLY_PART')
);
#1560=UNCERTAINTY_MEASURE_WITH_UNIT(LENGTH_MEASURE(0.005),#1563,
'DISTANCE_ACCURACY_VALUE','Maximum Tolerance applied to model');
#1561=(
NAMED_UNIT(*)
SI_UNIT($,.STERADIAN.)
SOLID_ANGLE_UNIT()
);
#1562=(
NAMED_UNIT(*)
PLANE_ANGLE_UNIT()
SI_UNIT($,.RADIAN.)
);
#1563=(
LENGTH_UNIT()
NAMED_UNIT(*)
SI_UNIT(.MILLI.,.METRE.)
);
#1564=PRODUCT_DEFINITION_SHAPE('','',#1565);
#1565=PRODUCT_DEFINITION('','',#1567,#1566);
#1566=PRODUCT_DEFINITION_CONTEXT('',#1573,'design');
#1567=PRODUCT_DEFINITION_FORMATION_WITH_SPECIFIED_SOURCE('','',#1569,
 .NOT_KNOWN.);
#1568=PRODUCT_RELATED_PRODUCT_CATEGORY('','',(#1569));
#1569=PRODUCT('ZeroThickness01_10mmEllipse',
'ZeroThickness01_10mmEllipse','ZeroThickness01_10mmEllipse',(#1571));
#1570=PRODUCT_CATEGORY('','');
#1571=PRODUCT_CONTEXT('',#1573,'mechanical');
#1572=APPLICATION_PROTOCOL_DEFINITION('international standard',
'automotive_design',2010,#1573);
#1573=APPLICATION_CONTEXT(
'core data for automotive mechanical design processes');
ENDSEC;
END-ISO-10303-21;
