<?xml version="1.0" encoding="UTF-8" standalone="no"?>
<svg
   xmlns:dc="http://purl.org/dc/elements/1.1/"
   xmlns:cc="http://creativecommons.org/ns#"
   xmlns:rdf="http://www.w3.org/1999/02/22-rdf-syntax-ns#"
   xmlns:svg="http://www.w3.org/2000/svg"
   xmlns="http://www.w3.org/2000/svg"
   xmlns:sodipodi="http://sodipodi.sourceforge.net/DTD/sodipodi-0.dtd"
   xmlns:inkscape="http://www.inkscape.org/namespaces/inkscape"
   sodipodi:docname="drawing.svg"
   inkscape:version="1.0 (4035a4fb49, 2020-05-01)"
   id="svg8"
   version="1.1"
   viewBox="0 0 50 50"
   height="50mm"
   width="50mm">
  <defs
     id="defs2" />
  <sodipodi:namedview
     inkscape:window-maximized="1"
     inkscape:window-y="-8"
     inkscape:window-x="1672"
     inkscape:window-height="987"
     inkscape:window-width="1680"
     showgrid="false"
     inkscape:document-rotation="0"
     inkscape:current-layer="layer1"
     inkscape:document-units="mm"
     inkscape:cy="664.19559"
     inkscape:cx="-548.05919"
     inkscape:zoom="0.175"
     inkscape:pageshadow="2"
     inkscape:pageopacity="0.0"
     borderopacity="1.0"
     bordercolor="#666666"
     pagecolor="#ffffff"
     id="base" />
  <metadata
     id="metadata5">
    <rdf:RDF>
      <cc:Work
         rdf:about="">
        <dc:format>image/svg+xml</dc:format>
        <dc:type
           rdf:resource="http://purl.org/dc/dcmitype/StillImage" />
        <dc:title></dc:title>
      </cc:Work>
    </rdf:RDF>
  </metadata>
  <g
     id="layer1"
     inkscape:groupmode="layer"
     inkscape:label="Layer 1">
    <path
       id="path24"
       d="M 0.12987,28.052002 V 0.12987 H 30 59.87014 V 28.052002 55.97413 H 30 0.12987 Z m 32.60756,23.116923 c 1.6856,-1.857146 4.13609,-4.545461 5.44553,-5.974036 1.30943,-1.428573 5.46307,-5.987023 9.23031,-10.129888 3.76724,-4.142864 6.97156,-7.62156 7.12072,-7.730437 0.16855,-0.123023 -0.0742,-0.516304 -0.6413,-1.038963 C 51.42826,24.024292 30.26809,4.7854 29.45382,4.0757 l -0.93579,-0.81561 -6.53174,7.17496 c -3.59246,3.94624 -6.53194,7.24519 -6.53218,7.33101 -2e-4,0.0858 1.59452,0.12029 3.54391,0.0766 3.41216,-0.0765 5.08598,0.22309 3.07219,0.54988 -1.64543,0.26702 -1.68059,0.36111 -1.68059,4.496462 0,3.056865 0.0671,3.734437 0.36968,3.734437 0.40005,0 1.73309,-1.022856 2.70141,-2.072827 0.7307,-0.792306 3.01077,-4.123462 3.22765,-4.715552 0.22733,-0.62062 -0.51254,-1.52333 -1.24854,-1.52333 -0.34904,0 -0.63462,-0.10717 -0.63462,-0.23816 0,-0.13255 1.72793,-0.25087 3.8961,-0.26679 2.35215,-0.0173 3.89611,0.0708 3.89611,0.22225 0,0.13798 -0.52907,0.33021 -1.17572,0.42718 -1.70279,0.25535 -2.64151,1.0127 -4.41914,3.56532 -0.86842,1.247023 -1.95185,2.652058 -2.40763,3.1223 -0.45577,0.470243 -0.82868,0.927833 -0.82868,1.016865 0,0.08903 0.90584,1.079752 2.01299,2.201599 1.10714,1.121849 2.67476,2.920396 3.48361,3.996778 1.47817,1.967102 2.09782,2.39842 4.37353,3.04426 0.69099,0.196101 -0.18143,0.259442 -3.63637,0.264007 -3.50243,0.0046 -4.36665,-0.05689 -3.76623,-0.268098 1.30451,-0.458894 1.46463,-0.68171 1.05224,-1.464254 -0.19946,-0.378487 -1.37094,-1.827735 -2.6033,-3.220546 -2.02995,-2.294262 -3.2652,-3.31178 -4.02046,-3.31178 -0.32962,0 -0.37502,6.709141 -0.0489,7.223407 0.11869,0.187153 0.73053,0.500764 1.35965,0.696913 1.07496,0.335148 0.89353,0.356631 -3.01198,0.356631 -3.94175,0 -4.0958,-0.0187 -2.99024,-0.363051 0.64108,-0.19968 1.31315,-0.564848 1.4935,-0.811492 0.24575,-0.336082 0.32791,-2.289201 0.32791,-7.795418 V 19.36267 L 17.17031,18.9552 C 16.82828,18.73109 16.1562,18.48746 15.6768,18.41379 14.82758,18.2833 14.69107,18.40579 10.36561,23.165933 7.92385,25.853277 5.32575,28.708465 4.59206,29.5108 l -1.33399,1.458786 12.37714,11.268508 c 14.32457,13.041509 13.66766,12.45582 13.87643,12.37207 0.0886,-0.03553 1.54015,-1.584082 3.22576,-3.441229 z M 32.35314,44.35033 c -1.12011,-0.569242 -1.23491,-0.923023 -0.52868,-1.629253 0.63944,-0.639441 1.48909,-0.545099 2.54072,0.282118 1.15846,0.911248 2.45259,0.514578 3.05941,-0.937758 0.29672,-0.710144 0.36762,-2.933697 0.36762,-11.528418 0,-10.262099 -0.0182,-10.658339 -0.5024,-10.917459 -0.27632,-0.14788 -0.86074,-0.26888 -1.2987,-0.26888 -0.43797,0 -0.7963,-0.11688 -0.7963,-0.25974 0,-0.16079 1.38528,-0.25974 3.63636,-0.25974 2.25109,0 3.63637,0.099 3.63637,0.25974 0,0.14286 -0.2779,0.25974 -0.61755,0.25974 -1.2962,0 -1.32121,0.1775 -1.46037,10.364048 -0.12314,9.013376 -0.15865,9.568359 -0.68503,10.706751 -1.59326,3.445762 -4.86327,5.193357 -7.35145,3.928851 z"
       style="fill:none;stroke:#ff0000;stroke-width:0.25974" />
  </g>
</svg>
