  0
SECTION
  2
HEADER
  9
$ACADVER
  1
AC1014
  9
$HANDSEED
  5
FFFF
  9
$MEASUREMENT
 70
     1
  0
ENDSEC
  0
SECTION
  2
TABLES
  0
TABLE
  2
VPORT
  5
8
330
0
100
AcDbSymbolTable
 70
     4
  0
VPORT
  5
2E
330
8
100
AcDbSymbolTableRecord
100
AcDbViewportTableRecord
  2
*ACTIVE
 70
     0
 10
0.0
 20
0.0
 11
1.0
 21
1.0
 12
210.0
 22
148.5
 13
0.0
 23
0.0
 14
10.0
 24
10.0
 15
10.0
 25
10.0
 16
0.0
 26
0.0
 36
1.0
 17
0.0
 27
0.0
 37
0.0
 40
341.0
 41
1.24
 42
50.0
 43
0.0
 44
0.0
 50
0.0
 51
0.0
 71
     0
 72
   100
 73
     1
 74
     3
 75
     0
 76
     0
 77
     0
 78
     0
  0
ENDTAB
  0
TABLE
  2
LTYPE
  5
5
330
0
100
AcDbSymbolTable
 70
     1
  0
LTYPE
  5
14
330
5
100
AcDbSymbolTableRecord
100
AcDbLinetypeTableRecord
  2
BYBLOCK
 70
     0
  3

 72
    65
 73
     0
 40
0.0
  0
LTYPE
  5
15
330
5
100
AcDbSymbolTableRecord
100
AcDbLinetypeTableRecord
  2
BYLAYER
 70
     0
  3

 72
    65
 73
     0
 40
0.0
  0
LTYPE
  5
16
330
5
100
AcDbSymbolTableRecord
100
AcDbLinetypeTableRecord
  2
CONTINUOUS
 70
     0
  3
Solid line
 72
    65
 73
     0
 40
0.0
  0
ENDTAB
  0
TABLE
  2
LAYER
  5
2
100
AcDbSymbolTable
 70
2
  0
LAYER
  5
50
100
AcDbSymbolTableRecord
100
AcDbLayerTableRecord
  2
0
 70
0
  6
CONTINUOUS
  0
LAYER
  5
51
100
AcDbSymbolTableRecord
100
AcDbLayerTableRecord
  2
Layer_1
 70
0
  6
CONTINUOUS
  0
ENDTAB
  0
TABLE
  2
STYLE
  5
3
330
0
100
AcDbSymbolTable
 70
     1
  0
STYLE
  5
11
330
3
100
AcDbSymbolTableRecord
100
AcDbTextStyleTableRecord
  2
STANDARD
 70
     0
 40
0.0
 41
1.0
 50
0.0
 71
     0
 42
2.5
  3
txt
  4

  0
ENDTAB
  0
TABLE
  2
VIEW
  5
6
330
0
100
AcDbSymbolTable
 70
     0
  0
ENDTAB
  0
TABLE
  2
UCS
  5
7
330
0
100
AcDbSymbolTable
 70
     0
  0
ENDTAB
  0
TABLE
  2
APPID
  5
9
330
0
100
AcDbSymbolTable
 70
     2
  0
APPID
  5
12
330
9
100
AcDbSymbolTableRecord
100
AcDbRegAppTableRecord
  2
ACAD
 70
     0
  0
ENDTAB
  0
TABLE
  2
DIMSTYLE
  5
A
330
0
100
AcDbSymbolTable
 70
     1
  0
DIMSTYLE
105
27
330
A
100
AcDbSymbolTableRecord
100
AcDbDimStyleTableRecord
  2
ISO-25
 70
     0
  3

  4

  5

  6

  7

 40
1.0
 41
2.5
 42
0.625
 43
3.75
 44
1.25
 45
0.0
 46
0.0
 47
0.0
 48
0.0
140
2.5
141
2.5
142
0.0
143
0.03937007874016
144
1.0
145
0.0
146
1.0
147
0.625
 71
     0
 72
     0
 73
     0
 74
     0
 75
     0
 76
     0
 77
     1
 78
     8
170
     0
171
     3
172
     1
173
     0
174
     0
175
     0
176
     0
177
     0
178
     0
270
     2
271
     2
272
     2
273
     2
274
     3
340
11
275
     0
280
     0
281
     0
282
     0
283
     0
284
     8
285
     0
286
     0
287
     3
288
     0
  0
ENDTAB
  0
TABLE
  2
BLOCK_RECORD
  5
1
330
0
100
AcDbSymbolTable
 70
     1
  0
BLOCK_RECORD
  5
1F
330
1
100
AcDbSymbolTableRecord
100
AcDbBlockTableRecord
  2
*MODEL_SPACE
  0
BLOCK_RECORD
  5
1B
330
1
100
AcDbSymbolTableRecord
100
AcDbBlockTableRecord
  2
*PAPER_SPACE
  0
ENDTAB
  0
ENDSEC
  0
SECTION
  2
BLOCKS
  0
BLOCK
  5
20
330
1F
100
AcDbEntity
  8
0
100
AcDbBlockBegin
  2
*MODEL_SPACE
 70
     0
 10
0.0
 20
0.0
 30
0.0
  3
*MODEL_SPACE
  1

  0
ENDBLK
  5
21
330
1F
100
AcDbEntity
  8
0
100
AcDbBlockEnd
  0
BLOCK
  5
1C
330
1B
100
AcDbEntity
 67
     1
  8
0
100
AcDbBlockBegin
  2
*PAPER_SPACE
  1

  0
ENDBLK
  5
1D
330
1B
100
AcDbEntity
 67
     1
  8
0
100
AcDbBlockEnd
  0
ENDSEC
  0
SECTION
  2
ENTITIES
  0
SPLINE
  5
100
100
AcDbEntity
  8
Layer_1
 62
1
100
AcDbSpline
 70
8
 71
3
 72
8
 73
4
 74
0
 40
0
 40
0
 40
0
 40
0
 40
1
 40
1
 40
1
 40
1
 10
92.799014
 20
-3.313488
 30
0.0
 10
97.577093
 20
1.950863
 30
0.0
 10
104.523364
 20
9.571283
 30
0.0
 10
108.235162
 20
13.620787
 30
0.0
  0
SPLINE
  5
101
100
AcDbEntity
  8
Layer_1
 62
1
100
AcDbSpline
 70
8
 71
3
 72
8
 73
4
 74
0
 40
0
 40
0
 40
0
 40
0
 40
1
 40
1
 40
1
 40
1
 10
108.235162
 20
13.620787
 30
0.0
 10
111.946932
 20
17.670285
 30
0.0
 10
123.721030
 20
30.591876
 30
0.0
 10
134.399820
 20
42.335430
 30
0.0
  0
SPLINE
  5
102
100
AcDbEntity
  8
Layer_1
 62
1
100
AcDbSpline
 70
8
 71
3
 72
8
 73
4
 74
0
 40
0
 40
0
 40
0
 40
0
 40
1
 40
1
 40
1
 40
1
 10
134.399820
 20
42.335430
 30
0.0
 10
145.078611
 20
54.078982
 30
0.0
 10
154.161723
 20
63.939852
 30
0.0
 10
154.584539
 20
64.248480
 30
0.0
  0
SPLINE
  5
103
100
AcDbEntity
  8
Layer_1
 62
1
100
AcDbSpline
 70
8
 71
3
 72
8
 73
4
 74
0
 40
0
 40
0
 40
0
 40
0
 40
1
 40
1
 40
1
 40
1
 10
154.584539
 20
64.248480
 30
0.0
 10
155.062318
 20
64.597207
 30
0.0
 10
154.374208
 20
65.712019
 30
0.0
 10
152.766680
 20
67.193572
 30
0.0
  0
SPLINE
  5
104
100
AcDbEntity
  8
Layer_1
 62
1
100
AcDbSpline
 70
8
 71
3
 72
8
 73
4
 74
0
 40
0
 40
0
 40
0
 40
0
 40
1
 40
1
 40
1
 40
1
 10
152.766680
 20
67.193572
 30
0.0
 10
145.780894
 20
73.631928
 30
0.0
 10
85.799310
 20
128.167370
 30
0.0
 10
83.491143
 20
130.179118
 30
0.0
  0
LWPOLYLINE
  5
105
100
AcDbEntity
  8
Layer_1
 62
1
100
AcDbPolyline
 90
8
 70
1
 10
0.368135
 20
62.214797
 30
0.0
 10
0.368135
 20
141.364148
 30
0.0
 10
85.039370
 20
141.364148
 30
0.0
 10
169.710633
 20
141.364148
 30
0.0
 10
169.710633
 20
62.214797
 30
0.0
 10
169.710633
 20
-16.934542
 30
0.0
 10
85.039370
 20
-16.934542
 30
0.0
 10
0.368135
 20
-16.934542
 30
0.0
  0
SPLINE
  5
106
100
AcDbEntity
  8
Layer_1
 62
1
100
AcDbSpline
 70
8
 71
3
 72
8
 73
4
 74
0
 40
0
 40
0
 40
0
 40
0
 40
1
 40
1
 40
1
 40
1
 10
62.323342
 20
112.152614
 30
0.0
 10
52.139991
 20
100.966422
 30
0.0
 10
43.807606
 20
91.615068
 30
0.0
 10
43.806926
 20
91.371798
 30
0.0
  0
SPLINE
  5
107
100
AcDbEntity
  8
Layer_1
 62
1
100
AcDbSpline
 70
8
 71
3
 72
8
 73
4
 74
0
 40
0
 40
0
 40
0
 40
0
 40
1
 40
1
 40
1
 40
1
 10
43.806926
 20
91.371798
 30
0.0
 10
43.806359
 20
91.128586
 30
0.0
 10
48.326825
 20
91.030819
 30
0.0
 10
53.852655
 20
91.154665
 30
0.0
  0
SPLINE
  5
108
100
AcDbEntity
  8
Layer_1
 62
1
100
AcDbSpline
 70
8
 71
3
 72
8
 73
4
 74
0
 40
0
 40
0
 40
0
 40
0
 40
1
 40
1
 40
1
 40
1
 10
53.852655
 20
91.154665
 30
0.0
 10
63.524920
 20
91.371515
 30
0.0
 10
68.269606
 20
90.522283
 30
0.0
 10
62.561225
 20
89.595950
 30
0.0
  0
SPLINE
  5
109
100
AcDbEntity
  8
Layer_1
 62
1
100
AcDbSpline
 70
8
 71
3
 72
8
 73
4
 74
0
 40
0
 40
0
 40
0
 40
0
 40
1
 40
1
 40
1
 40
1
 10
62.561225
 20
89.595950
 30
0.0
 10
57.897014
 20
88.839043
 30
0.0
 10
57.797348
 20
88.572331
 30
0.0
 10
57.797348
 20
76.850073
 30
0.0
  0
SPLINE
  5
10a
100
AcDbEntity
  8
Layer_1
 62
1
100
AcDbSpline
 70
8
 71
3
 72
8
 73
4
 74
0
 40
0
 40
0
 40
0
 40
0
 40
1
 40
1
 40
1
 40
1
 10
57.797348
 20
76.850073
 30
0.0
 10
57.797348
 20
68.184944
 30
0.0
 10
57.987553
 20
66.264267
 30
0.0
 10
58.845260
 20
66.264267
 30
0.0
  0
SPLINE
  5
10b
100
AcDbEntity
  8
Layer_1
 62
1
100
AcDbSpline
 70
8
 71
3
 72
8
 73
4
 74
0
 40
0
 40
0
 40
0
 40
0
 40
1
 40
1
 40
1
 40
1
 10
58.845260
 20
66.264267
 30
0.0
 10
59.979260
 20
66.264267
 30
0.0
 10
63.757956
 20
69.163702
 30
0.0
 10
66.502800
 20
72.139997
 30
0.0
  0
SPLINE
  5
10c
100
AcDbEntity
  8
Layer_1
 62
1
100
AcDbSpline
 70
8
 71
3
 72
8
 73
4
 74
0
 40
0
 40
0
 40
0
 40
0
 40
1
 40
1
 40
1
 40
1
 10
66.502800
 20
72.139997
 30
0.0
 10
68.574076
 20
74.385904
 30
0.0
 10
75.037266
 20
83.828551
 30
0.0
 10
75.652044
 20
85.506917
 30
0.0
  0
SPLINE
  5
10d
100
AcDbEntity
  8
Layer_1
 62
1
100
AcDbSpline
 70
8
 71
3
 72
8
 73
4
 74
0
 40
0
 40
0
 40
0
 40
0
 40
1
 40
1
 40
1
 40
1
 10
75.652044
 20
85.506917
 30
0.0
 10
76.296444
 20
87.266154
 30
0.0
 10
74.199175
 20
89.825017
 30
0.0
 10
72.112876
 20
89.825017
 30
0.0
  0
SPLINE
  5
10e
100
AcDbEntity
  8
Layer_1
 62
1
100
AcDbSpline
 70
8
 71
3
 72
8
 73
4
 74
0
 40
0
 40
0
 40
0
 40
0
 40
1
 40
1
 40
1
 40
1
 10
72.112876
 20
89.825017
 30
0.0
 10
71.123471
 20
89.825017
 30
0.0
 10
70.313953
 20
90.128806
 30
0.0
 10
70.313953
 20
90.500117
 30
0.0
  0
SPLINE
  5
10f
100
AcDbEntity
  8
Layer_1
 62
1
100
AcDbSpline
 70
8
 71
3
 72
8
 73
4
 74
0
 40
0
 40
0
 40
0
 40
0
 40
1
 40
1
 40
1
 40
1
 10
70.313953
 20
90.500117
 30
0.0
 10
70.313953
 20
90.875849
 30
0.0
 10
75.212022
 20
91.211244
 30
0.0
 10
81.358016
 20
91.256372
 30
0.0
  0
SPLINE
  5
110
100
AcDbEntity
  8
Layer_1
 62
1
100
AcDbSpline
 70
8
 71
3
 72
8
 73
4
 74
0
 40
0
 40
0
 40
0
 40
0
 40
1
 40
1
 40
1
 40
1
 10
81.358016
 20
91.256372
 30
0.0
 10
88.025528
 20
91.305411
 30
0.0
 10
92.402107
 20
91.055679
 30
0.0
 10
92.402107
 20
90.626372
 30
0.0
  0
SPLINE
  5
111
100
AcDbEntity
  8
Layer_1
 62
1
100
AcDbSpline
 70
8
 71
3
 72
8
 73
4
 74
0
 40
0
 40
0
 40
0
 40
0
 40
1
 40
1
 40
1
 40
1
 10
92.402107
 20
90.626372
 30
0.0
 10
92.402107
 20
90.235247
 30
0.0
 10
90.902381
 20
89.690343
 30
0.0
 10
89.069357
 20
89.415468
 30
0.0
  0
SPLINE
  5
112
100
AcDbEntity
  8
Layer_1
 62
1
100
AcDbSpline
 70
8
 71
3
 72
8
 73
4
 74
0
 40
0
 40
0
 40
0
 40
0
 40
1
 40
1
 40
1
 40
1
 10
89.069357
 20
89.415468
 30
0.0
 10
84.242551
 20
88.691641
 30
0.0
 10
81.581613
 20
86.544822
 30
0.0
 10
76.542661
 20
79.309049
 30
0.0
  0
SPLINE
  5
113
100
AcDbEntity
  8
Layer_1
 62
1
100
AcDbSpline
 70
8
 71
3
 72
8
 73
4
 74
0
 40
0
 40
0
 40
0
 40
0
 40
1
 40
1
 40
1
 40
1
 10
76.542661
 20
79.309049
 30
0.0
 10
74.080998
 20
75.774180
 30
0.0
 10
71.009858
 20
71.791404
 30
0.0
 10
69.717883
 20
70.458435
 30
0.0
  0
SPLINE
  5
114
100
AcDbEntity
  8
Layer_1
 62
1
100
AcDbSpline
 70
8
 71
3
 72
8
 73
4
 74
0
 40
0
 40
0
 40
0
 40
0
 40
1
 40
1
 40
1
 40
1
 10
69.717883
 20
70.458435
 30
0.0
 10
68.425937
 20
69.125462
 30
0.0
 10
67.368869
 20
67.828357
 30
0.0
 10
67.368869
 20
67.575983
 30
0.0
  0
SPLINE
  5
115
100
AcDbEntity
  8
Layer_1
 62
1
100
AcDbSpline
 70
8
 71
3
 72
8
 73
4
 74
0
 40
0
 40
0
 40
0
 40
0
 40
1
 40
1
 40
1
 40
1
 10
67.368869
 20
67.575983
 30
0.0
 10
67.368869
 20
67.323614
 30
0.0
 10
69.936605
 20
64.515268
 30
0.0
 10
73.074983
 20
61.335230
 30
0.0
  0
SPLINE
  5
116
100
AcDbEntity
  8
Layer_1
 62
1
100
AcDbSpline
 70
8
 71
3
 72
8
 73
4
 74
0
 40
0
 40
0
 40
0
 40
0
 40
1
 40
1
 40
1
 40
1
 10
73.074983
 20
61.335230
 30
0.0
 10
76.213332
 20
58.155185
 30
0.0
 10
80.656980
 20
53.056942
 30
0.0
 10
82.949783
 20
50.005780
 30
0.0
  0
SPLINE
  5
117
100
AcDbEntity
  8
Layer_1
 62
1
100
AcDbSpline
 70
8
 71
3
 72
8
 73
4
 74
0
 40
0
 40
0
 40
0
 40
0
 40
1
 40
1
 40
1
 40
1
 10
82.949783
 20
50.005780
 30
0.0
 10
87.139871
 20
44.429743
 30
0.0
 10
88.896359
 20
43.207109
 30
0.0
 10
95.347191
 20
41.376382
 30
0.0
  0
SPLINE
  5
118
100
AcDbEntity
  8
Layer_1
 62
1
100
AcDbSpline
 70
8
 71
3
 72
8
 73
4
 74
0
 40
0
 40
0
 40
0
 40
0
 40
1
 40
1
 40
1
 40
1
 10
95.347191
 20
41.376382
 30
0.0
 10
97.305902
 20
40.820505
 30
0.0
 10
94.832901
 20
40.640956
 30
0.0
 10
85.039370
 20
40.628015
 30
0.0
  0
SPLINE
  5
119
100
AcDbEntity
  8
Layer_1
 62
1
100
AcDbSpline
 70
8
 71
3
 72
8
 73
4
 74
0
 40
0
 40
0
 40
0
 40
0
 40
1
 40
1
 40
1
 40
1
 10
85.039370
 20
40.628015
 30
0.0
 10
75.111222
 20
40.614976
 30
0.0
 10
72.661465
 20
40.789278
 30
0.0
 10
74.363443
 20
41.387978
 30
0.0
  0
SPLINE
  5
11a
100
AcDbEntity
  8
Layer_1
 62
1
100
AcDbSpline
 70
8
 71
3
 72
8
 73
4
 74
0
 40
0
 40
0
 40
0
 40
0
 40
1
 40
1
 40
1
 40
1
 10
74.363443
 20
41.387978
 30
0.0
 10
78.061266
 20
42.688780
 30
0.0
 10
78.515150
 20
43.320385
 30
0.0
 10
77.346170
 20
45.538620
 30
0.0
  0
SPLINE
  5
11b
100
AcDbEntity
  8
Layer_1
 62
1
100
AcDbSpline
 70
8
 71
3
 72
8
 73
4
 74
0
 40
0
 40
0
 40
0
 40
0
 40
1
 40
1
 40
1
 40
1
 10
77.346170
 20
45.538620
 30
0.0
 10
76.780772
 20
46.611496
 30
0.0
 10
73.460041
 20
50.719601
 30
0.0
 10
69.966737
 20
54.667726
 30
0.0
  0
SPLINE
  5
11c
100
AcDbEntity
  8
Layer_1
 62
1
100
AcDbSpline
 70
8
 71
3
 72
8
 73
4
 74
0
 40
0
 40
0
 40
0
 40
0
 40
1
 40
1
 40
1
 40
1
 10
69.966737
 20
54.667726
 30
0.0
 10
64.212548
 20
61.171146
 30
0.0
 10
60.711052
 20
64.055449
 30
0.0
 10
58.570157
 20
64.055449
 30
0.0
  0
SPLINE
  5
11d
100
AcDbEntity
  8
Layer_1
 62
1
100
AcDbSpline
 70
8
 71
3
 72
8
 73
4
 74
0
 40
0
 40
0
 40
0
 40
0
 40
1
 40
1
 40
1
 40
1
 10
58.570157
 20
64.055449
 30
0.0
 10
57.635802
 20
64.055449
 30
0.0
 10
57.507109
 20
45.037412
 30
0.0
 10
58.431543
 20
43.579650
 30
0.0
  0
SPLINE
  5
11e
100
AcDbEntity
  8
Layer_1
 62
1
100
AcDbSpline
 70
8
 71
3
 72
8
 73
4
 74
0
 40
0
 40
0
 40
0
 40
0
 40
1
 40
1
 40
1
 40
1
 10
58.431543
 20
43.579650
 30
0.0
 10
58.767987
 20
43.049137
 30
0.0
 10
60.502337
 20
42.160161
 30
0.0
 10
62.285669
 20
41.604148
 30
0.0
  0
SPLINE
  5
11f
100
AcDbEntity
  8
Layer_1
 62
1
100
AcDbSpline
 70
8
 71
3
 72
8
 73
4
 74
0
 40
0
 40
0
 40
0
 40
0
 40
1
 40
1
 40
1
 40
1
 10
62.285669
 20
41.604148
 30
0.0
 10
65.332800
 20
40.654123
 30
0.0
 10
64.818510
 20
40.593226
 30
0.0
 10
53.747773
 20
40.593226
 30
0.0
  0
SPLINE
  5
120
100
AcDbEntity
  8
Layer_1
 62
1
100
AcDbSpline
 70
8
 71
3
 72
8
 73
4
 74
0
 40
0
 40
0
 40
0
 40
0
 40
1
 40
1
 40
1
 40
1
 10
53.747773
 20
40.593226
 30
0.0
 10
42.574309
 20
40.593226
 30
0.0
 10
42.137631
 20
40.646234
 30
0.0
 10
45.271502
 20
41.622347
 30
0.0
  0
SPLINE
  5
121
100
AcDbEntity
  8
Layer_1
 62
1
100
AcDbSpline
 70
8
 71
3
 72
8
 73
4
 74
0
 40
0
 40
0
 40
0
 40
0
 40
1
 40
1
 40
1
 40
1
 10
45.271502
 20
41.622347
 30
0.0
 10
47.088737
 20
42.188369
 30
0.0
 10
48.993817
 20
43.223491
 30
0.0
 10
49.505046
 20
43.922639
 30
0.0
  0
SPLINE
  5
122
100
AcDbEntity
  8
Layer_1
 62
1
100
AcDbSpline
 70
8
 71
3
 72
8
 73
4
 74
0
 40
0
 40
0
 40
0
 40
0
 40
1
 40
1
 40
1
 40
1
 10
49.505046
 20
43.922639
 30
0.0
 10
50.201660
 20
44.875312
 30
0.0
 10
50.434554
 20
50.411713
 30
0.0
 10
50.434554
 20
66.019887
 30
0.0
  0
LWPOLYLINE
  5
123
100
AcDbEntity
  8
Layer_1
 62
1
100
AcDbPolyline
 90
3
 70
0
 10
83.491143
 20
130.179118
 30
0.0
 10
80.838510
 20
132.491083
 30
0.0
 10
62.323342
 20
112.152614
 30
0.0
  0
SPLINE
  5
124
100
AcDbEntity
  8
Layer_1
 62
1
100
AcDbSpline
 70
8
 71
3
 72
8
 73
4
 74
0
 40
0
 40
0
 40
0
 40
0
 40
1
 40
1
 40
1
 40
1
 10
48.671745
 20
88.001008
 30
0.0
 10
47.702211
 20
88.636280
 30
0.0
 10
45.797102
 20
89.326885
 30
0.0
 10
44.438173
 20
89.535713
 30
0.0
  0
SPLINE
  5
125
100
AcDbEntity
  8
Layer_1
 62
1
100
AcDbSpline
 70
8
 71
3
 72
8
 73
4
 74
0
 40
0
 40
0
 40
0
 40
0
 40
1
 40
1
 40
1
 40
1
 10
44.438173
 20
89.535713
 30
0.0
 10
42.030935
 20
89.905606
 30
0.0
 10
41.643978
 20
89.558391
 30
0.0
 10
29.382831
 20
76.065072
 30
0.0
  0
SPLINE
  5
126
100
AcDbEntity
  8
Layer_1
 62
1
100
AcDbSpline
 70
8
 71
3
 72
8
 73
4
 74
0
 40
0
 40
0
 40
0
 40
0
 40
1
 40
1
 40
1
 40
1
 10
29.382831
 20
76.065072
 30
0.0
 10
22.461307
 20
68.447404
 30
0.0
 10
15.096614
 20
60.353957
 30
0.0
 10
13.016863
 20
58.079622
 30
0.0
  0
LWPOLYLINE
  5
127
100
AcDbEntity
  8
Layer_1
 62
1
100
AcDbPolyline
 90
3
 70
0
 10
50.434554
 20
66.019887
 30
0.0
 10
50.434554
 20
86.845975
 30
0.0
 10
48.671745
 20
88.001008
 30
0.0
  0
SPLINE
  5
128
100
AcDbEntity
  8
Layer_1
 62
1
100
AcDbSpline
 70
8
 71
3
 72
8
 73
4
 74
0
 40
0
 40
0
 40
0
 40
0
 40
1
 40
1
 40
1
 40
1
 10
44.320280
 20
22.002253
 30
0.0
 10
84.925361
 20
-14.965804
 30
0.0
 10
83.063254
 20
-13.305583
 30
0.0
 10
83.655043
 20
-13.068181
 30
0.0
  0
SPLINE
  5
129
100
AcDbEntity
  8
Layer_1
 62
1
100
AcDbSpline
 70
8
 71
3
 72
8
 73
4
 74
0
 40
0
 40
0
 40
0
 40
0
 40
1
 40
1
 40
1
 40
1
 10
83.655043
 20
-13.068181
 30
0.0
 10
83.906192
 20
-12.967466
 30
0.0
 10
88.020822
 20
-8.577870
 30
0.0
 10
92.798929
 20
-3.313517
 30
0.0
  0
LWPOLYLINE
  5
12a
100
AcDbEntity
  8
Layer_1
 62
1
100
AcDbPolyline
 90
3
 70
0
 10
13.016863
 20
58.079622
 30
0.0
 10
9.235474
 20
53.944481
 30
0.0
 10
44.320280
 20
22.002253
 30
0.0
  0
SPLINE
  5
12b
100
AcDbEntity
  8
Layer_1
 62
1
100
AcDbSpline
 70
8
 71
3
 72
8
 73
4
 74
0
 40
0
 40
0
 40
0
 40
0
 40
1
 40
1
 40
1
 40
1
 10
91.709688
 20
16.014813
 30
0.0
 10
88.534573
 20
17.628412
 30
0.0
 10
88.209156
 20
18.631256
 30
0.0
 10
90.211068
 20
20.633168
 30
0.0
  0
SPLINE
  5
12c
100
AcDbEntity
  8
Layer_1
 62
1
100
AcDbSpline
 70
8
 71
3
 72
8
 73
4
 74
0
 40
0
 40
0
 40
0
 40
0
 40
1
 40
1
 40
1
 40
1
 10
90.211068
 20
20.633168
 30
0.0
 10
92.023654
 20
22.445756
 30
0.0
 10
94.432110
 20
22.178330
 30
0.0
 10
97.413109
 20
19.833463
 30
0.0
  0
SPLINE
  5
12d
100
AcDbEntity
  8
Layer_1
 62
1
100
AcDbSpline
 70
8
 71
3
 72
8
 73
4
 74
0
 40
0
 40
0
 40
0
 40
0
 40
1
 40
1
 40
1
 40
1
 10
97.413109
 20
19.833463
 30
0.0
 10
100.696932
 20
17.250398
 30
0.0
 10
104.365332
 20
18.374817
 30
0.0
 10
106.085452
 20
22.491675
 30
0.0
  0
SPLINE
  5
12e
100
AcDbEntity
  8
Layer_1
 62
1
100
AcDbSpline
 70
8
 71
3
 72
8
 73
4
 74
0
 40
0
 40
0
 40
0
 40
0
 40
1
 40
1
 40
1
 40
1
 10
106.085452
 20
22.491675
 30
0.0
 10
106.926548
 20
24.504681
 30
0.0
 10
107.127524
 20
30.807666
 30
0.0
 10
107.127524
 20
55.170655
 30
0.0
  0
SPLINE
  5
12f
100
AcDbEntity
  8
Layer_1
 62
1
100
AcDbSpline
 70
8
 71
3
 72
8
 73
4
 74
0
 40
0
 40
0
 40
0
 40
0
 40
1
 40
1
 40
1
 40
1
 10
107.127524
 20
55.170655
 30
0.0
 10
107.127524
 20
84.260069
 30
0.0
 10
107.075934
 20
85.383269
 30
0.0
 10
105.703398
 20
86.117783
 30
0.0
  0
SPLINE
  5
130
100
AcDbEntity
  8
Layer_1
 62
1
100
AcDbSpline
 70
8
 71
3
 72
8
 73
4
 74
0
 40
0
 40
0
 40
0
 40
0
 40
1
 40
1
 40
1
 40
1
 10
105.703398
 20
86.117783
 30
0.0
 10
104.920129
 20
86.536970
 30
0.0
 10
103.263506
 20
86.879962
 30
0.0
 10
102.022044
 20
86.879962
 30
0.0
  0
SPLINE
  5
131
100
AcDbEntity
  8
Layer_1
 62
1
100
AcDbSpline
 70
8
 71
3
 72
8
 73
4
 74
0
 40
0
 40
0
 40
0
 40
0
 40
1
 40
1
 40
1
 40
1
 10
102.022044
 20
86.879962
 30
0.0
 10
100.780554
 20
86.879962
 30
0.0
 10
99.764816
 20
87.211276
 30
0.0
 10
99.764816
 20
87.616233
 30
0.0
  0
SPLINE
  5
132
100
AcDbEntity
  8
Layer_1
 62
1
100
AcDbSpline
 70
8
 71
3
 72
8
 73
4
 74
0
 40
0
 40
0
 40
0
 40
0
 40
1
 40
1
 40
1
 40
1
 10
99.764816
 20
87.616233
 30
0.0
 10
99.764816
 20
88.072016
 30
0.0
 10
103.691594
 20
88.352504
 30
0.0
 10
110.072608
 20
88.352504
 30
0.0
  0
SPLINE
  5
133
100
AcDbEntity
  8
Layer_1
 62
1
100
AcDbSpline
 70
8
 71
3
 72
8
 73
4
 74
0
 40
0
 40
0
 40
0
 40
0
 40
1
 40
1
 40
1
 40
1
 10
110.072608
 20
88.352504
 30
0.0
 10
116.453650
 20
88.352504
 30
0.0
 10
120.380428
 20
88.071874
 30
0.0
 10
120.380428
 20
87.616233
 30
0.0
  0
SPLINE
  5
134
100
AcDbEntity
  8
Layer_1
 62
1
100
AcDbSpline
 70
8
 71
3
 72
8
 73
4
 74
0
 40
0
 40
0
 40
0
 40
0
 40
1
 40
1
 40
1
 40
1
 10
120.380428
 20
87.616233
 30
0.0
 10
120.380428
 20
87.211276
 30
0.0
 10
119.592680
 20
86.879962
 30
0.0
 10
118.629893
 20
86.879962
 30
0.0
  0
SPLINE
  5
135
100
AcDbEntity
  8
Layer_1
 62
1
100
AcDbSpline
 70
8
 71
3
 72
8
 73
4
 74
0
 40
0
 40
0
 40
0
 40
0
 40
1
 40
1
 40
1
 40
1
 10
118.629893
 20
86.879962
 30
0.0
 10
114.955625
 20
86.879962
 30
0.0
 10
114.884731
 20
86.376813
 30
0.0
 10
114.490261
 20
57.501558
 30
0.0
  0
SPLINE
  5
136
100
AcDbEntity
  8
Layer_1
 62
1
100
AcDbSpline
 70
8
 71
3
 72
8
 73
4
 74
0
 40
0
 40
0
 40
0
 40
0
 40
1
 40
1
 40
1
 40
1
 10
114.490261
 20
57.501558
 30
0.0
 10
114.141203
 20
31.951831
 30
0.0
 10
114.040545
 20
30.378651
 30
0.0
 10
112.548444
 20
27.151713
 30
0.0
  0
SPLINE
  5
137
100
AcDbEntity
  8
Layer_1
 62
1
100
AcDbSpline
 70
8
 71
3
 72
8
 73
4
 74
0
 40
0
 40
0
 40
0
 40
0
 40
1
 40
1
 40
1
 40
1
 10
112.548444
 20
27.151713
 30
0.0
 10
108.032117
 20
17.384199
 30
0.0
 10
98.762797
 20
12.430386
 30
0.0
 10
91.709688
 20
16.014813
 30
0.0
  0
LWPOLYLINE
  5
138
100
AcDbEntity
  8
Layer_1
 62
1
100
AcDbPolyline
 90
1
 70
1
 10
92.798929
 20
-3.313517
 30
0.0
  0
LWPOLYLINE
  5
139
100
AcDbEntity
  8
Layer_1
 62
1
100
AcDbPolyline
 90
1
 70
1
 10
91.709688
 20
16.014813
 30
0.0
  0
ENDSEC
  0
SECTION
  2
OBJECTS
  0
DICTIONARY
  5
C
330
0
100
AcDbDictionary
  3
ACAD_GROUP
350
D
  3
ACAD_MLINESTYLE
350
17
  0
DICTIONARY
  5
D
330
C
100
AcDbDictionary
  0
DICTIONARY
  5
1A
330
C
100
AcDbDictionary
  0
DICTIONARY
  5
17
330
C
100
AcDbDictionary
  3
STANDARD
350
18
  0
DICTIONARY
  5
19
330
C
100
AcDbDictionary
  0
ENDSEC
  0
EOF
