# 
# Wavefront OBJ file
# Created with Kaydara FBX
# 
mtllib shop_hookpart3.mtl

g Shop_HookPart3
v 2.750000 -0.770504 27.042327
v -2.750000 -0.770504 27.042327
v -2.750000 -0.770504 5.666635
v 2.750000 -0.770504 5.666635
v -2.750000 0.729496 27.042327
v 2.750000 0.729496 27.042327
v 2.750000 4.842018 25.545492
v -2.750000 4.842018 25.545492
v 2.750000 5.186242 25.333172
v -2.750000 5.186242 25.333172
v 2.750000 5.418216 25.001878
v -2.750000 5.418216 25.001878
v 2.750000 5.500000 24.605798
v -2.750000 5.500000 24.605798
v 2.750000 5.500000 11.605798
v -2.750000 5.500000 11.605798
v 2.750000 3.692161 11.605798
v -2.750000 3.692161 11.605798
v 2.750000 3.197205 11.736878
v -2.750000 3.197205 11.736878
v 2.750000 2.832009 12.095755
v -2.750000 2.832009 12.095755
v 2.750000 2.692310 12.588346
v -2.750000 2.692310 12.588346
v 2.750000 2.517150 22.623250
v -2.750000 2.517150 22.623250
v 2.750000 2.130678 23.395590
v 2.750000 1.729496 23.583026
v -2.750000 1.729496 23.583026
v 2.750000 2.411589 23.053292
v -2.750000 2.130678 23.395590
v -2.750000 2.411589 23.053292
v 2.750000 1.729496 -17.121433
v -2.750000 1.729496 -17.121433
v -2.750000 1.811279 -17.517515
v -2.750000 2.043254 -17.848809
v 2.750000 1.811279 -17.517515
v -2.750000 2.387478 -18.061129
v 2.750000 2.043254 -17.848809
v 2.750000 2.387478 -18.061129
v 2.750000 4.842018 -18.954508
v -2.750000 4.842018 -18.954508
v 2.750000 5.186242 -19.166828
v -2.750000 5.186242 -19.166828
v 2.750000 5.418216 -19.498122
v -2.750000 5.418216 -19.498122
v 2.750000 5.500000 -19.894202
v -2.750000 5.500000 -19.894202
v 2.750000 5.500000 -32.894202
v -2.750000 5.500000 -32.894202
v 2.750000 3.690555 -32.894202
v -2.750000 3.690555 -32.894202
v 2.750000 3.195599 -32.763122
v -2.750000 3.195599 -32.763122
v 2.750000 2.830403 -32.404245
v -2.750000 2.830403 -32.404245
v 2.750000 2.690705 -31.911654
v -2.750000 2.690705 -31.911654
v 2.750000 2.515545 -21.876750
v -2.750000 2.515545 -21.876750
v 2.750000 2.129937 -21.105082
v 2.750000 1.729496 -20.917324
v -2.750000 1.729496 -20.917324
v 2.750000 2.410229 -21.447198
v -2.750000 2.129937 -21.105082
v -2.750000 2.410229 -21.447198
v 2.750000 1.729496 -33.894202
v -2.750000 1.729496 -33.894202
v 2.750000 1.653375 -34.276885
v -2.750000 1.653375 -34.276885
v 2.750000 1.436602 -34.601309
v -2.750000 1.436602 -34.601309
v 2.750000 1.112179 -34.818081
v -2.750000 1.112179 -34.818081
v 2.750000 0.729496 -34.894202
v -2.750000 0.729496 -34.894202
v 2.750000 -0.770504 -34.894202
v -2.750000 -0.770504 -34.894202
v 2.750000 -0.770504 -12.407146
v -2.750000 -0.770504 -12.407146
v -2.750000 -3.990143 1.743494
v -2.750000 -5.805781 1.802932
v 2.750000 -5.805781 1.802932
v -2.750000 -2.335459 2.493222
v 2.750000 -3.990143 1.743494
v -2.750000 -1.183013 3.897480
v 2.750000 -2.335459 2.493222
v 2.750000 -1.183013 3.897480
v 2.750000 -29.973412 8.278629
v -2.750000 -29.973412 8.278629
v 2.750000 -31.972117 9.210641
v 2.750000 -33.531523 10.770046
v -2.750000 -31.972117 9.210641
v -2.750000 -33.531523 10.770046
v -2.750000 -35.594823 13.716745
v 2.750000 -35.594823 13.716745
v -2.750000 -35.952776 14.059410
v 2.750000 -35.952776 14.059410
v -2.750000 -36.414613 14.239009
v 2.750000 -36.414613 14.239009
v -2.750000 -36.910025 14.228199
v 2.750000 -36.910025 14.228199
v -2.750000 -37.363588 14.028626
v 2.750000 -37.363588 14.028626
v -2.750000 -38.559550 13.191205
v 2.750000 -38.559550 13.191205
v -2.750000 -38.902215 12.833252
v 2.750000 -38.902215 12.833252
v -2.750000 -39.081814 12.371415
v 2.750000 -39.081814 12.371415
v -2.750000 -39.071004 11.876003
v 2.750000 -39.071004 11.876003
v -2.750000 -38.871431 11.422440
v 2.750000 -38.871431 11.422440
v -2.750000 -36.808131 8.475741
v 2.750000 -36.808131 8.475741
v -2.750000 -32.704003 5.031970
v -2.750000 -34.982759 6.483697
v -2.750000 -1.861010 -9.662180
v -2.750000 -3.080031 -8.781915
v -2.750000 -1.053114 -10.930322
v 2.750000 -32.704003 5.031970
v 2.750000 -3.080031 -8.781915
v 2.750000 -34.982759 6.483697
v 2.750000 -1.053114 -10.930322
v 2.750000 -1.861010 -9.662180
usemtl Shop_HookPart3Material0
f 1 2 3
f 3 4 1
f 5 2 1
f 1 6 5
f 7 8 5
f 5 6 7
f 8 7 9
f 10 9 11
f 12 11 13
f 13 14 12
f 11 12 10
f 9 10 8
f 15 16 14
f 14 13 15
f 15 17 18
f 18 16 15
f 18 17 19
f 20 19 21
f 22 21 23
f 23 24 22
f 21 22 20
f 19 20 18
f 25 26 24
f 24 23 25
f 27 28 29
f 30 27 31
f 25 30 32
f 32 26 25
f 31 32 30
f 29 31 27
f 28 33 34
f 34 29 28
f 35 34 33
f 36 35 37
f 38 36 39
f 39 40 38
f 37 39 36
f 33 37 35
f 40 41 42
f 42 38 40
f 42 41 43
f 44 43 45
f 46 45 47
f 47 48 46
f 45 46 44
f 43 44 42
f 48 47 49
f 49 50 48
f 49 51 52
f 52 50 49
f 52 51 53
f 54 53 55
f 56 55 57
f 57 58 56
f 55 56 54
f 53 54 52
f 58 57 59
f 59 60 58
f 61 62 63
f 64 61 65
f 59 64 66
f 66 60 59
f 65 66 64
f 63 65 61
f 63 62 67
f 67 68 63
f 68 67 69
f 70 69 71
f 72 71 73
f 74 73 75
f 75 76 74
f 73 74 72
f 71 72 70
f 69 70 68
f 76 75 77
f 77 78 76
f 77 79 80
f 80 78 77
f 81 82 83
f 84 81 85
f 86 84 87
f 3 86 88
f 88 4 3
f 87 88 86
f 85 87 84
f 83 85 81
f 89 83 82
f 82 90 89
f 91 89 90
f 92 91 93
f 93 94 92
f 90 93 91
f 95 96 92
f 92 94 95
f 96 95 97
f 98 97 99
f 100 99 101
f 102 101 103
f 103 104 102
f 101 102 100
f 99 100 98
f 97 98 96
f 105 106 104
f 104 103 105
f 106 105 107
f 108 107 109
f 110 109 111
f 112 111 113
f 113 114 112
f 111 112 110
f 109 110 108
f 107 108 106
f 115 116 114
f 114 113 115
f 111 109 107
f 95 101 99
f 105 113 111
f 60 42 44
f 48 52 58
f 52 54 56
f 95 103 101
f 107 105 111
f 94 115 113
f 44 46 60
f 56 58 52
f 117 90 82
f 117 118 93
f 99 97 95
f 113 103 94
f 60 38 42
f 48 50 52
f 81 119 120
f 93 90 117
f 118 115 94
f 105 103 113
f 58 60 48
f 81 34 35
f 82 120 117
f 95 94 103
f 60 36 38
f 81 84 34
f 94 93 118
f 65 63 80
f 60 35 36
f 35 60 66
f 81 121 119
f 80 121 65
f 14 18 24
f 18 20 22
f 35 66 81
f 121 81 65
f 8 31 29
f 31 12 14
f 31 8 10
f 22 24 18
f 68 72 74
f 29 34 3
f 46 48 60
f 81 66 65
f 29 2 5
f 10 12 31
f 14 16 18
f 68 70 72
f 34 86 3
f 120 82 81
f 14 32 31
f 24 26 14
f 74 76 68
f 78 80 63
f 84 86 34
f 26 32 14
f 63 68 78
f 29 5 8
f 3 2 29
f 76 78 68
f 112 106 108
f 108 110 112
f 102 96 98
f 92 104 114
f 114 104 106
f 98 100 102
f 51 57 55
f 47 59 57
f 112 114 106
f 104 92 96
f 122 89 91
f 122 123 83
f 57 51 47
f 40 62 61
f 102 104 96
f 124 91 92
f 83 89 122
f 85 83 123
f 55 53 51
f 61 45 43
f 61 64 47
f 87 85 125
f 62 37 33
f 61 41 40
f 92 116 124
f 123 126 85
f 47 64 59
f 47 45 61
f 33 125 62
f 40 39 62
f 17 23 21
f 13 25 23
f 91 124 122
f 43 41 61
f 39 37 62
f 23 17 13
f 27 11 9
f 27 30 13
f 7 6 28
f 114 116 92
f 125 33 87
f 67 75 73
f 21 19 17
f 13 11 27
f 28 27 7
f 51 49 47
f 28 1 4
f 73 71 67
f 13 30 25
f 6 1 28
f 33 88 87
f 4 33 28
f 77 67 62
f 67 77 75
f 9 7 27
f 4 88 33
f 71 69 67
f 126 125 85
f 62 125 79
f 62 79 77
f 17 15 13
f 122 117 120
f 120 123 122
f 116 115 118
f 124 118 117
f 117 122 124
f 118 124 116
f 126 123 120
f 125 126 119
f 79 125 121
f 121 80 79
f 119 121 125
f 120 119 126
