<?xml version="1.0" encoding="UTF-8" standalone="no"?>
<svg
   xmlns:dc="http://purl.org/dc/elements/1.1/"
   xmlns:cc="http://creativecommons.org/ns#"
   xmlns:rdf="http://www.w3.org/1999/02/22-rdf-syntax-ns#"
   xmlns:svg="http://www.w3.org/2000/svg"
   xmlns="http://www.w3.org/2000/svg"
   xmlns:sodipodi="http://sodipodi.sourceforge.net/DTD/sodipodi-0.dtd"
   xmlns:inkscape="http://www.inkscape.org/namespaces/inkscape"
   inkscape:version="1.0 (4035a4fb49, 2020-05-01)"
   sodipodi:docname="avo-uvezian-seeklogo.com.svg"
   viewBox="0 0 377.95279 377.95279"
   height="377.95279"
   width="377.95279"
   xml:space="preserve"
   id="svg10"
   version="1.1"><metadata
     id="metadata16"><rdf:RDF><cc:Work
         rdf:about=""><dc:format>image/svg+xml</dc:format><dc:type
           rdf:resource="http://purl.org/dc/dcmitype/StillImage" /><dc:title></dc:title></cc:Work></rdf:RDF></metadata><defs
     id="defs14" /><sodipodi:namedview
     inkscape:current-layer="g18"
     inkscape:window-maximized="1"
     inkscape:window-y="-8"
     inkscape:window-x="1672"
     inkscape:cy="169.06238"
     inkscape:cx="269.50269"
     inkscape:zoom="2.4059601"
     showgrid="false"
     id="namedview12"
     inkscape:window-height="987"
     inkscape:window-width="1680"
     inkscape:pageshadow="2"
     inkscape:pageopacity="0"
     guidetolerance="10"
     gridtolerance="10"
     objecttolerance="10"
     borderopacity="1"
     bordercolor="#666666"
     pagecolor="#ffffff" /><g
     transform="matrix(1.3333333,0,0,-1.3333333,0,377.9528)"
     inkscape:label="avo-uvezian-seeklogo.com"
     inkscape:groupmode="layer"
     id="g18"><path
       id="path22"
       style="fill:none;fill-opacity:1;fill-rule:nonzero;stroke:#000000"
       d="m 142.8384,257.8371 c -2.4784,0 -3.9127,-2.9129 -4.8861,-4.5964 -1.9885,1.944 -3.6014,4.2806 -9.15,4.2806 -5.3742,0 -8.4719,-4.4824 -8.4719,-9.2097 0,-5.1081 4.2976,-7.8852 6.662,-7.8852 4.0374,0 5.6239,3.1624 5.6239,4.94 0,1.8575 -1.0165,3.5212 -2.4397,3.5212 l -1.1739,-1.0381 c 0,-0.57 -1.7991,-1.3201 -1.7991,0.0383 0,1.3371 1.1259,1.961 2.3644,1.961 2.1843,0 3.9449,-1.0599 3.9449,-4.4824 0,-3.3256 -3.1345,-6.0152 -6.4987,-6.0152 -1.8578,0 -7.8253,2.5263 -7.8253,8.8356 0,6.4109 4.7767,10.2759 9.0374,10.2759 4.102,0 6.6991,-0.701 9.4873,-3.1518 1.5602,2.3522 2.973,3.6246 5.1248,3.6246 1.7498,0 3.9988,-1.0984 5.0969,-3.897 2.249,2.4137 5.6132,3.4996 8.9881,3.4996 3.5861,0 9.646,-2.6895 9.646,-9.5366 0,-4.5978 -2.2444,-9.2976 -7.6186,-9.2976 -5.6517,0 -6.7655,3.5969 -6.7655,6.2492 0,2.3091 1.961,3.8957 3.5368,3.8957 1.7776,0 3.0654,-0.7333 2.9897,-1.8853 l -1.9791,-0.1741 -1.1078,1.0213 c -0.864,0 -2.4137,-0.4991 -2.4137,-2.9823 0,-2.8635 1.8592,-5.1525 5.7889,-5.1525 4.7319,0 6.4817,4.8537 6.4817,8.4396 0,3.9449 -3.1346,8.4614 -8.9989,8.4614 -4.6457,0 -7.634,-2.7125 -8.8186,-4.364 -0.8271,2.5756 -2.6033,4.6242 -4.8259,4.6242" /><path
       id="path24"
       style="fill:none;fill-opacity:1;fill-rule:nonzero;stroke:#000000"
       d="m 120.2596,245.4279 c -3.113,-0.576 -16.6346,-5.6841 -19.9863,-8.1624 l 3.7168,-0.1463 3.3197,-0.8642 c 2.8156,1.9732 12.5864,5.2004 15.074,5.7379 z" /><path
       id="path26"
       style="fill:none;fill-opacity:1;fill-rule:nonzero;stroke:#000000"
       d="m 164.3788,243.5301 c 2.4339,-0.4604 11.9597,-4.3623 14.834,-6.5095 l 1.7606,0.174 c -2.8851,2.1243 -13.6987,6.5759 -16.1447,6.9719 z" /><path
       id="path54"
       style="fill:none;fill-opacity:1;fill-rule:nonzero;stroke:#000000"
       d="m 86.724,237.1762 c 2.1243,0 3.9127,-3.7987 4.8093,-5.3098 2.2118,2.0488 5.2647,4.9339 11.0367,4.9339 5.7979,0 10.0354,-4.9339 10.0354,-9.2208 0,-5.0862 -3.7493,-7.1626 -6.1999,-7.1626 -3.7324,0 -5.2605,2.9883 -5.2605,4.7121 0,1.7113 1.3649,3.4503 3.1856,3.4503 1.4663,0 1.7761,-1.2399 1.7543,-1.5282 l -0.5652,-1.0102 0.701,-1.086 c 0.5006,0 1.326,0.2217 1.326,1.5974 0,1.6511 -1.6035,2.7881 -3.3148,2.7881 -1.722,0 -4.2114,-1.0876 -4.2114,-4.3855 0,-3.3151 2.7496,-5.4884 6.3635,-5.4884 1.9454,0 7.2334,1.722 7.2334,8.0578 0,6.7175 -6.2986,10.2109 -11.1075,10.2109 -4.364,0 -7.8529,-1.4618 -10.8134,-3.9064 -1.5882,2.3845 -2.8975,4.407 -5.1743,4.407 -1.8468,0 -3.6244,-2.1472 -4.4224,-5.0108 -3.7014,3.7879 -8.0376,4.7492 -11.8363,4.7492 -3.7599,0 -10.5253,-3.0376 -10.5253,-9.8847 0,-4.5641 2.6787,-9.6336 8.3134,-9.6336 5.9352,0 7.1459,3.3364 7.1459,5.9613 0,3.0098 -2.5217,4.8246 -4.809,4.8246 -2.3369,0 -3.7494,-1.7391 -3.674,-3.3256 l 1.3649,-1.2385 0.0969,1.9023 c -0.3849,1.1245 0.6531,1.8576 2.1521,1.8576 1.4834,0 3.837,-1.2493 3.837,-4.125 0,-2.8468 -2.0548,-4.9062 -6.1631,-4.9062 -4.9382,0 -7.1396,5.0862 -7.1396,8.7432 0,3.9773 3.7278,8.8633 9.8353,8.8633 5.4885,0 10.0647,-3.6246 11.8903,-6.0213 0.8254,2.5863 1.7821,6.1846 4.1357,6.1846" /><path
       id="path56"
       style="fill:none;fill-opacity:1;fill-rule:nonzero;stroke:#000000"
       d="m 195.6348,237.3103 c -2.1521,0 -3.9405,-3.7879 -4.8476,-5.2883 -1.5375,1.864 -4.2378,4.7766 -9.9878,4.7766 -5.8133,0 -10.048,-4.9507 -10.048,-9.2375 0,-5.097 3.7616,-7.1459 6.2124,-7.1459 3.7108,0 5.2481,2.9622 5.2481,4.6843 0,1.7116 -1.3354,3.4722 -3.1995,3.4722 -1.451,0 -1.7498,-1.2493 -1.7235,-1.522 l 0.5389,-1.0644 -0.6899,-1.0491 c -0.5006,0 -1.3264,0.2126 -1.3264,1.5761 0,1.6741 1.6129,2.8094 3.3149,2.8094 1.7223,0 4.0481,-1.1089 4.0481,-4.3963 0,-3.287 -2.6246,-5.4989 -6.1999,-5.4989 -2.2612,0 -7.2337,1.7498 -7.2337,8.0745 0,6.6946 6.3096,10.2113 11.1078,10.2113 4.3532,0 6.7606,-1.2771 9.7381,-3.7387 1.5866,2.3738 2.9237,4.4501 5.2328,4.4501 2.0378,0 3.401,-2.2271 4.3421,-5.0646 3.7108,3.7772 6.8085,4.7874 10.5857,4.7874 3.7877,0 10.5316,-3.0098 10.5316,-9.8628 0,-4.5859 -2.6357,-9.76 -8.2829,-9.76 -5.9612,0 -7.1997,3.4506 -7.1997,6.0752 0,3.0268 2.5495,4.826 4.8368,4.826 2.3845,0 3.7879,-1.7391 3.7108,-3.3256 l -1.4125,-1.1631 -0.0386,1.8255 c 0.3651,1.126 -0.6837,1.8485 -2.2118,1.8485 -1.4604,0 -3.8464,-1.2509 -3.8464,-4.1082 0,-2.8528 2.0702,-5.0154 6.183,-5.0154 4.9246,0 7.1628,5.1724 7.1628,8.8509 0,3.9464 -3.7108,8.8478 -9.8954,8.8478 -5.4666,0 -8.5907,-3.7383 -10.6025,-6.0273 -0.8362,2.577 -1.7328,6.1523 -4.0478,6.1523" /><path
       id="path58"
       style="fill:none;fill-opacity:1;fill-rule:nonzero;stroke:#000000"
       d="m 72.8022,220.4093 c 0,0 -7.3137,-9.3626 -11.2,-18.6109 -3.4336,-8.1949 -5.3745,-19.5196 -6.1339,-28.54 -0.5606,-6.6022 -2.6742,-9.4394 -4.2499,-11.6238 1.5757,-1.6897 4.5751,-6.8037 4.5751,-14.2376 0,-3.8633 0.9734,-9.7381 2.2504,-15.057 3.0098,-12.1244 9.5196,-22.411 12.4878,-26.1496 h 0.8194 c -2.9712,3.7386 -9.4824,14.0252 -12.4491,26.1496 -1.3371,5.3189 -2.2984,11.1937 -2.2984,15.057 0,7.4339 -2.973,12.5479 -4.5487,14.2376 1.5757,2.1844 3.6844,5.0216 4.25,11.6238 0.7979,9.0204 2.6739,20.3451 6.1245,28.54 3.8846,9.2483 11.1985,18.6109 11.1985,18.6109 z" /><path
       id="path60"
       style="fill:none;fill-opacity:1;fill-rule:nonzero;stroke:#000000"
       d="m 76.5731,218.0523 c 0,0 -6.0261,-7.1133 -10.2265,-16.2369 -3.9235,-8.5691 -5.5979,-19.5304 -6.3587,-28.5448 -0.5763,-6.6082 -2.0489,-9.461 -3.6247,-11.619 1.5758,-1.7113 3.3857,-7.1611 3.7988,-14.5735 0.2386,-3.9894 1.038,-9.4501 2.4029,-14.7489 3.4982,-13.8081 12.2199,-25.1206 15.1818,-28.893 l 1.3371,4.0113 c -2.9515,3.7491 -8.7217,11.5248 -11.9503,24.8817 -1.26,5.2988 -2.0962,10.7595 -2.3196,14.7489 -0.4516,7.4124 -3.1408,11.7701 -4.4671,14.5735 1.6035,2.158 3.0914,5.1956 3.6629,11.8194 0.75,8.9881 3.0268,19.7753 6.978,28.3444 4.1726,9.1236 7.1071,12.015 7.1071,12.015 z" /><path
       id="path62"
       style="fill:none;fill-opacity:1;fill-rule:nonzero;stroke:#000000"
       d="m 207.8512,104.1233 c 3.8248,4.5488 10.1234,13.5584 13.8575,28.2195 1.3524,5.2866 2.1132,10.7473 2.315,14.7475 0.4235,7.4123 2.7973,13.1457 4.4008,14.8462 -1.6035,2.1521 -3.2394,4.8739 -3.8032,11.5098 -0.7886,8.9989 -2.5985,19.9369 -6.26,28.6325 -4.4238,10.5145 -12.4447,20.1002 -12.4447,20.1002 l 0.419,0.9351 2.1996,-3.147 3.8155,-0.8257 c 0,0 6.1832,-8.1624 10.2484,-17.3245 4.0002,-9.0375 5.3589,-19.2209 6.1353,-28.5446 0.462,-5.912 2.2396,-9.7708 3.6243,-13.1242 -1.6143,-1.7112 -3.9342,-5.2974 -3.9342,-12.7309 0,-2.4616 -0.9887,-9.7878 -2.2765,-15.0744 -2.9883,-12.1241 -8.9234,-22.3075 -11.9225,-26.0955 l -4.1513,-1.8252 -1.2339,-1.9624 z" /><path
       id="path64"
       style="fill:none;fill-opacity:1;fill-rule:nonzero;stroke:#000000"
       d="m 206.2431,107.9512 c 2.973,3.7599 8.6616,10.8241 11.8732,24.2085 1.3094,5.3096 2.3755,10.7702 2.6142,14.7861 0.4081,7.4075 2.3306,12.2813 3.6459,15.0862 -1.5866,2.1351 -2.7757,5.3961 -3.375,12.0473 -0.7486,8.9711 -2.4338,19.421 -6.3739,28.0071 -4.1729,9.1236 -10.2374,16.6221 -10.2374,16.6221 l -0.445,-0.9887 c 0,0 5.2818,-6.5376 9.4717,-15.6334 3.9234,-8.5861 5.6993,-19.036 6.4494,-28.0349 0.5978,-6.6342 1.7609,-9.8844 3.3474,-12.0195 -1.3263,-2.8264 -3.2981,-7.6895 -3.7108,-15.1126 -0.2019,-3.9895 -1.2986,-9.4501 -2.5756,-14.7861 -3.2332,-13.358 -8.0098,-19.1344 -10.9721,-22.8838 z" /><path
       id="path66"
       style="fill:none;fill-opacity:1;fill-rule:nonzero;stroke:#000000"
       d="m 119.8774,248.4009 c -7.825,-1.2107 -24.6812,-9.0851 -29.8709,-13.5567 l -0.2234,0.6837 c 5.1744,4.4886 22.0459,12.363 29.8557,13.5969 z" /><path
       id="path68"
       style="fill:none;fill-opacity:1;fill-rule:nonzero;stroke:#000000"
       d="m 106.1283,220.0334 -2.1629,-2.3476 1.6898,-4.4133 c 5.4221,6.8363 13.5198,14.1608 20.681,15.9707 l 1.9349,4.7982 c -4.2485,-0.7716 -9.7475,-3.5966 -15.1928,-7.7587 l -1.3264,-3.6737 -3.287,-2.4015 z" /><path
       id="path70"
       style="fill:none;fill-opacity:1;fill-rule:nonzero;stroke:#000000"
       d="m 129.5342,237.854 c -4.276,-0.7118 -12.7374,-4.2869 -16.596,-7.5586 l -0.4884,0.6854 c 3.8478,3.2763 12.346,7.0472 17.3617,7.7757 z" /><path
       id="path72"
       style="fill:none;fill-opacity:1;fill-rule:nonzero;stroke:#000000"
       d="m 165.81,247.1902 c 6.1138,-1.4125 21.8824,-9.059 25.9198,-12.3954 l 0.7611,0.7994 c -4.076,3.3086 -20.2961,10.9981 -26.3821,12.4217 z" /><path
       id="path74"
       style="fill:none;fill-opacity:1;fill-rule:nonzero;stroke:#000000"
       d="m 178.2283,214.7652 c -7.3258,8.9711 -13.2377,13.2704 -19.4116,16.1833 l -0.4621,1.277 c 6.1521,-2.9021 12.7713,-7.4015 20.0957,-16.3743 z" /><path
       id="path76"
       style="fill:none;fill-opacity:1;fill-rule:nonzero;stroke:#000000"
       d="m 170.5096,228.9722 c -3.1345,2.4015 -10.5361,6.4341 -14.15,7.346 l -0.1462,1.1044 c 3.6076,-0.9026 11.3572,-5.0755 14.481,-7.4784 z" /><path
       id="path78"
       style="fill:none;fill-opacity:1;fill-rule:nonzero;stroke:#000000"
       d="m 197.9453,129.5765 c 2.4338,5.7594 6.2493,20.8443 1.3739,31.8163 6.5481,10.5253 -1.3739,33.8497 -2.7496,37.0338 l -2.4505,-6.086 c 0.9241,-2.1367 6.95,-20.9599 1.0766,-30.3826 4.5964,-7.7388 2.0486,-20.9213 0.174,-25.3714 z" /><path
       id="path80"
       style="fill:none;fill-opacity:1;fill-rule:nonzero;stroke:#000000"
       d="m 193.2979,142.5172 c 1.0599,5.7764 1.9131,13.0467 -1.8516,19.3946 4.9017,8.178 2.3737,20.6011 0.7549,24.4474 l -0.9397,-1.3461 c 1.6237,-3.8265 3.9126,-15.8738 -1.3108,-22.9488 3.7832,-6.3479 3.1363,-11.9332 2.0702,-17.7094 z" /><path
       id="path82"
       style="fill:none;fill-opacity:1;fill-rule:nonzero;stroke:#000000"
       d="m 91.6455,179.426 c -1.6619,-5.7393 -0.6899,-14.8632 2.2983,-18.9975 -3.5753,-2.9345 -3.814,-11.3355 -1.8362,-19.4117 l -2.6139,-6.2708 c -1.6081,5.2603 -2.0704,6.1461 -2.6464,13.1454 -0.7393,9.2115 0.701,9.2268 2.8483,13.9221 -2.2723,3.6521 -3.1748,6.9777 -2.9515,11.1999 0.3527,6.5637 0.9241,9.2761 2.0549,13.3844 z" /><path
       id="path84"
       style="fill:none;fill-opacity:1;fill-rule:nonzero;stroke:#000000"
       d="m 86.8487,191.9568 c -2.2873,-6.1228 -3.2485,-11.1829 -3.6612,-18.7353 -0.2126,-4.2222 0.4989,-6.8578 2.3967,-11.1572 -1.582,-5.1723 -2.7618,-4.5748 -2.2442,-13.8509 0.4235,-8.2224 2.1178,-13.1349 4.1944,-18.9711 l -0.6364,-1.5758 c -2.0746,5.8255 -4.3636,12.2644 -4.8242,20.4761 -0.5114,9.2483 0.7271,8.683 2.2765,13.8078 -1.9239,4.3639 -2.5878,6.961 -2.3752,11.2002 0.4127,7.5586 1.9517,14.2592 4.1959,20.4421 z" /><path
       id="path86"
       style="fill:none;fill-opacity:1;fill-rule:nonzero;stroke:#000000"
       d="m 89.7202,88.1728 c 5.1526,-4.4717 19.9602,-11.2587 27.8175,-12.9331 l -0.1094,1.0335 c -7.825,1.679 -21.9966,8.064 -27.1706,12.5635 z" /><path
       id="path88"
       style="fill:none;fill-opacity:1;fill-rule:nonzero;stroke:#000000"
       d="m 113.0289,97.8741 c 3.2009,-3.4722 7.1737,-5.7104 13.1718,-7.6728 l -0.6239,1.5976 c -4.3268,1.326 -8.9771,4.7766 -12.9884,8.6998 z" /><path
       id="path90"
       style="fill:none;fill-opacity:1;fill-rule:nonzero;stroke:#000000"
       d="m 104.7172,109.8366 c 0.9133,-1.3264 2.3859,-3.1624 3.5705,-4.652 0,0 -2.973,0.2172 -4.2497,-0.3852 -1.2818,-0.6145 -1.9825,-1.3754 -1.9825,-1.3754 z" /><path
       id="path92"
       style="fill:none;fill-opacity:1;fill-rule:nonzero;stroke:#000000"
       d="m 163.732,76.1054 c 6.5695,1.1245 23.845,9.2098 28.9805,14.0851 l 2.6618,-2.5107 C 189.4901,81.506 170.3463,73.0939 162.3688,72.0666 Z" /><path
       id="path94"
       style="fill:none;fill-opacity:1;fill-rule:nonzero;stroke:#000000"
       d="m 163.6736,79.4619 c 4.4838,0.6854 16.8454,6.4341 19.7198,8.5476 h -2.2213 c -2.876,-2.1135 -13.4614,-7.1997 -17.9393,-7.8622 z" /><path
       id="path96"
       style="fill:none;fill-opacity:1;fill-rule:nonzero;stroke:#000000"
       d="m 178.6351,109.3158 c -1.7005,-2.0486 -3.0268,-3.4718 -3.9787,-4.5487 l 1.6143,0.4731 2.5753,3.0651 z" /><path
       id="path98"
       style="fill:none;fill-opacity:1;fill-rule:nonzero;stroke:#000000"
       d="m 154.747,90.0706 c 5.4221,2.2504 9.9816,4.1851 15.5083,9.0864 l 0.3376,1.4233 c -5.4238,-5.1077 -9.5212,-6.8853 -15.1835,-9.2114 z" /><path
       id="path100"
       style="fill:none;fill-opacity:1;fill-rule:nonzero;stroke:#000000"
       d="m 160.0997,84.4634 c 3.1348,1.2509 9.9232,5.1525 12.357,7.3261 l -1.9995,3.0977 c -3.0592,-2.7388 -12.4815,-7.825 -16.9056,-8.0484 l -1.3646,-2.6895 2.9619,1.3138 2.5971,-0.1615 z" /><path
       id="path102"
       style="fill:none;fill-opacity:1;fill-rule:nonzero;stroke:#000000"
       d="m 92.3142,91.2657 c 6.819,-4.7611 18.036,-10.2756 25.3174,-11.8625 l 0.5269,1.499 c -4.3747,0.8918 -13.6987,5.0539 -17.1828,7.1782 l -3.5923,0.5607 -4.9059,3.3624 z" /><path
       id="path104"
       style="fill:none;fill-opacity:1;fill-rule:nonzero;stroke:#000000"
       d="m 196.6005,87.9571 c -2.1242,0 -3.9234,3.7984 -4.8353,5.3251 -2.175,-2.0381 -5.2234,-4.9785 -11.0475,-4.9785 -5.7611,0 -9.9986,4.9785 -9.9986,9.239 0,5.0865 3.7494,7.1719 6.1999,7.1719 3.7216,0 5.2498,-2.9712 5.2498,-4.6995 0,-1.7238 -1.3649,-3.4611 -3.1901,-3.4611 -1.4726,0 -1.7714,1.2277 -1.713,1.5264 l 0.5392,1.0381 -0.69,1.0383 c -0.5499,0 -1.3479,-0.2126 -1.3479,-1.5497 0,-1.6789 1.5973,-2.825 3.3364,-2.825 1.7005,0 4.1899,1.1353 4.1899,4.3747 0,3.3472 -2.7666,5.5361 -6.3527,5.5361 -1.9455,0 -7.2488,-1.7391 -7.2488,-8.0745 0,-6.7116 6.3354,-10.2266 11.1121,-10.2266 4.3469,0 7.8851,1.4664 10.8196,3.928 1.6143,-2.3907 2.9021,-4.4393 5.1789,-4.4393 1.836,0 3.5858,2.1518 4.3962,5.0261 3.6998,-3.7602 8.0637,-4.7381 11.8239,-4.7381 3.7769,0 10.559,3.0268 10.559,9.8844 0,4.5487 -2.6739,9.6134 -8.3086,9.6134 -5.9352,0 -7.1736,-3.3148 -7.1736,-5.961 0,-3.0007 2.5387,-4.7877 4.8367,-4.7877 2.3369,0 3.7494,1.7008 3.6632,3.3089 l -1.3541,1.2555 -0.0969,-1.9287 c 0.4019,-1.0982 -0.6854,-1.8746 -2.1521,-1.8746 -1.4833,0 -3.8477,1.2662 -3.8477,4.1406 0,2.8358 2.0593,4.8951 6.1891,4.8951 4.9233,0 7.1567,-5.0862 7.1567,-8.7477 0,-3.962 -3.7324,-8.8203 -9.8955,-8.8203 -5.4881,0 -10.0369,3.5861 -11.8624,5.9721 -0.847,-2.5645 -1.8099,-6.1614 -4.1358,-6.1614" /><path
       id="path106"
       style="fill:none;fill-opacity:1;fill-rule:nonzero;stroke:#000000"
       d="m 87.7054,87.7045 c 2.1086,0 3.9509,3.7984 4.8367,5.3096 1.5219,-1.8593 4.233,-4.7704 9.9987,-4.7704 5.7823,0 10.0369,4.949 10.0369,9.2205 0,5.114 -3.7491,7.1629 -6.2277,7.1629 -3.7231,0 -5.2328,-2.973 -5.2328,-4.6843 0,-1.7283 1.3586,-3.4892 3.1949,-3.4892 1.4403,0 1.7499,1.2385 1.7283,1.5375 l -0.5485,1.0489 0.6732,1.0383 c 0.5375,0 1.3587,-0.2126 1.3587,-1.565 0,-1.6467 -1.6359,-2.8097 -3.3472,-2.8097 -1.7008,0 -4.022,1.1367 -4.022,4.3962 0,3.3041 2.6203,5.4993 6.1738,5.4993 2.2598,0 7.2598,-1.7609 7.2598,-8.0686 0,-6.7005 -6.2986,-10.2112 -11.1124,-10.2112 -4.3483,0 -6.7714,1.2707 -9.7489,3.7216 -1.5712,-2.3477 -2.9236,-4.4116 -5.2112,-4.4116 -2.0764,0 -3.435,2.2119 -4.3591,5.0369 -3.7001,-3.7876 -6.8131,-4.7767 -10.5746,-4.7767 -3.7988,0 -10.5361,3.0269 -10.5361,9.8632 0,4.587 2.6523,9.7767 8.287,9.7767 5.9398,0 7.172,-3.4781 7.172,-6.0877 0,-3.0144 -2.5092,-4.8521 -4.8243,-4.8521 -2.4077,0 -3.7987,1.7606 -3.6848,3.3534 l 1.4125,1.1353 0.0494,-1.8147 c -0.402,-1.109 0.6624,-1.8482 2.1736,-1.8482 1.5004,0 3.8262,1.2506 3.8262,4.1249 0,2.8251 -2.0486,4.9987 -6.1846,4.9987 -4.8907,0 -7.1136,-5.2005 -7.1136,-8.8464 0,-3.9603 3.7125,-8.8512 9.8354,-8.8512 5.5222,0 8.6354,3.7279 10.6455,6.037 0.8535,-2.5603 1.7283,-6.1739 4.0652,-6.1739" /><path
       id="path108"
       style="fill:none;fill-opacity:1;fill-rule:nonzero;stroke:#000000"
       d="m 140.4632,67.5488 c 2.4985,0 3.9603,2.9126 4.9122,4.5963 1.9717,-1.9346 3.5969,-4.2607 9.1607,-4.2607 5.3974,0 8.4566,4.4886 8.4566,9.2114 0,5.0865 -4.2823,7.8744 -6.6467,7.8744 -4.0374,0 -5.6455,-3.1516 -5.6455,-4.9615 0,-1.8484 1.0211,-3.4889 2.4614,-3.4889 l 1.1352,1.0165 c 0,0.5701 1.827,1.3371 1.827,-0.017 0,-1.3476 -1.1415,-1.9822 -2.3922,-1.9822 -2.1458,0 -3.9234,1.0706 -3.9234,4.4716 0,3.3364 3.1362,6.0106 6.5267,6.0106 1.859,0 7.7987,-2.5217 7.7987,-8.8248 0,-6.3972 -4.7766,-10.2821 -9.0371,-10.2821 -4.1145,0 -6.7008,0.7333 -9.5105,3.147 -1.5373,-2.3581 -2.9498,-3.5983 -5.1231,-3.5983 -1.713,0 -3.979,1.0877 -5.0493,3.8863 -2.2768,-2.4137 -5.6132,-3.4997 -9.0097,-3.4997 -3.5753,0 -9.6613,2.6896 -9.6613,9.5474 0,4.5856 2.249,9.2761 7.6448,9.2761 5.604,0 6.7776,-3.5861 6.7776,-6.211 0,-2.3366 -1.9792,-3.9124 -3.5382,-3.9124 -1.7992,0 -3.113,0.7379 -2.9991,1.8638 0.0261,1.1568 1.961,1.2107 1.961,0.1848 l 1.0874,-1.0272 c 0.8858,0 2.4724,0.5266 2.4724,2.9882 0,2.8528 -1.9239,5.1356 -5.8088,5.1356 -4.7766,0 -6.5111,-4.8368 -6.5111,-8.4073 0,-3.9603 3.1362,-8.4767 8.9835,-8.4767 4.678,0 7.6896,2.728 8.8631,4.3639 0.8087,-2.5755 2.5863,-4.6241 4.7877,-4.6241" /><path
       id="path112"
       style="fill:none;fill-opacity:1;fill-rule:nonzero;stroke:#000000"
       d="m 117.1928,141.539 10.2696,0.1247 14.1128,-36.7563 38.1521,98.4929 h 12.5864 L 143.661,77.9601 c -1.9395,-4.4827 -4.8631,-4.2222 -6.6345,0.6792 l -22.2367,56.6782 z" /><path
       id="path114"
       style="fill:none;fill-opacity:1;fill-rule:nonzero;stroke:#000000"
       d="m 109.8343,187.0739 -6.4125,16.3343 H 88.2876 l 14.0204,-35.7675 z" /><path
       id="path116"
       style="fill:none;fill-opacity:1;fill-rule:nonzero;stroke:#000000"
       d="m 74.9047,224.0816 24.6829,-63.6285 -0.5006,-1.548 -24.6812,63.5621 z" /><path
       id="path118"
       style="fill:none;fill-opacity:1;fill-rule:nonzero;stroke:#000000"
       d="m 111.3931,127.1965 16.6561,-42.8916 1.4882,-1.0366 -17.5573,45.3039 z" /><path
       id="path124"
       style="fill:none;fill-opacity:1;fill-rule:nonzero;stroke:#000000"
       d="m 101.3423,222.4732 11.2493,-28.959 0.5377,1.4618 -10.048,25.8075 z" /><path
       id="path126"
       style="fill:none;fill-opacity:1;fill-rule:nonzero;stroke:#000000"
       d="m 127.7518,157.2554 -2.3536,6.0491 -0.4836,-1.5758 1.7714,-4.5595 z" /><path
       id="path128"
       style="fill:none;fill-opacity:1;fill-rule:nonzero;stroke:#000000"
       d="m 132.0403,242.418 -54.9544,-141.5633 -0.3481,1.9777 53.5913,137.9991 z" /><path
       id="path130"
       style="fill:none;fill-opacity:1;fill-rule:nonzero;stroke:#000000"
       d="m 181.836,103.085 -11.0968,28.6971 -0.6409,-1.2875 10.2266,-26.2465 z" /><path
       id="path132"
       style="fill:none;fill-opacity:1;fill-rule:nonzero;stroke:#000000"
       d="m 153.8042,241.9852 17.4495,-44.9297 0.5975,1.3649 -16.6328,42.8641 z" /><path
       id="path134"
       style="fill:none;fill-opacity:1;fill-rule:nonzero;stroke:#000000"
       d="m 208.6169,100.7745 -24.9693,64.4369 0.5482,1.4232 24.7199,-63.6757 z" /><path
       id="path136"
       style="fill:none;fill-opacity:1;fill-rule:nonzero;stroke:#000000"
       d="m 103.146,104.0494 14.3949,37.1307 h 21.0245 l 3.0113,-1.9117 2.9885,1.9117 h 5.2711 l 0.3744,1.038 h -5.7379 l -2.8961,-1.9006 -2.7709,1.9006 h -21.9489 l -0.0386,-0.1031 -15.3128,-39.4781 z" /><path
       id="path138"
       style="fill:none;fill-opacity:1;fill-rule:nonzero;stroke:#000000"
       d="m 155.5217,156.7086 h -10.9488 l -2.8959,1.887 -2.8528,-1.887 h -16.3188 v 0.0122 l 19.0945,49.3029 0.0215,-0.0107 16.6238,-42.7933 -0.5006,-1.5219 -16.2802,41.815 h 0.3096 L 123.9888,157.699 v 0.0215 h 14.6228 l 3.0654,1.9009 2.9452,-1.9009 h 11.4973 z" /><path
       id="path140"
       style="fill:none;fill-opacity:1;fill-rule:nonzero;stroke:#000000"
       d="m 128.0985,86.3612 c -4.2761,0.7225 -12.075,3.971 -15.9214,7.2382 l -0.4297,-0.7024 c 3.8418,-3.2485 11.9117,-6.5095 16.2094,-7.2383 z" /><path
       id="path144"
       style="fill:none;fill-opacity:1;fill-rule:nonzero;stroke:#000000"
       d="m 75.102,193.428 c -3.1148,-6.6991 -3.7769,-29.2071 -7.1028,-31.8535 3.9019,-2.1518 3.2165,-23.5352 6.8748,-31.2956 -1.599,5.6239 -5.2605,28.0179 -0.9351,31.4203 -3.6737,3.3089 -1.3646,22.3665 1.1631,31.7288" /><path
       id="path146"
       style="fill:none;stroke:#000000;stroke-width:0.216;stroke-linecap:butt;stroke-linejoin:miter;stroke-miterlimit:10;stroke-dasharray:none;stroke-opacity:1"
       d="m 72.4833,178.8313 v 2.7881" /><path
       id="path148"
       style="fill:none;stroke:#000000;stroke-width:0.216;stroke-linecap:butt;stroke-linejoin:miter;stroke-miterlimit:10;stroke-dasharray:none;stroke-opacity:1"
       d="m 72.3708,142.5033 v 2.7989" /><path
       id="path150"
       style="fill:none;fill-opacity:1;fill-rule:nonzero;stroke:#000000"
       d="m 205.7488,193.428 c 3.0852,-6.6991 3.7984,-29.2071 7.1118,-31.8535 -3.9002,-2.1518 -3.1992,-23.5352 -6.8516,-31.2956 1.5866,5.6239 5.2282,28.0179 0.9289,31.4203 3.6091,3.3089 1.3587,22.3665 -1.1891,31.7288" /><path
       id="path152"
       style="fill:none;stroke:#000000;stroke-width:0.216;stroke-linecap:butt;stroke-linejoin:miter;stroke-miterlimit:10;stroke-dasharray:none;stroke-opacity:1"
       d="m 208.3966,178.8313 v 2.7881" /><path
       id="path154"
       style="fill:none;stroke:#000000;stroke-width:0.216;stroke-linecap:butt;stroke-linejoin:miter;stroke-miterlimit:10;stroke-dasharray:none;stroke-opacity:1"
       d="m 208.4953,142.5033 v 2.7989" /><path
       id="path176"
       style="fill:none;fill-opacity:1;fill-rule:nonzero;stroke:#000000"
       d="m 113.26,147.2261 -9.8243,-25.3222 H 90.877 l 48.6618,125.4787 c 1.9131,4.4502 4.4672,4.1899 6.6408,-0.7115 l 22.2088,-56.7751 -7.4491,-19.3626 -19.3349,49.8697 -26.6221,-68.8023 h 24.7368 l 2.0594,0.7994 1.8255,-0.9136 h 9.9601 l -1.7223,-4.1621 h -8.3364 l -1.8638,-0.9134 -2.1135,0.8272 z" /><path
       id="path178"
       style="fill:none;fill-opacity:1;fill-rule:nonzero;stroke:#000000"
       d="m 173.3655,138.0084 6.3955,-16.3233 h 15.1342 l -14.0204,35.7551 z" /><path
       id="path180"
       style="fill:none;fill-opacity:1;fill-rule:nonzero;stroke:#000000"
       d="m 153.1035,84.693 -1.8655,-1.7776 55.1406,142.4276 0.2282,-2.4015 -53.6558,-138.401 z" /><path
       id="path182"
       style="fill:none;fill-opacity:1;fill-rule:nonzero;stroke:#000000"
       d="m 180.0445,220.7004 -38.4401,-99.0091 -0.0277,-0.0215 -7.8251,20.1711 -1.1137,0.06 8.9113,-23.047 0.0275,-0.0369 39.9189,102.8339 z" /><path
       id="path184"
       style="fill:none;fill-opacity:1;fill-rule:nonzero;stroke:#000000"
       d="m 181.2569,118.0545 -0.6253,1.7005 h 14.949 l 0.6194,-1.7005 z" /><path
       id="path188"
       style="fill:none;fill-opacity:1;fill-rule:nonzero;stroke:#000000"
       d="m 181.0596,207.0125 -0.6131,-1.7005 h 12.5356 l 0.6253,1.7005 z" /><path
       id="path192"
       style="fill:none;fill-opacity:1;fill-rule:nonzero;stroke:#000000"
       d="m 101.8137,207.0125 0.6468,-1.7005 H 87.5157 l -0.6128,1.7005 z" /><path
       id="path342"
       style="fill:none;fill-opacity:1;fill-rule:nonzero;stroke:#000000"
       d="m 115.2255,80.5986 -2.2873,1.1631 h 5.7331 l -0.6639,-1.1631 z" /></g></svg>
