  0
SECTION
  2
HEADER
  9
$ACADVER
  1
AC1014
  9
$HANDSEED
  5
FFFF
  9
$MEASUREMENT
 70
     1
  0
ENDSEC
  0
SECTION
  2
TABLES
  0
TABLE
  2
VPORT
  5
8
330
0
100
AcDbSymbolTable
 70
     4
  0
VPORT
  5
2E
330
8
100
AcDbSymbolTableRecord
100
AcDbViewportTableRecord
  2
*ACTIVE
 70
     0
 10
0.0
 20
0.0
 11
1.0
 21
1.0
 12
210.0
 22
148.5
 13
0.0
 23
0.0
 14
10.0
 24
10.0
 15
10.0
 25
10.0
 16
0.0
 26
0.0
 36
1.0
 17
0.0
 27
0.0
 37
0.0
 40
341.0
 41
1.24
 42
50.0
 43
0.0
 44
0.0
 50
0.0
 51
0.0
 71
     0
 72
   100
 73
     1
 74
     3
 75
     0
 76
     0
 77
     0
 78
     0
  0
ENDTAB
  0
TABLE
  2
LTYPE
  5
5
330
0
100
AcDbSymbolTable
 70
     1
  0
LTYPE
  5
14
330
5
100
AcDbSymbolTableRecord
100
AcDbLinetypeTableRecord
  2
BYBLOCK
 70
     0
  3

 72
    65
 73
     0
 40
0.0
  0
LTYPE
  5
15
330
5
100
AcDbSymbolTableRecord
100
AcDbLinetypeTableRecord
  2
BYLAYER
 70
     0
  3

 72
    65
 73
     0
 40
0.0
  0
LTYPE
  5
16
330
5
100
AcDbSymbolTableRecord
100
AcDbLinetypeTableRecord
  2
CONTINUOUS
 70
     0
  3
Solid line
 72
    65
 73
     0
 40
0.0
  0
ENDTAB
  0
TABLE
  2
LAYER
  5
2
100
AcDbSymbolTable
 70
2
  0
LAYER
  5
50
100
AcDbSymbolTableRecord
100
AcDbLayerTableRecord
  2
0
 70
0
  6
CONTINUOUS
  0
LAYER
  5
51
100
AcDbSymbolTableRecord
100
AcDbLayerTableRecord
  2
avo-uvezian-seeklogo.com
 70
0
  6
CONTINUOUS
  0
ENDTAB
  0
TABLE
  2
STYLE
  5
3
330
0
100
AcDbSymbolTable
 70
     1
  0
STYLE
  5
11
330
3
100
AcDbSymbolTableRecord
100
AcDbTextStyleTableRecord
  2
STANDARD
 70
     0
 40
0.0
 41
1.0
 50
0.0
 71
     0
 42
2.5
  3
txt
  4

  0
ENDTAB
  0
TABLE
  2
VIEW
  5
6
330
0
100
AcDbSymbolTable
 70
     0
  0
ENDTAB
  0
TABLE
  2
UCS
  5
7
330
0
100
AcDbSymbolTable
 70
     0
  0
ENDTAB
  0
TABLE
  2
APPID
  5
9
330
0
100
AcDbSymbolTable
 70
     2
  0
APPID
  5
12
330
9
100
AcDbSymbolTableRecord
100
AcDbRegAppTableRecord
  2
ACAD
 70
     0
  0
ENDTAB
  0
TABLE
  2
DIMSTYLE
  5
A
330
0
100
AcDbSymbolTable
 70
     1
  0
DIMSTYLE
105
27
330
A
100
AcDbSymbolTableRecord
100
AcDbDimStyleTableRecord
  2
ISO-25
 70
     0
  3

  4

  5

  6

  7

 40
1.0
 41
2.5
 42
0.625
 43
3.75
 44
1.25
 45
0.0
 46
0.0
 47
0.0
 48
0.0
140
2.5
141
2.5
142
0.0
143
0.03937007874016
144
1.0
145
0.0
146
1.0
147
0.625
 71
     0
 72
     0
 73
     0
 74
     0
 75
     0
 76
     0
 77
     1
 78
     8
170
     0
171
     3
172
     1
173
     0
174
     0
175
     0
176
     0
177
     0
178
     0
270
     2
271
     2
272
     2
273
     2
274
     3
340
11
275
     0
280
     0
281
     0
282
     0
283
     0
284
     8
285
     0
286
     0
287
     3
288
     0
  0
ENDTAB
  0
TABLE
  2
BLOCK_RECORD
  5
1
330
0
100
AcDbSymbolTable
 70
     1
  0
BLOCK_RECORD
  5
1F
330
1
100
AcDbSymbolTableRecord
100
AcDbBlockTableRecord
  2
*MODEL_SPACE
  0
BLOCK_RECORD
  5
1B
330
1
100
AcDbSymbolTableRecord
100
AcDbBlockTableRecord
  2
*PAPER_SPACE
  0
ENDTAB
  0
ENDSEC
  0
SECTION
  2
BLOCKS
  0
BLOCK
  5
20
330
1F
100
AcDbEntity
  8
0
100
AcDbBlockBegin
  2
*MODEL_SPACE
 70
     0
 10
0.0
 20
0.0
 30
0.0
  3
*MODEL_SPACE
  1

  0
ENDBLK
  5
21
330
1F
100
AcDbEntity
  8
0
100
AcDbBlockEnd
  0
BLOCK
  5
1C
330
1B
100
AcDbEntity
 67
     1
  8
0
100
AcDbBlockBegin
  2
*PAPER_SPACE
  1

  0
ENDBLK
  5
1D
330
1B
100
AcDbEntity
 67
     1
  8
0
100
AcDbBlockEnd
  0
ENDSEC
  0
SECTION
  2
ENTITIES
  0
SPLINE
  5
100
100
AcDbEntity
  8
avo-uvezian-seeklogo.com
 62
7
100
AcDbSpline
 70
8
 71
3
 72
8
 73
4
 74
0
 40
0
 40
0
 40
0
 40
0
 40
1
 40
1
 40
1
 40
1
 10
142.837964
 20
257.836155
 30
0.0
 10
140.359571
 20
257.836155
 30
0.0
 10
138.925275
 20
254.923264
 30
0.0
 10
137.951878
 20
253.239769
 30
0.0
  0
SPLINE
  5
101
100
AcDbEntity
  8
avo-uvezian-seeklogo.com
 62
7
100
AcDbSpline
 70
8
 71
3
 72
8
 73
4
 74
0
 40
0
 40
0
 40
0
 40
0
 40
1
 40
1
 40
1
 40
1
 10
137.951878
 20
253.239769
 30
0.0
 10
135.963385
 20
255.183763
 30
0.0
 10
134.350489
 20
257.520356
 30
0.0
 10
128.801906
 20
257.520356
 30
0.0
  0
SPLINE
  5
102
100
AcDbEntity
  8
avo-uvezian-seeklogo.com
 62
7
100
AcDbSpline
 70
8
 71
3
 72
8
 73
4
 74
0
 40
0
 40
0
 40
0
 40
0
 40
1
 40
1
 40
1
 40
1
 10
128.801906
 20
257.520356
 30
0.0
 10
123.427723
 20
257.520356
 30
0.0
 10
120.330032
 20
253.037969
 30
0.0
 10
120.330032
 20
248.310684
 30
0.0
  0
SPLINE
  5
103
100
AcDbEntity
  8
avo-uvezian-seeklogo.com
 62
7
100
AcDbSpline
 70
8
 71
3
 72
8
 73
4
 74
0
 40
0
 40
0
 40
0
 40
0
 40
1
 40
1
 40
1
 40
1
 10
120.330032
 20
248.310684
 30
0.0
 10
120.330032
 20
243.202599
 30
0.0
 10
124.627619
 20
240.425508
 30
0.0
 10
126.992012
 20
240.425508
 30
0.0
  0
SPLINE
  5
104
100
AcDbEntity
  8
avo-uvezian-seeklogo.com
 62
7
100
AcDbSpline
 70
8
 71
3
 72
8
 73
4
 74
0
 40
0
 40
0
 40
0
 40
0
 40
1
 40
1
 40
1
 40
1
 10
126.992012
 20
240.425508
 30
0.0
 10
131.029400
 20
240.425508
 30
0.0
 10
132.615895
 20
243.587898
 30
0.0
 10
132.615895
 20
245.365493
 30
0.0
  0
SPLINE
  5
105
100
AcDbEntity
  8
avo-uvezian-seeklogo.com
 62
7
100
AcDbSpline
 70
8
 71
3
 72
8
 73
4
 74
0
 40
0
 40
0
 40
0
 40
0
 40
1
 40
1
 40
1
 40
1
 10
132.615895
 20
245.365493
 30
0.0
 10
132.615895
 20
247.222987
 30
0.0
 10
131.599398
 20
248.886682
 30
0.0
 10
130.176202
 20
248.886682
 30
0.0
  0
SPLINE
  5
106
100
AcDbEntity
  8
avo-uvezian-seeklogo.com
 62
7
100
AcDbSpline
 70
8
 71
3
 72
8
 73
4
 74
0
 40
0
 40
0
 40
0
 40
0
 40
1
 40
1
 40
1
 40
1
 10
129.002306
 20
247.848585
 30
0.0
 10
129.002306
 20
247.278587
 30
0.0
 10
127.203211
 20
246.528489
 30
0.0
 10
127.203211
 20
247.886885
 30
0.0
  0
SPLINE
  5
107
100
AcDbEntity
  8
avo-uvezian-seeklogo.com
 62
7
100
AcDbSpline
 70
8
 71
3
 72
8
 73
4
 74
0
 40
0
 40
0
 40
0
 40
0
 40
1
 40
1
 40
1
 40
1
 10
127.203211
 20
247.886885
 30
0.0
 10
127.203211
 20
249.223981
 30
0.0
 10
128.329108
 20
249.847879
 30
0.0
 10
129.567604
 20
249.847879
 30
0.0
  0
SPLINE
  5
108
100
AcDbEntity
  8
avo-uvezian-seeklogo.com
 62
7
100
AcDbSpline
 70
8
 71
3
 72
8
 73
4
 74
0
 40
0
 40
0
 40
0
 40
0
 40
1
 40
1
 40
1
 40
1
 10
129.567604
 20
249.847879
 30
0.0
 10
131.751897
 20
249.847879
 30
0.0
 10
133.512492
 20
248.787982
 30
0.0
 10
133.512492
 20
245.365493
 30
0.0
  0
SPLINE
  5
109
100
AcDbEntity
  8
avo-uvezian-seeklogo.com
 62
7
100
AcDbSpline
 70
8
 71
3
 72
8
 73
4
 74
0
 40
0
 40
0
 40
0
 40
0
 40
1
 40
1
 40
1
 40
1
 10
133.512492
 20
245.365493
 30
0.0
 10
133.512492
 20
242.039903
 30
0.0
 10
130.378002
 20
239.350311
 30
0.0
 10
127.013812
 20
239.350311
 30
0.0
  0
SPLINE
  5
10a
100
AcDbEntity
  8
avo-uvezian-seeklogo.com
 62
7
100
AcDbSpline
 70
8
 71
3
 72
8
 73
4
 74
0
 40
0
 40
0
 40
0
 40
0
 40
1
 40
1
 40
1
 40
1
 10
127.013812
 20
239.350311
 30
0.0
 10
125.156018
 20
239.350311
 30
0.0
 10
119.188536
 20
241.876603
 30
0.0
 10
119.188536
 20
248.185884
 30
0.0
  0
SPLINE
  5
10b
100
AcDbEntity
  8
avo-uvezian-seeklogo.com
 62
7
100
AcDbSpline
 70
8
 71
3
 72
8
 73
4
 74
0
 40
0
 40
0
 40
0
 40
0
 40
1
 40
1
 40
1
 40
1
 10
119.188536
 20
248.185884
 30
0.0
 10
119.188536
 20
254.596765
 30
0.0
 10
123.965221
 20
258.461753
 30
0.0
 10
128.225908
 20
258.461753
 30
0.0
  0
SPLINE
  5
10c
100
AcDbEntity
  8
avo-uvezian-seeklogo.com
 62
7
100
AcDbSpline
 70
8
 71
3
 72
8
 73
4
 74
0
 40
0
 40
0
 40
0
 40
0
 40
1
 40
1
 40
1
 40
1
 10
128.225908
 20
258.461753
 30
0.0
 10
132.327896
 20
258.461753
 30
0.0
 10
134.924988
 20
257.760755
 30
0.0
 10
137.713179
 20
255.309962
 30
0.0
  0
SPLINE
  5
10d
100
AcDbEntity
  8
avo-uvezian-seeklogo.com
 62
7
100
AcDbSpline
 70
8
 71
3
 72
8
 73
4
 74
0
 40
0
 40
0
 40
0
 40
0
 40
1
 40
1
 40
1
 40
1
 10
137.713179
 20
255.309962
 30
0.0
 10
139.273374
 20
257.662155
 30
0.0
 10
140.686170
 20
258.934551
 30
0.0
 10
142.837964
 20
258.934551
 30
0.0
  0
SPLINE
  5
10e
100
AcDbEntity
  8
avo-uvezian-seeklogo.com
 62
7
100
AcDbSpline
 70
8
 71
3
 72
8
 73
4
 74
0
 40
0
 40
0
 40
0
 40
0
 40
1
 40
1
 40
1
 40
1
 10
142.837964
 20
258.934551
 30
0.0
 10
144.587758
 20
258.934551
 30
0.0
 10
146.836751
 20
257.836155
 30
0.0
 10
147.934848
 20
255.037563
 30
0.0
  0
SPLINE
  5
10f
100
AcDbEntity
  8
avo-uvezian-seeklogo.com
 62
7
100
AcDbSpline
 70
8
 71
3
 72
8
 73
4
 74
0
 40
0
 40
0
 40
0
 40
0
 40
1
 40
1
 40
1
 40
1
 10
147.934848
 20
255.037563
 30
0.0
 10
150.183841
 20
257.451256
 30
0.0
 10
153.548031
 20
258.537153
 30
0.0
 10
156.922921
 20
258.537153
 30
0.0
  0
SPLINE
  5
110
100
AcDbEntity
  8
avo-uvezian-seeklogo.com
 62
7
100
AcDbSpline
 70
8
 71
3
 72
8
 73
4
 74
0
 40
0
 40
0
 40
0
 40
0
 40
1
 40
1
 40
1
 40
1
 10
156.922921
 20
258.537153
 30
0.0
 10
160.509010
 20
258.537153
 30
0.0
 10
166.568891
 20
255.847661
 30
0.0
 10
166.568891
 20
249.000582
 30
0.0
  0
SPLINE
  5
111
100
AcDbEntity
  8
avo-uvezian-seeklogo.com
 62
7
100
AcDbSpline
 70
8
 71
3
 72
8
 73
4
 74
0
 40
0
 40
0
 40
0
 40
0
 40
1
 40
1
 40
1
 40
1
 10
166.568891
 20
249.000582
 30
0.0
 10
166.568891
 20
244.402796
 30
0.0
 10
164.324498
 20
239.703010
 30
0.0
 10
158.950314
 20
239.703010
 30
0.0
  0
SPLINE
  5
112
100
AcDbEntity
  8
avo-uvezian-seeklogo.com
 62
7
100
AcDbSpline
 70
8
 71
3
 72
8
 73
4
 74
0
 40
0
 40
0
 40
0
 40
0
 40
1
 40
1
 40
1
 40
1
 10
158.950314
 20
239.703010
 30
0.0
 10
153.298632
 20
239.703010
 30
0.0
 10
152.184835
 20
243.299899
 30
0.0
 10
152.184835
 20
245.952191
 30
0.0
  0
SPLINE
  5
113
100
AcDbEntity
  8
avo-uvezian-seeklogo.com
 62
7
100
AcDbSpline
 70
8
 71
3
 72
8
 73
4
 74
0
 40
0
 40
0
 40
0
 40
0
 40
1
 40
1
 40
1
 40
1
 10
152.184835
 20
245.952191
 30
0.0
 10
152.184835
 20
248.261284
 30
0.0
 10
154.145829
 20
249.847879
 30
0.0
 10
155.721624
 20
249.847879
 30
0.0
  0
SPLINE
  5
114
100
AcDbEntity
  8
avo-uvezian-seeklogo.com
 62
7
100
AcDbSpline
 70
8
 71
3
 72
8
 73
4
 74
0
 40
0
 40
0
 40
0
 40
0
 40
1
 40
1
 40
1
 40
1
 10
155.721624
 20
249.847879
 30
0.0
 10
157.499219
 20
249.847879
 30
0.0
 10
158.787015
 20
249.114581
 30
0.0
 10
158.711315
 20
247.962585
 30
0.0
  0
LWPOLYLINE
  5
115
100
AcDbEntity
  8
avo-uvezian-seeklogo.com
 62
7
100
AcDbPolyline
 90
2
 70
0
 10
130.176202
 20
248.886682
 30
0.0
 10
129.002306
 20
247.848585
 30
0.0
  0
SPLINE
  5
116
100
AcDbEntity
  8
avo-uvezian-seeklogo.com
 62
7
100
AcDbSpline
 70
8
 71
3
 72
8
 73
4
 74
0
 40
0
 40
0
 40
0
 40
0
 40
1
 40
1
 40
1
 40
1
 10
155.624424
 20
248.809782
 30
0.0
 10
154.760427
 20
248.809782
 30
0.0
 10
153.210732
 20
248.310684
 30
0.0
 10
153.210732
 20
245.827491
 30
0.0
  0
SPLINE
  5
117
100
AcDbEntity
  8
avo-uvezian-seeklogo.com
 62
7
100
AcDbSpline
 70
8
 71
3
 72
8
 73
4
 74
0
 40
0
 40
0
 40
0
 40
0
 40
1
 40
1
 40
1
 40
1
 10
153.210732
 20
245.827491
 30
0.0
 10
153.210732
 20
242.964000
 30
0.0
 10
155.069926
 20
240.675007
 30
0.0
 10
158.999614
 20
240.675007
 30
0.0
  0
SPLINE
  5
118
100
AcDbEntity
  8
avo-uvezian-seeklogo.com
 62
7
100
AcDbSpline
 70
8
 71
3
 72
8
 73
4
 74
0
 40
0
 40
0
 40
0
 40
0
 40
1
 40
1
 40
1
 40
1
 10
158.999614
 20
240.675007
 30
0.0
 10
163.731500
 20
240.675007
 30
0.0
 10
165.481294
 20
245.528692
 30
0.0
 10
165.481294
 20
249.114581
 30
0.0
  0
SPLINE
  5
119
100
AcDbEntity
  8
avo-uvezian-seeklogo.com
 62
7
100
AcDbSpline
 70
8
 71
3
 72
8
 73
4
 74
0
 40
0
 40
0
 40
0
 40
0
 40
1
 40
1
 40
1
 40
1
 10
165.481294
 20
249.114581
 30
0.0
 10
165.481294
 20
253.059469
 30
0.0
 10
162.346704
 20
257.575955
 30
0.0
 10
156.482422
 20
257.575955
 30
0.0
  0
SPLINE
  5
11a
100
AcDbEntity
  8
avo-uvezian-seeklogo.com
 62
7
100
AcDbSpline
 70
8
 71
3
 72
8
 73
4
 74
0
 40
0
 40
0
 40
0
 40
0
 40
1
 40
1
 40
1
 40
1
 10
156.482422
 20
257.575955
 30
0.0
 10
151.836736
 20
257.575955
 30
0.0
 10
148.848445
 20
254.863464
 30
0.0
 10
147.663849
 20
253.211969
 30
0.0
  0
SPLINE
  5
11b
100
AcDbEntity
  8
avo-uvezian-seeklogo.com
 62
7
100
AcDbSpline
 70
8
 71
3
 72
8
 73
4
 74
0
 40
0
 40
0
 40
0
 40
0
 40
1
 40
1
 40
1
 40
1
 10
147.663849
 20
253.211969
 30
0.0
 10
146.836751
 20
255.787561
 30
0.0
 10
145.060557
 20
257.836155
 30
0.0
 10
142.837964
 20
257.836155
 30
0.0
  0
SPLINE
  5
11c
100
AcDbEntity
  8
avo-uvezian-seeklogo.com
 62
7
100
AcDbSpline
 70
8
 71
3
 72
8
 73
4
 74
0
 40
0
 40
0
 40
0
 40
0
 40
1
 40
1
 40
1
 40
1
 10
120.259233
 20
245.426993
 30
0.0
 10
117.146242
 20
244.850994
 30
0.0
 10
103.624683
 20
239.742910
 30
0.0
 10
100.272994
 20
237.264618
 30
0.0
  0
LWPOLYLINE
  5
11d
100
AcDbEntity
  8
avo-uvezian-seeklogo.com
 62
7
100
AcDbPolyline
 90
3
 70
0
 10
158.711315
 20
247.962585
 30
0.0
 10
156.732221
 20
247.788485
 30
0.0
 10
155.624424
 20
248.809782
 30
0.0
  0
SPLINE
  5
11e
100
AcDbEntity
  8
avo-uvezian-seeklogo.com
 62
7
100
AcDbSpline
 70
8
 71
3
 72
8
 73
4
 74
0
 40
0
 40
0
 40
0
 40
0
 40
1
 40
1
 40
1
 40
1
 10
107.309472
 20
236.254121
 30
0.0
 10
110.125063
 20
238.227315
 30
0.0
 10
119.895834
 20
241.454505
 30
0.0
 10
122.383426
 20
241.992003
 30
0.0
  0
LWPOLYLINE
  5
11f
100
AcDbEntity
  8
avo-uvezian-seeklogo.com
 62
7
100
AcDbPolyline
 90
3
 70
0
 10
100.272994
 20
237.264618
 30
0.0
 10
103.989782
 20
237.118318
 30
0.0
 10
107.309472
 20
236.254121
 30
0.0
  0
SPLINE
  5
120
100
AcDbEntity
  8
avo-uvezian-seeklogo.com
 62
7
100
AcDbSpline
 70
8
 71
3
 72
8
 73
4
 74
0
 40
0
 40
0
 40
0
 40
0
 40
1
 40
1
 40
1
 40
1
 10
164.378298
 20
243.529198
 30
0.0
 10
166.812190
 20
243.068800
 30
0.0
 10
176.337961
 20
239.166912
 30
0.0
 10
179.212252
 20
237.019718
 30
0.0
  0
LWPOLYLINE
  5
121
100
AcDbEntity
  8
avo-uvezian-seeklogo.com
 62
7
100
AcDbPolyline
 90
2
 70
0
 10
122.383426
 20
241.992003
 30
0.0
 10
120.259233
 20
245.426993
 30
0.0
  0
SPLINE
  5
122
100
AcDbEntity
  8
avo-uvezian-seeklogo.com
 62
7
100
AcDbSpline
 70
8
 71
3
 72
8
 73
4
 74
0
 40
0
 40
0
 40
0
 40
0
 40
1
 40
1
 40
1
 40
1
 10
180.972847
 20
237.193718
 30
0.0
 10
178.087756
 20
239.318011
 30
0.0
 10
167.274189
 20
243.769598
 30
0.0
 10
164.828196
 20
244.165596
 30
0.0
  0
LWPOLYLINE
  5
123
100
AcDbEntity
  8
avo-uvezian-seeklogo.com
 62
7
100
AcDbPolyline
 90
2
 70
0
 10
179.212252
 20
237.019718
 30
0.0
 10
180.972847
 20
237.193718
 30
0.0
  0
SPLINE
  5
124
100
AcDbEntity
  8
avo-uvezian-seeklogo.com
 62
7
100
AcDbSpline
 70
8
 71
3
 72
8
 73
4
 74
0
 40
0
 40
0
 40
0
 40
0
 40
1
 40
1
 40
1
 40
1
 10
86.723735
 20
237.175318
 30
0.0
 10
88.848029
 20
237.175318
 30
0.0
 10
90.636423
 20
233.376629
 30
0.0
 10
91.533020
 20
231.865534
 30
0.0
  0
SPLINE
  5
125
100
AcDbEntity
  8
avo-uvezian-seeklogo.com
 62
7
100
AcDbSpline
 70
8
 71
3
 72
8
 73
4
 74
0
 40
0
 40
0
 40
0
 40
0
 40
1
 40
1
 40
1
 40
1
 10
91.533020
 20
231.865534
 30
0.0
 10
93.744814
 20
233.914328
 30
0.0
 10
96.797704
 20
236.799419
 30
0.0
 10
102.569687
 20
236.799419
 30
0.0
  0
SPLINE
  5
126
100
AcDbEntity
  8
avo-uvezian-seeklogo.com
 62
7
100
AcDbSpline
 70
8
 71
3
 72
8
 73
4
 74
0
 40
0
 40
0
 40
0
 40
0
 40
1
 40
1
 40
1
 40
1
 10
102.569687
 20
236.799419
 30
0.0
 10
108.367569
 20
236.799419
 30
0.0
 10
112.605056
 20
231.865534
 30
0.0
 10
112.605056
 20
227.578647
 30
0.0
  0
SPLINE
  5
127
100
AcDbEntity
  8
avo-uvezian-seeklogo.com
 62
7
100
AcDbSpline
 70
8
 71
3
 72
8
 73
4
 74
0
 40
0
 40
0
 40
0
 40
0
 40
1
 40
1
 40
1
 40
1
 10
112.605056
 20
227.578647
 30
0.0
 10
112.605056
 20
222.492463
 30
0.0
 10
108.855767
 20
220.416069
 30
0.0
 10
106.405175
 20
220.416069
 30
0.0
  0
SPLINE
  5
128
100
AcDbEntity
  8
avo-uvezian-seeklogo.com
 62
7
100
AcDbSpline
 70
8
 71
3
 72
8
 73
4
 74
0
 40
0
 40
0
 40
0
 40
0
 40
1
 40
1
 40
1
 40
1
 10
106.405175
 20
220.416069
 30
0.0
 10
102.672786
 20
220.416069
 30
0.0
 10
101.144691
 20
223.404360
 30
0.0
 10
101.144691
 20
225.128155
 30
0.0
  0
SPLINE
  5
129
100
AcDbEntity
  8
avo-uvezian-seeklogo.com
 62
7
100
AcDbSpline
 70
8
 71
3
 72
8
 73
4
 74
0
 40
0
 40
0
 40
0
 40
0
 40
1
 40
1
 40
1
 40
1
 10
101.144691
 20
225.128155
 30
0.0
 10
101.144691
 20
226.839449
 30
0.0
 10
102.509587
 20
228.578444
 30
0.0
 10
104.330281
 20
228.578444
 30
0.0
  0
SPLINE
  5
12a
100
AcDbEntity
  8
avo-uvezian-seeklogo.com
 62
7
100
AcDbSpline
 70
8
 71
3
 72
8
 73
4
 74
0
 40
0
 40
0
 40
0
 40
0
 40
1
 40
1
 40
1
 40
1
 10
104.330281
 20
228.578444
 30
0.0
 10
105.796577
 20
228.578444
 30
0.0
 10
106.106376
 20
227.338548
 30
0.0
 10
106.084576
 20
227.050249
 30
0.0
  0
LWPOLYLINE
  5
12b
100
AcDbEntity
  8
avo-uvezian-seeklogo.com
 62
7
100
AcDbPolyline
 90
2
 70
0
 10
164.828196
 20
244.165596
 30
0.0
 10
164.378298
 20
243.529198
 30
0.0
  0
SPLINE
  5
12c
100
AcDbEntity
  8
avo-uvezian-seeklogo.com
 62
7
100
AcDbSpline
 70
8
 71
3
 72
8
 73
4
 74
0
 40
0
 40
0
 40
0
 40
0
 40
1
 40
1
 40
1
 40
1
 10
106.220375
 20
224.954055
 30
0.0
 10
106.720974
 20
224.954055
 30
0.0
 10
107.546371
 20
225.175754
 30
0.0
 10
107.546371
 20
226.551450
 30
0.0
  0
SPLINE
  5
12d
100
AcDbEntity
  8
avo-uvezian-seeklogo.com
 62
7
100
AcDbSpline
 70
8
 71
3
 72
8
 73
4
 74
0
 40
0
 40
0
 40
0
 40
0
 40
1
 40
1
 40
1
 40
1
 10
107.546371
 20
226.551450
 30
0.0
 10
107.546371
 20
228.202545
 30
0.0
 10
105.942876
 20
229.339542
 30
0.0
 10
104.231582
 20
229.339542
 30
0.0
  0
SPLINE
  5
12e
100
AcDbEntity
  8
avo-uvezian-seeklogo.com
 62
7
100
AcDbSpline
 70
8
 71
3
 72
8
 73
4
 74
0
 40
0
 40
0
 40
0
 40
0
 40
1
 40
1
 40
1
 40
1
 10
104.231582
 20
229.339542
 30
0.0
 10
102.509587
 20
229.339542
 30
0.0
 10
100.020194
 20
228.251945
 30
0.0
 10
100.020194
 20
224.954055
 30
0.0
  0
SPLINE
  5
12f
100
AcDbEntity
  8
avo-uvezian-seeklogo.com
 62
7
100
AcDbSpline
 70
8
 71
3
 72
8
 73
4
 74
0
 40
0
 40
0
 40
0
 40
0
 40
1
 40
1
 40
1
 40
1
 10
100.020194
 20
224.954055
 30
0.0
 10
100.020194
 20
221.638965
 30
0.0
 10
102.769786
 20
219.465672
 30
0.0
 10
106.383675
 20
219.465672
 30
0.0
  0
SPLINE
  5
130
100
AcDbEntity
  8
avo-uvezian-seeklogo.com
 62
7
100
AcDbSpline
 70
8
 71
3
 72
8
 73
4
 74
0
 40
0
 40
0
 40
0
 40
0
 40
1
 40
1
 40
1
 40
1
 10
106.383675
 20
219.465672
 30
0.0
 10
108.329069
 20
219.465672
 30
0.0
 10
113.617053
 20
221.187667
 30
0.0
 10
113.617053
 20
227.523447
 30
0.0
  0
SPLINE
  5
131
100
AcDbEntity
  8
avo-uvezian-seeklogo.com
 62
7
100
AcDbSpline
 70
8
 71
3
 72
8
 73
4
 74
0
 40
0
 40
0
 40
0
 40
0
 40
1
 40
1
 40
1
 40
1
 10
113.617053
 20
227.523447
 30
0.0
 10
113.617053
 20
234.240927
 30
0.0
 10
107.318472
 20
237.734316
 30
0.0
 10
102.509587
 20
237.734316
 30
0.0
  0
SPLINE
  5
132
100
AcDbEntity
  8
avo-uvezian-seeklogo.com
 62
7
100
AcDbSpline
 70
8
 71
3
 72
8
 73
4
 74
0
 40
0
 40
0
 40
0
 40
0
 40
1
 40
1
 40
1
 40
1
 10
102.509587
 20
237.734316
 30
0.0
 10
98.145600
 20
237.734316
 30
0.0
 10
94.656711
 20
236.272521
 30
0.0
 10
91.696220
 20
233.827928
 30
0.0
  0
SPLINE
  5
133
100
AcDbEntity
  8
avo-uvezian-seeklogo.com
 62
7
100
AcDbSpline
 70
8
 71
3
 72
8
 73
4
 74
0
 40
0
 40
0
 40
0
 40
0
 40
1
 40
1
 40
1
 40
1
 10
91.696220
 20
233.827928
 30
0.0
 10
90.108025
 20
236.212421
 30
0.0
 10
88.798729
 20
238.234915
 30
0.0
 10
86.521936
 20
238.234915
 30
0.0
  0
SPLINE
  5
134
100
AcDbEntity
  8
avo-uvezian-seeklogo.com
 62
7
100
AcDbSpline
 70
8
 71
3
 72
8
 73
4
 74
0
 40
0
 40
0
 40
0
 40
0
 40
1
 40
1
 40
1
 40
1
 10
86.521936
 20
238.234915
 30
0.0
 10
84.675141
 20
238.234915
 30
0.0
 10
82.897547
 20
236.087721
 30
0.0
 10
82.099549
 20
233.224130
 30
0.0
  0
SPLINE
  5
135
100
AcDbEntity
  8
avo-uvezian-seeklogo.com
 62
7
100
AcDbSpline
 70
8
 71
3
 72
8
 73
4
 74
0
 40
0
 40
0
 40
0
 40
0
 40
1
 40
1
 40
1
 40
1
 10
82.099549
 20
233.224130
 30
0.0
 10
78.398160
 20
237.012018
 30
0.0
 10
74.061974
 20
237.973315
 30
0.0
 10
70.263285
 20
237.973315
 30
0.0
  0
SPLINE
  5
136
100
AcDbEntity
  8
avo-uvezian-seeklogo.com
 62
7
100
AcDbSpline
 70
8
 71
3
 72
8
 73
4
 74
0
 40
0
 40
0
 40
0
 40
0
 40
1
 40
1
 40
1
 40
1
 10
70.263285
 20
237.973315
 30
0.0
 10
66.503397
 20
237.973315
 30
0.0
 10
59.738017
 20
234.935725
 30
0.0
 10
59.738017
 20
228.088646
 30
0.0
  0
SPLINE
  5
137
100
AcDbEntity
  8
avo-uvezian-seeklogo.com
 62
7
100
AcDbSpline
 70
8
 71
3
 72
8
 73
4
 74
0
 40
0
 40
0
 40
0
 40
0
 40
1
 40
1
 40
1
 40
1
 10
59.738017
 20
228.088646
 30
0.0
 10
59.738017
 20
223.524559
 30
0.0
 10
62.416709
 20
218.455075
 30
0.0
 10
68.051392
 20
218.455075
 30
0.0
  0
SPLINE
  5
138
100
AcDbEntity
  8
avo-uvezian-seeklogo.com
 62
7
100
AcDbSpline
 70
8
 71
3
 72
8
 73
4
 74
0
 40
0
 40
0
 40
0
 40
0
 40
1
 40
1
 40
1
 40
1
 10
68.051392
 20
218.455075
 30
0.0
 10
73.986574
 20
218.455075
 30
0.0
 10
75.197270
 20
221.791465
 30
0.0
 10
75.197270
 20
224.416357
 30
0.0
  0
SPLINE
  5
139
100
AcDbEntity
  8
avo-uvezian-seeklogo.com
 62
7
100
AcDbSpline
 70
8
 71
3
 72
8
 73
4
 74
0
 40
0
 40
0
 40
0
 40
0
 40
1
 40
1
 40
1
 40
1
 10
75.197270
 20
224.416357
 30
0.0
 10
75.197270
 20
227.426148
 30
0.0
 10
72.675578
 20
229.240942
 30
0.0
 10
70.388285
 20
229.240942
 30
0.0
  0
SPLINE
  5
13a
100
AcDbEntity
  8
avo-uvezian-seeklogo.com
 62
7
100
AcDbSpline
 70
8
 71
3
 72
8
 73
4
 74
0
 40
0
 40
0
 40
0
 40
0
 40
1
 40
1
 40
1
 40
1
 10
70.388285
 20
229.240942
 30
0.0
 10
68.051392
 20
229.240942
 30
0.0
 10
66.638896
 20
227.501847
 30
0.0
 10
66.714296
 20
225.915352
 30
0.0
  0
LWPOLYLINE
  5
13b
100
AcDbEntity
  8
avo-uvezian-seeklogo.com
 62
7
100
AcDbPolyline
 90
3
 70
0
 10
106.084576
 20
227.050249
 30
0.0
 10
105.519378
 20
226.040052
 30
0.0
 10
106.220375
 20
224.954055
 30
0.0
  0
SPLINE
  5
13c
100
AcDbEntity
  8
avo-uvezian-seeklogo.com
 62
7
100
AcDbSpline
 70
8
 71
3
 72
8
 73
4
 74
0
 40
0
 40
0
 40
0
 40
0
 40
1
 40
1
 40
1
 40
1
 10
68.176092
 20
226.579150
 30
0.0
 10
67.791193
 20
227.703647
 30
0.0
 10
68.829190
 20
228.436744
 30
0.0
 10
70.328185
 20
228.436744
 30
0.0
  0
SPLINE
  5
13d
100
AcDbEntity
  8
avo-uvezian-seeklogo.com
 62
7
100
AcDbSpline
 70
8
 71
3
 72
8
 73
4
 74
0
 40
0
 40
0
 40
0
 40
0
 40
1
 40
1
 40
1
 40
1
 10
70.328185
 20
228.436744
 30
0.0
 10
71.811581
 20
228.436744
 30
0.0
 10
74.165173
 20
227.187448
 30
0.0
 10
74.165173
 20
224.311757
 30
0.0
  0
SPLINE
  5
13e
100
AcDbEntity
  8
avo-uvezian-seeklogo.com
 62
7
100
AcDbSpline
 70
8
 71
3
 72
8
 73
4
 74
0
 40
0
 40
0
 40
0
 40
0
 40
1
 40
1
 40
1
 40
1
 10
74.165173
 20
224.311757
 30
0.0
 10
74.165173
 20
221.464966
 30
0.0
 10
72.110380
 20
219.405572
 30
0.0
 10
68.002092
 20
219.405572
 30
0.0
  0
SPLINE
  5
13f
100
AcDbEntity
  8
avo-uvezian-seeklogo.com
 62
7
100
AcDbSpline
 70
8
 71
3
 72
8
 73
4
 74
0
 40
0
 40
0
 40
0
 40
0
 40
1
 40
1
 40
1
 40
1
 10
68.002092
 20
219.405572
 30
0.0
 10
63.063907
 20
219.405572
 30
0.0
 10
60.862514
 20
224.491757
 30
0.0
 10
60.862514
 20
228.148745
 30
0.0
  0
SPLINE
  5
140
100
AcDbEntity
  8
avo-uvezian-seeklogo.com
 62
7
100
AcDbSpline
 70
8
 71
3
 72
8
 73
4
 74
0
 40
0
 40
0
 40
0
 40
0
 40
1
 40
1
 40
1
 40
1
 10
60.862514
 20
228.148745
 30
0.0
 10
60.862514
 20
232.126033
 30
0.0
 10
64.590303
 20
237.012018
 30
0.0
 10
70.697784
 20
237.012018
 30
0.0
  0
SPLINE
  5
141
100
AcDbEntity
  8
avo-uvezian-seeklogo.com
 62
7
100
AcDbSpline
 70
8
 71
3
 72
8
 73
4
 74
0
 40
0
 40
0
 40
0
 40
0
 40
1
 40
1
 40
1
 40
1
 10
70.697784
 20
237.012018
 30
0.0
 10
76.186267
 20
237.012018
 30
0.0
 10
80.762453
 20
233.387429
 30
0.0
 10
82.588048
 20
230.990737
 30
0.0
  0
SPLINE
  5
142
100
AcDbEntity
  8
avo-uvezian-seeklogo.com
 62
7
100
AcDbSpline
 70
8
 71
3
 72
8
 73
4
 74
0
 40
0
 40
0
 40
0
 40
0
 40
1
 40
1
 40
1
 40
1
 10
82.588048
 20
230.990737
 30
0.0
 10
83.413445
 20
233.577029
 30
0.0
 10
84.370142
 20
237.175318
 30
0.0
 10
86.723735
 20
237.175318
 30
0.0
  0
SPLINE
  5
143
100
AcDbEntity
  8
avo-uvezian-seeklogo.com
 62
7
100
AcDbSpline
 70
8
 71
3
 72
8
 73
4
 74
0
 40
0
 40
0
 40
0
 40
0
 40
1
 40
1
 40
1
 40
1
 10
195.634202
 20
237.309417
 30
0.0
 10
193.482109
 20
237.309417
 30
0.0
 10
191.693714
 20
233.521529
 30
0.0
 10
190.786617
 20
232.021134
 30
0.0
  0
SPLINE
  5
144
100
AcDbEntity
  8
avo-uvezian-seeklogo.com
 62
7
100
AcDbSpline
 70
8
 71
3
 72
8
 73
4
 74
0
 40
0
 40
0
 40
0
 40
0
 40
1
 40
1
 40
1
 40
1
 10
190.786617
 20
232.021134
 30
0.0
 10
189.249122
 20
233.885128
 30
0.0
 10
186.548830
 20
236.797719
 30
0.0
 10
180.798848
 20
236.797719
 30
0.0
  0
SPLINE
  5
145
100
AcDbEntity
  8
avo-uvezian-seeklogo.com
 62
7
100
AcDbSpline
 70
8
 71
3
 72
8
 73
4
 74
0
 40
0
 40
0
 40
0
 40
0
 40
1
 40
1
 40
1
 40
1
 10
180.798848
 20
236.797719
 30
0.0
 10
174.985565
 20
236.797719
 30
0.0
 10
170.750878
 20
231.847034
 30
0.0
 10
170.750878
 20
227.560247
 30
0.0
  0
SPLINE
  5
146
100
AcDbEntity
  8
avo-uvezian-seeklogo.com
 62
7
100
AcDbSpline
 70
8
 71
3
 72
8
 73
4
 74
0
 40
0
 40
0
 40
0
 40
0
 40
1
 40
1
 40
1
 40
1
 10
170.750878
 20
227.560247
 30
0.0
 10
170.750878
 20
222.463263
 30
0.0
 10
174.512467
 20
220.414369
 30
0.0
 10
176.963259
 20
220.414369
 30
0.0
  0
SPLINE
  5
147
100
AcDbEntity
  8
avo-uvezian-seeklogo.com
 62
7
100
AcDbSpline
 70
8
 71
3
 72
8
 73
4
 74
0
 40
0
 40
0
 40
0
 40
0
 40
1
 40
1
 40
1
 40
1
 10
176.963259
 20
220.414369
 30
0.0
 10
180.674048
 20
220.414369
 30
0.0
 10
182.211343
 20
223.376560
 30
0.0
 10
182.211343
 20
225.098655
 30
0.0
  0
SPLINE
  5
148
100
AcDbEntity
  8
avo-uvezian-seeklogo.com
 62
7
100
AcDbSpline
 70
8
 71
3
 72
8
 73
4
 74
0
 40
0
 40
0
 40
0
 40
0
 40
1
 40
1
 40
1
 40
1
 10
182.211343
 20
225.098655
 30
0.0
 10
182.211343
 20
226.810249
 30
0.0
 10
180.875947
 20
228.570844
 30
0.0
 10
179.011853
 20
228.570844
 30
0.0
  0
SPLINE
  5
149
100
AcDbEntity
  8
avo-uvezian-seeklogo.com
 62
7
100
AcDbSpline
 70
8
 71
3
 72
8
 73
4
 74
0
 40
0
 40
0
 40
0
 40
0
 40
1
 40
1
 40
1
 40
1
 10
179.011853
 20
228.570844
 30
0.0
 10
177.560857
 20
228.570844
 30
0.0
 10
177.262058
 20
227.321548
 30
0.0
 10
177.288358
 20
227.048849
 30
0.0
  0
LWPOLYLINE
  5
14a
100
AcDbEntity
  8
avo-uvezian-seeklogo.com
 62
7
100
AcDbPolyline
 90
3
 70
0
 10
66.714296
 20
225.915352
 30
0.0
 10
68.079192
 20
224.676856
 30
0.0
 10
68.176092
 20
226.579150
 30
0.0
  0
SPLINE
  5
14b
100
AcDbEntity
  8
avo-uvezian-seeklogo.com
 62
7
100
AcDbSpline
 70
8
 71
3
 72
8
 73
4
 74
0
 40
0
 40
0
 40
0
 40
0
 40
1
 40
1
 40
1
 40
1
 10
177.137359
 20
224.935355
 30
0.0
 10
176.636760
 20
224.935355
 30
0.0
 10
175.810963
 20
225.147955
 30
0.0
 10
175.810963
 20
226.511450
 30
0.0
  0
SPLINE
  5
14c
100
AcDbEntity
  8
avo-uvezian-seeklogo.com
 62
7
100
AcDbSpline
 70
8
 71
3
 72
8
 73
4
 74
0
 40
0
 40
0
 40
0
 40
0
 40
1
 40
1
 40
1
 40
1
 10
175.810963
 20
226.511450
 30
0.0
 10
175.810963
 20
228.185545
 30
0.0
 10
177.423858
 20
229.320842
 30
0.0
 10
179.125853
 20
229.320842
 30
0.0
  0
SPLINE
  5
14d
100
AcDbEntity
  8
avo-uvezian-seeklogo.com
 62
7
100
AcDbSpline
 70
8
 71
3
 72
8
 73
4
 74
0
 40
0
 40
0
 40
0
 40
0
 40
1
 40
1
 40
1
 40
1
 10
179.125853
 20
229.320842
 30
0.0
 10
180.848147
 20
229.320842
 30
0.0
 10
183.173940
 20
228.211945
 30
0.0
 10
183.173940
 20
224.924555
 30
0.0
  0
SPLINE
  5
14e
100
AcDbEntity
  8
avo-uvezian-seeklogo.com
 62
7
100
AcDbSpline
 70
8
 71
3
 72
8
 73
4
 74
0
 40
0
 40
0
 40
0
 40
0
 40
1
 40
1
 40
1
 40
1
 10
183.173940
 20
224.924555
 30
0.0
 10
183.173940
 20
221.637565
 30
0.0
 10
180.549348
 20
219.425672
 30
0.0
 10
176.974059
 20
219.425672
 30
0.0
  0
SPLINE
  5
14f
100
AcDbEntity
  8
avo-uvezian-seeklogo.com
 62
7
100
AcDbSpline
 70
8
 71
3
 72
8
 73
4
 74
0
 40
0
 40
0
 40
0
 40
0
 40
1
 40
1
 40
1
 40
1
 10
176.974059
 20
219.425672
 30
0.0
 10
174.712866
 20
219.425672
 30
0.0
 10
169.740381
 20
221.175467
 30
0.0
 10
169.740381
 20
227.500147
 30
0.0
  0
SPLINE
  5
150
100
AcDbEntity
  8
avo-uvezian-seeklogo.com
 62
7
100
AcDbSpline
 70
8
 71
3
 72
8
 73
4
 74
0
 40
0
 40
0
 40
0
 40
0
 40
1
 40
1
 40
1
 40
1
 10
169.740381
 20
227.500147
 30
0.0
 10
169.740381
 20
234.194727
 30
0.0
 10
176.049962
 20
237.711416
 30
0.0
 10
180.848147
 20
237.711416
 30
0.0
  0
SPLINE
  5
151
100
AcDbEntity
  8
avo-uvezian-seeklogo.com
 62
7
100
AcDbSpline
 70
8
 71
3
 72
8
 73
4
 74
0
 40
0
 40
0
 40
0
 40
0
 40
1
 40
1
 40
1
 40
1
 10
180.848147
 20
237.711416
 30
0.0
 10
185.201334
 20
237.711416
 30
0.0
 10
187.608727
 20
236.434320
 30
0.0
 10
190.586218
 20
233.972728
 30
0.0
  0
SPLINE
  5
152
100
AcDbEntity
  8
avo-uvezian-seeklogo.com
 62
7
100
AcDbSpline
 70
8
 71
3
 72
8
 73
4
 74
0
 40
0
 40
0
 40
0
 40
0
 40
1
 40
1
 40
1
 40
1
 10
190.586218
 20
233.972728
 30
0.0
 10
192.172813
 20
236.346520
 30
0.0
 10
193.509909
 20
238.422814
 30
0.0
 10
195.819002
 20
238.422814
 30
0.0
  0
SPLINE
  5
153
100
AcDbEntity
  8
avo-uvezian-seeklogo.com
 62
7
100
AcDbSpline
 70
8
 71
3
 72
8
 73
4
 74
0
 40
0
 40
0
 40
0
 40
0
 40
1
 40
1
 40
1
 40
1
 10
195.819002
 20
238.422814
 30
0.0
 10
197.856795
 20
238.422814
 30
0.0
 10
199.219991
 20
236.195721
 30
0.0
 10
200.161088
 20
233.358229
 30
0.0
  0
SPLINE
  5
154
100
AcDbEntity
  8
avo-uvezian-seeklogo.com
 62
7
100
AcDbSpline
 70
8
 71
3
 72
8
 73
4
 74
0
 40
0
 40
0
 40
0
 40
0
 40
1
 40
1
 40
1
 40
1
 10
200.161088
 20
233.358229
 30
0.0
 10
203.871877
 20
237.135418
 30
0.0
 10
206.969568
 20
238.145615
 30
0.0
 10
210.746756
 20
238.145615
 30
0.0
  0
SPLINE
  5
155
100
AcDbEntity
  8
avo-uvezian-seeklogo.com
 62
7
100
AcDbSpline
 70
8
 71
3
 72
8
 73
4
 74
0
 40
0
 40
0
 40
0
 40
0
 40
1
 40
1
 40
1
 40
1
 10
210.746756
 20
238.145615
 30
0.0
 10
214.534444
 20
238.145615
 30
0.0
 10
221.278324
 20
235.135824
 30
0.0
 10
221.278324
 20
228.282845
 30
0.0
  0
SPLINE
  5
156
100
AcDbEntity
  8
avo-uvezian-seeklogo.com
 62
7
100
AcDbSpline
 70
8
 71
3
 72
8
 73
4
 74
0
 40
0
 40
0
 40
0
 40
0
 40
1
 40
1
 40
1
 40
1
 10
221.278324
 20
228.282845
 30
0.0
 10
221.278324
 20
223.696959
 30
0.0
 10
218.642632
 20
218.522875
 30
0.0
 10
212.995449
 20
218.522875
 30
0.0
  0
SPLINE
  5
157
100
AcDbEntity
  8
avo-uvezian-seeklogo.com
 62
7
100
AcDbSpline
 70
8
 71
3
 72
8
 73
4
 74
0
 40
0
 40
0
 40
0
 40
0
 40
1
 40
1
 40
1
 40
1
 10
212.995449
 20
218.522875
 30
0.0
 10
207.034267
 20
218.522875
 30
0.0
 10
205.795771
 20
221.973464
 30
0.0
 10
205.795771
 20
224.598056
 30
0.0
  0
SPLINE
  5
158
100
AcDbEntity
  8
avo-uvezian-seeklogo.com
 62
7
100
AcDbSpline
 70
8
 71
3
 72
8
 73
4
 74
0
 40
0
 40
0
 40
0
 40
0
 40
1
 40
1
 40
1
 40
1
 10
205.795771
 20
224.598056
 30
0.0
 10
205.795771
 20
227.624847
 30
0.0
 10
208.345263
 20
229.424041
 30
0.0
 10
210.632556
 20
229.424041
 30
0.0
  0
SPLINE
  5
159
100
AcDbEntity
  8
avo-uvezian-seeklogo.com
 62
7
100
AcDbSpline
 70
8
 71
3
 72
8
 73
4
 74
0
 40
0
 40
0
 40
0
 40
0
 40
1
 40
1
 40
1
 40
1
 10
210.632556
 20
229.424041
 30
0.0
 10
213.017049
 20
229.424041
 30
0.0
 10
214.420445
 20
227.684947
 30
0.0
 10
214.343345
 20
226.098452
 30
0.0
  0
LWPOLYLINE
  5
15a
100
AcDbEntity
  8
avo-uvezian-seeklogo.com
 62
7
100
AcDbPolyline
 90
3
 70
0
 10
177.288358
 20
227.048849
 30
0.0
 10
177.827257
 20
225.984452
 30
0.0
 10
177.137359
 20
224.935355
 30
0.0
  0
SPLINE
  5
15b
100
AcDbEntity
  8
avo-uvezian-seeklogo.com
 62
7
100
AcDbSpline
 70
8
 71
3
 72
8
 73
4
 74
0
 40
0
 40
0
 40
0
 40
0
 40
1
 40
1
 40
1
 40
1
 10
212.892249
 20
226.760850
 30
0.0
 10
213.257348
 20
227.886846
 30
0.0
 10
212.208552
 20
228.609344
 30
0.0
 10
210.680456
 20
228.609344
 30
0.0
  0
SPLINE
  5
15c
100
AcDbEntity
  8
avo-uvezian-seeklogo.com
 62
7
100
AcDbSpline
 70
8
 71
3
 72
8
 73
4
 74
0
 40
0
 40
0
 40
0
 40
0
 40
1
 40
1
 40
1
 40
1
 10
210.680456
 20
228.609344
 30
0.0
 10
209.220061
 20
228.609344
 30
0.0
 10
206.834068
 20
227.358448
 30
0.0
 10
206.834068
 20
224.501157
 30
0.0
  0
SPLINE
  5
15d
100
AcDbEntity
  8
avo-uvezian-seeklogo.com
 62
7
100
AcDbSpline
 70
8
 71
3
 72
8
 73
4
 74
0
 40
0
 40
0
 40
0
 40
0
 40
1
 40
1
 40
1
 40
1
 10
206.834068
 20
224.501157
 30
0.0
 10
206.834068
 20
221.648365
 30
0.0
 10
208.904262
 20
219.485772
 30
0.0
 10
213.017049
 20
219.485772
 30
0.0
  0
SPLINE
  5
15e
100
AcDbEntity
  8
avo-uvezian-seeklogo.com
 62
7
100
AcDbSpline
 70
8
 71
3
 72
8
 73
4
 74
0
 40
0
 40
0
 40
0
 40
0
 40
1
 40
1
 40
1
 40
1
 10
213.017049
 20
219.485772
 30
0.0
 10
217.941634
 20
219.485772
 30
0.0
 10
220.179827
 20
224.658156
 30
0.0
 10
220.179827
 20
228.336645
 30
0.0
  0
SPLINE
  5
15f
100
AcDbEntity
  8
avo-uvezian-seeklogo.com
 62
7
100
AcDbSpline
 70
8
 71
3
 72
8
 73
4
 74
0
 40
0
 40
0
 40
0
 40
0
 40
1
 40
1
 40
1
 40
1
 10
220.179827
 20
228.336645
 30
0.0
 10
220.179827
 20
232.283033
 30
0.0
 10
216.469039
 20
237.184418
 30
0.0
 10
210.284457
 20
237.184418
 30
0.0
  0
SPLINE
  5
160
100
AcDbEntity
  8
avo-uvezian-seeklogo.com
 62
7
100
AcDbSpline
 70
8
 71
3
 72
8
 73
4
 74
0
 40
0
 40
0
 40
0
 40
0
 40
1
 40
1
 40
1
 40
1
 10
210.284457
 20
237.184418
 30
0.0
 10
204.817874
 20
237.184418
 30
0.0
 10
201.693784
 20
233.446129
 30
0.0
 10
199.681990
 20
231.157136
 30
0.0
  0
SPLINE
  5
161
100
AcDbEntity
  8
avo-uvezian-seeklogo.com
 62
7
100
AcDbSpline
 70
8
 71
3
 72
8
 73
4
 74
0
 40
0
 40
0
 40
0
 40
0
 40
1
 40
1
 40
1
 40
1
 10
199.681990
 20
231.157136
 30
0.0
 10
198.845792
 20
233.734128
 30
0.0
 10
197.949195
 20
237.309417
 30
0.0
 10
195.634202
 20
237.309417
 30
0.0
  0
SPLINE
  5
162
100
AcDbEntity
  8
avo-uvezian-seeklogo.com
 62
7
100
AcDbSpline
 70
8
 71
3
 72
8
 73
4
 74
0
 40
0
 40
0
 40
0
 40
0
 40
1
 40
1
 40
1
 40
1
 10
72.801978
 20
220.408469
 30
0.0
 10
72.801978
 20
220.408469
 30
0.0
 10
65.488300
 20
211.045898
 30
0.0
 10
61.602012
 20
201.797626
 30
0.0
  0
SPLINE
  5
163
100
AcDbEntity
  8
avo-uvezian-seeklogo.com
 62
7
100
AcDbSpline
 70
8
 71
3
 72
8
 73
4
 74
0
 40
0
 40
0
 40
0
 40
0
 40
1
 40
1
 40
1
 40
1
 10
61.602012
 20
201.797626
 30
0.0
 10
58.168422
 20
193.602751
 30
0.0
 10
56.227528
 20
182.278086
 30
0.0
 10
55.468131
 20
173.257713
 30
0.0
  0
SPLINE
  5
164
100
AcDbEntity
  8
avo-uvezian-seeklogo.com
 62
7
100
AcDbSpline
 70
8
 71
3
 72
8
 73
4
 74
0
 40
0
 40
0
 40
0
 40
0
 40
1
 40
1
 40
1
 40
1
 10
55.468131
 20
173.257713
 30
0.0
 10
54.907532
 20
166.655533
 30
0.0
 10
52.793939
 20
163.818342
 30
0.0
 10
51.218243
 20
161.633949
 30
0.0
  0
SPLINE
  5
165
100
AcDbEntity
  8
avo-uvezian-seeklogo.com
 62
7
100
AcDbSpline
 70
8
 71
3
 72
8
 73
4
 74
0
 40
0
 40
0
 40
0
 40
0
 40
1
 40
1
 40
1
 40
1
 10
51.218243
 20
161.633949
 30
0.0
 10
52.793939
 20
159.944254
 30
0.0
 10
55.793330
 20
154.830269
 30
0.0
 10
55.793330
 20
147.396392
 30
0.0
  0
SPLINE
  5
166
100
AcDbEntity
  8
avo-uvezian-seeklogo.com
 62
7
100
AcDbSpline
 70
8
 71
3
 72
8
 73
4
 74
0
 40
0
 40
0
 40
0
 40
0
 40
1
 40
1
 40
1
 40
1
 10
55.793330
 20
147.396392
 30
0.0
 10
55.793330
 20
143.533104
 30
0.0
 10
56.766727
 20
137.658322
 30
0.0
 10
58.043723
 20
132.339438
 30
0.0
  0
SPLINE
  5
167
100
AcDbEntity
  8
avo-uvezian-seeklogo.com
 62
7
100
AcDbSpline
 70
8
 71
3
 72
8
 73
4
 74
0
 40
0
 40
0
 40
0
 40
0
 40
1
 40
1
 40
1
 40
1
 10
58.043723
 20
132.339438
 30
0.0
 10
61.053513
 20
120.215075
 30
0.0
 10
67.563294
 20
109.928507
 30
0.0
 10
70.531484
 20
106.189918
 30
0.0
  0
LWPOLYLINE
  5
168
100
AcDbEntity
  8
avo-uvezian-seeklogo.com
 62
7
100
AcDbPolyline
 90
3
 70
0
 10
214.343345
 20
226.098452
 30
0.0
 10
212.930849
 20
224.935355
 30
0.0
 10
212.892249
 20
226.760850
 30
0.0
  0
SPLINE
  5
169
100
AcDbEntity
  8
avo-uvezian-seeklogo.com
 62
7
100
AcDbSpline
 70
8
 71
3
 72
8
 73
4
 74
0
 40
0
 40
0
 40
0
 40
0
 40
1
 40
1
 40
1
 40
1
 10
71.350882
 20
106.189918
 30
0.0
 10
68.379691
 20
109.928507
 30
0.0
 10
61.868511
 20
120.215075
 30
0.0
 10
58.901820
 20
132.339438
 30
0.0
  0
SPLINE
  5
16a
100
AcDbEntity
  8
avo-uvezian-seeklogo.com
 62
7
100
AcDbSpline
 70
8
 71
3
 72
8
 73
4
 74
0
 40
0
 40
0
 40
0
 40
0
 40
1
 40
1
 40
1
 40
1
 10
58.901820
 20
132.339438
 30
0.0
 10
57.564724
 20
137.658322
 30
0.0
 10
56.603427
 20
143.533104
 30
0.0
 10
56.603427
 20
147.396392
 30
0.0
  0
SPLINE
  5
16b
100
AcDbEntity
  8
avo-uvezian-seeklogo.com
 62
7
100
AcDbSpline
 70
8
 71
3
 72
8
 73
4
 74
0
 40
0
 40
0
 40
0
 40
0
 40
1
 40
1
 40
1
 40
1
 10
56.603427
 20
147.396392
 30
0.0
 10
56.603427
 20
154.830269
 30
0.0
 10
53.630436
 20
159.944254
 30
0.0
 10
52.054741
 20
161.633949
 30
0.0
  0
SPLINE
  5
16c
100
AcDbEntity
  8
avo-uvezian-seeklogo.com
 62
7
100
AcDbSpline
 70
8
 71
3
 72
8
 73
4
 74
0
 40
0
 40
0
 40
0
 40
0
 40
1
 40
1
 40
1
 40
1
 10
52.054741
 20
161.633949
 30
0.0
 10
53.630436
 20
163.818342
 30
0.0
 10
55.739130
 20
166.655533
 30
0.0
 10
56.304728
 20
173.257713
 30
0.0
  0
SPLINE
  5
16d
100
AcDbEntity
  8
avo-uvezian-seeklogo.com
 62
7
100
AcDbSpline
 70
8
 71
3
 72
8
 73
4
 74
0
 40
0
 40
0
 40
0
 40
0
 40
1
 40
1
 40
1
 40
1
 10
56.304728
 20
173.257713
 30
0.0
 10
57.102626
 20
182.278086
 30
0.0
 10
58.978620
 20
193.602751
 30
0.0
 10
62.429209
 20
201.797626
 30
0.0
  0
SPLINE
  5
16e
100
AcDbEntity
  8
avo-uvezian-seeklogo.com
 62
7
100
AcDbSpline
 70
8
 71
3
 72
8
 73
4
 74
0
 40
0
 40
0
 40
0
 40
0
 40
1
 40
1
 40
1
 40
1
 10
62.429209
 20
201.797626
 30
0.0
 10
66.313797
 20
211.045898
 30
0.0
 10
73.627675
 20
220.408469
 30
0.0
 10
73.627675
 20
220.408469
 30
0.0
  0
LWPOLYLINE
  5
16f
100
AcDbEntity
  8
avo-uvezian-seeklogo.com
 62
7
100
AcDbPolyline
 90
2
 70
0
 10
70.531484
 20
106.189918
 30
0.0
 10
71.350882
 20
106.189918
 30
0.0
  0
SPLINE
  5
170
100
AcDbEntity
  8
avo-uvezian-seeklogo.com
 62
7
100
AcDbSpline
 70
8
 71
3
 72
8
 73
4
 74
0
 40
0
 40
0
 40
0
 40
0
 40
1
 40
1
 40
1
 40
1
 10
76.572866
 20
218.051476
 30
0.0
 10
76.572866
 20
218.051476
 30
0.0
 10
70.546784
 20
210.938198
 30
0.0
 10
66.346397
 20
201.814626
 30
0.0
  0
SPLINE
  5
171
100
AcDbEntity
  8
avo-uvezian-seeklogo.com
 62
7
100
AcDbSpline
 70
8
 71
3
 72
8
 73
4
 74
0
 40
0
 40
0
 40
0
 40
0
 40
1
 40
1
 40
1
 40
1
 10
66.346397
 20
201.814626
 30
0.0
 10
62.422909
 20
193.245552
 30
0.0
 10
60.748514
 20
182.284286
 30
0.0
 10
59.987717
 20
173.269913
 30
0.0
  0
SPLINE
  5
172
100
AcDbEntity
  8
avo-uvezian-seeklogo.com
 62
7
100
AcDbSpline
 70
8
 71
3
 72
8
 73
4
 74
0
 40
0
 40
0
 40
0
 40
0
 40
1
 40
1
 40
1
 40
1
 10
59.987717
 20
173.269913
 30
0.0
 10
59.411418
 20
166.661733
 30
0.0
 10
57.938823
 20
163.808942
 30
0.0
 10
56.363028
 20
161.650949
 30
0.0
  0
SPLINE
  5
173
100
AcDbEntity
  8
avo-uvezian-seeklogo.com
 62
7
100
AcDbSpline
 70
8
 71
3
 72
8
 73
4
 74
0
 40
0
 40
0
 40
0
 40
0
 40
1
 40
1
 40
1
 40
1
 10
56.363028
 20
161.650949
 30
0.0
 10
57.938823
 20
159.939654
 30
0.0
 10
59.748717
 20
154.489870
 30
0.0
 10
60.161816
 20
147.077493
 30
0.0
  0
SPLINE
  5
174
100
AcDbEntity
  8
avo-uvezian-seeklogo.com
 62
7
100
AcDbSpline
 70
8
 71
3
 72
8
 73
4
 74
0
 40
0
 40
0
 40
0
 40
0
 40
1
 40
1
 40
1
 40
1
 10
60.161816
 20
147.077493
 30
0.0
 10
60.400415
 20
143.088105
 30
0.0
 10
61.199813
 20
137.627422
 30
0.0
 10
62.564709
 20
132.328638
 30
0.0
  0
SPLINE
  5
175
100
AcDbEntity
  8
avo-uvezian-seeklogo.com
 62
7
100
AcDbSpline
 70
8
 71
3
 72
8
 73
4
 74
0
 40
0
 40
0
 40
0
 40
0
 40
1
 40
1
 40
1
 40
1
 10
62.564709
 20
132.328638
 30
0.0
 10
66.062898
 20
118.520580
 30
0.0
 10
74.784571
 20
107.208115
 30
0.0
 10
77.746462
 20
103.435726
 30
0.0
  0
LWPOLYLINE
  5
176
100
AcDbEntity
  8
avo-uvezian-seeklogo.com
 62
7
100
AcDbPolyline
 90
2
 70
0
 10
73.627675
 20
220.408469
 30
0.0
 10
72.801978
 20
220.408469
 30
0.0
  0
SPLINE
  5
177
100
AcDbEntity
  8
avo-uvezian-seeklogo.com
 62
7
100
AcDbSpline
 70
8
 71
3
 72
8
 73
4
 74
0
 40
0
 40
0
 40
0
 40
0
 40
1
 40
1
 40
1
 40
1
 10
79.083558
 20
107.447014
 30
0.0
 10
76.132067
 20
111.196103
 30
0.0
 10
70.361885
 20
118.971779
 30
0.0
 10
67.133295
 20
132.328638
 30
0.0
  0
SPLINE
  5
178
100
AcDbEntity
  8
avo-uvezian-seeklogo.com
 62
7
100
AcDbSpline
 70
8
 71
3
 72
8
 73
4
 74
0
 40
0
 40
0
 40
0
 40
0
 40
1
 40
1
 40
1
 40
1
 10
67.133295
 20
132.328638
 30
0.0
 10
65.873299
 20
137.627422
 30
0.0
 10
65.037101
 20
143.088105
 30
0.0
 10
64.813702
 20
147.077493
 30
0.0
  0
SPLINE
  5
179
100
AcDbEntity
  8
avo-uvezian-seeklogo.com
 62
7
100
AcDbSpline
 70
8
 71
3
 72
8
 73
4
 74
0
 40
0
 40
0
 40
0
 40
0
 40
1
 40
1
 40
1
 40
1
 10
64.813702
 20
147.077493
 30
0.0
 10
64.362103
 20
154.489870
 30
0.0
 10
61.672912
 20
158.847557
 30
0.0
 10
60.346616
 20
161.650949
 30
0.0
  0
SPLINE
  5
17a
100
AcDbEntity
  8
avo-uvezian-seeklogo.com
 62
7
100
AcDbSpline
 70
8
 71
3
 72
8
 73
4
 74
0
 40
0
 40
0
 40
0
 40
0
 40
1
 40
1
 40
1
 40
1
 10
60.346616
 20
161.650949
 30
0.0
 10
61.950111
 20
163.808942
 30
0.0
 10
63.438006
 20
166.846533
 30
0.0
 10
64.009504
 20
173.470312
 30
0.0
  0
SPLINE
  5
17b
100
AcDbEntity
  8
avo-uvezian-seeklogo.com
 62
7
100
AcDbSpline
 70
8
 71
3
 72
8
 73
4
 74
0
 40
0
 40
0
 40
0
 40
0
 40
1
 40
1
 40
1
 40
1
 10
64.009504
 20
173.470312
 30
0.0
 10
64.759502
 20
182.458385
 30
0.0
 10
67.036295
 20
193.245552
 30
0.0
 10
70.987483
 20
201.814626
 30
0.0
  0
SPLINE
  5
17c
100
AcDbEntity
  8
avo-uvezian-seeklogo.com
 62
7
100
AcDbSpline
 70
8
 71
3
 72
8
 73
4
 74
0
 40
0
 40
0
 40
0
 40
0
 40
1
 40
1
 40
1
 40
1
 10
70.987483
 20
201.814626
 30
0.0
 10
75.160070
 20
210.938198
 30
0.0
 10
78.094561
 20
213.829589
 30
0.0
 10
78.094561
 20
213.829589
 30
0.0
  0
LWPOLYLINE
  5
17d
100
AcDbEntity
  8
avo-uvezian-seeklogo.com
 62
7
100
AcDbPolyline
 90
2
 70
0
 10
77.746462
 20
103.435726
 30
0.0
 10
79.083558
 20
107.447014
 30
0.0
  0
SPLINE
  5
17e
100
AcDbEntity
  8
avo-uvezian-seeklogo.com
 62
7
100
AcDbSpline
 70
8
 71
3
 72
8
 73
4
 74
0
 40
0
 40
0
 40
0
 40
0
 40
1
 40
1
 40
1
 40
1
 10
207.850565
 20
104.122824
 30
0.0
 10
211.675353
 20
108.671610
 30
0.0
 10
217.973934
 20
117.681183
 30
0.0
 10
221.708023
 20
132.342238
 30
0.0
  0
SPLINE
  5
17f
100
AcDbEntity
  8
avo-uvezian-seeklogo.com
 62
7
100
AcDbSpline
 70
8
 71
3
 72
8
 73
4
 74
0
 40
0
 40
0
 40
0
 40
0
 40
1
 40
1
 40
1
 40
1
 10
221.708023
 20
132.342238
 30
0.0
 10
223.060418
 20
137.628822
 30
0.0
 10
223.821216
 20
143.089505
 30
0.0
 10
224.023015
 20
147.089693
 30
0.0
  0
SPLINE
  5
180
100
AcDbEntity
  8
avo-uvezian-seeklogo.com
 62
7
100
AcDbSpline
 70
8
 71
3
 72
8
 73
4
 74
0
 40
0
 40
0
 40
0
 40
0
 40
1
 40
1
 40
1
 40
1
 10
224.023015
 20
147.089693
 30
0.0
 10
224.446514
 20
154.501970
 30
0.0
 10
226.820307
 20
160.235353
 30
0.0
 10
228.423802
 20
161.935848
 30
0.0
  0
SPLINE
  5
181
100
AcDbEntity
  8
avo-uvezian-seeklogo.com
 62
7
100
AcDbSpline
 70
8
 71
3
 72
8
 73
4
 74
0
 40
0
 40
0
 40
0
 40
0
 40
1
 40
1
 40
1
 40
1
 10
228.423802
 20
161.935848
 30
0.0
 10
226.820307
 20
164.087941
 30
0.0
 10
225.184412
 20
166.809733
 30
0.0
 10
224.620614
 20
173.445613
 30
0.0
  0
SPLINE
  5
182
100
AcDbEntity
  8
avo-uvezian-seeklogo.com
 62
7
100
AcDbSpline
 70
8
 71
3
 72
8
 73
4
 74
0
 40
0
 40
0
 40
0
 40
0
 40
1
 40
1
 40
1
 40
1
 10
224.620614
 20
173.445613
 30
0.0
 10
223.832016
 20
182.444485
 30
0.0
 10
222.022122
 20
193.382452
 30
0.0
 10
218.360633
 20
202.078025
 30
0.0
  0
SPLINE
  5
183
100
AcDbEntity
  8
avo-uvezian-seeklogo.com
 62
7
100
AcDbSpline
 70
8
 71
3
 72
8
 73
4
 74
0
 40
0
 40
0
 40
0
 40
0
 40
1
 40
1
 40
1
 40
1
 10
218.360633
 20
202.078025
 30
0.0
 10
213.936846
 20
212.592493
 30
0.0
 10
205.915971
 20
222.178164
 30
0.0
 10
205.915971
 20
222.178164
 30
0.0
  0
LWPOLYLINE
  5
184
100
AcDbEntity
  8
avo-uvezian-seeklogo.com
 62
7
100
AcDbPolyline
 90
2
 70
0
 10
78.094561
 20
213.829589
 30
0.0
 10
76.572866
 20
218.051476
 30
0.0
  0
SPLINE
  5
185
100
AcDbEntity
  8
avo-uvezian-seeklogo.com
 62
7
100
AcDbSpline
 70
8
 71
3
 72
8
 73
4
 74
0
 40
0
 40
0
 40
0
 40
0
 40
1
 40
1
 40
1
 40
1
 10
212.350051
 20
219.140573
 30
0.0
 10
212.350051
 20
219.140573
 30
0.0
 10
218.533232
 20
210.978198
 30
0.0
 10
222.598420
 20
201.816126
 30
0.0
  0
SPLINE
  5
186
100
AcDbEntity
  8
avo-uvezian-seeklogo.com
 62
7
100
AcDbSpline
 70
8
 71
3
 72
8
 73
4
 74
0
 40
0
 40
0
 40
0
 40
0
 40
1
 40
1
 40
1
 40
1
 10
222.598420
 20
201.816126
 30
0.0
 10
226.598608
 20
192.778653
 30
0.0
 10
227.957303
 20
182.595285
 30
0.0
 10
228.733701
 20
173.271613
 30
0.0
  0
SPLINE
  5
187
100
AcDbEntity
  8
avo-uvezian-seeklogo.com
 62
7
100
AcDbSpline
 70
8
 71
3
 72
8
 73
4
 74
0
 40
0
 40
0
 40
0
 40
0
 40
1
 40
1
 40
1
 40
1
 10
228.733701
 20
173.271613
 30
0.0
 10
229.195700
 20
167.359631
 30
0.0
 10
230.973294
 20
163.500843
 30
0.0
 10
232.357990
 20
160.147453
 30
0.0
  0
SPLINE
  5
188
100
AcDbEntity
  8
avo-uvezian-seeklogo.com
 62
7
100
AcDbSpline
 70
8
 71
3
 72
8
 73
4
 74
0
 40
0
 40
0
 40
0
 40
0
 40
1
 40
1
 40
1
 40
1
 10
232.357990
 20
160.147453
 30
0.0
 10
230.743695
 20
158.436258
 30
0.0
 10
228.423802
 20
154.850069
 30
0.0
 10
228.423802
 20
147.416592
 30
0.0
  0
SPLINE
  5
189
100
AcDbEntity
  8
avo-uvezian-seeklogo.com
 62
7
100
AcDbSpline
 70
8
 71
3
 72
8
 73
4
 74
0
 40
0
 40
0
 40
0
 40
0
 40
1
 40
1
 40
1
 40
1
 10
228.423802
 20
147.416592
 30
0.0
 10
228.423802
 20
144.955000
 30
0.0
 10
227.435105
 20
137.628822
 30
0.0
 10
226.147309
 20
132.342238
 30
0.0
  0
SPLINE
  5
18a
100
AcDbEntity
  8
avo-uvezian-seeklogo.com
 62
7
100
AcDbSpline
 70
8
 71
3
 72
8
 73
4
 74
0
 40
0
 40
0
 40
0
 40
0
 40
1
 40
1
 40
1
 40
1
 10
226.147309
 20
132.342238
 30
0.0
 10
223.159018
 20
120.218175
 30
0.0
 10
217.223936
 20
110.034806
 30
0.0
 10
214.224845
 20
106.246818
 30
0.0
  0
LWPOLYLINE
  5
18b
100
AcDbEntity
  8
avo-uvezian-seeklogo.com
 62
7
100
AcDbPolyline
 90
4
 70
0
 10
205.915971
 20
222.178164
 30
0.0
 10
206.334970
 20
223.113261
 30
0.0
 10
208.534563
 20
219.966270
 30
0.0
 10
212.350051
 20
219.140573
 30
0.0
  0
SPLINE
  5
18c
100
AcDbEntity
  8
avo-uvezian-seeklogo.com
 62
7
100
AcDbSpline
 70
8
 71
3
 72
8
 73
4
 74
0
 40
0
 40
0
 40
0
 40
0
 40
1
 40
1
 40
1
 40
1
 10
206.242470
 20
107.950713
 30
0.0
 10
209.215461
 20
111.710601
 30
0.0
 10
214.904043
 20
118.774780
 30
0.0
 10
218.115634
 20
132.159139
 30
0.0
  0
SPLINE
  5
18d
100
AcDbEntity
  8
avo-uvezian-seeklogo.com
 62
7
100
AcDbSpline
 70
8
 71
3
 72
8
 73
4
 74
0
 40
0
 40
0
 40
0
 40
0
 40
1
 40
1
 40
1
 40
1
 10
218.115634
 20
132.159139
 30
0.0
 10
219.425030
 20
137.468722
 30
0.0
 10
220.491126
 20
142.929306
 30
0.0
 10
220.729826
 20
146.945193
 30
0.0
  0
SPLINE
  5
18e
100
AcDbEntity
  8
avo-uvezian-seeklogo.com
 62
7
100
AcDbSpline
 70
8
 71
3
 72
8
 73
4
 74
0
 40
0
 40
0
 40
0
 40
0
 40
1
 40
1
 40
1
 40
1
 10
220.729826
 20
146.945193
 30
0.0
 10
221.137924
 20
154.352671
 30
0.0
 10
223.060418
 20
159.226456
 30
0.0
 10
224.375714
 20
162.031347
 30
0.0
  0
SPLINE
  5
18f
100
AcDbEntity
  8
avo-uvezian-seeklogo.com
 62
7
100
AcDbSpline
 70
8
 71
3
 72
8
 73
4
 74
0
 40
0
 40
0
 40
0
 40
0
 40
1
 40
1
 40
1
 40
1
 10
224.375714
 20
162.031347
 30
0.0
 10
222.789119
 20
164.166441
 30
0.0
 10
221.600023
 20
167.427431
 30
0.0
 10
221.000725
 20
174.078611
 30
0.0
  0
SPLINE
  5
190
100
AcDbEntity
  8
avo-uvezian-seeklogo.com
 62
7
100
AcDbSpline
 70
8
 71
3
 72
8
 73
4
 74
0
 40
0
 40
0
 40
0
 40
0
 40
1
 40
1
 40
1
 40
1
 10
221.000725
 20
174.078611
 30
0.0
 10
220.252127
 20
183.049683
 30
0.0
 10
218.566932
 20
193.499551
 30
0.0
 10
214.626844
 20
202.085625
 30
0.0
  0
SPLINE
  5
191
100
AcDbEntity
  8
avo-uvezian-seeklogo.com
 62
7
100
AcDbSpline
 70
8
 71
3
 72
8
 73
4
 74
0
 40
0
 40
0
 40
0
 40
0
 40
1
 40
1
 40
1
 40
1
 10
214.626844
 20
202.085625
 30
0.0
 10
210.453957
 20
211.209197
 30
0.0
 10
204.389475
 20
218.707674
 30
0.0
 10
204.389475
 20
218.707674
 30
0.0
  0
LWPOLYLINE
  5
192
100
AcDbEntity
  8
avo-uvezian-seeklogo.com
 62
7
100
AcDbPolyline
 90
4
 70
0
 10
214.224845
 20
106.246818
 30
0.0
 10
210.073558
 20
104.421623
 30
0.0
 10
208.839662
 20
102.459229
 30
0.0
 10
207.850565
 20
104.122824
 30
0.0
  0
SPLINE
  5
193
100
AcDbEntity
  8
avo-uvezian-seeklogo.com
 62
7
100
AcDbSpline
 70
8
 71
3
 72
8
 73
4
 74
0
 40
0
 40
0
 40
0
 40
0
 40
1
 40
1
 40
1
 40
1
 10
203.944477
 20
217.718977
 30
0.0
 10
203.944477
 20
217.718977
 30
0.0
 10
209.226261
 20
211.181397
 30
0.0
 10
213.416148
 20
202.085625
 30
0.0
  0
SPLINE
  5
194
100
AcDbEntity
  8
avo-uvezian-seeklogo.com
 62
7
100
AcDbSpline
 70
8
 71
3
 72
8
 73
4
 74
0
 40
0
 40
0
 40
0
 40
0
 40
1
 40
1
 40
1
 40
1
 10
213.416148
 20
202.085625
 30
0.0
 10
217.339536
 20
193.499551
 30
0.0
 10
219.115430
 20
183.049683
 30
0.0
 10
219.865528
 20
174.050811
 30
0.0
  0
SPLINE
  5
195
100
AcDbEntity
  8
avo-uvezian-seeklogo.com
 62
7
100
AcDbSpline
 70
8
 71
3
 72
8
 73
4
 74
0
 40
0
 40
0
 40
0
 40
0
 40
1
 40
1
 40
1
 40
1
 10
219.865528
 20
174.050811
 30
0.0
 10
220.463326
 20
167.416631
 30
0.0
 10
221.626423
 20
164.166441
 30
0.0
 10
223.212918
 20
162.031347
 30
0.0
  0
SPLINE
  5
196
100
AcDbEntity
  8
avo-uvezian-seeklogo.com
 62
7
100
AcDbSpline
 70
8
 71
3
 72
8
 73
4
 74
0
 40
0
 40
0
 40
0
 40
0
 40
1
 40
1
 40
1
 40
1
 10
223.212918
 20
162.031347
 30
0.0
 10
221.886622
 20
159.204956
 30
0.0
 10
219.914828
 20
154.341871
 30
0.0
 10
219.502129
 20
146.918794
 30
0.0
  0
SPLINE
  5
197
100
AcDbEntity
  8
avo-uvezian-seeklogo.com
 62
7
100
AcDbSpline
 70
8
 71
3
 72
8
 73
4
 74
0
 40
0
 40
0
 40
0
 40
0
 40
1
 40
1
 40
1
 40
1
 10
219.502129
 20
146.918794
 30
0.0
 10
219.300230
 20
142.929306
 30
0.0
 10
218.203533
 20
137.468722
 30
0.0
 10
216.926537
 20
132.132739
 30
0.0
  0
SPLINE
  5
198
100
AcDbEntity
  8
avo-uvezian-seeklogo.com
 62
7
100
AcDbSpline
 70
8
 71
3
 72
8
 73
4
 74
0
 40
0
 40
0
 40
0
 40
0
 40
1
 40
1
 40
1
 40
1
 10
216.926537
 20
132.132739
 30
0.0
 10
213.693347
 20
118.774780
 30
0.0
 10
208.916762
 20
112.998397
 30
0.0
 10
205.954471
 20
109.249009
 30
0.0
  0
LWPOLYLINE
  5
199
100
AcDbEntity
  8
avo-uvezian-seeklogo.com
 62
7
100
AcDbPolyline
 90
2
 70
0
 10
204.389475
 20
218.707674
 30
0.0
 10
203.944477
 20
217.718977
 30
0.0
  0
SPLINE
  5
19a
100
AcDbEntity
  8
avo-uvezian-seeklogo.com
 62
7
100
AcDbSpline
 70
8
 71
3
 72
8
 73
4
 74
0
 40
0
 40
0
 40
0
 40
0
 40
1
 40
1
 40
1
 40
1
 10
119.877034
 20
248.399983
 30
0.0
 10
112.052058
 20
247.189287
 30
0.0
 10
95.195909
 20
239.314911
 30
0.0
 10
90.006225
 20
234.843325
 30
0.0
  0
LWPOLYLINE
  5
19b
100
AcDbEntity
  8
avo-uvezian-seeklogo.com
 62
7
100
AcDbPolyline
 90
2
 70
0
 10
205.954471
 20
109.249009
 30
0.0
 10
206.242470
 20
107.950713
 30
0.0
  0
SPLINE
  5
19c
100
AcDbEntity
  8
avo-uvezian-seeklogo.com
 62
7
100
AcDbSpline
 70
8
 71
3
 72
8
 73
4
 74
0
 40
0
 40
0
 40
0
 40
0
 40
1
 40
1
 40
1
 40
1
 10
89.782826
 20
235.527023
 30
0.0
 10
94.957210
 20
240.015609
 30
0.0
 10
111.828658
 20
247.889985
 30
0.0
 10
119.638434
 20
249.123881
 30
0.0
  0
LWPOLYLINE
  5
19d
100
AcDbEntity
  8
avo-uvezian-seeklogo.com
 62
7
100
AcDbPolyline
 90
2
 70
0
 10
90.006225
 20
234.843325
 30
0.0
 10
89.782826
 20
235.527023
 30
0.0
  0
LWPOLYLINE
  5
19e
100
AcDbEntity
  8
avo-uvezian-seeklogo.com
 62
7
100
AcDbPolyline
 90
2
 70
0
 10
119.638434
 20
249.123881
 30
0.0
 10
119.877034
 20
248.399983
 30
0.0
  0
SPLINE
  5
19f
100
AcDbEntity
  8
avo-uvezian-seeklogo.com
 62
7
100
AcDbSpline
 70
8
 71
3
 72
8
 73
4
 74
0
 40
0
 40
0
 40
0
 40
0
 40
1
 40
1
 40
1
 40
1
 10
105.654877
 20
213.271691
 30
0.0
 10
111.076961
 20
220.107970
 30
0.0
 10
119.174636
 20
227.432448
 30
0.0
 10
126.335814
 20
229.242342
 30
0.0
  0
LWPOLYLINE
  5
1a0
100
AcDbEntity
  8
avo-uvezian-seeklogo.com
 62
7
100
AcDbPolyline
 90
3
 70
0
 10
106.127976
 20
220.032570
 30
0.0
 10
103.965082
 20
217.684977
 30
0.0
 10
105.654877
 20
213.271691
 30
0.0
  0
SPLINE
  5
1a1
100
AcDbEntity
  8
avo-uvezian-seeklogo.com
 62
7
100
AcDbSpline
 70
8
 71
3
 72
8
 73
4
 74
0
 40
0
 40
0
 40
0
 40
0
 40
1
 40
1
 40
1
 40
1
 10
128.270708
 20
234.040527
 30
0.0
 10
124.022221
 20
233.268930
 30
0.0
 10
118.523238
 20
230.443938
 30
0.0
 10
113.077954
 20
226.281851
 30
0.0
  0
LWPOLYLINE
  5
1a2
100
AcDbEntity
  8
avo-uvezian-seeklogo.com
 62
7
100
AcDbPolyline
 90
2
 70
0
 10
126.335814
 20
229.242342
 30
0.0
 10
128.270708
 20
234.040527
 30
0.0
  0
SPLINE
  5
1a3
100
AcDbEntity
  8
avo-uvezian-seeklogo.com
 62
7
100
AcDbSpline
 70
8
 71
3
 72
8
 73
4
 74
0
 40
0
 40
0
 40
0
 40
0
 40
1
 40
1
 40
1
 40
1
 10
129.533804
 20
237.853116
 30
0.0
 10
125.257817
 20
237.141318
 30
0.0
 10
116.796443
 20
233.566229
 30
0.0
 10
112.937855
 20
230.294539
 30
0.0
  0
LWPOLYLINE
  5
1a4
100
AcDbEntity
  8
avo-uvezian-seeklogo.com
 62
7
100
AcDbPolyline
 90
4
 70
0
 10
113.077954
 20
226.281851
 30
0.0
 10
111.751559
 20
222.608162
 30
0.0
 10
108.464569
 20
220.206670
 30
0.0
 10
106.127976
 20
220.032570
 30
0.0
  0
SPLINE
  5
1a5
100
AcDbEntity
  8
avo-uvezian-seeklogo.com
 62
7
100
AcDbSpline
 70
8
 71
3
 72
8
 73
4
 74
0
 40
0
 40
0
 40
0
 40
0
 40
1
 40
1
 40
1
 40
1
 10
112.449456
 20
230.979937
 30
0.0
 10
116.297245
 20
234.256227
 30
0.0
 10
124.795419
 20
238.027115
 30
0.0
 10
129.811103
 20
238.755613
 30
0.0
  0
LWPOLYLINE
  5
1a6
100
AcDbEntity
  8
avo-uvezian-seeklogo.com
 62
7
100
AcDbPolyline
 90
2
 70
0
 10
112.937855
 20
230.294539
 30
0.0
 10
112.449456
 20
230.979937
 30
0.0
  0
SPLINE
  5
1a7
100
AcDbEntity
  8
avo-uvezian-seeklogo.com
 62
7
100
AcDbSpline
 70
8
 71
3
 72
8
 73
4
 74
0
 40
0
 40
0
 40
0
 40
0
 40
1
 40
1
 40
1
 40
1
 10
165.809493
 20
247.189287
 30
0.0
 10
171.923275
 20
245.776791
 30
0.0
 10
187.691826
 20
238.130315
 30
0.0
 10
191.729214
 20
234.793925
 30
0.0
  0
LWPOLYLINE
  5
1a8
100
AcDbEntity
  8
avo-uvezian-seeklogo.com
 62
7
100
AcDbPolyline
 90
2
 70
0
 10
129.811103
 20
238.755613
 30
0.0
 10
129.533804
 20
237.853116
 30
0.0
  0
SPLINE
  5
1a9
100
AcDbEntity
  8
avo-uvezian-seeklogo.com
 62
7
100
AcDbSpline
 70
8
 71
3
 72
8
 73
4
 74
0
 40
0
 40
0
 40
0
 40
0
 40
1
 40
1
 40
1
 40
1
 10
192.490312
 20
235.593323
 30
0.0
 10
188.414324
 20
238.901913
 30
0.0
 10
172.194274
 20
246.591389
 30
0.0
 10
166.108292
 20
248.014985
 30
0.0
  0
LWPOLYLINE
  5
1aa
100
AcDbEntity
  8
avo-uvezian-seeklogo.com
 62
7
100
AcDbPolyline
 90
2
 70
0
 10
191.729214
 20
234.793925
 30
0.0
 10
192.490312
 20
235.593323
 30
0.0
  0
SPLINE
  5
1ab
100
AcDbEntity
  8
avo-uvezian-seeklogo.com
 62
7
100
AcDbSpline
 70
8
 71
3
 72
8
 73
4
 74
0
 40
0
 40
0
 40
0
 40
0
 40
1
 40
1
 40
1
 40
1
 10
178.227755
 20
214.764386
 30
0.0
 10
170.901978
 20
223.735459
 30
0.0
 10
164.990096
 20
228.034746
 30
0.0
 10
158.816215
 20
230.947637
 30
0.0
  0
LWPOLYLINE
  5
1ac
100
AcDbEntity
  8
avo-uvezian-seeklogo.com
 62
7
100
AcDbPolyline
 90
2
 70
0
 10
166.108292
 20
248.014985
 30
0.0
 10
165.809493
 20
247.189287
 30
0.0
  0
SPLINE
  5
1ad
100
AcDbEntity
  8
avo-uvezian-seeklogo.com
 62
7
100
AcDbSpline
 70
8
 71
3
 72
8
 73
4
 74
0
 40
0
 40
0
 40
0
 40
0
 40
1
 40
1
 40
1
 40
1
 10
158.354116
 20
232.224633
 30
0.0
 10
164.506197
 20
229.322542
 30
0.0
 10
171.125377
 20
224.823156
 30
0.0
 10
178.449755
 20
215.850383
 30
0.0
  0
LWPOLYLINE
  5
1ae
100
AcDbEntity
  8
avo-uvezian-seeklogo.com
 62
7
100
AcDbPolyline
 90
2
 70
0
 10
158.816215
 20
230.947637
 30
0.0
 10
158.354116
 20
232.224633
 30
0.0
  0
SPLINE
  5
1af
100
AcDbEntity
  8
avo-uvezian-seeklogo.com
 62
7
100
AcDbSpline
 70
8
 71
3
 72
8
 73
4
 74
0
 40
0
 40
0
 40
0
 40
0
 40
1
 40
1
 40
1
 40
1
 10
170.509079
 20
228.971343
 30
0.0
 10
167.374589
 20
231.372836
 30
0.0
 10
159.973011
 20
235.405423
 30
0.0
 10
156.359122
 20
236.317320
 30
0.0
  0
LWPOLYLINE
  5
1b0
100
AcDbEntity
  8
avo-uvezian-seeklogo.com
 62
7
100
AcDbPolyline
 90
2
 70
0
 10
178.449755
 20
215.850383
 30
0.0
 10
178.227755
 20
214.764386
 30
0.0
  0
SPLINE
  5
1b1
100
AcDbEntity
  8
avo-uvezian-seeklogo.com
 62
7
100
AcDbSpline
 70
8
 71
3
 72
8
 73
4
 74
0
 40
0
 40
0
 40
0
 40
0
 40
1
 40
1
 40
1
 40
1
 10
156.212923
 20
237.421717
 30
0.0
 10
159.820512
 20
236.519120
 30
0.0
 10
167.570088
 20
232.346233
 30
0.0
 10
170.693878
 20
229.943340
 30
0.0
  0
LWPOLYLINE
  5
1b2
100
AcDbEntity
  8
avo-uvezian-seeklogo.com
 62
7
100
AcDbPolyline
 90
2
 70
0
 10
156.359122
 20
236.317320
 30
0.0
 10
156.212923
 20
237.421717
 30
0.0
  0
SPLINE
  5
1b3
100
AcDbEntity
  8
avo-uvezian-seeklogo.com
 62
7
100
AcDbSpline
 70
8
 71
3
 72
8
 73
4
 74
0
 40
0
 40
0
 40
0
 40
0
 40
1
 40
1
 40
1
 40
1
 10
197.944695
 20
129.575947
 30
0.0
 10
200.378488
 20
135.335329
 30
0.0
 10
204.193976
 20
150.420183
 30
0.0
 10
199.318591
 20
161.392149
 30
0.0
  0
SPLINE
  5
1b4
100
AcDbEntity
  8
avo-uvezian-seeklogo.com
 62
7
100
AcDbSpline
 70
8
 71
3
 72
8
 73
4
 74
0
 40
0
 40
0
 40
0
 40
0
 40
1
 40
1
 40
1
 40
1
 10
199.318591
 20
161.392149
 30
0.0
 10
205.866671
 20
171.917417
 30
0.0
 10
197.944695
 20
195.241746
 30
0.0
 10
196.568999
 20
198.425836
 30
0.0
  0
LWPOLYLINE
  5
1b5
100
AcDbEntity
  8
avo-uvezian-seeklogo.com
 62
7
100
AcDbPolyline
 90
2
 70
0
 10
170.693878
 20
229.943340
 30
0.0
 10
170.509079
 20
228.971343
 30
0.0
  0
SPLINE
  5
1b6
100
AcDbEntity
  8
avo-uvezian-seeklogo.com
 62
7
100
AcDbSpline
 70
8
 71
3
 72
8
 73
4
 74
0
 40
0
 40
0
 40
0
 40
0
 40
1
 40
1
 40
1
 40
1
 10
194.118507
 20
192.339855
 30
0.0
 10
195.042604
 20
190.203161
 30
0.0
 10
201.068486
 20
171.380019
 30
0.0
 10
195.195104
 20
161.957348
 30
0.0
  0
SPLINE
  5
1b7
100
AcDbEntity
  8
avo-uvezian-seeklogo.com
 62
7
100
AcDbSpline
 70
8
 71
3
 72
8
 73
4
 74
0
 40
0
 40
0
 40
0
 40
0
 40
1
 40
1
 40
1
 40
1
 10
195.195104
 20
161.957348
 30
0.0
 10
199.791490
 20
154.218571
 30
0.0
 10
197.243697
 20
141.036112
 30
0.0
 10
195.369103
 20
136.586025
 30
0.0
  0
LWPOLYLINE
  5
1b8
100
AcDbEntity
  8
avo-uvezian-seeklogo.com
 62
7
100
AcDbPolyline
 90
2
 70
0
 10
196.568999
 20
198.425836
 30
0.0
 10
194.118507
 20
192.339855
 30
0.0
  0
SPLINE
  5
1b9
100
AcDbEntity
  8
avo-uvezian-seeklogo.com
 62
7
100
AcDbSpline
 70
8
 71
3
 72
8
 73
4
 74
0
 40
0
 40
0
 40
0
 40
0
 40
1
 40
1
 40
1
 40
1
 10
193.297309
 20
142.516607
 30
0.0
 10
194.357206
 20
148.292989
 30
0.0
 10
195.210404
 20
155.563267
 30
0.0
 10
191.445715
 20
161.911148
 30
0.0
  0
SPLINE
  5
1ba
100
AcDbEntity
  8
avo-uvezian-seeklogo.com
 62
7
100
AcDbSpline
 70
8
 71
3
 72
8
 73
4
 74
0
 40
0
 40
0
 40
0
 40
0
 40
1
 40
1
 40
1
 40
1
 10
191.445715
 20
161.911148
 30
0.0
 10
196.347400
 20
170.089123
 30
0.0
 10
193.819408
 20
182.512185
 30
0.0
 10
192.200613
 20
186.358473
 30
0.0
  0
LWPOLYLINE
  5
1bb
100
AcDbEntity
  8
avo-uvezian-seeklogo.com
 62
7
100
AcDbPolyline
 90
2
 70
0
 10
195.369103
 20
136.586025
 30
0.0
 10
197.944695
 20
129.575947
 30
0.0
  0
SPLINE
  5
1bc
100
AcDbEntity
  8
avo-uvezian-seeklogo.com
 62
7
100
AcDbSpline
 70
8
 71
3
 72
8
 73
4
 74
0
 40
0
 40
0
 40
0
 40
0
 40
1
 40
1
 40
1
 40
1
 10
191.260916
 20
185.012377
 30
0.0
 10
192.884611
 20
181.185889
 30
0.0
 10
195.173504
 20
169.138626
 30
0.0
 10
189.950120
 20
162.063647
 30
0.0
  0
SPLINE
  5
1bd
100
AcDbEntity
  8
avo-uvezian-seeklogo.com
 62
7
100
AcDbSpline
 70
8
 71
3
 72
8
 73
4
 74
0
 40
0
 40
0
 40
0
 40
0
 40
1
 40
1
 40
1
 40
1
 10
189.950120
 20
162.063647
 30
0.0
 10
193.733308
 20
155.715767
 30
0.0
 10
193.086410
 20
150.130484
 30
0.0
 10
192.020313
 20
144.354301
 30
0.0
  0
LWPOLYLINE
  5
1be
100
AcDbEntity
  8
avo-uvezian-seeklogo.com
 62
7
100
AcDbPolyline
 90
2
 70
0
 10
192.200613
 20
186.358473
 30
0.0
 10
191.260916
 20
185.012377
 30
0.0
  0
SPLINE
  5
1bf
100
AcDbEntity
  8
avo-uvezian-seeklogo.com
 62
7
100
AcDbSpline
 70
8
 71
3
 72
8
 73
4
 74
0
 40
0
 40
0
 40
0
 40
0
 40
1
 40
1
 40
1
 40
1
 10
91.645220
 20
179.425294
 30
0.0
 10
89.983325
 20
173.686012
 30
0.0
 10
90.955322
 20
164.562140
 30
0.0
 10
93.943513
 20
160.427852
 30
0.0
  0
SPLINE
  5
1c0
100
AcDbEntity
  8
avo-uvezian-seeklogo.com
 62
7
100
AcDbSpline
 70
8
 71
3
 72
8
 73
4
 74
0
 40
0
 40
0
 40
0
 40
0
 40
1
 40
1
 40
1
 40
1
 10
93.943513
 20
160.427852
 30
0.0
 10
90.368224
 20
157.493361
 30
0.0
 10
90.129525
 20
149.092387
 30
0.0
 10
92.107319
 20
141.016212
 30
0.0
  0
LWPOLYLINE
  5
1c1
100
AcDbEntity
  8
avo-uvezian-seeklogo.com
 62
7
100
AcDbPolyline
 90
2
 70
0
 10
192.020313
 20
144.354301
 30
0.0
 10
193.297309
 20
142.516607
 30
0.0
  0
SPLINE
  5
1c2
100
AcDbEntity
  8
avo-uvezian-seeklogo.com
 62
7
100
AcDbSpline
 70
8
 71
3
 72
8
 73
4
 74
0
 40
0
 40
0
 40
0
 40
0
 40
1
 40
1
 40
1
 40
1
 10
89.493427
 20
134.745431
 30
0.0
 10
87.885331
 20
140.005715
 30
0.0
 10
87.423033
 20
140.891512
 30
0.0
 10
86.847035
 20
147.890791
 30
0.0
  0
SPLINE
  5
1c3
100
AcDbEntity
  8
avo-uvezian-seeklogo.com
 62
7
100
AcDbSpline
 70
8
 71
3
 72
8
 73
4
 74
0
 40
0
 40
0
 40
0
 40
0
 40
1
 40
1
 40
1
 40
1
 10
86.847035
 20
147.890791
 30
0.0
 10
86.107737
 20
157.102262
 30
0.0
 10
87.548032
 20
157.117562
 30
0.0
 10
89.695326
 20
161.812848
 30
0.0
  0
SPLINE
  5
1c4
100
AcDbEntity
  8
avo-uvezian-seeklogo.com
 62
7
100
AcDbSpline
 70
8
 71
3
 72
8
 73
4
 74
0
 40
0
 40
0
 40
0
 40
0
 40
1
 40
1
 40
1
 40
1
 10
89.695326
 20
161.812848
 30
0.0
 10
87.423033
 20
165.464937
 30
0.0
 10
86.520536
 20
168.790527
 30
0.0
 10
86.743835
 20
173.012714
 30
0.0
  0
SPLINE
  5
1c5
100
AcDbEntity
  8
avo-uvezian-seeklogo.com
 62
7
100
AcDbSpline
 70
8
 71
3
 72
8
 73
4
 74
0
 40
0
 40
0
 40
0
 40
0
 40
1
 40
1
 40
1
 40
1
 10
86.743835
 20
173.012714
 30
0.0
 10
87.096534
 20
179.576394
 30
0.0
 10
87.667932
 20
182.288785
 30
0.0
 10
88.798729
 20
186.397073
 30
0.0
  0
LWPOLYLINE
  5
1c6
100
AcDbEntity
  8
avo-uvezian-seeklogo.com
 62
7
100
AcDbPolyline
 90
2
 70
0
 10
92.107319
 20
141.016212
 30
0.0
 10
89.493427
 20
134.745431
 30
0.0
  0
SPLINE
  5
1c7
100
AcDbEntity
  8
avo-uvezian-seeklogo.com
 62
7
100
AcDbSpline
 70
8
 71
3
 72
8
 73
4
 74
0
 40
0
 40
0
 40
0
 40
0
 40
1
 40
1
 40
1
 40
1
 10
86.848435
 20
191.956056
 30
0.0
 10
84.561142
 20
185.833275
 30
0.0
 10
83.599945
 20
180.773190
 30
0.0
 10
83.187246
 20
173.220813
 30
0.0
  0
SPLINE
  5
1c8
100
AcDbEntity
  8
avo-uvezian-seeklogo.com
 62
7
100
AcDbSpline
 70
8
 71
3
 72
8
 73
4
 74
0
 40
0
 40
0
 40
0
 40
0
 40
1
 40
1
 40
1
 40
1
 10
83.187246
 20
173.220813
 30
0.0
 10
82.974646
 20
168.998626
 30
0.0
 10
83.686144
 20
166.363034
 30
0.0
 10
85.583938
 20
162.063647
 30
0.0
  0
SPLINE
  5
1c9
100
AcDbEntity
  8
avo-uvezian-seeklogo.com
 62
7
100
AcDbSpline
 70
8
 71
3
 72
8
 73
4
 74
0
 40
0
 40
0
 40
0
 40
0
 40
1
 40
1
 40
1
 40
1
 10
85.583938
 20
162.063647
 30
0.0
 10
84.001943
 20
156.891363
 30
0.0
 10
82.822147
 20
157.488861
 30
0.0
 10
83.339745
 20
148.212790
 30
0.0
  0
SPLINE
  5
1ca
100
AcDbEntity
  8
avo-uvezian-seeklogo.com
 62
7
100
AcDbSpline
 70
8
 71
3
 72
8
 73
4
 74
0
 40
0
 40
0
 40
0
 40
0
 40
1
 40
1
 40
1
 40
1
 10
83.339745
 20
148.212790
 30
0.0
 10
83.763244
 20
139.990415
 30
0.0
 10
85.457539
 20
135.077930
 30
0.0
 10
87.534133
 20
129.241748
 30
0.0
  0
LWPOLYLINE
  5
1cb
100
AcDbEntity
  8
avo-uvezian-seeklogo.com
 62
7
100
AcDbPolyline
 90
2
 70
0
 10
88.798729
 20
186.397073
 30
0.0
 10
91.645220
 20
179.425294
 30
0.0
  0
SPLINE
  5
1cc
100
AcDbEntity
  8
avo-uvezian-seeklogo.com
 62
7
100
AcDbSpline
 70
8
 71
3
 72
8
 73
4
 74
0
 40
0
 40
0
 40
0
 40
0
 40
1
 40
1
 40
1
 40
1
 10
86.897734
 20
127.665952
 30
0.0
 10
84.823141
 20
133.491435
 30
0.0
 10
82.534148
 20
139.930315
 30
0.0
 10
82.073549
 20
148.141990
 30
0.0
  0
SPLINE
  5
1cd
100
AcDbEntity
  8
avo-uvezian-seeklogo.com
 62
7
100
AcDbSpline
 70
8
 71
3
 72
8
 73
4
 74
0
 40
0
 40
0
 40
0
 40
0
 40
1
 40
1
 40
1
 40
1
 10
82.073549
 20
148.141990
 30
0.0
 10
81.562151
 20
157.390262
 30
0.0
 10
82.800647
 20
156.824963
 30
0.0
 10
84.350042
 20
161.949748
 30
0.0
  0
SPLINE
  5
1ce
100
AcDbEntity
  8
avo-uvezian-seeklogo.com
 62
7
100
AcDbSpline
 70
8
 71
3
 72
8
 73
4
 74
0
 40
0
 40
0
 40
0
 40
0
 40
1
 40
1
 40
1
 40
1
 10
84.350042
 20
161.949748
 30
0.0
 10
82.426148
 20
166.313634
 30
0.0
 10
81.762250
 20
168.910726
 30
0.0
 10
81.974850
 20
173.149913
 30
0.0
  0
SPLINE
  5
1cf
100
AcDbEntity
  8
avo-uvezian-seeklogo.com
 62
7
100
AcDbSpline
 70
8
 71
3
 72
8
 73
4
 74
0
 40
0
 40
0
 40
0
 40
0
 40
1
 40
1
 40
1
 40
1
 10
81.974850
 20
173.149913
 30
0.0
 10
82.387548
 20
180.708490
 30
0.0
 10
83.926544
 20
187.409070
 30
0.0
 10
86.170737
 20
193.591951
 30
0.0
  0
LWPOLYLINE
  5
1d0
100
AcDbEntity
  8
avo-uvezian-seeklogo.com
 62
7
100
AcDbPolyline
 90
2
 70
0
 10
87.534133
 20
129.241748
 30
0.0
 10
86.897734
 20
127.665952
 30
0.0
  0
SPLINE
  5
1d1
100
AcDbEntity
  8
avo-uvezian-seeklogo.com
 62
7
100
AcDbSpline
 70
8
 71
3
 72
8
 73
4
 74
0
 40
0
 40
0
 40
0
 40
0
 40
1
 40
1
 40
1
 40
1
 10
89.719926
 20
88.172373
 30
0.0
 10
94.872510
 20
83.700687
 30
0.0
 10
109.680065
 20
76.913707
 30
0.0
 10
117.537341
 20
75.239313
 30
0.0
  0
LWPOLYLINE
  5
1d2
100
AcDbEntity
  8
avo-uvezian-seeklogo.com
 62
7
100
AcDbPolyline
 90
2
 70
0
 10
86.170737
 20
193.591951
 30
0.0
 10
86.848435
 20
191.956056
 30
0.0
  0
SPLINE
  5
1d3
100
AcDbEntity
  8
avo-uvezian-seeklogo.com
 62
7
100
AcDbSpline
 70
8
 71
3
 72
8
 73
4
 74
0
 40
0
 40
0
 40
0
 40
0
 40
1
 40
1
 40
1
 40
1
 10
117.427941
 20
76.272809
 30
0.0
 10
109.602965
 20
77.951804
 30
0.0
 10
95.431408
 20
84.336785
 30
0.0
 10
90.257424
 20
88.836271
 30
0.0
  0
LWPOLYLINE
  5
1d4
100
AcDbEntity
  8
avo-uvezian-seeklogo.com
 62
7
100
AcDbPolyline
 90
2
 70
0
 10
117.537341
 20
75.239313
 30
0.0
 10
117.427941
 20
76.272809
 30
0.0
  0
SPLINE
  5
1d5
100
AcDbEntity
  8
avo-uvezian-seeklogo.com
 62
7
100
AcDbSpline
 70
8
 71
3
 72
8
 73
4
 74
0
 40
0
 40
0
 40
0
 40
0
 40
1
 40
1
 40
1
 40
1
 10
113.028555
 20
97.873643
 30
0.0
 10
116.229445
 20
94.401454
 30
0.0
 10
120.202233
 20
92.163261
 30
0.0
 10
126.200314
 20
90.200867
 30
0.0
  0
LWPOLYLINE
  5
1d6
100
AcDbEntity
  8
avo-uvezian-seeklogo.com
 62
7
100
AcDbPolyline
 90
2
 70
0
 10
90.257424
 20
88.836271
 30
0.0
 10
89.719926
 20
88.172373
 30
0.0
  0
SPLINE
  5
1d7
100
AcDbEntity
  8
avo-uvezian-seeklogo.com
 62
7
100
AcDbSpline
 70
8
 71
3
 72
8
 73
4
 74
0
 40
0
 40
0
 40
0
 40
0
 40
1
 40
1
 40
1
 40
1
 10
125.576416
 20
91.798462
 30
0.0
 10
121.249630
 20
93.124458
 30
0.0
 10
116.599344
 20
96.575047
 30
0.0
 10
112.588056
 20
100.498235
 30
0.0
  0
LWPOLYLINE
  5
1d8
100
AcDbEntity
  8
avo-uvezian-seeklogo.com
 62
7
100
AcDbPolyline
 90
2
 70
0
 10
126.200314
 20
90.200867
 30
0.0
 10
125.576416
 20
91.798462
 30
0.0
  0
SPLINE
  5
1d9
100
AcDbEntity
  8
avo-uvezian-seeklogo.com
 62
7
100
AcDbSpline
 70
8
 71
3
 72
8
 73
4
 74
0
 40
0
 40
0
 40
0
 40
0
 40
1
 40
1
 40
1
 40
1
 10
104.716880
 20
109.836107
 30
0.0
 10
105.630177
 20
108.509711
 30
0.0
 10
107.102773
 20
106.673717
 30
0.0
 10
108.287369
 20
105.184121
 30
0.0
  0
SPLINE
  5
1da
100
AcDbEntity
  8
avo-uvezian-seeklogo.com
 62
7
100
AcDbSpline
 70
8
 71
3
 72
8
 73
4
 74
0
 40
0
 40
0
 40
0
 40
0
 40
1
 40
1
 40
1
 40
1
 10
108.287369
 20
105.184121
 30
0.0
 10
108.287369
 20
105.184121
 30
0.0
 10
105.314378
 20
105.401320
 30
0.0
 10
104.037682
 20
104.798922
 30
0.0
  0
SPLINE
  5
1db
100
AcDbEntity
  8
avo-uvezian-seeklogo.com
 62
7
100
AcDbSpline
 70
8
 71
3
 72
8
 73
4
 74
0
 40
0
 40
0
 40
0
 40
0
 40
1
 40
1
 40
1
 40
1
 10
104.037682
 20
104.798922
 30
0.0
 10
102.755886
 20
104.184424
 30
0.0
 10
102.055188
 20
103.423526
 30
0.0
 10
102.055188
 20
103.423526
 30
0.0
  0
LWPOLYLINE
  5
1dc
100
AcDbEntity
  8
avo-uvezian-seeklogo.com
 62
7
100
AcDbPolyline
 90
2
 70
0
 10
112.588056
 20
100.498235
 30
0.0
 10
113.028555
 20
97.873643
 30
0.0
  0
SPLINE
  5
1dd
100
AcDbEntity
  8
avo-uvezian-seeklogo.com
 62
7
100
AcDbSpline
 70
8
 71
3
 72
8
 73
4
 74
0
 40
0
 40
0
 40
0
 40
0
 40
1
 40
1
 40
1
 40
1
 10
163.731500
 20
76.105010
 30
0.0
 10
170.300980
 20
77.229507
 30
0.0
 10
187.576427
 20
85.314782
 30
0.0
 10
192.711911
 20
90.190067
 30
0.0
  0
LWPOLYLINE
  5
1de
100
AcDbEntity
  8
avo-uvezian-seeklogo.com
 62
7
100
AcDbPolyline
 90
2
 70
0
 10
102.055188
 20
103.423526
 30
0.0
 10
104.716880
 20
109.836107
 30
0.0
  0
SPLINE
  5
1df
100
AcDbEntity
  8
avo-uvezian-seeklogo.com
 62
7
100
AcDbSpline
 70
8
 71
3
 72
8
 73
4
 74
0
 40
0
 40
0
 40
0
 40
0
 40
1
 40
1
 40
1
 40
1
 10
195.373703
 20
87.679375
 30
0.0
 10
189.489521
 20
81.505593
 30
0.0
 10
170.345779
 20
73.093519
 30
0.0
 10
162.368304
 20
72.066222
 30
0.0
  0
LWPOLYLINE
  5
1e0
100
AcDbEntity
  8
avo-uvezian-seeklogo.com
 62
7
100
AcDbPolyline
 90
2
 70
0
 10
192.711911
 20
90.190067
 30
0.0
 10
195.373703
 20
87.679375
 30
0.0
  0
SPLINE
  5
1e1
100
AcDbEntity
  8
avo-uvezian-seeklogo.com
 62
7
100
AcDbSpline
 70
8
 71
3
 72
8
 73
4
 74
0
 40
0
 40
0
 40
0
 40
0
 40
1
 40
1
 40
1
 40
1
 10
163.673100
 20
79.461500
 30
0.0
 10
168.156886
 20
80.146898
 30
0.0
 10
180.518448
 20
85.895580
 30
0.0
 10
183.392840
 20
88.009074
 30
0.0
  0
LWPOLYLINE
  5
1e2
100
AcDbEntity
  8
avo-uvezian-seeklogo.com
 62
7
100
AcDbPolyline
 90
2
 70
0
 10
162.368304
 20
72.066222
 30
0.0
 10
163.731500
 20
76.105010
 30
0.0
  0
SPLINE
  5
1e3
100
AcDbEntity
  8
avo-uvezian-seeklogo.com
 62
7
100
AcDbSpline
 70
8
 71
3
 72
8
 73
4
 74
0
 40
0
 40
0
 40
0
 40
0
 40
1
 40
1
 40
1
 40
1
 10
181.171546
 20
88.009074
 30
0.0
 10
178.295555
 20
85.895580
 30
0.0
 10
167.710188
 20
80.809396
 30
0.0
 10
163.232301
 20
80.146898
 30
0.0
  0
LWPOLYLINE
  5
1e4
100
AcDbEntity
  8
avo-uvezian-seeklogo.com
 62
7
100
AcDbPolyline
 90
2
 70
0
 10
183.392840
 20
88.009074
 30
0.0
 10
181.171546
 20
88.009074
 30
0.0
  0
SPLINE
  5
1e5
100
AcDbEntity
  8
avo-uvezian-seeklogo.com
 62
7
100
AcDbSpline
 70
8
 71
3
 72
8
 73
4
 74
0
 40
0
 40
0
 40
0
 40
0
 40
1
 40
1
 40
1
 40
1
 10
178.634554
 20
109.315308
 30
0.0
 10
176.934059
 20
107.266715
 30
0.0
 10
175.607763
 20
105.843519
 30
0.0
 10
174.655866
 20
104.766622
 30
0.0
  0
LWPOLYLINE
  5
1e6
100
AcDbEntity
  8
avo-uvezian-seeklogo.com
 62
7
100
AcDbPolyline
 90
2
 70
0
 10
163.232301
 20
80.146898
 30
0.0
 10
163.673100
 20
79.461500
 30
0.0
  0
SPLINE
  5
1e7
100
AcDbEntity
  8
avo-uvezian-seeklogo.com
 62
7
100
AcDbSpline
 70
8
 71
3
 72
8
 73
4
 74
0
 40
0
 40
0
 40
0
 40
0
 40
1
 40
1
 40
1
 40
1
 10
154.746527
 20
90.070167
 30
0.0
 10
160.168611
 20
92.320560
 30
0.0
 10
164.728097
 20
94.255254
 30
0.0
 10
170.254780
 20
99.156540
 30
0.0
  0
LWPOLYLINE
  5
1e8
100
AcDbEntity
  8
avo-uvezian-seeklogo.com
 62
7
100
AcDbPolyline
 90
4
 70
0
 10
174.655866
 20
104.766622
 30
0.0
 10
176.270161
 20
105.239721
 30
0.0
 10
178.845454
 20
108.304812
 30
0.0
 10
178.634554
 20
109.315308
 30
0.0
  0
SPLINE
  5
1e9
100
AcDbEntity
  8
avo-uvezian-seeklogo.com
 62
7
100
AcDbSpline
 70
8
 71
3
 72
8
 73
4
 74
0
 40
0
 40
0
 40
0
 40
0
 40
1
 40
1
 40
1
 40
1
 10
170.592379
 20
100.579835
 30
0.0
 10
165.168595
 20
95.472151
 30
0.0
 10
161.071208
 20
93.694556
 30
0.0
 10
155.408925
 20
91.368463
 30
0.0
  0
LWPOLYLINE
  5
1ea
100
AcDbEntity
  8
avo-uvezian-seeklogo.com
 62
7
100
AcDbPolyline
 90
2
 70
0
 10
170.254780
 20
99.156540
 30
0.0
 10
170.592379
 20
100.579835
 30
0.0
  0
SPLINE
  5
1eb
100
AcDbEntity
  8
avo-uvezian-seeklogo.com
 62
7
100
AcDbSpline
 70
8
 71
3
 72
8
 73
4
 74
0
 40
0
 40
0
 40
0
 40
0
 40
1
 40
1
 40
1
 40
1
 10
160.099211
 20
84.462984
 30
0.0
 10
163.234001
 20
85.713881
 30
0.0
 10
170.022380
 20
89.615469
 30
0.0
 10
172.456173
 20
91.789062
 30
0.0
  0
LWPOLYLINE
  5
1ec
100
AcDbEntity
  8
avo-uvezian-seeklogo.com
 62
7
100
AcDbPolyline
 90
2
 70
0
 10
155.408925
 20
91.368463
 30
0.0
 10
154.746527
 20
90.070167
 30
0.0
  0
SPLINE
  5
1ed
100
AcDbEntity
  8
avo-uvezian-seeklogo.com
 62
7
100
AcDbSpline
 70
8
 71
3
 72
8
 73
4
 74
0
 40
0
 40
0
 40
0
 40
0
 40
1
 40
1
 40
1
 40
1
 10
170.456679
 20
94.886753
 30
0.0
 10
167.397488
 20
92.147961
 30
0.0
 10
157.975217
 20
87.061776
 30
0.0
 10
153.551131
 20
86.838377
 30
0.0
  0
LWPOLYLINE
  5
1ee
100
AcDbEntity
  8
avo-uvezian-seeklogo.com
 62
7
100
AcDbPolyline
 90
2
 70
0
 10
172.456173
 20
91.789062
 30
0.0
 10
170.456679
 20
94.886753
 30
0.0
  0
SPLINE
  5
1ef
100
AcDbEntity
  8
avo-uvezian-seeklogo.com
 62
7
100
AcDbSpline
 70
8
 71
3
 72
8
 73
4
 74
0
 40
0
 40
0
 40
0
 40
0
 40
1
 40
1
 40
1
 40
1
 10
92.313918
 20
91.265264
 30
0.0
 10
99.132897
 20
86.504178
 30
0.0
 10
110.349863
 20
80.989695
 30
0.0
 10
117.631241
 20
79.402800
 30
0.0
  0
LWPOLYLINE
  5
1f0
100
AcDbEntity
  8
avo-uvezian-seeklogo.com
 62
7
100
AcDbPolyline
 90
5
 70
0
 10
153.551131
 20
86.838377
 30
0.0
 10
152.186535
 20
84.148885
 30
0.0
 10
155.148426
 20
85.462681
 30
0.0
 10
157.745518
 20
85.301182
 30
0.0
 10
160.099211
 20
84.462984
 30
0.0
  0
SPLINE
  5
1f1
100
AcDbEntity
  8
avo-uvezian-seeklogo.com
 62
7
100
AcDbSpline
 70
8
 71
3
 72
8
 73
4
 74
0
 40
0
 40
0
 40
0
 40
0
 40
1
 40
1
 40
1
 40
1
 10
118.158139
 20
80.901795
 30
0.0
 10
113.783452
 20
81.793593
 30
0.0
 10
104.459481
 20
85.955680
 30
0.0
 10
100.975391
 20
88.079973
 30
0.0
  0
LWPOLYLINE
  5
1f2
100
AcDbEntity
  8
avo-uvezian-seeklogo.com
 62
7
100
AcDbPolyline
 90
2
 70
0
 10
117.631241
 20
79.402800
 30
0.0
 10
118.158139
 20
80.901795
 30
0.0
  0
SPLINE
  5
1f3
100
AcDbEntity
  8
avo-uvezian-seeklogo.com
 62
7
100
AcDbSpline
 70
8
 71
3
 72
8
 73
4
 74
0
 40
0
 40
0
 40
0
 40
0
 40
1
 40
1
 40
1
 40
1
 10
196.599899
 20
87.956674
 30
0.0
 10
194.475706
 20
87.956674
 30
0.0
 10
192.676511
 20
91.755062
 30
0.0
 10
191.764614
 20
93.281757
 30
0.0
  0
SPLINE
  5
1f4
100
AcDbEntity
  8
avo-uvezian-seeklogo.com
 62
7
100
AcDbSpline
 70
8
 71
3
 72
8
 73
4
 74
0
 40
0
 40
0
 40
0
 40
0
 40
1
 40
1
 40
1
 40
1
 10
191.764614
 20
93.281757
 30
0.0
 10
189.589621
 20
91.243664
 30
0.0
 10
186.541230
 20
88.303273
 30
0.0
 10
180.717148
 20
88.303273
 30
0.0
  0
SPLINE
  5
1f5
100
AcDbEntity
  8
avo-uvezian-seeklogo.com
 62
7
100
AcDbSpline
 70
8
 71
3
 72
8
 73
4
 74
0
 40
0
 40
0
 40
0
 40
0
 40
1
 40
1
 40
1
 40
1
 10
180.717148
 20
88.303273
 30
0.0
 10
174.956065
 20
88.303273
 30
0.0
 10
170.718578
 20
93.281757
 30
0.0
 10
170.718578
 20
97.542244
 30
0.0
  0
SPLINE
  5
1f6
100
AcDbEntity
  8
avo-uvezian-seeklogo.com
 62
7
100
AcDbSpline
 70
8
 71
3
 72
8
 73
4
 74
0
 40
0
 40
0
 40
0
 40
0
 40
1
 40
1
 40
1
 40
1
 10
170.718578
 20
97.542244
 30
0.0
 10
170.718578
 20
102.628729
 30
0.0
 10
174.467967
 20
104.714123
 30
0.0
 10
176.918459
 20
104.714123
 30
0.0
  0
SPLINE
  5
1f7
100
AcDbEntity
  8
avo-uvezian-seeklogo.com
 62
7
100
AcDbSpline
 70
8
 71
3
 72
8
 73
4
 74
0
 40
0
 40
0
 40
0
 40
0
 40
1
 40
1
 40
1
 40
1
 10
176.918459
 20
104.714123
 30
0.0
 10
180.640048
 20
104.714123
 30
0.0
 10
182.168243
 20
101.742932
 30
0.0
 10
182.168243
 20
100.014637
 30
0.0
  0
SPLINE
  5
1f8
100
AcDbEntity
  8
avo-uvezian-seeklogo.com
 62
7
100
AcDbSpline
 70
8
 71
3
 72
8
 73
4
 74
0
 40
0
 40
0
 40
0
 40
0
 40
1
 40
1
 40
1
 40
1
 10
182.168243
 20
100.014637
 30
0.0
 10
182.168243
 20
98.290842
 30
0.0
 10
180.803348
 20
96.553547
 30
0.0
 10
178.978153
 20
96.553547
 30
0.0
  0
SPLINE
  5
1f9
100
AcDbEntity
  8
avo-uvezian-seeklogo.com
 62
7
100
AcDbSpline
 70
8
 71
3
 72
8
 73
4
 74
0
 40
0
 40
0
 40
0
 40
0
 40
1
 40
1
 40
1
 40
1
 10
178.978153
 20
96.553547
 30
0.0
 10
177.505558
 20
96.553547
 30
0.0
 10
177.206759
 20
97.781244
 30
0.0
 10
177.265158
 20
98.079943
 30
0.0
  0
LWPOLYLINE
  5
1fa
100
AcDbEntity
  8
avo-uvezian-seeklogo.com
 62
7
100
AcDbPolyline
 90
4
 70
0
 10
100.975391
 20
88.079973
 30
0.0
 10
97.383102
 20
88.640672
 30
0.0
 10
92.477217
 20
92.003061
 30
0.0
 10
92.313918
 20
91.265264
 30
0.0
  0
SPLINE
  5
1fb
100
AcDbEntity
  8
avo-uvezian-seeklogo.com
 62
7
100
AcDbSpline
 70
8
 71
3
 72
8
 73
4
 74
0
 40
0
 40
0
 40
0
 40
0
 40
1
 40
1
 40
1
 40
1
 10
177.114359
 20
100.156336
 30
0.0
 10
176.564460
 20
100.156336
 30
0.0
 10
175.766463
 20
99.943737
 30
0.0
 10
175.766463
 20
98.606641
 30
0.0
  0
SPLINE
  5
1fc
100
AcDbEntity
  8
avo-uvezian-seeklogo.com
 62
7
100
AcDbSpline
 70
8
 71
3
 72
8
 73
4
 74
0
 40
0
 40
0
 40
0
 40
0
 40
1
 40
1
 40
1
 40
1
 10
175.766463
 20
98.606641
 30
0.0
 10
175.766463
 20
96.927746
 30
0.0
 10
177.363758
 20
95.781650
 30
0.0
 10
179.102853
 20
95.781650
 30
0.0
  0
SPLINE
  5
1fd
100
AcDbEntity
  8
avo-uvezian-seeklogo.com
 62
7
100
AcDbSpline
 70
8
 71
3
 72
8
 73
4
 74
0
 40
0
 40
0
 40
0
 40
0
 40
1
 40
1
 40
1
 40
1
 10
179.102853
 20
95.781650
 30
0.0
 10
180.803348
 20
95.781650
 30
0.0
 10
183.292740
 20
96.916946
 30
0.0
 10
183.292740
 20
100.156336
 30
0.0
  0
SPLINE
  5
1fe
100
AcDbEntity
  8
avo-uvezian-seeklogo.com
 62
7
100
AcDbSpline
 70
8
 71
3
 72
8
 73
4
 74
0
 40
0
 40
0
 40
0
 40
0
 40
1
 40
1
 40
1
 40
1
 10
183.292740
 20
100.156336
 30
0.0
 10
183.292740
 20
103.503526
 30
0.0
 10
180.526148
 20
105.692420
 30
0.0
 10
176.940059
 20
105.692420
 30
0.0
  0
SPLINE
  5
1ff
100
AcDbEntity
  8
avo-uvezian-seeklogo.com
 62
7
100
AcDbSpline
 70
8
 71
3
 72
8
 73
4
 74
0
 40
0
 40
0
 40
0
 40
0
 40
1
 40
1
 40
1
 40
1
 10
176.940059
 20
105.692420
 30
0.0
 10
174.994565
 20
105.692420
 30
0.0
 10
169.691281
 20
103.953325
 30
0.0
 10
169.691281
 20
97.617944
 30
0.0
  0
SPLINE
  5
200
100
AcDbEntity
  8
avo-uvezian-seeklogo.com
 62
7
100
AcDbSpline
 70
8
 71
3
 72
8
 73
4
 74
0
 40
0
 40
0
 40
0
 40
0
 40
1
 40
1
 40
1
 40
1
 10
169.691281
 20
97.617944
 30
0.0
 10
169.691281
 20
90.906365
 30
0.0
 10
176.026662
 20
87.391375
 30
0.0
 10
180.803348
 20
87.391375
 30
0.0
  0
SPLINE
  5
201
100
AcDbEntity
  8
avo-uvezian-seeklogo.com
 62
7
100
AcDbSpline
 70
8
 71
3
 72
8
 73
4
 74
0
 40
0
 40
0
 40
0
 40
0
 40
1
 40
1
 40
1
 40
1
 10
180.803348
 20
87.391375
 30
0.0
 10
185.150234
 20
87.391375
 30
0.0
 10
188.688423
 20
88.857771
 30
0.0
 10
191.622914
 20
91.319363
 30
0.0
  0
SPLINE
  5
202
100
AcDbEntity
  8
avo-uvezian-seeklogo.com
 62
7
100
AcDbSpline
 70
8
 71
3
 72
8
 73
4
 74
0
 40
0
 40
0
 40
0
 40
0
 40
1
 40
1
 40
1
 40
1
 10
191.622914
 20
91.319363
 30
0.0
 10
193.237210
 20
88.928671
 30
0.0
 10
194.525006
 20
86.880077
 30
0.0
 10
196.801799
 20
86.880077
 30
0.0
  0
SPLINE
  5
203
100
AcDbEntity
  8
avo-uvezian-seeklogo.com
 62
7
100
AcDbSpline
 70
8
 71
3
 72
8
 73
4
 74
0
 40
0
 40
0
 40
0
 40
0
 40
1
 40
1
 40
1
 40
1
 10
196.801799
 20
86.880077
 30
0.0
 10
198.637793
 20
86.880077
 30
0.0
 10
200.387588
 20
89.031870
 30
0.0
 10
201.197985
 20
91.906162
 30
0.0
  0
SPLINE
  5
204
100
AcDbEntity
  8
avo-uvezian-seeklogo.com
 62
7
100
AcDbSpline
 70
8
 71
3
 72
8
 73
4
 74
0
 40
0
 40
0
 40
0
 40
0
 40
1
 40
1
 40
1
 40
1
 10
201.197985
 20
91.906162
 30
0.0
 10
204.897774
 20
88.145973
 30
0.0
 10
209.261661
 20
87.168076
 30
0.0
 10
213.021849
 20
87.168076
 30
0.0
  0
SPLINE
  5
205
100
AcDbEntity
  8
avo-uvezian-seeklogo.com
 62
7
100
AcDbSpline
 70
8
 71
3
 72
8
 73
4
 74
0
 40
0
 40
0
 40
0
 40
0
 40
1
 40
1
 40
1
 40
1
 10
213.021849
 20
87.168076
 30
0.0
 10
216.798738
 20
87.168076
 30
0.0
 10
223.580817
 20
90.194867
 30
0.0
 10
223.580817
 20
97.052446
 30
0.0
  0
SPLINE
  5
206
100
AcDbEntity
  8
avo-uvezian-seeklogo.com
 62
7
100
AcDbSpline
 70
8
 71
3
 72
8
 73
4
 74
0
 40
0
 40
0
 40
0
 40
0
 40
1
 40
1
 40
1
 40
1
 10
223.580817
 20
97.052446
 30
0.0
 10
223.580817
 20
101.601132
 30
0.0
 10
220.906925
 20
106.665817
 30
0.0
 10
215.272242
 20
106.665817
 30
0.0
  0
SPLINE
  5
207
100
AcDbEntity
  8
avo-uvezian-seeklogo.com
 62
7
100
AcDbSpline
 70
8
 71
3
 72
8
 73
4
 74
0
 40
0
 40
0
 40
0
 40
0
 40
1
 40
1
 40
1
 40
1
 10
215.272242
 20
106.665817
 30
0.0
 10
209.337060
 20
106.665817
 30
0.0
 10
208.098664
 20
103.351027
 30
0.0
 10
208.098664
 20
100.704835
 30
0.0
  0
SPLINE
  5
208
100
AcDbEntity
  8
avo-uvezian-seeklogo.com
 62
7
100
AcDbSpline
 70
8
 71
3
 72
8
 73
4
 74
0
 40
0
 40
0
 40
0
 40
0
 40
1
 40
1
 40
1
 40
1
 10
208.098664
 20
100.704835
 30
0.0
 10
208.098664
 20
97.704144
 30
0.0
 10
210.637356
 20
95.917149
 30
0.0
 10
212.935349
 20
95.917149
 30
0.0
  0
SPLINE
  5
209
100
AcDbEntity
  8
avo-uvezian-seeklogo.com
 62
7
100
AcDbSpline
 70
8
 71
3
 72
8
 73
4
 74
0
 40
0
 40
0
 40
0
 40
0
 40
1
 40
1
 40
1
 40
1
 10
212.935349
 20
95.917149
 30
0.0
 10
215.272242
 20
95.917149
 30
0.0
 10
216.684738
 20
97.617944
 30
0.0
 10
216.598538
 20
99.226039
 30
0.0
  0
LWPOLYLINE
  5
20a
100
AcDbEntity
  8
avo-uvezian-seeklogo.com
 62
7
100
AcDbPolyline
 90
3
 70
0
 10
177.265158
 20
98.079943
 30
0.0
 10
177.804357
 20
99.118040
 30
0.0
 10
177.114359
 20
100.156336
 30
0.0
  0
SPLINE
  5
20b
100
AcDbEntity
  8
avo-uvezian-seeklogo.com
 62
7
100
AcDbSpline
 70
8
 71
3
 72
8
 73
4
 74
0
 40
0
 40
0
 40
0
 40
0
 40
1
 40
1
 40
1
 40
1
 10
215.147543
 20
98.552841
 30
0.0
 10
215.549441
 20
97.454645
 30
0.0
 10
214.462145
 20
96.678247
 30
0.0
 10
212.995449
 20
96.678247
 30
0.0
  0
SPLINE
  5
20c
100
AcDbEntity
  8
avo-uvezian-seeklogo.com
 62
7
100
AcDbSpline
 70
8
 71
3
 72
8
 73
4
 74
0
 40
0
 40
0
 40
0
 40
0
 40
1
 40
1
 40
1
 40
1
 10
212.995449
 20
96.678247
 30
0.0
 10
211.512154
 20
96.678247
 30
0.0
 10
209.147761
 20
97.944443
 30
0.0
 10
209.147761
 20
100.818834
 30
0.0
  0
SPLINE
  5
20d
100
AcDbEntity
  8
avo-uvezian-seeklogo.com
 62
7
100
AcDbSpline
 70
8
 71
3
 72
8
 73
4
 74
0
 40
0
 40
0
 40
0
 40
0
 40
1
 40
1
 40
1
 40
1
 10
209.147761
 20
100.818834
 30
0.0
 10
209.147761
 20
103.654626
 30
0.0
 10
211.207055
 20
105.713919
 30
0.0
 10
215.336842
 20
105.713919
 30
0.0
  0
SPLINE
  5
20e
100
AcDbEntity
  8
avo-uvezian-seeklogo.com
 62
7
100
AcDbSpline
 70
8
 71
3
 72
8
 73
4
 74
0
 40
0
 40
0
 40
0
 40
0
 40
1
 40
1
 40
1
 40
1
 10
215.336842
 20
105.713919
 30
0.0
 10
220.260127
 20
105.713919
 30
0.0
 10
222.493520
 20
100.627735
 30
0.0
 10
222.493520
 20
96.966246
 30
0.0
  0
SPLINE
  5
20f
100
AcDbEntity
  8
avo-uvezian-seeklogo.com
 62
7
100
AcDbSpline
 70
8
 71
3
 72
8
 73
4
 74
0
 40
0
 40
0
 40
0
 40
0
 40
1
 40
1
 40
1
 40
1
 10
222.493520
 20
96.966246
 30
0.0
 10
222.493520
 20
93.004258
 30
0.0
 10
218.761132
 20
88.145973
 30
0.0
 10
212.598050
 20
88.145973
 30
0.0
  0
SPLINE
  5
210
100
AcDbEntity
  8
avo-uvezian-seeklogo.com
 62
7
100
AcDbSpline
 70
8
 71
3
 72
8
 73
4
 74
0
 40
0
 40
0
 40
0
 40
0
 40
1
 40
1
 40
1
 40
1
 10
212.598050
 20
88.145973
 30
0.0
 10
207.109967
 20
88.145973
 30
0.0
 10
202.561181
 20
91.732062
 30
0.0
 10
200.735687
 20
94.118055
 30
0.0
  0
SPLINE
  5
211
100
AcDbEntity
  8
avo-uvezian-seeklogo.com
 62
7
100
AcDbSpline
 70
8
 71
3
 72
8
 73
4
 74
0
 40
0
 40
0
 40
0
 40
0
 40
1
 40
1
 40
1
 40
1
 10
200.735687
 20
94.118055
 30
0.0
 10
199.888689
 20
91.553563
 30
0.0
 10
198.925792
 20
87.956674
 30
0.0
 10
196.599899
 20
87.956674
 30
0.0
  0
SPLINE
  5
212
100
AcDbEntity
  8
avo-uvezian-seeklogo.com
 62
7
100
AcDbSpline
 70
8
 71
3
 72
8
 73
4
 74
0
 40
0
 40
0
 40
0
 40
0
 40
1
 40
1
 40
1
 40
1
 10
87.705132
 20
87.704075
 30
0.0
 10
89.813726
 20
87.704075
 30
0.0
 10
91.656020
 20
91.502463
 30
0.0
 10
92.541817
 20
93.013658
 30
0.0
  0
SPLINE
  5
213
100
AcDbEntity
  8
avo-uvezian-seeklogo.com
 62
7
100
AcDbSpline
 70
8
 71
3
 72
8
 73
4
 74
0
 40
0
 40
0
 40
0
 40
0
 40
1
 40
1
 40
1
 40
1
 10
92.541817
 20
93.013658
 30
0.0
 10
94.063713
 20
91.154364
 30
0.0
 10
96.774804
 20
88.243273
 30
0.0
 10
102.540487
 20
88.243273
 30
0.0
  0
SPLINE
  5
214
100
AcDbEntity
  8
avo-uvezian-seeklogo.com
 62
7
100
AcDbSpline
 70
8
 71
3
 72
8
 73
4
 74
0
 40
0
 40
0
 40
0
 40
0
 40
1
 40
1
 40
1
 40
1
 10
102.540487
 20
88.243273
 30
0.0
 10
108.322769
 20
88.243273
 30
0.0
 10
112.577356
 20
93.192258
 30
0.0
 10
112.577356
 20
97.463745
 30
0.0
  0
SPLINE
  5
215
100
AcDbEntity
  8
avo-uvezian-seeklogo.com
 62
7
100
AcDbSpline
 70
8
 71
3
 72
8
 73
4
 74
0
 40
0
 40
0
 40
0
 40
0
 40
1
 40
1
 40
1
 40
1
 10
112.577356
 20
97.463745
 30
0.0
 10
112.577356
 20
102.577729
 30
0.0
 10
108.828267
 20
104.626623
 30
0.0
 10
106.349675
 20
104.626623
 30
0.0
  0
SPLINE
  5
216
100
AcDbEntity
  8
avo-uvezian-seeklogo.com
 62
7
100
AcDbSpline
 70
8
 71
3
 72
8
 73
4
 74
0
 40
0
 40
0
 40
0
 40
0
 40
1
 40
1
 40
1
 40
1
 10
106.349675
 20
104.626623
 30
0.0
 10
102.626586
 20
104.626623
 30
0.0
 10
101.116891
 20
101.653632
 30
0.0
 10
101.116891
 20
99.942337
 30
0.0
  0
SPLINE
  5
217
100
AcDbEntity
  8
avo-uvezian-seeklogo.com
 62
7
100
AcDbSpline
 70
8
 71
3
 72
8
 73
4
 74
0
 40
0
 40
0
 40
0
 40
0
 40
1
 40
1
 40
1
 40
1
 10
101.116891
 20
99.942337
 30
0.0
 10
101.116891
 20
98.214042
 30
0.0
 10
102.475487
 20
96.453148
 30
0.0
 10
104.311781
 20
96.453148
 30
0.0
  0
SPLINE
  5
218
100
AcDbEntity
  8
avo-uvezian-seeklogo.com
 62
7
100
AcDbSpline
 70
8
 71
3
 72
8
 73
4
 74
0
 40
0
 40
0
 40
0
 40
0
 40
1
 40
1
 40
1
 40
1
 10
104.311781
 20
96.453148
 30
0.0
 10
105.752077
 20
96.453148
 30
0.0
 10
106.061676
 20
97.691644
 30
0.0
 10
106.040076
 20
97.990643
 30
0.0
  0
LWPOLYLINE
  5
219
100
AcDbEntity
  8
avo-uvezian-seeklogo.com
 62
7
100
AcDbPolyline
 90
3
 70
0
 10
216.598538
 20
99.226039
 30
0.0
 10
215.244442
 20
100.481535
 30
0.0
 10
215.147543
 20
98.552841
 30
0.0
  0
SPLINE
  5
21a
100
AcDbEntity
  8
avo-uvezian-seeklogo.com
 62
7
100
AcDbSpline
 70
8
 71
3
 72
8
 73
4
 74
0
 40
0
 40
0
 40
0
 40
0
 40
1
 40
1
 40
1
 40
1
 10
106.164776
 20
100.077837
 30
0.0
 10
106.702274
 20
100.077837
 30
0.0
 10
107.523471
 20
99.865237
 30
0.0
 10
107.523471
 20
98.512841
 30
0.0
  0
SPLINE
  5
21b
100
AcDbEntity
  8
avo-uvezian-seeklogo.com
 62
7
100
AcDbSpline
 70
8
 71
3
 72
8
 73
4
 74
0
 40
0
 40
0
 40
0
 40
0
 40
1
 40
1
 40
1
 40
1
 10
107.523471
 20
98.512841
 30
0.0
 10
107.523471
 20
96.866147
 30
0.0
 10
105.887576
 20
95.703150
 30
0.0
 10
104.176282
 20
95.703150
 30
0.0
  0
SPLINE
  5
21c
100
AcDbEntity
  8
avo-uvezian-seeklogo.com
 62
7
100
AcDbSpline
 70
8
 71
3
 72
8
 73
4
 74
0
 40
0
 40
0
 40
0
 40
0
 40
1
 40
1
 40
1
 40
1
 10
104.176282
 20
95.703150
 30
0.0
 10
102.475487
 20
95.703150
 30
0.0
 10
100.154294
 20
96.839847
 30
0.0
 10
100.154294
 20
100.099337
 30
0.0
  0
SPLINE
  5
21d
100
AcDbEntity
  8
avo-uvezian-seeklogo.com
 62
7
100
AcDbSpline
 70
8
 71
3
 72
8
 73
4
 74
0
 40
0
 40
0
 40
0
 40
0
 40
1
 40
1
 40
1
 40
1
 10
100.154294
 20
100.099337
 30
0.0
 10
100.154294
 20
103.403427
 30
0.0
 10
102.774586
 20
105.598620
 30
0.0
 10
106.328075
 20
105.598620
 30
0.0
  0
SPLINE
  5
21e
100
AcDbEntity
  8
avo-uvezian-seeklogo.com
 62
7
100
AcDbSpline
 70
8
 71
3
 72
8
 73
4
 74
0
 40
0
 40
0
 40
0
 40
0
 40
1
 40
1
 40
1
 40
1
 10
106.328075
 20
105.598620
 30
0.0
 10
108.587868
 20
105.598620
 30
0.0
 10
113.587853
 20
103.837725
 30
0.0
 10
113.587853
 20
97.530044
 30
0.0
  0
SPLINE
  5
21f
100
AcDbEntity
  8
avo-uvezian-seeklogo.com
 62
7
100
AcDbSpline
 70
8
 71
3
 72
8
 73
4
 74
0
 40
0
 40
0
 40
0
 40
0
 40
1
 40
1
 40
1
 40
1
 10
113.587853
 20
97.530044
 30
0.0
 10
113.587853
 20
90.829565
 30
0.0
 10
107.289272
 20
87.318876
 30
0.0
 10
102.475487
 20
87.318876
 30
0.0
  0
SPLINE
  5
220
100
AcDbEntity
  8
avo-uvezian-seeklogo.com
 62
7
100
AcDbSpline
 70
8
 71
3
 72
8
 73
4
 74
0
 40
0
 40
0
 40
0
 40
0
 40
1
 40
1
 40
1
 40
1
 10
102.475487
 20
87.318876
 30
0.0
 10
98.127200
 20
87.318876
 30
0.0
 10
95.704108
 20
88.589572
 30
0.0
 10
92.726617
 20
91.040464
 30
0.0
  0
SPLINE
  5
221
100
AcDbEntity
  8
avo-uvezian-seeklogo.com
 62
7
100
AcDbSpline
 70
8
 71
3
 72
8
 73
4
 74
0
 40
0
 40
0
 40
0
 40
0
 40
1
 40
1
 40
1
 40
1
 10
92.726617
 20
91.040464
 30
0.0
 10
91.155421
 20
88.692771
 30
0.0
 10
89.803026
 20
86.628878
 30
0.0
 10
87.515433
 20
86.628878
 30
0.0
  0
SPLINE
  5
222
100
AcDbEntity
  8
avo-uvezian-seeklogo.com
 62
7
100
AcDbSpline
 70
8
 71
3
 72
8
 73
4
 74
0
 40
0
 40
0
 40
0
 40
0
 40
1
 40
1
 40
1
 40
1
 10
87.515433
 20
86.628878
 30
0.0
 10
85.439039
 20
86.628878
 30
0.0
 10
84.080443
 20
88.840771
 30
0.0
 10
83.156346
 20
91.665762
 30
0.0
  0
SPLINE
  5
223
100
AcDbEntity
  8
avo-uvezian-seeklogo.com
 62
7
100
AcDbSpline
 70
8
 71
3
 72
8
 73
4
 74
0
 40
0
 40
0
 40
0
 40
0
 40
1
 40
1
 40
1
 40
1
 10
83.156346
 20
91.665762
 30
0.0
 10
79.456257
 20
87.878174
 30
0.0
 10
76.343267
 20
86.889077
 30
0.0
 10
72.581778
 20
86.889077
 30
0.0
  0
SPLINE
  5
224
100
AcDbEntity
  8
avo-uvezian-seeklogo.com
 62
7
100
AcDbSpline
 70
8
 71
3
 72
8
 73
4
 74
0
 40
0
 40
0
 40
0
 40
0
 40
1
 40
1
 40
1
 40
1
 10
72.581778
 20
86.889077
 30
0.0
 10
68.782990
 20
86.889077
 30
0.0
 10
62.045710
 20
89.915968
 30
0.0
 10
62.045710
 20
96.752247
 30
0.0
  0
SPLINE
  5
225
100
AcDbEntity
  8
avo-uvezian-seeklogo.com
 62
7
100
AcDbSpline
 70
8
 71
3
 72
8
 73
4
 74
0
 40
0
 40
0
 40
0
 40
0
 40
1
 40
1
 40
1
 40
1
 10
62.045710
 20
96.752247
 30
0.0
 10
62.045710
 20
101.339233
 30
0.0
 10
64.698002
 20
106.528917
 30
0.0
 10
70.332685
 20
106.528917
 30
0.0
  0
SPLINE
  5
226
100
AcDbEntity
  8
avo-uvezian-seeklogo.com
 62
7
100
AcDbSpline
 70
8
 71
3
 72
8
 73
4
 74
0
 40
0
 40
0
 40
0
 40
0
 40
1
 40
1
 40
1
 40
1
 10
70.332685
 20
106.528917
 30
0.0
 10
76.272467
 20
106.528917
 30
0.0
 10
77.504663
 20
103.050828
 30
0.0
 10
77.504663
 20
100.441236
 30
0.0
  0
SPLINE
  5
227
100
AcDbEntity
  8
avo-uvezian-seeklogo.com
 62
7
100
AcDbSpline
 70
8
 71
3
 72
8
 73
4
 74
0
 40
0
 40
0
 40
0
 40
0
 40
1
 40
1
 40
1
 40
1
 10
77.504663
 20
100.441236
 30
0.0
 10
77.504663
 20
97.426845
 30
0.0
 10
74.995471
 20
95.589150
 30
0.0
 10
72.680378
 20
95.589150
 30
0.0
  0
SPLINE
  5
228
100
AcDbEntity
  8
avo-uvezian-seeklogo.com
 62
7
100
AcDbSpline
 70
8
 71
3
 72
8
 73
4
 74
0
 40
0
 40
0
 40
0
 40
0
 40
1
 40
1
 40
1
 40
1
 10
72.680378
 20
95.589150
 30
0.0
 10
70.272685
 20
95.589150
 30
0.0
 10
68.881690
 20
97.349745
 30
0.0
 10
68.995589
 20
98.942540
 30
0.0
  0
LWPOLYLINE
  5
229
100
AcDbEntity
  8
avo-uvezian-seeklogo.com
 62
7
100
AcDbPolyline
 90
3
 70
0
 10
106.040076
 20
97.990643
 30
0.0
 10
105.491578
 20
99.039540
 30
0.0
 10
106.164776
 20
100.077837
 30
0.0
  0
SPLINE
  5
22a
100
AcDbEntity
  8
avo-uvezian-seeklogo.com
 62
7
100
AcDbSpline
 70
8
 71
3
 72
8
 73
4
 74
0
 40
0
 40
0
 40
0
 40
0
 40
1
 40
1
 40
1
 40
1
 10
70.457485
 20
98.263142
 30
0.0
 10
70.055486
 20
97.154146
 30
0.0
 10
71.119883
 20
96.414948
 30
0.0
 10
72.631078
 20
96.414948
 30
0.0
  0
SPLINE
  5
22b
100
AcDbEntity
  8
avo-uvezian-seeklogo.com
 62
7
100
AcDbSpline
 70
8
 71
3
 72
8
 73
4
 74
0
 40
0
 40
0
 40
0
 40
0
 40
1
 40
1
 40
1
 40
1
 10
72.631078
 20
96.414948
 30
0.0
 10
74.131473
 20
96.414948
 30
0.0
 10
76.457266
 20
97.665544
 30
0.0
 10
76.457266
 20
100.539835
 30
0.0
  0
SPLINE
  5
22c
100
AcDbEntity
  8
avo-uvezian-seeklogo.com
 62
7
100
AcDbSpline
 70
8
 71
3
 72
8
 73
4
 74
0
 40
0
 40
0
 40
0
 40
0
 40
1
 40
1
 40
1
 40
1
 10
76.457266
 20
100.539835
 30
0.0
 10
76.457266
 20
103.364927
 30
0.0
 10
74.408673
 20
105.538520
 30
0.0
 10
70.272685
 20
105.538520
 30
0.0
  0
SPLINE
  5
22d
100
AcDbEntity
  8
avo-uvezian-seeklogo.com
 62
7
100
AcDbSpline
 70
8
 71
3
 72
8
 73
4
 74
0
 40
0
 40
0
 40
0
 40
0
 40
1
 40
1
 40
1
 40
1
 10
70.272685
 20
105.538520
 30
0.0
 10
65.382000
 20
105.538520
 30
0.0
 10
63.159107
 20
100.338036
 30
0.0
 10
63.159107
 20
96.692147
 30
0.0
  0
SPLINE
  5
22e
100
AcDbEntity
  8
avo-uvezian-seeklogo.com
 62
7
100
AcDbSpline
 70
8
 71
3
 72
8
 73
4
 74
0
 40
0
 40
0
 40
0
 40
0
 40
1
 40
1
 40
1
 40
1
 10
63.159107
 20
96.692147
 30
0.0
 10
63.159107
 20
92.731859
 30
0.0
 10
66.871596
 20
87.840974
 30
0.0
 10
72.994477
 20
87.840974
 30
0.0
  0
SPLINE
  5
22f
100
AcDbEntity
  8
avo-uvezian-seeklogo.com
 62
7
100
AcDbSpline
 70
8
 71
3
 72
8
 73
4
 74
0
 40
0
 40
0
 40
0
 40
0
 40
1
 40
1
 40
1
 40
1
 10
72.994477
 20
87.840974
 30
0.0
 10
78.516660
 20
87.840974
 30
0.0
 10
81.629851
 20
91.568863
 30
0.0
 10
83.639944
 20
93.877956
 30
0.0
  0
SPLINE
  5
230
100
AcDbEntity
  8
avo-uvezian-seeklogo.com
 62
7
100
AcDbSpline
 70
8
 71
3
 72
8
 73
4
 74
0
 40
0
 40
0
 40
0
 40
0
 40
1
 40
1
 40
1
 40
1
 10
83.639944
 20
93.877956
 30
0.0
 10
84.493442
 20
91.317663
 30
0.0
 10
85.368239
 20
87.704075
 30
0.0
 10
87.705132
 20
87.704075
 30
0.0
  0
SPLINE
  5
231
100
AcDbEntity
  8
avo-uvezian-seeklogo.com
 62
7
100
AcDbSpline
 70
8
 71
3
 72
8
 73
4
 74
0
 40
0
 40
0
 40
0
 40
0
 40
1
 40
1
 40
1
 40
1
 10
140.462771
 20
67.548436
 30
0.0
 10
142.961263
 20
67.548436
 30
0.0
 10
144.423059
 20
70.461027
 30
0.0
 10
145.374956
 20
72.144722
 30
0.0
  0
SPLINE
  5
232
100
AcDbEntity
  8
avo-uvezian-seeklogo.com
 62
7
100
AcDbSpline
 70
8
 71
3
 72
8
 73
4
 74
0
 40
0
 40
0
 40
0
 40
0
 40
1
 40
1
 40
1
 40
1
 10
145.374956
 20
72.144722
 30
0.0
 10
147.346650
 20
70.210128
 30
0.0
 10
148.971845
 20
67.884035
 30
0.0
 10
154.535628
 20
67.884035
 30
0.0
  0
SPLINE
  5
233
100
AcDbEntity
  8
avo-uvezian-seeklogo.com
 62
7
100
AcDbSpline
 70
8
 71
3
 72
8
 73
4
 74
0
 40
0
 40
0
 40
0
 40
0
 40
1
 40
1
 40
1
 40
1
 10
154.535628
 20
67.884035
 30
0.0
 10
159.933011
 20
67.884035
 30
0.0
 10
162.992202
 20
72.372621
 30
0.0
 10
162.992202
 20
77.095407
 30
0.0
  0
SPLINE
  5
234
100
AcDbEntity
  8
avo-uvezian-seeklogo.com
 62
7
100
AcDbSpline
 70
8
 71
3
 72
8
 73
4
 74
0
 40
0
 40
0
 40
0
 40
0
 40
1
 40
1
 40
1
 40
1
 10
162.992202
 20
77.095407
 30
0.0
 10
162.992202
 20
82.181891
 30
0.0
 10
158.709915
 20
84.969783
 30
0.0
 10
156.345522
 20
84.969783
 30
0.0
  0
SPLINE
  5
235
100
AcDbEntity
  8
avo-uvezian-seeklogo.com
 62
7
100
AcDbSpline
 70
8
 71
3
 72
8
 73
4
 74
0
 40
0
 40
0
 40
0
 40
0
 40
1
 40
1
 40
1
 40
1
 10
156.345522
 20
84.969783
 30
0.0
 10
152.308135
 20
84.969783
 30
0.0
 10
150.700040
 20
81.818192
 30
0.0
 10
150.700040
 20
80.008298
 30
0.0
  0
SPLINE
  5
236
100
AcDbEntity
  8
avo-uvezian-seeklogo.com
 62
7
100
AcDbSpline
 70
8
 71
3
 72
8
 73
4
 74
0
 40
0
 40
0
 40
0
 40
0
 40
1
 40
1
 40
1
 40
1
 10
150.700040
 20
80.008298
 30
0.0
 10
150.700040
 20
78.159904
 30
0.0
 10
151.721136
 20
76.519409
 30
0.0
 10
153.161432
 20
76.519409
 30
0.0
  0
LWPOLYLINE
  5
237
100
AcDbEntity
  8
avo-uvezian-seeklogo.com
 62
7
100
AcDbPolyline
 90
3
 70
0
 10
68.995589
 20
98.942540
 30
0.0
 10
70.408085
 20
100.077837
 30
0.0
 10
70.457485
 20
98.263142
 30
0.0
  0
SPLINE
  5
238
100
AcDbEntity
  8
avo-uvezian-seeklogo.com
 62
7
100
AcDbSpline
 70
8
 71
3
 72
8
 73
4
 74
0
 40
0
 40
0
 40
0
 40
0
 40
1
 40
1
 40
1
 40
1
 10
154.296629
 20
77.535906
 30
0.0
 10
154.296629
 20
78.106004
 30
0.0
 10
156.123623
 20
78.873001
 30
0.0
 10
156.123623
 20
77.518906
 30
0.0
  0
SPLINE
  5
239
100
AcDbEntity
  8
avo-uvezian-seeklogo.com
 62
7
100
AcDbSpline
 70
8
 71
3
 72
8
 73
4
 74
0
 40
0
 40
0
 40
0
 40
0
 40
1
 40
1
 40
1
 40
1
 10
156.123623
 20
77.518906
 30
0.0
 10
156.123623
 20
76.171310
 30
0.0
 10
154.982126
 20
75.536712
 30
0.0
 10
153.731430
 20
75.536712
 30
0.0
  0
SPLINE
  5
23a
100
AcDbEntity
  8
avo-uvezian-seeklogo.com
 62
7
100
AcDbSpline
 70
8
 71
3
 72
8
 73
4
 74
0
 40
0
 40
0
 40
0
 40
0
 40
1
 40
1
 40
1
 40
1
 10
153.731430
 20
75.536712
 30
0.0
 10
151.585637
 20
75.536712
 30
0.0
 10
149.808042
 20
76.607308
 30
0.0
 10
149.808042
 20
80.008298
 30
0.0
  0
SPLINE
  5
23b
100
AcDbEntity
  8
avo-uvezian-seeklogo.com
 62
7
100
AcDbSpline
 70
8
 71
3
 72
8
 73
4
 74
0
 40
0
 40
0
 40
0
 40
0
 40
1
 40
1
 40
1
 40
1
 10
149.808042
 20
80.008298
 30
0.0
 10
149.808042
 20
83.344688
 30
0.0
 10
152.944233
 20
86.018880
 30
0.0
 10
156.334722
 20
86.018880
 30
0.0
  0
SPLINE
  5
23c
100
AcDbEntity
  8
avo-uvezian-seeklogo.com
 62
7
100
AcDbSpline
 70
8
 71
3
 72
8
 73
4
 74
0
 40
0
 40
0
 40
0
 40
0
 40
1
 40
1
 40
1
 40
1
 10
156.334722
 20
86.018880
 30
0.0
 10
158.193717
 20
86.018880
 30
0.0
 10
164.133398
 20
83.497187
 30
0.0
 10
164.133398
 20
77.194107
 30
0.0
  0
SPLINE
  5
23d
100
AcDbEntity
  8
avo-uvezian-seeklogo.com
 62
7
100
AcDbSpline
 70
8
 71
3
 72
8
 73
4
 74
0
 40
0
 40
0
 40
0
 40
0
 40
1
 40
1
 40
1
 40
1
 10
164.133398
 20
77.194107
 30
0.0
 10
164.133398
 20
70.796926
 30
0.0
 10
159.356813
 20
66.912038
 30
0.0
 10
155.096326
 20
66.912038
 30
0.0
  0
SPLINE
  5
23e
100
AcDbEntity
  8
avo-uvezian-seeklogo.com
 62
7
100
AcDbSpline
 70
8
 71
3
 72
8
 73
4
 74
0
 40
0
 40
0
 40
0
 40
0
 40
1
 40
1
 40
1
 40
1
 10
155.096326
 20
66.912038
 30
0.0
 10
150.981839
 20
66.912038
 30
0.0
 10
148.395547
 20
67.645336
 30
0.0
 10
145.585855
 20
70.059028
 30
0.0
  0
SPLINE
  5
23f
100
AcDbEntity
  8
avo-uvezian-seeklogo.com
 62
7
100
AcDbSpline
 70
8
 71
3
 72
8
 73
4
 74
0
 40
0
 40
0
 40
0
 40
0
 40
1
 40
1
 40
1
 40
1
 10
145.585855
 20
70.059028
 30
0.0
 10
144.048560
 20
67.700936
 30
0.0
 10
142.636064
 20
66.460739
 30
0.0
 10
140.462771
 20
66.460739
 30
0.0
  0
SPLINE
  5
240
100
AcDbEntity
  8
avo-uvezian-seeklogo.com
 62
7
100
AcDbSpline
 70
8
 71
3
 72
8
 73
4
 74
0
 40
0
 40
0
 40
0
 40
0
 40
1
 40
1
 40
1
 40
1
 10
140.462771
 20
66.460739
 30
0.0
 10
138.749776
 20
66.460739
 30
0.0
 10
136.483783
 20
67.548436
 30
0.0
 10
135.413486
 20
70.347028
 30
0.0
  0
SPLINE
  5
241
100
AcDbEntity
  8
avo-uvezian-seeklogo.com
 62
7
100
AcDbSpline
 70
8
 71
3
 72
8
 73
4
 74
0
 40
0
 40
0
 40
0
 40
0
 40
1
 40
1
 40
1
 40
1
 10
135.413486
 20
70.347028
 30
0.0
 10
133.136693
 20
67.933335
 30
0.0
 10
129.800303
 20
66.847338
 30
0.0
 10
126.403814
 20
66.847338
 30
0.0
  0
SPLINE
  5
242
100
AcDbEntity
  8
avo-uvezian-seeklogo.com
 62
7
100
AcDbSpline
 70
8
 71
3
 72
8
 73
4
 74
0
 40
0
 40
0
 40
0
 40
0
 40
1
 40
1
 40
1
 40
1
 10
126.403814
 20
66.847338
 30
0.0
 10
122.828525
 20
66.847338
 30
0.0
 10
116.742543
 20
69.536930
 30
0.0
 10
116.742543
 20
76.394709
 30
0.0
  0
SPLINE
  5
243
100
AcDbEntity
  8
avo-uvezian-seeklogo.com
 62
7
100
AcDbSpline
 70
8
 71
3
 72
8
 73
4
 74
0
 40
0
 40
0
 40
0
 40
0
 40
1
 40
1
 40
1
 40
1
 10
116.742543
 20
76.394709
 30
0.0
 10
116.742543
 20
80.980295
 30
0.0
 10
118.991536
 20
85.670781
 30
0.0
 10
124.387320
 20
85.670781
 30
0.0
  0
SPLINE
  5
244
100
AcDbEntity
  8
avo-uvezian-seeklogo.com
 62
7
100
AcDbSpline
 70
8
 71
3
 72
8
 73
4
 74
0
 40
0
 40
0
 40
0
 40
0
 40
1
 40
1
 40
1
 40
1
 10
124.387320
 20
85.670781
 30
0.0
 10
129.991303
 20
85.670781
 30
0.0
 10
131.164899
 20
82.084692
 30
0.0
 10
131.164899
 20
79.459800
 30
0.0
  0
SPLINE
  5
245
100
AcDbEntity
  8
avo-uvezian-seeklogo.com
 62
7
100
AcDbSpline
 70
8
 71
3
 72
8
 73
4
 74
0
 40
0
 40
0
 40
0
 40
0
 40
1
 40
1
 40
1
 40
1
 10
131.164899
 20
79.459800
 30
0.0
 10
131.164899
 20
77.123207
 30
0.0
 10
129.185705
 20
75.547412
 30
0.0
 10
127.626710
 20
75.547412
 30
0.0
  0
SPLINE
  5
246
100
AcDbEntity
  8
avo-uvezian-seeklogo.com
 62
7
100
AcDbSpline
 70
8
 71
3
 72
8
 73
4
 74
0
 40
0
 40
0
 40
0
 40
0
 40
1
 40
1
 40
1
 40
1
 10
127.626710
 20
75.547412
 30
0.0
 10
125.827516
 20
75.547412
 30
0.0
 10
124.513720
 20
76.285309
 30
0.0
 10
124.627619
 20
77.411206
 30
0.0
  0
SPLINE
  5
247
100
AcDbEntity
  8
avo-uvezian-seeklogo.com
 62
7
100
AcDbSpline
 70
8
 71
3
 72
8
 73
4
 74
0
 40
0
 40
0
 40
0
 40
0
 40
1
 40
1
 40
1
 40
1
 10
124.627619
 20
77.411206
 30
0.0
 10
124.653719
 20
78.568002
 30
0.0
 10
126.588613
 20
78.621902
 30
0.0
 10
126.588613
 20
77.596005
 30
0.0
  0
LWPOLYLINE
  5
248
100
AcDbEntity
  8
avo-uvezian-seeklogo.com
 62
7
100
AcDbPolyline
 90
2
 70
0
 10
153.161432
 20
76.519409
 30
0.0
 10
154.296629
 20
77.535906
 30
0.0
  0
SPLINE
  5
249
100
AcDbEntity
  8
avo-uvezian-seeklogo.com
 62
7
100
AcDbSpline
 70
8
 71
3
 72
8
 73
4
 74
0
 40
0
 40
0
 40
0
 40
0
 40
1
 40
1
 40
1
 40
1
 10
127.676010
 20
76.568809
 30
0.0
 10
128.561807
 20
76.568809
 30
0.0
 10
130.148402
 20
77.095407
 30
0.0
 10
130.148402
 20
79.556999
 30
0.0
  0
SPLINE
  5
24a
100
AcDbEntity
  8
avo-uvezian-seeklogo.com
 62
7
100
AcDbSpline
 70
8
 71
3
 72
8
 73
4
 74
0
 40
0
 40
0
 40
0
 40
0
 40
1
 40
1
 40
1
 40
1
 10
130.148402
 20
79.556999
 30
0.0
 10
130.148402
 20
82.409791
 30
0.0
 10
128.224508
 20
84.692584
 30
0.0
 10
124.339620
 20
84.692584
 30
0.0
  0
SPLINE
  5
24b
100
AcDbEntity
  8
avo-uvezian-seeklogo.com
 62
7
100
AcDbSpline
 70
8
 71
3
 72
8
 73
4
 74
0
 40
0
 40
0
 40
0
 40
0
 40
1
 40
1
 40
1
 40
1
 10
124.339620
 20
84.692584
 30
0.0
 10
119.563035
 20
84.692584
 30
0.0
 10
117.828540
 20
79.855798
 30
0.0
 10
117.828540
 20
76.285309
 30
0.0
  0
SPLINE
  5
24c
100
AcDbEntity
  8
avo-uvezian-seeklogo.com
 62
7
100
AcDbSpline
 70
8
 71
3
 72
8
 73
4
 74
0
 40
0
 40
0
 40
0
 40
0
 40
1
 40
1
 40
1
 40
1
 10
117.828540
 20
76.285309
 30
0.0
 10
117.828540
 20
72.325022
 30
0.0
 10
120.964730
 20
67.808635
 30
0.0
 10
126.812013
 20
67.808635
 30
0.0
  0
SPLINE
  5
24d
100
AcDbEntity
  8
avo-uvezian-seeklogo.com
 62
7
100
AcDbSpline
 70
8
 71
3
 72
8
 73
4
 74
0
 40
0
 40
0
 40
0
 40
0
 40
1
 40
1
 40
1
 40
1
 10
126.812013
 20
67.808635
 30
0.0
 10
131.489998
 20
67.808635
 30
0.0
 10
134.501589
 20
70.536627
 30
0.0
 10
135.675085
 20
72.172522
 30
0.0
  0
SPLINE
  5
24e
100
AcDbEntity
  8
avo-uvezian-seeklogo.com
 62
7
100
AcDbSpline
 70
8
 71
3
 72
8
 73
4
 74
0
 40
0
 40
0
 40
0
 40
0
 40
1
 40
1
 40
1
 40
1
 10
135.675085
 20
72.172522
 30
0.0
 10
136.483783
 20
69.597030
 30
0.0
 10
138.261378
 20
67.548436
 30
0.0
 10
140.462771
 20
67.548436
 30
0.0
  0
LWPOLYLINE
  5
24f
100
AcDbEntity
  8
avo-uvezian-seeklogo.com
 62
7
100
AcDbPolyline
 90
2
 70
0
 10
126.588613
 20
77.596005
 30
0.0
 10
127.676010
 20
76.568809
 30
0.0
  0
SPLINE
  5
250
100
AcDbEntity
  8
avo-uvezian-seeklogo.com
 62
7
100
AcDbSpline
 70
8
 71
3
 72
8
 73
4
 74
0
 40
0
 40
0
 40
0
 40
0
 40
1
 40
1
 40
1
 40
1
 10
143.660561
 20
77.959704
 30
0.0
 10
141.721067
 20
73.477018
 30
0.0
 10
138.797476
 20
73.737517
 30
0.0
 10
137.026081
 20
78.638902
 30
0.0
  0
LWPOLYLINE
  5
251
100
AcDbEntity
  8
avo-uvezian-seeklogo.com
 62
7
100
AcDbPolyline
 90
6
 70
0
 10
117.192442
 20
141.538410
 30
0.0
 10
127.462011
 20
141.663110
 30
0.0
 10
141.574767
 20
104.906922
 30
0.0
 10
179.726751
 20
203.399521
 30
0.0
 10
192.313112
 20
203.399521
 30
0.0
 10
143.660561
 20
77.959704
 30
0.0
  0
LWPOLYLINE
  5
252
100
AcDbEntity
  8
avo-uvezian-seeklogo.com
 62
7
100
AcDbPolyline
 90
3
 70
0
 10
137.026081
 20
78.638902
 30
0.0
 10
114.789449
 20
135.316929
 30
0.0
 10
117.192442
 20
141.538410
 30
0.0
  0
LWPOLYLINE
  5
253
100
AcDbEntity
  8
avo-uvezian-seeklogo.com
 62
7
100
AcDbPolyline
 90
4
 70
1
 10
109.833964
 20
187.073171
 30
0.0
 10
103.421484
 20
203.407421
 30
0.0
 10
88.287330
 20
203.407421
 30
0.0
 10
102.307687
 20
167.640030
 30
0.0
  0
LWPOLYLINE
  5
254
100
AcDbEntity
  8
avo-uvezian-seeklogo.com
 62
7
100
AcDbPolyline
 90
4
 70
1
 10
74.904471
 20
224.080758
 30
0.0
 10
99.587296
 20
160.452452
 30
0.0
 10
99.086697
 20
158.904457
 30
0.0
 10
74.405573
 20
222.466363
 30
0.0
  0
LWPOLYLINE
  5
255
100
AcDbEntity
  8
avo-uvezian-seeklogo.com
 62
7
100
AcDbPolyline
 90
4
 70
1
 10
111.392760
 20
127.195954
 30
0.0
 10
128.048809
 20
84.304485
 30
0.0
 10
129.537004
 20
83.267888
 30
0.0
 10
111.979758
 20
128.571650
 30
0.0
  0
LWPOLYLINE
  5
256
100
AcDbEntity
  8
avo-uvezian-seeklogo.com
 62
7
100
AcDbPolyline
 90
4
 70
1
 10
101.341990
 20
222.472363
 30
0.0
 10
112.591256
 20
193.513451
 30
0.0
 10
113.128954
 20
194.975247
 30
0.0
 10
103.080985
 20
220.782668
 30
0.0
  0
LWPOLYLINE
  5
257
100
AcDbEntity
  8
avo-uvezian-seeklogo.com
 62
7
100
AcDbPolyline
 90
4
 70
1
 10
127.751410
 20
157.254762
 30
0.0
 10
125.397817
 20
163.303844
 30
0.0
 10
124.914218
 20
161.728048
 30
0.0
 10
126.685613
 20
157.168562
 30
0.0
  0
LWPOLYLINE
  5
258
100
AcDbEntity
  8
avo-uvezian-seeklogo.com
 62
7
100
AcDbPolyline
 90
4
 70
1
 10
132.039897
 20
242.417102
 30
0.0
 10
77.085664
 20
100.854234
 30
0.0
 10
76.737566
 20
102.831928
 30
0.0
 10
130.328702
 20
240.830607
 30
0.0
  0
LWPOLYLINE
  5
259
100
AcDbEntity
  8
avo-uvezian-seeklogo.com
 62
7
100
AcDbPolyline
 90
4
 70
1
 10
181.835444
 20
103.084528
 30
0.0
 10
170.738678
 20
131.781540
 30
0.0
 10
170.097780
 20
130.494044
 30
0.0
 10
180.324349
 20
104.247624
 30
0.0
  0
LWPOLYLINE
  5
25a
100
AcDbEntity
  8
avo-uvezian-seeklogo.com
 62
7
100
AcDbPolyline
 90
4
 70
1
 10
153.803730
 20
241.984303
 30
0.0
 10
171.253177
 20
197.054740
 30
0.0
 10
171.850675
 20
198.419636
 30
0.0
 10
155.217926
 20
241.283605
 30
0.0
  0
LWPOLYLINE
  5
25b
100
AcDbEntity
  8
avo-uvezian-seeklogo.com
 62
7
100
AcDbPolyline
 90
4
 70
1
 10
208.616263
 20
100.774035
 30
0.0
 10
183.647039
 20
165.210738
 30
0.0
 10
184.195237
 20
166.633933
 30
0.0
 10
208.915062
 20
102.958428
 30
0.0
  0
LWPOLYLINE
  5
25c
100
AcDbEntity
  8
avo-uvezian-seeklogo.com
 62
7
100
AcDbPolyline
 90
13
 70
1
 10
103.145685
 20
104.048925
 30
0.0
 10
117.540541
 20
141.179511
 30
0.0
 10
138.564977
 20
141.179511
 30
0.0
 10
141.576267
 20
139.267817
 30
0.0
 10
144.564758
 20
141.179511
 30
0.0
 10
149.835842
 20
141.179511
 30
0.0
 10
150.210241
 20
142.217508
 30
0.0
 10
144.472359
 20
142.217508
 30
0.0
 10
141.576267
 20
140.316914
 30
0.0
 10
138.805376
 20
142.217508
 30
0.0
 10
116.856543
 20
142.217508
 30
0.0
 10
116.817943
 20
142.114408
 30
0.0
 10
101.505190
 20
102.636429
 30
0.0
  0
SPLINE
  5
25d
100
AcDbEntity
  8
avo-uvezian-seeklogo.com
 62
7
100
AcDbSpline
 70
8
 71
3
 72
8
 73
4
 74
0
 40
0
 40
0
 40
0
 40
0
 40
1
 40
1
 40
1
 40
1
 10
128.098109
 20
86.360779
 30
0.0
 10
123.822022
 20
87.083276
 30
0.0
 10
116.023145
 20
90.331766
 30
0.0
 10
112.176757
 20
93.598956
 30
0.0
  0
LWPOLYLINE
  5
25e
100
AcDbEntity
  8
avo-uvezian-seeklogo.com
 62
7
100
AcDbPolyline
 90
18
 70
1
 10
155.521225
 20
156.707964
 30
0.0
 10
144.572458
 20
156.707964
 30
0.0
 10
141.676567
 20
158.594958
 30
0.0
 10
138.823776
 20
156.707964
 30
0.0
 10
122.505026
 20
156.707964
 30
0.0
 10
122.505026
 20
156.720164
 30
0.0
 10
141.599467
 20
206.022913
 30
0.0
 10
141.620967
 20
206.012213
 30
0.0
 10
158.244716
 20
163.219044
 30
0.0
 10
157.744118
 20
161.697148
 30
0.0
 10
141.463968
 20
203.512021
 30
0.0
 10
141.773567
 20
203.512021
 30
0.0
 10
123.988421
 20
157.698361
 30
0.0
 10
123.988421
 20
157.719861
 30
0.0
 10
138.611176
 20
157.719861
 30
0.0
 10
141.676567
 20
159.620755
 30
0.0
 10
144.621758
 20
157.719861
 30
0.0
 10
156.119023
 20
157.719861
 30
0.0
  0
SPLINE
  5
25f
100
AcDbEntity
  8
avo-uvezian-seeklogo.com
 62
7
100
AcDbSpline
 70
8
 71
3
 72
8
 73
4
 74
0
 40
0
 40
0
 40
0
 40
0
 40
1
 40
1
 40
1
 40
1
 10
111.747059
 20
92.896559
 30
0.0
 10
115.588847
 20
89.648069
 30
0.0
 10
123.658722
 20
86.387079
 30
0.0
 10
127.956409
 20
85.658281
 30
0.0
  0
LWPOLYLINE
  5
260
100
AcDbEntity
  8
avo-uvezian-seeklogo.com
 62
7
100
AcDbPolyline
 90
2
 70
0
 10
112.176757
 20
93.598956
 30
0.0
 10
111.747059
 20
92.896559
 30
0.0
  0
SPLINE
  5
261
100
AcDbEntity
  8
avo-uvezian-seeklogo.com
 62
7
100
AcDbSpline
 70
8
 71
3
 72
8
 73
4
 74
0
 40
0
 40
0
 40
0
 40
0
 40
1
 40
1
 40
1
 40
1
 10
75.101771
 20
193.427251
 30
0.0
 10
71.986980
 20
186.728172
 30
0.0
 10
71.324882
 20
164.220241
 30
0.0
 10
67.998992
 20
161.573849
 30
0.0
  0
SPLINE
  5
262
100
AcDbEntity
  8
avo-uvezian-seeklogo.com
 62
7
100
AcDbSpline
 70
8
 71
3
 72
8
 73
4
 74
0
 40
0
 40
0
 40
0
 40
0
 40
1
 40
1
 40
1
 40
1
 10
67.998992
 20
161.573849
 30
0.0
 10
71.900880
 20
159.422055
 30
0.0
 10
71.215482
 20
138.038721
 30
0.0
 10
74.873771
 20
130.278344
 30
0.0
  0
SPLINE
  5
263
100
AcDbEntity
  8
avo-uvezian-seeklogo.com
 62
7
100
AcDbSpline
 70
8
 71
3
 72
8
 73
4
 74
0
 40
0
 40
0
 40
0
 40
0
 40
1
 40
1
 40
1
 40
1
 10
74.873771
 20
130.278344
 30
0.0
 10
73.274776
 20
135.902227
 30
0.0
 10
69.613287
 20
158.296159
 30
0.0
 10
73.938674
 20
161.698548
 30
0.0
  0
SPLINE
  5
264
100
AcDbEntity
  8
avo-uvezian-seeklogo.com
 62
7
100
AcDbSpline
 70
8
 71
3
 72
8
 73
4
 74
0
 40
0
 40
0
 40
0
 40
0
 40
1
 40
1
 40
1
 40
1
 10
73.938674
 20
161.698548
 30
0.0
 10
70.264985
 20
165.007438
 30
0.0
 10
72.574078
 20
184.064980
 30
0.0
 10
75.101771
 20
193.427251
 30
0.0
  0
LWPOLYLINE
  5
265
100
AcDbEntity
  8
avo-uvezian-seeklogo.com
 62
7
100
AcDbPolyline
 90
2
 70
0
 10
127.956409
 20
85.658281
 30
0.0
 10
128.098109
 20
86.360779
 30
0.0
  0
LWPOLYLINE
  5
266
100
AcDbEntity
  8
avo-uvezian-seeklogo.com
 62
7
100
AcDbPolyline
 90
2
 70
0
 10
72.483079
 20
178.830596
 30
0.0
 10
72.483079
 20
181.618688
 30
0.0
  0
SPLINE
  5
267
100
AcDbEntity
  8
avo-uvezian-seeklogo.com
 62
7
100
AcDbSpline
 70
8
 71
3
 72
8
 73
4
 74
0
 40
0
 40
0
 40
0
 40
0
 40
1
 40
1
 40
1
 40
1
 10
205.748171
 20
193.427251
 30
0.0
 10
208.833362
 20
186.728172
 30
0.0
 10
209.546560
 20
164.220241
 30
0.0
 10
212.859950
 20
161.573849
 30
0.0
  0
SPLINE
  5
268
100
AcDbEntity
  8
avo-uvezian-seeklogo.com
 62
7
100
AcDbSpline
 70
8
 71
3
 72
8
 73
4
 74
0
 40
0
 40
0
 40
0
 40
0
 40
1
 40
1
 40
1
 40
1
 10
212.859950
 20
161.573849
 30
0.0
 10
208.959761
 20
159.422055
 30
0.0
 10
209.660759
 20
138.038721
 30
0.0
 10
206.008371
 20
130.278344
 30
0.0
  0
SPLINE
  5
269
100
AcDbEntity
  8
avo-uvezian-seeklogo.com
 62
7
100
AcDbSpline
 70
8
 71
3
 72
8
 73
4
 74
0
 40
0
 40
0
 40
0
 40
0
 40
1
 40
1
 40
1
 40
1
 10
206.008371
 20
130.278344
 30
0.0
 10
207.594966
 20
135.902227
 30
0.0
 10
211.236555
 20
158.296159
 30
0.0
 10
206.937268
 20
161.698548
 30
0.0
  0
SPLINE
  5
26a
100
AcDbEntity
  8
avo-uvezian-seeklogo.com
 62
7
100
AcDbSpline
 70
8
 71
3
 72
8
 73
4
 74
0
 40
0
 40
0
 40
0
 40
0
 40
1
 40
1
 40
1
 40
1
 10
206.937268
 20
161.698548
 30
0.0
 10
210.546357
 20
165.007438
 30
0.0
 10
208.295964
 20
184.064980
 30
0.0
 10
205.748171
 20
193.427251
 30
0.0
  0
LWPOLYLINE
  5
26b
100
AcDbEntity
  8
avo-uvezian-seeklogo.com
 62
7
100
AcDbPolyline
 90
2
 70
0
 10
72.370579
 20
142.502707
 30
0.0
 10
72.370579
 20
145.301599
 30
0.0
  0
LWPOLYLINE
  5
26c
100
AcDbEntity
  8
avo-uvezian-seeklogo.com
 62
7
100
AcDbPolyline
 90
2
 70
0
 10
208.395963
 20
178.830596
 30
0.0
 10
208.395963
 20
181.618688
 30
0.0
  0
LWPOLYLINE
  5
26d
100
AcDbEntity
  8
avo-uvezian-seeklogo.com
 62
7
100
AcDbPolyline
 90
2
 70
0
 10
208.494663
 20
142.502707
 30
0.0
 10
208.494663
 20
145.301599
 30
0.0
  0
SPLINE
  5
26e
100
AcDbEntity
  8
avo-uvezian-seeklogo.com
 62
7
100
AcDbSpline
 70
8
 71
3
 72
8
 73
4
 74
0
 40
0
 40
0
 40
0
 40
0
 40
1
 40
1
 40
1
 40
1
 10
139.538374
 20
247.381687
 30
0.0
 10
141.451468
 20
251.831873
 30
0.0
 10
144.005560
 20
251.571574
 30
0.0
 10
146.179153
 20
246.670189
 30
0.0
  0
LWPOLYLINE
  5
26f
100
AcDbEntity
  8
avo-uvezian-seeklogo.com
 62
7
100
AcDbPolyline
 90
4
 70
0
 10
113.259654
 20
147.225493
 30
0.0
 10
103.435384
 20
121.903370
 30
0.0
 10
90.876722
 20
121.903370
 30
0.0
 10
139.538374
 20
247.381687
 30
0.0
  0
LWPOLYLINE
  5
270
100
AcDbEntity
  8
avo-uvezian-seeklogo.com
 62
7
100
AcDbPolyline
 90
14
 70
0
 10
146.179153
 20
246.670189
 30
0.0
 10
168.387885
 20
189.895262
 30
0.0
 10
160.938808
 20
170.532721
 30
0.0
 10
141.603967
 20
220.402269
 30
0.0
 10
114.981949
 20
151.600179
 30
0.0
 10
139.718673
 20
151.600179
 30
0.0
 10
141.778067
 20
152.399577
 30
0.0
 10
143.603561
 20
151.485980
 30
0.0
 10
153.563631
 20
151.485980
 30
0.0
 10
151.841336
 20
147.323892
 30
0.0
 10
143.504962
 20
147.323892
 30
0.0
 10
141.641167
 20
146.410495
 30
0.0
 10
139.527674
 20
147.237693
 30
0.0
 10
113.259654
 20
147.225493
 30
0.0
  0
LWPOLYLINE
  5
271
100
AcDbEntity
  8
avo-uvezian-seeklogo.com
 62
7
100
AcDbPolyline
 90
4
 70
1
 10
173.364970
 20
138.007821
 30
0.0
 10
179.760451
 20
121.684571
 30
0.0
 10
194.894604
 20
121.684571
 30
0.0
 10
180.874247
 20
157.439561
 30
0.0
  0
LWPOLYLINE
  5
272
100
AcDbEntity
  8
avo-uvezian-seeklogo.com
 62
7
100
AcDbPolyline
 90
5
 70
1
 10
153.103032
 20
84.692584
 30
0.0
 10
151.237538
 20
82.914989
 30
0.0
 10
206.377969
 20
225.342154
 30
0.0
 10
206.606169
 20
222.940661
 30
0.0
 10
152.950533
 20
84.540084
 30
0.0
  0
LWPOLYLINE
  5
273
100
AcDbEntity
  8
avo-uvezian-seeklogo.com
 62
7
100
AcDbPolyline
 90
8
 70
1
 10
180.043950
 20
220.699568
 30
0.0
 10
141.603967
 20
121.690771
 30
0.0
 10
141.576267
 20
121.669271
 30
0.0
 10
133.751191
 20
141.840309
 30
0.0
 10
132.637495
 20
141.900309
 30
0.0
 10
141.548767
 20
118.853379
 30
0.0
 10
141.576267
 20
118.816479
 30
0.0
 10
181.495045
 20
221.650065
 30
0.0
  0
LWPOLYLINE
  5
274
100
AcDbEntity
  8
avo-uvezian-seeklogo.com
 62
7
100
AcDbPolyline
 90
4
 70
1
 10
181.256346
 20
118.053982
 30
0.0
 10
180.631048
 20
119.754477
 30
0.0
 10
195.580002
 20
119.754477
 30
0.0
 10
196.199400
 20
118.053982
 30
0.0
  0
LWPOLYLINE
  5
275
100
AcDbEntity
  8
avo-uvezian-seeklogo.com
 62
7
100
AcDbPolyline
 90
4
 70
1
 10
181.059047
 20
207.011710
 30
0.0
 10
180.445949
 20
205.311215
 30
0.0
 10
192.981510
 20
205.311215
 30
0.0
 10
193.606808
 20
207.011710
 30
0.0
  0
LWPOLYLINE
  5
276
100
AcDbEntity
  8
avo-uvezian-seeklogo.com
 62
7
100
AcDbPolyline
 90
4
 70
1
 10
101.813389
 20
207.011710
 30
0.0
 10
102.460187
 20
205.311215
 30
0.0
 10
87.515433
 20
205.311215
 30
0.0
 10
86.902634
 20
207.011710
 30
0.0
  0
LWPOLYLINE
  5
277
100
AcDbEntity
  8
avo-uvezian-seeklogo.com
 62
7
100
AcDbPolyline
 90
4
 70
1
 10
115.225148
 20
80.598196
 30
0.0
 10
112.937855
 20
81.761293
 30
0.0
 10
118.670937
 20
81.761293
 30
0.0
 10
118.007039
 20
80.598196
 30
0.0
  0
ENDSEC
  0
SECTION
  2
OBJECTS
  0
DICTIONARY
  5
C
330
0
100
AcDbDictionary
  3
ACAD_GROUP
350
D
  3
ACAD_MLINESTYLE
350
17
  0
DICTIONARY
  5
D
330
C
100
AcDbDictionary
  0
DICTIONARY
  5
1A
330
C
100
AcDbDictionary
  0
DICTIONARY
  5
17
330
C
100
AcDbDictionary
  3
STANDARD
350
18
  0
DICTIONARY
  5
19
330
C
100
AcDbDictionary
  0
ENDSEC
  0
EOF
