ISO-10303-21;
HEADER;
/* Generated by software containing ST-Developer
 * from STEP Tools, Inc. (www.steptools.com) 
 */
/* OPTION: strings as raw bytes, not using required /X/ escapes */

FILE_DESCRIPTION(
/* description */ ('Unknown'),
/* implementation_level */ '2;1');

FILE_NAME(
/* name */ 'GyroBase01',
/* time_stamp */ '2023-06-13T16:21:59+01:00',
/* author */ ('Unknown'),
/* organization */ ('Unknown'),
/* preprocessor_version */ 'ST-DEVELOPER v18.102',
/* originating_system */ 'Solid Edge',
/* authorisation */ 'Unknown');

FILE_SCHEMA (('AUTOMOTIVE_DESIGN {1 0 10303 214 3 1 1}'));
ENDSEC;

DATA;
#10=PROPERTY_DEFINITION_REPRESENTATION(#14,#12);
#11=PROPERTY_DEFINITION_REPRESENTATION(#15,#13);
#12=REPRESENTATION('',(#16),#823);
#13=REPRESENTATION('',(#17),#823);
#14=PROPERTY_DEFINITION('pmi validation property','',#828);
#15=PROPERTY_DEFINITION('pmi validation property','',#828);
#16=VALUE_REPRESENTATION_ITEM('number of annotations',COUNT_MEASURE(0.));
#17=VALUE_REPRESENTATION_ITEM('number of views',COUNT_MEASURE(0.));
#18=SHAPE_REPRESENTATION_RELATIONSHIP('','',#511,#19);
#19=ADVANCED_BREP_SHAPE_REPRESENTATION('',(#509),#823);
#20=CYLINDRICAL_SURFACE('',#546,1.);
#21=CYLINDRICAL_SURFACE('',#547,1.);
#22=CYLINDRICAL_SURFACE('',#548,5.);
#23=CYLINDRICAL_SURFACE('',#549,5.);
#24=CYLINDRICAL_SURFACE('',#550,5.);
#25=CYLINDRICAL_SURFACE('',#551,5.);
#26=LINE('',#689,#78);
#27=LINE('',#694,#79);
#28=LINE('',#696,#80);
#29=LINE('',#698,#81);
#30=LINE('',#700,#82);
#31=LINE('',#702,#83);
#32=LINE('',#704,#84);
#33=LINE('',#706,#85);
#34=LINE('',#710,#86);
#35=LINE('',#715,#87);
#36=LINE('',#717,#88);
#37=LINE('',#719,#89);
#38=LINE('',#721,#90);
#39=LINE('',#723,#91);
#40=LINE('',#725,#92);
#41=LINE('',#727,#93);
#42=LINE('',#733,#94);
#43=LINE('',#735,#95);
#44=LINE('',#737,#96);
#45=LINE('',#738,#97);
#46=LINE('',#740,#98);
#47=LINE('',#742,#99);
#48=LINE('',#744,#100);
#49=LINE('',#747,#101);
#50=LINE('',#748,#102);
#51=LINE('',#752,#103);
#52=LINE('',#754,#104);
#53=LINE('',#756,#105);
#54=LINE('',#757,#106);
#55=LINE('',#759,#107);
#56=LINE('',#761,#108);
#57=LINE('',#763,#109);
#58=LINE('',#766,#110);
#59=LINE('',#767,#111);
#60=LINE('',#771,#112);
#61=LINE('',#773,#113);
#62=LINE('',#774,#114);
#63=LINE('',#776,#115);
#64=LINE('',#778,#116);
#65=LINE('',#780,#117);
#66=LINE('',#782,#118);
#67=LINE('',#786,#119);
#68=LINE('',#787,#120);
#69=LINE('',#789,#121);
#70=LINE('',#791,#122);
#71=LINE('',#793,#123);
#72=LINE('',#796,#124);
#73=LINE('',#797,#125);
#74=LINE('',#804,#126);
#75=LINE('',#805,#127);
#76=LINE('',#811,#128);
#77=LINE('',#812,#129);
#78=VECTOR('',#560,1000.);
#79=VECTOR('',#563,1000.);
#80=VECTOR('',#564,1000.);
#81=VECTOR('',#565,1000.);
#82=VECTOR('',#566,1000.);
#83=VECTOR('',#567,1000.);
#84=VECTOR('',#568,1000.);
#85=VECTOR('',#569,1000.);
#86=VECTOR('',#574,1000.);
#87=VECTOR('',#577,1000.);
#88=VECTOR('',#578,1000.);
#89=VECTOR('',#579,1000.);
#90=VECTOR('',#580,1000.);
#91=VECTOR('',#581,1000.);
#92=VECTOR('',#582,1000.);
#93=VECTOR('',#583,1000.);
#94=VECTOR('',#590,1000.);
#95=VECTOR('',#591,1000.);
#96=VECTOR('',#592,1000.);
#97=VECTOR('',#593,1000.);
#98=VECTOR('',#594,1000.);
#99=VECTOR('',#595,1000.);
#100=VECTOR('',#598,1000.);
#101=VECTOR('',#599,1000.);
#102=VECTOR('',#600,1000.);
#103=VECTOR('',#605,1000.);
#104=VECTOR('',#606,1000.);
#105=VECTOR('',#607,1000.);
#106=VECTOR('',#608,1000.);
#107=VECTOR('',#609,1000.);
#108=VECTOR('',#610,1000.);
#109=VECTOR('',#613,1000.);
#110=VECTOR('',#614,1000.);
#111=VECTOR('',#615,1000.);
#112=VECTOR('',#620,1000.);
#113=VECTOR('',#621,1000.);
#114=VECTOR('',#622,1000.);
#115=VECTOR('',#623,1000.);
#116=VECTOR('',#624,1000.);
#117=VECTOR('',#627,1000.);
#118=VECTOR('',#628,1000.);
#119=VECTOR('',#633,1000.);
#120=VECTOR('',#634,1000.);
#121=VECTOR('',#635,1000.);
#122=VECTOR('',#636,1000.);
#123=VECTOR('',#639,1000.);
#124=VECTOR('',#640,1000.);
#125=VECTOR('',#641,1000.);
#126=VECTOR('',#654,1000.);
#127=VECTOR('',#655,1000.);
#128=VECTOR('',#664,1000.);
#129=VECTOR('',#665,1000.);
#130=PLANE('',#515);
#131=PLANE('',#518);
#132=PLANE('',#521);
#133=PLANE('',#523);
#134=PLANE('',#524);
#135=PLANE('',#526);
#136=PLANE('',#527);
#137=PLANE('',#529);
#138=PLANE('',#530);
#139=PLANE('',#532);
#140=PLANE('',#533);
#141=PLANE('',#538);
#142=PLANE('',#539);
#143=PLANE('',#540);
#144=PLANE('',#541);
#145=PLANE('',#543);
#146=PLANE('',#544);
#147=ORIENTED_EDGE('',*,*,#279,.T.);
#148=ORIENTED_EDGE('',*,*,#280,.T.);
#149=ORIENTED_EDGE('',*,*,#281,.T.);
#150=ORIENTED_EDGE('',*,*,#282,.T.);
#151=ORIENTED_EDGE('',*,*,#283,.T.);
#152=ORIENTED_EDGE('',*,*,#284,.F.);
#153=ORIENTED_EDGE('',*,*,#285,.F.);
#154=ORIENTED_EDGE('',*,*,#286,.F.);
#155=ORIENTED_EDGE('',*,*,#287,.F.);
#156=ORIENTED_EDGE('',*,*,#288,.T.);
#157=ORIENTED_EDGE('',*,*,#289,.T.);
#158=ORIENTED_EDGE('',*,*,#290,.T.);
#159=ORIENTED_EDGE('',*,*,#291,.T.);
#160=ORIENTED_EDGE('',*,*,#292,.T.);
#161=ORIENTED_EDGE('',*,*,#293,.F.);
#162=ORIENTED_EDGE('',*,*,#294,.F.);
#163=ORIENTED_EDGE('',*,*,#295,.F.);
#164=ORIENTED_EDGE('',*,*,#296,.F.);
#165=ORIENTED_EDGE('',*,*,#297,.T.);
#166=ORIENTED_EDGE('',*,*,#298,.T.);
#167=ORIENTED_EDGE('',*,*,#299,.T.);
#168=ORIENTED_EDGE('',*,*,#300,.T.);
#169=ORIENTED_EDGE('',*,*,#292,.F.);
#170=ORIENTED_EDGE('',*,*,#301,.T.);
#171=ORIENTED_EDGE('',*,*,#302,.T.);
#172=ORIENTED_EDGE('',*,*,#303,.T.);
#173=ORIENTED_EDGE('',*,*,#288,.F.);
#174=ORIENTED_EDGE('',*,*,#304,.F.);
#175=ORIENTED_EDGE('',*,*,#305,.F.);
#176=ORIENTED_EDGE('',*,*,#306,.T.);
#177=ORIENTED_EDGE('',*,*,#307,.T.);
#178=ORIENTED_EDGE('',*,*,#308,.T.);
#179=ORIENTED_EDGE('',*,*,#280,.F.);
#180=ORIENTED_EDGE('',*,*,#309,.T.);
#181=ORIENTED_EDGE('',*,*,#310,.F.);
#182=ORIENTED_EDGE('',*,*,#282,.F.);
#183=ORIENTED_EDGE('',*,*,#311,.T.);
#184=ORIENTED_EDGE('',*,*,#312,.T.);
#185=ORIENTED_EDGE('',*,*,#313,.T.);
#186=ORIENTED_EDGE('',*,*,#298,.F.);
#187=ORIENTED_EDGE('',*,*,#314,.F.);
#188=ORIENTED_EDGE('',*,*,#315,.T.);
#189=ORIENTED_EDGE('',*,*,#316,.T.);
#190=ORIENTED_EDGE('',*,*,#317,.F.);
#191=ORIENTED_EDGE('',*,*,#318,.F.);
#192=ORIENTED_EDGE('',*,*,#295,.T.);
#193=ORIENTED_EDGE('',*,*,#319,.T.);
#194=ORIENTED_EDGE('',*,*,#320,.T.);
#195=ORIENTED_EDGE('',*,*,#321,.F.);
#196=ORIENTED_EDGE('',*,*,#322,.F.);
#197=ORIENTED_EDGE('',*,*,#284,.T.);
#198=ORIENTED_EDGE('',*,*,#323,.F.);
#199=ORIENTED_EDGE('',*,*,#324,.T.);
#200=ORIENTED_EDGE('',*,*,#325,.T.);
#201=ORIENTED_EDGE('',*,*,#296,.T.);
#202=ORIENTED_EDGE('',*,*,#318,.T.);
#203=ORIENTED_EDGE('',*,*,#326,.F.);
#204=ORIENTED_EDGE('',*,*,#327,.F.);
#205=ORIENTED_EDGE('',*,*,#285,.T.);
#206=ORIENTED_EDGE('',*,*,#322,.T.);
#207=ORIENTED_EDGE('',*,*,#328,.T.);
#208=ORIENTED_EDGE('',*,*,#329,.F.);
#209=ORIENTED_EDGE('',*,*,#319,.F.);
#210=ORIENTED_EDGE('',*,*,#294,.T.);
#211=ORIENTED_EDGE('',*,*,#330,.F.);
#212=ORIENTED_EDGE('',*,*,#331,.F.);
#213=ORIENTED_EDGE('',*,*,#332,.T.);
#214=ORIENTED_EDGE('',*,*,#286,.T.);
#215=ORIENTED_EDGE('',*,*,#327,.T.);
#216=ORIENTED_EDGE('',*,*,#333,.T.);
#217=ORIENTED_EDGE('',*,*,#334,.T.);
#218=ORIENTED_EDGE('',*,*,#290,.F.);
#219=ORIENTED_EDGE('',*,*,#335,.T.);
#220=ORIENTED_EDGE('',*,*,#317,.T.);
#221=ORIENTED_EDGE('',*,*,#329,.T.);
#222=ORIENTED_EDGE('',*,*,#326,.T.);
#223=ORIENTED_EDGE('',*,*,#321,.T.);
#224=ORIENTED_EDGE('',*,*,#302,.F.);
#225=ORIENTED_EDGE('',*,*,#336,.T.);
#226=ORIENTED_EDGE('',*,*,#333,.F.);
#227=ORIENTED_EDGE('',*,*,#337,.T.);
#228=ORIENTED_EDGE('',*,*,#312,.F.);
#229=ORIENTED_EDGE('',*,*,#338,.T.);
#230=ORIENTED_EDGE('',*,*,#307,.F.);
#231=ORIENTED_EDGE('',*,*,#339,.T.);
#232=ORIENTED_EDGE('',*,*,#279,.F.);
#233=ORIENTED_EDGE('',*,*,#340,.T.);
#234=ORIENTED_EDGE('',*,*,#305,.T.);
#235=ORIENTED_EDGE('',*,*,#341,.T.);
#236=ORIENTED_EDGE('',*,*,#331,.T.);
#237=ORIENTED_EDGE('',*,*,#287,.T.);
#238=ORIENTED_EDGE('',*,*,#332,.F.);
#239=ORIENTED_EDGE('',*,*,#341,.F.);
#240=ORIENTED_EDGE('',*,*,#304,.T.);
#241=ORIENTED_EDGE('',*,*,#293,.T.);
#242=ORIENTED_EDGE('',*,*,#306,.F.);
#243=ORIENTED_EDGE('',*,*,#340,.F.);
#244=ORIENTED_EDGE('',*,*,#330,.T.);
#245=ORIENTED_EDGE('',*,*,#342,.T.);
#246=ORIENTED_EDGE('',*,*,#343,.F.);
#247=ORIENTED_EDGE('',*,*,#315,.F.);
#248=ORIENTED_EDGE('',*,*,#344,.F.);
#249=ORIENTED_EDGE('',*,*,#324,.F.);
#250=ORIENTED_EDGE('',*,*,#283,.F.);
#251=ORIENTED_EDGE('',*,*,#316,.F.);
#252=ORIENTED_EDGE('',*,*,#343,.T.);
#253=ORIENTED_EDGE('',*,*,#323,.T.);
#254=ORIENTED_EDGE('',*,*,#297,.F.);
#255=ORIENTED_EDGE('',*,*,#325,.F.);
#256=ORIENTED_EDGE('',*,*,#344,.T.);
#257=ORIENTED_EDGE('',*,*,#314,.T.);
#258=ORIENTED_EDGE('',*,*,#342,.F.);
#259=ORIENTED_EDGE('',*,*,#328,.F.);
#260=ORIENTED_EDGE('',*,*,#300,.F.);
#261=ORIENTED_EDGE('',*,*,#320,.F.);
#262=ORIENTED_EDGE('',*,*,#310,.T.);
#263=ORIENTED_EDGE('',*,*,#299,.F.);
#264=ORIENTED_EDGE('',*,*,#313,.F.);
#265=ORIENTED_EDGE('',*,*,#337,.F.);
#266=ORIENTED_EDGE('',*,*,#335,.F.);
#267=ORIENTED_EDGE('',*,*,#289,.F.);
#268=ORIENTED_EDGE('',*,*,#303,.F.);
#269=ORIENTED_EDGE('',*,*,#339,.F.);
#270=ORIENTED_EDGE('',*,*,#309,.F.);
#271=ORIENTED_EDGE('',*,*,#281,.F.);
#272=ORIENTED_EDGE('',*,*,#308,.F.);
#273=ORIENTED_EDGE('',*,*,#338,.F.);
#274=ORIENTED_EDGE('',*,*,#311,.F.);
#275=ORIENTED_EDGE('',*,*,#291,.F.);
#276=ORIENTED_EDGE('',*,*,#334,.F.);
#277=ORIENTED_EDGE('',*,*,#336,.F.);
#278=ORIENTED_EDGE('',*,*,#301,.F.);
#279=EDGE_CURVE('',#345,#345,#391,.T.);
#280=EDGE_CURVE('',#346,#347,#26,.T.);
#281=EDGE_CURVE('',#347,#348,#392,.T.);
#282=EDGE_CURVE('',#348,#349,#27,.T.);
#283=EDGE_CURVE('',#349,#350,#28,.T.);
#284=EDGE_CURVE('',#351,#350,#29,.T.);
#285=EDGE_CURVE('',#352,#351,#30,.T.);
#286=EDGE_CURVE('',#353,#352,#31,.T.);
#287=EDGE_CURVE('',#354,#353,#32,.T.);
#288=EDGE_CURVE('',#354,#355,#33,.T.);
#289=EDGE_CURVE('',#355,#346,#393,.T.);
#290=EDGE_CURVE('',#356,#357,#34,.T.);
#291=EDGE_CURVE('',#357,#358,#394,.T.);
#292=EDGE_CURVE('',#358,#359,#35,.T.);
#293=EDGE_CURVE('',#360,#359,#36,.T.);
#294=EDGE_CURVE('',#361,#360,#37,.T.);
#295=EDGE_CURVE('',#362,#361,#38,.T.);
#296=EDGE_CURVE('',#363,#362,#39,.T.);
#297=EDGE_CURVE('',#363,#364,#40,.T.);
#298=EDGE_CURVE('',#364,#365,#41,.T.);
#299=EDGE_CURVE('',#365,#356,#395,.T.);
#300=EDGE_CURVE('',#366,#366,#396,.T.);
#301=EDGE_CURVE('',#358,#367,#42,.T.);
#302=EDGE_CURVE('',#367,#368,#43,.T.);
#303=EDGE_CURVE('',#368,#355,#44,.F.);
#304=EDGE_CURVE('',#369,#354,#45,.T.);
#305=EDGE_CURVE('',#370,#369,#46,.T.);
#306=EDGE_CURVE('',#370,#359,#47,.T.);
#307=EDGE_CURVE('',#371,#372,#48,.T.);
#308=EDGE_CURVE('',#372,#347,#49,.F.);
#309=EDGE_CURVE('',#346,#371,#50,.T.);
#310=EDGE_CURVE('',#373,#373,#397,.F.);
#311=EDGE_CURVE('',#348,#374,#51,.T.);
#312=EDGE_CURVE('',#374,#375,#52,.T.);
#313=EDGE_CURVE('',#375,#365,#53,.F.);
#314=EDGE_CURVE('',#376,#364,#54,.T.);
#315=EDGE_CURVE('',#376,#377,#55,.T.);
#316=EDGE_CURVE('',#377,#349,#56,.T.);
#317=EDGE_CURVE('',#378,#379,#57,.T.);
#318=EDGE_CURVE('',#362,#378,#58,.T.);
#319=EDGE_CURVE('',#361,#379,#59,.T.);
#320=EDGE_CURVE('',#380,#380,#398,.F.);
#321=EDGE_CURVE('',#381,#378,#60,.T.);
#322=EDGE_CURVE('',#351,#381,#61,.T.);
#323=EDGE_CURVE('',#382,#350,#62,.T.);
#324=EDGE_CURVE('',#382,#383,#63,.T.);
#325=EDGE_CURVE('',#383,#363,#64,.T.);
#326=EDGE_CURVE('',#384,#381,#65,.T.);
#327=EDGE_CURVE('',#352,#384,#66,.T.);
#328=EDGE_CURVE('',#385,#385,#399,.F.);
#329=EDGE_CURVE('',#379,#384,#67,.T.);
#330=EDGE_CURVE('',#386,#360,#68,.T.);
#331=EDGE_CURVE('',#387,#386,#69,.T.);
#332=EDGE_CURVE('',#387,#353,#70,.T.);
#333=EDGE_CURVE('',#388,#389,#71,.T.);
#334=EDGE_CURVE('',#389,#357,#72,.F.);
#335=EDGE_CURVE('',#356,#388,#73,.T.);
#336=EDGE_CURVE('',#367,#389,#400,.F.);
#337=EDGE_CURVE('',#388,#375,#401,.F.);
#338=EDGE_CURVE('',#374,#372,#402,.F.);
#339=EDGE_CURVE('',#371,#368,#403,.F.);
#340=EDGE_CURVE('',#386,#370,#74,.T.);
#341=EDGE_CURVE('',#369,#387,#75,.T.);
#342=EDGE_CURVE('',#390,#390,#404,.T.);
#343=EDGE_CURVE('',#377,#382,#76,.T.);
#344=EDGE_CURVE('',#383,#376,#77,.T.);
#345=VERTEX_POINT('',#687);
#346=VERTEX_POINT('',#690);
#347=VERTEX_POINT('',#691);
#348=VERTEX_POINT('',#693);
#349=VERTEX_POINT('',#695);
#350=VERTEX_POINT('',#697);
#351=VERTEX_POINT('',#699);
#352=VERTEX_POINT('',#701);
#353=VERTEX_POINT('',#703);
#354=VERTEX_POINT('',#705);
#355=VERTEX_POINT('',#707);
#356=VERTEX_POINT('',#711);
#357=VERTEX_POINT('',#712);
#358=VERTEX_POINT('',#714);
#359=VERTEX_POINT('',#716);
#360=VERTEX_POINT('',#718);
#361=VERTEX_POINT('',#720);
#362=VERTEX_POINT('',#722);
#363=VERTEX_POINT('',#724);
#364=VERTEX_POINT('',#726);
#365=VERTEX_POINT('',#728);
#366=VERTEX_POINT('',#732);
#367=VERTEX_POINT('',#734);
#368=VERTEX_POINT('',#736);
#369=VERTEX_POINT('',#739);
#370=VERTEX_POINT('',#741);
#371=VERTEX_POINT('',#745);
#372=VERTEX_POINT('',#746);
#373=VERTEX_POINT('',#751);
#374=VERTEX_POINT('',#753);
#375=VERTEX_POINT('',#755);
#376=VERTEX_POINT('',#758);
#377=VERTEX_POINT('',#760);
#378=VERTEX_POINT('',#764);
#379=VERTEX_POINT('',#765);
#380=VERTEX_POINT('',#770);
#381=VERTEX_POINT('',#772);
#382=VERTEX_POINT('',#775);
#383=VERTEX_POINT('',#777);
#384=VERTEX_POINT('',#781);
#385=VERTEX_POINT('',#785);
#386=VERTEX_POINT('',#788);
#387=VERTEX_POINT('',#790);
#388=VERTEX_POINT('',#794);
#389=VERTEX_POINT('',#795);
#390=VERTEX_POINT('',#810);
#391=CIRCLE('',#514,2.5);
#392=CIRCLE('',#516,5.);
#393=CIRCLE('',#517,5.);
#394=CIRCLE('',#519,5.);
#395=CIRCLE('',#520,5.);
#396=CIRCLE('',#522,1.);
#397=CIRCLE('',#525,1.);
#398=CIRCLE('',#528,1.);
#399=CIRCLE('',#531,1.);
#400=CIRCLE('',#534,5.);
#401=CIRCLE('',#535,5.);
#402=CIRCLE('',#536,5.);
#403=CIRCLE('',#537,5.);
#404=CIRCLE('',#542,2.5);
#405=EDGE_LOOP('',(#147));
#406=EDGE_LOOP('',(#148,#149,#150,#151,#152,#153,#154,#155,#156,#157));
#407=EDGE_LOOP('',(#158,#159,#160,#161,#162,#163,#164,#165,#166,#167));
#408=EDGE_LOOP('',(#168));
#409=EDGE_LOOP('',(#169,#170,#171,#172,#173,#174,#175,#176));
#410=EDGE_LOOP('',(#177,#178,#179,#180));
#411=EDGE_LOOP('',(#181));
#412=EDGE_LOOP('',(#182,#183,#184,#185,#186,#187,#188,#189));
#413=EDGE_LOOP('',(#190,#191,#192,#193));
#414=EDGE_LOOP('',(#194));
#415=EDGE_LOOP('',(#195,#196,#197,#198,#199,#200,#201,#202));
#416=EDGE_LOOP('',(#203,#204,#205,#206));
#417=EDGE_LOOP('',(#207));
#418=EDGE_LOOP('',(#208,#209,#210,#211,#212,#213,#214,#215));
#419=EDGE_LOOP('',(#216,#217,#218,#219));
#420=EDGE_LOOP('',(#220,#221,#222,#223));
#421=EDGE_LOOP('',(#224,#225,#226,#227,#228,#229,#230,#231));
#422=EDGE_LOOP('',(#232));
#423=EDGE_LOOP('',(#233,#234,#235,#236));
#424=EDGE_LOOP('',(#237,#238,#239,#240));
#425=EDGE_LOOP('',(#241,#242,#243,#244));
#426=EDGE_LOOP('',(#245));
#427=EDGE_LOOP('',(#246,#247,#248,#249));
#428=EDGE_LOOP('',(#250,#251,#252,#253));
#429=EDGE_LOOP('',(#254,#255,#256,#257));
#430=EDGE_LOOP('',(#258));
#431=EDGE_LOOP('',(#259));
#432=EDGE_LOOP('',(#260));
#433=EDGE_LOOP('',(#261));
#434=EDGE_LOOP('',(#262));
#435=EDGE_LOOP('',(#263,#264,#265,#266));
#436=EDGE_LOOP('',(#267,#268,#269,#270));
#437=EDGE_LOOP('',(#271,#272,#273,#274));
#438=EDGE_LOOP('',(#275,#276,#277,#278));
#439=FACE_BOUND('',#405,.T.);
#440=FACE_BOUND('',#406,.T.);
#441=FACE_BOUND('',#407,.T.);
#442=FACE_BOUND('',#408,.T.);
#443=FACE_BOUND('',#409,.T.);
#444=FACE_BOUND('',#410,.T.);
#445=FACE_BOUND('',#411,.T.);
#446=FACE_BOUND('',#412,.T.);
#447=FACE_BOUND('',#413,.T.);
#448=FACE_BOUND('',#414,.T.);
#449=FACE_BOUND('',#415,.T.);
#450=FACE_BOUND('',#416,.T.);
#451=FACE_BOUND('',#417,.T.);
#452=FACE_BOUND('',#418,.T.);
#453=FACE_BOUND('',#419,.T.);
#454=FACE_BOUND('',#420,.T.);
#455=FACE_BOUND('',#421,.T.);
#456=FACE_BOUND('',#422,.T.);
#457=FACE_BOUND('',#423,.T.);
#458=FACE_BOUND('',#424,.T.);
#459=FACE_BOUND('',#425,.T.);
#460=FACE_BOUND('',#426,.T.);
#461=FACE_BOUND('',#427,.T.);
#462=FACE_BOUND('',#428,.T.);
#463=FACE_BOUND('',#429,.T.);
#464=FACE_BOUND('',#430,.T.);
#465=FACE_BOUND('',#431,.T.);
#466=FACE_BOUND('',#432,.T.);
#467=FACE_BOUND('',#433,.T.);
#468=FACE_BOUND('',#434,.T.);
#469=FACE_BOUND('',#435,.T.);
#470=FACE_BOUND('',#436,.T.);
#471=FACE_BOUND('',#437,.T.);
#472=FACE_BOUND('',#438,.T.);
#473=SPHERICAL_SURFACE('',#513,2.5);
#474=SPHERICAL_SURFACE('',#545,2.5);
#475=ADVANCED_FACE('',(#439),#473,.F.);
#476=ADVANCED_FACE('',(#440),#130,.T.);
#477=ADVANCED_FACE('',(#441),#131,.T.);
#478=ADVANCED_FACE('',(#442,#443),#132,.F.);
#479=ADVANCED_FACE('',(#444),#133,.F.);
#480=ADVANCED_FACE('',(#445,#446),#134,.F.);
#481=ADVANCED_FACE('',(#447),#135,.T.);
#482=ADVANCED_FACE('',(#448,#449),#136,.T.);
#483=ADVANCED_FACE('',(#450),#137,.T.);
#484=ADVANCED_FACE('',(#451,#452),#138,.T.);
#485=ADVANCED_FACE('',(#453),#139,.F.);
#486=ADVANCED_FACE('',(#454,#455),#140,.F.);
#487=ADVANCED_FACE('',(#456,#457),#141,.T.);
#488=ADVANCED_FACE('',(#458),#142,.F.);
#489=ADVANCED_FACE('',(#459),#143,.F.);
#490=ADVANCED_FACE('',(#460,#461),#144,.F.);
#491=ADVANCED_FACE('',(#462),#145,.T.);
#492=ADVANCED_FACE('',(#463),#146,.T.);
#493=ADVANCED_FACE('',(#464),#474,.T.);
#494=ADVANCED_FACE('',(#465,#466),#20,.F.);
#495=ADVANCED_FACE('',(#467,#468),#21,.F.);
#496=ADVANCED_FACE('',(#469),#22,.T.);
#497=ADVANCED_FACE('',(#470),#23,.T.);
#498=ADVANCED_FACE('',(#471),#24,.T.);
#499=ADVANCED_FACE('',(#472),#25,.T.);
#500=CLOSED_SHELL('',(#475,#476,#477,#478,#479,#480,#481,#482,#483,#484,
#485,#486,#487,#488,#489,#490,#491,#492,#493,#494,#495,#496,#497,#498,#499));
#501=STYLED_ITEM('',(#502),#509);
#502=PRESENTATION_STYLE_ASSIGNMENT((#503));
#503=SURFACE_STYLE_USAGE(.BOTH.,#504);
#504=SURFACE_SIDE_STYLE('',(#505));
#505=SURFACE_STYLE_FILL_AREA(#506);
#506=FILL_AREA_STYLE('',(#507));
#507=FILL_AREA_STYLE_COLOUR('',#508);
#508=COLOUR_RGB('',0.506983280181885,0.531564235687256,0.550000011920929);
#509=MANIFOLD_SOLID_BREP('',#500);
#510=SHAPE_DEFINITION_REPRESENTATION(#828,#511);
#511=SHAPE_REPRESENTATION('GyroBase01',(#512),#823);
#512=AXIS2_PLACEMENT_3D('',#684,#552,#553);
#513=AXIS2_PLACEMENT_3D('',#685,#554,#555);
#514=AXIS2_PLACEMENT_3D('',#686,#556,#557);
#515=AXIS2_PLACEMENT_3D('',#688,#558,#559);
#516=AXIS2_PLACEMENT_3D('',#692,#561,#562);
#517=AXIS2_PLACEMENT_3D('',#708,#570,#571);
#518=AXIS2_PLACEMENT_3D('',#709,#572,#573);
#519=AXIS2_PLACEMENT_3D('',#713,#575,#576);
#520=AXIS2_PLACEMENT_3D('',#729,#584,#585);
#521=AXIS2_PLACEMENT_3D('',#730,#586,#587);
#522=AXIS2_PLACEMENT_3D('',#731,#588,#589);
#523=AXIS2_PLACEMENT_3D('',#743,#596,#597);
#524=AXIS2_PLACEMENT_3D('',#749,#601,#602);
#525=AXIS2_PLACEMENT_3D('',#750,#603,#604);
#526=AXIS2_PLACEMENT_3D('',#762,#611,#612);
#527=AXIS2_PLACEMENT_3D('',#768,#616,#617);
#528=AXIS2_PLACEMENT_3D('',#769,#618,#619);
#529=AXIS2_PLACEMENT_3D('',#779,#625,#626);
#530=AXIS2_PLACEMENT_3D('',#783,#629,#630);
#531=AXIS2_PLACEMENT_3D('',#784,#631,#632);
#532=AXIS2_PLACEMENT_3D('',#792,#637,#638);
#533=AXIS2_PLACEMENT_3D('',#798,#642,#643);
#534=AXIS2_PLACEMENT_3D('',#799,#644,#645);
#535=AXIS2_PLACEMENT_3D('',#800,#646,#647);
#536=AXIS2_PLACEMENT_3D('',#801,#648,#649);
#537=AXIS2_PLACEMENT_3D('',#802,#650,#651);
#538=AXIS2_PLACEMENT_3D('',#803,#652,#653);
#539=AXIS2_PLACEMENT_3D('',#806,#656,#657);
#540=AXIS2_PLACEMENT_3D('',#807,#658,#659);
#541=AXIS2_PLACEMENT_3D('',#808,#660,#661);
#542=AXIS2_PLACEMENT_3D('',#809,#662,#663);
#543=AXIS2_PLACEMENT_3D('',#813,#666,#667);
#544=AXIS2_PLACEMENT_3D('',#814,#668,#669);
#545=AXIS2_PLACEMENT_3D('',#815,#670,#671);
#546=AXIS2_PLACEMENT_3D('',#816,#672,#673);
#547=AXIS2_PLACEMENT_3D('',#817,#674,#675);
#548=AXIS2_PLACEMENT_3D('',#818,#676,#677);
#549=AXIS2_PLACEMENT_3D('',#819,#678,#679);
#550=AXIS2_PLACEMENT_3D('',#820,#680,#681);
#551=AXIS2_PLACEMENT_3D('',#821,#682,#683);
#552=DIRECTION('',(0.,0.,1.));
#553=DIRECTION('',(1.,0.,0.));
#554=DIRECTION('',(1.,-6.12323399573677E-17,0.));
#555=DIRECTION('',(6.12323399573677E-17,1.,0.));
#556=DIRECTION('',(0.,0.,1.));
#557=DIRECTION('',(1.,0.,0.));
#558=DIRECTION('',(0.,0.,1.));
#559=DIRECTION('',(1.,0.,0.));
#560=DIRECTION('',(-1.,0.,0.));
#561=DIRECTION('',(0.,0.,1.));
#562=DIRECTION('',(1.,0.,0.));
#563=DIRECTION('',(0.,-1.,0.));
#564=DIRECTION('',(1.,0.,0.));
#565=DIRECTION('',(0.,-1.,0.));
#566=DIRECTION('',(-1.,0.,0.));
#567=DIRECTION('',(0.,1.,0.));
#568=DIRECTION('',(-1.,0.,0.));
#569=DIRECTION('',(0.,1.,0.));
#570=DIRECTION('',(0.,0.,1.));
#571=DIRECTION('',(1.,0.,0.));
#572=DIRECTION('',(0.,0.,1.));
#573=DIRECTION('',(1.,0.,0.));
#574=DIRECTION('',(1.,0.,0.));
#575=DIRECTION('',(0.,0.,1.));
#576=DIRECTION('',(1.,0.,0.));
#577=DIRECTION('',(0.,1.,0.));
#578=DIRECTION('',(1.,0.,0.));
#579=DIRECTION('',(0.,1.,0.));
#580=DIRECTION('',(1.,0.,0.));
#581=DIRECTION('',(0.,-1.,0.));
#582=DIRECTION('',(-1.,0.,0.));
#583=DIRECTION('',(0.,-1.,0.));
#584=DIRECTION('',(0.,0.,1.));
#585=DIRECTION('',(1.,0.,0.));
#586=DIRECTION('',(-1.,0.,0.));
#587=DIRECTION('',(0.,0.,1.));
#588=DIRECTION('',(-1.,0.,0.));
#589=DIRECTION('',(0.,1.,0.));
#590=DIRECTION('',(0.,0.,-1.));
#591=DIRECTION('',(0.,1.,0.));
#592=DIRECTION('',(0.,0.,-1.));
#593=DIRECTION('',(0.,0.,-1.));
#594=DIRECTION('',(0.,1.,0.));
#595=DIRECTION('',(0.,0.,-1.));
#596=DIRECTION('',(0.,-1.,0.));
#597=DIRECTION('',(0.,0.,-1.));
#598=DIRECTION('',(-1.,0.,0.));
#599=DIRECTION('',(0.,0.,-1.));
#600=DIRECTION('',(0.,0.,-1.));
#601=DIRECTION('',(1.,0.,0.));
#602=DIRECTION('',(0.,0.,-1.));
#603=DIRECTION('',(1.,0.,0.));
#604=DIRECTION('',(0.,0.,-1.));
#605=DIRECTION('',(0.,0.,-1.));
#606=DIRECTION('',(0.,-1.,0.));
#607=DIRECTION('',(0.,0.,-1.));
#608=DIRECTION('',(0.,0.,-1.));
#609=DIRECTION('',(0.,1.,0.));
#610=DIRECTION('',(0.,0.,-1.));
#611=DIRECTION('',(0.,1.,0.));
#612=DIRECTION('',(0.,0.,1.));
#613=DIRECTION('',(1.,0.,0.));
#614=DIRECTION('',(0.,0.,-1.));
#615=DIRECTION('',(0.,0.,-1.));
#616=DIRECTION('',(1.,0.,0.));
#617=DIRECTION('',(0.,0.,-1.));
#618=DIRECTION('',(1.,0.,0.));
#619=DIRECTION('',(0.,0.,-1.));
#620=DIRECTION('',(0.,-1.,0.));
#621=DIRECTION('',(0.,0.,-1.));
#622=DIRECTION('',(0.,0.,-1.));
#623=DIRECTION('',(0.,-1.,0.));
#624=DIRECTION('',(0.,0.,-1.));
#625=DIRECTION('',(0.,-1.,0.));
#626=DIRECTION('',(0.,0.,-1.));
#627=DIRECTION('',(-1.,0.,0.));
#628=DIRECTION('',(0.,0.,-1.));
#629=DIRECTION('',(-1.,0.,0.));
#630=DIRECTION('',(0.,0.,1.));
#631=DIRECTION('',(-1.,0.,0.));
#632=DIRECTION('',(0.,0.,1.));
#633=DIRECTION('',(0.,1.,0.));
#634=DIRECTION('',(0.,0.,-1.));
#635=DIRECTION('',(0.,-1.,0.));
#636=DIRECTION('',(0.,0.,-1.));
#637=DIRECTION('',(0.,1.,0.));
#638=DIRECTION('',(0.,0.,1.));
#639=DIRECTION('',(1.,0.,0.));
#640=DIRECTION('',(0.,0.,-1.));
#641=DIRECTION('',(0.,0.,-1.));
#642=DIRECTION('',(0.,0.,1.));
#643=DIRECTION('',(1.,0.,0.));
#644=DIRECTION('',(0.,0.,1.));
#645=DIRECTION('',(1.,0.,0.));
#646=DIRECTION('',(0.,0.,1.));
#647=DIRECTION('',(1.,0.,0.));
#648=DIRECTION('',(0.,0.,1.));
#649=DIRECTION('',(1.,0.,0.));
#650=DIRECTION('',(0.,0.,1.));
#651=DIRECTION('',(1.,0.,0.));
#652=DIRECTION('',(0.,0.,1.));
#653=DIRECTION('',(1.,0.,0.));
#654=DIRECTION('',(1.,0.,0.));
#655=DIRECTION('',(-1.,0.,0.));
#656=DIRECTION('',(0.,-1.,0.));
#657=DIRECTION('',(0.,0.,-1.));
#658=DIRECTION('',(0.,1.,0.));
#659=DIRECTION('',(0.,0.,1.));
#660=DIRECTION('',(0.,0.,-1.));
#661=DIRECTION('',(-1.,0.,0.));
#662=DIRECTION('',(0.,0.,-1.));
#663=DIRECTION('',(-1.,0.,0.));
#664=DIRECTION('',(1.,0.,0.));
#665=DIRECTION('',(-1.,0.,0.));
#666=DIRECTION('',(0.,1.,0.));
#667=DIRECTION('',(0.,0.,1.));
#668=DIRECTION('',(0.,-1.,0.));
#669=DIRECTION('',(0.,0.,-1.));
#670=DIRECTION('',(1.,-6.12323399573677E-17,0.));
#671=DIRECTION('',(6.12323399573677E-17,1.,0.));
#672=DIRECTION('',(1.,0.,0.));
#673=DIRECTION('',(0.,0.,-1.));
#674=DIRECTION('',(1.,0.,0.));
#675=DIRECTION('',(0.,0.,-1.));
#676=DIRECTION('',(0.,0.,-1.));
#677=DIRECTION('',(-1.,0.,0.));
#678=DIRECTION('',(0.,0.,-1.));
#679=DIRECTION('',(-1.,0.,0.));
#680=DIRECTION('',(0.,0.,-1.));
#681=DIRECTION('',(-1.,0.,0.));
#682=DIRECTION('',(0.,0.,-1.));
#683=DIRECTION('',(-1.,0.,0.));
#684=CARTESIAN_POINT('',(0.,0.,0.));
#685=CARTESIAN_POINT('',(29.,0.,28.));
#686=CARTESIAN_POINT('',(29.,0.,28.));
#687=CARTESIAN_POINT('',(31.5,0.,28.));
#688=CARTESIAN_POINT('',(0.,0.,1.));
#689=CARTESIAN_POINT('',(25.,25.,1.));
#690=CARTESIAN_POINT('',(28.,25.,1.));
#691=CARTESIAN_POINT('',(-28.,25.,1.));
#692=CARTESIAN_POINT('',(-28.,20.,1.));
#693=CARTESIAN_POINT('',(-33.,20.,1.));
#694=CARTESIAN_POINT('',(-33.,25.,1.));
#695=CARTESIAN_POINT('',(-33.,4.,1.));
#696=CARTESIAN_POINT('',(-17.,4.,1.));
#697=CARTESIAN_POINT('',(-25.,4.,1.));
#698=CARTESIAN_POINT('',(-25.,17.,1.));
#699=CARTESIAN_POINT('',(-25.,17.,1.));
#700=CARTESIAN_POINT('',(17.,17.,1.));
#701=CARTESIAN_POINT('',(25.,17.,1.));
#702=CARTESIAN_POINT('',(25.,-17.,1.));
#703=CARTESIAN_POINT('',(25.,4.,1.));
#704=CARTESIAN_POINT('',(33.,4.,1.));
#705=CARTESIAN_POINT('',(33.,4.,1.));
#706=CARTESIAN_POINT('',(33.,-25.,1.));
#707=CARTESIAN_POINT('',(33.,20.,1.));
#708=CARTESIAN_POINT('',(28.,20.,1.));
#709=CARTESIAN_POINT('',(0.,0.,1.));
#710=CARTESIAN_POINT('',(-25.,-25.,1.));
#711=CARTESIAN_POINT('',(-28.,-25.,1.));
#712=CARTESIAN_POINT('',(28.,-25.,1.));
#713=CARTESIAN_POINT('',(28.,-20.,1.));
#714=CARTESIAN_POINT('',(33.,-20.,1.));
#715=CARTESIAN_POINT('',(33.,-25.,1.));
#716=CARTESIAN_POINT('',(33.,-4.,1.));
#717=CARTESIAN_POINT('',(25.,-4.,1.));
#718=CARTESIAN_POINT('',(25.,-4.,1.));
#719=CARTESIAN_POINT('',(25.,-17.,1.));
#720=CARTESIAN_POINT('',(25.,-17.,1.));
#721=CARTESIAN_POINT('',(-17.,-17.,1.));
#722=CARTESIAN_POINT('',(-25.,-17.,1.));
#723=CARTESIAN_POINT('',(-25.,17.,1.));
#724=CARTESIAN_POINT('',(-25.,-4.,1.));
#725=CARTESIAN_POINT('',(-25.,-4.,1.));
#726=CARTESIAN_POINT('',(-33.,-4.,1.));
#727=CARTESIAN_POINT('',(-33.,25.,1.));
#728=CARTESIAN_POINT('',(-33.,-20.,1.));
#729=CARTESIAN_POINT('',(-28.,-20.,1.));
#730=CARTESIAN_POINT('',(33.,-25.,8.));
#731=CARTESIAN_POINT('',(33.,0.,23.8564633304423));
#732=CARTESIAN_POINT('',(33.,1.,23.8564633304423));
#733=CARTESIAN_POINT('',(33.,-20.,8.));
#734=CARTESIAN_POINT('',(33.,-20.,0.));
#735=CARTESIAN_POINT('',(33.,-25.,0.));
#736=CARTESIAN_POINT('',(33.,20.,0.));
#737=CARTESIAN_POINT('',(33.,20.,8.));
#738=CARTESIAN_POINT('',(33.,4.,28.));
#739=CARTESIAN_POINT('',(33.,4.,28.));
#740=CARTESIAN_POINT('',(33.,-4.,28.));
#741=CARTESIAN_POINT('',(33.,-4.,28.));
#742=CARTESIAN_POINT('',(33.,-4.,28.));
#743=CARTESIAN_POINT('',(25.,25.,8.));
#744=CARTESIAN_POINT('',(25.,25.,0.));
#745=CARTESIAN_POINT('',(28.,25.,0.));
#746=CARTESIAN_POINT('',(-28.,25.,0.));
#747=CARTESIAN_POINT('',(-28.,25.,8.));
#748=CARTESIAN_POINT('',(28.,25.,8.));
#749=CARTESIAN_POINT('',(-33.,25.,8.));
#750=CARTESIAN_POINT('',(-33.,0.,23.8564633304423));
#751=CARTESIAN_POINT('',(-33.,0.,22.8564633304423));
#752=CARTESIAN_POINT('',(-33.,20.,8.));
#753=CARTESIAN_POINT('',(-33.,20.,0.));
#754=CARTESIAN_POINT('',(-33.,25.,0.));
#755=CARTESIAN_POINT('',(-33.,-20.,0.));
#756=CARTESIAN_POINT('',(-33.,-20.,8.));
#757=CARTESIAN_POINT('',(-33.,-4.,28.));
#758=CARTESIAN_POINT('',(-33.,-4.,28.));
#759=CARTESIAN_POINT('',(-33.,4.,28.));
#760=CARTESIAN_POINT('',(-33.,4.,28.));
#761=CARTESIAN_POINT('',(-33.,4.,28.));
#762=CARTESIAN_POINT('',(-17.,-17.,8.));
#763=CARTESIAN_POINT('',(-17.,-17.,0.));
#764=CARTESIAN_POINT('',(-25.,-17.,0.));
#765=CARTESIAN_POINT('',(25.,-17.,0.));
#766=CARTESIAN_POINT('',(-25.,-17.,8.));
#767=CARTESIAN_POINT('',(25.,-17.,8.));
#768=CARTESIAN_POINT('',(-25.,17.,8.));
#769=CARTESIAN_POINT('',(-25.,0.,23.8564633304423));
#770=CARTESIAN_POINT('',(-25.,0.,22.8564633304423));
#771=CARTESIAN_POINT('',(-25.,17.,0.));
#772=CARTESIAN_POINT('',(-25.,17.,0.));
#773=CARTESIAN_POINT('',(-25.,17.,8.));
#774=CARTESIAN_POINT('',(-25.,4.,28.));
#775=CARTESIAN_POINT('',(-25.,4.,28.));
#776=CARTESIAN_POINT('',(-25.,4.,28.));
#777=CARTESIAN_POINT('',(-25.,-4.,28.));
#778=CARTESIAN_POINT('',(-25.,-4.,28.));
#779=CARTESIAN_POINT('',(17.,17.,8.));
#780=CARTESIAN_POINT('',(17.,17.,0.));
#781=CARTESIAN_POINT('',(25.,17.,0.));
#782=CARTESIAN_POINT('',(25.,17.,8.));
#783=CARTESIAN_POINT('',(25.,-17.,8.));
#784=CARTESIAN_POINT('',(25.,0.,23.8564633304423));
#785=CARTESIAN_POINT('',(25.,0.,24.8564633304423));
#786=CARTESIAN_POINT('',(25.,-17.,0.));
#787=CARTESIAN_POINT('',(25.,-4.,28.));
#788=CARTESIAN_POINT('',(25.,-4.,28.));
#789=CARTESIAN_POINT('',(25.,-4.,28.));
#790=CARTESIAN_POINT('',(25.,4.,28.));
#791=CARTESIAN_POINT('',(25.,4.,28.));
#792=CARTESIAN_POINT('',(-25.,-25.,8.));
#793=CARTESIAN_POINT('',(-25.,-25.,0.));
#794=CARTESIAN_POINT('',(-28.,-25.,0.));
#795=CARTESIAN_POINT('',(28.,-25.,0.));
#796=CARTESIAN_POINT('',(28.,-25.,8.));
#797=CARTESIAN_POINT('',(-28.,-25.,8.));
#798=CARTESIAN_POINT('',(0.,0.,0.));
#799=CARTESIAN_POINT('',(28.,-20.,0.));
#800=CARTESIAN_POINT('',(-28.,-20.,0.));
#801=CARTESIAN_POINT('',(-28.,20.,0.));
#802=CARTESIAN_POINT('',(28.,20.,0.));
#803=CARTESIAN_POINT('',(8.,0.,28.));
#804=CARTESIAN_POINT('',(25.,-4.,28.));
#805=CARTESIAN_POINT('',(33.,4.,28.));
#806=CARTESIAN_POINT('',(33.,4.,28.));
#807=CARTESIAN_POINT('',(25.,-4.,28.));
#808=CARTESIAN_POINT('',(0.,0.,28.));
#809=CARTESIAN_POINT('',(-29.,0.,28.));
#810=CARTESIAN_POINT('',(-31.5,0.,28.));
#811=CARTESIAN_POINT('',(-17.,4.,28.));
#812=CARTESIAN_POINT('',(-25.,-4.,28.));
#813=CARTESIAN_POINT('',(-17.,4.,28.));
#814=CARTESIAN_POINT('',(-25.,-4.,28.));
#815=CARTESIAN_POINT('',(-29.,0.,28.));
#816=CARTESIAN_POINT('',(-40.2009178738108,0.,23.8564633304423));
#817=CARTESIAN_POINT('',(-40.2009178738108,0.,23.8564633304423));
#818=CARTESIAN_POINT('',(-28.,-20.,8.));
#819=CARTESIAN_POINT('',(28.,20.,8.));
#820=CARTESIAN_POINT('',(-28.,20.,8.));
#821=CARTESIAN_POINT('',(28.,-20.,8.));
#822=MECHANICAL_DESIGN_GEOMETRIC_PRESENTATION_REPRESENTATION('',(#501),
#823);
#823=(
GEOMETRIC_REPRESENTATION_CONTEXT(3)
GLOBAL_UNCERTAINTY_ASSIGNED_CONTEXT((#824))
GLOBAL_UNIT_ASSIGNED_CONTEXT((#827,#826,#825))
REPRESENTATION_CONTEXT('GyroBase01','TOP_LEVEL_ASSEMBLY_PART')
);
#824=UNCERTAINTY_MEASURE_WITH_UNIT(LENGTH_MEASURE(0.005),#827,
'DISTANCE_ACCURACY_VALUE','Maximum Tolerance applied to model');
#825=(
NAMED_UNIT(*)
SI_UNIT($,.STERADIAN.)
SOLID_ANGLE_UNIT()
);
#826=(
NAMED_UNIT(*)
PLANE_ANGLE_UNIT()
SI_UNIT($,.RADIAN.)
);
#827=(
LENGTH_UNIT()
NAMED_UNIT(*)
SI_UNIT(.MILLI.,.METRE.)
);
#828=PRODUCT_DEFINITION_SHAPE('','',#829);
#829=PRODUCT_DEFINITION('','',#831,#830);
#830=PRODUCT_DEFINITION_CONTEXT('',#837,'design');
#831=PRODUCT_DEFINITION_FORMATION_WITH_SPECIFIED_SOURCE('','',#833,
 .NOT_KNOWN.);
#832=PRODUCT_RELATED_PRODUCT_CATEGORY('','',(#833));
#833=PRODUCT('GyroBase01','GyroBase01','GyroBase01',(#835));
#834=PRODUCT_CATEGORY('','');
#835=PRODUCT_CONTEXT('',#837,'mechanical');
#836=APPLICATION_PROTOCOL_DEFINITION('international standard',
'automotive_design',2010,#837);
#837=APPLICATION_CONTEXT(
'core data for automotive mechanical design processes');
ENDSEC;
END-ISO-10303-21;
