**ABCDEFGHIJKLMNOPQRSTUVWXYZabcdefghijklmnopqrstuvwxyz**************************
**PARASOLID !"#$%&'()*+,-./:;<=>?@[\]^_`{|}~0123456789**************************
**PART1;
MC=unknown;
MC_MODEL=unknown;
MC_ID=unknown;
OS=unknown;
OS_RELEASE=unknown;
FRU=sdl_parasolid_customer_support;
APPL=Example Application;
SITE=unknown;
USER=unknown;
FORMAT=text;
GUISE=transmit;
KEY=d:\workdir\steering_wheel;
FILE=d:\workdir\steering_wheel.xmt_txt;
DATE=unknown;
**PART2;
SCH=SCH_3500129_35001;
USFLD_SIZE=0;
**PART3;
**END_OF_HEADER*****************************************************************
T51 : TRANSMIT FILE created by modeller version 350012923 SCH_3500129_35001_1300
6231 0 176 6 14 PART_XMT_BLOCK9 Part list9 n_entries0 0 1 d16 index_map_offset0
 0 1 d9 index_map82 0 20 schema_embedding_map82 0 16 mesh_offset_data206 0 7 ent
ries1005 1 T14 1 14 0 0 0 0 2 3 4 5 6 7 8 9 10 11 12 13 14 15 12 36 CCCI7 lattic
e222 0 CCCI4 mesh1006 0 I8 polyline1008 0 CCCCCCCDI5 owner1040 0 CCCI16 boundary
_lattice222 0 CCCI13 boundary_mesh1006 0 I17 boundary_polyline1008 0 CCCA16 inde
x_map_offset0 0 1 dA9 index_map82 0 A17 node_id_index_map82 0 A20 schema_embeddi
ng_map82 0 A5 child12 0 A14 lowest_node_id0 0 1 dA16 mesh_offset_data206 0 Z2 18
 0 0 0 0 0 0 0 0 0 1e3 1e-8 0 0 3 1 0 1 1 16 0 17 18 0 0 0 19 20 0 0 0 0 0 0 0 0
 12 3 15 0 0 0 0 0 0 0 0 0 1e3 1e-8 0 2 4 1 0 1 1 21 0 22 23 24 0 0 25 26 27 0 0
 0 0 0 0 0 12 4 18 0 0 0 0 0 0 0 0 0 1e3 1e-8 0 3 5 1 0 1 1 28 0 29 30 0 0 0 31
 32 0 0 0 0 0 0 0 0 12 5 15 0 0 0 0 0 0 0 0 0 1e3 1e-8 0 4 6 1 0 1 1 33 0 34 35
 36 0 0 37 38 39 0 0 0 0 0 0 0 12 6 18 0 0 0 0 0 0 0 0 0 1e3 1e-8 0 5 7 1 0 1 1
 40 0 41 42 0 0 0 43 44 0 0 0 0 0 0 0 0 12 7 15 0 0 0 0 0 0 0 0 0 1e3 1e-8 0 6 8
 1 0 1 1 45 0 46 47 48 0 0 49 50 51 0 0 0 0 0 0 0 12 8 18 0 0 0 0 0 0 0 0 0 1e3
 1e-8 0 7 9 1 0 1 1 52 0 53 54 0 0 0 55 56 0 0 0 0 0 0 0 0 12 9 15 0 0 0 0 0 0 0
 0 0 1e3 1e-8 0 8 10 1 0 1 1 57 0 58 59 60 0 0 61 62 63 0 0 0 0 0 0 0 12 10 18 0
 0 0 0 0 0 0 0 0 1e3 1e-8 0 9 11 1 0 1 1 64 0 65 66 0 0 0 67 68 0 0 0 0 0 0 0 0
 12 11 15 0 0 0 0 0 0 0 0 0 1e3 1e-8 0 10 12 1 0 1 1 69 0 70 71 72 0 0 73 74 75
 0 0 0 0 0 0 0 12 12 18 0 0 0 0 0 0 0 0 0 1e3 1e-8 0 11 13 1 0 1 1 76 0 77 78 0
 0 0 79 80 0 0 0 0 0 0 0 0 12 13 15 0 0 0 0 0 0 0 0 0 1e3 1e-8 0 12 14 1 0 1 1 8
1 0 82 83 84 0 0 85 86 87 0 0 0 0 0 0 0 12 14 46 0 0 0 0 0 0 0 0 0 1e3 1e-8 0 13
 15 1 0 1 1 88 0 89 90 0 0 0 91 92 0 0 0 0 0 0 0 0 12 15 6 0 0 0 0 0 0 0 0 0 1e3
 1e-8 0 14 0 1 0 1 1 93 0 94 0 0 0 0 95 0 0 0 0 0 0 0 0 0 13 255 93 3 0 15 0 96
 0 0 97 0 54 255 94 6 0 96 0 0 0 +1734723475976805e-32 -.005 .07 183697019872103
e-30 -1 0 .00929911572831919 .00106275608323648 1 183697019872103e-30 0 19 9 CCC
CCCI5 frame230 0 CA5 owner12 0 Z95 1 0 15 97 0 98 0 V0 19 97 5 0 15 0 95 93 0 S0
 13 98 4 0 0 0 0 0 0 95 96 14 255 96 2 0 ?0 0 0 93 94 +0 0 0 0 98 13 88 3 0 14 0
 99 0 0 100 0 51 255 89 18 0 101 102 0 0 +173447944457013e-31 -.0049867155489595
4 .07 183697019872103e-30 -1 0 .00823635964508271 1 183697019872103e-30 0 31 255
 90 16 0 92 103 0 0 +1734967507383485e-32 -.00501328445104046 .07 -1836970198721
03e-30 1 0 1 183697019872103e-30 0 .00823635964508271 19 91 1 0 14 100 0 104 0 V
0 16 255 92 12 0 ?105 0 106 90 0 0 14 17 255 105 0 107 105 105 0 108 92 0 0 +16
 106 6 0 ?109 92 110 103 0 0 14 17 109 0 111 109 109 0 112 106 0 0 +16 110 30 0
 ?113 106 114 115 0 0 14 31 103 10 0 106 115 90 0 +173447944457013e-31 -.0049867
1554895954 .07 183697019872103e-30 -1 0 1 183697019872103e-30 0 .008236359645082
71 31 115 44 0 110 116 103 0 +1734967507383485e-32 -.00501328445104046 .07 -1836
97019872103e-30 1 0 1 183697019872103e-30 0 .00452999780479549 31 116 45 0 114 0
 115 0 +173447944457013e-31 -.00498671554895954 .07 183697019872103e-30 -1 0 1 1
83697019872103e-30 0 .00452999780479549 16 114 31 0 ?117 110 0 116 0 0 14 17 117
 0 118 117 117 0 119 114 0 0 +15 255 118 21 0 117 120 121 17 119 0 122 119 119 0
 117 114 0 0 -15 122 38 0 119 123 0 14 123 36 0 ?0 101 124 88 125 -0 0 0 101 104
 14 101 2 0 ?123 120 107 88 89 +0 0 123 120 104 15 124 37 0 126 123 122 51 125 4
1 0 123 0 127 0 +173447944457013e-31 -.00498671554895954 .07 183697019872103e-30
 -1 0 .00452999780479549 1 183697019872103e-30 0 13 104 4 0 0 0 0 0 0 91 99 14 9
9 15 0 ?120 0 128 88 102 +0 0 120 0 104 14 120 9 0 ?101 99 118 88 127 +0 0 101 9
9 104 15 128 26 0 113 99 129 50 255 102 17 0 99 127 89 0 +1734967507383485e-32 -
.00501328445104046 .07 183697019872103e-30 -1 0 1 183697019872103e-30 0 50 127 1
1 0 120 125 102 0 +173447944457013e-31 -.00498671554895954 .07 -183697019872103e
-30 1 0 -1 -183697019872103e-30 0 17 113 0 128 113 113 0 126 110 0 0 +15 129 14
 0 108 99 0 17 108 0 129 108 108 0 105 92 0 0 -17 126 0 124 126 126 0 113 110 0
 0 -15 107 13 0 105 101 111 15 111 7 0 109 101 0 15 121 8 0 112 120 0 17 112 0 1
21 112 112 0 109 106 0 0 -19 100 5 0 14 0 91 88 0 S0 13 81 3 0 13 0 130 0 0 131
 0 52 255 82 15 0 132 133 0 0 +205196430465673e-31 -.0222697863525928 .07 -18369
7019872103e-30 1 0 0 .38268343236509 .923879532511287 1 0 0 31 83 13 0 86 0 0 0
 +197875488265367e-31 -.018284451040456 .07 183697019872103e-30 -1 0 1 0 0 .0016
50779936891475 29 255 84 8 0 87 0 0 205196430465673e-31 -.0222697863525928 .07 1
9 85 1 0 13 131 0 134 0 V0 16 86 9 0 ?135 0 0 83 0 0 13 18 255 87 6 0 136 0 0 84
 ?13 17 136 0 137 136 136 87 0 0 0 0 ?15 137 7 0 136 132 0 14 132 2 0 ?0 130 138
 81 82 +0 0 0 130 134 14 130 12 0 ?132 0 139 81 133 +0 0 132 0 134 15 138 10 0 1
35 132 137 13 134 4 0 0 0 0 0 0 85 130 17 135 0 138 135 135 0 140 86 0 0 +17 140
 0 139 140 140 0 135 86 0 0 -15 139 11 0 140 130 0 50 133 14 0 130 0 82 0 +19787
5488265367e-31 -.018284451040456 .07 -183697019872103e-30 1 0 -1 -18369701987210
3e-30 0 19 131 5 0 13 0 85 81 0 S0 13 76 3 0 12 0 141 0 0 142 0 51 77 18 0 143 1
44 0 0 +190554546065061e-31 -.0142991157283192 .07 183697019872103e-30 -1 0 .000
797067062427359 1 0 0 31 78 16 0 80 145 0 0 +197875488265367e-31 -.0182844510404
56 .07 -183697019872103e-30 1 0 1 0 0 .000797067062427359 19 79 1 0 12 142 0 146
 0 V0 16 80 12 0 ?147 0 148 78 0 0 12 17 147 0 149 147 147 0 150 80 0 0 +16 148
 6 0 ?151 80 0 145 0 0 12 17 151 0 152 151 151 0 153 148 0 0 +31 145 10 0 148 0
 78 0 +190554546065061e-31 -.0142991157283192 .07 183697019872103e-30 -1 0 1 0 0
 .000797067062427359 15 152 7 0 151 143 0 17 153 0 154 153 153 0 151 148 0 0 -15
 154 8 0 153 155 0 14 155 9 0 ?143 141 154 76 156 +0 0 143 141 146 14 143 2 0 ?0
 155 149 76 77 +0 0 0 155 146 14 141 15 0 ?155 0 157 76 144 +0 0 155 0 146 50 15
6 11 0 155 0 144 0 +190554546065061e-31 -.0142991157283192 .07 -183697019872103e
-30 1 0 -1 -183697019872103e-30 0 13 146 4 0 0 0 0 0 0 79 141 50 144 17 0 141 15
6 77 0 +197875488265367e-31 -.018284451040456 .07 183697019872103e-30 -1 0 1 183
697019872103e-30 0 15 157 14 0 150 141 0 17 150 0 157 150 150 0 147 80 0 0 -15 1
49 13 0 147 143 152 19 142 5 0 12 0 79 76 0 S0 13 69 3 0 11 0 158 0 0 159 0 52 7
0 15 0 160 161 0 0 +1417482647296886e-32 .01226978635259278 .07 183697019872103e
-30 -1 0 0 .38268343236509 .923879532511287 1 0 0 31 71 13 0 74 0 0 0 +149069206
9299944e-32 .00828445104045598 .07 -183697019872103e-30 1 0 1 0 0 .0016507799368
91475 29 72 8 0 75 0 0 1417482647296886e-32 .01226978635259278 .07 19 73 1 0 11
 159 0 162 0 V0 16 74 9 0 ?163 0 0 71 0 0 11 18 75 6 0 164 0 0 72 ?11 17 164 0 1
65 164 164 75 0 0 0 0 ?15 165 7 0 164 160 0 14 160 2 0 ?0 158 166 69 70 +0 0 0 1
58 162 14 158 12 0 ?160 0 167 69 161 +0 0 160 0 162 15 166 10 0 163 160 165 13 1
62 4 0 0 0 0 0 0 73 158 17 163 0 166 163 163 0 168 74 0 0 +17 168 0 167 168 168
 0 163 74 0 0 -15 167 11 0 168 158 0 50 161 14 0 158 0 70 0 +1490692069299944e-3
2 .00828445104045598 .07 183697019872103e-30 -1 0 1 183697019872103e-30 0 19 159
 5 0 11 0 73 69 0 S0 13 64 3 0 10 0 169 0 0 170 0 51 65 18 0 171 172 0 0 +156390
1491303005e-32 .00429911572831919 .07 -183697019872103e-30 1 0 .0007970670624273
59 1 0 0 31 66 16 0 68 173 0 0 +1490692069299944e-32 .00828445104045598 .07 1836
97019872103e-30 -1 0 1 0 0 .000797067062427359 19 67 1 0 10 170 0 174 0 V0 16 68
 12 0 ?175 0 176 66 0 0 10 17 175 0 177 175 175 0 178 68 0 0 +16 176 6 0 ?179 68
 0 173 0 0 10 17 179 0 180 179 179 0 181 176 0 0 +31 173 10 0 176 0 66 0 +156390
1491303005e-32 .00429911572831919 .07 -183697019872103e-30 1 0 1 0 0 .0007970670
62427359 15 180 7 0 179 171 0 17 181 0 182 181 181 0 179 176 0 0 -15 182 8 0 181
 183 0 14 183 9 0 ?171 169 182 64 184 +0 0 171 169 174 14 171 2 0 ?0 183 177 64
 65 +0 0 0 183 174 14 169 15 0 ?183 0 185 64 172 +0 0 183 0 174 50 184 11 0 183
 0 172 0 +1563901491303005e-32 .00429911572831919 .07 183697019872103e-30 -1 0 1
 183697019872103e-30 0 13 174 4 0 0 0 0 0 0 67 169 50 172 17 0 169 184 65 0 +149
0692069299944e-32 .00828445104045598 .07 -183697019872103e-30 1 0 -1 -1836970198
72103e-30 0 15 185 14 0 178 169 0 17 178 0 185 178 178 0 175 68 0 0 -15 177 13 0
 175 171 180 19 170 5 0 10 0 67 64 0 S0 13 57 3 0 9 0 186 0 0 187 0 52 58 15 0 1
88 189 0 0 +1734723475976805e-32 -.005 .0872697863525928 0 0 -1 0 .3826834323650
9 .923879532511287 1 0 0 31 59 13 0 62 0 0 0 +1734723475976805e-32 -.005 .083284
451040456 0 0 1 1 0 0 .001650779936891475 29 60 8 0 63 0 0 1734723475976805e-32
 -.005 .0872697863525928 19 61 1 0 9 187 0 190 0 V0 16 62 9 0 ?191 0 0 59 0 0 9
 18 63 6 0 192 0 0 60 ?9 17 192 0 193 192 192 63 0 0 0 0 ?15 193 7 0 192 188 0 1
4 188 2 0 ?0 186 194 57 58 +0 0 0 186 190 14 186 12 0 ?188 0 195 57 189 +0 0 188
 0 190 15 194 10 0 191 188 193 13 190 4 0 0 0 0 0 0 61 186 17 191 0 194 191 191
 0 196 62 0 0 +17 196 0 195 196 196 0 191 62 0 0 -15 195 11 0 196 186 0 50 189 1
4 0 186 0 58 0 +1734723475976805e-32 -.005 .083284451040456 0 0 -1 -1 0 0 19 187
 5 0 9 0 61 57 0 S0 13 52 3 0 8 0 197 0 0 198 0 51 53 18 0 199 200 0 0 +17347234
75976805e-32 -.005 .0792991157283192 0 0 1 .000797067062427359 1 0 0 31 54 16 0
 56 201 0 0 +1734723475976805e-32 -.005 .083284451040456 0 0 -1 1 0 0 .000797067
062427359 19 55 1 0 8 198 0 202 0 V0 16 56 12 0 ?203 0 204 54 0 0 8 17 203 0 205
 203 203 0 206 56 0 0 +16 204 6 0 ?207 56 0 201 0 0 8 17 207 0 208 207 207 0 209
 204 0 0 +31 201 10 0 204 0 54 0 +1734723475976805e-32 -.005 .0792991157283192 0
 0 1 1 0 0 .000797067062427359 15 208 7 0 207 199 0 17 209 0 210 209 209 0 207 2
04 0 0 -15 210 8 0 209 211 0 14 211 9 0 ?199 197 210 52 212 +0 0 199 197 202 14
 199 2 0 ?0 211 205 52 53 +0 0 0 211 202 14 197 15 0 ?211 0 213 52 200 +0 0 211
 0 202 50 212 11 0 211 0 200 0 +1734723475976805e-32 -.005 .0792991157283192 0 0
 -1 -1 0 0 13 202 4 0 0 0 0 0 0 55 197 50 200 17 0 197 212 53 0 +173472347597680
5e-32 -.005 .083284451040456 0 0 1 1 0 0 15 213 14 0 206 197 0 17 206 0 213 206
 206 0 203 56 0 0 -15 205 13 0 203 199 208 19 198 5 0 8 0 55 52 0 S0 13 45 3 0 7
 0 214 0 0 215 0 52 46 15 0 216 217 0 0 +1734723475976805e-32 -.005 .05273021364
74072 0 0 1 0 .38268343236509 .923879532511287 1 0 0 31 47 13 0 50 0 0 0 +173472
3475976805e-32 -.005 .056715548959544 0 0 -1 1 0 0 .001650779936891475 29 48 8 0
 51 0 0 1734723475976805e-32 -.005 .0527302136474072 19 49 1 0 7 215 0 218 0 V0
 16 50 9 0 ?219 0 0 47 0 0 7 18 51 6 0 220 0 0 48 ?7 17 220 0 221 220 220 51 0 0
 0 0 ?15 221 7 0 220 216 0 14 216 2 0 ?0 214 222 45 46 +0 0 0 214 218 14 214 12
 0 ?216 0 223 45 217 +0 0 216 0 218 15 222 10 0 219 216 221 13 218 4 0 0 0 0 0 0
 49 214 17 219 0 222 219 219 0 224 50 0 0 +17 224 0 223 224 224 0 219 50 0 0 -15
 223 11 0 224 214 0 50 217 14 0 214 0 46 0 +1734723475976805e-32 -.005 .05671554
8959544 0 0 1 1 0 0 19 215 5 0 7 0 49 45 0 S0 13 40 3 0 6 0 225 0 0 226 0 51 41
 18 0 227 228 0 0 +1734723475976805e-32 -.005 .0607008842716808 0 0 -1 .00079706
7062427359 1 0 0 31 42 16 0 44 229 0 0 +1734723475976805e-32 -.005 .056715548959
544 0 0 1 1 0 0 .000797067062427359 19 43 1 0 6 226 0 230 0 V0 16 44 12 0 ?231 0
 232 42 0 0 6 17 231 0 233 231 231 0 234 44 0 0 +16 232 6 0 ?235 44 0 229 0 0 6
 17 235 0 236 235 235 0 237 232 0 0 +31 229 10 0 232 0 42 0 +1734723475976805e-3
2 -.005 .0607008842716808 0 0 -1 1 0 0 .000797067062427359 15 236 7 0 235 227 0
 17 237 0 238 237 237 0 235 232 0 0 -15 238 8 0 237 239 0 14 239 9 0 ?227 225 23
8 40 240 +0 0 227 225 230 14 227 2 0 ?0 239 233 40 41 +0 0 0 239 230 14 225 15 0
 ?239 0 241 40 228 +0 0 239 0 230 50 240 11 0 239 0 228 0 +1734723475976805e-32
 -.005 .0607008842716808 0 0 1 1 0 0 13 230 4 0 0 0 0 0 0 43 225 50 228 17 0 225
 240 41 0 +1734723475976805e-32 -.005 .056715548959544 0 0 -1 -1 0 0 15 241 14 0
 234 225 0 17 234 0 241 234 234 0 231 44 0 0 -15 233 13 0 231 227 236 19 226 5 0
 6 0 43 40 0 S0 13 33 3 0 5 0 242 0 0 243 0 52 34 15 0 244 245 0 0 +.01726978635
25928 -.005 .07 -1 -183697019872103e-30 0 0 .38268343236509 .923879532511287 0 1
 0 31 35 13 0 38 0 0 0 +.013284451040456 -.005 .07 1 183697019872103e-30 0 0 1 0
 .001650779936891475 29 36 8 0 39 0 0 .0172697863525928 -.005 .07 19 37 1 0 5 24
3 0 246 0 V0 16 38 9 0 ?247 0 0 35 0 0 5 18 39 6 0 248 0 0 36 ?5 17 248 0 249 24
8 248 39 0 0 0 0 ?15 249 7 0 248 244 0 14 244 2 0 ?0 242 250 33 34 +0 0 0 242 24
6 14 242 12 0 ?244 0 251 33 245 +0 0 244 0 246 15 250 10 0 247 244 249 13 246 4
 0 0 0 0 0 0 37 242 17 247 0 250 247 247 0 252 38 0 0 +17 252 0 251 252 252 0 24
7 38 0 0 -15 251 11 0 252 242 0 50 245 14 0 242 0 34 0 +.013284451040456 -.005 .
07 -1 -183697019872103e-30 0 183697019872103e-30 -1 0 19 243 5 0 5 0 37 33 0 S0
 13 28 3 0 4 0 253 0 0 254 0 51 29 18 0 255 256 0 0 +.00929911572831921 -.005 .0
7 1 183697019872103e-30 0 .000797067062427359 0 1 0 31 30 16 0 32 257 0 0 +.0132
84451040456 -.005 .07 -1 -183697019872103e-30 0 0 1 0 .000797067062427359 19 31
 1 0 4 254 0 258 0 V0 16 32 12 0 ?259 0 260 30 0 0 4 17 259 0 261 259 259 0 262
 32 0 0 +16 260 6 0 ?263 32 0 257 0 0 4 17 263 0 264 263 263 0 265 260 0 0 +31 2
57 10 0 260 0 30 0 +.00929911572831921 -.005 .07 1 183697019872103e-30 0 0 1 0 .
000797067062427359 15 264 7 0 263 255 0 17 265 0 266 265 265 0 263 260 0 0 -15 2
66 8 0 265 267 0 14 267 9 0 ?255 253 266 28 268 +0 0 255 253 258 14 255 2 0 ?0 2
67 261 28 29 +0 0 0 267 258 14 253 15 0 ?267 0 269 28 256 +0 0 267 0 258 50 268
 11 0 267 0 256 0 +.00929911572831921 -.005 .07 -1 -183697019872103e-30 0 183697
019872103e-30 -1 0 13 258 4 0 0 0 0 0 0 31 253 50 256 17 0 253 268 29 0 +.013284
451040456 -.005 .07 1 183697019872103e-30 0 -183697019872103e-30 1 0 15 269 14 0
 262 253 0 17 262 0 269 262 262 0 259 32 0 0 -15 261 13 0 259 255 264 19 254 5 0
 4 0 31 28 0 S0 13 21 3 0 3 0 270 0 0 271 0 52 22 15 0 272 273 0 0 +-.0172697863
5259275 -.005 .07 1 183697019872103e-30 0 0 .38268343236509 .923879532511287 0 1
 0 31 23 13 0 26 0 0 0 +-.01328445104045596 -.005 .07 -1 -183697019872103e-30 0
 0 1 0 .001650779936891475 29 24 8 0 27 0 0 -.01726978635259275 -.005 .07 19 25
 1 0 3 271 0 274 0 V0 16 26 9 0 ?275 0 0 23 0 0 3 18 27 6 0 276 0 0 24 ?3 17 276
 0 277 276 276 27 0 0 0 0 ?15 277 7 0 276 272 0 14 272 2 0 ?0 270 278 21 22 +0 0
 0 270 274 14 270 12 0 ?272 0 279 21 273 +0 0 272 0 274 15 278 10 0 275 272 277
 13 274 4 0 0 0 0 0 0 25 270 17 275 0 278 275 275 0 280 26 0 0 +17 280 0 279 280
 280 0 275 26 0 0 -15 279 11 0 280 270 0 50 273 14 0 270 0 22 0 +-.0132844510404
5596 -.005 .07 1 183697019872103e-30 0 -183697019872103e-30 1 0 19 271 5 0 3 0 2
5 21 0 S0 13 16 3 0 2 0 281 0 0 282 0 51 17 18 0 283 284 0 0 +-.0092991157283191
7 -.005 .07 -1 -183697019872103e-30 0 .000797067062427359 0 1 0 31 18 16 0 20 28
5 0 0 +-.01328445104045596 -.005 .07 1 183697019872103e-30 0 0 1 0 .000797067062
427359 19 19 1 0 2 282 0 286 0 V0 16 20 12 0 ?287 0 288 18 0 0 2 17 287 0 289 28
7 287 0 290 20 0 0 +16 288 6 0 ?291 20 0 285 0 0 2 17 291 0 292 291 291 0 293 28
8 0 0 +31 285 10 0 288 0 18 0 +-.00929911572831917 -.005 .07 -1 -183697019872103
e-30 0 0 1 0 .000797067062427359 15 292 7 0 291 283 0 17 293 0 294 293 293 0 291
 288 0 0 -15 294 8 0 293 295 0 14 295 9 0 ?283 281 294 16 296 +0 0 283 281 286 1
4 283 2 0 ?0 295 289 16 17 +0 0 0 295 286 14 281 15 0 ?295 0 297 16 284 +0 0 295
 0 286 50 296 11 0 295 0 284 0 +-.00929911572831917 -.005 .07 1 183697019872103e
-30 0 -183697019872103e-30 1 0 13 286 4 0 0 0 0 0 0 19 281 50 284 17 0 281 296 1
7 0 +-.01328445104045596 -.005 .07 -1 -183697019872103e-30 0 183697019872103e-30
 -1 0 15 297 14 0 290 281 0 17 290 0 297 290 290 0 287 20 0 0 -15 289 13 0 287 2
83 292 19 282 5 0 2 0 19 16 0 S0 1 0 
