**ABCDEFGHIJKLMNOPQRSTUVWXYZabcdefghijklmnopqrstuvwxyz**************************
**PARASOLID !"#$%&'()*+,-./:;<=>?@[\]^_`{|}~0123456789**************************
**PART1;
MC=unknown;
MC_MODEL=unknown;
MC_ID=unknown;
OS=unknown;
OS_RELEASE=unknown;
FRU=sdl_parasolid_customer_support;
APPL=Example Application;
SITE=unknown;
USER=unknown;
FORMAT=text;
GUISE=transmit;
KEY=d:\workdir\steering_wheel;
FILE=d:\workdir\steering_wheel.xmt_txt;
DATE=unknown;
**PART2;
SCH=SCH_3500129_35001;
USFLD_SIZE=0;
**PART3;
**END_OF_HEADER*****************************************************************
T51 : TRANSMIT FILE created by modeller version 350012923 SCH_3500129_35001_1300
6231 0 176 6 14 PART_XMT_BLOCK9 Part list9 n_entries0 0 1 d16 index_map_offset0
 0 1 d9 index_map82 0 20 schema_embedding_map82 0 16 mesh_offset_data206 0 7 ent
ries1005 1 T10 1 10 0 0 0 0 2 3 4 5 6 7 8 9 10 11 12 36 CCCI7 lattice222 0 CCCI4
 mesh1006 0 I8 polyline1008 0 CCCCCCCDI5 owner1040 0 CCCI16 boundary_lattice222
 0 CCCI13 boundary_mesh1006 0 I17 boundary_polyline1008 0 CCCA16 index_map_offse
t0 0 1 dA9 index_map82 0 A17 node_id_index_map82 0 A20 schema_embedding_map82 0
 A5 child12 0 A14 lowest_node_id0 0 1 dA16 mesh_offset_data206 0 Z2 18 0 0 0 0 0
 0 0 0 0 1e3 1e-8 0 0 3 1 0 1 1 12 0 13 14 0 0 0 15 16 0 0 0 0 0 0 0 0 12 3 15 0
 0 0 0 0 0 0 0 0 1e3 1e-8 0 2 4 1 0 1 1 17 0 18 19 20 0 0 21 22 23 0 0 0 0 0 0 0
 12 4 18 0 0 0 0 0 0 0 0 0 1e3 1e-8 0 3 5 1 0 1 1 24 0 25 26 0 0 0 27 28 0 0 0 0
 0 0 0 0 12 5 15 0 0 0 0 0 0 0 0 0 1e3 1e-8 0 4 6 1 0 1 1 29 0 30 31 32 0 0 33 3
4 35 0 0 0 0 0 0 0 12 6 18 0 0 0 0 0 0 0 0 0 1e3 1e-8 0 5 7 1 0 1 1 36 0 37 38 0
 0 0 39 40 0 0 0 0 0 0 0 0 12 7 15 0 0 0 0 0 0 0 0 0 1e3 1e-8 0 6 8 1 0 1 1 41 0
 42 43 44 0 0 45 46 47 0 0 0 0 0 0 0 12 8 18 0 0 0 0 0 0 0 0 0 1e3 1e-8 0 7 9 1
 0 1 1 48 0 49 50 0 0 0 51 52 0 0 0 0 0 0 0 0 12 9 15 0 0 0 0 0 0 0 0 0 1e3 1e-8
 0 8 10 1 0 1 1 53 0 54 55 56 0 0 57 58 59 0 0 0 0 0 0 0 12 10 46 0 0 0 0 0 0 0
 0 0 1e3 1e-8 0 9 11 1 0 1 1 60 0 61 62 0 0 0 63 64 0 0 0 0 0 0 0 0 12 11 6 0 0
 0 0 0 0 0 0 0 1e3 1e-8 0 10 0 1 0 1 1 65 0 66 0 0 0 0 67 0 0 0 0 0 0 0 0 0 13 2
55 65 3 0 11 0 68 0 0 69 0 54 255 66 6 0 68 0 0 0 +.05 .0206214663993508 0 0 0 1
 .00478158076619893 .000546466373279878 1 0 0 19 9 CCCCCCI5 frame230 0 CA5 owner
12 0 Z67 1 0 11 69 0 70 0 V0 19 69 5 0 11 0 67 65 0 S0 13 70 4 0 0 0 0 0 0 67 68
 14 255 68 2 0 ?0 0 0 65 66 +0 0 0 0 70 13 60 3 0 10 0 71 0 0 72 0 51 255 61 18
 0 73 74 0 0 +.05 .0206214663993508 -683082966599848e-20 0 0 1 .0042351143929190
55 1 0 0 31 255 62 16 0 64 75 0 0 +.05 .0206214663993508 683082966599848e-20 0 0
 -1 1 0 0 .004235114392919055 19 63 1 0 10 72 0 76 0 V0 16 255 64 12 0 ?77 0 78
 62 0 0 10 17 255 77 0 79 77 77 0 80 64 0 0 +16 78 6 0 ?81 64 82 75 0 0 10 17 81
 0 83 81 81 0 84 78 0 0 +16 82 30 0 ?85 78 86 87 0 0 10 31 75 10 0 78 87 62 0 +.
05 .0206214663993508 -683082966599848e-20 0 0 1 1 0 0 .004235114392919055 31 87
 44 0 82 88 75 0 +.05 .0206214663993508 683082966599848e-20 0 0 -1 1 0 0 .002329
31291610548 31 88 45 0 86 0 87 0 +.05 .0206214663993508 -683082966599848e-20 0 0
 1 1 0 0 .00232931291610548 16 86 31 0 ?89 82 0 88 0 0 10 17 89 0 90 89 89 0 91
 86 0 0 +15 255 90 21 0 89 92 93 17 91 0 94 91 91 0 89 86 0 0 -15 94 38 0 91 95
 0 14 95 36 0 ?0 73 96 60 97 -0 0 0 73 76 14 73 2 0 ?95 92 79 60 61 +0 0 95 92 7
6 15 96 37 0 98 95 94 51 97 41 0 95 0 99 0 +.05 .0206214663993508 -6830829665998
48e-20 0 0 1 .00232931291610548 1 0 0 13 76 4 0 0 0 0 0 0 63 71 14 71 15 0 ?92 0
 100 60 74 +0 0 92 0 76 14 92 9 0 ?73 71 90 60 99 +0 0 73 71 76 15 100 26 0 85 7
1 101 50 255 74 17 0 71 99 61 0 +.05 .0206214663993508 683082966599848e-20 0 0 1
 1 0 0 50 99 11 0 92 97 74 0 +.05 .0206214663993508 -683082966599848e-20 0 0 -1
 -1 0 0 17 85 0 100 85 85 0 98 82 0 0 +15 101 14 0 80 71 0 17 80 0 101 80 80 0 7
7 64 0 0 -17 98 0 96 98 98 0 85 82 0 0 -15 79 13 0 77 73 83 15 83 7 0 81 73 0 15
 93 8 0 84 92 0 17 84 0 93 84 84 0 81 78 0 0 -19 72 5 0 10 0 63 60 0 S0 13 53 3
 0 9 0 102 0 0 103 0 52 255 54 15 0 104 105 0 0 +.05 .0295015449651488 0 0 -1 0
 0 .38268343236509 .923879532511287 1 0 0 31 55 13 0 58 0 0 0 +.05 .027452296065
34925 0 0 1 0 1 0 0 .000848826686975114 29 255 56 8 0 59 0 0 .05 .02950154496514
88 0 19 57 1 0 9 103 0 106 0 V0 16 58 9 0 ?107 0 0 55 0 0 9 18 255 59 6 0 108 0
 0 56 ?9 17 108 0 109 108 108 59 0 0 0 0 ?15 109 7 0 108 104 0 14 104 2 0 ?0 102
 110 53 54 +0 0 0 102 106 14 102 12 0 ?104 0 111 53 105 +0 0 104 0 106 15 110 10
 0 107 104 109 13 106 4 0 0 0 0 0 0 57 102 17 107 0 110 107 107 0 112 58 0 0 +17
 112 0 111 112 112 0 107 58 0 0 -15 111 11 0 112 102 0 50 105 14 0 102 0 54 0 +.
05 .02745229606534925 0 0 -1 0 0 0 -1 19 103 5 0 9 0 57 53 0 S0 13 48 3 0 8 0 11
3 0 0 114 0 51 49 18 0 115 116 0 0 +.05 .0254030471655497 0 0 1 0 .0004098497799
599085 1 0 0 31 50 16 0 52 117 0 0 +.05 .02745229606534925 0 0 -1 0 1 0 0 .00040
98497799599085 19 51 1 0 8 114 0 118 0 V0 16 52 12 0 ?119 0 120 50 0 0 8 17 119
 0 121 119 119 0 122 52 0 0 +16 120 6 0 ?123 52 0 117 0 0 8 17 123 0 124 123 123
 0 125 120 0 0 +31 117 10 0 120 0 50 0 +.05 .0254030471655497 0 0 1 0 1 0 0 .000
4098497799599085 15 124 7 0 123 115 0 17 125 0 126 125 125 0 123 120 0 0 -15 126
 8 0 125 127 0 14 127 9 0 ?115 113 126 48 128 +0 0 115 113 118 14 115 2 0 ?0 127
 121 48 49 +0 0 0 127 118 14 113 15 0 ?127 0 129 48 116 +0 0 127 0 118 50 128 11
 0 127 0 116 0 +.05 .0254030471655497 0 0 -1 0 0 0 -1 13 118 4 0 0 0 0 0 0 51 11
3 50 116 17 0 113 128 49 0 +.05 .02745229606534925 0 0 1 0 0 0 1 15 129 14 0 122
 113 0 17 122 0 129 122 122 0 119 52 0 0 -15 121 13 0 119 115 124 19 114 5 0 8 0
 51 48 0 S0 13 41 3 0 7 0 130 0 0 131 0 52 42 15 0 132 133 0 0 +.05 .01174138783
355276 0 0 1 0 0 .38268343236509 .923879532511287 1 0 0 31 43 13 0 46 0 0 0 +.05
 .0137906367333523 0 0 -1 0 1 0 0 .000848826686975114 29 44 8 0 47 0 0 .05 .0117
4138783355276 0 19 45 1 0 7 131 0 134 0 V0 16 46 9 0 ?135 0 0 43 0 0 7 18 47 6 0
 136 0 0 44 ?7 17 136 0 137 136 136 47 0 0 0 0 ?15 137 7 0 136 132 0 14 132 2 0
 ?0 130 138 41 42 +0 0 0 130 134 14 130 12 0 ?132 0 139 41 133 +0 0 132 0 134 15
 138 10 0 135 132 137 13 134 4 0 0 0 0 0 0 45 130 17 135 0 138 135 135 0 140 46
 0 0 +17 140 0 139 140 140 0 135 46 0 0 -15 139 11 0 140 130 0 50 133 14 0 130 0
 42 0 +.05 .0137906367333523 0 0 1 0 0 0 1 19 131 5 0 7 0 45 41 0 S0 13 36 3 0 6
 0 141 0 0 142 0 51 37 18 0 143 144 0 0 +.05 .01583988563315185 0 0 -1 0 .000409
8497799599085 1 0 0 31 38 16 0 40 145 0 0 +.05 .0137906367333523 0 0 1 0 1 0 0 .
0004098497799599085 19 39 1 0 6 142 0 146 0 V0 16 40 12 0 ?147 0 148 38 0 0 6 17
 147 0 149 147 147 0 150 40 0 0 +16 148 6 0 ?151 40 0 145 0 0 6 17 151 0 152 151
 151 0 153 148 0 0 +31 145 10 0 148 0 38 0 +.05 .01583988563315185 0 0 -1 0 1 0
 0 .0004098497799599085 15 152 7 0 151 143 0 17 153 0 154 153 153 0 151 148 0 0
 -15 154 8 0 153 155 0 14 155 9 0 ?143 141 154 36 156 +0 0 143 141 146 14 143 2
 0 ?0 155 149 36 37 +0 0 0 155 146 14 141 15 0 ?155 0 157 36 144 +0 0 155 0 146
 50 156 11 0 155 0 144 0 +.05 .01583988563315185 0 0 1 0 0 0 1 13 146 4 0 0 0 0
 0 0 39 141 50 144 17 0 141 156 37 0 +.05 .0137906367333523 0 0 -1 0 0 0 -1 15 1
57 14 0 150 141 0 17 150 0 157 150 150 0 147 40 0 0 -15 149 13 0 147 143 152 19
 142 5 0 6 0 39 36 0 S0 13 29 3 0 5 0 158 0 0 159 0 52 30 15 0 160 161 0 0 +.058
8800785657982 .0206214663993508 0 -1 0 0 0 .38268343236509 .923879532511287 0 1
 0 31 31 13 0 34 0 0 0 +.0568308296659986 .0206214663993508 0 1 0 0 0 1 0 .00084
8826686975114 29 32 8 0 35 0 0 .0588800785657982 .0206214663993508 0 19 33 1 0 5
 159 0 162 0 V0 16 34 9 0 ?163 0 0 31 0 0 5 18 35 6 0 164 0 0 32 ?5 17 164 0 165
 164 164 35 0 0 0 0 ?15 165 7 0 164 160 0 14 160 2 0 ?0 158 166 29 30 +0 0 0 158
 162 14 158 12 0 ?160 0 167 29 161 +0 0 160 0 162 15 166 10 0 163 160 165 13 162
 4 0 0 0 0 0 0 33 158 17 163 0 166 163 163 0 168 34 0 0 +17 168 0 167 168 168 0
 163 34 0 0 -15 167 11 0 168 158 0 50 161 14 0 158 0 30 0 +.0568308296659986 .02
06214663993508 0 -1 0 0 0 0 1 19 159 5 0 5 0 33 29 0 S0 13 24 3 0 4 0 169 0 0 17
0 0 51 25 18 0 171 172 0 0 +.0547815807661991 .0206214663993508 0 1 0 0 .0004098
497799599085 0 1 0 31 26 16 0 28 173 0 0 +.0568308296659986 .0206214663993508 0
 -1 0 0 0 1 0 .0004098497799599085 19 27 1 0 4 170 0 174 0 V0 16 28 12 0 ?175 0
 176 26 0 0 4 17 175 0 177 175 175 0 178 28 0 0 +16 176 6 0 ?179 28 0 173 0 0 4
 17 179 0 180 179 179 0 181 176 0 0 +31 173 10 0 176 0 26 0 +.0547815807661991 .
0206214663993508 0 1 0 0 0 1 0 .0004098497799599085 15 180 7 0 179 171 0 17 181
 0 182 181 181 0 179 176 0 0 -15 182 8 0 181 183 0 14 183 9 0 ?171 169 182 24 18
4 +0 0 171 169 174 14 171 2 0 ?0 183 177 24 25 +0 0 0 183 174 14 169 15 0 ?183 0
 185 24 172 +0 0 183 0 174 50 184 11 0 183 0 172 0 +.0547815807661991 .020621466
3993508 0 -1 0 0 0 0 1 13 174 4 0 0 0 0 0 0 27 169 50 172 17 0 169 184 25 0 +.05
68308296659986 .0206214663993508 0 1 0 0 0 0 -1 15 185 14 0 178 169 0 17 178 0 1
85 178 178 0 175 28 0 0 -15 177 13 0 175 171 180 19 170 5 0 4 0 27 24 0 S0 13 17
 3 0 3 0 186 0 0 187 0 52 18 15 0 188 189 0 0 +.04111992143420215 .0206214663993
508 0 1 0 0 0 .38268343236509 .923879532511287 0 1 0 31 19 13 0 22 0 0 0 +.04316
91703340017 .0206214663993508 0 -1 0 0 0 1 0 .000848826686975114 29 20 8 0 23 0
 0 .04111992143420215 .0206214663993508 0 19 21 1 0 3 187 0 190 0 V0 16 22 9 0 ?
191 0 0 19 0 0 3 18 23 6 0 192 0 0 20 ?3 17 192 0 193 192 192 23 0 0 0 0 ?15 193
 7 0 192 188 0 14 188 2 0 ?0 186 194 17 18 +0 0 0 186 190 14 186 12 0 ?188 0 195
 17 189 +0 0 188 0 190 15 194 10 0 191 188 193 13 190 4 0 0 0 0 0 0 21 186 17 19
1 0 194 191 191 0 196 22 0 0 +17 196 0 195 196 196 0 191 22 0 0 -15 195 11 0 196
 186 0 50 189 14 0 186 0 18 0 +.0431691703340017 .0206214663993508 0 1 0 0 0 0 -
1 19 187 5 0 3 0 21 17 0 S0 13 12 3 0 2 0 197 0 0 198 0 51 13 18 0 199 200 0 0 +
.0452184192338012 .0206214663993508 0 -1 0 0 .0004098497799599085 0 1 0 31 14 16
 0 16 201 0 0 +.0431691703340017 .0206214663993508 0 1 0 0 0 1 0 .00040984977995
99085 19 15 1 0 2 198 0 202 0 V0 16 16 12 0 ?203 0 204 14 0 0 2 17 203 0 205 203
 203 0 206 16 0 0 +16 204 6 0 ?207 16 0 201 0 0 2 17 207 0 208 207 207 0 209 204
 0 0 +31 201 10 0 204 0 14 0 +.0452184192338012 .0206214663993508 0 -1 0 0 0 1 0
 .0004098497799599085 15 208 7 0 207 199 0 17 209 0 210 209 209 0 207 204 0 0 -1
5 210 8 0 209 211 0 14 211 9 0 ?199 197 210 12 212 +0 0 199 197 202 14 199 2 0 ?
0 211 205 12 13 +0 0 0 211 202 14 197 15 0 ?211 0 213 12 200 +0 0 211 0 202 50 2
12 11 0 211 0 200 0 +.0452184192338012 .0206214663993508 0 1 0 0 0 0 -1 13 202 4
 0 0 0 0 0 0 15 197 50 200 17 0 197 212 13 0 +.0431691703340017 .020621466399350
8 0 -1 0 0 0 0 1 15 213 14 0 206 197 0 17 206 0 213 206 206 0 203 16 0 0 -15 205
 13 0 203 199 208 19 198 5 0 2 0 15 12 0 S0 1 0 
