  0
SECTION
  2
HEADER
  9
$ACADVER
  1
AC1014
  9
$HANDSEED
  5
FFFF
  9
$MEASUREMENT
 70
     1
  0
ENDSEC
  0
SECTION
  2
TABLES
  0
TABLE
  2
VPORT
  5
8
330
0
100
AcDbSymbolTable
 70
     4
  0
VPORT
  5
2E
330
8
100
AcDbSymbolTableRecord
100
AcDbViewportTableRecord
  2
*ACTIVE
 70
     0
 10
0.0
 20
0.0
 11
1.0
 21
1.0
 12
210.0
 22
148.5
 13
0.0
 23
0.0
 14
10.0
 24
10.0
 15
10.0
 25
10.0
 16
0.0
 26
0.0
 36
1.0
 17
0.0
 27
0.0
 37
0.0
 40
341.0
 41
1.24
 42
50.0
 43
0.0
 44
0.0
 50
0.0
 51
0.0
 71
     0
 72
   100
 73
     1
 74
     3
 75
     0
 76
     0
 77
     0
 78
     0
  0
ENDTAB
  0
TABLE
  2
LTYPE
  5
5
330
0
100
AcDbSymbolTable
 70
     1
  0
LTYPE
  5
14
330
5
100
AcDbSymbolTableRecord
100
AcDbLinetypeTableRecord
  2
BYBLOCK
 70
     0
  3

 72
    65
 73
     0
 40
0.0
  0
LTYPE
  5
15
330
5
100
AcDbSymbolTableRecord
100
AcDbLinetypeTableRecord
  2
BYLAYER
 70
     0
  3

 72
    65
 73
     0
 40
0.0
  0
LTYPE
  5
16
330
5
100
AcDbSymbolTableRecord
100
AcDbLinetypeTableRecord
  2
CONTINUOUS
 70
     0
  3
Solid line
 72
    65
 73
     0
 40
0.0
  0
ENDTAB
  0
TABLE
  2
LAYER
  5
2
100
AcDbSymbolTable
 70
2
  0
LAYER
  5
50
100
AcDbSymbolTableRecord
100
AcDbLayerTableRecord
  2
0
 70
0
  6
CONTINUOUS
  0
LAYER
  5
51
100
AcDbSymbolTableRecord
100
AcDbLayerTableRecord
  2
Layer_1
 70
0
  6
CONTINUOUS
  0
ENDTAB
  0
TABLE
  2
STYLE
  5
3
330
0
100
AcDbSymbolTable
 70
     1
  0
STYLE
  5
11
330
3
100
AcDbSymbolTableRecord
100
AcDbTextStyleTableRecord
  2
STANDARD
 70
     0
 40
0.0
 41
1.0
 50
0.0
 71
     0
 42
2.5
  3
txt
  4

  0
ENDTAB
  0
TABLE
  2
VIEW
  5
6
330
0
100
AcDbSymbolTable
 70
     0
  0
ENDTAB
  0
TABLE
  2
UCS
  5
7
330
0
100
AcDbSymbolTable
 70
     0
  0
ENDTAB
  0
TABLE
  2
APPID
  5
9
330
0
100
AcDbSymbolTable
 70
     2
  0
APPID
  5
12
330
9
100
AcDbSymbolTableRecord
100
AcDbRegAppTableRecord
  2
ACAD
 70
     0
  0
ENDTAB
  0
TABLE
  2
DIMSTYLE
  5
A
330
0
100
AcDbSymbolTable
 70
     1
  0
DIMSTYLE
105
27
330
A
100
AcDbSymbolTableRecord
100
AcDbDimStyleTableRecord
  2
ISO-25
 70
     0
  3

  4

  5

  6

  7

 40
1.0
 41
2.5
 42
0.625
 43
3.75
 44
1.25
 45
0.0
 46
0.0
 47
0.0
 48
0.0
140
2.5
141
2.5
142
0.0
143
0.03937007874016
144
1.0
145
0.0
146
1.0
147
0.625
 71
     0
 72
     0
 73
     0
 74
     0
 75
     0
 76
     0
 77
     1
 78
     8
170
     0
171
     3
172
     1
173
     0
174
     0
175
     0
176
     0
177
     0
178
     0
270
     2
271
     2
272
     2
273
     2
274
     3
340
11
275
     0
280
     0
281
     0
282
     0
283
     0
284
     8
285
     0
286
     0
287
     3
288
     0
  0
ENDTAB
  0
TABLE
  2
BLOCK_RECORD
  5
1
330
0
100
AcDbSymbolTable
 70
     1
  0
BLOCK_RECORD
  5
1F
330
1
100
AcDbSymbolTableRecord
100
AcDbBlockTableRecord
  2
*MODEL_SPACE
  0
BLOCK_RECORD
  5
1B
330
1
100
AcDbSymbolTableRecord
100
AcDbBlockTableRecord
  2
*PAPER_SPACE
  0
ENDTAB
  0
ENDSEC
  0
SECTION
  2
BLOCKS
  0
BLOCK
  5
20
330
1F
100
AcDbEntity
  8
0
100
AcDbBlockBegin
  2
*MODEL_SPACE
 70
     0
 10
0.0
 20
0.0
 30
0.0
  3
*MODEL_SPACE
  1

  0
ENDBLK
  5
21
330
1F
100
AcDbEntity
  8
0
100
AcDbBlockEnd
  0
BLOCK
  5
1C
330
1B
100
AcDbEntity
 67
     1
  8
0
100
AcDbBlockBegin
  2
*PAPER_SPACE
  1

  0
ENDBLK
  5
1D
330
1B
100
AcDbEntity
 67
     1
  8
0
100
AcDbBlockEnd
  0
ENDSEC
  0
SECTION
  2
ENTITIES
  0
SPLINE
  5
100
100
AcDbEntity
  8
Layer_1
 62
7
100
AcDbSpline
 70
8
 71
3
 72
8
 73
4
 74
0
 40
0
 40
0
 40
0
 40
0
 40
1
 40
1
 40
1
 40
1
 10
39.423172
 20
187.106892
 30
0.0
 10
39.292921
 20
187.248202
 30
0.0
 10
39.184201
 20
187.342533
 30
0.0
 10
39.097012
 20
187.389887
 30
0.0
  0
SPLINE
  5
101
100
AcDbEntity
  8
Layer_1
 62
7
100
AcDbSpline
 70
8
 71
3
 72
8
 73
4
 74
0
 40
0
 40
0
 40
0
 40
0
 40
1
 40
1
 40
1
 40
1
 10
39.097012
 20
187.389887
 30
0.0
 10
38.929898
 20
187.480647
 30
0.0
 10
38.752857
 20
187.496824
 30
0.0
 10
38.565887
 20
187.438417
 30
0.0
  0
SPLINE
  5
102
100
AcDbEntity
  8
Layer_1
 62
7
100
AcDbSpline
 70
8
 71
3
 72
8
 73
4
 74
0
 40
0
 40
0
 40
0
 40
0
 40
1
 40
1
 40
1
 40
1
 10
38.565887
 20
187.438417
 30
0.0
 10
38.378917
 20
187.380010
 30
0.0
 10
38.238079
 20
187.263616
 30
0.0
 10
38.143372
 20
187.089237
 30
0.0
  0
SPLINE
  5
103
100
AcDbEntity
  8
Layer_1
 62
7
100
AcDbSpline
 70
8
 71
3
 72
8
 73
4
 74
0
 40
0
 40
0
 40
0
 40
0
 40
1
 40
1
 40
1
 40
1
 10
38.143372
 20
187.089237
 30
0.0
 10
38.062476
 20
186.940288
 30
0.0
 10
38.025270
 20
186.715862
 30
0.0
 10
38.031752
 20
186.415959
 30
0.0
  0
LWPOLYLINE
  5
104
100
AcDbEntity
  8
Layer_1
 62
7
100
AcDbPolyline
 90
2
 70
0
 10
40.574452
 20
189.226689
 30
0.0
 10
39.423172
 20
187.106892
 30
0.0
  0
SPLINE
  5
105
100
AcDbEntity
  8
Layer_1
 62
7
100
AcDbSpline
 70
8
 71
3
 72
8
 73
4
 74
0
 40
0
 40
0
 40
0
 40
0
 40
1
 40
1
 40
1
 40
1
 10
38.040863
 20
186.029947
 30
0.0
 10
38.057960
 20
185.333807
 30
0.0
 10
37.932340
 20
184.738700
 30
0.0
 10
37.664004
 20
184.244626
 30
0.0
  0
SPLINE
  5
106
100
AcDbEntity
  8
Layer_1
 62
7
100
AcDbSpline
 70
8
 71
3
 72
8
 73
4
 74
0
 40
0
 40
0
 40
0
 40
0
 40
1
 40
1
 40
1
 40
1
 10
37.664004
 20
184.244626
 30
0.0
 10
37.271365
 20
183.521679
 30
0.0
 10
36.680969
 20
183.049623
 30
0.0
 10
35.892815
 20
182.828457
 30
0.0
  0
SPLINE
  5
107
100
AcDbEntity
  8
Layer_1
 62
7
100
AcDbSpline
 70
8
 71
3
 72
8
 73
4
 74
0
 40
0
 40
0
 40
0
 40
0
 40
1
 40
1
 40
1
 40
1
 10
35.892815
 20
182.828457
 30
0.0
 10
35.108294
 20
182.605318
 30
0.0
 10
34.345478
 20
182.695001
 30
0.0
 10
33.604367
 20
183.097505
 30
0.0
  0
SPLINE
  5
108
100
AcDbEntity
  8
Layer_1
 62
7
100
AcDbSpline
 70
8
 71
3
 72
8
 73
4
 74
0
 40
0
 40
0
 40
0
 40
0
 40
1
 40
1
 40
1
 40
1
 10
33.604367
 20
183.097505
 30
0.0
 10
33.248343
 20
183.290865
 30
0.0
 10
32.940345
 20
183.563992
 30
0.0
 10
32.680374
 20
183.916887
 30
0.0
  0
LWPOLYLINE
  5
109
100
AcDbEntity
  8
Layer_1
 62
7
100
AcDbPolyline
 90
2
 70
0
 10
38.031752
 20
186.415959
 30
0.0
 10
38.040863
 20
186.029947
 30
0.0
  0
SPLINE
  5
10a
100
AcDbEntity
  8
Layer_1
 62
7
100
AcDbSpline
 70
8
 71
3
 72
8
 73
4
 74
0
 40
0
 40
0
 40
0
 40
0
 40
1
 40
1
 40
1
 40
1
 10
33.849412
 20
186.069379
 30
0.0
 10
33.987118
 20
185.820525
 30
0.0
 10
34.137710
 20
185.651704
 30
0.0
 10
34.301191
 20
185.562916
 30
0.0
  0
SPLINE
  5
10b
100
AcDbEntity
  8
Layer_1
 62
7
100
AcDbSpline
 70
8
 71
3
 72
8
 73
4
 74
0
 40
0
 40
0
 40
0
 40
0
 40
1
 40
1
 40
1
 40
1
 10
34.301191
 20
185.562916
 30
0.0
 10
34.493734
 20
185.458344
 30
0.0
 10
34.683178
 20
185.426023
 30
0.0
 10
34.869521
 20
185.465952
 30
0.0
  0
SPLINE
  5
10c
100
AcDbEntity
  8
Layer_1
 62
7
100
AcDbSpline
 70
8
 71
3
 72
8
 73
4
 74
0
 40
0
 40
0
 40
0
 40
0
 40
1
 40
1
 40
1
 40
1
 10
34.869521
 20
185.465952
 30
0.0
 10
35.061470
 20
185.507542
 30
0.0
 10
35.202825
 20
185.611893
 30
0.0
 10
35.293586
 20
185.779007
 30
0.0
  0
SPLINE
  5
10d
100
AcDbEntity
  8
Layer_1
 62
7
100
AcDbSpline
 70
8
 71
3
 72
8
 73
4
 74
0
 40
0
 40
0
 40
0
 40
0
 40
1
 40
1
 40
1
 40
1
 10
35.293586
 20
185.779007
 30
0.0
 10
35.352777
 20
185.887994
 30
0.0
 10
35.378475
 20
186.182180
 30
0.0
 10
35.370680
 20
186.661567
 30
0.0
  0
SPLINE
  5
10e
100
AcDbEntity
  8
Layer_1
 62
7
100
AcDbSpline
 70
8
 71
3
 72
8
 73
4
 74
0
 40
0
 40
0
 40
0
 40
0
 40
1
 40
1
 40
1
 40
1
 10
35.370680
 20
186.661567
 30
0.0
 10
35.355775
 20
187.422380
 30
0.0
 10
35.506168
 20
188.093418
 30
0.0
 10
35.821857
 20
188.674681
 30
0.0
  0
SPLINE
  5
10f
100
AcDbEntity
  8
Layer_1
 62
7
100
AcDbSpline
 70
8
 71
3
 72
8
 73
4
 74
0
 40
0
 40
0
 40
0
 40
0
 40
1
 40
1
 40
1
 40
1
 10
35.821857
 20
188.674681
 30
0.0
 10
36.202658
 20
189.375831
 30
0.0
 10
36.779040
 20
189.843738
 30
0.0
 10
37.551001
 20
190.078401
 30
0.0
  0
SPLINE
  5
110
100
AcDbEntity
  8
Layer_1
 62
7
100
AcDbSpline
 70
8
 71
3
 72
8
 73
4
 74
0
 40
0
 40
0
 40
0
 40
0
 40
1
 40
1
 40
1
 40
1
 10
37.551001
 20
190.078401
 30
0.0
 10
38.328570
 20
190.314725
 30
0.0
 10
39.064296
 20
190.244459
 30
0.0
 10
39.758180
 20
189.867605
 30
0.0
  0
SPLINE
  5
111
100
AcDbEntity
  8
Layer_1
 62
7
100
AcDbSpline
 70
8
 71
3
 72
8
 73
4
 74
0
 40
0
 40
0
 40
0
 40
0
 40
1
 40
1
 40
1
 40
1
 10
39.758180
 20
189.867605
 30
0.0
 10
40.063343
 20
189.701868
 30
0.0
 10
40.335434
 20
189.488230
 30
0.0
 10
40.574454
 20
189.226692
 30
0.0
  0
LWPOLYLINE
  5
112
100
AcDbEntity
  8
Layer_1
 62
7
100
AcDbPolyline
 90
2
 70
0
 10
32.680374
 20
183.916887
 30
0.0
 10
33.849412
 20
186.069379
 30
0.0
  0
LWPOLYLINE
  5
113
100
AcDbEntity
  8
Layer_1
 62
7
100
AcDbPolyline
 90
1
 70
1
 10
40.574454
 20
189.226692
 30
0.0
  0
LWPOLYLINE
  5
114
100
AcDbEntity
  8
Layer_1
 62
7
100
AcDbPolyline
 90
4
 70
1
 10
43.897145
 20
187.379764
 30
0.0
 10
39.857304
 20
179.941404
 30
0.0
 10
37.644870
 20
181.142997
 30
0.0
 10
41.684710
 20
188.581358
 30
0.0
  0
SPLINE
  5
115
100
AcDbEntity
  8
Layer_1
 62
7
100
AcDbSpline
 70
8
 71
3
 72
8
 73
4
 74
0
 40
0
 40
0
 40
0
 40
0
 40
1
 40
1
 40
1
 40
1
 10
45.049893
 20
181.030690
 30
0.0
 10
44.862452
 20
180.685564
 30
0.0
 10
44.791655
 20
180.425280
 30
0.0
 10
44.837501
 20
180.249838
 30
0.0
  0
SPLINE
  5
116
100
AcDbEntity
  8
Layer_1
 62
7
100
AcDbSpline
 70
8
 71
3
 72
8
 73
4
 74
0
 40
0
 40
0
 40
0
 40
0
 40
1
 40
1
 40
1
 40
1
 10
44.837501
 20
180.249838
 30
0.0
 10
44.888958
 20
180.076052
 30
0.0
 10
45.078168
 20
179.900370
 30
0.0
 10
45.405132
 20
179.722793
 30
0.0
  0
LWPOLYLINE
  5
117
100
AcDbEntity
  8
Layer_1
 62
7
100
AcDbPolyline
 90
3
 70
0
 10
45.237685
 20
186.651705
 30
0.0
 10
47.450121
 20
185.450111
 30
0.0
 10
45.049893
 20
181.030690
 30
0.0
  0
SPLINE
  5
118
100
AcDbEntity
  8
Layer_1
 62
7
100
AcDbSpline
 70
8
 71
3
 72
8
 73
4
 74
0
 40
0
 40
0
 40
0
 40
0
 40
1
 40
1
 40
1
 40
1
 10
43.759034
 20
177.822340
 30
0.0
 10
42.952531
 20
178.260359
 30
0.0
 10
42.451303
 20
178.836019
 30
0.0
 10
42.255351
 20
179.549321
 30
0.0
  0
SPLINE
  5
119
100
AcDbEntity
  8
Layer_1
 62
7
100
AcDbSpline
 70
8
 71
3
 72
8
 73
4
 74
0
 40
0
 40
0
 40
0
 40
0
 40
1
 40
1
 40
1
 40
1
 10
42.255351
 20
179.549321
 30
0.0
 10
42.061369
 20
180.266258
 30
0.0
 10
42.191281
 20
181.042509
 30
0.0
 10
42.645084
 20
181.878076
 30
0.0
  0
LWPOLYLINE
  5
11a
100
AcDbEntity
  8
Layer_1
 62
7
100
AcDbPolyline
 90
4
 70
0
 10
45.405132
 20
179.722793
 30
0.0
 10
45.519564
 20
179.660644
 30
0.0
 10
44.347567
 20
177.502702
 30
0.0
 10
43.759034
 20
177.822340
 30
0.0
  0
LWPOLYLINE
  5
11b
100
AcDbEntity
  8
Layer_1
 62
7
100
AcDbPolyline
 90
2
 70
0
 10
42.645084
 20
181.878076
 30
0.0
 10
45.237685
 20
186.651705
 30
0.0
  0
LWPOLYLINE
  5
11c
100
AcDbEntity
  8
Layer_1
 62
7
100
AcDbPolyline
 90
6
 70
1
 10
54.485226
 20
181.629282
 30
0.0
 10
46.972174
 20
175.526830
 30
0.0
 10
48.022299
 20
185.139356
 30
0.0
 10
50.583492
 20
183.748349
 30
0.0
 10
50.003878
 20
181.056976
 30
0.0
 10
52.016672
 20
182.969976
 30
0.0
  0
SPLINE
  5
11d
100
AcDbEntity
  8
Layer_1
 62
7
100
AcDbSpline
 70
8
 71
3
 72
8
 73
4
 74
0
 40
0
 40
0
 40
0
 40
0
 40
1
 40
1
 40
1
 40
1
 10
55.032908
 20
175.439463
 30
0.0
 10
54.836733
 20
175.546007
 30
0.0
 10
54.681082
 20
175.592906
 30
0.0
 10
54.565954
 20
175.580161
 30
0.0
  0
SPLINE
  5
11e
100
AcDbEntity
  8
Layer_1
 62
7
100
AcDbSpline
 70
8
 71
3
 72
8
 73
4
 74
0
 40
0
 40
0
 40
0
 40
0
 40
1
 40
1
 40
1
 40
1
 10
54.565954
 20
175.580161
 30
0.0
 10
54.454459
 20
175.565442
 30
0.0
 10
54.361223
 20
175.489058
 30
0.0
 10
54.286247
 20
175.351009
 30
0.0
  0
SPLINE
  5
11f
100
AcDbEntity
  8
Layer_1
 62
7
100
AcDbSpline
 70
8
 71
3
 72
8
 73
4
 74
0
 40
0
 40
0
 40
0
 40
0
 40
1
 40
1
 40
1
 40
1
 10
54.286247
 20
175.351009
 30
0.0
 10
54.201406
 20
175.194795
 30
0.0
 10
54.186953
 20
175.068566
 30
0.0
 10
54.242888
 20
174.972324
 30
0.0
  0
SPLINE
  5
120
100
AcDbEntity
  8
Layer_1
 62
7
100
AcDbSpline
 70
8
 71
3
 72
8
 73
4
 74
0
 40
0
 40
0
 40
0
 40
0
 40
1
 40
1
 40
1
 40
1
 10
54.242888
 20
174.972324
 30
0.0
 10
54.300799
 20
174.879718
 30
0.0
 10
54.458721
 20
174.763372
 30
0.0
 10
54.716655
 20
174.623286
 30
0.0
  0
LWPOLYLINE
  5
121
100
AcDbEntity
  8
Layer_1
 62
7
100
AcDbPolyline
 90
3
 70
0
 10
57.376700
 20
176.311773
 30
0.0
 10
56.476985
 20
174.655172
 30
0.0
 10
55.032908
 20
175.439463
 30
0.0
  0
SPLINE
  5
122
100
AcDbEntity
  8
Layer_1
 62
7
100
AcDbSpline
 70
8
 71
3
 72
8
 73
4
 74
0
 40
0
 40
0
 40
0
 40
0
 40
1
 40
1
 40
1
 40
1
 10
53.311748
 20
172.634179
 30
0.0
 10
52.494342
 20
173.078120
 30
0.0
 10
51.975040
 20
173.611847
 30
0.0
 10
51.753843
 20
174.235362
 30
0.0
  0
SPLINE
  5
123
100
AcDbEntity
  8
Layer_1
 62
7
100
AcDbSpline
 70
8
 71
3
 72
8
 73
4
 74
0
 40
0
 40
0
 40
0
 40
0
 40
1
 40
1
 40
1
 40
1
 10
51.753843
 20
174.235362
 30
0.0
 10
51.534624
 20
174.862506
 30
0.0
 10
51.625280
 20
175.544817
 30
0.0
 10
52.025811
 20
176.282296
 30
0.0
  0
LWPOLYLINE
  5
124
100
AcDbEntity
  8
Layer_1
 62
7
100
AcDbPolyline
 90
4
 70
0
 10
54.716655
 20
174.623286
 30
0.0
 10
56.204327
 20
173.815318
 30
0.0
 10
55.050087
 20
171.690072
 30
0.0
 10
53.311748
 20
172.634179
 30
0.0
  0
SPLINE
  5
125
100
AcDbEntity
  8
Layer_1
 62
7
100
AcDbSpline
 70
8
 71
3
 72
8
 73
4
 74
0
 40
0
 40
0
 40
0
 40
0
 40
1
 40
1
 40
1
 40
1
 10
53.609191
 20
179.197697
 30
0.0
 10
53.995911
 20
179.909745
 30
0.0
 10
54.499258
 20
180.351455
 30
0.0
 10
55.119233
 20
180.522825
 30
0.0
  0
SPLINE
  5
126
100
AcDbEntity
  8
Layer_1
 62
7
100
AcDbSpline
 70
8
 71
3
 72
8
 73
4
 74
0
 40
0
 40
0
 40
0
 40
0
 40
1
 40
1
 40
1
 40
1
 10
55.119233
 20
180.522825
 30
0.0
 10
55.742839
 20
180.692223
 30
0.0
 10
56.425199
 20
180.575670
 30
0.0
 10
57.166310
 20
180.173166
 30
0.0
  0
LWPOLYLINE
  5
127
100
AcDbEntity
  8
Layer_1
 62
7
100
AcDbPolyline
 90
2
 70
0
 10
52.025811
 20
176.282296
 30
0.0
 10
53.609191
 20
179.197697
 30
0.0
  0
SPLINE
  5
128
100
AcDbEntity
  8
Layer_1
 62
7
100
AcDbSpline
 70
8
 71
3
 72
8
 73
4
 74
0
 40
0
 40
0
 40
0
 40
0
 40
1
 40
1
 40
1
 40
1
 10
56.518390
 20
177.758819
 30
0.0
 10
56.136937
 20
177.965990
 30
0.0
 10
55.879127
 20
177.946057
 30
0.0
 10
55.744959
 20
177.699020
 30
0.0
  0
SPLINE
  5
129
100
AcDbEntity
  8
Layer_1
 62
7
100
AcDbSpline
 70
8
 71
3
 72
8
 73
4
 74
0
 40
0
 40
0
 40
0
 40
0
 40
1
 40
1
 40
1
 40
1
 10
55.744959
 20
177.699020
 30
0.0
 10
55.666036
 20
177.553704
 30
0.0
 10
55.656199
 20
177.427321
 30
0.0
 10
55.715447
 20
177.319871
 30
0.0
  0
SPLINE
  5
12a
100
AcDbEntity
  8
Layer_1
 62
7
100
AcDbSpline
 70
8
 71
3
 72
8
 73
4
 74
0
 40
0
 40
0
 40
0
 40
0
 40
1
 40
1
 40
1
 40
1
 10
55.715447
 20
177.319871
 30
0.0
 10
55.776673
 20
177.216049
 30
0.0
 10
55.923541
 20
177.101000
 30
0.0
 10
56.156049
 20
176.974722
 30
0.0
  0
LWPOLYLINE
  5
12b
100
AcDbEntity
  8
Layer_1
 62
7
100
AcDbPolyline
 90
4
 70
0
 10
57.166310
 20
180.173166
 30
0.0
 10
59.089927
 20
179.128432
 30
0.0
 10
57.929768
 20
176.992287
 30
0.0
 10
56.518390
 20
177.758819
 30
0.0
  0
LWPOLYLINE
  5
12c
100
AcDbEntity
  8
Layer_1
 62
7
100
AcDbPolyline
 90
2
 70
0
 10
56.156049
 20
176.974722
 30
0.0
 10
57.376700
 20
176.311773
 30
0.0
  0
SPLINE
  5
12d
100
AcDbEntity
  8
Layer_1
 62
7
100
AcDbSpline
 70
8
 71
3
 72
8
 73
4
 74
0
 40
0
 40
0
 40
0
 40
0
 40
1
 40
1
 40
1
 40
1
 10
63.204188
 20
176.893936
 30
0.0
 10
64.068818
 20
176.424347
 30
0.0
 10
64.622676
 20
175.845977
 30
0.0
 10
64.865763
 20
175.158825
 30
0.0
  0
SPLINE
  5
12e
100
AcDbEntity
  8
Layer_1
 62
7
100
AcDbSpline
 70
8
 71
3
 72
8
 73
4
 74
0
 40
0
 40
0
 40
0
 40
0
 40
1
 40
1
 40
1
 40
1
 10
64.865763
 20
175.158825
 30
0.0
 10
65.135722
 20
174.391216
 30
0.0
 10
65.070436
 20
173.638673
 30
0.0
 10
64.669904
 20
172.901194
 30
0.0
  0
SPLINE
  5
12f
100
AcDbEntity
  8
Layer_1
 62
7
100
AcDbSpline
 70
8
 71
3
 72
8
 73
4
 74
0
 40
0
 40
0
 40
0
 40
0
 40
1
 40
1
 40
1
 40
1
 10
64.669904
 20
172.901194
 30
0.0
 10
64.261481
 20
172.149184
 30
0.0
 10
63.588405
 20
171.693805
 30
0.0
 10
62.650677
 20
171.535056
 30
0.0
  0
LWPOLYLINE
  5
130
100
AcDbEntity
  8
Layer_1
 62
7
100
AcDbPolyline
 90
5
 70
0
 10
61.491338
 20
175.234381
 30
0.0
 10
58.537668
 20
169.795931
 30
0.0
 10
56.325237
 20
170.997522
 30
0.0
 10
60.365078
 20
178.435882
 30
0.0
 10
63.204188
 20
176.893936
 30
0.0
  0
SPLINE
  5
131
100
AcDbEntity
  8
Layer_1
 62
7
100
AcDbSpline
 70
8
 71
3
 72
8
 73
4
 74
0
 40
0
 40
0
 40
0
 40
0
 40
1
 40
1
 40
1
 40
1
 10
61.380045
 20
173.834082
 30
0.0
 10
61.845056
 20
173.581530
 30
0.0
 10
62.186080
 20
173.655064
 30
0.0
 10
62.403117
 20
174.054683
 30
0.0
  0
SPLINE
  5
132
100
AcDbEntity
  8
Layer_1
 62
7
100
AcDbSpline
 70
8
 71
3
 72
8
 73
4
 74
0
 40
0
 40
0
 40
0
 40
0
 40
1
 40
1
 40
1
 40
1
 10
62.403117
 20
174.054683
 30
0.0
 10
62.594503
 20
174.407074
 30
0.0
 10
62.421363
 20
174.729276
 30
0.0
 10
61.883696
 20
175.021287
 30
0.0
  0
LWPOLYLINE
  5
133
100
AcDbEntity
  8
Layer_1
 62
7
100
AcDbPolyline
 90
6
 70
0
 10
62.650677
 20
171.535056
 30
0.0
 10
62.259572
 20
167.774531
 30
0.0
 10
59.938149
 20
169.035317
 30
0.0
 10
60.166848
 20
172.016069
 30
0.0
 10
61.205664
 20
173.928790
 30
0.0
 10
61.380045
 20
173.834082
 30
0.0
  0
LWPOLYLINE
  5
134
100
AcDbEntity
  8
Layer_1
 62
7
100
AcDbPolyline
 90
2
 70
0
 10
61.883696
 20
175.021287
 30
0.0
 10
61.491338
 20
175.234381
 30
0.0
  0
SPLINE
  5
135
100
AcDbEntity
  8
Layer_1
 62
7
100
AcDbSpline
 70
8
 71
3
 72
8
 73
4
 74
0
 40
0
 40
0
 40
0
 40
0
 40
1
 40
1
 40
1
 40
1
 10
69.394584
 20
170.829149
 30
0.0
 10
69.264334
 20
170.970458
 30
0.0
 10
69.155614
 20
171.064790
 30
0.0
 10
69.068423
 20
171.112144
 30
0.0
  0
SPLINE
  5
136
100
AcDbEntity
  8
Layer_1
 62
7
100
AcDbSpline
 70
8
 71
3
 72
8
 73
4
 74
0
 40
0
 40
0
 40
0
 40
0
 40
1
 40
1
 40
1
 40
1
 10
69.068423
 20
171.112144
 30
0.0
 10
68.901312
 20
171.202903
 30
0.0
 10
68.724271
 20
171.219080
 30
0.0
 10
68.537301
 20
171.160673
 30
0.0
  0
SPLINE
  5
137
100
AcDbEntity
  8
Layer_1
 62
7
100
AcDbSpline
 70
8
 71
3
 72
8
 73
4
 74
0
 40
0
 40
0
 40
0
 40
0
 40
1
 40
1
 40
1
 40
1
 10
68.537301
 20
171.160673
 30
0.0
 10
68.350330
 20
171.102266
 30
0.0
 10
68.209492
 20
170.985873
 30
0.0
 10
68.114785
 20
170.811494
 30
0.0
  0
SPLINE
  5
138
100
AcDbEntity
  8
Layer_1
 62
7
100
AcDbSpline
 70
8
 71
3
 72
8
 73
4
 74
0
 40
0
 40
0
 40
0
 40
0
 40
1
 40
1
 40
1
 40
1
 10
68.114785
 20
170.811494
 30
0.0
 10
68.033889
 20
170.662544
 30
0.0
 10
67.996682
 20
170.438119
 30
0.0
 10
68.003162
 20
170.138217
 30
0.0
  0
LWPOLYLINE
  5
139
100
AcDbEntity
  8
Layer_1
 62
7
100
AcDbPolyline
 90
2
 70
0
 10
70.545864
 20
172.948946
 30
0.0
 10
69.394584
 20
170.829149
 30
0.0
  0
SPLINE
  5
13a
100
AcDbEntity
  8
Layer_1
 62
7
100
AcDbSpline
 70
8
 71
3
 72
8
 73
4
 74
0
 40
0
 40
0
 40
0
 40
0
 40
1
 40
1
 40
1
 40
1
 10
68.012277
 20
169.752203
 30
0.0
 10
68.029375
 20
169.056062
 30
0.0
 10
67.903756
 20
168.460955
 30
0.0
 10
67.635420
 20
167.966881
 30
0.0
  0
SPLINE
  5
13b
100
AcDbEntity
  8
Layer_1
 62
7
100
AcDbSpline
 70
8
 71
3
 72
8
 73
4
 74
0
 40
0
 40
0
 40
0
 40
0
 40
1
 40
1
 40
1
 40
1
 10
67.635420
 20
167.966881
 30
0.0
 10
67.242781
 20
167.243934
 30
0.0
 10
66.652383
 20
166.771878
 30
0.0
 10
65.864227
 20
166.550714
 30
0.0
  0
SPLINE
  5
13c
100
AcDbEntity
  8
Layer_1
 62
7
100
AcDbSpline
 70
8
 71
3
 72
8
 73
4
 74
0
 40
0
 40
0
 40
0
 40
0
 40
1
 40
1
 40
1
 40
1
 10
65.864227
 20
166.550714
 30
0.0
 10
65.079709
 20
166.327573
 30
0.0
 10
64.316894
 20
166.417255
 30
0.0
 10
63.575782
 20
166.819760
 30
0.0
  0
SPLINE
  5
13d
100
AcDbEntity
  8
Layer_1
 62
7
100
AcDbSpline
 70
8
 71
3
 72
8
 73
4
 74
0
 40
0
 40
0
 40
0
 40
0
 40
1
 40
1
 40
1
 40
1
 10
63.575782
 20
166.819760
 30
0.0
 10
63.219755
 20
167.013121
 30
0.0
 10
62.911757
 20
167.286249
 30
0.0
 10
62.651788
 20
167.639143
 30
0.0
  0
LWPOLYLINE
  5
13e
100
AcDbEntity
  8
Layer_1
 62
7
100
AcDbPolyline
 90
2
 70
0
 10
68.003162
 20
170.138217
 30
0.0
 10
68.012277
 20
169.752203
 30
0.0
  0
SPLINE
  5
13f
100
AcDbEntity
  8
Layer_1
 62
7
100
AcDbSpline
 70
8
 71
3
 72
8
 73
4
 74
0
 40
0
 40
0
 40
0
 40
0
 40
1
 40
1
 40
1
 40
1
 10
63.820826
 20
169.791635
 30
0.0
 10
63.958532
 20
169.542780
 30
0.0
 10
64.109125
 20
169.373959
 30
0.0
 10
64.272604
 20
169.285172
 30
0.0
  0
SPLINE
  5
140
100
AcDbEntity
  8
Layer_1
 62
7
100
AcDbSpline
 70
8
 71
3
 72
8
 73
4
 74
0
 40
0
 40
0
 40
0
 40
0
 40
1
 40
1
 40
1
 40
1
 10
64.272604
 20
169.285172
 30
0.0
 10
64.465146
 20
169.180601
 30
0.0
 10
64.654589
 20
169.148280
 30
0.0
 10
64.840931
 20
169.188210
 30
0.0
  0
SPLINE
  5
141
100
AcDbEntity
  8
Layer_1
 62
7
100
AcDbSpline
 70
8
 71
3
 72
8
 73
4
 74
0
 40
0
 40
0
 40
0
 40
0
 40
1
 40
1
 40
1
 40
1
 10
64.840931
 20
169.188210
 30
0.0
 10
65.032885
 20
169.229797
 30
0.0
 10
65.174242
 20
169.334147
 30
0.0
 10
65.265003
 20
169.501261
 30
0.0
  0
SPLINE
  5
142
100
AcDbEntity
  8
Layer_1
 62
7
100
AcDbSpline
 70
8
 71
3
 72
8
 73
4
 74
0
 40
0
 40
0
 40
0
 40
0
 40
1
 40
1
 40
1
 40
1
 10
65.265003
 20
169.501261
 30
0.0
 10
65.324195
 20
169.610248
 30
0.0
 10
65.349891
 20
169.904435
 30
0.0
 10
65.342093
 20
170.383823
 30
0.0
  0
SPLINE
  5
143
100
AcDbEntity
  8
Layer_1
 62
7
100
AcDbSpline
 70
8
 71
3
 72
8
 73
4
 74
0
 40
0
 40
0
 40
0
 40
0
 40
1
 40
1
 40
1
 40
1
 10
65.342093
 20
170.383823
 30
0.0
 10
65.327187
 20
171.144637
 30
0.0
 10
65.477579
 20
171.815675
 30
0.0
 10
65.793268
 20
172.396939
 30
0.0
  0
SPLINE
  5
144
100
AcDbEntity
  8
Layer_1
 62
7
100
AcDbSpline
 70
8
 71
3
 72
8
 73
4
 74
0
 40
0
 40
0
 40
0
 40
0
 40
1
 40
1
 40
1
 40
1
 10
65.793268
 20
172.396939
 30
0.0
 10
66.174069
 20
173.098089
 30
0.0
 10
66.750451
 20
173.565995
 30
0.0
 10
67.522412
 20
173.800659
 30
0.0
  0
SPLINE
  5
145
100
AcDbEntity
  8
Layer_1
 62
7
100
AcDbSpline
 70
8
 71
3
 72
8
 73
4
 74
0
 40
0
 40
0
 40
0
 40
0
 40
1
 40
1
 40
1
 40
1
 10
67.522412
 20
173.800659
 30
0.0
 10
68.299986
 20
174.036979
 30
0.0
 10
69.035713
 20
173.966713
 30
0.0
 10
69.729594
 20
173.589860
 30
0.0
  0
SPLINE
  5
146
100
AcDbEntity
  8
Layer_1
 62
7
100
AcDbSpline
 70
8
 71
3
 72
8
 73
4
 74
0
 40
0
 40
0
 40
0
 40
0
 40
1
 40
1
 40
1
 40
1
 10
69.729594
 20
173.589860
 30
0.0
 10
70.034759
 20
173.424122
 30
0.0
 10
70.306849
 20
173.210485
 30
0.0
 10
70.545866
 20
172.948948
 30
0.0
  0
LWPOLYLINE
  5
147
100
AcDbEntity
  8
Layer_1
 62
7
100
AcDbPolyline
 90
2
 70
0
 10
62.651788
 20
167.639143
 30
0.0
 10
63.820826
 20
169.791635
 30
0.0
  0
LWPOLYLINE
  5
148
100
AcDbEntity
  8
Layer_1
 62
7
100
AcDbPolyline
 90
1
 70
1
 10
70.545866
 20
172.948948
 30
0.0
  0
SPLINE
  5
149
100
AcDbEntity
  8
Layer_1
 62
7
100
AcDbSpline
 70
8
 71
3
 72
8
 73
4
 74
0
 40
0
 40
0
 40
0
 40
0
 40
1
 40
1
 40
1
 40
1
 10
81.036989
 20
167.448709
 30
0.0
 10
82.090529
 20
166.876522
 30
0.0
 10
82.785146
 20
166.002946
 30
0.0
 10
83.120839
 20
164.827982
 30
0.0
  0
SPLINE
  5
14a
100
AcDbEntity
  8
Layer_1
 62
7
100
AcDbSpline
 70
8
 71
3
 72
8
 73
4
 74
0
 40
0
 40
0
 40
0
 40
0
 40
1
 40
1
 40
1
 40
1
 10
83.120839
 20
164.827982
 30
0.0
 10
83.460170
 20
163.651042
 30
0.0
 10
83.339796
 20
162.528536
 30
0.0
 10
82.759716
 20
161.460463
 30
0.0
  0
SPLINE
  5
14b
100
AcDbEntity
  8
Layer_1
 62
7
100
AcDbSpline
 70
8
 71
3
 72
8
 73
4
 74
0
 40
0
 40
0
 40
0
 40
0
 40
1
 40
1
 40
1
 40
1
 10
82.759716
 20
161.460463
 30
0.0
 10
82.169771
 20
160.374227
 30
0.0
 10
81.288975
 20
159.657656
 30
0.0
 10
80.117326
 20
159.310751
 30
0.0
  0
SPLINE
  5
14c
100
AcDbEntity
  8
Layer_1
 62
7
100
AcDbSpline
 70
8
 71
3
 72
8
 73
4
 74
0
 40
0
 40
0
 40
0
 40
0
 40
1
 40
1
 40
1
 40
1
 10
80.117326
 20
159.310751
 30
0.0
 10
78.945684
 20
158.963844
 30
0.0
 10
77.816744
 20
159.085362
 30
0.0
 10
76.730508
 20
159.675307
 30
0.0
  0
SPLINE
  5
14d
100
AcDbEntity
  8
Layer_1
 62
7
100
AcDbSpline
 70
8
 71
3
 72
8
 73
4
 74
0
 40
0
 40
0
 40
0
 40
0
 40
1
 40
1
 40
1
 40
1
 10
76.730508
 20
159.675307
 30
0.0
 10
75.651536
 20
160.261306
 30
0.0
 10
74.937766
 20
161.142932
 30
0.0
 10
74.589197
 20
162.320185
 30
0.0
  0
SPLINE
  5
14e
100
AcDbEntity
  8
Layer_1
 62
7
100
AcDbSpline
 70
8
 71
3
 72
8
 73
4
 74
0
 40
0
 40
0
 40
0
 40
0
 40
1
 40
1
 40
1
 40
1
 10
74.589197
 20
162.320185
 30
0.0
 10
74.240635
 20
163.497434
 30
0.0
 10
74.359353
 20
164.625544
 30
0.0
 10
74.945351
 20
165.704515
 30
0.0
  0
SPLINE
  5
14f
100
AcDbEntity
  8
Layer_1
 62
7
100
AcDbSpline
 70
8
 71
3
 72
8
 73
4
 74
0
 40
0
 40
0
 40
0
 40
0
 40
1
 40
1
 40
1
 40
1
 10
74.945351
 20
165.704515
 30
0.0
 10
75.537270
 20
166.794385
 30
0.0
 10
76.421696
 20
167.508985
 30
0.0
 10
77.598629
 20
167.848314
 30
0.0
  0
SPLINE
  5
150
100
AcDbEntity
  8
Layer_1
 62
7
100
AcDbSpline
 70
8
 71
3
 72
8
 73
4
 74
0
 40
0
 40
0
 40
0
 40
0
 40
1
 40
1
 40
1
 40
1
 10
77.598629
 20
167.848314
 30
0.0
 10
78.779201
 20
168.185668
 30
0.0
 10
79.925321
 20
168.052466
 30
0.0
 10
81.036989
 20
167.448709
 30
0.0
  0
LWPOLYLINE
  5
151
100
AcDbEntity
  8
Layer_1
 62
7
100
AcDbPolyline
 90
8
 70
1
 10
73.732876
 20
168.409472
 30
0.0
 10
70.853195
 20
163.107257
 30
0.0
 10
68.640756
 20
164.308853
 30
0.0
 10
71.520437
 20
169.611068
 30
0.0
 10
69.825694
 20
170.531498
 30
0.0
 10
70.985853
 20
172.667643
 30
0.0
 10
76.582331
 20
169.628146
 30
0.0
 10
75.422171
 20
167.492001
 30
0.0
  0
SPLINE
  5
152
100
AcDbEntity
  8
Layer_1
 62
7
100
AcDbSpline
 70
8
 71
3
 72
8
 73
4
 74
0
 40
0
 40
0
 40
0
 40
0
 40
1
 40
1
 40
1
 40
1
 10
79.781854
 20
165.293580
 30
0.0
 10
79.327739
 20
165.540213
 30
0.0
 10
78.850075
 20
165.583231
 30
0.0
 10
78.348860
 20
165.422633
 30
0.0
  0
SPLINE
  5
153
100
AcDbEntity
  8
Layer_1
 62
7
100
AcDbSpline
 70
8
 71
3
 72
8
 73
4
 74
0
 40
0
 40
0
 40
0
 40
0
 40
1
 40
1
 40
1
 40
1
 10
78.348860
 20
165.422633
 30
0.0
 10
77.847640
 20
165.262038
 30
0.0
 10
77.468780
 20
164.945602
 30
0.0
 10
77.212282
 20
164.473324
 30
0.0
  0
SPLINE
  5
154
100
AcDbEntity
  8
Layer_1
 62
7
100
AcDbSpline
 70
8
 71
3
 72
8
 73
4
 74
0
 40
0
 40
0
 40
0
 40
0
 40
1
 40
1
 40
1
 40
1
 10
77.212282
 20
164.473324
 30
0.0
 10
76.955785
 20
164.001048
 30
0.0
 10
76.896625
 20
163.510980
 30
0.0
 10
77.034802
 20
163.003122
 30
0.0
  0
SPLINE
  5
155
100
AcDbEntity
  8
Layer_1
 62
7
100
AcDbSpline
 70
8
 71
3
 72
8
 73
4
 74
0
 40
0
 40
0
 40
0
 40
0
 40
1
 40
1
 40
1
 40
1
 10
77.034802
 20
163.003122
 30
0.0
 10
77.176606
 20
162.493295
 30
0.0
 10
77.472750
 20
162.116051
 30
0.0
 10
77.923232
 20
161.871390
 30
0.0
  0
SPLINE
  5
156
100
AcDbEntity
  8
Layer_1
 62
7
100
AcDbSpline
 70
8
 71
3
 72
8
 73
4
 74
0
 40
0
 40
0
 40
0
 40
0
 40
1
 40
1
 40
1
 40
1
 10
77.923232
 20
161.871390
 30
0.0
 10
78.380973
 20
161.622787
 30
0.0
 10
78.857648
 20
161.577954
 30
0.0
 10
79.353257
 20
161.736892
 30
0.0
  0
SPLINE
  5
157
100
AcDbEntity
  8
Layer_1
 62
7
100
AcDbSpline
 70
8
 71
3
 72
8
 73
4
 74
0
 40
0
 40
0
 40
0
 40
0
 40
1
 40
1
 40
1
 40
1
 10
79.353257
 20
161.736892
 30
0.0
 10
79.854477
 20
161.897487
 30
0.0
 10
80.234323
 20
162.215740
 30
0.0
 10
80.492794
 20
162.691649
 30
0.0
  0
SPLINE
  5
158
100
AcDbEntity
  8
Layer_1
 62
7
100
AcDbSpline
 70
8
 71
3
 72
8
 73
4
 74
0
 40
0
 40
0
 40
0
 40
0
 40
1
 40
1
 40
1
 40
1
 10
80.492794
 20
162.691649
 30
0.0
 10
80.751265
 20
163.167559
 30
0.0
 10
80.810425
 20
163.657627
 30
0.0
 10
80.670275
 20
164.161852
 30
0.0
  0
SPLINE
  5
159
100
AcDbEntity
  8
Layer_1
 62
7
100
AcDbSpline
 70
8
 71
3
 72
8
 73
4
 74
0
 40
0
 40
0
 40
0
 40
0
 40
1
 40
1
 40
1
 40
1
 10
80.670275
 20
164.161852
 30
0.0
 10
80.535735
 20
164.667734
 30
0.0
 10
80.239595
 20
165.044977
 30
0.0
 10
79.781854
 20
165.293580
 30
0.0
  0
LWPOLYLINE
  5
15a
100
AcDbEntity
  8
Layer_1
 62
7
100
AcDbPolyline
 90
1
 70
1
 10
81.036989
 20
167.448709
 30
0.0
  0
LWPOLYLINE
  5
15b
100
AcDbEntity
  8
Layer_1
 62
7
100
AcDbPolyline
 90
1
 70
1
 10
79.781854
 20
165.293580
 30
0.0
  0
SPLINE
  5
15c
100
AcDbEntity
  8
Layer_1
 62
7
100
AcDbSpline
 70
8
 71
3
 72
8
 73
4
 74
0
 40
0
 40
0
 40
0
 40
0
 40
1
 40
1
 40
1
 40
1
 10
84.254204
 20
162.081309
 30
0.0
 10
84.713927
 20
162.927775
 30
0.0
 10
85.334388
 20
163.468183
 30
0.0
 10
86.115588
 20
163.702534
 30
0.0
  0
SPLINE
  5
15d
100
AcDbEntity
  8
Layer_1
 62
7
100
AcDbSpline
 70
8
 71
3
 72
8
 73
4
 74
0
 40
0
 40
0
 40
0
 40
0
 40
1
 40
1
 40
1
 40
1
 10
86.115588
 20
163.702534
 30
0.0
 10
86.900420
 20
163.934913
 30
0.0
 10
87.714254
 20
163.822226
 30
0.0
 10
88.557091
 20
163.364474
 30
0.0
  0
SPLINE
  5
15e
100
AcDbEntity
  8
Layer_1
 62
7
100
AcDbSpline
 70
8
 71
3
 72
8
 73
4
 74
0
 40
0
 40
0
 40
0
 40
0
 40
1
 40
1
 40
1
 40
1
 10
88.557091
 20
163.364474
 30
0.0
 10
89.396291
 20
162.908697
 30
0.0
 10
89.903328
 20
162.313416
 30
0.0
 10
90.078204
 20
161.578629
 30
0.0
  0
SPLINE
  5
15f
100
AcDbEntity
  8
Layer_1
 62
7
100
AcDbSpline
 70
8
 71
3
 72
8
 73
4
 74
0
 40
0
 40
0
 40
0
 40
0
 40
1
 40
1
 40
1
 40
1
 10
90.078204
 20
161.578629
 30
0.0
 10
90.256712
 20
160.841870
 30
0.0
 10
90.094401
 20
160.010296
 30
0.0
 10
89.591271
 20
159.083907
 30
0.0
  0
LWPOLYLINE
  5
160
100
AcDbEntity
  8
Layer_1
 62
7
100
AcDbPolyline
 90
2
 70
0
 10
81.632007
 20
157.253187
 30
0.0
 10
84.254204
 20
162.081309
 30
0.0
  0
SPLINE
  5
161
100
AcDbEntity
  8
Layer_1
 62
7
100
AcDbSpline
 70
8
 71
3
 72
8
 73
4
 74
0
 40
0
 40
0
 40
0
 40
0
 40
1
 40
1
 40
1
 40
1
 10
87.378840
 20
160.285497
 30
0.0
 10
87.625473
 20
160.739610
 30
0.0
 10
87.587123
 20
161.054468
 30
0.0
 10
87.263792
 20
161.230072
 30
0.0
  0
SPLINE
  5
162
100
AcDbEntity
  8
Layer_1
 62
7
100
AcDbSpline
 70
8
 71
3
 72
8
 73
4
 74
0
 40
0
 40
0
 40
0
 40
0
 40
1
 40
1
 40
1
 40
1
 10
87.263792
 20
161.230072
 30
0.0
 10
86.951363
 20
161.399755
 30
0.0
 10
86.671832
 20
161.257540
 30
0.0
 10
86.425200
 20
160.803428
 30
0.0
  0
LWPOLYLINE
  5
163
100
AcDbEntity
  8
Layer_1
 62
7
100
AcDbPolyline
 90
4
 70
0
 10
89.591271
 20
159.083907
 30
0.0
 10
87.010508
 20
154.332075
 30
0.0
 10
84.798078
 20
155.533666
 30
0.0
 10
87.378840
 20
160.285497
 30
0.0
  0
LWPOLYLINE
  5
164
100
AcDbEntity
  8
Layer_1
 62
7
100
AcDbPolyline
 90
3
 70
0
 10
86.425200
 20
160.803428
 30
0.0
 10
83.844438
 20
156.051597
 30
0.0
 10
81.632007
 20
157.253187
 30
0.0
  0
SPLINE
  5
165
100
AcDbEntity
  8
Layer_1
 62
7
100
AcDbSpline
 70
8
 71
3
 72
8
 73
4
 74
0
 40
0
 40
0
 40
0
 40
0
 40
1
 40
1
 40
1
 40
1
 10
92.459031
 20
155.112999
 30
0.0
 10
92.262851
 20
155.219546
 30
0.0
 10
92.107200
 20
155.266445
 30
0.0
 10
91.992078
 20
155.253697
 30
0.0
  0
SPLINE
  5
166
100
AcDbEntity
  8
Layer_1
 62
7
100
AcDbSpline
 70
8
 71
3
 72
8
 73
4
 74
0
 40
0
 40
0
 40
0
 40
0
 40
1
 40
1
 40
1
 40
1
 10
91.992078
 20
155.253697
 30
0.0
 10
91.880582
 20
155.238978
 30
0.0
 10
91.787347
 20
155.162594
 30
0.0
 10
91.712371
 20
155.024545
 30
0.0
  0
SPLINE
  5
167
100
AcDbEntity
  8
Layer_1
 62
7
100
AcDbSpline
 70
8
 71
3
 72
8
 73
4
 74
0
 40
0
 40
0
 40
0
 40
0
 40
1
 40
1
 40
1
 40
1
 10
91.712371
 20
155.024545
 30
0.0
 10
91.627529
 20
154.868331
 30
0.0
 10
91.613076
 20
154.742102
 30
0.0
 10
91.669012
 20
154.645860
 30
0.0
  0
SPLINE
  5
168
100
AcDbEntity
  8
Layer_1
 62
7
100
AcDbSpline
 70
8
 71
3
 72
8
 73
4
 74
0
 40
0
 40
0
 40
0
 40
0
 40
1
 40
1
 40
1
 40
1
 10
91.669012
 20
154.645860
 30
0.0
 10
91.726922
 20
154.553254
 30
0.0
 10
91.884844
 20
154.436908
 30
0.0
 10
92.142778
 20
154.296822
 30
0.0
  0
LWPOLYLINE
  5
169
100
AcDbEntity
  8
Layer_1
 62
7
100
AcDbPolyline
 90
3
 70
0
 10
94.802823
 20
155.985309
 30
0.0
 10
93.903108
 20
154.328708
 30
0.0
 10
92.459031
 20
155.112999
 30
0.0
  0
SPLINE
  5
16a
100
AcDbEntity
  8
Layer_1
 62
7
100
AcDbSpline
 70
8
 71
3
 72
8
 73
4
 74
0
 40
0
 40
0
 40
0
 40
0
 40
1
 40
1
 40
1
 40
1
 10
90.737871
 20
152.307715
 30
0.0
 10
89.920466
 20
152.751656
 30
0.0
 10
89.401164
 20
153.285383
 30
0.0
 10
89.179966
 20
153.908898
 30
0.0
  0
SPLINE
  5
16b
100
AcDbEntity
  8
Layer_1
 62
7
100
AcDbSpline
 70
8
 71
3
 72
8
 73
4
 74
0
 40
0
 40
0
 40
0
 40
0
 40
1
 40
1
 40
1
 40
1
 10
89.179966
 20
153.908898
 30
0.0
 10
88.960741
 20
154.536045
 30
0.0
 10
89.051394
 20
155.218358
 30
0.0
 10
89.451925
 20
155.955836
 30
0.0
  0
LWPOLYLINE
  5
16c
100
AcDbEntity
  8
Layer_1
 62
7
100
AcDbPolyline
 90
4
 70
0
 10
92.142778
 20
154.296822
 30
0.0
 10
93.630450
 20
153.488854
 30
0.0
 10
92.476210
 20
151.363608
 30
0.0
 10
90.737871
 20
152.307715
 30
0.0
  0
SPLINE
  5
16d
100
AcDbEntity
  8
Layer_1
 62
7
100
AcDbSpline
 70
8
 71
3
 72
8
 73
4
 74
0
 40
0
 40
0
 40
0
 40
0
 40
1
 40
1
 40
1
 40
1
 10
91.035306
 20
158.871238
 30
0.0
 10
91.422026
 20
159.583286
 30
0.0
 10
91.925373
 20
160.024995
 30
0.0
 10
92.545347
 20
160.196366
 30
0.0
  0
SPLINE
  5
16e
100
AcDbEntity
  8
Layer_1
 62
7
100
AcDbSpline
 70
8
 71
3
 72
8
 73
4
 74
0
 40
0
 40
0
 40
0
 40
0
 40
1
 40
1
 40
1
 40
1
 10
92.545347
 20
160.196366
 30
0.0
 10
93.168960
 20
160.365761
 30
0.0
 10
93.851322
 20
160.249206
 30
0.0
 10
94.592434
 20
159.846702
 30
0.0
  0
LWPOLYLINE
  5
16f
100
AcDbEntity
  8
Layer_1
 62
7
100
AcDbPolyline
 90
2
 70
0
 10
89.451925
 20
155.955836
 30
0.0
 10
91.035306
 20
158.871238
 30
0.0
  0
SPLINE
  5
170
100
AcDbEntity
  8
Layer_1
 62
7
100
AcDbSpline
 70
8
 71
3
 72
8
 73
4
 74
0
 40
0
 40
0
 40
0
 40
0
 40
1
 40
1
 40
1
 40
1
 10
93.944513
 20
157.432355
 30
0.0
 10
93.563054
 20
157.639529
 30
0.0
 10
93.305241
 20
157.619597
 30
0.0
 10
93.171073
 20
157.372561
 30
0.0
  0
SPLINE
  5
171
100
AcDbEntity
  8
Layer_1
 62
7
100
AcDbSpline
 70
8
 71
3
 72
8
 73
4
 74
0
 40
0
 40
0
 40
0
 40
0
 40
1
 40
1
 40
1
 40
1
 10
93.171073
 20
157.372561
 30
0.0
 10
93.092151
 20
157.227245
 30
0.0
 10
93.082317
 20
157.100860
 30
0.0
 10
93.141571
 20
156.993407
 30
0.0
  0
SPLINE
  5
172
100
AcDbEntity
  8
Layer_1
 62
7
100
AcDbSpline
 70
8
 71
3
 72
8
 73
4
 74
0
 40
0
 40
0
 40
0
 40
0
 40
1
 40
1
 40
1
 40
1
 10
93.141571
 20
156.993407
 30
0.0
 10
93.202797
 20
156.889585
 30
0.0
 10
93.349664
 20
156.774535
 30
0.0
 10
93.582173
 20
156.648258
 30
0.0
  0
LWPOLYLINE
  5
173
100
AcDbEntity
  8
Layer_1
 62
7
100
AcDbPolyline
 90
4
 70
0
 10
94.592434
 20
159.846702
 30
0.0
 10
96.516051
 20
158.801968
 30
0.0
 10
95.355891
 20
156.665823
 30
0.0
 10
93.944513
 20
157.432355
 30
0.0
  0
SPLINE
  5
174
100
AcDbEntity
  8
Layer_1
 62
7
100
AcDbSpline
 70
8
 71
3
 72
8
 73
4
 74
0
 40
0
 40
0
 40
0
 40
0
 40
1
 40
1
 40
1
 40
1
 10
109.045020
 20
145.329250
 30
0.0
 10
106.519630
 20
146.317050
 30
0.0
 10
104.137860
 20
148.850950
 30
0.0
 10
102.154410
 20
152.660000
 30
0.0
  0
SPLINE
  5
175
100
AcDbEntity
  8
Layer_1
 62
7
100
AcDbSpline
 70
8
 71
3
 72
8
 73
4
 74
0
 40
0
 40
0
 40
0
 40
0
 40
1
 40
1
 40
1
 40
1
 10
102.154410
 20
152.660000
 30
0.0
 10
100.025950
 20
156.747510
 30
0.0
 10
100.856400
 20
156.223150
 30
0.0
 10
74.980241
 20
169.818320
 30
0.0
  0
SPLINE
  5
176
100
AcDbEntity
  8
Layer_1
 62
7
100
AcDbSpline
 70
8
 71
3
 72
8
 73
4
 74
0
 40
0
 40
0
 40
0
 40
0
 40
1
 40
1
 40
1
 40
1
 10
74.980241
 20
169.818320
 30
0.0
 10
48.363170
 20
183.802760
 30
0.0
 10
46.251721
 20
184.936280
 30
0.0
 10
42.841524
 20
187.071770
 30
0.0
  0
SPLINE
  5
177
100
AcDbEntity
  8
Layer_1
 62
7
100
AcDbSpline
 70
8
 71
3
 72
8
 73
4
 74
0
 40
0
 40
0
 40
0
 40
0
 40
1
 40
1
 40
1
 40
1
 10
42.841524
 20
187.071770
 30
0.0
 10
39.079670
 20
189.427470
 30
0.0
 10
34.584995
 20
192.826700
 30
0.0
 10
33.210394
 20
194.355580
 30
0.0
  0
SPLINE
  5
178
100
AcDbEntity
  8
Layer_1
 62
7
100
AcDbSpline
 70
8
 71
3
 72
8
 73
4
 74
0
 40
0
 40
0
 40
0
 40
0
 40
1
 40
1
 40
1
 40
1
 10
33.210394
 20
194.355580
 30
0.0
 10
30.085275
 20
197.831470
 30
0.0
 10
30.025403
 20
203.061854
 30
0.0
 10
33.064437
 20
207.106428
 30
0.0
  0
SPLINE
  5
179
100
AcDbEntity
  8
Layer_1
 62
7
100
AcDbSpline
 70
8
 71
3
 72
8
 73
4
 74
0
 40
0
 40
0
 40
0
 40
0
 40
1
 40
1
 40
1
 40
1
 10
33.064437
 20
207.106428
 30
0.0
 10
34.538729
 20
209.068524
 30
0.0
 10
36.003231
 20
210.170605
 30
0.0
 10
38.998724
 20
211.572151
 30
0.0
  0
SPLINE
  5
17a
100
AcDbEntity
  8
Layer_1
 62
7
100
AcDbSpline
 70
8
 71
3
 72
8
 73
4
 74
0
 40
0
 40
0
 40
0
 40
0
 40
1
 40
1
 40
1
 40
1
 10
38.998724
 20
211.572151
 30
0.0
 10
42.064468
 20
213.006567
 30
0.0
 10
44.253204
 20
214.295017
 30
0.0
 10
46.399791
 20
215.928958
 30
0.0
  0
SPLINE
  5
17b
100
AcDbEntity
  8
Layer_1
 62
7
100
AcDbSpline
 70
8
 71
3
 72
8
 73
4
 74
0
 40
0
 40
0
 40
0
 40
0
 40
1
 40
1
 40
1
 40
1
 10
46.399791
 20
215.928958
 30
0.0
 10
48.334379
 20
217.401530
 30
0.0
 10
59.826276
 20
227.850522
 30
0.0
 10
60.617470
 20
228.856364
 30
0.0
  0
SPLINE
  5
17c
100
AcDbEntity
  8
Layer_1
 62
7
100
AcDbSpline
 70
8
 71
3
 72
8
 73
4
 74
0
 40
0
 40
0
 40
0
 40
0
 40
1
 40
1
 40
1
 40
1
 10
60.617470
 20
228.856364
 30
0.0
 10
61.392668
 20
229.841868
 30
0.0
 10
61.335621
 20
230.445312
 30
0.0
 10
60.317221
 20
232.032350
 30
0.0
  0
SPLINE
  5
17d
100
AcDbEntity
  8
Layer_1
 62
7
100
AcDbSpline
 70
8
 71
3
 72
8
 73
4
 74
0
 40
0
 40
0
 40
0
 40
0
 40
1
 40
1
 40
1
 40
1
 10
60.317221
 20
232.032350
 30
0.0
 10
59.629211
 20
233.104517
 30
0.0
 10
59.424787
 20
233.747344
 30
0.0
 10
59.337899
 20
235.111882
 30
0.0
  0
SPLINE
  5
17e
100
AcDbEntity
  8
Layer_1
 62
7
100
AcDbSpline
 70
8
 71
3
 72
8
 73
4
 74
0
 40
0
 40
0
 40
0
 40
0
 40
1
 40
1
 40
1
 40
1
 10
59.337899
 20
235.111882
 30
0.0
 10
59.177090
 20
237.637340
 30
0.0
 10
59.736498
 20
238.856874
 30
0.0
 10
62.029632
 20
240.979961
 30
0.0
  0
SPLINE
  5
17f
100
AcDbEntity
  8
Layer_1
 62
7
100
AcDbSpline
 70
8
 71
3
 72
8
 73
4
 74
0
 40
0
 40
0
 40
0
 40
0
 40
1
 40
1
 40
1
 40
1
 10
62.029632
 20
240.979961
 30
0.0
 10
66.123641
 20
244.770386
 30
0.0
 10
73.360319
 20
247.069967
 30
0.0
 10
76.349950
 20
245.530491
 30
0.0
  0
SPLINE
  5
180
100
AcDbEntity
  8
Layer_1
 62
7
100
AcDbSpline
 70
8
 71
3
 72
8
 73
4
 74
0
 40
0
 40
0
 40
0
 40
0
 40
1
 40
1
 40
1
 40
1
 10
76.349950
 20
245.530491
 30
0.0
 10
77.564621
 20
244.905008
 30
0.0
 10
111.863730
 20
219.476693
 30
0.0
 10
113.239730
 20
218.181536
 30
0.0
  0
SPLINE
  5
181
100
AcDbEntity
  8
Layer_1
 62
7
100
AcDbSpline
 70
8
 71
3
 72
8
 73
4
 74
0
 40
0
 40
0
 40
0
 40
0
 40
1
 40
1
 40
1
 40
1
 10
113.239730
 20
218.181536
 30
0.0
 10
114.664410
 20
216.840544
 30
0.0
 10
115.972450
 20
214.762080
 30
0.0
 10
116.641420
 20
212.776269
 30
0.0
  0
SPLINE
  5
182
100
AcDbEntity
  8
Layer_1
 62
7
100
AcDbSpline
 70
8
 71
3
 72
8
 73
4
 74
0
 40
0
 40
0
 40
0
 40
0
 40
1
 40
1
 40
1
 40
1
 10
116.641420
 20
212.776269
 30
0.0
 10
117.395560
 20
210.537659
 30
0.0
 10
117.361140
 20
207.739938
 30
0.0
 10
116.524030
 20
203.234426
 30
0.0
  0
SPLINE
  5
183
100
AcDbEntity
  8
Layer_1
 62
7
100
AcDbSpline
 70
8
 71
3
 72
8
 73
4
 74
0
 40
0
 40
0
 40
0
 40
0
 40
1
 40
1
 40
1
 40
1
 10
116.524030
 20
203.234426
 30
0.0
 10
115.699600
 20
198.797157
 30
0.0
 10
115.661860
 20
196.325870
 30
0.0
 10
116.383350
 20
194.021240
 30
0.0
  0
SPLINE
  5
184
100
AcDbEntity
  8
Layer_1
 62
7
100
AcDbSpline
 70
8
 71
3
 72
8
 73
4
 74
0
 40
0
 40
0
 40
0
 40
0
 40
1
 40
1
 40
1
 40
1
 10
116.383350
 20
194.021240
 30
0.0
 10
117.203750
 20
191.400630
 30
0.0
 10
118.091800
 20
190.110550
 30
0.0
 10
123.713740
 20
183.372260
 30
0.0
  0
SPLINE
  5
185
100
AcDbEntity
  8
Layer_1
 62
7
100
AcDbSpline
 70
8
 71
3
 72
8
 73
4
 74
0
 40
0
 40
0
 40
0
 40
0
 40
1
 40
1
 40
1
 40
1
 10
123.713740
 20
183.372260
 30
0.0
 10
126.569560
 20
179.949360
 30
0.0
 10
129.130560
 20
176.661740
 30
0.0
 10
129.404850
 20
176.066450
 30
0.0
  0
SPLINE
  5
186
100
AcDbEntity
  8
Layer_1
 62
7
100
AcDbSpline
 70
8
 71
3
 72
8
 73
4
 74
0
 40
0
 40
0
 40
0
 40
0
 40
1
 40
1
 40
1
 40
1
 10
129.404850
 20
176.066450
 30
0.0
 10
130.418410
 20
173.866710
 30
0.0
 10
129.818910
 20
171.170490
 30
0.0
 10
127.951730
 20
169.531080
 30
0.0
  0
SPLINE
  5
187
100
AcDbEntity
  8
Layer_1
 62
7
100
AcDbSpline
 70
8
 71
3
 72
8
 73
4
 74
0
 40
0
 40
0
 40
0
 40
0
 40
1
 40
1
 40
1
 40
1
 10
127.951730
 20
169.531080
 30
0.0
 10
126.577120
 20
168.324160
 30
0.0
 10
125.325280
 20
167.980410
 30
0.0
 10
123.068420
 20
168.190170
 30
0.0
  0
SPLINE
  5
188
100
AcDbEntity
  8
Layer_1
 62
7
100
AcDbSpline
 70
8
 71
3
 72
8
 73
4
 74
0
 40
0
 40
0
 40
0
 40
0
 40
1
 40
1
 40
1
 40
1
 10
123.068420
 20
168.190170
 30
0.0
 10
121.509280
 20
168.335070
 30
0.0
 10
121.088290
 20
168.286270
 30
0.0
 10
120.675400
 20
167.912570
 30
0.0
  0
SPLINE
  5
189
100
AcDbEntity
  8
Layer_1
 62
7
100
AcDbSpline
 70
8
 71
3
 72
8
 73
4
 74
0
 40
0
 40
0
 40
0
 40
0
 40
1
 40
1
 40
1
 40
1
 10
120.675400
 20
167.912570
 30
0.0
 10
120.117140
 20
167.407350
 30
0.0
 10
120.035300
 20
166.684920
 30
0.0
 10
120.448820
 20
165.912260
 30
0.0
  0
SPLINE
  5
18a
100
AcDbEntity
  8
Layer_1
 62
7
100
AcDbSpline
 70
8
 71
3
 72
8
 73
4
 74
0
 40
0
 40
0
 40
0
 40
0
 40
1
 40
1
 40
1
 40
1
 10
120.448820
 20
165.912260
 30
0.0
 10
120.960160
 20
164.956800
 30
0.0
 10
127.799680
 20
163.213650
 30
0.0
 10
131.037200
 20
163.213650
 30
0.0
  0
SPLINE
  5
18b
100
AcDbEntity
  8
Layer_1
 62
7
100
AcDbSpline
 70
8
 71
3
 72
8
 73
4
 74
0
 40
0
 40
0
 40
0
 40
0
 40
1
 40
1
 40
1
 40
1
 10
131.037200
 20
163.213650
 30
0.0
 10
132.156390
 20
163.213650
 30
0.0
 10
132.501380
 20
163.348250
 30
0.0
 10
133.291180
 20
164.093050
 30
0.0
  0
SPLINE
  5
18c
100
AcDbEntity
  8
Layer_1
 62
7
100
AcDbSpline
 70
8
 71
3
 72
8
 73
4
 74
0
 40
0
 40
0
 40
0
 40
0
 40
1
 40
1
 40
1
 40
1
 10
133.291180
 20
164.093050
 30
0.0
 10
133.804070
 20
164.576720
 30
0.0
 10
142.887020
 20
174.774410
 30
0.0
 10
153.475510
 20
186.754580
 30
0.0
  0
SPLINE
  5
18d
100
AcDbEntity
  8
Layer_1
 62
7
100
AcDbSpline
 70
8
 71
3
 72
8
 73
4
 74
0
 40
0
 40
0
 40
0
 40
0
 40
1
 40
1
 40
1
 40
1
 10
153.475510
 20
186.754580
 30
0.0
 10
166.707460
 20
201.725649
 30
0.0
 10
172.928720
 20
208.959754
 30
0.0
 10
173.371440
 20
209.889634
 30
0.0
  0
SPLINE
  5
18e
100
AcDbEntity
  8
Layer_1
 62
7
100
AcDbSpline
 70
8
 71
3
 72
8
 73
4
 74
0
 40
0
 40
0
 40
0
 40
0
 40
1
 40
1
 40
1
 40
1
 10
173.371440
 20
209.889634
 30
0.0
 10
174.244280
 20
211.722926
 30
0.0
 10
174.256200
 20
213.779930
 30
0.0
 10
173.399740
 20
214.775606
 30
0.0
  0
SPLINE
  5
18f
100
AcDbEntity
  8
Layer_1
 62
7
100
AcDbSpline
 70
8
 71
3
 72
8
 73
4
 74
0
 40
0
 40
0
 40
0
 40
0
 40
1
 40
1
 40
1
 40
1
 10
173.399740
 20
214.775606
 30
0.0
 10
172.866420
 20
215.395631
 30
0.0
 10
172.474440
 20
215.529544
 30
0.0
 10
170.626240
 20
215.723153
 30
0.0
  0
SPLINE
  5
190
100
AcDbEntity
  8
Layer_1
 62
7
100
AcDbSpline
 70
8
 71
3
 72
8
 73
4
 74
0
 40
0
 40
0
 40
0
 40
0
 40
1
 40
1
 40
1
 40
1
 10
170.626240
 20
215.723153
 30
0.0
 10
169.442420
 20
215.847165
 30
0.0
 10
167.675840
 20
215.955194
 30
0.0
 10
166.700520
 20
215.963217
 30
0.0
  0
SPLINE
  5
191
100
AcDbEntity
  8
Layer_1
 62
7
100
AcDbSpline
 70
8
 71
3
 72
8
 73
4
 74
0
 40
0
 40
0
 40
0
 40
0
 40
1
 40
1
 40
1
 40
1
 10
166.700520
 20
215.963217
 30
0.0
 10
160.448920
 20
216.014647
 30
0.0
 10
157.179000
 20
223.149944
 30
0.0
 10
161.235320
 20
227.888837
 30
0.0
  0
SPLINE
  5
192
100
AcDbEntity
  8
Layer_1
 62
7
100
AcDbSpline
 70
8
 71
3
 72
8
 73
4
 74
0
 40
0
 40
0
 40
0
 40
0
 40
1
 40
1
 40
1
 40
1
 10
161.235320
 20
227.888837
 30
0.0
 10
162.597890
 20
229.480696
 30
0.0
 10
164.481500
 20
230.312841
 30
0.0
 10
166.729770
 20
230.316191
 30
0.0
  0
SPLINE
  5
193
100
AcDbEntity
  8
Layer_1
 62
7
100
AcDbSpline
 70
8
 71
3
 72
8
 73
4
 74
0
 40
0
 40
0
 40
0
 40
0
 40
1
 40
1
 40
1
 40
1
 10
166.729770
 20
230.316191
 30
0.0
 10
168.442810
 20
230.318591
 30
0.0
 10
168.729560
 20
230.209580
 30
0.0
 10
175.134370
 20
227.116662
 30
0.0
  0
SPLINE
  5
194
100
AcDbEntity
  8
Layer_1
 62
7
100
AcDbSpline
 70
8
 71
3
 72
8
 73
4
 74
0
 40
0
 40
0
 40
0
 40
0
 40
1
 40
1
 40
1
 40
1
 10
175.134370
 20
227.116662
 30
0.0
 10
178.781450
 20
225.355467
 30
0.0
 10
182.549480
 20
223.385164
 30
0.0
 10
183.507780
 20
222.738213
 30
0.0
  0
SPLINE
  5
195
100
AcDbEntity
  8
Layer_1
 62
7
100
AcDbSpline
 70
8
 71
3
 72
8
 73
4
 74
0
 40
0
 40
0
 40
0
 40
0
 40
1
 40
1
 40
1
 40
1
 10
183.507780
 20
222.738213
 30
0.0
 10
187.352580
 20
220.142571
 30
0.0
 10
190.960200
 20
215.828503
 30
0.0
 10
192.523810
 20
211.956647
 30
0.0
  0
SPLINE
  5
196
100
AcDbEntity
  8
Layer_1
 62
7
100
AcDbSpline
 70
8
 71
3
 72
8
 73
4
 74
0
 40
0
 40
0
 40
0
 40
0
 40
1
 40
1
 40
1
 40
1
 10
192.523810
 20
211.956647
 30
0.0
 10
193.609120
 20
209.269182
 30
0.0
 10
193.985350
 20
206.842542
 30
0.0
 10
195.004770
 20
195.954480
 30
0.0
  0
SPLINE
  5
197
100
AcDbEntity
  8
Layer_1
 62
7
100
AcDbSpline
 70
8
 71
3
 72
8
 73
4
 74
0
 40
0
 40
0
 40
0
 40
0
 40
1
 40
1
 40
1
 40
1
 10
195.004770
 20
195.954480
 30
0.0
 10
195.527290
 20
190.373660
 30
0.0
 10
196.326380
 20
182.032860
 30
0.0
 10
196.780540
 20
177.419380
 30
0.0
  0
SPLINE
  5
198
100
AcDbEntity
  8
Layer_1
 62
7
100
AcDbSpline
 70
8
 71
3
 72
8
 73
4
 74
0
 40
0
 40
0
 40
0
 40
0
 40
1
 40
1
 40
1
 40
1
 10
196.780540
 20
177.419380
 30
0.0
 10
197.234690
 20
172.805900
 30
0.0
 10
197.555190
 20
168.172230
 30
0.0
 10
197.492760
 20
167.122330
 30
0.0
  0
SPLINE
  5
199
100
AcDbEntity
  8
Layer_1
 62
7
100
AcDbSpline
 70
8
 71
3
 72
8
 73
4
 74
0
 40
0
 40
0
 40
0
 40
0
 40
1
 40
1
 40
1
 40
1
 10
197.492760
 20
167.122330
 30
0.0
 10
197.276190
 20
163.480240
 30
0.0
 10
195.211200
 20
160.417700
 30
0.0
 10
191.918050
 20
158.854590
 30
0.0
  0
SPLINE
  5
19a
100
AcDbEntity
  8
Layer_1
 62
7
100
AcDbSpline
 70
8
 71
3
 72
8
 73
4
 74
0
 40
0
 40
0
 40
0
 40
0
 40
1
 40
1
 40
1
 40
1
 10
191.918050
 20
158.854590
 30
0.0
 10
188.935040
 20
157.438680
 30
0.0
 10
184.746080
 20
155.951910
 30
0.0
 10
180.973030
 20
154.969920
 30
0.0
  0
SPLINE
  5
19b
100
AcDbEntity
  8
Layer_1
 62
7
100
AcDbSpline
 70
8
 71
3
 72
8
 73
4
 74
0
 40
0
 40
0
 40
0
 40
0
 40
1
 40
1
 40
1
 40
1
 10
180.973030
 20
154.969920
 30
0.0
 10
173.794560
 20
153.101630
 30
0.0
 10
169.482020
 20
152.549610
 30
0.0
 10
157.677300
 20
151.988020
 30
0.0
  0
SPLINE
  5
19c
100
AcDbEntity
  8
Layer_1
 62
7
100
AcDbSpline
 70
8
 71
3
 72
8
 73
4
 74
0
 40
0
 40
0
 40
0
 40
0
 40
1
 40
1
 40
1
 40
1
 10
157.677300
 20
151.988020
 30
0.0
 10
152.929780
 20
151.762160
 30
0.0
 10
148.558480
 20
151.446250
 30
0.0
 10
147.963300
 20
151.285980
 30
0.0
  0
SPLINE
  5
19d
100
AcDbEntity
  8
Layer_1
 62
7
100
AcDbSpline
 70
8
 71
3
 72
8
 73
4
 74
0
 40
0
 40
0
 40
0
 40
0
 40
1
 40
1
 40
1
 40
1
 10
147.963300
 20
151.285980
 30
0.0
 10
146.348960
 20
150.851290
 30
0.0
 10
144.367440
 20
149.922670
 30
0.0
 10
142.046110
 20
148.512970
 30
0.0
  0
SPLINE
  5
19e
100
AcDbEntity
  8
Layer_1
 62
7
100
AcDbSpline
 70
8
 71
3
 72
8
 73
4
 74
0
 40
0
 40
0
 40
0
 40
0
 40
1
 40
1
 40
1
 40
1
 10
142.046110
 20
148.512970
 30
0.0
 10
139.545520
 20
146.994390
 30
0.0
 10
137.775150
 20
146.544300
 30
0.0
 10
135.891600
 20
146.948240
 30
0.0
  0
SPLINE
  5
19f
100
AcDbEntity
  8
Layer_1
 62
7
100
AcDbSpline
 70
8
 71
3
 72
8
 73
4
 74
0
 40
0
 40
0
 40
0
 40
0
 40
1
 40
1
 40
1
 40
1
 10
135.891600
 20
146.948240
 30
0.0
 10
135.160310
 20
147.105080
 30
0.0
 10
132.633720
 20
147.921690
 30
0.0
 10
130.276950
 20
148.762930
 30
0.0
  0
SPLINE
  5
1a0
100
AcDbEntity
  8
Layer_1
 62
7
100
AcDbSpline
 70
8
 71
3
 72
8
 73
4
 74
0
 40
0
 40
0
 40
0
 40
0
 40
1
 40
1
 40
1
 40
1
 10
130.276950
 20
148.762930
 30
0.0
 10
123.919900
 20
151.032060
 30
0.0
 10
122.830800
 20
150.925260
 30
0.0
 10
118.738550
 20
147.631380
 30
0.0
  0
SPLINE
  5
1a1
100
AcDbEntity
  8
Layer_1
 62
7
100
AcDbSpline
 70
8
 71
3
 72
8
 73
4
 74
0
 40
0
 40
0
 40
0
 40
0
 40
1
 40
1
 40
1
 40
1
 10
118.738550
 20
147.631380
 30
0.0
 10
117.371920
 20
146.531370
 30
0.0
 10
115.713920
 20
145.447410
 30
0.0
 10
115.054120
 20
145.222600
 30
0.0
  0
SPLINE
  5
1a2
100
AcDbEntity
  8
Layer_1
 62
7
100
AcDbSpline
 70
8
 71
3
 72
8
 73
4
 74
0
 40
0
 40
0
 40
0
 40
0
 40
1
 40
1
 40
1
 40
1
 10
115.054120
 20
145.222600
 30
0.0
 10
113.433600
 20
144.670430
 30
0.0
 10
110.600770
 20
144.720710
 30
0.0
 10
109.045000
 20
145.329250
 30
0.0
  0
LWPOLYLINE
  5
1a3
100
AcDbEntity
  8
Layer_1
 62
7
100
AcDbPolyline
 90
2
 70
0
 10
93.582173
 20
156.648258
 30
0.0
 10
94.802823
 20
155.985309
 30
0.0
  0
SPLINE
  5
1a4
100
AcDbEntity
  8
Layer_1
 62
7
100
AcDbSpline
 70
8
 71
3
 72
8
 73
4
 74
0
 40
0
 40
0
 40
0
 40
0
 40
1
 40
1
 40
1
 40
1
 10
113.520050
 20
149.133710
 30
0.0
 10
113.897750
 20
149.277310
 30
0.0
 10
115.092870
 20
150.110480
 30
0.0
 10
116.175870
 20
150.985190
 30
0.0
  0
SPLINE
  5
1a5
100
AcDbEntity
  8
Layer_1
 62
7
100
AcDbSpline
 70
8
 71
3
 72
8
 73
4
 74
0
 40
0
 40
0
 40
0
 40
0
 40
1
 40
1
 40
1
 40
1
 10
116.175870
 20
150.985190
 30
0.0
 10
118.699030
 20
153.023080
 30
0.0
 10
119.674200
 20
153.589980
 30
0.0
 10
121.625340
 20
154.153140
 30
0.0
  0
SPLINE
  5
1a6
100
AcDbEntity
  8
Layer_1
 62
7
100
AcDbSpline
 70
8
 71
3
 72
8
 73
4
 74
0
 40
0
 40
0
 40
0
 40
0
 40
1
 40
1
 40
1
 40
1
 10
121.625340
 20
154.153140
 30
0.0
 10
124.340010
 20
154.936680
 30
0.0
 10
126.361690
 20
154.649180
 30
0.0
 10
131.737770
 20
152.715060
 30
0.0
  0
SPLINE
  5
1a7
100
AcDbEntity
  8
Layer_1
 62
7
100
AcDbSpline
 70
8
 71
3
 72
8
 73
4
 74
0
 40
0
 40
0
 40
0
 40
0
 40
1
 40
1
 40
1
 40
1
 10
131.737770
 20
152.715060
 30
0.0
 10
134.302680
 20
151.792290
 30
0.0
 10
136.801010
 20
151.037300
 30
0.0
 10
137.289600
 20
151.037300
 30
0.0
  0
SPLINE
  5
1a8
100
AcDbEntity
  8
Layer_1
 62
7
100
AcDbSpline
 70
8
 71
3
 72
8
 73
4
 74
0
 40
0
 40
0
 40
0
 40
0
 40
1
 40
1
 40
1
 40
1
 10
137.289600
 20
151.037300
 30
0.0
 10
137.787050
 20
151.037300
 30
0.0
 10
138.608250
 20
151.329690
 30
0.0
 10
139.155810
 20
151.701770
 30
0.0
  0
SPLINE
  5
1a9
100
AcDbEntity
  8
Layer_1
 62
7
100
AcDbSpline
 70
8
 71
3
 72
8
 73
4
 74
0
 40
0
 40
0
 40
0
 40
0
 40
1
 40
1
 40
1
 40
1
 10
139.155810
 20
151.701770
 30
0.0
 10
140.617070
 20
152.694720
 30
0.0
 10
144.175300
 20
154.463590
 30
0.0
 10
146.015270
 20
155.111740
 30
0.0
  0
SPLINE
  5
1aa
100
AcDbEntity
  8
Layer_1
 62
7
100
AcDbSpline
 70
8
 71
3
 72
8
 73
4
 74
0
 40
0
 40
0
 40
0
 40
0
 40
1
 40
1
 40
1
 40
1
 10
146.015270
 20
155.111740
 30
0.0
 10
147.395490
 20
155.597940
 30
0.0
 10
148.814710
 20
155.739080
 30
0.0
 10
155.485760
 20
156.053530
 30
0.0
  0
SPLINE
  5
1ab
100
AcDbEntity
  8
Layer_1
 62
7
100
AcDbSpline
 70
8
 71
3
 72
8
 73
4
 74
0
 40
0
 40
0
 40
0
 40
0
 40
1
 40
1
 40
1
 40
1
 10
155.485760
 20
156.053530
 30
0.0
 10
164.930390
 20
156.498710
 30
0.0
 10
169.092430
 20
156.853300
 30
0.0
 10
173.168950
 20
157.560060
 30
0.0
  0
SPLINE
  5
1ac
100
AcDbEntity
  8
Layer_1
 62
7
100
AcDbSpline
 70
8
 71
3
 72
8
 73
4
 74
0
 40
0
 40
0
 40
0
 40
0
 40
1
 40
1
 40
1
 40
1
 10
173.168950
 20
157.560060
 30
0.0
 10
181.644600
 20
159.029500
 30
0.0
 10
190.367240
 20
162.083350
 30
0.0
 10
192.102840
 20
164.188920
 30
0.0
  0
SPLINE
  5
1ad
100
AcDbEntity
  8
Layer_1
 62
7
100
AcDbSpline
 70
8
 71
3
 72
8
 73
4
 74
0
 40
0
 40
0
 40
0
 40
0
 40
1
 40
1
 40
1
 40
1
 10
192.102840
 20
164.188920
 30
0.0
 10
193.588500
 20
165.991290
 30
0.0
 10
193.592790
 20
166.391090
 30
0.0
 10
192.273920
 20
180.125240
 30
0.0
  0
SPLINE
  5
1ae
100
AcDbEntity
  8
Layer_1
 62
7
100
AcDbSpline
 70
8
 71
3
 72
8
 73
4
 74
0
 40
0
 40
0
 40
0
 40
0
 40
1
 40
1
 40
1
 40
1
 10
192.273920
 20
180.125240
 30
0.0
 10
191.616520
 20
186.971050
 30
0.0
 10
190.769390
 20
195.798900
 30
0.0
 10
190.391400
 20
199.742680
 30
0.0
  0
SPLINE
  5
1af
100
AcDbEntity
  8
Layer_1
 62
7
100
AcDbSpline
 70
8
 71
3
 72
8
 73
4
 74
0
 40
0
 40
0
 40
0
 40
0
 40
1
 40
1
 40
1
 40
1
 10
190.391400
 20
199.742680
 30
0.0
 10
189.438440
 20
209.685689
 30
0.0
 10
188.611540
 20
212.099836
 30
0.0
 10
184.762210
 20
216.177250
 30
0.0
  0
SPLINE
  5
1b0
100
AcDbEntity
  8
Layer_1
 62
7
100
AcDbSpline
 70
8
 71
3
 72
8
 73
4
 74
0
 40
0
 40
0
 40
0
 40
0
 40
1
 40
1
 40
1
 40
1
 10
184.762210
 20
216.177250
 30
0.0
 10
182.529520
 20
218.542223
 30
0.0
 10
180.454380
 20
219.840522
 30
0.0
 10
173.570210
 20
223.179424
 30
0.0
  0
SPLINE
  5
1b1
100
AcDbEntity
  8
Layer_1
 62
7
100
AcDbSpline
 70
8
 71
3
 72
8
 73
4
 74
0
 40
0
 40
0
 40
0
 40
0
 40
1
 40
1
 40
1
 40
1
 10
173.570210
 20
223.179424
 30
0.0
 10
168.044760
 20
225.859338
 30
0.0
 10
166.985280
 20
226.285975
 30
0.0
 10
166.173890
 20
226.157831
 30
0.0
  0
SPLINE
  5
1b2
100
AcDbEntity
  8
Layer_1
 62
7
100
AcDbSpline
 70
8
 71
3
 72
8
 73
4
 74
0
 40
0
 40
0
 40
0
 40
0
 40
1
 40
1
 40
1
 40
1
 10
166.173890
 20
226.157831
 30
0.0
 10
163.197220
 20
225.687722
 30
0.0
 10
162.836530
 20
221.224177
 30
0.0
 10
165.704590
 20
220.350267
 30
0.0
  0
SPLINE
  5
1b3
100
AcDbEntity
  8
Layer_1
 62
7
100
AcDbSpline
 70
8
 71
3
 72
8
 73
4
 74
0
 40
0
 40
0
 40
0
 40
0
 40
1
 40
1
 40
1
 40
1
 10
165.704590
 20
220.350267
 30
0.0
 10
166.185940
 20
220.203599
 30
0.0
 10
167.980040
 20
220.017420
 30
0.0
 10
169.691500
 20
219.936536
 30
0.0
  0
SPLINE
  5
1b4
100
AcDbEntity
  8
Layer_1
 62
7
100
AcDbSpline
 70
8
 71
3
 72
8
 73
4
 74
0
 40
0
 40
0
 40
0
 40
0
 40
1
 40
1
 40
1
 40
1
 10
169.691500
 20
219.936536
 30
0.0
 10
173.509120
 20
219.756110
 30
0.0
 10
174.565170
 20
219.465049
 30
0.0
 10
175.953710
 20
218.210588
 30
0.0
  0
SPLINE
  5
1b5
100
AcDbEntity
  8
Layer_1
 62
7
100
AcDbSpline
 70
8
 71
3
 72
8
 73
4
 74
0
 40
0
 40
0
 40
0
 40
0
 40
1
 40
1
 40
1
 40
1
 10
175.953710
 20
218.210588
 30
0.0
 10
177.390890
 20
216.912181
 30
0.0
 10
178.067920
 20
215.509659
 30
0.0
 10
178.262290
 20
213.428175
 30
0.0
  0
SPLINE
  5
1b6
100
AcDbEntity
  8
Layer_1
 62
7
100
AcDbSpline
 70
8
 71
3
 72
8
 73
4
 74
0
 40
0
 40
0
 40
0
 40
0
 40
1
 40
1
 40
1
 40
1
 10
178.262290
 20
213.428175
 30
0.0
 10
178.453290
 20
211.382771
 30
0.0
 10
177.742650
 20
208.695508
 30
0.0
 10
176.503630
 20
206.777902
 30
0.0
  0
SPLINE
  5
1b7
100
AcDbEntity
  8
Layer_1
 62
7
100
AcDbSpline
 70
8
 71
3
 72
8
 73
4
 74
0
 40
0
 40
0
 40
0
 40
0
 40
1
 40
1
 40
1
 40
1
 10
176.503630
 20
206.777902
 30
0.0
 10
175.712800
 20
205.553949
 30
0.0
 10
141.647650
 20
166.864260
 30
0.0
 10
137.265810
 20
162.213340
 30
0.0
  0
SPLINE
  5
1b8
100
AcDbEntity
  8
Layer_1
 62
7
100
AcDbSpline
 70
8
 71
3
 72
8
 73
4
 74
0
 40
0
 40
0
 40
0
 40
0
 40
1
 40
1
 40
1
 40
1
 10
137.265810
 20
162.213340
 30
0.0
 10
135.142320
 20
159.959430
 30
0.0
 10
134.771660
 20
159.682530
 30
0.0
 10
133.334420
 20
159.276340
 30
0.0
  0
SPLINE
  5
1b9
100
AcDbEntity
  8
Layer_1
 62
7
100
AcDbSpline
 70
8
 71
3
 72
8
 73
4
 74
0
 40
0
 40
0
 40
0
 40
0
 40
1
 40
1
 40
1
 40
1
 10
133.334420
 20
159.276340
 30
0.0
 10
131.533980
 20
158.767500
 30
0.0
 10
129.798510
 20
158.863980
 30
0.0
 10
125.586070
 20
159.707100
 30
0.0
  0
SPLINE
  5
1ba
100
AcDbEntity
  8
Layer_1
 62
7
100
AcDbSpline
 70
8
 71
3
 72
8
 73
4
 74
0
 40
0
 40
0
 40
0
 40
0
 40
1
 40
1
 40
1
 40
1
 10
125.586070
 20
159.707100
 30
0.0
 10
122.248660
 20
160.375080
 30
0.0
 10
119.248720
 20
161.406380
 30
0.0
 10
118.104620
 20
162.279030
 30
0.0
  0
SPLINE
  5
1bb
100
AcDbEntity
  8
Layer_1
 62
7
100
AcDbSpline
 70
8
 71
3
 72
8
 73
4
 74
0
 40
0
 40
0
 40
0
 40
0
 40
1
 40
1
 40
1
 40
1
 10
118.104620
 20
162.279030
 30
0.0
 10
115.377630
 20
164.359010
 30
0.0
 10
115.232770
 20
168.596780
 30
0.0
 10
117.807550
 20
170.970130
 30
0.0
  0
SPLINE
  5
1bc
100
AcDbEntity
  8
Layer_1
 62
7
100
AcDbSpline
 70
8
 71
3
 72
8
 73
4
 74
0
 40
0
 40
0
 40
0
 40
0
 40
1
 40
1
 40
1
 40
1
 10
117.807550
 20
170.970130
 30
0.0
 10
119.346100
 20
172.388320
 30
0.0
 10
121.065030
 20
172.883790
 30
0.0
 10
122.942850
 20
172.450330
 30
0.0
  0
SPLINE
  5
1bd
100
AcDbEntity
  8
Layer_1
 62
7
100
AcDbSpline
 70
8
 71
3
 72
8
 73
4
 74
0
 40
0
 40
0
 40
0
 40
0
 40
1
 40
1
 40
1
 40
1
 10
122.942850
 20
172.450330
 30
0.0
 10
124.096600
 20
172.184010
 30
0.0
 10
124.415030
 20
172.199900
 30
0.0
 10
124.950100
 20
172.550500
 30
0.0
  0
SPLINE
  5
1be
100
AcDbEntity
  8
Layer_1
 62
7
100
AcDbSpline
 70
8
 71
3
 72
8
 73
4
 74
0
 40
0
 40
0
 40
0
 40
0
 40
1
 40
1
 40
1
 40
1
 10
124.950100
 20
172.550500
 30
0.0
 10
126.293420
 20
173.430670
 30
0.0
 10
125.957320
 20
174.023730
 30
0.0
 10
120.060880
 20
181.177830
 30
0.0
  0
SPLINE
  5
1bf
100
AcDbEntity
  8
Layer_1
 62
7
100
AcDbSpline
 70
8
 71
3
 72
8
 73
4
 74
0
 40
0
 40
0
 40
0
 40
0
 40
1
 40
1
 40
1
 40
1
 10
120.060880
 20
181.177830
 30
0.0
 10
113.077000
 20
189.651290
 30
0.0
 10
111.991600
 20
191.636570
 30
0.0
 10
111.617000
 20
196.622390
 30
0.0
  0
SPLINE
  5
1c0
100
AcDbEntity
  8
Layer_1
 62
7
100
AcDbSpline
 70
8
 71
3
 72
8
 73
4
 74
0
 40
0
 40
0
 40
0
 40
0
 40
1
 40
1
 40
1
 40
1
 10
111.617000
 20
196.622390
 30
0.0
 10
111.483980
 20
198.392805
 30
0.0
 10
111.615000
 20
199.693190
 30
0.0
 10
112.326050
 20
203.637958
 30
0.0
  0
SPLINE
  5
1c1
100
AcDbEntity
  8
Layer_1
 62
7
100
AcDbSpline
 70
8
 71
3
 72
8
 73
4
 74
0
 40
0
 40
0
 40
0
 40
0
 40
1
 40
1
 40
1
 40
1
 10
112.326050
 20
203.637958
 30
0.0
 10
113.297750
 20
209.031800
 30
0.0
 10
113.278540
 20
210.274133
 30
0.0
 10
112.187810
 20
212.579751
 30
0.0
  0
SPLINE
  5
1c2
100
AcDbEntity
  8
Layer_1
 62
7
100
AcDbSpline
 70
8
 71
3
 72
8
 73
4
 74
0
 40
0
 40
0
 40
0
 40
0
 40
1
 40
1
 40
1
 40
1
 10
112.187810
 20
212.579751
 30
0.0
 10
111.831050
 20
213.333887
 30
0.0
 10
111.077240
 20
214.392511
 30
0.0
 10
110.512690
 20
214.932251
 30
0.0
  0
SPLINE
  5
1c3
100
AcDbEntity
  8
Layer_1
 62
7
100
AcDbSpline
 70
8
 71
3
 72
8
 73
4
 74
0
 40
0
 40
0
 40
0
 40
0
 40
1
 40
1
 40
1
 40
1
 10
110.512690
 20
214.932251
 30
0.0
 10
109.078250
 20
216.303646
 30
0.0
 10
74.968595
 20
241.566785
 30
0.0
 10
74.238585
 20
241.798481
 30
0.0
  0
SPLINE
  5
1c4
100
AcDbEntity
  8
Layer_1
 62
7
100
AcDbSpline
 70
8
 71
3
 72
8
 73
4
 74
0
 40
0
 40
0
 40
0
 40
0
 40
1
 40
1
 40
1
 40
1
 10
74.238585
 20
241.798481
 30
0.0
 10
72.574268
 20
242.326716
 30
0.0
 10
67.077011
 20
239.984902
 30
0.0
 10
64.796739
 20
237.776286
 30
0.0
  0
SPLINE
  5
1c5
100
AcDbEntity
  8
Layer_1
 62
7
100
AcDbSpline
 70
8
 71
3
 72
8
 73
4
 74
0
 40
0
 40
0
 40
0
 40
0
 40
1
 40
1
 40
1
 40
1
 10
64.796739
 20
237.776286
 30
0.0
 10
63.318893
 20
236.344878
 30
0.0
 10
63.105344
 20
235.759521
 30
0.0
 10
63.693635
 20
234.752540
 30
0.0
  0
SPLINE
  5
1c6
100
AcDbEntity
  8
Layer_1
 62
7
100
AcDbSpline
 70
8
 71
3
 72
8
 73
4
 74
0
 40
0
 40
0
 40
0
 40
0
 40
1
 40
1
 40
1
 40
1
 10
63.693635
 20
234.752540
 30
0.0
 10
65.396183
 20
231.838278
 30
0.0
 10
65.734249
 20
230.510352
 30
0.0
 10
65.240469
 20
228.676595
 30
0.0
  0
SPLINE
  5
1c7
100
AcDbEntity
  8
Layer_1
 62
7
100
AcDbSpline
 70
8
 71
3
 72
8
 73
4
 74
0
 40
0
 40
0
 40
0
 40
0
 40
1
 40
1
 40
1
 40
1
 10
65.240469
 20
228.676595
 30
0.0
 10
65.068377
 20
228.037486
 30
0.0
 10
64.664260
 20
227.129555
 30
0.0
 10
64.342431
 20
226.658972
 30
0.0
  0
SPLINE
  5
1c8
100
AcDbEntity
  8
Layer_1
 62
7
100
AcDbSpline
 70
8
 71
3
 72
8
 73
4
 74
0
 40
0
 40
0
 40
0
 40
0
 40
1
 40
1
 40
1
 40
1
 10
64.342431
 20
226.658972
 30
0.0
 10
63.517124
 20
225.452183
 30
0.0
 10
51.264533
 20
214.321678
 30
0.0
 10
48.333922
 20
212.116512
 30
0.0
  0
SPLINE
  5
1c9
100
AcDbEntity
  8
Layer_1
 62
7
100
AcDbSpline
 70
8
 71
3
 72
8
 73
4
 74
0
 40
0
 40
0
 40
0
 40
0
 40
1
 40
1
 40
1
 40
1
 10
48.333922
 20
212.116512
 30
0.0
 10
46.898585
 20
211.036481
 30
0.0
 10
44.343201
 20
209.519176
 30
0.0
 10
42.110457
 20
208.421221
 30
0.0
  0
SPLINE
  5
1ca
100
AcDbEntity
  8
Layer_1
 62
7
100
AcDbSpline
 70
8
 71
3
 72
8
 73
4
 74
0
 40
0
 40
0
 40
0
 40
0
 40
1
 40
1
 40
1
 40
1
 10
42.110457
 20
208.421221
 30
0.0
 10
37.865176
 20
206.333598
 30
0.0
 10
36.561947
 20
205.266357
 30
0.0
 10
35.544694
 20
203.044383
 30
0.0
  0
SPLINE
  5
1cb
100
AcDbEntity
  8
Layer_1
 62
7
100
AcDbSpline
 70
8
 71
3
 72
8
 73
4
 74
0
 40
0
 40
0
 40
0
 40
0
 40
1
 40
1
 40
1
 40
1
 10
35.544694
 20
203.044383
 30
0.0
 10
34.794286
 20
201.405276
 30
0.0
 10
34.816964
 20
199.665120
 30
0.0
 10
35.608684
 20
198.134099
 30
0.0
  0
SPLINE
  5
1cc
100
AcDbEntity
  8
Layer_1
 62
7
100
AcDbSpline
 70
8
 71
3
 72
8
 73
4
 74
0
 40
0
 40
0
 40
0
 40
0
 40
1
 40
1
 40
1
 40
1
 10
35.608684
 20
198.134099
 30
0.0
 10
36.178051
 20
197.033065
 30
0.0
 10
38.902923
 20
194.802600
 30
0.0
 10
43.202130
 20
191.918430
 30
0.0
  0
SPLINE
  5
1cd
100
AcDbEntity
  8
Layer_1
 62
7
100
AcDbSpline
 70
8
 71
3
 72
8
 73
4
 74
0
 40
0
 40
0
 40
0
 40
0
 40
1
 40
1
 40
1
 40
1
 10
43.202130
 20
191.918430
 30
0.0
 10
47.482957
 20
189.046600
 30
0.0
 10
45.876248
 20
189.921390
 30
0.0
 10
75.476128
 20
174.346520
 30
0.0
  0
SPLINE
  5
1ce
100
AcDbEntity
  8
Layer_1
 62
7
100
AcDbSpline
 70
8
 71
3
 72
8
 73
4
 74
0
 40
0
 40
0
 40
0
 40
0
 40
1
 40
1
 40
1
 40
1
 10
75.476128
 20
174.346520
 30
0.0
 10
88.767302
 20
167.352960
 30
0.0
 10
100.307620
 20
161.128340
 30
0.0
 10
101.121280
 20
160.514030
 30
0.0
  0
SPLINE
  5
1cf
100
AcDbEntity
  8
Layer_1
 62
7
100
AcDbSpline
 70
8
 71
3
 72
8
 73
4
 74
0
 40
0
 40
0
 40
0
 40
0
 40
1
 40
1
 40
1
 40
1
 10
101.121280
 20
160.514030
 30
0.0
 10
102.889110
 20
159.179300
 30
0.0
 10
104.608760
 20
157.053910
 30
0.0
 10
105.833330
 20
154.690200
 30
0.0
  0
SPLINE
  5
1d0
100
AcDbEntity
  8
Layer_1
 62
7
100
AcDbSpline
 70
8
 71
3
 72
8
 73
4
 74
0
 40
0
 40
0
 40
0
 40
0
 40
1
 40
1
 40
1
 40
1
 10
105.833330
 20
154.690200
 30
0.0
 10
108.171350
 20
150.177290
 30
0.0
 10
110.960970
 20
148.160750
 30
0.0
 10
113.520050
 20
149.133710
 30
0.0
  0
LWPOLYLINE
  5
1d1
100
AcDbEntity
  8
Layer_1
 62
7
100
AcDbPolyline
 90
1
 70
1
 10
109.045000
 20
145.329250
 30
0.0
  0
LWPOLYLINE
  5
1d2
100
AcDbEntity
  8
Layer_1
 62
7
100
AcDbPolyline
 90
1
 70
1
 10
113.520050
 20
149.133710
 30
0.0
  0
ENDSEC
  0
SECTION
  2
OBJECTS
  0
DICTIONARY
  5
C
330
0
100
AcDbDictionary
  3
ACAD_GROUP
350
D
  3
ACAD_MLINESTYLE
350
17
  0
DICTIONARY
  5
D
330
C
100
AcDbDictionary
  0
DICTIONARY
  5
1A
330
C
100
AcDbDictionary
  0
DICTIONARY
  5
17
330
C
100
AcDbDictionary
  3
STANDARD
350
18
  0
DICTIONARY
  5
19
330
C
100
AcDbDictionary
  0
ENDSEC
  0
EOF
