<?xml version="1.0" encoding="UTF-8" standalone="no"?>
<svg
   xmlns:dc="http://purl.org/dc/elements/1.1/"
   xmlns:cc="http://creativecommons.org/ns#"
   xmlns:rdf="http://www.w3.org/1999/02/22-rdf-syntax-ns#"
   xmlns:svg="http://www.w3.org/2000/svg"
   xmlns="http://www.w3.org/2000/svg"
   xmlns:sodipodi="http://sodipodi.sourceforge.net/DTD/sodipodi-0.dtd"
   xmlns:inkscape="http://www.inkscape.org/namespaces/inkscape"
   sodipodi:docname="Silverstone.svg"
   inkscape:version="1.0 (4035a4fb49, 2020-05-01)"
   id="svg8"
   version="1.1"
   viewBox="0 0 210 297"
   height="297mm"
   width="210mm">
  <defs
     id="defs2">
    <rect
       id="rect41"
       height="17.386905"
       width="102.80952"
       y="17.386905"
       x="88.446429" />
    <pattern
       id="EMFhbasepattern"
       patternUnits="userSpaceOnUse"
       width="6"
       height="6"
       x="0"
       y="0" />
  </defs>
  <sodipodi:namedview
     inkscape:window-maximized="0"
     inkscape:window-y="1060"
     inkscape:window-x="2041"
     inkscape:window-height="1028"
     inkscape:window-width="2046"
     showgrid="false"
     inkscape:document-rotation="0"
     inkscape:current-layer="layer1"
     inkscape:document-units="mm"
     inkscape:cy="513.6136"
     inkscape:cx="328.17401"
     inkscape:zoom="1.4"
     inkscape:pageshadow="2"
     inkscape:pageopacity="0.0"
     borderopacity="1.0"
     bordercolor="#666666"
     pagecolor="#ffffff"
     id="base" />
  <metadata
     id="metadata5">
    <rdf:RDF>
      <cc:Work
         rdf:about="">
        <dc:format>image/svg+xml</dc:format>
        <dc:type
           rdf:resource="http://purl.org/dc/dcmitype/StillImage" />
        <dc:title></dc:title>
      </cc:Work>
    </rdf:RDF>
  </metadata>
  <g
     id="layer1"
     inkscape:groupmode="layer"
     inkscape:label="Layer 1">
    <g
       style="font-style:normal;font-variant:normal;font-weight:normal;font-stretch:normal;font-size:12.7px;line-height:1.25;font-family:'Bauhaus 93';-inkscape-font-specification:'Bauhaus 93, Normal';font-variant-ligatures:normal;font-variant-caps:normal;font-variant-numeric:normal;font-variant-east-asian:normal;white-space:pre;shape-inside:url(#rect41);fill:#000000;fill-opacity:1;stroke:none"
       id="text39"
       transform="rotate(28.506764,-104.73781,-39.556267)"
       aria-label="SILVERSTONE">
      <path
         id="path45"
         style="font-style:normal;font-variant:normal;font-weight:normal;font-stretch:normal;font-size:12.7px;font-family:'Bauhaus 93';-inkscape-font-specification:'Bauhaus 93, Normal';font-variant-ligatures:normal;font-variant-caps:normal;font-variant-numeric:normal;font-variant-east-asian:normal"
         d="m 93.271777,20.558995 v 2.412256 q -0.272851,-0.09302 -0.421679,-0.09302 -0.285254,0 -0.489893,0.210839 -0.204639,0.21084 -0.204639,0.508496 0,0.254249 0.223243,0.644922 l 0.192236,0.334864 q 0.520898,0.905371 0.520898,1.74873 0,1.234033 -0.880566,2.089795 -0.874365,0.855762 -2.139404,0.855762 -0.607715,0 -1.203028,-0.279053 v -2.449463 q 0.359668,0.229443 0.638721,0.229443 0.328662,0 0.545703,-0.186035 0.223242,-0.192236 0.223242,-0.47749 0,-0.186035 -0.353466,-0.812353 -0.564307,-0.992188 -0.564307,-1.984375 0,-1.196827 0.84956,-2.058789 0.855762,-0.868164 2.040186,-0.868164 0.520898,0 1.023193,0.173632 z" />
      <path
         id="path47"
         style="font-style:normal;font-variant:normal;font-weight:normal;font-stretch:normal;font-size:12.7px;font-family:'Bauhaus 93';-inkscape-font-specification:'Bauhaus 93, Normal';font-variant-ligatures:normal;font-variant-caps:normal;font-variant-numeric:normal;font-variant-east-asian:normal"
         d="m 97.073095,20.596202 v 8.4646 H 94.55542 v -8.4646 z" />
      <path
         id="path49"
         style="font-style:normal;font-variant:normal;font-weight:normal;font-stretch:normal;font-size:12.7px;font-family:'Bauhaus 93';-inkscape-font-specification:'Bauhaus 93, Normal';font-variant-ligatures:normal;font-variant-caps:normal;font-variant-numeric:normal;font-variant-east-asian:normal"
         d="m 98.598584,20.596202 h 2.517676 v 5.029151 q 0,0.589111 0.18603,0.787548 0.19224,0.192237 0.75035,0.192237 h 0.13022 v 2.455664 h -0.66973 q -1.37666,0 -2.145601,-0.799951 -0.768945,-0.806153 -0.768945,-2.232422 z" />
      <path
         id="path51"
         style="font-style:normal;font-variant:normal;font-weight:normal;font-stretch:normal;font-size:12.7px;font-family:'Bauhaus 93';-inkscape-font-specification:'Bauhaus 93, Normal';font-variant-ligatures:normal;font-variant-caps:normal;font-variant-numeric:normal;font-variant-east-asian:normal"
         d="m 109.12197,20.596202 -3.6897,8.948291 -3.66489,-8.948291 h 2.91455 l 0.77515,2.6417 0.85576,-2.6417 z" />
      <path
         id="path53"
         style="font-style:normal;font-variant:normal;font-weight:normal;font-stretch:normal;font-size:12.7px;font-family:'Bauhaus 93';-inkscape-font-specification:'Bauhaus 93, Normal';font-variant-ligatures:normal;font-variant-caps:normal;font-variant-numeric:normal;font-variant-east-asian:normal"
         d="m 114.20073,23.889025 v 1.885156 h -1.64331 q -0.33486,0 -0.47749,0.09922 -0.13643,0.09922 -0.13643,0.334863 0,0.26665 0.14263,0.353467 0.14263,0.08061 0.58291,0.08061 h 1.69292 v 2.418457 h -1.97817 q -1.39527,0 -2.13321,-0.663526 -0.73793,-0.669726 -0.73793,-1.928564 v -3.317627 q 0,-1.21543 0.69453,-1.885156 0.70073,-0.669727 1.96577,-0.669727 h 2.18901 v 2.43086 h -1.6061 q -0.65112,0 -0.65112,0.421679 0,0.248047 0.15502,0.347266 0.15503,0.09302 0.55191,0.09302 z" />
      <path
         id="path55"
         style="font-style:normal;font-variant:normal;font-weight:normal;font-stretch:normal;font-size:12.7px;font-family:'Bauhaus 93';-inkscape-font-specification:'Bauhaus 93, Normal';font-variant-ligatures:normal;font-variant-caps:normal;font-variant-numeric:normal;font-variant-east-asian:normal"
         d="m 118.33071,22.872032 v 6.18877 h -2.51767 v -8.4646 h 3.23081 q 1.47588,0 2.28823,0.731739 0.90537,0.818554 0.90537,2.077392 0,1.283643 -1.12241,2.164209 l 1.45107,3.49126 h -2.6417 l -1.22163,-2.728516 v -2.176611 h 0.19844 q 0.79375,0 0.79375,-0.682129 0,-0.601514 -0.91777,-0.601514 z" />
      <path
         id="path57"
         style="font-style:normal;font-variant:normal;font-weight:normal;font-stretch:normal;font-size:12.7px;font-family:'Bauhaus 93';-inkscape-font-specification:'Bauhaus 93, Normal';font-variant-ligatures:normal;font-variant-caps:normal;font-variant-numeric:normal;font-variant-east-asian:normal"
         d="m 127.37822,20.558995 v 2.412256 q -0.27285,-0.09302 -0.42168,-0.09302 -0.28525,0 -0.48989,0.210839 -0.20464,0.21084 -0.20464,0.508496 0,0.254249 0.22324,0.644922 l 0.19224,0.334864 q 0.5209,0.905371 0.5209,1.74873 0,1.234033 -0.88057,2.089795 -0.87436,0.855762 -2.1394,0.855762 -0.60772,0 -1.20303,-0.279053 v -2.449463 q 0.35967,0.229443 0.63872,0.229443 0.32866,0 0.5457,-0.186035 0.22325,-0.192236 0.22325,-0.47749 0,-0.186035 -0.35347,-0.812353 -0.56431,-0.992188 -0.56431,-1.984375 0,-1.196827 0.84956,-2.058789 0.85577,-0.868164 2.04019,-0.868164 0.5209,0 1.02319,0.173632 z" />
      <path
         id="path59"
         style="font-style:normal;font-variant:normal;font-weight:normal;font-stretch:normal;font-size:12.7px;font-family:'Bauhaus 93';-inkscape-font-specification:'Bauhaus 93, Normal';font-variant-ligatures:normal;font-variant-caps:normal;font-variant-numeric:normal;font-variant-east-asian:normal"
         d="m 132.34536,23.027062 v 6.03374 h -2.51768 v -6.03374 h -1.92856 v -2.43086 h 6.3686 v 2.43086 z" />
      <path
         id="path61"
         style="font-style:normal;font-variant:normal;font-weight:normal;font-stretch:normal;font-size:12.7px;font-family:'Bauhaus 93';-inkscape-font-specification:'Bauhaus 93, Normal';font-variant-ligatures:normal;font-variant-caps:normal;font-variant-numeric:normal;font-variant-east-asian:normal"
         d="m 139.22246,20.385363 q 1.79834,0 3.08198,1.308447 1.28985,1.308447 1.28985,3.131592 0,1.85415 -1.29605,3.150195 -1.29604,1.296045 -3.15019,1.296045 -1.84175,0 -3.144,-1.302246 -1.30224,-1.302246 -1.30224,-3.143994 0,-1.860352 1.30844,-3.150196 1.31465,-1.289843 3.21221,-1.289843 z m -0.0744,2.492871 q -0.77515,0 -1.32085,0.570507 -0.54571,0.570508 -0.54571,1.376661 0,0.806152 0.54571,1.37666 0.5519,0.570507 1.32085,0.570507 0.78134,0 1.32084,-0.564306 0.54571,-0.570508 0.54571,-1.382861 0,-0.812354 -0.54571,-1.376661 -0.5395,-0.570507 -1.32084,-0.570507 z" />
      <path
         id="path63"
         style="font-style:normal;font-variant:normal;font-weight:normal;font-stretch:normal;font-size:12.7px;font-family:'Bauhaus 93';-inkscape-font-specification:'Bauhaus 93, Normal';font-variant-ligatures:normal;font-variant-caps:normal;font-variant-numeric:normal;font-variant-east-asian:normal"
         d="m 144.61128,29.060802 v -5.494238 q 0,-1.444873 0.86196,-2.313037 0.86816,-0.868164 2.30684,-0.868164 1.43247,0 2.18901,0.843359 0.76274,0.843359 0.76274,2.424658 v 5.407422 h -2.51767 V 23.65338 q 0,-0.775146 -0.55191,-0.775146 -0.5333,0 -0.5333,0.775146 v 5.407422 z" />
      <path
         id="path65"
         style="font-style:normal;font-variant:normal;font-weight:normal;font-stretch:normal;font-size:12.7px;font-family:'Bauhaus 93';-inkscape-font-specification:'Bauhaus 93, Normal';font-variant-ligatures:normal;font-variant-caps:normal;font-variant-numeric:normal;font-variant-east-asian:normal"
         d="m 156.79038,23.889025 v 1.885156 h -1.64331 q -0.33487,0 -0.47749,0.09922 -0.13643,0.09922 -0.13643,0.334863 0,0.26665 0.14263,0.353467 0.14263,0.08061 0.58291,0.08061 h 1.69292 v 2.418457 h -1.97817 q -1.39527,0 -2.13321,-0.663526 -0.73794,-0.669726 -0.73794,-1.928564 v -3.317627 q 0,-1.21543 0.69453,-1.885156 0.70074,-0.669727 1.96578,-0.669727 h 2.18901 v 2.43086 h -1.6061 q -0.65113,0 -0.65113,0.421679 0,0.248047 0.15503,0.347266 0.15503,0.09302 0.55191,0.09302 z" />
    </g>
    <path
       id="path37"
       d="m 109.04502,151.67075 c -2.52539,-0.9878 -4.90716,-3.5217 -6.89061,-7.33075 -2.12846,-4.08751 -1.29801,-3.56315 -27.174169,-17.15832 -26.617071,-13.98444 -28.72852,-15.11796 -32.138717,-17.25345 -3.761854,-2.3557 -8.256529,-5.75493 -9.63113,-7.28381 -3.125119,-3.47589 -3.184991,-8.706274 -0.145957,-12.750848 1.474292,-1.962096 2.938794,-3.064177 5.934287,-4.465723 3.065744,-1.434416 5.25448,-2.722866 7.401067,-4.356807 1.934588,-1.472572 13.426485,-11.921564 14.217679,-12.927406 0.775198,-0.985504 0.718151,-1.588948 -0.300249,-3.175986 -0.68801,-1.072167 -0.892434,-1.714994 -0.979322,-3.079532 -0.160809,-2.525458 0.398599,-3.744992 2.691733,-5.868079 4.094009,-3.790425 11.330687,-6.090006 14.320318,-4.55053 1.214671,0.625483 35.51378,26.053798 36.88978,27.348955 1.42468,1.340992 2.73272,3.419456 3.40169,5.405267 0.75414,2.23861 0.71972,5.036331 -0.11739,9.541843 -0.82443,4.437269 -0.86217,6.908556 -0.14068,9.213186 0.8204,2.62061 1.70845,3.91069 7.33039,10.64898 2.85582,3.4229 5.41682,6.71052 5.69111,7.30581 1.01356,2.19974 0.41406,4.89596 -1.45312,6.53537 -1.37461,1.20692 -2.62645,1.55067 -4.88331,1.34091 -1.55914,-0.1449 -1.98013,-0.0961 -2.39302,0.2776 -0.55826,0.50522 -0.6401,1.22765 -0.22658,2.00031 0.51134,0.95546 7.35086,2.69861 10.58838,2.69861 1.11919,0 1.46418,-0.1346 2.25398,-0.8794 0.51289,-0.48367 9.59584,-10.68136 20.18433,-22.66153 13.23195,-14.971069 19.45321,-22.205174 19.89593,-23.135054 0.87284,-1.833292 0.88476,-3.890296 0.0283,-4.885972 -0.53332,-0.620025 -0.9253,-0.753938 -2.7735,-0.947547 -1.18382,-0.124012 -2.9504,-0.232041 -3.92572,-0.240064 -6.2516,-0.05143 -9.52152,-7.186727 -5.4652,-11.92562 1.36257,-1.591859 3.24618,-2.424004 5.49445,-2.427354 1.71304,-0.0024 1.99979,0.106611 8.4046,3.199529 3.64708,1.761195 7.41511,3.731498 8.37341,4.378449 3.8448,2.595642 7.45242,6.90971 9.01603,10.781566 1.08531,2.687465 1.46154,5.114105 2.48096,16.002167 0.52252,5.58082 1.32161,13.92162 1.77577,18.5351 0.45415,4.61348 0.77465,9.24715 0.71222,10.29705 -0.21657,3.64209 -2.28156,6.70463 -5.57471,8.26774 -2.98301,1.41591 -7.17197,2.90268 -10.94502,3.88467 -7.17847,1.86829 -11.49101,2.42031 -23.29573,2.9819 -4.74752,0.22586 -9.11882,0.54177 -9.714,0.70204 -1.61434,0.43469 -3.59586,1.36331 -5.91719,2.77301 -2.50059,1.51858 -4.27096,1.96867 -6.15451,1.56473 -0.73129,-0.15684 -3.25788,-0.97345 -5.61465,-1.81469 -6.35705,-2.26913 -7.44615,-2.16233 -11.5384,1.13155 -1.36663,1.10001 -3.02463,2.18397 -3.68443,2.40878 -1.62052,0.55217 -4.45335,0.50189 -6.00912,-0.10665 z m 4.47503,-3.80446 c 0.3777,-0.1436 1.57282,-0.97677 2.65582,-1.85148 2.52316,-2.03789 3.49833,-2.60479 5.44947,-3.16795 2.71467,-0.78354 4.73635,-0.49604 10.11243,1.43808 2.56491,0.92277 5.06324,1.67776 5.55183,1.67776 0.49745,0 1.31865,-0.29239 1.86621,-0.66447 1.46126,-0.99295 5.01949,-2.76182 6.85946,-3.40997 1.38022,-0.4862 2.79944,-0.62734 9.47049,-0.94179 9.44463,-0.44518 13.60667,-0.79977 17.68319,-1.50653 8.47565,-1.46944 17.19829,-4.52329 18.93389,-6.62886 1.48566,-1.80237 1.48995,-2.20217 0.17108,-15.93632 -0.6574,-6.84581 -1.50453,-15.67366 -1.88252,-19.61744 -0.95296,-9.943009 -1.77986,-12.357156 -5.62919,-16.43457 -2.23269,-2.364973 -4.30783,-3.663272 -11.192,-7.002174 -5.52545,-2.679914 -6.58493,-3.106551 -7.39632,-2.978407 -2.97667,0.470109 -3.33736,4.933654 -0.4693,5.807564 0.48135,0.146668 2.27545,0.332847 3.98691,0.413731 3.81762,0.180426 4.87367,0.471487 6.26221,1.725948 1.43718,1.298407 2.11421,2.700929 2.30858,4.782413 0.191,2.045404 -0.51964,4.732667 -1.75866,6.650273 -0.79083,1.223953 -34.85598,39.913642 -39.23782,44.564562 -2.12349,2.25391 -2.49415,2.53081 -3.93139,2.937 -1.80044,0.50884 -3.53591,0.41236 -7.74835,-0.43076 -3.33741,-0.66798 -6.33735,-1.69928 -7.48145,-2.57193 -2.72699,-2.07998 -2.87185,-6.31775 -0.29707,-8.6911 1.53855,-1.41819 3.25748,-1.91366 5.1353,-1.4802 1.15375,0.26632 1.47218,0.25043 2.00725,-0.10017 1.34332,-0.88017 1.00722,-1.47323 -4.88922,-8.62733 -6.98388,-8.47346 -8.06928,-10.45874 -8.44388,-15.44456 -0.13302,-1.770415 -0.002,-3.0708 0.70905,-7.015568 0.9717,-5.393842 0.95249,-6.636175 -0.13824,-8.941793 -0.35676,-0.754136 -1.11057,-1.81276 -1.67512,-2.3525 -1.43444,-1.371395 -35.544095,-26.634534 -36.274105,-26.86623 -1.664317,-0.528235 -7.161574,1.813579 -9.441846,4.022195 -1.477846,1.431408 -1.691395,2.016765 -1.103104,3.023746 1.702548,2.914262 2.040614,4.242188 1.546834,6.075945 -0.172092,0.639109 -0.576209,1.54704 -0.898038,2.017623 -0.825307,1.206789 -13.077898,12.337294 -16.008509,14.54246 -1.435337,1.080031 -3.990721,2.597336 -6.223465,3.695291 -4.245281,2.087623 -5.54851,3.154864 -6.565763,5.376838 -0.750408,1.639107 -0.72773,3.379263 0.06399,4.910284 0.569367,1.101034 3.294239,3.331499 7.593446,6.215669 4.280827,2.87183 2.674118,1.99704 32.273998,17.57191 13.291174,6.99356 24.831492,13.21818 25.645152,13.83249 1.76783,1.33473 3.48748,3.46012 4.71205,5.82383 2.33802,4.51291 5.12764,6.52945 7.68672,5.55649 z"
       style="fill:#000000;stroke-width:0.270585" />
  </g>
</svg>
